<svg xmlns="http://www.w3.org/2000/svg" viewBox="0 0 928 522"><defs><linearGradient x1="101.819%" y1="-1.824%" x2="-1.842%" y2="101.842%" id="a"><stop stop-color="#BB8EFF" offset="0%"/><stop stop-color="#0062FF" offset="100%"/></linearGradient></defs><g fill="none" fill-rule="evenodd"><path fill="#FFF" d="M0 0h928v522H0z"/><path fill="#FFF" d="M124 321h120V201H124z"/><g fill="#000"><path d="M184.002 285.899c-1.862 0-3.675-.212-5.422-.602l11.567-10.912a3.477 3.477 0 00.632-4.285L180.7 252.599a.795.795 0 01.146-.981l6.968-6.508a3.486 3.486 0 00.64-4.307l-2.674-4.631c6.772.48 12.8 3.679 17.005 8.51l-4.98 8.672a3.509 3.509 0 000 3.486l4.19 7.284a3.506 3.506 0 003.03 1.75h3.394c-2.272 11.404-12.357 20.025-24.418 20.025M159.102 261c0-3.557.754-6.938 2.103-10l1.725 2.97a3.516 3.516 0 003.023 1.738h6.92c.284 0 .547.149.69.395l2.842 4.922a.797.797 0 01-.143.98l-3.808 3.582a3.48 3.48 0 00-.636 4.296l2.518 4.362a.79.79 0 010 .795l-3.934 6.8c-6.797-4.45-11.3-12.128-11.3-20.84m23.544-24.862l3.47 6.012a.798.798 0 01-.144.985l-6.967 6.51a3.483 3.483 0 00-.645 4.3l10.079 17.502a.79.79 0 01-.143.974l-12.726 12.004a24.485 24.485 0 01-2.83-1.231l3.932-6.8a3.503 3.503 0 00.004-3.497l-2.518-4.361a.79.79 0 01.143-.978l3.812-3.586a3.486 3.486 0 00.63-4.295l-2.844-4.922a3.5 3.5 0 00-3.026-1.751h-6.92a.795.795 0 01-.688-.391l-2.587-4.456c4.145-6.856 11.5-11.562 19.968-12.02m26.156 27.033h-3.776a.794.794 0 01-.69-.395l-4.191-7.283a.792.792 0 01.002-.791l4.427-7.711a24.753 24.753 0 014.328 14.01c0 .73-.038 1.455-.1 2.17m-24.8-29.772c-.25 0-.495.012-.742.019h-.027c-9.92.274-18.544 5.803-23.187 13.903-.022.028-.033.06-.052.09a27.409 27.409 0 00-3.592 13.59c0 10.169 5.533 19.064 13.74 23.853.02.013.03.033.052.045.032.019.067.025.1.042a27.49 27.49 0 005.065 2.267l.048.015a27.436 27.436 0 008.595 1.378c15.218 0 27.6-12.382 27.6-27.6 0-15.221-12.382-27.602-27.6-27.602m17.091 72.742l-.959-2.527c12.207-4.64 21.844-14.29 26.44-26.474l2.527.952c-4.869 12.91-15.077 23.13-28.008 28.048m-34.186.001c-12.93-4.919-23.139-15.14-28.008-28.049l2.527-.952c4.596 12.184 14.233 21.833 26.44 26.474l-.959 2.526zm59.669-61.272a45.665 45.665 0 00-26.442-26.44l.96-2.528a48.387 48.387 0 0128.005 28.008l-2.523.96zm-85.152 0l-2.523-.96a48.389 48.389 0 0128.006-28.008l.96 2.528a45.668 45.668 0 00-26.443 26.44m42.578-38.767c-4.426 0-8.025 3.601-8.025 8.024 0 .242-.004.487.027.729.397 4.179 3.832 7.295 7.998 7.295s7.603-3.116 7.995-7.251c.034-.282.03-.527.03-.773 0-4.423-3.6-8.024-8.025-8.024m0 18.75c-5.566 0-10.157-4.171-10.681-9.697a8.45 8.45 0 01-.044-1.029c0-5.915 4.81-10.726 10.725-10.726s10.725 4.811 10.725 10.726c0 .355-.004.71-.046 1.066-.52 5.489-5.113 9.66-10.68 9.66"/><path d="M184.002 206.101c-4.426 0-8.025 3.601-8.025 8.024 0 .242-.004.487.027.729.397 4.179 3.832 7.295 7.998 7.295s7.603-3.116 7.995-7.251c.034-.282.03-.527.03-.773 0-4.423-3.6-8.024-8.025-8.024m0 18.75c-5.566 0-10.157-4.171-10.681-9.697a8.45 8.45 0 01-.044-1.029c0-5.915 4.81-10.726 10.725-10.726s10.725 4.811 10.725 10.726c0 .355-.004.71-.046 1.066-.52 5.489-5.113 9.66-10.68 9.66m.001 75c-4.166 0-7.601 3.117-7.993 7.251-.036.286-.032.531-.032.773 0 4.424 3.599 8.024 8.025 8.024s8.025-3.6 8.025-8.024c0-.246.004-.491-.027-.736a7.995 7.995 0 00-7.998-7.288m0 18.75c-5.914 0-10.725-4.812-10.725-10.726 0-.359.004-.714.05-1.073.518-5.482 5.109-9.653 10.675-9.653 5.566 0 10.159 4.171 10.683 9.697.038.318.042.674.042 1.029 0 5.914-4.81 10.726-10.725 10.726m46.741-65.625c-.201 0-.403 0-.604.026-4.171.396-7.29 3.83-7.29 7.998 0 4.167 3.119 7.603 7.253 7.995.286.036.526.04.773.029 4.426 0 8.026-3.6 8.026-8.024 0-4.467-3.75-7.954-8.158-8.024m.132 18.75c-.355 0-.707-.003-1.062-.047-5.493-.52-9.662-5.112-9.662-10.679 0-5.566 4.169-10.159 9.698-10.682.319-.04.671-.044 1.026-.044 5.914 0 10.724 4.811 10.724 10.726 0 5.914-4.81 10.726-10.724 10.726m-93.631-18.75c-4.473-.19-8.145 3.56-8.145 8.024-.001 4.468 3.624 8.06 8.158 8.024.201 0 .404 0 .606-.026a7.996 7.996 0 007.288-7.998 7.988 7.988 0 00-7.251-7.995c-.239-.029-.449-.029-.656-.029m-.119 18.75c-5.914 0-10.724-4.812-10.724-10.726 0-5.915 4.81-10.726 10.724-10.726.355 0 .709.004 1.064.048 5.493.519 9.66 5.112 9.66 10.678 0 5.567-4.167 10.159-9.697 10.682a8.281 8.281 0 01-1.027.044"/></g><path fill="#FFF" d="M308 321h120V201H308z"/><path d="M416.714 289.649c-2.045 0-4.047-1.19-5.226-3.105a1.35 1.35 0 00-1.15-.645h-1.087a1.35 1.35 0 00-1.35 1.352v13.648H383a1.35 1.35 0 00-1.35 1.352v.86c0 .494.269.948.7 1.183 1.973 1.084 3.2 3.13 3.2 5.342a6.156 6.156 0 01-6.15 6.15 6.157 6.157 0 01-6.151-6.15c0-2.101 1.133-4.104 2.957-5.225.4-.245.643-.681.643-1.15v-1.01a1.35 1.35 0 00-1.35-1.352h-13.65v-11.141c1.66 1.634 3.864 2.593 6.123 2.593 4.894 0 8.877-3.97 8.877-8.85 0-4.882-3.983-8.852-8.877-8.852-2.367 0-4.523.854-6.123 2.354V262.35h46.05v17.4c0 .747.605 1.35 1.35 1.35h.902c.492 0 .946-.27 1.184-.703 1.045-1.907 3.056-3.047 5.378-3.047 3.41 0 6.187 2.758 6.187 6.15 0 3.39-2.776 6.148-6.187 6.148zm-86.065-3.75c-4.88 0-8.85 3.97-8.85 8.852 0 2.339.91 4.522 2.509 6.148H313.1V262.35h13.65a1.35 1.35 0 001.35-1.35v-1.122c0-.468-.244-.904-.646-1.15-1.85-1.135-2.957-3.09-2.957-5.228a6.157 6.157 0 016.151-6.15 6.156 6.156 0 016.15 6.15c0 2.214-1.227 4.265-3.202 5.357a1.354 1.354 0 00-.696 1.183v.96c0 .747.604 1.35 1.35 1.35h24.9v17.4c0 .747.604 1.35 1.35 1.35h.908c.491 0 .943-.266 1.18-.695 1.06-1.915 3.071-3.055 5.384-3.055 3.407 0 6.179 2.758 6.179 6.15 0 3.39-2.772 6.148-6.178 6.148-2.064 0-4.076-1.19-5.253-3.105a1.351 1.351 0 00-1.15-.645h-1.07a1.35 1.35 0 00-1.35 1.352v13.648h-22.18a8.784 8.784 0 002.527-6.148c0-4.882-3.97-8.852-8.849-8.852zm-17.55-64.798h13.652c.745 0 1.349-.603 1.349-1.35v-1.125c0-.47-.243-.905-.643-1.15-1.824-1.121-2.957-3.124-2.957-5.225a6.157 6.157 0 016.15-6.15 6.156 6.156 0 016.15 6.15c0 2.21-1.227 4.258-3.2 5.342a1.353 1.353 0 00-.7 1.183v.975c0 .747.604 1.35 1.35 1.35h24.9v17.4c0 .747.604 1.35 1.35 1.35h.9c.493 0 .947-.27 1.185-.703 1.045-1.907 3.056-3.047 5.378-3.047 3.411 0 6.187 2.758 6.187 6.15 0 3.39-2.776 6.148-6.187 6.148-2.045 0-4.047-1.19-5.226-3.105a1.35 1.35 0 00-1.15-.645H360.5a1.35 1.35 0 00-1.35 1.352v13.648h-22.18a8.784 8.784 0 002.527-6.148c0-4.882-3.97-8.852-8.849-8.852-4.88 0-8.85 3.97-8.85 8.852 0 2.339.91 4.522 2.51 6.148h-11.209V221.1zm62.402 0c.745 0 1.349-.603 1.349-1.35v-1.125c0-.47-.243-.905-.643-1.15-1.825-1.121-2.957-3.124-2.957-5.225a6.157 6.157 0 016.15-6.15 6.156 6.156 0 016.15 6.15c0 2.21-1.226 4.258-3.2 5.342a1.353 1.353 0 00-.7 1.183v.975c0 .747.605 1.35 1.35 1.35h24.9v14.656c-1.603-1.49-3.78-2.358-6.113-2.358-4.9 0-8.886 3.97-8.886 8.852 0 4.88 3.986 8.85 8.886 8.85 2.234 0 4.435-.963 6.114-2.6v11.148H361.85V248.49c1.659 1.643 3.86 2.61 6.114 2.61 4.9 0 8.886-3.97 8.886-8.85 0-4.882-3.986-8.852-8.886-8.852-2.333 0-4.51.868-6.114 2.358V221.1h13.65zm41.213 53.548c-2.333 0-4.51.868-6.114 2.358V246a1.35 1.35 0 00-1.35-1.352h-1.05a1.35 1.35 0 00-1.14.63c-1.22 1.926-3.24 3.12-5.273 3.12-3.411 0-6.187-2.758-6.187-6.148 0-3.392 2.776-6.15 6.187-6.15 2.322 0 4.332 1.14 5.378 3.047.238.433.692.703 1.185.703h.9c.746 0 1.35-.603 1.35-1.35v-18.75a1.35 1.35 0 00-1.35-1.352h-23.536a8.757 8.757 0 002.536-6.148c0-4.882-3.97-8.852-8.85-8.852-4.88 0-8.85 3.97-8.85 8.852 0 2.299.935 4.51 2.528 6.148h-36.114a8.757 8.757 0 002.536-6.148c0-4.882-3.97-8.852-8.85-8.852-4.88 0-8.85 3.97-8.85 8.852 0 2.299.935 4.51 2.528 6.148H311.75a1.35 1.35 0 00-1.35 1.352v82.5c0 .747.604 1.35 1.35 1.35h15c.745 0 1.349-.603 1.349-1.35v-1.122c0-.468-.243-.904-.645-1.15-1.851-1.135-2.957-3.09-2.957-5.228a6.157 6.157 0 016.15-6.15 6.156 6.156 0 016.15 6.15c0 2.214-1.226 4.265-3.201 5.357a1.354 1.354 0 00-.696 1.183v.96c0 .747.604 1.35 1.35 1.35h38.717c-1.525 1.626-2.417 3.79-2.417 6.035 0 4.882 3.97 8.852 8.85 8.852 4.879 0 8.849-3.97 8.849-8.852 0-2.273-.89-4.424-2.424-6.035h23.425c.745 0 1.349-.603 1.349-1.35v-12.51c1.659 1.643 3.86 2.61 6.114 2.61 4.9 0 8.886-3.97 8.886-8.85 0-4.882-3.986-8.852-8.886-8.852z" fill="#8A3FFC"/><path fill="#FFF" d="M492 321h120V201H492z"/><path d="M600.752 246c0 22.781-18.469 41.25-41.25 41.25s-41.25-18.469-41.25-41.25 18.469-41.25 41.25-41.25 41.25 18.469 41.25 41.25" fill="#F7F1FF"/><path d="M600.752 246c0 22.781-18.469 41.25-41.25 41.25s-41.25-18.469-41.25-41.25 18.469-41.25 41.25-41.25 41.25 18.469 41.25 41.25z" stroke="#000" stroke-width=".72" stroke-linecap="round"/><path d="M570.752 234.75c0 6.214-5.036 11.25-11.25 11.25s-11.25-5.036-11.25-11.25 5.036-11.25 11.25-11.25 11.25 5.036 11.25 11.25m11.25 30c0 6.214-5.036 11.25-11.25 11.25s-11.25-5.036-11.25-11.25 5.036-11.25 11.25-11.25 11.25 5.036 11.25 11.25m-62.719-27.957a11.213 11.213 0 016.468-2.043c6.214 0 11.25 5.036 11.25 11.25 0 6.213-5.036 11.25-11.25 11.25-2.388 0-4.605-.743-6.427-2.014m51.326-48.959c-.747 5.49-5.453 9.724-11.15 9.724-5.696 0-10.402-4.234-11.145-9.724m49.275 23.84a11.258 11.258 0 01-4.376.882c-6.214 0-11.25-5.033-11.25-11.25a11.2 11.2 0 012.25-6.75" fill="#E6D6FF"/><path d="M559.502 224.851c-5.46 0-9.9 4.44-9.9 9.9s4.44 9.897 9.9 9.897 9.9-4.436 9.9-9.896c0-5.46-4.44-9.9-9.9-9.9m0 22.5c-6.949 0-12.6-5.656-12.6-12.6 0-6.95 5.651-12.604 12.6-12.604s12.6 5.655 12.6 12.604c0 6.944-5.651 12.6-12.6 12.6m11.25 7.499c-5.46 0-9.9 4.44-9.9 9.9s4.44 9.897 9.9 9.897 9.9-4.437 9.9-9.897-4.44-9.9-9.9-9.9m0 22.5c-6.949 0-12.6-5.655-12.6-12.6 0-6.948 5.651-12.603 12.6-12.603s12.6 5.655 12.6 12.603c0 6.945-5.651 12.6-12.6 12.6m-73.125-65.101c0 1.031-.84 1.875-1.875 1.875a1.876 1.876 0 111.875-1.875m22.5 7.5a1.876 1.876 0 11-3.751-.001 1.876 1.876 0 013.75.001m-11.249 7.5c0 1.031-.84 1.875-1.875 1.875a1.876 1.876 0 111.875-1.875m3.75 7.5c0 1.031-.84 1.875-1.875 1.875a1.876 1.876 0 111.875-1.875m-11.25-3.75c0 1.031-.84 1.875-1.875 1.875a1.876 1.876 0 111.875-1.875m3.75 7.5c0 1.031-.84 1.875-1.875 1.875a1.876 1.876 0 111.875-1.875m-7.5 7.657c0 1.032-.84 1.875-1.875 1.875a1.876 1.876 0 111.875-1.875m11.25 7.343a1.876 1.876 0 11-3.751-.001 1.876 1.876 0 013.75.001m-7.499 3.75c0 1.031-.84 1.875-1.875 1.875a1.876 1.876 0 111.875-1.875" fill="#8A3FFC"/><path d="M559.502 285.899c-17.899 0-33.083-11.847-38.123-28.114 1.395.521 2.862.817 4.373.817 6.949 0 12.6-5.655 12.6-12.603 0-6.945-5.651-12.6-12.6-12.6-1.515 0-2.981.296-4.373.81 3.852-12.42 13.62-22.253 25.995-26.205 1.455 5.418 6.39 9.348 12.128 9.348 5.737 0 10.672-3.933 12.127-9.348a39.732 39.732 0 0110.785 5.38c-1.136 1.928-1.762 4.092-1.762 6.365 0 6.948 5.651 12.603 12.6 12.603 1.2 0 2.359-.228 3.491-.558 1.691 4.42 2.659 9.195 2.659 14.205 0 22.005-17.899 39.9-39.9 39.9zm-39.9-39.9c0-2.87.319-5.663.896-8.363a9.804 9.804 0 015.254-1.534c5.46 0 9.9 4.437 9.9 9.897s-4.44 9.9-9.9 9.9c-1.875 0-3.675-.548-5.254-1.534a39.958 39.958 0 01-.896-8.366zm49.432-38.7c-1.143 4.263-5.02 7.35-9.532 7.35-4.515 0-8.393-3.09-9.533-7.35 3.064-.754 6.244-1.197 9.533-1.197 3.289 0 6.469.443 9.532 1.196zm26.66 22.008c-.796.203-1.606.341-2.442.341-5.46 0-9.9-4.44-9.9-9.9 0-1.683.427-3.296 1.222-4.743a40.078 40.078 0 0111.12 14.302zm13.51 64.485l-18.686-18.682c7.163-7.628 11.584-17.854 11.584-29.112a42.34 42.34 0 00-3.143-15.986 1.259 1.259 0 00-.086-.427c-.041-.094-.112-.169-.172-.248-2.937-6.881-7.658-12.802-13.55-17.269-.04-.045-.037-.112-.09-.153-.093-.072-.205-.105-.31-.15a42.403 42.403 0 00-13.478-6.675 1.348 1.348 0 00-.442-.154c-.045-.011-.087.007-.135.004-3.574-.975-7.313-1.542-11.194-1.542-3.878 0-7.62.567-11.194 1.542-.049.003-.086-.015-.135-.004a1.348 1.348 0 00-.442.154c-14.697 4.237-26.127 16.173-29.655 31.155-.068.146-.11.3-.12.461a42.442 42.442 0 00-1.054 9.292c0 3.255.401 6.41 1.095 9.454l.011.056c.3 1.294.649 2.57 1.061 3.822a1.833 1.833 0 00-.817-.207 1.876 1.876 0 000 3.75 1.88 1.88 0 001.71-1.113c6.277 15.701 21.619 26.842 39.54 26.842 11.257 0 21.484-4.425 29.107-11.584l18.687 18.687 1.908-1.913zM508.877 264.75c0 1.031-.84 1.875-1.875 1.875a1.876 1.876 0 111.875-1.875m18.75 15c0 1.031-.84 1.875-1.875 1.875a1.876 1.876 0 111.875-1.875m11.25 7.5c0 1.031-.84 1.875-1.875 1.875a1.876 1.876 0 111.875-1.875m-22.5-3.75c0 1.031-.84 1.875-1.875 1.875a1.876 1.876 0 111.875-1.875m-7.5 3.684c0 1.031-.84 1.875-1.875 1.875a1.876 1.876 0 111.875-1.875m-7.5 3.816a1.876 1.876 0 11-3.751-.001 1.876 1.876 0 013.75.001m11.245 7.5c0 1.031-.84 1.875-1.875 1.875a1.876 1.876 0 111.875-1.875m-3.744 7.5c0 1.031-.84 1.875-1.875 1.875a1.876 1.876 0 111.875-1.875m15-11.265a1.876 1.876 0 11-3.751-.001 1.876 1.876 0 013.75.001m11.251 7.515a1.876 1.876 0 11-3.751-.001 1.876 1.876 0 013.75.001m37.501-7.5a1.876 1.876 0 11-3.751-.001 1.876 1.876 0 013.75.001m-26.249 22.5c0 1.031-.84 1.875-1.875 1.875a1.876 1.876 0 111.875-1.875m-33.75-110.625a1.876 1.876 0 11-3.751-.001 1.876 1.876 0 013.75.001m15.001 1.908a1.876 1.876 0 11-3.751-.001 1.876 1.876 0 013.75.001" fill="#8A3FFC"/><g><path fill="#FFF" d="M676 321h120V201H676z"/><path d="M73.125 58.125a1.876 1.876 0 10.001 3.751 1.876 1.876 0 00-.001-3.751zM97.5 16.875a1.876 1.876 0 10.001 3.751 1.876 1.876 0 00-.001-3.751zM46.875 18.75a1.876 1.876 0 11-3.751-.001 1.876 1.876 0 013.751.001zm10.496 2.4h23.955a16.324 16.324 0 010-4.8H57.371a12.642 12.642 0 010 4.8zM45 8.85c-5.46 0-9.9 4.44-9.9 9.9s4.44 9.9 9.9 9.9 9.9-4.44 9.9-9.9-4.44-9.9-9.9-9.9zM97.5 5.1c-7.526 0-13.65 6.124-13.65 13.65 0 7.526 6.124 13.65 13.65 13.65 7.526 0 13.65-6.124 13.65-13.65 0-7.526-6.124-13.65-13.65-13.65zM29.918 37.969a11.95 11.95 0 014.23 2.636l5.925-10.26a12.675 12.675 0 01-4.122-2.831l-6.034 10.455zm43.81 9.438c1.988 0 3.98.514 5.753 1.546 1.71.99 3.139 2.418 4.129 4.136l.281.483 10.8-18.712c-4.147-.72-7.766-3.015-10.219-6.236L73.629 47.408h.1zm-61.004 5.76l16.061 9.27 4.954-8.508a9.142 9.142 0 001.053-6.975 9.112 9.112 0 00-4.166-5.666c-4.335-2.63-10.001-1.223-12.622 3.12l-5.28 8.76zM76.62 81.15h20.047L81.27 54.439a8.583 8.583 0 00-3.142-3.15c-2.697-1.568-6.038-1.583-8.72-.038a8.706 8.706 0 00-3.168 3.18c-1.507 2.595-1.515 6.087-.015 8.685L76.62 81.15zM61.35 99.9h46.05V83.854H61.35V99.9zm-55.275 15H114.9v-12.3H13.174l-7.099 12.3zm110.175 2.7H3.75a1.35 1.35 0 01-1.35-1.35c0-.236.064-.495.18-.701l8.644-14.974a1.36 1.36 0 011.17-.675H58.65V82.5c0-.746.604-1.35 1.35-1.35h13.504l-9.619-16.688c-1.995-3.457-1.987-7.93.019-11.388a11.343 11.343 0 016.285-5.108l12.667-21.945a16.7 16.7 0 01-.892-2.171H56.52c-1.961 4.414-6.386 7.5-11.52 7.5-.776 0-1.534-.071-2.273-.203l-6.76 11.712a12.099 12.099 0 011.447 3.446 11.803 11.803 0 01-1.354 9l-5.618 9.652a1.338 1.338 0 01-1.84.492l-7.985-4.609-3.033 5.254a8.575 8.575 0 012.794 4.222 8.574 8.574 0 01-.68 6.574l-1.953 3.6c-.172.229-.529.574-.806.656l-5.865 1.736-.765-2.587 5.344-1.586 1.676-3.109a5.892 5.892 0 00.461-4.515 5.893 5.893 0 00-2.854-3.529 5.891 5.891 0 00-4.515-.465 5.9 5.9 0 00-3.532 2.854l-1.684 3.109 1.575 5.321-2.588.769-1.736-5.858a1.344 1.344 0 01.109-1.027l1.954-3.6a8.575 8.575 0 015.133-4.155 8.5 8.5 0 015.6.228l3.025-5.242-8.096-4.676a1.35 1.35 0 01-.48-1.864l5.993-9.938c2.463-4.087 7.039-6.165 11.471-5.677l7.009-12.143A12.544 12.544 0 0132.4 18.75c0-6.949 5.651-12.6 12.6-12.6 5.134 0 9.559 3.086 11.52 7.5h25.444C84.112 7.121 90.266 2.4 97.5 2.4c9.015 0 16.35 7.335 16.35 16.35 0 8.959-7.241 16.256-16.181 16.346l-12.221 21.18L99.784 81.15h8.966c.746 0 1.35.604 1.35 1.35v17.4h6.15c.746 0 1.35.604 1.35 1.35v15a1.35 1.35 0 01-1.35 1.35z" fill="url(#a)" transform="translate(676 201)"/></g></g></svg>