<svg xmlns="http://www.w3.org/2000/svg" viewBox="0 0 288 288"><g fill="none" fill-rule="evenodd"><path fill="#FFF" d="M0 0h288v288H0z"/><path fill="#e5e5e5" d="M0 0h288v288H0z"/><path d="M52 236h184V52H52z"/><path d="M143.412 149.18a5.753 5.753 0 000-11.506 5.753 5.753 0 000 11.506m0-32.436c-14.714 0-26.68 11.971-26.68 26.686 0 14.714 11.966 26.68 26.68 26.68 14.715 0 26.68-11.966 26.68-26.68 0-14.715-11.965-26.686-26.68-26.686m0 57.506c-16.997 0-30.82-13.83-30.82-30.82 0-16.997 13.823-30.826 30.82-30.826s30.82 13.829 30.82 30.826c0 16.99-13.823 30.82-30.82 30.82m0-86.262c-30.567 0-55.43 24.875-55.43 55.442s24.863 55.435 55.43 55.435c30.562 0 55.43-24.868 55.43-55.435 0-30.567-24.868-55.442-55.43-55.442m0 115.017c-32.85 0-59.57-26.726-59.57-59.575 0-32.856 26.72-59.582 59.57-59.582 32.844 0 59.57 26.726 59.57 59.582 0 32.85-26.726 59.575-59.57 59.575m0-143.773c-46.42 0-84.18 37.772-84.18 84.198 0 46.42 37.76 84.191 84.18 84.191 46.42 0 84.18-37.772 84.18-84.191 0-46.426-37.76-84.198-84.18-84.198m0 172.53c-48.702 0-88.32-39.624-88.32-88.332 0-48.709 39.618-88.338 88.32-88.338 48.697 0 88.32 39.63 88.32 88.338 0 48.708-39.623 88.331-88.32 88.331" fill="#97C1FF"/></g></svg>