<svg xmlns="http://www.w3.org/2000/svg" viewBox="0 0 288 288"><g fill="none" fill-rule="evenodd"><path fill="#FFF" d="M0 0h288v288H0z"/><path fill="#EDF4FF" d="M0 0h288v288H0z"/><path d="M53 236h182.454V52H53z"/><path d="M227.522 228.358V77.253H60.577v151.105h18.701v-3.692c0-27.088 18.736-51.652 45.226-60.231-10.57-6.716-17.168-18.504-17.168-31.309 0-20.412 16.473-37.018 36.708-37.018 20.24 0 36.702 16.606 36.702 37.018 0 12.805-6.592 24.593-17.157 31.309 26.49 8.579 45.226 33.143 45.226 60.231v3.692h18.707zm-95.497-63.13a2.064 2.064 0 01-1.568 1.829c-27.277 6.52-47.073 30.75-47.073 57.61v3.69H204.71v-3.69c0-26.86-19.796-51.09-47.073-57.61a2.07 2.07 0 01-1.574-1.829 2.083 2.083 0 011.209-2.081c11.768-5.279 19.368-17.066 19.368-30.02 0-18.13-14.624-32.874-32.596-32.874-17.972 0-32.597 14.743-32.597 32.873 0 12.955 7.6 24.742 19.369 30.02a2.083 2.083 0 011.209 2.082zm-71.448-92.12h166.945V60.003H60.577v13.105zm171.05-15.18v172.5a2.06 2.06 0 01-2.052 2.075H58.525a2.065 2.065 0 01-2.053-2.075v-172.5c0-1.145.923-2.07 2.052-2.07h171.05a2.06 2.06 0 012.053 2.07zm-39.113 5.75c-1.574 0-2.851 1.288-2.851 2.875a2.86 2.86 0 002.85 2.875 2.86 2.86 0 002.852-2.875c0-1.587-1.277-2.875-2.851-2.875zm11.403 0c-1.573 0-2.85 1.288-2.85 2.875a2.86 2.86 0 002.85 2.875 2.86 2.86 0 002.851-2.875c0-1.587-1.277-2.875-2.85-2.875zm14.254 2.875a2.86 2.86 0 01-2.85 2.875 2.86 2.86 0 01-2.851-2.875c0-1.587 1.277-2.875 2.85-2.875 1.574 0 2.851 1.288 2.851 2.875z" fill="#0062FF"/></g></svg>