<svg id="f5d426d6-2136-4e2f-b706-c276588be1e9" data-name="Layer 1" xmlns="http://www.w3.org/2000/svg" viewBox="0 0 288 432">
  <path d="M0,0H288V432H0Z" fill="#fff" fill-rule="evenodd"/>
  <g>
    <path d="M43.3252,177.144v-1.9179h-4.718V174.19l4.0881-6.8178h1.75v6.874h1.4138v.98H44.4453v1.9179Zm-3.6121-2.8979h3.6121v-5.9639h-.07Z" fill="#525252"/>
    <path d="M50.675,177.312a4.5186,4.5186,0,0,1-1.47-.2168,3.0873,3.0873,0,0,1-1.0569-.5952,2.4415,2.4415,0,0,1-.644-.896,2.8666,2.8666,0,0,1-.2171-1.12,2.2526,2.2526,0,0,1,.5459-1.5957,2.9435,2.9435,0,0,1,1.428-.8262V171.95a2.5434,2.5434,0,0,1-1.2249-.8613,2.2923,2.2923,0,0,1-.455-1.4351,2.1879,2.1879,0,0,1,.812-1.7847,4.2478,4.2478,0,0,1,4.5639,0,2.1879,2.1879,0,0,1,.812,1.7847,2.2946,2.2946,0,0,1-.4548,1.4351,2.5449,2.5449,0,0,1-1.2251.8613v.1118a2.9435,2.9435,0,0,1,1.428.8262,2.2526,2.2526,0,0,1,.5459,1.5957,2.8719,2.8719,0,0,1-.2168,1.12,2.4522,2.4522,0,0,1-.6441.896,3.09,3.09,0,0,1-1.0571.5952A4.5188,4.5188,0,0,1,50.675,177.312Zm0-1.0361a2.4546,2.4546,0,0,0,1.5821-.4531,1.5652,1.5652,0,0,0,.56-1.29v-.2934a1.564,1.564,0,0,0-.56-1.29,2.9857,2.9857,0,0,0-3.1641,0,1.5639,1.5639,0,0,0-.56,1.29v.2934a1.565,1.565,0,0,0,.56,1.29A2.4541,2.4541,0,0,0,50.675,176.2759Zm0-4.76a2.1656,2.1656,0,0,0,1.4-.39,1.394,1.394,0,0,0,.4758-1.1436v-.209a1.3928,1.3928,0,0,0-.4758-1.143,2.7068,2.7068,0,0,0-2.8,0,1.3923,1.3923,0,0,0-.476,1.143v.209a1.3936,1.3936,0,0,0,.476,1.1436A2.1645,2.1645,0,0,0,50.675,171.5161Z" fill="#525252"/>
    <path d="M56.0649,169.92h1.12v1.1626h.0559a2.0315,2.0315,0,0,1,.8191-1.0049,2.46,2.46,0,0,1,1.2949-.3256,2.7446,2.7446,0,0,1,1.218.2661,2.6453,2.6453,0,0,1,.9309.7558,3.4773,3.4773,0,0,1,.5881,1.19,6.1609,6.1609,0,0,1,0,3.1362,3.4669,3.4669,0,0,1-.5881,1.19,2.6445,2.6445,0,0,1-.9309.7559,2.7459,2.7459,0,0,1-1.218.2661,2.1873,2.1873,0,0,1-2.114-1.3306h-.0559v3.9624h-1.12Zm2.9822,6.398a1.9273,1.9273,0,0,0,1.4978-.5977,2.2359,2.2359,0,0,0,.5462-1.5693v-1.2378a2.2357,2.2357,0,0,0-.5462-1.5689,1.9262,1.9262,0,0,0-1.4978-.5981,2.4376,2.4376,0,0,0-.7212.1055,2.018,2.018,0,0,0-.5949.2885,1.3878,1.3878,0,0,0-.399.4429,1.1141,1.1141,0,0,0-.1469.5562v2.7016a1.3027,1.3027,0,0,0,.1469.626,1.4044,1.4044,0,0,0,.399.4644,1.813,1.813,0,0,0,.5949.2885A2.6069,2.6069,0,0,0,59.0471,176.3179Z" fill="#525252"/>
    <path d="M63.1208,177.144l2.6741-3.64-2.562-3.584h1.3159l1.834,2.688h.042l1.9041-2.688H69.575l-2.5481,3.5,2.604,3.7241h-1.316l-1.8759-2.8281h-.042l-2.03,2.8281Z" fill="#525252"/>
  </g>
  <g>
    <path d="M120.2893,177.312a3.4591,3.4591,0,0,1-1.365-.2588,2.8593,2.8593,0,0,1-1.0361-.7422,3.25,3.25,0,0,1-.6509-1.1831,5.1262,5.1262,0,0,1-.2241-1.5678,6.3959,6.3959,0,0,1,.322-2.0508,7.7448,7.7448,0,0,1,.833-1.75,8.2583,8.2583,0,0,1,1.127-1.4,7.527,7.527,0,0,1,1.2041-.9868h1.5119q-.7844.5727-1.4,1.1172a8.4835,8.4835,0,0,0-1.0779,1.1381,6.85,6.85,0,0,0-.7839,1.27,7.4328,7.4328,0,0,0-.5181,1.5293l.07.0279a3.2035,3.2035,0,0,1,.9028-1.0015,2.4205,2.4205,0,0,1,1.449-.3994,3.126,3.126,0,0,1,1.1621.21,2.5448,2.5448,0,0,1,.91.6031,2.8341,2.8341,0,0,1,.5952.9541,3.443,3.443,0,0,1,.2168,1.249,3.6027,3.6027,0,0,1-.2309,1.312,2.9318,2.9318,0,0,1-.658,1.0244,2.9947,2.9947,0,0,1-1.0291.6665A3.5868,3.5868,0,0,1,120.2893,177.312Zm-.0142-1.0361a1.8636,1.8636,0,0,0,2.044-2.0576v-.1123a2.0485,2.0485,0,1,0-4.0879,0v.1123a1.8639,1.8639,0,0,0,2.0439,2.0576Z" fill="#525252"/>
    <path d="M129.7251,177.144v-1.9179h-4.718V174.19l4.0881-6.8178h1.75v6.874h1.4138v.98h-1.4138v1.9179Zm-3.6121-2.8979h3.6121v-5.9639h-.07Z" fill="#525252"/>
    <path d="M134.0649,169.92h1.12v1.1626h.0559a2.0315,2.0315,0,0,1,.8191-1.0049,2.46,2.46,0,0,1,1.2949-.3256,2.7446,2.7446,0,0,1,1.218.2661,2.6453,2.6453,0,0,1,.9309.7558,3.4773,3.4773,0,0,1,.5881,1.19,6.1609,6.1609,0,0,1,0,3.1362,3.4669,3.4669,0,0,1-.5881,1.19,2.6445,2.6445,0,0,1-.9309.7559,2.7459,2.7459,0,0,1-1.218.2661,2.1873,2.1873,0,0,1-2.114-1.3306h-.0559v3.9624h-1.12Zm2.9822,6.398a1.9273,1.9273,0,0,0,1.4978-.5977,2.2359,2.2359,0,0,0,.5462-1.5693v-1.2378a2.2357,2.2357,0,0,0-.5462-1.5689,1.9262,1.9262,0,0,0-1.4978-.5981,2.4376,2.4376,0,0,0-.7212.1055,2.018,2.018,0,0,0-.5949.2885,1.3878,1.3878,0,0,0-.399.4429,1.1141,1.1141,0,0,0-.1469.5562v2.7016a1.3027,1.3027,0,0,0,.1469.626,1.4044,1.4044,0,0,0,.399.4644,1.813,1.813,0,0,0,.5949.2885A2.6069,2.6069,0,0,0,137.0471,176.3179Z" fill="#525252"/>
    <path d="M141.1208,177.144l2.6741-3.64-2.562-3.584h1.3159l1.834,2.688h.042l1.9041-2.688h1.2461l-2.5481,3.5,2.604,3.7241h-1.316l-1.8759-2.8281h-.042l-2.03,2.8281Z" fill="#525252"/>
  </g>
  <g>
    <path d="M210.2751,177.312a4.5186,4.5186,0,0,1-1.47-.2168,3.0873,3.0873,0,0,1-1.0569-.5952,2.443,2.443,0,0,1-.6441-.896,2.8684,2.8684,0,0,1-.217-1.12,2.2526,2.2526,0,0,1,.5459-1.5957,2.9435,2.9435,0,0,1,1.428-.8262V171.95a2.5434,2.5434,0,0,1-1.2249-.8613,2.2923,2.2923,0,0,1-.455-1.4351,2.1879,2.1879,0,0,1,.812-1.7847,4.2478,4.2478,0,0,1,4.5639,0,2.1879,2.1879,0,0,1,.812,1.7847,2.2946,2.2946,0,0,1-.4548,1.4351,2.5449,2.5449,0,0,1-1.2251.8613v.1118a2.9435,2.9435,0,0,1,1.428.8262,2.2526,2.2526,0,0,1,.5459,1.5957,2.8719,2.8719,0,0,1-.2168,1.12,2.4522,2.4522,0,0,1-.6441.896,3.09,3.09,0,0,1-1.0571.5952A4.5188,4.5188,0,0,1,210.2751,177.312Zm0-1.0361a2.4546,2.4546,0,0,0,1.5821-.4531,1.5652,1.5652,0,0,0,.56-1.29v-.2934a1.564,1.564,0,0,0-.56-1.29,2.9857,2.9857,0,0,0-3.1641,0,1.5639,1.5639,0,0,0-.56,1.29v.2934a1.565,1.565,0,0,0,.56,1.29A2.4541,2.4541,0,0,0,210.2751,176.2759Zm0-4.76a2.1656,2.1656,0,0,0,1.4-.39,1.394,1.394,0,0,0,.4758-1.1436v-.209a1.3928,1.3928,0,0,0-.4758-1.143,2.7068,2.7068,0,0,0-2.8,0,1.3923,1.3923,0,0,0-.476,1.143v.209a1.3936,1.3936,0,0,0,.476,1.1436A2.1645,2.1645,0,0,0,210.2751,171.5161Z" fill="#525252"/>
    <path d="M218.675,177.312a2.7652,2.7652,0,0,1-2.5549-1.33,9.0166,9.0166,0,0,1,0-7.4477,3.1189,3.1189,0,0,1,5.11,0,9.0135,9.0135,0,0,1,0,7.4477A2.7653,2.7653,0,0,1,218.675,177.312Zm0-1.0361a1.91,1.91,0,0,0,.98-.2368,1.815,1.815,0,0,0,.658-.67,3.3143,3.3143,0,0,0,.3711-1.0185,6.5494,6.5494,0,0,0,.1189-1.2974v-1.59a6.5538,6.5538,0,0,0-.1189-1.2974,3.32,3.32,0,0,0-.3711-1.0185,1.8185,1.8185,0,0,0-.658-.67,2.1453,2.1453,0,0,0-1.96,0,1.8185,1.8185,0,0,0-.658.67,3.3253,3.3253,0,0,0-.3711,1.0185,6.5388,6.5388,0,0,0-.1189,1.2974v1.59a6.5344,6.5344,0,0,0,.1189,1.2974,3.32,3.32,0,0,0,.3711,1.0185,1.815,1.815,0,0,0,.658.67A1.909,1.909,0,0,0,218.675,176.2759Z" fill="#525252"/>
    <path d="M224.0649,169.92h1.12v1.1626h.0559a2.0315,2.0315,0,0,1,.8191-1.0049,2.46,2.46,0,0,1,1.2949-.3256,2.7446,2.7446,0,0,1,1.218.2661,2.6453,2.6453,0,0,1,.9309.7558,3.4773,3.4773,0,0,1,.5881,1.19,6.1609,6.1609,0,0,1,0,3.1362,3.4669,3.4669,0,0,1-.5881,1.19,2.6445,2.6445,0,0,1-.9309.7559,2.7459,2.7459,0,0,1-1.218.2661,2.1873,2.1873,0,0,1-2.114-1.3306h-.0559v3.9624h-1.12Zm2.9822,6.398a1.9273,1.9273,0,0,0,1.4978-.5977,2.2359,2.2359,0,0,0,.5462-1.5693v-1.2378a2.2357,2.2357,0,0,0-.5462-1.5689,1.9262,1.9262,0,0,0-1.4978-.5981,2.4376,2.4376,0,0,0-.7212.1055,2.018,2.018,0,0,0-.5949.2885,1.3878,1.3878,0,0,0-.399.4429,1.1141,1.1141,0,0,0-.1469.5562v2.7016a1.3027,1.3027,0,0,0,.1469.626,1.4044,1.4044,0,0,0,.399.4644,1.813,1.813,0,0,0,.5949.2885A2.6069,2.6069,0,0,0,227.0471,176.3179Z" fill="#525252"/>
    <path d="M231.1208,177.144l2.6741-3.64-2.562-3.584h1.3159l1.834,2.688h.042l1.9041-2.688h1.2461l-2.5481,3.5,2.604,3.7241h-1.316l-1.8759-2.8281h-.042l-2.03,2.8281Z" fill="#525252"/>
  </g>
  <g>
    <path d="M69.5371,370.812a6.4023,6.4023,0,0,1-.322,2.0508,7.7386,7.7386,0,0,1-.833,1.75,8.2563,8.2563,0,0,1-1.127,1.4A7.55,7.55,0,0,1,66.0513,377h-1.512q.7838-.572,1.4-1.1172a8.4476,8.4476,0,0,0,1.0779-1.1382,6.8646,6.8646,0,0,0,.7842-1.27,7.4467,7.4467,0,0,0,.5178-1.5293l-.07-.0278a3.2162,3.2162,0,0,1-.9031,1.0019,2.42,2.42,0,0,1-1.449.399,3.1264,3.1264,0,0,1-1.1621-.2105,2.5406,2.5406,0,0,1-.91-.603,2.8424,2.8424,0,0,1-.595-.9473,3.42,3.42,0,0,1-.217-1.2558,3.6047,3.6047,0,0,1,.2309-1.312,2.9265,2.9265,0,0,1,.658-1.024,2.9991,2.9991,0,0,1,1.0222-.6665,3.5607,3.5607,0,0,1,1.3369-.2387,3.4622,3.4622,0,0,1,1.365.2587,2.8551,2.8551,0,0,1,1.0359.7422,3.2574,3.2574,0,0,1,.6511,1.1831A5.1354,5.1354,0,0,1,69.5371,370.812Zm-3.262,1.5122a1.8641,1.8641,0,0,0,2.044-2.0581v-.1123a2.0485,2.0485,0,1,0-4.0879,0v.1123a1.8645,1.8645,0,0,0,2.0439,2.0581Z" fill="#525252"/>
    <path d="M74.6892,377.168a3.4608,3.4608,0,0,1-1.365-.2588,2.8605,2.8605,0,0,1-1.0361-.7422,3.2512,3.2512,0,0,1-.6509-1.1831,5.1268,5.1268,0,0,1-.2241-1.5679,6.3968,6.3968,0,0,1,.322-2.0508,7.7489,7.7489,0,0,1,.833-1.75,8.2662,8.2662,0,0,1,1.127-1.4,7.5379,7.5379,0,0,1,1.2041-.9868h1.5119q-.7844.5728-1.4,1.1172a8.49,8.49,0,0,0-1.0779,1.1382,6.8472,6.8472,0,0,0-.7839,1.27,7.4308,7.4308,0,0,0-.5181,1.5293l.07.0278a3.2055,3.2055,0,0,1,.9028-1.0014,2.4205,2.4205,0,0,1,1.449-.3994,3.1256,3.1256,0,0,1,1.1621.21,2.5433,2.5433,0,0,1,.91.603,2.8341,2.8341,0,0,1,.5952.9541,3.4436,3.4436,0,0,1,.2168,1.2491,3.6035,3.6035,0,0,1-.2309,1.312,2.9336,2.9336,0,0,1-.658,1.0244,2.9976,2.9976,0,0,1-1.0291.6665A3.5868,3.5868,0,0,1,74.6892,377.168Zm-.0142-1.0362a1.8634,1.8634,0,0,0,2.044-2.0576v-.1123a2.0485,2.0485,0,1,0-4.0879,0v.1123a1.8638,1.8638,0,0,0,2.0439,2.0576Z" fill="#525252"/>
    <path d="M80.0649,369.7759h1.12v1.1626h.0559a2.0311,2.0311,0,0,1,.8191-1.0049,2.46,2.46,0,0,1,1.2949-.3257,2.7459,2.7459,0,0,1,1.218.2661,2.6456,2.6456,0,0,1,.9309.7559,3.4759,3.4759,0,0,1,.5881,1.19,6.1613,6.1613,0,0,1,0,3.1363,3.4678,3.4678,0,0,1-.5881,1.19,2.6456,2.6456,0,0,1-.9309.7559,2.7459,2.7459,0,0,1-1.218.2661,2.1875,2.1875,0,0,1-2.114-1.3306h-.0559V379.8h-1.12Zm2.9822,6.3979a1.9276,1.9276,0,0,0,1.4978-.5976,2.2361,2.2361,0,0,0,.5462-1.5694V372.769a2.2354,2.2354,0,0,0-.5462-1.5688,1.9262,1.9262,0,0,0-1.4978-.5981,2.4408,2.4408,0,0,0-.7212.1054,2.0157,2.0157,0,0,0-.5949.2886,1.3867,1.3867,0,0,0-.399.4429,1.1137,1.1137,0,0,0-.1469.5561v2.7017a1.303,1.303,0,0,0,.1469.626,1.4041,1.4041,0,0,0,.399.4643,1.8112,1.8112,0,0,0,.5949.2886A2.6106,2.6106,0,0,0,83.0471,376.1738Z" fill="#525252"/>
    <path d="M87.1208,377l2.6741-3.64-2.562-3.584h1.3159l1.834,2.688h.042l1.9041-2.688H93.575l-2.5481,3.5L93.6309,377h-1.316l-1.8759-2.8281h-.042L88.3669,377Z" fill="#525252"/>
  </g>
  <g>
    <path d="M179.1072,377v-1.0361h2.73v-7.8677h-.0979l-2.4642,2.2959-.6857-.7422,2.59-2.4219h1.834v8.7359h2.52V377Z" fill="#525252"/>
    <path d="M193.7371,377h-6.4119v-1.2041l3.1919-2.94a7.0762,7.0762,0,0,0,1.1479-1.3409,2.59,2.59,0,0,0,.4622-1.4253v-.1684a1.9159,1.9159,0,0,0-.448-1.32,1.7217,1.7217,0,0,0-1.3582-.5054,2.2274,2.2274,0,0,0-.7839.126,1.78,1.78,0,0,0-.581.35,1.9523,1.9523,0,0,0-.4061.5254,3.19,3.19,0,0,0-.2587.6508l-1.05-.4062a4.1356,4.1356,0,0,1,.385-.8467,2.8393,2.8393,0,0,1,1.512-1.2417,4.0177,4.0177,0,0,1,2.5129.0166,2.515,2.515,0,0,1,1.5191,1.4829,3.1192,3.1192,0,0,1,.2028,1.147,3.39,3.39,0,0,1-.1608,1.063,4.1381,4.1381,0,0,1-.441.93,5.658,5.658,0,0,1-.6792.86q-.3987.42-.8608.8394l-2.6321,2.3711h5.138Z" fill="#525252"/>
    <path d="M198.875,377.168a4.5192,4.5192,0,0,1-1.47-.2168,3.0916,3.0916,0,0,1-1.0569-.5952,2.4415,2.4415,0,0,1-.644-.896,2.8674,2.8674,0,0,1-.217-1.12,2.2523,2.2523,0,0,1,.5459-1.5957,2.9438,2.9438,0,0,1,1.4279-.8261v-.1118a2.5426,2.5426,0,0,1-1.2248-.8614,2.2916,2.2916,0,0,1-.4551-1.435,2.1882,2.1882,0,0,1,.812-1.7847,4.2479,4.2479,0,0,1,4.564,0,2.1882,2.1882,0,0,1,.812,1.7847,2.2951,2.2951,0,0,1-.4548,1.435,2.5449,2.5449,0,0,1-1.2251.8614v.1118a2.9438,2.9438,0,0,1,1.4279.8261,2.2523,2.2523,0,0,1,.5459,1.5957,2.8709,2.8709,0,0,1-.2168,1.12,2.4531,2.4531,0,0,1-.644.896,3.0944,3.0944,0,0,1-1.0571.5952A4.5192,4.5192,0,0,1,198.875,377.168Zm0-1.0362a2.4537,2.4537,0,0,0,1.582-.4531,1.5649,1.5649,0,0,0,.56-1.29v-.2935a1.5639,1.5639,0,0,0-.56-1.2895,2.9855,2.9855,0,0,0-3.164,0,1.5637,1.5637,0,0,0-.56,1.2895v.2935a1.5647,1.5647,0,0,0,.56,1.29A2.4533,2.4533,0,0,0,198.875,376.1318Zm0-4.76a2.1646,2.1646,0,0,0,1.4-.39,1.3936,1.3936,0,0,0,.4759-1.1435v-.209a1.3928,1.3928,0,0,0-.4759-1.1431,2.7072,2.7072,0,0,0-2.8,0,1.3923,1.3923,0,0,0-.4761,1.1431v.209a1.3931,1.3931,0,0,0,.4761,1.1435A2.1636,2.1636,0,0,0,198.875,371.3721Z" fill="#525252"/>
    <path d="M204.2649,369.7759h1.12v1.1626h.0559a2.0311,2.0311,0,0,1,.8191-1.0049,2.46,2.46,0,0,1,1.2949-.3257,2.7459,2.7459,0,0,1,1.218.2661,2.646,2.646,0,0,1,.931.7559,3.4777,3.4777,0,0,1,.5881,1.19,6.1613,6.1613,0,0,1,0,3.1363,3.47,3.47,0,0,1-.5881,1.19,2.646,2.646,0,0,1-.931.7559,2.7459,2.7459,0,0,1-1.218.2661,2.1876,2.1876,0,0,1-2.114-1.3306h-.0559V379.8h-1.12Zm2.9822,6.3979a1.9276,1.9276,0,0,0,1.4978-.5976,2.2361,2.2361,0,0,0,.5461-1.5694V372.769a2.2354,2.2354,0,0,0-.5461-1.5688,1.9262,1.9262,0,0,0-1.4978-.5981,2.44,2.44,0,0,0-.7212.1054,2.0163,2.0163,0,0,0-.595.2886,1.3864,1.3864,0,0,0-.3989.4429,1.1128,1.1128,0,0,0-.147.5561v2.7017a1.3019,1.3019,0,0,0,.147.626,1.4038,1.4038,0,0,0,.3989.4643,1.8117,1.8117,0,0,0,.595.2886A2.61,2.61,0,0,0,207.2471,376.1738Z" fill="#525252"/>
    <path d="M211.3208,377l2.6741-3.64-2.562-3.584h1.3159l1.834,2.688h.042l1.904-2.688h1.2461l-2.5481,3.5L217.8308,377h-1.3159l-1.876-2.8281h-.042L212.5669,377Z" fill="#525252"/>
  </g>
  <path id="a4717dc1-4b42-46a0-80c6-1e9f16bed347" data-name="Watson IoT 02" d="M36,80H25.5V69.5H36Zm34.5,6.75H60v10.5H70.5ZM53.25,104H42.75v10.5h10.5ZM45,69.5V80l9-5.3038Zm3,17.25A5.25,5.25,0,1,0,53.25,92,5.25,5.25,0,0,0,48,86.75ZM65.25,69.5a5.25,5.25,0,1,0,5.25,5.25A5.25,5.25,0,0,0,65.25,69.5ZM30.75,104A5.25,5.25,0,1,0,36,109.25,5.25,5.25,0,0,0,30.75,104Zm34.5-24v6.7388M53.25,92H60M48,97.25V104M36,74.75h9M34.4623,105.5377l9.8259-9.8259M53.2388,110.75H59.25a6,6,0,0,0,6-6V97.2388M30.75,80v6a6,6,0,0,0,6,6h6" fill="none" stroke="#000" stroke-linejoin="round" stroke-width="1.08"/>
  <path id="e267102b-12ef-4227-902f-6281d0191179" data-name="Watson IoT 02" d="M112,76H98V62h14Zm46,9H144V99h14Zm-23,23H121v14h14ZM124,62V76l12-7.0718Zm4,23a7,7,0,1,0,7,7A7,7,0,0,0,128,85Zm23-23a7,7,0,1,0,7,7A7,7,0,0,0,151,62Zm-46,46a7,7,0,1,0,7,7A7,7,0,0,0,105,108Zm46-32v8.9851M135,92h9m-16,7v9M112,69h12m-14.05,41.05L123.051,96.949M134.9851,117H143a8,8,0,0,0,8-8V98.9851M105,76v8a8,8,0,0,0,8,8h8" fill="none" stroke="#000" stroke-linejoin="round" stroke-width="1.44"/>
  <path id="fae9d987-fa8a-479a-894f-9297f93051b3" data-name="Watson IoT 02" d="M204,72H186.5V54.5H204Zm57.5,11.25H244v17.5h17.5ZM232.75,112h-17.5v17.5h17.5ZM219,54.5V72l15-8.84Zm5,28.75A8.75,8.75,0,1,0,232.75,92,8.75,8.75,0,0,0,224,83.25ZM252.75,54.5a8.75,8.75,0,1,0,8.75,8.75A8.75,8.75,0,0,0,252.75,54.5ZM195.25,112a8.75,8.75,0,1,0,8.75,8.75A8.75,8.75,0,0,0,195.25,112Zm57.5-40V83.2314M232.75,92H244m-20,8.75V112M204,63.25h15m-17.5628,51.3128,16.3765-16.3765M232.7314,123.25H242.75a10,10,0,0,0,10-10V100.7314M195.25,72V82a10,10,0,0,0,10,10h10" fill="none" stroke="#000" stroke-linejoin="round" stroke-width="1.8"/>
  <path id="f53d2df0-4a68-4749-933c-32327d874db4" data-name="Watson IoT 02" d="M168,252H140V224h28Zm92,18H232v28h28Zm-46,46H186v28h28Zm-22-92v28l24-14.1436Zm8,46a14,14,0,1,0,14,14A14,14,0,0,0,200,270Zm46-46a14,14,0,1,0,14,14A14,14,0,0,0,246,224Zm-92,92a14,14,0,1,0,14,14A14,14,0,0,0,154,316Zm92-64v17.97M214,284h18m-32,14v18m-32-78h24M163.9,320.1005l26.2024-26.2024M213.97,334H230a16,16,0,0,0,16-16V297.97M154,252v16a16,16,0,0,0,16,16h16" fill="none" stroke="#000" stroke-linejoin="round" stroke-width="2.88"/>
  <path id="f49ef443-0d44-48ba-813a-c02c478a5375" data-name="Watson IoT 02" d="M48,260H27V239H48Zm69,13.5H96v21h21ZM82.5,308h-21v21h21ZM66,239v21l18-10.6077Zm6,34.5A10.5,10.5,0,1,0,82.5,284,10.5,10.5,0,0,0,72,273.5ZM106.5,239A10.5,10.5,0,1,0,117,249.5,10.5,10.5,0,0,0,106.5,239Zm-69,69A10.5,10.5,0,1,0,48,318.5,10.5,10.5,0,0,0,37.5,308Zm69-48v13.4777M82.5,284H96M72,294.5V308M48,249.5H66M44.9246,311.0754l19.6518-19.6518M82.4777,321.5H94.5a12,12,0,0,0,12-12V294.4777M37.5,260v12a12,12,0,0,0,12,12h12" fill="none" stroke="#000" stroke-linejoin="round" stroke-width="2.16"/>
</svg>
