<?xml version="1.0" encoding="UTF-8"?>
<svg width="928px" height="522px" viewBox="0 0 928 522" version="1.1" xmlns="http://www.w3.org/2000/svg" xmlns:xlink="http://www.w3.org/1999/xlink">
    <!-- Generator: Sketch 58 (84663) - https://sketch.com -->
    <title>Artboard Copy 20</title>
    <desc>Created with Sketch.</desc>
    <g id="Artboard-Copy-20" stroke="none" stroke-width="1" fill="none" fill-rule="evenodd">
        <rect id="Rectangle-3-Copy-50" fill="#FFFFFF" x="0" y="0" width="928" height="522"></rect>
        <g id="Group-4-Copy-27" transform="translate(104.000000, 216.000000)">
            <polygon id="Fill-1" fill="#FFFFFF" points="0 48 48 48 48 0 0 0"></polygon>
            <path d="M36.54,28.698 L45.96,28.698 L45.96,19.2795 L36.54,19.2795 L36.54,28.698 Z M40.71,36.75 C40.71,39.7605 38.2605,42.21 35.25,42.21 L29.79,42.21 L29.79,36 C29.79,35.7015 29.5485,35.46 29.25,35.46 L24.5535,35.46 L24.5535,29.721 C27.297,29.451 29.4645,27.276 29.724,24.5295 L35.46,24.5295 L35.46,29.238 C35.46,29.5365 35.7015,29.7795 36,29.7795 L40.71,29.7795 L40.71,36.75 Z M19.29,45.96 L28.71,45.96 L28.71,36.5415 L19.29,36.5415 L19.29,45.96 Z M6.75,45.96 C4.1535,45.96 2.04,43.8465 2.04,41.25 C2.04,38.6535 4.1535,36.54 6.75,36.54 C9.3465,36.54 11.46,38.6535 11.46,41.25 C11.46,43.8465 9.3465,45.96 6.75,45.96 L6.75,45.96 Z M23.9895,19.2795 C26.586,19.2795 28.6995,21.3915 28.6995,23.988 C28.6995,26.586 26.586,28.698 23.9895,28.698 C21.3915,28.698 19.2795,26.586 19.2795,23.988 C19.2795,21.3915 21.3915,19.2795 23.9895,19.2795 L23.9895,19.2795 Z M2.0535,11.472 L11.4735,11.472 L11.4735,2.0535 L2.0535,2.0535 L2.0535,11.472 Z M21.54,2.4345 L28.92,6.696 L21.54,10.9575 L21.54,2.4345 Z M36.54,6.75 C36.54,4.1535 38.6535,2.04 41.25,2.04 C43.8465,2.04 45.96,4.1535 45.96,6.75 C45.96,9.3465 43.8465,11.46 41.25,11.46 C38.6535,11.46 36.54,9.3465 36.54,6.75 L36.54,6.75 Z M46.5,18.198 L41.79,18.198 L41.79,12.486 C44.7255,12.2085 47.04,9.7575 47.04,6.75 C47.04,3.558 44.442,0.96 41.25,0.96 C38.058,0.96 35.46,3.558 35.46,6.75 C35.46,9.7575 37.7745,12.2085 40.71,12.486 L40.71,18.198 L36,18.198 C35.7015,18.198 35.46,18.4395 35.46,18.738 L35.46,23.448 L29.724,23.448 C29.4465,20.5125 26.997,18.198 23.9895,18.198 C20.9775,18.198 18.525,20.5185 18.252,23.46 L12.75,23.46 C9.7395,23.46 7.29,21.0105 7.29,18 L7.29,12.5535 L12.0135,12.5535 C12.312,12.5535 12.5535,12.312 12.5535,12.0135 L12.5535,7.3035 L20.46,7.3035 L20.46,11.892 C20.46,12.0855 20.562,12.2625 20.73,12.3585 C20.8125,12.4065 20.907,12.432 21,12.432 C21.093,12.432 21.1875,12.4065 21.27,12.3585 L30.27,7.1625 C30.438,7.0665 30.54,6.8895 30.54,6.696 C30.54,6.5025 30.438,6.3255 30.27,6.228 L21.27,1.032 C21.1035,0.936 20.8965,0.936 20.73,1.032 C20.562,1.1295 20.46,1.3065 20.46,1.5 L20.46,6.222 L12.5535,6.222 L12.5535,1.5135 C12.5535,1.215 12.312,0.972 12.0135,0.972 L1.5135,0.972 C1.215,0.972 0.9735,1.215 0.9735,1.5135 L0.9735,12.0135 C0.9735,12.312 1.215,12.5535 1.5135,12.5535 L6.21,12.5535 L6.21,18 C6.21,21.606 9.144,24.54 12.75,24.54 L18.255,24.54 C18.3705,25.728 18.837,26.805 19.5615,27.6735 L10.4235,36.813 C9.4215,35.9805 8.1525,35.46 6.75,35.46 C3.558,35.46 0.96,38.058 0.96,41.25 C0.96,44.442 3.558,47.04 6.75,47.04 C9.942,47.04 12.54,44.442 12.54,41.25 C12.54,39.849 12.0195,38.58 11.187,37.5765 L20.328,28.4355 C21.2025,29.157 22.281,29.619 23.4735,29.7255 L23.4735,35.46 L18.75,35.46 C18.4515,35.46 18.21,35.7015 18.21,36 L18.21,46.5 C18.21,46.7985 18.4515,47.04 18.75,47.04 L29.25,47.04 C29.5485,47.04 29.79,46.7985 29.79,46.5 L29.79,43.29 L35.25,43.29 C38.856,43.29 41.79,40.356 41.79,36.75 L41.79,29.7795 L46.5,29.7795 C46.7985,29.7795 47.04,29.5365 47.04,29.238 L47.04,18.738 C47.04,18.4395 46.7985,18.198 46.5,18.198 L46.5,18.198 Z" id="Fill-2" fill="#000000"></path>
        </g>
        <g id="Group-4-Copy-28" transform="translate(232.000000, 208.000000)">
            <polygon id="Fill-1" fill="#FFFFFF" points="0 64 64 64 64 0 0 0"></polygon>
            <path d="M48.72,38.264 L61.28,38.264 L61.28,25.706 L48.72,25.706 L48.72,38.264 Z M54.28,49 C54.28,53.014 51.014,56.28 47,56.28 L39.72,56.28 L39.72,48 C39.72,47.602 39.398,47.28 39,47.28 L32.738,47.28 L32.738,39.628 C36.396,39.268 39.286,36.368 39.632,32.706 L47.28,32.706 L47.28,38.984 C47.28,39.382 47.602,39.706 48,39.706 L54.28,39.706 L54.28,49 Z M25.72,61.28 L38.28,61.28 L38.28,48.722 L25.72,48.722 L25.72,61.28 Z M9,61.28 C5.538,61.28 2.72,58.462 2.72,55 C2.72,51.538 5.538,48.72 9,48.72 C12.462,48.72 15.28,51.538 15.28,55 C15.28,58.462 12.462,61.28 9,61.28 L9,61.28 Z M31.986,25.706 C35.448,25.706 38.266,28.522 38.266,31.984 C38.266,35.448 35.448,38.264 31.986,38.264 C28.522,38.264 25.706,35.448 25.706,31.984 C25.706,28.522 28.522,25.706 31.986,25.706 L31.986,25.706 Z M2.738,15.296 L15.298,15.296 L15.298,2.738 L2.738,2.738 L2.738,15.296 Z M28.72,3.246 L38.56,8.928 L28.72,14.61 L28.72,3.246 Z M48.72,9 C48.72,5.538 51.538,2.72 55,2.72 C58.462,2.72 61.28,5.538 61.28,9 C61.28,12.462 58.462,15.28 55,15.28 C51.538,15.28 48.72,12.462 48.72,9 L48.72,9 Z M62,24.264 L55.72,24.264 L55.72,16.648 C59.634,16.278 62.72,13.01 62.72,9 C62.72,4.744 59.256,1.28 55,1.28 C50.744,1.28 47.28,4.744 47.28,9 C47.28,13.01 50.366,16.278 54.28,16.648 L54.28,24.264 L48,24.264 C47.602,24.264 47.28,24.586 47.28,24.984 L47.28,31.264 L39.632,31.264 C39.262,27.35 35.996,24.264 31.986,24.264 C27.97,24.264 24.7,27.358 24.336,31.28 L17,31.28 C12.986,31.28 9.72,28.014 9.72,24 L9.72,16.738 L16.018,16.738 C16.416,16.738 16.738,16.416 16.738,16.018 L16.738,9.738 L27.28,9.738 L27.28,15.856 C27.28,16.114 27.416,16.35 27.64,16.478 C27.75,16.542 27.876,16.576 28,16.576 C28.124,16.576 28.25,16.542 28.36,16.478 L40.36,9.55 C40.584,9.422 40.72,9.186 40.72,8.928 C40.72,8.67 40.584,8.434 40.36,8.304 L28.36,1.376 C28.138,1.248 27.862,1.248 27.64,1.376 C27.416,1.506 27.28,1.742 27.28,2 L27.28,8.296 L16.738,8.296 L16.738,2.018 C16.738,1.62 16.416,1.296 16.018,1.296 L2.018,1.296 C1.62,1.296 1.298,1.62 1.298,2.018 L1.298,16.018 C1.298,16.416 1.62,16.738 2.018,16.738 L8.28,16.738 L8.28,24 C8.28,28.808 12.192,32.72 17,32.72 L24.34,32.72 C24.494,34.304 25.116,35.74 26.082,36.898 L13.898,49.084 C12.562,47.974 10.87,47.28 9,47.28 C4.744,47.28 1.28,50.744 1.28,55 C1.28,59.256 4.744,62.72 9,62.72 C13.256,62.72 16.72,59.256 16.72,55 C16.72,53.132 16.026,51.44 14.916,50.102 L27.104,37.914 C28.27,38.876 29.708,39.492 31.298,39.634 L31.298,47.28 L25,47.28 C24.602,47.28 24.28,47.602 24.28,48 L24.28,62 C24.28,62.398 24.602,62.72 25,62.72 L39,62.72 C39.398,62.72 39.72,62.398 39.72,62 L39.72,57.72 L47,57.72 C51.808,57.72 55.72,53.808 55.72,49 L55.72,39.706 L62,39.706 C62.398,39.706 62.72,39.382 62.72,38.984 L62.72,24.984 C62.72,24.586 62.398,24.264 62,24.264 L62,24.264 Z" id="Fill-2" fill="#000000"></path>
        </g>
        <g id="Group-4-Copy-30" transform="translate(376.000000, 200.000000)">
            <polygon id="Fill-1" fill="#FFFFFF" points="0 80 80 80 80 0 0 0"></polygon>
            <path d="M60.9,47.83 L76.6,47.83 L76.6,32.1325 L60.9,32.1325 L60.9,47.83 Z M67.85,61.25 C67.85,66.2675 63.7675,70.35 58.75,70.35 L49.65,70.35 L49.65,60 C49.65,59.5025 49.2475,59.1 48.75,59.1 L40.9225,59.1 L40.9225,49.535 C45.495,49.085 49.1075,45.46 49.54,40.8825 L59.1,40.8825 L59.1,48.73 C59.1,49.2275 59.5025,49.6325 60,49.6325 L67.85,49.6325 L67.85,61.25 Z M32.15,76.6 L47.85,76.6 L47.85,60.9025 L32.15,60.9025 L32.15,76.6 Z M11.25,76.6 C6.9225,76.6 3.4,73.0775 3.4,68.75 C3.4,64.4225 6.9225,60.9 11.25,60.9 C15.5775,60.9 19.1,64.4225 19.1,68.75 C19.1,73.0775 15.5775,76.6 11.25,76.6 L11.25,76.6 Z M39.9825,32.1325 C44.31,32.1325 47.8325,35.6525 47.8325,39.98 C47.8325,44.31 44.31,47.83 39.9825,47.83 C35.6525,47.83 32.1325,44.31 32.1325,39.98 C32.1325,35.6525 35.6525,32.1325 39.9825,32.1325 L39.9825,32.1325 Z M3.4225,19.12 L19.1225,19.12 L19.1225,3.4225 L3.4225,3.4225 L3.4225,19.12 Z M35.9,4.0575 L48.2,11.16 L35.9,18.2625 L35.9,4.0575 Z M60.9,11.25 C60.9,6.9225 64.4225,3.4 68.75,3.4 C73.0775,3.4 76.6,6.9225 76.6,11.25 C76.6,15.5775 73.0775,19.1 68.75,19.1 C64.4225,19.1 60.9,15.5775 60.9,11.25 L60.9,11.25 Z M77.5,30.33 L69.65,30.33 L69.65,20.81 C74.5425,20.3475 78.4,16.2625 78.4,11.25 C78.4,5.93 74.07,1.6 68.75,1.6 C63.43,1.6 59.1,5.93 59.1,11.25 C59.1,16.2625 62.9575,20.3475 67.85,20.81 L67.85,30.33 L60,30.33 C59.5025,30.33 59.1,30.7325 59.1,31.23 L59.1,39.08 L49.54,39.08 C49.0775,34.1875 44.995,30.33 39.9825,30.33 C34.9625,30.33 30.875,34.1975 30.42,39.1 L21.25,39.1 C16.2325,39.1 12.15,35.0175 12.15,30 L12.15,20.9225 L20.0225,20.9225 C20.52,20.9225 20.9225,20.52 20.9225,20.0225 L20.9225,12.1725 L34.1,12.1725 L34.1,19.82 C34.1,20.1425 34.27,20.4375 34.55,20.5975 C34.6875,20.6775 34.845,20.72 35,20.72 C35.155,20.72 35.3125,20.6775 35.45,20.5975 L50.45,11.9375 C50.73,11.7775 50.9,11.4825 50.9,11.16 C50.9,10.8375 50.73,10.5425 50.45,10.38 L35.45,1.72 C35.1725,1.56 34.8275,1.56 34.55,1.72 C34.27,1.8825 34.1,2.1775 34.1,2.5 L34.1,10.37 L20.9225,10.37 L20.9225,2.5225 C20.9225,2.025 20.52,1.62 20.0225,1.62 L2.5225,1.62 C2.025,1.62 1.6225,2.025 1.6225,2.5225 L1.6225,20.0225 C1.6225,20.52 2.025,20.9225 2.5225,20.9225 L10.35,20.9225 L10.35,30 C10.35,36.01 15.24,40.9 21.25,40.9 L30.425,40.9 C30.6175,42.88 31.395,44.675 32.6025,46.1225 L17.3725,61.355 C15.7025,59.9675 13.5875,59.1 11.25,59.1 C5.93,59.1 1.6,63.43 1.6,68.75 C1.6,74.07 5.93,78.4 11.25,78.4 C16.57,78.4 20.9,74.07 20.9,68.75 C20.9,66.415 20.0325,64.3 18.645,62.6275 L33.88,47.3925 C35.3375,48.595 37.135,49.365 39.1225,49.5425 L39.1225,59.1 L31.25,59.1 C30.7525,59.1 30.35,59.5025 30.35,60 L30.35,77.5 C30.35,77.9975 30.7525,78.4 31.25,78.4 L48.75,78.4 C49.2475,78.4 49.65,77.9975 49.65,77.5 L49.65,72.15 L58.75,72.15 C64.76,72.15 69.65,67.26 69.65,61.25 L69.65,49.6325 L77.5,49.6325 C77.9975,49.6325 78.4,49.2275 78.4,48.73 L78.4,31.23 C78.4,30.7325 77.9975,30.33 77.5,30.33 L77.5,30.33 Z" id="Fill-2" fill="#000000"></path>
        </g>
        <g id="Group-4-Copy-31" transform="translate(536.000000, 192.000000)">
            <polygon id="Fill-1" fill="#FFFFFF" points="0 96 96 96 96 0 0 0"></polygon>
            <path d="M73.08,57.396 L91.92,57.396 L91.92,38.559 L73.08,38.559 L73.08,57.396 Z M81.42,73.5 C81.42,79.521 76.521,84.42 70.5,84.42 L59.58,84.42 L59.58,72 C59.58,71.403 59.097,70.92 58.5,70.92 L49.107,70.92 L49.107,59.442 C54.594,58.902 58.929,54.552 59.448,49.059 L70.92,49.059 L70.92,58.476 C70.92,59.073 71.403,59.559 72,59.559 L81.42,59.559 L81.42,73.5 Z M38.58,91.92 L57.42,91.92 L57.42,73.083 L38.58,73.083 L38.58,91.92 Z M13.5,91.92 C8.307,91.92 4.08,87.693 4.08,82.5 C4.08,77.307 8.307,73.08 13.5,73.08 C18.693,73.08 22.92,77.307 22.92,82.5 C22.92,87.693 18.693,91.92 13.5,91.92 L13.5,91.92 Z M47.979,38.559 C53.172,38.559 57.399,42.783 57.399,47.976 C57.399,53.172 53.172,57.396 47.979,57.396 C42.783,57.396 38.559,53.172 38.559,47.976 C38.559,42.783 42.783,38.559 47.979,38.559 L47.979,38.559 Z M4.107,22.944 L22.947,22.944 L22.947,4.107 L4.107,4.107 L4.107,22.944 Z M43.08,4.869 L57.84,13.392 L43.08,21.915 L43.08,4.869 Z M73.08,13.5 C73.08,8.307 77.307,4.08 82.5,4.08 C87.693,4.08 91.92,8.307 91.92,13.5 C91.92,18.693 87.693,22.92 82.5,22.92 C77.307,22.92 73.08,18.693 73.08,13.5 L73.08,13.5 Z M93,36.396 L83.58,36.396 L83.58,24.972 C89.451,24.417 94.08,19.515 94.08,13.5 C94.08,7.116 88.884,1.92 82.5,1.92 C76.116,1.92 70.92,7.116 70.92,13.5 C70.92,19.515 75.549,24.417 81.42,24.972 L81.42,36.396 L72,36.396 C71.403,36.396 70.92,36.879 70.92,37.476 L70.92,46.896 L59.448,46.896 C58.893,41.025 53.994,36.396 47.979,36.396 C41.955,36.396 37.05,41.037 36.504,46.92 L25.5,46.92 C19.479,46.92 14.58,42.021 14.58,36 L14.58,25.107 L24.027,25.107 C24.624,25.107 25.107,24.624 25.107,24.027 L25.107,14.607 L40.92,14.607 L40.92,23.784 C40.92,24.171 41.124,24.525 41.46,24.717 C41.625,24.813 41.814,24.864 42,24.864 C42.186,24.864 42.375,24.813 42.54,24.717 L60.54,14.325 C60.876,14.133 61.08,13.779 61.08,13.392 C61.08,13.005 60.876,12.651 60.54,12.456 L42.54,2.064 C42.207,1.872 41.793,1.872 41.46,2.064 C41.124,2.259 40.92,2.613 40.92,3 L40.92,12.444 L25.107,12.444 L25.107,3.027 C25.107,2.43 24.624,1.944 24.027,1.944 L3.027,1.944 C2.43,1.944 1.947,2.43 1.947,3.027 L1.947,24.027 C1.947,24.624 2.43,25.107 3.027,25.107 L12.42,25.107 L12.42,36 C12.42,43.212 18.288,49.08 25.5,49.08 L36.51,49.08 C36.741,51.456 37.674,53.61 39.123,55.347 L20.847,73.626 C18.843,71.961 16.305,70.92 13.5,70.92 C7.116,70.92 1.92,76.116 1.92,82.5 C1.92,88.884 7.116,94.08 13.5,94.08 C19.884,94.08 25.08,88.884 25.08,82.5 C25.08,79.698 24.039,77.16 22.374,75.153 L40.656,56.871 C42.405,58.314 44.562,59.238 46.947,59.451 L46.947,70.92 L37.5,70.92 C36.903,70.92 36.42,71.403 36.42,72 L36.42,93 C36.42,93.597 36.903,94.08 37.5,94.08 L58.5,94.08 C59.097,94.08 59.58,93.597 59.58,93 L59.58,86.58 L70.5,86.58 C77.712,86.58 83.58,80.712 83.58,73.5 L83.58,59.559 L93,59.559 C93.597,59.559 94.08,59.073 94.08,58.476 L94.08,37.476 C94.08,36.879 93.597,36.396 93,36.396 L93,36.396 Z" id="Fill-2" fill="#000000"></path>
        </g>
        <g id="Group-4-Copy-32" transform="translate(712.000000, 184.000000)">
            <polygon id="Fill-1" fill="#FFFFFF" points="0 112 112 112 112 0 0 0"></polygon>
            <path d="M85.26,66.962 L107.24,66.962 L107.24,44.9855 L85.26,44.9855 L85.26,66.962 Z M94.99,85.75 C94.99,92.7745 89.2745,98.49 82.25,98.49 L69.51,98.49 L69.51,84 C69.51,83.3035 68.9465,82.74 68.25,82.74 L57.2915,82.74 L57.2915,69.349 C63.693,68.719 68.7505,63.644 69.356,57.2355 L82.74,57.2355 L82.74,68.222 C82.74,68.9185 83.3035,69.4855 84,69.4855 L94.99,69.4855 L94.99,85.75 Z M45.01,107.24 L66.99,107.24 L66.99,85.2635 L45.01,85.2635 L45.01,107.24 Z M15.75,107.24 C9.6915,107.24 4.76,102.3085 4.76,96.25 C4.76,90.1915 9.6915,85.26 15.75,85.26 C21.8085,85.26 26.74,90.1915 26.74,96.25 C26.74,102.3085 21.8085,107.24 15.75,107.24 L15.75,107.24 Z M55.9755,44.9855 C62.034,44.9855 66.9655,49.9135 66.9655,55.972 C66.9655,62.034 62.034,66.962 55.9755,66.962 C49.9135,66.962 44.9855,62.034 44.9855,55.972 C44.9855,49.9135 49.9135,44.9855 55.9755,44.9855 L55.9755,44.9855 Z M4.7915,26.768 L26.7715,26.768 L26.7715,4.7915 L4.7915,4.7915 L4.7915,26.768 Z M50.26,5.6805 L67.48,15.624 L50.26,25.5675 L50.26,5.6805 Z M85.26,15.75 C85.26,9.6915 90.1915,4.76 96.25,4.76 C102.3085,4.76 107.24,9.6915 107.24,15.75 C107.24,21.8085 102.3085,26.74 96.25,26.74 C90.1915,26.74 85.26,21.8085 85.26,15.75 L85.26,15.75 Z M108.5,42.462 L97.51,42.462 L97.51,29.134 C104.3595,28.4865 109.76,22.7675 109.76,15.75 C109.76,8.302 103.698,2.24 96.25,2.24 C88.802,2.24 82.74,8.302 82.74,15.75 C82.74,22.7675 88.1405,28.4865 94.99,29.134 L94.99,42.462 L84,42.462 C83.3035,42.462 82.74,43.0255 82.74,43.722 L82.74,54.712 L69.356,54.712 C68.7085,47.8625 62.993,42.462 55.9755,42.462 C48.9475,42.462 43.225,47.8765 42.588,54.74 L29.75,54.74 C22.7255,54.74 17.01,49.0245 17.01,42 L17.01,29.2915 L28.0315,29.2915 C28.728,29.2915 29.2915,28.728 29.2915,28.0315 L29.2915,17.0415 L47.74,17.0415 L47.74,27.748 C47.74,28.1995 47.978,28.6125 48.37,28.8365 C48.5625,28.9485 48.783,29.008 49,29.008 C49.217,29.008 49.4375,28.9485 49.63,28.8365 L70.63,16.7125 C71.022,16.4885 71.26,16.0755 71.26,15.624 C71.26,15.1725 71.022,14.7595 70.63,14.532 L49.63,2.408 C49.2415,2.184 48.7585,2.184 48.37,2.408 C47.978,2.6355 47.74,3.0485 47.74,3.5 L47.74,14.518 L29.2915,14.518 L29.2915,3.5315 C29.2915,2.835 28.728,2.268 28.0315,2.268 L3.5315,2.268 C2.835,2.268 2.2715,2.835 2.2715,3.5315 L2.2715,28.0315 C2.2715,28.728 2.835,29.2915 3.5315,29.2915 L14.49,29.2915 L14.49,42 C14.49,50.414 21.336,57.26 29.75,57.26 L42.595,57.26 C42.8645,60.032 43.953,62.545 45.6435,64.5715 L24.3215,85.897 C21.9835,83.9545 19.0225,82.74 15.75,82.74 C8.302,82.74 2.24,88.802 2.24,96.25 C2.24,103.698 8.302,109.76 15.75,109.76 C23.198,109.76 29.26,103.698 29.26,96.25 C29.26,92.981 28.0455,90.02 26.103,87.6785 L47.432,66.3495 C49.4725,68.033 51.989,69.111 54.7715,69.3595 L54.7715,82.74 L43.75,82.74 C43.0535,82.74 42.49,83.3035 42.49,84 L42.49,108.5 C42.49,109.1965 43.0535,109.76 43.75,109.76 L68.25,109.76 C68.9465,109.76 69.51,109.1965 69.51,108.5 L69.51,101.01 L82.25,101.01 C90.664,101.01 97.51,94.164 97.51,85.75 L97.51,69.4855 L108.5,69.4855 C109.1965,69.4855 109.76,68.9185 109.76,68.222 L109.76,43.722 C109.76,43.0255 109.1965,42.462 108.5,42.462 L108.5,42.462 Z" id="Fill-2" fill="#000000"></path>
        </g>
        <path d="M404.455,335.168 C406.681,335.168 407.843,333.95 407.843,332.34 C407.843,331.01 407.045,330.24 405.869,329.918 L405.869,329.806 C406.891,329.456 407.549,328.63 407.549,327.51 C407.549,326.026 406.401,325.06 404.455,325.06 C402.509,325.06 401.361,326.026 401.361,327.51 C401.361,328.63 402.019,329.456 403.041,329.806 L403.041,329.918 C401.865,330.24 401.067,331.01 401.067,332.34 C401.067,333.95 402.229,335.168 404.455,335.168 Z M404.455,334.146 C403.097,334.146 402.313,333.502 402.313,332.396 L402.313,332.102 C402.313,330.996 403.097,330.352 404.455,330.352 C405.813,330.352 406.597,330.996 406.597,332.102 L406.597,332.396 C406.597,333.502 405.813,334.146 404.455,334.146 Z M404.455,329.372 C403.237,329.372 402.579,328.826 402.579,327.832 L402.579,327.622 C402.579,326.628 403.237,326.082 404.455,326.082 C405.673,326.082 406.331,326.628 406.331,327.622 L406.331,327.832 C406.331,328.826 405.673,329.372 404.455,329.372 Z M413.015,335.168 C415.353,335.168 416.375,333.306 416.375,330.114 C416.375,326.922 415.353,325.06 413.015,325.06 C410.677,325.06 409.655,326.922 409.655,330.114 C409.655,333.306 410.677,335.168 413.015,335.168 Z M413.015,334.146 C411.489,334.146 410.887,332.802 410.887,330.912 L410.887,329.316 C410.887,327.426 411.489,326.082 413.015,326.082 C414.541,326.082 415.143,327.426 415.143,329.316 L415.143,330.912 C415.143,332.802 414.541,334.146 413.015,334.146 Z M418.565,337.8 L419.685,337.8 L419.685,333.824 L419.741,333.824 C420.175,334.72 420.861,335.168 421.855,335.168 C423.661,335.168 424.795,333.698 424.795,331.388 C424.795,329.078 423.661,327.608 421.855,327.608 C420.861,327.608 420.119,328.042 419.741,328.952 L419.685,328.952 L419.685,327.776 L418.565,327.776 L418.565,337.8 Z M421.547,334.16 C420.525,334.16 419.685,333.628 419.685,332.69 L419.685,330.002 C419.685,329.204 420.525,328.616 421.547,328.616 C422.807,328.616 423.591,329.484 423.591,330.772 L423.591,332.004 C423.591,333.292 422.807,334.16 421.547,334.16 Z M425.781,335 L428.455,331.36 L425.893,327.776 L427.209,327.776 L429.043,330.464 L429.085,330.464 L430.989,327.776 L432.235,327.776 L429.687,331.276 L432.291,335 L430.975,335 L429.099,332.172 L429.057,332.172 L427.027,335 L425.781,335 Z" id="80px" fill="#6F6F6F" fill-rule="nonzero"></path>
        <path d="M575.717,328.812 C575.717,326.488 574.471,325.06 572.441,325.06 C570.481,325.06 569.193,326.376 569.193,328.294 C569.193,330.142 570.397,331.304 572.077,331.304 C573.267,331.304 573.967,330.702 574.429,329.904 L574.499,329.932 C573.967,332.2 572.805,333.474 570.719,335 L572.231,335 C573.799,333.978 575.717,331.71 575.717,328.812 Z M572.455,330.31 C571.167,330.31 570.411,329.568 570.411,328.252 L570.411,328.14 C570.411,326.824 571.167,326.082 572.455,326.082 C573.743,326.082 574.499,326.824 574.499,328.14 L574.499,328.252 C574.499,329.568 573.743,330.31 572.455,330.31 Z M581.029,335.168 C582.989,335.168 584.277,333.852 584.277,331.934 C584.277,330.086 583.073,328.924 581.393,328.924 C580.203,328.924 579.503,329.526 579.041,330.324 L578.971,330.296 C579.503,328.028 580.665,326.754 582.751,325.228 L581.239,325.228 C579.671,326.25 577.753,328.518 577.753,331.416 C577.753,333.74 578.999,335.168 581.029,335.168 Z M581.015,334.146 C579.727,334.146 578.971,333.404 578.971,332.088 L578.971,331.976 C578.971,330.66 579.727,329.918 581.015,329.918 C582.303,329.918 583.059,330.66 583.059,331.976 L583.059,332.088 C583.059,333.404 582.303,334.146 581.015,334.146 Z M586.565,337.8 L587.685,337.8 L587.685,333.824 L587.741,333.824 C588.175,334.72 588.861,335.168 589.855,335.168 C591.661,335.168 592.795,333.698 592.795,331.388 C592.795,329.078 591.661,327.608 589.855,327.608 C588.861,327.608 588.119,328.042 587.741,328.952 L587.685,328.952 L587.685,327.776 L586.565,327.776 L586.565,337.8 Z M589.547,334.16 C588.525,334.16 587.685,333.628 587.685,332.69 L587.685,330.002 C587.685,329.204 588.525,328.616 589.547,328.616 C590.807,328.616 591.591,329.484 591.591,330.772 L591.591,332.004 C591.591,333.292 590.807,334.16 589.547,334.16 Z M593.781,335 L596.455,331.36 L593.893,327.776 L595.209,327.776 L597.043,330.464 L597.085,330.464 L598.989,327.776 L600.235,327.776 L597.687,331.276 L600.291,335 L598.975,335 L597.099,332.172 L597.057,332.172 L595.027,335 L593.781,335 Z" id="96px" fill="#6F6F6F" fill-rule="nonzero"></path>
        <path d="M753.901,335 L753.901,333.964 L751.381,333.964 L751.381,325.228 L749.547,325.228 L746.957,327.65 L747.643,328.392 L750.107,326.096 L750.205,326.096 L750.205,333.964 L747.475,333.964 L747.475,335 L753.901,335 Z M762.461,335 L762.461,333.964 L759.941,333.964 L759.941,325.228 L758.107,325.228 L755.517,327.65 L756.203,328.392 L758.667,326.096 L758.765,326.096 L758.765,333.964 L756.035,333.964 L756.035,335 L762.461,335 Z M770.825,333.964 L765.687,333.964 L768.319,331.598 L768.700203,331.245589 C769.743704,330.249036 770.461,329.254842 770.461,327.902 C770.461,326.236 769.369,325.06 767.465,325.06 C765.575,325.06 764.707,326.208 764.329,327.356 L765.379,327.762 C765.645,326.838 766.205,326.11 767.409,326.11 C768.613,326.11 769.215,326.852 769.215,327.93 L769.215,328.098 C769.215,329.036 768.515,330.016 767.605,330.856 L764.413,333.796 L764.413,335 L770.825,335 L770.825,333.964 Z M776.577,337.8 L777.697,337.8 L777.697,333.824 L777.753,333.824 C778.187,334.72 778.873,335.168 779.867,335.168 C781.673,335.168 782.807,333.698 782.807,331.388 C782.807,329.078 781.673,327.608 779.867,327.608 C778.873,327.608 778.131,328.042 777.753,328.952 L777.697,328.952 L777.697,327.776 L776.577,327.776 L776.577,337.8 Z M779.559,334.16 C778.537,334.16 777.697,333.628 777.697,332.69 L777.697,330.002 C777.697,329.204 778.537,328.616 779.559,328.616 C780.819,328.616 781.603,329.484 781.603,330.772 L781.603,332.004 C781.603,333.292 780.819,334.16 779.559,334.16 Z M783.793,335 L786.467,331.36 L783.905,327.776 L785.221,327.776 L787.055,330.464 L787.097,330.464 L789.001,327.776 L790.247,327.776 L787.699,331.276 L790.303,335 L788.987,335 L787.111,332.172 L787.069,332.172 L785.039,335 L783.793,335 Z" id="112px" fill="#6F6F6F" fill-rule="nonzero"></path>
        <path d="M252.469,335.168 C254.429,335.168 255.717,333.852 255.717,331.934 C255.717,330.086 254.513,328.924 252.833,328.924 C251.643,328.924 250.943,329.526 250.481,330.324 L250.411,330.296 C250.943,328.028 252.105,326.754 254.191,325.228 L252.679,325.228 C251.111,326.25 249.193,328.518 249.193,331.416 C249.193,333.74 250.439,335.168 252.469,335.168 Z M252.455,334.146 C251.167,334.146 250.411,333.404 250.411,332.088 L250.411,331.976 C250.411,330.66 251.167,329.918 252.455,329.918 C253.743,329.918 254.499,330.66 254.499,331.976 L254.499,332.088 C254.499,333.404 253.743,334.146 252.455,334.146 Z M263.185,335 L263.185,333.082 L264.599,333.082 L264.599,332.102 L263.185,332.102 L263.185,325.228 L261.435,325.228 L257.347,332.046 L257.347,333.082 L262.065,333.082 L262.065,335 L263.185,335 Z M261.995,326.138 L262.065,326.138 L262.065,332.102 L258.453,332.102 L261.995,326.138 Z M266.565,337.8 L267.685,337.8 L267.685,333.824 L267.741,333.824 C268.175,334.72 268.861,335.168 269.855,335.168 C271.661,335.168 272.795,333.698 272.795,331.388 C272.795,329.078 271.661,327.608 269.855,327.608 C268.861,327.608 268.119,328.042 267.741,328.952 L267.685,328.952 L267.685,327.776 L266.565,327.776 L266.565,337.8 Z M269.547,334.16 C268.525,334.16 267.685,333.628 267.685,332.69 L267.685,330.002 C267.685,329.204 268.525,328.616 269.547,328.616 C270.807,328.616 271.591,329.484 271.591,330.772 L271.591,332.004 C271.591,333.292 270.807,334.16 269.547,334.16 Z M273.781,335 L276.455,331.36 L273.893,327.776 L275.209,327.776 L277.043,330.464 L277.085,330.464 L278.989,327.776 L280.235,327.776 L277.687,331.276 L280.291,335 L278.975,335 L277.099,332.172 L277.057,332.172 L275.027,335 L273.781,335 Z" id="64px" fill="#6F6F6F" fill-rule="nonzero"></path>
        <path d="M118.625,335 L118.625,333.082 L120.039,333.082 L120.039,332.102 L118.625,332.102 L118.625,325.228 L116.875,325.228 L112.787,332.046 L112.787,333.082 L117.505,333.082 L117.505,335 L118.625,335 Z M117.435,326.138 L117.505,326.138 L117.505,332.102 L113.893,332.102 L117.435,326.138 Z M125.015,335.168 C127.241,335.168 128.403,333.95 128.403,332.34 C128.403,331.01 127.605,330.24 126.429,329.918 L126.429,329.806 C127.451,329.456 128.109,328.63 128.109,327.51 C128.109,326.026 126.961,325.06 125.015,325.06 C123.069,325.06 121.921,326.026 121.921,327.51 C121.921,328.63 122.579,329.456 123.601,329.806 L123.601,329.918 C122.425,330.24 121.627,331.01 121.627,332.34 C121.627,333.95 122.789,335.168 125.015,335.168 Z M125.015,334.146 C123.657,334.146 122.873,333.502 122.873,332.396 L122.873,332.102 C122.873,330.996 123.657,330.352 125.015,330.352 C126.373,330.352 127.157,330.996 127.157,332.102 L127.157,332.396 C127.157,333.502 126.373,334.146 125.015,334.146 Z M125.015,329.372 C123.797,329.372 123.139,328.826 123.139,327.832 L123.139,327.622 C123.139,326.628 123.797,326.082 125.015,326.082 C126.233,326.082 126.891,326.628 126.891,327.622 L126.891,327.832 C126.891,328.826 126.233,329.372 125.015,329.372 Z M130.565,337.8 L131.685,337.8 L131.685,333.824 L131.741,333.824 C132.175,334.72 132.861,335.168 133.855,335.168 C135.661,335.168 136.795,333.698 136.795,331.388 C136.795,329.078 135.661,327.608 133.855,327.608 C132.861,327.608 132.119,328.042 131.741,328.952 L131.685,328.952 L131.685,327.776 L130.565,327.776 L130.565,337.8 Z M133.547,334.16 C132.525,334.16 131.685,333.628 131.685,332.69 L131.685,330.002 C131.685,329.204 132.525,328.616 133.547,328.616 C134.807,328.616 135.591,329.484 135.591,330.772 L135.591,332.004 C135.591,333.292 134.807,334.16 133.547,334.16 Z M137.781,335 L140.455,331.36 L137.893,327.776 L139.209,327.776 L141.043,330.464 L141.085,330.464 L142.989,327.776 L144.235,327.776 L141.687,331.276 L144.291,335 L142.975,335 L141.099,332.172 L141.057,332.172 L139.027,335 L137.781,335 Z" id="48px" fill="#6F6F6F" fill-rule="nonzero"></path>
    </g>
</svg>