<svg id="a8559ec2-8238-424b-b78e-28a91d3b8fec" data-name="Layer 1" xmlns="http://www.w3.org/2000/svg" xmlns:xlink="http://www.w3.org/1999/xlink" viewBox="0 0 928 522">
  <defs>
    <linearGradient id="accebe04-c1b6-4568-af7e-9cdf50474364" x1="78.1144" y1="228.2202" x2="106.2931" y2="228.2202" gradientUnits="userSpaceOnUse">
      <stop offset="0.1" stop-color="#fff"/>
      <stop offset="0.85"/>
    </linearGradient>
    <linearGradient id="b4ca3818-4ac2-4661-aba7-9307089a3482" x1="90.4142" y1="199.7891" x2="134.3318" y2="243.7066" gradientUnits="userSpaceOnUse">
      <stop offset="0" stop-color="#161616"/>
      <stop offset="0.9" stop-color="#fff"/>
    </linearGradient>
    <linearGradient id="b1a93863-9945-40c6-a40c-1b7b365c0576" x1="72.1144" y1="245.7202" x2="120.0333" y2="245.7202" gradientUnits="userSpaceOnUse">
      <stop offset="0.1" stop-color="#fff"/>
      <stop offset="1"/>
    </linearGradient>
    <linearGradient id="f1b282cd-5355-4288-be88-55411f9712dc" x1="207.643" y1="227.7753" x2="242.8663" y2="227.7753" xlink:href="#accebe04-c1b6-4568-af7e-9cdf50474364"/>
    <linearGradient id="b50f21c3-9769-4a7e-922b-ae08ad8bc771" x1="223.0177" y1="192.2363" x2="277.9147" y2="247.1333" xlink:href="#b4ca3818-4ac2-4661-aba7-9307089a3482"/>
    <linearGradient id="e4625064-b0cb-4f71-897f-925e52edd686" x1="200.143" y1="249.6503" x2="260.0416" y2="249.6503" xlink:href="#b1a93863-9945-40c6-a40c-1b7b365c0576"/>
    <linearGradient id="ef98d5a7-964b-472a-b974-aaae97581990" x1="353.1715" y1="227.3303" x2="395.4396" y2="227.3303" xlink:href="#accebe04-c1b6-4568-af7e-9cdf50474364"/>
    <linearGradient id="b88d0d2e-c4a9-4d15-8882-2247413fccab" x1="371.6212" y1="184.6836" x2="437.4976" y2="250.56" xlink:href="#b4ca3818-4ac2-4661-aba7-9307089a3482"/>
    <linearGradient id="b25a3727-dad6-4e30-9ade-09f1fdfa2876" x1="344.1715" y1="253.5803" x2="416.05" y2="253.5803" xlink:href="#b1a93863-9945-40c6-a40c-1b7b365c0576"/>
    <linearGradient id="b9a48d39-e71d-441a-976f-ddb9089b28fd" x1="516.2287" y1="226.4404" x2="572.5861" y2="226.4404" xlink:href="#accebe04-c1b6-4568-af7e-9cdf50474364"/>
    <linearGradient id="b2064fe1-9fcb-4974-8fdc-839c1df9fa50" x1="540.8283" y1="169.5781" x2="628.6635" y2="257.4133" xlink:href="#b4ca3818-4ac2-4661-aba7-9307089a3482"/>
    <linearGradient id="f4eb309c-0fce-4558-bfae-14e1035999fb" x1="504.2287" y1="261.4404" x2="600.0666" y2="261.4404" xlink:href="#b1a93863-9945-40c6-a40c-1b7b365c0576"/>
    <linearGradient id="ff97346d-3284-42b2-9208-9cc9c74537cf" x1="711.2858" y1="225.5505" x2="781.7326" y2="225.5505" xlink:href="#accebe04-c1b6-4568-af7e-9cdf50474364"/>
    <linearGradient id="a2a3f4a4-8fa7-43e4-b275-3dc227d27df1" x1="742.0354" y1="154.4727" x2="851.8293" y2="264.2666" xlink:href="#b4ca3818-4ac2-4661-aba7-9307089a3482"/>
    <linearGradient id="bd1273e3-fd3f-458e-822a-c834b5520781" x1="696.2858" y1="269.3005" x2="816.0832" y2="269.3005" xlink:href="#b1a93863-9945-40c6-a40c-1b7b365c0576"/>
    <mask id="a174f3cf-fbec-4571-aa96-e5389e73c16e" x="72" y="198" width="64" height="64" maskUnits="userSpaceOnUse">
      <g>
        <path d="M96.5548,237.44A18.4614,18.4614,0,0,1,78.1144,219h2.8808A15.5627,15.5627,0,0,0,104.77,232.2168l1.5235,2.4453A18.4,18.4,0,0,1,96.5548,237.44Z" fill="url(#accebe04-c1b6-4568-af7e-9cdf50474364)"/>
        <path d="M120.0333,256.78l-1.5117-2.4512a28.5642,28.5642,0,1,0-30.1572-48.52l-1.5332-2.4375A31.444,31.444,0,1,1,120.0333,256.78Z" fill="url(#b4ca3818-4ac2-4661-aba7-9307089a3482)"/>
        <path d="M103.5548,261.44A31.4765,31.4765,0,0,1,72.1144,230h2.8808a28.5664,28.5664,0,0,0,43.5264,24.3291l1.5117,2.4512A31.36,31.36,0,0,1,103.5548,261.44Z" fill="url(#b1a93863-9945-40c6-a40c-1b7b365c0576)"/>
        <path d="M119.2784,256.9951a1.4378,1.4378,0,0,1-1.2236-.6806l-13.7461-22.1153a1.44,1.44,0,0,1,.4609-1.9824A15.56,15.56,0,1,0,80.9952,219a1.44,1.44,0,0,1-2.8808,0,18.44,18.44,0,1,1,29.37,14.8545l13.0156,20.94a1.4409,1.4409,0,0,1-1.2217,2.2Z" fill="#fff"/>
        <path d="M82.7789,210.3858A28.4092,28.4092,0,0,0,74.9952,230a1.44,1.44,0,0,1-2.8808,0,31.3028,31.3028,0,0,1,14.7168-26.6279,1.4379,1.4379,0,0,1,1.9853.4521Z" fill="#fff"/>
      </g>
    </mask>
    <linearGradient id="bccf553e-e3ba-4fc1-bd6f-3c9fb64a7271" x1="72" y1="262" x2="136" y2="198" gradientUnits="userSpaceOnUse">
      <stop offset="0.1" stop-color="#3ddbd9"/>
      <stop offset="0.9" stop-color="#4589ff"/>
    </linearGradient>
    <mask id="be623196-97af-44eb-b830-27e9f91b3e13" x="200" y="190" width="80" height="80" maskUnits="userSpaceOnUse">
      <g>
        <path d="M230.6935,239.3005a23.0767,23.0767,0,0,1-23.05-23.05h3.601a19.4535,19.4535,0,0,0,29.7181,16.521l1.9042,3.0566A22.9984,22.9984,0,0,1,230.6935,239.3005Z" fill="url(#f1b282cd-5355-4288-be88-55411f9712dc)"/>
        <path d="M260.0416,263.4753l-1.89-3.0639a35.7053,35.7053,0,1,0-37.6965-60.6494l-1.9165-3.0469a39.3049,39.3049,0,1,1,41.5026,66.76Z" fill="url(#b50f21c3-9769-4a7e-922b-ae08ad8bc771)"/>
        <path d="M239.4435,269.3005a39.3456,39.3456,0,0,1-39.3-39.3h3.601a35.708,35.708,0,0,0,54.408,30.4114l1.89,3.0639A39.1992,39.1992,0,0,1,239.4435,269.3005Z" fill="url(#e4625064-b0cb-4f71-897f-925e52edd686)"/>
        <path d="M259.098,263.7439a1.7972,1.7972,0,0,1-1.53-.8508L240.3859,235.249a1.8,1.8,0,0,1,.5762-2.478A19.4506,19.4506,0,1,0,211.244,216.25a1.8005,1.8005,0,0,1-3.601,0,23.0505,23.0505,0,1,1,36.7126,18.5681l16.2695,26.1756a1.8011,1.8011,0,0,1-1.5271,2.75Z" fill="#fff"/>
        <path d="M213.4736,205.4823A35.5116,35.5116,0,0,0,203.744,230a1.8005,1.8005,0,0,1-3.601,0,39.1285,39.1285,0,0,1,18.396-33.2849,1.7974,1.7974,0,0,1,2.4816.5652Z" fill="#fff"/>
      </g>
    </mask>
    <linearGradient id="bdf15e5b-8688-4334-9142-4d646e5de39c" x1="200" y1="270" x2="280" y2="190" xlink:href="#bccf553e-e3ba-4fc1-bd6f-3c9fb64a7271"/>
    <mask id="f497dcac-4604-407f-a7b0-10e8fa41eafb" x="344" y="182" width="96" height="96" maskUnits="userSpaceOnUse">
      <g>
        <path d="M380.8322,241.1606A27.6921,27.6921,0,0,1,353.1715,213.5h4.3213a23.3441,23.3441,0,0,0,35.6617,19.8252l2.2851,3.668A27.6,27.6,0,0,1,380.8322,241.1606Z" fill="url(#ef98d5a7-964b-472a-b974-aaae97581990)"/>
        <path d="M416.05,270.17l-2.2676-3.6767a42.8464,42.8464,0,1,0-45.2359-72.7793l-2.3-3.6563A47.166,47.166,0,1,1,416.05,270.17Z" fill="url(#b88d0d2e-c4a9-4d15-8882-2247413fccab)"/>
        <path d="M391.3322,277.1606A47.2148,47.2148,0,0,1,344.1715,230h4.3213a42.85,42.85,0,0,0,65.29,36.4937L416.05,270.17A47.04,47.04,0,0,1,391.3322,277.1606Z" fill="url(#b25a3727-dad6-4e30-9ade-09f1fdfa2876)"/>
        <path d="M414.9176,270.4927a2.1564,2.1564,0,0,1-1.8354-1.021L392.463,236.2988a2.16,2.16,0,0,1,.6915-2.9736A23.3408,23.3408,0,1,0,357.4928,213.5a2.1607,2.1607,0,0,1-4.3213,0,27.6607,27.6607,0,1,1,44.0552,22.2817L416.75,267.1924a2.1614,2.1614,0,0,1-1.8326,3.3Z" fill="#fff"/>
        <path d="M360.1683,200.5787A42.6139,42.6139,0,0,0,348.4928,230a2.1607,2.1607,0,0,1-4.3213,0,46.9546,46.9546,0,0,1,22.0752-39.9419,2.1572,2.1572,0,0,1,2.9781.6782Z" fill="#fff"/>
      </g>
    </mask>
    <linearGradient id="bdbb595c-7992-4c3e-a1a1-acc1d8ca8ef3" x1="344" y1="278" x2="440" y2="182" xlink:href="#bccf553e-e3ba-4fc1-bd6f-3c9fb64a7271"/>
    <mask id="bfd6653b-0a25-4cdf-ace2-eefab4a6f257" x="504" y="166" width="128" height="128" maskUnits="userSpaceOnUse">
      <g>
        <path d="M553.11,244.8809A36.923,36.923,0,0,1,516.2287,208H521.99a31.1255,31.1255,0,0,0,47.5488,26.4336l3.0469,4.8906A36.7986,36.7986,0,0,1,553.11,244.8809Z" fill="url(#b9a48d39-e71d-441a-976f-ddb9089b28fd)"/>
        <path d="M600.0666,283.5605l-3.0235-4.9023a57.1285,57.1285,0,1,0-60.3144-97.0391l-3.0664-4.875a62.888,62.888,0,1,1,66.4043,106.8164Z" fill="url(#b2064fe1-9fcb-4974-8fdc-839c1df9fa50)"/>
        <path d="M567.11,292.8809A62.9531,62.9531,0,0,1,504.2287,230H509.99a57.1328,57.1328,0,0,0,87.0527,48.6582l3.0235,4.9023A62.72,62.72,0,0,1,567.11,292.8809Z" fill="url(#f4eb309c-0fce-4558-bfae-14e1035999fb)"/>
        <path d="M598.5568,283.99a2.8753,2.8753,0,0,1-2.4472-1.3613l-27.4922-44.23a2.8805,2.8805,0,0,1,.9218-3.9648A31.1209,31.1209,0,1,0,521.99,208a2.8809,2.8809,0,1,1-5.7617,0,36.8809,36.8809,0,1,1,58.74,29.709L601,279.59a2.8817,2.8817,0,0,1-2.4434,4.4Z" fill="#fff"/>
        <path d="M525.5577,190.7716A56.819,56.819,0,0,0,509.99,230a2.8809,2.8809,0,1,1-5.7617,0,62.6059,62.6059,0,0,1,29.4336-53.2559,2.8762,2.8762,0,0,1,3.9707.9043Z" fill="#fff"/>
      </g>
    </mask>
    <linearGradient id="b9c73f4b-11b6-41b0-93f6-4f56a74eb367" x1="504" y1="294" x2="632" y2="166" xlink:href="#bccf553e-e3ba-4fc1-bd6f-3c9fb64a7271"/>
    <mask id="edc6cacf-647c-4cd3-908d-c4c533405801" x="696" y="150" width="160" height="160" maskUnits="userSpaceOnUse">
      <g>
        <path d="M757.3869,248.6011A46.1537,46.1537,0,0,1,711.2858,202.5h7.2022a38.9069,38.9069,0,0,0,59.436,33.042l3.8086,6.1133A45.9992,45.9992,0,0,1,757.3869,248.6011Z" fill="url(#ff97346d-3284-42b2-9208-9cc9c74537cf)"/>
        <path d="M816.0832,296.9507l-3.7793-6.1279a71.4106,71.4106,0,1,0-75.3931-121.2989l-3.833-6.0937a78.61,78.61,0,1,1,83.0054,133.52Z" fill="url(#a2a3f4a4-8fa7-43e4-b275-3dc227d27df1)"/>
        <path d="M774.8869,308.6011A78.6914,78.6914,0,0,1,696.2858,230h7.2022a71.416,71.416,0,0,0,108.8159,60.8228l3.7793,6.1279A78.4,78.4,0,0,1,774.8869,308.6011Z" fill="url(#bd1273e3-fd3f-458e-822a-c834b5520781)"/>
        <path d="M814.196,297.4878a3.5941,3.5941,0,0,1-3.0591-1.7017L776.7717,240.498a3.6007,3.6007,0,0,1,1.1523-4.956A38.9012,38.9012,0,1,0,718.488,202.5a3.6011,3.6011,0,0,1-7.2022,0,46.1011,46.1011,0,1,1,73.4253,37.1362L817.25,291.9873a3.6021,3.6021,0,0,1-3.0542,5.5Z" fill="#fff"/>
        <path d="M722.947,180.9645A71.0239,71.0239,0,0,0,703.488,230a3.6011,3.6011,0,0,1-7.2022,0,78.2572,78.2572,0,0,1,36.792-66.57,3.5951,3.5951,0,0,1,4.9634,1.13Z" fill="#fff"/>
      </g>
    </mask>
    <linearGradient id="aa43b752-aace-4cb7-a0b7-7366194b6018" x1="696" y1="310" x2="856" y2="150" xlink:href="#bccf553e-e3ba-4fc1-bd6f-3c9fb64a7271"/>
  </defs>
  <path d="M0,0H928V522H0Z" fill-rule="evenodd"/>
  <g>
    <path d="M92.2893,345.168a3.4608,3.4608,0,0,1-1.365-.2588,2.8605,2.8605,0,0,1-1.0361-.7422,3.2512,3.2512,0,0,1-.6509-1.1831,5.1268,5.1268,0,0,1-.2241-1.5679,6.3968,6.3968,0,0,1,.322-2.0508,7.7489,7.7489,0,0,1,.833-1.75,8.2662,8.2662,0,0,1,1.127-1.4,7.5379,7.5379,0,0,1,1.2041-.9868h1.5119q-.7844.5728-1.4,1.1172a8.49,8.49,0,0,0-1.0779,1.1382,6.8472,6.8472,0,0,0-.7839,1.27,7.4308,7.4308,0,0,0-.5181,1.5293l.07.0278a3.2043,3.2043,0,0,1,.9028-1.0014,2.4205,2.4205,0,0,1,1.449-.3994,3.126,3.126,0,0,1,1.1621.21,2.5433,2.5433,0,0,1,.91.603,2.8341,2.8341,0,0,1,.5952.9541,3.4436,3.4436,0,0,1,.2168,1.2491,3.6035,3.6035,0,0,1-.2309,1.312,2.9336,2.9336,0,0,1-.658,1.0244,2.9976,2.9976,0,0,1-1.0291.6665A3.5868,3.5868,0,0,1,92.2893,345.168Zm-.0142-1.0362a1.8634,1.8634,0,0,0,2.044-2.0576v-.1123a2.0485,2.0485,0,1,0-4.0879,0v.1123a1.8638,1.8638,0,0,0,2.0439,2.0576Z" fill="#c6c6c6"/>
    <path d="M101.7251,345v-1.918h-4.718v-1.0361l4.0881-6.8179h1.75v6.8741h1.4138v.98h-1.4138V345Zm-3.6121-2.8979h3.6121v-5.9639h-.07Z" fill="#c6c6c6"/>
    <path d="M106.0649,337.7759h1.12v1.1626h.0559a2.0311,2.0311,0,0,1,.8191-1.0049,2.46,2.46,0,0,1,1.2949-.3257,2.7459,2.7459,0,0,1,1.218.2661,2.6456,2.6456,0,0,1,.9309.7559,3.4759,3.4759,0,0,1,.5881,1.19,6.1613,6.1613,0,0,1,0,3.1363,3.4678,3.4678,0,0,1-.5881,1.19,2.6456,2.6456,0,0,1-.9309.7559,2.7459,2.7459,0,0,1-1.218.2661,2.1875,2.1875,0,0,1-2.114-1.3306h-.0559V347.8h-1.12Zm2.9822,6.3979a1.9276,1.9276,0,0,0,1.4978-.5976,2.2361,2.2361,0,0,0,.5462-1.5694V340.769a2.2354,2.2354,0,0,0-.5462-1.5688,1.9262,1.9262,0,0,0-1.4978-.5981,2.4408,2.4408,0,0,0-.7212.1054,2.0157,2.0157,0,0,0-.5949.2886,1.3867,1.3867,0,0,0-.399.4429,1.1137,1.1137,0,0,0-.1469.5561v2.7017a1.303,1.303,0,0,0,.1469.626,1.4041,1.4041,0,0,0,.399.4643,1.8112,1.8112,0,0,0,.5949.2886A2.6106,2.6106,0,0,0,109.0471,344.1738Z" fill="#c6c6c6"/>
    <path d="M113.1208,345l2.6741-3.64-2.562-3.584h1.3159l1.834,2.688h.042l1.9041-2.688h1.2461l-2.5481,3.5L119.6309,345h-1.316l-1.8759-2.8281h-.042L114.3669,345Z" fill="#c6c6c6"/>
  </g>
  <g>
    <path d="M228.2751,345.168a4.5186,4.5186,0,0,1-1.47-.2168,3.0906,3.0906,0,0,1-1.0569-.5952,2.443,2.443,0,0,1-.6441-.896,2.8692,2.8692,0,0,1-.217-1.12,2.2527,2.2527,0,0,1,.5459-1.5957,2.9441,2.9441,0,0,1,1.428-.8261v-.1118a2.5429,2.5429,0,0,1-1.2249-.8614,2.2922,2.2922,0,0,1-.455-1.435,2.1879,2.1879,0,0,1,.812-1.7847,4.2478,4.2478,0,0,1,4.5639,0,2.1879,2.1879,0,0,1,.812,1.7847,2.2945,2.2945,0,0,1-.4548,1.435,2.5444,2.5444,0,0,1-1.2251.8614v.1118a2.9441,2.9441,0,0,1,1.428.8261,2.2527,2.2527,0,0,1,.5459,1.5957,2.8727,2.8727,0,0,1-.2168,1.12,2.4522,2.4522,0,0,1-.6441.896,3.0935,3.0935,0,0,1-1.0571.5952A4.5188,4.5188,0,0,1,228.2751,345.168Zm0-1.0362a2.454,2.454,0,0,0,1.5821-.4531,1.5648,1.5648,0,0,0,.56-1.29v-.2935a1.5638,1.5638,0,0,0-.56-1.2895,2.9857,2.9857,0,0,0-3.1641,0,1.5637,1.5637,0,0,0-.56,1.2895v.2935a1.5647,1.5647,0,0,0,.56,1.29A2.4535,2.4535,0,0,0,228.2751,344.1318Zm0-4.76a2.165,2.165,0,0,0,1.4-.39,1.3938,1.3938,0,0,0,.4758-1.1435v-.209a1.393,1.393,0,0,0-.4758-1.1431,2.7074,2.7074,0,0,0-2.8,0,1.3925,1.3925,0,0,0-.476,1.1431v.209a1.3933,1.3933,0,0,0,.476,1.1435A2.1639,2.1639,0,0,0,228.2751,339.3721Z" fill="#c6c6c6"/>
    <path d="M236.675,345.168a2.7654,2.7654,0,0,1-2.5549-1.33,9.0168,9.0168,0,0,1,0-7.4478,3.119,3.119,0,0,1,5.11,0,9.0138,9.0138,0,0,1,0,7.4478A2.7655,2.7655,0,0,1,236.675,345.168Zm0-1.0362a1.91,1.91,0,0,0,.98-.2368,1.8147,1.8147,0,0,0,.658-.67,3.315,3.315,0,0,0,.3711-1.0186,6.5484,6.5484,0,0,0,.1189-1.2973v-1.59a6.552,6.552,0,0,0-.1189-1.2973,3.3208,3.3208,0,0,0-.3711-1.0186,1.8185,1.8185,0,0,0-.658-.67,2.1461,2.1461,0,0,0-1.96,0,1.8185,1.8185,0,0,0-.658.67,3.3259,3.3259,0,0,0-.3711,1.0186,6.537,6.537,0,0,0-.1189,1.2973v1.59a6.5334,6.5334,0,0,0,.1189,1.2973,3.32,3.32,0,0,0,.3711,1.0186,1.8147,1.8147,0,0,0,.658.67A1.909,1.909,0,0,0,236.675,344.1318Z" fill="#c6c6c6"/>
    <path d="M242.0649,337.7759h1.12v1.1626h.0559a2.0311,2.0311,0,0,1,.8191-1.0049,2.46,2.46,0,0,1,1.2949-.3257,2.7459,2.7459,0,0,1,1.218.2661,2.6456,2.6456,0,0,1,.9309.7559,3.4759,3.4759,0,0,1,.5881,1.19,6.1613,6.1613,0,0,1,0,3.1363,3.4678,3.4678,0,0,1-.5881,1.19,2.6456,2.6456,0,0,1-.9309.7559,2.7459,2.7459,0,0,1-1.218.2661,2.1875,2.1875,0,0,1-2.114-1.3306h-.0559V347.8h-1.12Zm2.9822,6.3979a1.9276,1.9276,0,0,0,1.4978-.5976,2.2361,2.2361,0,0,0,.5462-1.5694V340.769a2.2354,2.2354,0,0,0-.5462-1.5688,1.9262,1.9262,0,0,0-1.4978-.5981,2.4408,2.4408,0,0,0-.7212.1054,2.0157,2.0157,0,0,0-.5949.2886,1.3867,1.3867,0,0,0-.399.4429,1.1137,1.1137,0,0,0-.1469.5561v2.7017a1.303,1.303,0,0,0,.1469.626,1.4041,1.4041,0,0,0,.399.4643,1.8112,1.8112,0,0,0,.5949.2886A2.6106,2.6106,0,0,0,245.0471,344.1738Z" fill="#c6c6c6"/>
    <path d="M249.1208,345l2.6741-3.64-2.562-3.584h1.3159l1.834,2.688h.042l1.9041-2.688h1.2461l-2.5481,3.5L255.6309,345h-1.316l-1.8759-2.8281h-.042L250.3669,345Z" fill="#c6c6c6"/>
  </g>
  <g>
    <path d="M383.5371,338.812a6.4023,6.4023,0,0,1-.322,2.0508,7.7386,7.7386,0,0,1-.833,1.75,8.2563,8.2563,0,0,1-1.127,1.4,7.55,7.55,0,0,1-1.2038.9868h-1.512q.7837-.572,1.4-1.1172a8.4476,8.4476,0,0,0,1.0779-1.1382,6.8646,6.8646,0,0,0,.7842-1.27,7.4467,7.4467,0,0,0,.5178-1.5293l-.07-.0278a3.2162,3.2162,0,0,1-.9031,1.0019,2.42,2.42,0,0,1-1.449.399,3.1264,3.1264,0,0,1-1.1621-.2105,2.5406,2.5406,0,0,1-.91-.603,2.8424,2.8424,0,0,1-.595-.9473,3.42,3.42,0,0,1-.217-1.2558,3.6047,3.6047,0,0,1,.2309-1.312,2.9265,2.9265,0,0,1,.658-1.024,2.9991,2.9991,0,0,1,1.0222-.6665,3.5607,3.5607,0,0,1,1.3369-.2387,3.4622,3.4622,0,0,1,1.365.2587,2.8551,2.8551,0,0,1,1.0359.7422,3.2574,3.2574,0,0,1,.6511,1.1831A5.1354,5.1354,0,0,1,383.5371,338.812Zm-3.262,1.5122a1.8641,1.8641,0,0,0,2.044-2.0581v-.1123a2.0485,2.0485,0,1,0-4.0879,0v.1123a1.8645,1.8645,0,0,0,2.0439,2.0581Z" fill="#c6c6c6"/>
    <path d="M388.6892,345.168a3.4608,3.4608,0,0,1-1.365-.2588,2.8605,2.8605,0,0,1-1.0361-.7422,3.2512,3.2512,0,0,1-.6509-1.1831,5.1268,5.1268,0,0,1-.2241-1.5679,6.3968,6.3968,0,0,1,.322-2.0508,7.7489,7.7489,0,0,1,.833-1.75,8.2662,8.2662,0,0,1,1.127-1.4,7.5379,7.5379,0,0,1,1.2041-.9868h1.5119q-.7843.5728-1.4,1.1172a8.49,8.49,0,0,0-1.0779,1.1382,6.8472,6.8472,0,0,0-.7839,1.27,7.4308,7.4308,0,0,0-.5181,1.5293l.07.0278a3.2055,3.2055,0,0,1,.9028-1.0014,2.4205,2.4205,0,0,1,1.449-.3994,3.1256,3.1256,0,0,1,1.1621.21,2.5433,2.5433,0,0,1,.91.603,2.8341,2.8341,0,0,1,.5952.9541,3.4436,3.4436,0,0,1,.2168,1.2491,3.6035,3.6035,0,0,1-.2309,1.312,2.9336,2.9336,0,0,1-.658,1.0244,2.9976,2.9976,0,0,1-1.0291.6665A3.5868,3.5868,0,0,1,388.6892,345.168Zm-.0142-1.0362a1.8634,1.8634,0,0,0,2.044-2.0576v-.1123a2.0485,2.0485,0,1,0-4.0879,0v.1123a1.8638,1.8638,0,0,0,2.0439,2.0576Z" fill="#c6c6c6"/>
    <path d="M394.0649,337.7759h1.12v1.1626h.0559a2.0311,2.0311,0,0,1,.8191-1.0049,2.46,2.46,0,0,1,1.2949-.3257,2.7459,2.7459,0,0,1,1.218.2661,2.6456,2.6456,0,0,1,.9309.7559,3.4759,3.4759,0,0,1,.5881,1.19,6.1613,6.1613,0,0,1,0,3.1363,3.4678,3.4678,0,0,1-.5881,1.19,2.6456,2.6456,0,0,1-.9309.7559,2.7459,2.7459,0,0,1-1.218.2661,2.1875,2.1875,0,0,1-2.114-1.3306h-.0559V347.8h-1.12Zm2.9822,6.3979a1.9276,1.9276,0,0,0,1.4978-.5976,2.2361,2.2361,0,0,0,.5462-1.5694V340.769a2.2354,2.2354,0,0,0-.5462-1.5688,1.9262,1.9262,0,0,0-1.4978-.5981,2.4408,2.4408,0,0,0-.7212.1054,2.0157,2.0157,0,0,0-.5949.2886,1.3867,1.3867,0,0,0-.399.4429,1.1137,1.1137,0,0,0-.1469.5561v2.7017a1.303,1.303,0,0,0,.1469.626,1.4041,1.4041,0,0,0,.399.4643,1.8112,1.8112,0,0,0,.5949.2886A2.6106,2.6106,0,0,0,397.0471,344.1738Z" fill="#c6c6c6"/>
    <path d="M401.1208,345l2.6741-3.64-2.562-3.584h1.3159l1.834,2.688h.042l1.9041-2.688h1.2461l-2.5481,3.5L407.6309,345h-1.316l-1.8759-2.8281h-.042L402.3669,345Z" fill="#c6c6c6"/>
  </g>
  <g>
    <path d="M549.1072,345v-1.0361h2.73v-7.8677h-.0979l-2.4642,2.2959-.6857-.7422,2.59-2.4219h1.834v8.7359h2.52V345Z" fill="#c6c6c6"/>
    <path d="M563.7371,345h-6.4119v-1.2041l3.1919-2.94a7.0762,7.0762,0,0,0,1.1479-1.3409,2.59,2.59,0,0,0,.4622-1.4253v-.1684a1.9159,1.9159,0,0,0-.448-1.32,1.7217,1.7217,0,0,0-1.3582-.5054,2.2274,2.2274,0,0,0-.7839.126,1.78,1.78,0,0,0-.581.35,1.9523,1.9523,0,0,0-.4061.5254,3.19,3.19,0,0,0-.2587.6508l-1.05-.4062a4.1356,4.1356,0,0,1,.385-.8467,2.8393,2.8393,0,0,1,1.512-1.2417,4.0177,4.0177,0,0,1,2.5129.0166,2.515,2.515,0,0,1,1.5191,1.4829,3.1192,3.1192,0,0,1,.2028,1.147,3.39,3.39,0,0,1-.1608,1.063,4.1381,4.1381,0,0,1-.441.93,5.658,5.658,0,0,1-.6792.86q-.3987.42-.8608.8394l-2.6321,2.3711h5.138Z" fill="#c6c6c6"/>
    <path d="M568.875,345.168a4.5192,4.5192,0,0,1-1.47-.2168,3.0916,3.0916,0,0,1-1.0569-.5952,2.4415,2.4415,0,0,1-.644-.896,2.8674,2.8674,0,0,1-.217-1.12,2.2523,2.2523,0,0,1,.5459-1.5957,2.9438,2.9438,0,0,1,1.4279-.8261v-.1118a2.5426,2.5426,0,0,1-1.2248-.8614,2.2916,2.2916,0,0,1-.4551-1.435,2.1882,2.1882,0,0,1,.812-1.7847,4.2479,4.2479,0,0,1,4.564,0,2.1882,2.1882,0,0,1,.812,1.7847,2.2951,2.2951,0,0,1-.4548,1.435,2.5449,2.5449,0,0,1-1.2251.8614v.1118a2.9438,2.9438,0,0,1,1.4279.8261,2.2523,2.2523,0,0,1,.5459,1.5957,2.8709,2.8709,0,0,1-.2168,1.12,2.4531,2.4531,0,0,1-.644.896,3.0944,3.0944,0,0,1-1.0571.5952A4.5192,4.5192,0,0,1,568.875,345.168Zm0-1.0362a2.4537,2.4537,0,0,0,1.582-.4531,1.5649,1.5649,0,0,0,.56-1.29v-.2935a1.5639,1.5639,0,0,0-.56-1.2895,2.9855,2.9855,0,0,0-3.164,0,1.5637,1.5637,0,0,0-.56,1.2895v.2935a1.5647,1.5647,0,0,0,.56,1.29A2.4533,2.4533,0,0,0,568.875,344.1318Zm0-4.76a2.1646,2.1646,0,0,0,1.4-.39,1.3936,1.3936,0,0,0,.4759-1.1435v-.209a1.3928,1.3928,0,0,0-.4759-1.1431,2.7072,2.7072,0,0,0-2.8,0,1.3923,1.3923,0,0,0-.4761,1.1431v.209a1.3931,1.3931,0,0,0,.4761,1.1435A2.1636,2.1636,0,0,0,568.875,339.3721Z" fill="#c6c6c6"/>
    <path d="M574.2649,337.7759h1.12v1.1626h.0559a2.0311,2.0311,0,0,1,.8191-1.0049,2.46,2.46,0,0,1,1.2949-.3257,2.7459,2.7459,0,0,1,1.218.2661,2.646,2.646,0,0,1,.931.7559,3.4777,3.4777,0,0,1,.5881,1.19,6.1613,6.1613,0,0,1,0,3.1363,3.47,3.47,0,0,1-.5881,1.19,2.646,2.646,0,0,1-.931.7559,2.7459,2.7459,0,0,1-1.218.2661,2.1876,2.1876,0,0,1-2.114-1.3306h-.0559V347.8h-1.12Zm2.9822,6.3979a1.9276,1.9276,0,0,0,1.4978-.5976,2.2361,2.2361,0,0,0,.5461-1.5694V340.769a2.2354,2.2354,0,0,0-.5461-1.5688,1.9262,1.9262,0,0,0-1.4978-.5981,2.44,2.44,0,0,0-.7212.1054,2.0163,2.0163,0,0,0-.595.2886,1.3864,1.3864,0,0,0-.3989.4429,1.1128,1.1128,0,0,0-.147.5561v2.7017a1.3019,1.3019,0,0,0,.147.626,1.4038,1.4038,0,0,0,.3989.4643,1.8117,1.8117,0,0,0,.595.2886A2.61,2.61,0,0,0,577.2471,344.1738Z" fill="#c6c6c6"/>
    <path d="M581.3208,345l2.6741-3.64-2.562-3.584h1.3159l1.834,2.688h.042l1.904-2.688h1.2461l-2.5481,3.5L587.8308,345h-1.3159l-1.876-2.8281h-.042L582.5669,345Z" fill="#c6c6c6"/>
  </g>
  <g>
    <path d="M757.1072,345v-1.0361h2.73v-7.8677h-.0979l-2.4642,2.2959-.6857-.7422,2.59-2.4219h1.834v8.7359h2.52V345Z" fill="#c6c6c6"/>
    <path d="M768.4893,345.168a3.46,3.46,0,0,1-1.365-.2588,2.8609,2.8609,0,0,1-1.0362-.7422,3.25,3.25,0,0,1-.6508-1.1831,5.1237,5.1237,0,0,1-.2242-1.5679,6.3941,6.3941,0,0,1,.3221-2.0508,7.7446,7.7446,0,0,1,.833-1.75,8.2609,8.2609,0,0,1,1.1269-1.4,7.5423,7.5423,0,0,1,1.2041-.9868h1.512q-.7845.5728-1.4,1.1172a8.4956,8.4956,0,0,0-1.0778,1.1382,6.8423,6.8423,0,0,0-.784,1.27,7.4368,7.4368,0,0,0-.518,1.5293l.07.0278a3.2058,3.2058,0,0,1,.9029-1.0014,2.42,2.42,0,0,1,1.4489-.3994,3.1252,3.1252,0,0,1,1.1621.21,2.5424,2.5424,0,0,1,.91.603,2.8359,2.8359,0,0,1,.5953.9541,3.4436,3.4436,0,0,1,.2168,1.2491,3.6014,3.6014,0,0,1-.231,1.312,2.9322,2.9322,0,0,1-.658,1.0244,2.9981,2.9981,0,0,1-1.029.6665A3.5872,3.5872,0,0,1,768.4893,345.168Zm-.0142-1.0362a1.8634,1.8634,0,0,0,2.0439-2.0576v-.1123a2.0484,2.0484,0,1,0-4.0878,0v.1123a1.8637,1.8637,0,0,0,2.0439,2.0576Z" fill="#c6c6c6"/>
    <path d="M776.875,345.168a2.7654,2.7654,0,0,1-2.5549-1.33,9.0158,9.0158,0,0,1,0-7.4478,3.119,3.119,0,0,1,5.11,0,9.0138,9.0138,0,0,1,0,7.4478A2.7654,2.7654,0,0,1,776.875,345.168Zm0-1.0362a1.9106,1.9106,0,0,0,.98-.2368,1.8145,1.8145,0,0,0,.6579-.67,3.31,3.31,0,0,0,.3711-1.0186,6.5484,6.5484,0,0,0,.1189-1.2973v-1.59a6.552,6.552,0,0,0-.1189-1.2973,3.3156,3.3156,0,0,0-.3711-1.0186,1.8182,1.8182,0,0,0-.6579-.67,2.1463,2.1463,0,0,0-1.96,0,1.8182,1.8182,0,0,0-.6579.67,3.3234,3.3234,0,0,0-.3711,1.0186,6.53,6.53,0,0,0-.1189,1.2973v1.59a6.5259,6.5259,0,0,0,.1189,1.2973,3.3176,3.3176,0,0,0,.3711,1.0186,1.8145,1.8145,0,0,0,.6579.67A1.9094,1.9094,0,0,0,776.875,344.1318Z" fill="#c6c6c6"/>
    <path d="M782.2649,337.7759h1.12v1.1626h.0559a2.0311,2.0311,0,0,1,.8191-1.0049,2.46,2.46,0,0,1,1.2949-.3257,2.7459,2.7459,0,0,1,1.218.2661,2.646,2.646,0,0,1,.931.7559,3.4777,3.4777,0,0,1,.5881,1.19,6.1613,6.1613,0,0,1,0,3.1363,3.47,3.47,0,0,1-.5881,1.19,2.646,2.646,0,0,1-.931.7559,2.7459,2.7459,0,0,1-1.218.2661,2.1876,2.1876,0,0,1-2.114-1.3306h-.0559V347.8h-1.12Zm2.9822,6.3979a1.9276,1.9276,0,0,0,1.4978-.5976,2.2361,2.2361,0,0,0,.5461-1.5694V340.769a2.2354,2.2354,0,0,0-.5461-1.5688,1.9262,1.9262,0,0,0-1.4978-.5981,2.44,2.44,0,0,0-.7212.1054,2.0163,2.0163,0,0,0-.595.2886,1.3864,1.3864,0,0,0-.3989.4429,1.1128,1.1128,0,0,0-.147.5561v2.7017a1.3019,1.3019,0,0,0,.147.626,1.4038,1.4038,0,0,0,.3989.4643,1.8117,1.8117,0,0,0,.595.2886A2.61,2.61,0,0,0,785.2471,344.1738Z" fill="#c6c6c6"/>
    <path d="M789.3208,345l2.6741-3.64-2.562-3.584h1.3159l1.834,2.688h.042l1.904-2.688h1.2461l-2.5481,3.5L795.8308,345h-1.3159l-1.876-2.8281h-.042L790.5669,345Z" fill="#c6c6c6"/>
  </g>
  <g>
    <g mask="url(#a174f3cf-fbec-4571-aa96-e5389e73c16e)">
      <rect x="72" y="198" width="64" height="64" fill="url(#bccf553e-e3ba-4fc1-bd6f-3c9fb64a7271)"/>
    </g>
    <rect x="91.5577" y="213.4716" width="27.998" height="1.4399" fill="#fff"/>
    <rect x="87.5577" y="219.4716" width="25.998" height="1.4399" fill="#fff"/>
    <rect x="91.5577" y="225.4716" width="27.998" height="1.4399" fill="#fff"/>
  </g>
  <g>
    <g mask="url(#be623196-97af-44eb-b830-27e9f91b3e13)">
      <rect x="200" y="190" width="80" height="80" fill="url(#bdf15e5b-8688-4334-9142-4d646e5de39c)"/>
    </g>
    <rect x="224.4472" y="209.3394" width="34.9976" height="1.7999" fill="#fff"/>
    <rect x="219.4472" y="216.8394" width="32.4976" height="1.7999" fill="#fff"/>
    <rect x="224.4472" y="224.3394" width="34.9976" height="1.7999" fill="#fff"/>
  </g>
  <g>
    <g mask="url(#f497dcac-4604-407f-a7b0-10e8fa41eafb)">
      <rect x="344" y="182" width="96" height="96" fill="url(#bdbb595c-7992-4c3e-a1a1-acc1d8ca8ef3)"/>
    </g>
    <rect x="373.3366" y="205.2073" width="41.9971" height="2.1599" fill="#fff"/>
    <rect x="367.3366" y="214.2073" width="38.9971" height="2.1599" fill="#fff"/>
    <rect x="373.3366" y="223.2073" width="41.9971" height="2.1599" fill="#fff"/>
  </g>
  <g>
    <g mask="url(#bfd6653b-0a25-4cdf-ace2-eefab4a6f257)">
      <rect x="504" y="166" width="128" height="128" fill="url(#b9c73f4b-11b6-41b0-93f6-4f56a74eb367)"/>
    </g>
    <rect x="543.1154" y="196.9431" width="55.9961" height="2.8799" fill="#fff"/>
    <rect x="535.1154" y="208.9431" width="51.9961" height="2.8799" fill="#fff"/>
    <rect x="543.1154" y="220.9431" width="55.9961" height="2.8799" fill="#fff"/>
  </g>
  <g>
    <g mask="url(#edc6cacf-647c-4cd3-908d-c4c533405801)">
      <rect x="696" y="150" width="160" height="160" fill="url(#aa43b752-aace-4cb7-a0b7-7366194b6018)"/>
    </g>
    <rect x="744.8942" y="188.6789" width="69.9951" height="3.5999" fill="#fff"/>
    <rect x="734.8942" y="203.6789" width="64.9951" height="3.5999" fill="#fff"/>
    <rect x="744.8942" y="218.6789" width="69.9951" height="3.5999" fill="#fff"/>
  </g>
</svg>
