<svg xmlns="http://www.w3.org/2000/svg" viewBox="0 0 288 288"><g fill="none" fill-rule="evenodd"><path fill="#FFF" d="M0 0h288v288H0z"/><path d="M236 144c0 50.81-41.19 92-92 92s-92-41.19-92-92 41.19-92 92-92 92 41.19 92 92" fill="#000"/><path d="M192.103 165.816h-22.228v-57.96c0-.654-.529-1.183-1.183-1.183h-23.509V95.899h46.92v69.917zm-24.593 13.143h-22.327v-57.96c0-.654-.529-1.183-1.183-1.183h-23.41v-10.774h46.92v69.917zm-71.613 13.143h46.92v-69.917h-46.92v69.917zm97.389-98.572H144c-.654 0-1.183.53-1.183 1.183v11.96h-23.41c-.654 0-1.183.529-1.183 1.183v11.96h-23.51c-.653 0-1.182.529-1.182 1.183v72.285c0 .658.529 1.187 1.183 1.187H144c.654 0 1.183-.53 1.183-1.187v-11.956h23.51c.653 0 1.182-.53 1.182-1.186v-11.957h23.411c.654 0 1.183-.53 1.183-1.186V94.713c0-.654-.53-1.183-1.183-1.183z" fill="#FFF"/></g></svg>