<svg xmlns="http://www.w3.org/2000/svg" xmlns:xlink="http://www.w3.org/1999/xlink" viewBox="0 0 288 288"><defs><path id="a" d="M0 211h211V0H0z"/></defs><g fill="none" fill-rule="evenodd"><path fill="#FFF" d="M0 0h288v288H0z"/><path d="M244.322 74.144c-.48 0-.9-.062-1.26-.186a2.65 2.65 0 01-.906-.51 2.096 2.096 0 01-.552-.768 2.46 2.46 0 01-.186-.96c0-.576.156-1.032.468-1.368.312-.336.72-.572 1.224-.708v-.096a2.18 2.18 0 01-1.05-.738c-.26-.34-.39-.75-.39-1.23 0-.64.232-1.15.696-1.53.464-.38 1.116-.57 1.956-.57.84 0 1.492.19 1.956.57.464.38.696.89.696 1.53 0 .48-.13.89-.39 1.23-.26.34-.61.586-1.05.738v.096c.504.136.912.372 1.224.708.312.336.468.792.468 1.368 0 .344-.062.664-.186.96a2.096 2.096 0 01-.552.768 2.65 2.65 0 01-.906.51 3.87 3.87 0 01-1.26.186zm0-.876c.584 0 1.036-.13 1.356-.39.32-.26.48-.63.48-1.11v-.252c0-.48-.16-.85-.48-1.11-.32-.26-.772-.39-1.356-.39-.584 0-1.036.13-1.356.39-.32.26-.48.63-.48 1.11v.252c0 .48.16.85.48 1.11.32.26.772.39 1.356.39zm0-4.092c.528 0 .928-.112 1.2-.336.272-.224.408-.552.408-.984v-.18c0-.432-.136-.76-.408-.984-.272-.224-.672-.336-1.2-.336-.528 0-.928.112-1.2.336-.272.224-.408.552-.408.984v.18c0 .432.136.76.408.984.272.224.672.336 1.2.336zM254.99 74h-1.212l-2.196-3.516h-.024L249.302 74h-1.092l2.76-4.224-2.688-4.152h1.212l2.1 3.336h.024l2.148-3.336h1.152l-2.688 4.08L254.99 74zm1.188 74v-.888h2.34v-6.576l-2.364 1.404-.396-.768 2.664-1.548h1.104v7.488h2.16V148h-5.508zm12.54 0h-5.496v-1.032l2.736-2.52c.392-.36.72-.742.984-1.146.264-.404.396-.81.396-1.218v-.144c0-.464-.128-.84-.384-1.128-.256-.288-.644-.432-1.164-.432-.256 0-.48.036-.672.108a1.52 1.52 0 00-.498.3c-.14.128-.256.278-.348.45a2.752 2.752 0 00-.222.558l-.9-.348c.08-.248.19-.49.33-.726a2.56 2.56 0 01.528-.63c.212-.184.468-.332.768-.444.3-.112.654-.168 1.062-.168.408 0 .772.06 1.092.18.32.12.588.288.804.504.216.216.382.472.498.768.116.296.174.624.174.984 0 .328-.046.632-.138.912-.092.28-.218.546-.378.798a4.85 4.85 0 01-.582.738c-.228.24-.474.48-.738.72l-2.256 2.028h4.404V148zm7.872 0h-1.212l-2.196-3.516h-.024L270.902 148h-1.092l2.76-4.224-2.688-4.152h1.212l2.1 3.336h.024l2.148-3.336h1.152l-2.688 4.08 2.76 4.296z" fill="#6F6F6F"/><path d="M84.393 204.607h120.214V84.393H84.393v120.214zm3.757-3.757h112.7V88.15H88.15v112.7z" fill="#DBDBDB"/><g transform="translate(39 39)"><path d="M97.968 58.123c-24.381 1.842-43.732 22.46-43.732 47.348 0 26.19 21.31 47.494 47.5 47.494 12.271 0 23.727-4.593 32.583-13.002-26.425-1.416-47.487-23.362-47.487-50.131 0-11.718 3.933-22.86 11.136-31.709m3.768 97.55c-27.681 0-50.203-22.523-50.203-50.202 0-27.409 22.208-49.92 49.504-50.183.497-.107 1.031.311 1.249.807a1.35 1.35 0 01-.245 1.467c-8.064 8.688-12.505 20.148-12.505 32.27 0 26.19 21.309 47.497 47.5 47.497.537 0 1.26.308 1.474.803.217.492.354 1.053-.013 1.45-9.492 10.224-22.892 16.09-36.76 16.09m41.33-89.092h-6.162v-6.16a1.352 1.352 0 10-2.703 0v6.16h-6.162a1.352 1.352 0 000 2.707h6.162v6.16a1.352 1.352 0 102.703 0v-6.16h6.162a1.353 1.353 0 000-2.707" fill="#000"/><path d="M120.527 81.606h-6.162v-6.16a1.352 1.352 0 10-2.703 0v6.16H105.5a1.353 1.353 0 000 2.708h6.162v6.16a1.352 1.352 0 102.703 0v-6.16h6.162c.746 0 1.351-.606 1.351-1.354 0-.748-.605-1.354-1.351-1.354m37.566 33.81h-6.161v-6.16a1.352 1.352 0 10-2.704 0v6.16h-6.161c-.747 0-1.352.606-1.352 1.354 0 .748.605 1.354 1.352 1.354h6.161v6.16a1.352 1.352 0 102.704 0v-6.16h6.161c.747 0 1.352-.606 1.352-1.354 0-.748-.605-1.354-1.352-1.354" fill="#000"/><mask id="b" fill="#fff"><use xlink:href="#a"/></mask><path fill="#F975A5" mask="url(#b)" d="M161.85 49.15h3.757v-3.757h-3.757z"/><path fill="#FFD0E2" mask="url(#b)" d="M165.607 52.907h30.053v-7.514h-30.053z"/><path fill="#F975A5" mask="url(#b)" d="M161.85 105.5h3.757v-3.757h-3.757z"/><path fill="#FFD0E2" mask="url(#b)" d="M165.607 109.257h45.08v-7.514h-45.08z"/><path d="M15.653 195.347H45.08V165.92H15.653v29.427zm0-30.053H45.08V45.706H15.653v119.588zm0-120.214H45.08V15.653H15.653V45.08zm30.053 150.267h119.588V165.92H45.706v29.427zm0-30.053h119.588V45.706H45.706v119.588zm0-120.214h119.588V15.653H45.706V45.08zm120.214 0h29.427V15.653H165.92V45.08zm22.54 120.214h6.887V45.706h-6.887v119.588zm-15.027 0h6.887V45.706h-6.887v119.588zm7.514 0h6.887V45.706h-6.887v119.588zm-15.027 0h6.887V45.706h-6.887v119.588zm0 30.053h29.427V165.92H165.92v29.427zm-150.893.626h180.946V15.027H15.027v180.946zm187.833-51.654h.627V66.681h-.626z" fill="#95C0FF" mask="url(#b)"/><path d="M105.5.626C47.672.626.626 47.673.626 105.5S47.672 210.374 105.5 210.374c57.828 0 104.874-47.047 104.874-104.874S163.328.626 105.5.626m0 210.374C47.327 211 0 163.673 0 105.5S47.327 0 105.5 0 211 47.327 211 105.5 163.673 211 105.5 211" fill="#006AFE" mask="url(#b)"/><path fill="#0062FF" mask="url(#b)" d="M165.607 52.907h3.757V49.15h-3.757zm0 56.35h3.757V105.5h-3.757zm3.757-59.907h3.756v-3.757h-3.756zm0 56.15h3.756v-3.757h-3.756zm3.756-52.593h3.757V49.15h-3.757zm0 56.35h3.757V105.5h-3.757zm3.757-59.907h3.757v-3.757h-3.757zm0 56.15h3.757v-3.757h-3.757z"/><path fill="#0062FF" mask="url(#b)" d="M180.634 52.907h3.756V49.15h-3.756zm0 56.35h3.756V105.5h-3.756zm3.756-59.907h3.757v-3.757h-3.757zm0 56.15h3.757v-3.757h-3.757zm3.757-52.593h3.757V49.15h-3.757zm0 56.35h3.757V105.5h-3.757zm3.757-59.907h3.756v-3.757h-3.756zm0 56.15h3.756v-3.757h-3.756zm3.756 3.757h3.757V105.5h-3.757zm3.757-3.757h3.757v-3.757h-3.757zm3.757 3.757h3.756V105.5h-3.756zm3.756-3.757h3.757v-3.757h-3.757z"/><path fill="#006AFE" mask="url(#b)" d="M108.63 105.07h-2.817v-2.817h-.626v2.818h-2.818v.626h2.818v2.817h.626v-2.817h2.818z"/></g></g></svg>