<svg xmlns="http://www.w3.org/2000/svg" xmlns:xlink="http://www.w3.org/1999/xlink" viewBox="0 0 288 288"><defs><path id="a" d="M0 184h184V0H0z"/></defs><g fill="none" fill-rule="evenodd"><path fill="#FFF" d="M0 0h288v288H0z"/><g transform="translate(52 52)"><path d="M184 92c0 50.81-41.19 92-92 92S0 142.81 0 92 41.19 0 92 0s92 41.19 92 92" fill="#DCDCDC"/><mask id="b" fill="#fff"><use xlink:href="#a"/></mask><path d="M13.554 170.446h156.892V13.554H13.554v156.892zm-.822.822h158.536V12.732H12.732v158.536z" fill="#006AFE" mask="url(#b)"/><path d="M39.84 144.16h104.32V39.84H39.84v104.32zm-.822.822h105.964V39.018H39.018v105.964z" fill="#006AFE" mask="url(#b)"/><path fill="#FFF" mask="url(#b)" d="M13.143 39.429h26.286V13.143H13.143z"/><path d="M13.554 39.018h25.464V13.554H13.554v25.464zm-.822.821H39.84V12.732H12.732V39.84z" fill="#006AFE" mask="url(#b)"/><path fill="#FFF" mask="url(#b)" d="M144.571 39.429h26.286V13.143h-26.286z"/><path d="M144.982 39.018h25.464V13.554h-25.464v25.464zm-.821.821h27.107V12.732H144.16V39.84z" fill="#006AFE" mask="url(#b)"/><path fill="#FFF" mask="url(#b)" d="M13.143 170.857h26.286v-26.286H13.143z"/><path d="M13.554 170.446h25.464v-25.464H13.554v25.464zm-.822.822H39.84V144.16H12.732v27.107z" fill="#006AFE" mask="url(#b)"/><path fill="#FFF" mask="url(#b)" d="M144.571 170.857h26.286v-26.286h-26.286z"/><path d="M144.982 170.446h25.464v-25.464h-25.464v25.464zm-.821.822h27.107V144.16H144.16v27.107z" fill="#006AFE" mask="url(#b)"/><path d="M121.57 89.898a1.182 1.182 0 01-1.183-1.182v-6.572a1.183 1.183 0 112.366 0v6.572c0 .653-.53 1.182-1.183 1.182m16.263-6.738c-.302 0-.604-.115-.834-.345l-4.646-4.65a1.18 1.18 0 010-1.672 1.176 1.176 0 011.669 0l4.646 4.646a1.184 1.184 0 01-.835 2.021m-32.527 0a1.184 1.184 0 01-.835-2.02l4.647-4.647a1.18 1.18 0 011.672 0 1.18 1.18 0 010 1.673l-4.649 4.65c-.23.23-.532.344-.835.344m16.264-8.773c-4.784 0-8.674-3.89-8.674-8.674 0-4.784 3.89-8.671 8.674-8.671 4.784 0 8.674 3.887 8.674 8.671 0 4.784-3.89 8.674-8.674 8.674m0-19.714c-6.089 0-11.04 4.955-11.04 11.04 0 6.088 4.951 11.043 11.04 11.043 6.088 0 11.04-4.955 11.04-11.043 0-6.085-4.952-11.04-11.04-11.04m23 12.225h-6.572a1.182 1.182 0 01-1.183-1.182c0-.658.53-1.187 1.183-1.187h6.572a1.184 1.184 0 010 2.369m-39.429 0H98.57a1.182 1.182 0 01-1.183-1.182c0-.658.529-1.187 1.183-1.187h6.571a1.184 1.184 0 010 2.369m28.046-11.618a1.184 1.184 0 01-.835-2.02L137 48.612a1.176 1.176 0 011.669 0 1.18 1.18 0 010 1.672l-4.646 4.65c-.23.23-.533.345-.835.345m-23.234.001c-.302 0-.604-.115-.834-.345l-4.65-4.65a1.18 1.18 0 010-1.672 1.18 1.18 0 011.673 0l4.646 4.646a1.184 1.184 0 01-.835 2.02m11.616-4.809a1.182 1.182 0 01-1.183-1.183v-6.571a1.183 1.183 0 112.366 0v6.571c0 .654-.53 1.183-1.183 1.183m5.694 91.608c-14.129-15.636-30.896-22.609-54.366-22.609h-26.9V117.1h26.9c24.196 0 41.505 7.219 56.12 23.395l-1.754 1.583z" fill="#000" mask="url(#b)"/><path d="M127.264 128.935c-14.129-15.636-30.896-22.609-54.366-22.609h-26.9v-2.369h26.9c24.196 0 41.505 7.22 56.12 23.395l-1.754 1.583z" fill="#000" mask="url(#b)"/><path d="M50.467 62.429a5.396 5.396 0 015.388-5.389 5.396 5.396 0 015.389 5.389 5.396 5.396 0 01-5.389 5.388 5.396 5.396 0 01-5.388-5.388m19.714 3.285a5.396 5.396 0 015.388-5.388 5.396 5.396 0 015.389 5.388 5.396 5.396 0 01-5.389 5.389 5.396 5.396 0 01-5.388-5.389m6.571 25.175V73.38c3.716-.57 6.572-3.79 6.572-7.665 0-4.278-3.48-7.754-7.755-7.754-4.274 0-7.754 3.476-7.754 7.754 0 3.874 2.855 7.094 6.572 7.666v17.463c-.5-.006-.986-.026-1.489-.026h-15.86V70.094c3.716-.572 6.571-3.792 6.571-7.665 0-4.278-3.48-7.755-7.754-7.755-4.275 0-7.754 3.477-7.754 7.755 0 3.873 2.855 7.093 6.571 7.665v20.723h-8.674v2.366h26.9c23.47 0 40.237 6.972 54.366 22.609l1.754-1.584C115.192 98.907 98.951 91.635 76.752 90.89" fill="#000" mask="url(#b)"/></g></g></svg>