<svg xmlns="http://www.w3.org/2000/svg" xmlns:xlink="http://www.w3.org/1999/xlink" viewBox="0 0 288 288"><defs><path d="M92 0C41.19 0 0 41.19 0 92s41.19 92 92 92 92-41.19 92-92S142.81 0 92 0z" id="a"/></defs><g fill="none" fill-rule="evenodd"><path fill="#FFF" d="M0 0h288v288H0z"/><path d="M236 144c0 50.81-41.19 92-92 92s-92-41.19-92-92 41.19-92 92-92 92 41.19 92 92" fill="#000"/><g transform="translate(52 52)"><mask id="b" fill="#fff"><use xlink:href="#a"/></mask><path d="M129 146H96.786V62.273c0-.945-.768-1.71-1.716-1.71H61V45h68v101zm-36 19H60.644V81.273c0-.945-.768-1.71-1.716-1.71H25V64h68v101zm-103 19h68V83h-68v101zM130.288 42H59a1.71 1.71 0 00-1.71 1.712V61.01H23.429a1.71 1.71 0 00-1.71 1.712v17.297H-12.29c-.942 0-1.709.767-1.709 1.713v104.553c0 .949.767 1.715 1.71 1.715H59c.946 0 1.712-.766 1.712-1.715V168.99h34.003c.946 0 1.713-.766 1.713-1.715V149.98h33.86c.945 0 1.712-.767 1.712-1.716V43.712c0-.946-.767-1.712-1.712-1.712z" fill="#FFF" mask="url(#b)"/></g></g></svg>