<svg xmlns="http://www.w3.org/2000/svg" viewBox="0 0 288 288"><g fill="none" fill-rule="evenodd"><path fill="#FFF" d="M0 0h288v288H0z"/><path d="M56 96v96h96V96H56zm16 80h63.998v-64H72v63.998z" fill-opacity=".5" fill="#97C1FF"/><path d="M108.013 114.717c-1.134 0-2.24.588-2.846 1.636l-6 10.394a3.285 3.285 0 001.2 4.482c.756.436 1.64.55 2.488.322a3.246 3.246 0 001.992-1.524l6-10.392a3.255 3.255 0 00.324-2.488 3.257 3.257 0 00-1.524-1.992 3.249 3.249 0 00-1.634-.438m-6.022 18.388c-.816 0-1.62-.212-2.344-.63a4.724 4.724 0 01-1.726-6.448l6-10.392a4.72 4.72 0 016.446-1.726 4.676 4.676 0 012.194 2.866 4.677 4.677 0 01-.466 3.578l-6 10.394a4.673 4.673 0 01-2.868 2.194 4.75 4.75 0 01-1.236.164m14.425 28.508c-.568 0-1.13.148-1.64.444a3.247 3.247 0 00-1.53 1.986 3.256 3.256 0 00.332 2.488 3.26 3.26 0 001.986 1.53h.002l11.59 3.104a3.26 3.26 0 002.486-.332 3.25 3.25 0 001.532-1.986 3.287 3.287 0 00-2.32-4.018l-11.592-3.104a3.288 3.288 0 00-.846-.112m11.59 11.106c-.408 0-.818-.054-1.222-.162l-11.592-3.106a4.677 4.677 0 01-2.862-2.202 4.688 4.688 0 01-.476-3.578 4.692 4.692 0 012.202-2.862 4.685 4.685 0 013.58-.476l11.59 3.106a4.725 4.725 0 013.338 5.78 4.681 4.681 0 01-2.2 2.862 4.708 4.708 0 01-2.358.638M84.014 146.33c-.288 0-.576.04-.862.115-.85.226-1.558.77-1.992 1.524l-6 10.392a3.246 3.246 0 00-.324 2.488 3.257 3.257 0 001.524 1.992 3.285 3.285 0 004.48-1.198l6-10.394a3.285 3.285 0 00-1.2-4.482 3.262 3.262 0 00-1.626-.438zm-6.022 18.39a4.69 4.69 0 01-2.352-.633 4.676 4.676 0 01-2.194-2.866 4.676 4.676 0 01.466-3.578l6-10.394a4.673 4.673 0 012.868-2.194 4.692 4.692 0 013.58.466 4.727 4.727 0 011.728 6.448l-6 10.392a4.725 4.725 0 01-4.096 2.358zm44.004-28.003c-.556 0-1.12.14-1.634.438a3.257 3.257 0 00-1.524 1.992 3.246 3.246 0 00.324 2.488l6 10.392a3.246 3.246 0 001.992 1.524 3.255 3.255 0 002.488-.322 3.285 3.285 0 001.2-4.482l-6-10.394a3.285 3.285 0 00-2.846-1.636m6.022 18.388a4.75 4.75 0 01-1.236-.164 4.673 4.673 0 01-2.868-2.194l-6-10.394a4.676 4.676 0 01-.466-3.578 4.676 4.676 0 012.194-2.866 4.722 4.722 0 016.446 1.726l6 10.392a4.724 4.724 0 01-1.726 6.448 4.673 4.673 0 01-2.344.63m-37.629-34.388c-.556 0-1.12.14-1.634.438l-10.394 6a3.254 3.254 0 00-1.522 1.992 3.262 3.262 0 002.316 4.012 3.25 3.25 0 002.486-.322l10.394-6a3.29 3.29 0 001.2-4.484 3.285 3.285 0 00-2.846-1.636m-10.372 13.996c-.412 0-.826-.054-1.236-.164a4.677 4.677 0 01-2.866-2.196 4.676 4.676 0 01-.468-3.578 4.69 4.69 0 012.194-2.866l10.394-6a4.722 4.722 0 016.446 1.726 4.726 4.726 0 01-1.726 6.448l-10.394 6a4.662 4.662 0 01-2.344.63m18.37 26.01c-.556 0-1.12.14-1.636.438l-10.392 6a3.254 3.254 0 00-1.522 1.992 3.264 3.264 0 002.314 4.012c.85.228 1.734.112 2.488-.322l10.392-6a3.288 3.288 0 001.202-4.484 3.287 3.287 0 00-2.846-1.636m-10.372 13.996c-.412 0-.826-.054-1.236-.164a4.676 4.676 0 01-2.868-2.196 4.677 4.677 0 01-.466-3.578 4.69 4.69 0 012.194-2.866l10.392-6a4.725 4.725 0 016.448 1.726 4.725 4.725 0 01-1.728 6.448l-10.392 6a4.662 4.662 0 01-2.344.63m31.605-56.002a3.287 3.287 0 00-2.846 1.636 3.288 3.288 0 001.202 4.484l10.392 6c.754.434 1.64.55 2.488.322a3.264 3.264 0 002.314-4.012 3.254 3.254 0 00-1.522-1.992l-10.392-6a3.261 3.261 0 00-1.636-.438m10.372 13.996a4.662 4.662 0 01-2.344-.63l-10.392-6a4.725 4.725 0 01-1.728-6.448 4.724 4.724 0 016.448-1.726l10.392 6a4.683 4.683 0 012.194 2.866 4.676 4.676 0 01-.466 3.578 4.676 4.676 0 01-2.868 2.196c-.41.11-.824.164-1.236.164m-32.363 8.01c-.288 0-.576.04-.862.116a3.254 3.254 0 00-1.992 1.522 3.255 3.255 0 00-.322 2.488 3.258 3.258 0 001.522 1.994l10.392 6a3.287 3.287 0 004.482-1.2 3.286 3.286 0 00-1.202-4.482l-10.392-6a3.236 3.236 0 00-1.626-.438m10.372 13.996a4.714 4.714 0 01-2.354-.63l-10.392-6a4.7 4.7 0 01-2.194-2.868 4.678 4.678 0 01.466-3.578 4.676 4.676 0 012.868-2.196 4.682 4.682 0 013.58.468l10.392 6a4.723 4.723 0 011.728 6.446 4.722 4.722 0 01-4.094 2.358" fill="#000"/><path d="M136 96v96h96V96h-96zm16 80h63.998v-64H152v63.998z" fill-opacity=".5" fill="#FFA0C2"/><path d="M187.503 159.762l.244-.1a4.698 4.698 0 002.94-4.368l.004-4.524c.004-3.686-2.834-6.834-6.326-7.018-1.872-.088-3.62.552-4.962 1.824a6.622 6.622 0 00-2.086 4.852l-.002 4.856a4.698 4.698 0 002.95 4.378l.242.1v10.22h1.44v-10.7c0-.294-.25-.596-.524-.706l-.62-.25a3.265 3.265 0 01-2.05-3.042l.004-4.856c0-1.454.58-2.804 1.636-3.806 1.056-1 2.454-1.468 3.896-1.432 2.738.144 4.964 2.646 4.962 5.58l-.002 4.524a3.266 3.266 0 01-2.044 3.034l-.692.282a.72.72 0 00-.45.668v10.704h1.44v-10.22zm-22.784 13.516h38.56V128.72h-38.56v44.558zm40 .722v-46a.72.72 0 00-.718-.72h-40a.72.72 0 00-.72.72v46c0 .398.322.72.72.72h40a.72.72 0 00.718-.72zm-18.438-37a2.283 2.283 0 01-2.28 2.28 2.283 2.283 0 01-2.282-2.28 2.283 2.283 0 012.282-2.28 2.283 2.283 0 012.28 2.28zm1.438 0c0-2.05-1.668-3.72-3.718-3.72a3.724 3.724 0 00-3.72 3.72 3.723 3.723 0 003.72 3.72 3.723 3.723 0 003.718-3.72zm-5.2-15.5l-6.518-6.518-6.44 6.44 1.018 1.02 5.422-5.424 5.5 5.502 1.018-1.02zm16.06-5.058l-1.018-1.02-5.56 5.56-5.482-5.482-1.018 1.02 6.5 6.498 6.578-6.576zm14.7 57.558h1.44v-60h-1.44v60zm-60 0h1.44v-60h-1.44v60z" fill="#000"/></g></svg>