<?xml version="1.0" encoding="utf-8"?>
<!-- Generator: Adobe Illustrator 25.2.0, SVG Export Plug-In . SVG Version: 6.00 Build 0)  -->
<svg version="1.1" id="Layer_1" xmlns="http://www.w3.org/2000/svg" xmlns:xlink="http://www.w3.org/1999/xlink" x="0px" y="0px"
	 viewBox="0 0 576 576" style="enable-background:new 0 0 576 576;" xml:space="preserve">
<style type="text/css">
	.st0{fill-rule:evenodd;clip-rule:evenodd;fill:#FFFFFF;}
	.st1{fill-rule:evenodd;clip-rule:evenodd;fill:#C9DEFF;}
	.st2{fill-rule:evenodd;clip-rule:evenodd;fill:#F4F4F4;}
	.st3{fill-rule:evenodd;clip-rule:evenodd;}
	.st4{fill-rule:evenodd;clip-rule:evenodd;fill:#171717;}
	.st5{fill:#97C1FF;}
	.st6{fill-rule:evenodd;clip-rule:evenodd;fill:#6F6F6F;}
</style>
<g id="Artboard-Copy-69">
	<rect id="Rectangle-3-Copy-55" class="st0" width="576" height="576"/>
	<g id="Group-24-Copy-2" transform="translate(16.000000, 80.000000)">
		<polygon id="Fill-1" class="st0" points="16,336 528,336 528,80 16,80 		"/>
		<path id="Fill-2" class="st1" d="M129.8,264.9h113.8V151.1H129.8V264.9z M101.3,122.7v14.2v14.2v113.8v14.2v14.2H272v-14.2v-14.2
			V151.1v-14.2v-14.2H101.3z"/>
		<path id="Fill-3" class="st2" d="M300.4,264.9h113.8V151.1H300.4V264.9z M272,122.7v14.2v14.2v113.8v14.2v14.2h170.7v-14.2v-14.2
			V151.1v-14.2v-14.2H272z"/>
		<polygon id="Fill-4" class="st0" points="129.8,264.9 243.6,264.9 243.6,151.1 129.8,151.1 		"/>
		<g id="Group-23" transform="translate(57.912889, 36.579556)">
			<path id="Fill-5" class="st3" d="M135.9,119.4c-2,0-4,1-5.1,2.9l-10.7,18.5c-1.6,2.8-0.7,6.4,2.1,8c1.3,0.8,2.9,1,4.4,0.6
				c1.5-0.4,2.8-1.4,3.5-2.7l10.7-18.5c0.8-1.3,1-2.9,0.6-4.4c-0.4-1.5-1.4-2.8-2.7-3.5C137.9,119.6,136.9,119.4,135.9,119.4
				 M125.2,152.1c-1.5,0-2.9-0.4-4.2-1.1c-4-2.3-5.4-7.5-3.1-11.5l10.7-18.5c2.3-4,7.5-5.4,11.5-3.1c1.9,1.1,3.3,2.9,3.9,5.1
				c0.6,2.2,0.3,4.4-0.8,6.4l-10.7,18.5c-1.1,1.9-2.9,3.3-5.1,3.9C126.7,152,125.9,152.1,125.2,152.1"/>
			<path id="Fill-7" class="st3" d="M150.8,202.7c-1,0-2,0.3-2.9,0.8c-1.4,0.8-2.3,2-2.7,3.5c-0.4,1.5-0.2,3.1,0.6,4.4
				c0.8,1.4,2,2.3,3.5,2.7h0l20.6,5.5c1.5,0.4,3.1,0.2,4.4-0.6c1.4-0.8,2.3-2,2.7-3.5c0.8-3.1-1-6.3-4.1-7.1l-20.6-5.5
				C151.8,202.8,151.3,202.7,150.8,202.7 M171.4,222.5c-0.7,0-1.5-0.1-2.2-0.3l-20.6-5.5c-2.2-0.6-4-2-5.1-3.9
				c-1.1-1.9-1.4-4.2-0.8-6.4c0.6-2.2,2-4,3.9-5.1c1.9-1.1,4.2-1.4,6.4-0.8l20.6,5.5c4.5,1.2,7.1,5.8,5.9,10.3c-0.6,2.2-2,4-3.9,5.1
				C174.3,222.1,172.9,222.5,171.4,222.5"/>
			<path id="Fill-9" class="st3" d="M93.2,175.6c-0.5,0-1,0.1-1.5,0.2c-1.5,0.4-2.8,1.4-3.5,2.7L77.5,197c-0.8,1.3-1,2.9-0.6,4.4
				c0.4,1.5,1.4,2.8,2.7,3.5c2.8,1.6,6.4,0.7,8-2.1l10.7-18.5c1.6-2.8,0.7-6.4-2.1-8C95.2,175.8,94.2,175.6,93.2,175.6L93.2,175.6z
				 M82.5,208.3c-1.4,0-2.9-0.4-4.2-1.1c-1.9-1.1-3.3-2.9-3.9-5.1c-0.6-2.2-0.3-4.4,0.8-6.4l10.7-18.5c1.1-1.9,2.9-3.3,5.1-3.9
				c2.2-0.6,4.4-0.3,6.4,0.8c4,2.3,5.4,7.5,3.1,11.5l-10.7,18.5C88.2,206.8,85.4,208.3,82.5,208.3L82.5,208.3z"/>
			<path id="Fill-11" class="st3" d="M160.7,158.5c-1,0-2,0.2-2.9,0.8c-1.3,0.8-2.3,2-2.7,3.5c-0.4,1.5-0.2,3.1,0.6,4.4l10.7,18.5
				c0.8,1.3,2,2.3,3.5,2.7c1.5,0.4,3.1,0.2,4.4-0.6c2.8-1.6,3.7-5.2,2.1-8l-10.7-18.5C164.7,159.5,162.8,158.5,160.7,158.5
				 M171.5,191.2c-0.7,0-1.5-0.1-2.2-0.3c-2.2-0.6-4-2-5.1-3.9l-10.7-18.5c-1.1-1.9-1.4-4.2-0.8-6.4c0.6-2.2,2-4,3.9-5.1
				c4-2.3,9.1-0.9,11.5,3.1l10.7,18.5c2.3,4,0.9,9.2-3.1,11.5C174.3,190.8,172.9,191.2,171.5,191.2"/>
			<path id="Fill-13" class="st3" d="M104.6,130c-1,0-2,0.2-2.9,0.8l-18.5,10.7c-1.3,0.8-2.3,2-2.7,3.5c-0.4,1.5-0.2,3.1,0.6,4.4
				c0.8,1.3,2,2.3,3.5,2.7c1.5,0.4,3.1,0.2,4.4-0.6l18.5-10.7c2.8-1.6,3.7-5.2,2.1-8C108.5,131.1,106.6,130,104.6,130 M86.1,154.9
				c-0.7,0-1.5-0.1-2.2-0.3c-2.2-0.6-4-2-5.1-3.9c-1.1-1.9-1.4-4.2-0.8-6.4c0.6-2.2,2-4,3.9-5.1l18.5-10.7c4-2.3,9.1-0.9,11.5,3.1
				c2.3,4,0.9,9.1-3.1,11.5l-18.5,10.7C89,154.5,87.6,154.9,86.1,154.9"/>
			<path id="Fill-15" class="st3" d="M118.8,201.1c-1,0-2,0.2-2.9,0.8l-18.5,10.7c-1.3,0.8-2.3,2-2.7,3.5c-0.4,1.5-0.2,3.1,0.6,4.4
				c0.8,1.3,2,2.3,3.5,2.7c1.5,0.4,3.1,0.2,4.4-0.6l18.5-10.7c2.8-1.6,3.7-5.2,2.1-8C122.8,202.2,120.8,201.1,118.8,201.1
				 M100.3,226c-0.7,0-1.5-0.1-2.2-0.3c-2.2-0.6-4-2-5.1-3.9c-1.1-1.9-1.4-4.2-0.8-6.4c0.6-2.2,2-4,3.9-5.1l18.5-10.7
				c4-2.3,9.1-0.9,11.5,3.1c2.3,4,0.9,9.1-3.1,11.5l-18.5,10.7C103.2,225.7,101.8,226,100.3,226"/>
			<path id="Fill-17" class="st3" d="M156.5,126.5c-2,0-4,1-5.1,2.9c-1.6,2.8-0.6,6.4,2.1,8l18.5,10.7c1.3,0.8,2.9,1,4.4,0.6
				s2.8-1.4,3.5-2.7c0.8-1.3,1-2.9,0.6-4.4c-0.4-1.5-1.4-2.8-2.7-3.5l-18.5-10.7C158.5,126.7,157.5,126.5,156.5,126.5 M175,151.4
				c-1.5,0-2.9-0.4-4.2-1.1l-18.5-10.7c-4-2.3-5.4-7.5-3.1-11.5c2.3-4,7.5-5.4,11.5-3.1l18.5,10.7c1.9,1.1,3.3,2.9,3.9,5.1
				c0.6,2.2,0.3,4.4-0.8,6.4c-1.1,1.9-2.9,3.3-5.1,3.9C176.4,151.3,175.7,151.4,175,151.4"/>
			<path id="Fill-19" class="st3" d="M117.4,165.6c-0.5,0-1,0.1-1.5,0.2c-1.5,0.4-2.8,1.4-3.5,2.7c-0.8,1.3-1,2.9-0.6,4.4
				c0.4,1.5,1.4,2.8,2.7,3.5l18.5,10.7c2.8,1.6,6.4,0.6,8-2.1c1.6-2.8,0.6-6.4-2.1-8l-18.5-10.7
				C119.4,165.9,118.4,165.6,117.4,165.6 M135.9,190.5c-1.4,0-2.9-0.4-4.2-1.1l-18.5-10.7c-1.9-1.1-3.3-2.9-3.9-5.1
				c-0.6-2.2-0.3-4.4,0.8-6.4c1.1-1.9,2.9-3.3,5.1-3.9c2.2-0.6,4.4-0.3,6.4,0.8l18.5,10.7c4,2.3,5.4,7.5,3.1,11.5
				C141.6,189,138.8,190.5,135.9,190.5"/>
			<path id="Fill-21" class="st4" d="M305.6,199.4l0.4-0.2c3.2-1.3,5.2-4.3,5.2-7.8l0-8c0-6.6-5-12.1-11.2-12.5
				c-3.3-0.2-6.4,1-8.8,3.2c-2.4,2.3-3.7,5.3-3.7,8.6l0,8.6c0,3.4,2.1,6.5,5.2,7.8l0.4,0.2v18.2h2.6v-19c0-0.5-0.4-1.1-0.9-1.3
				l-1.1-0.4c-2.2-0.9-3.6-3-3.6-5.4l0-8.6c0-2.6,1-5,2.9-6.8c1.9-1.8,4.4-2.6,6.9-2.5c4.9,0.3,8.8,4.7,8.8,9.9l0,8
				c0,2.4-1.4,4.5-3.6,5.4l-1.2,0.5c-0.5,0.2-0.8,0.7-0.8,1.2v19h2.6V199.4z M265.1,223.5h68.6v-79.2h-68.6V223.5z M336.3,224.8V143
				c0-0.7-0.6-1.3-1.3-1.3h-71.1c-0.7,0-1.3,0.6-1.3,1.3v81.8c0,0.7,0.6,1.3,1.3,1.3H335C335.7,226,336.3,225.5,336.3,224.8
				L336.3,224.8z M303.5,159c0,2.2-1.8,4.1-4.1,4.1c-2.2,0-4.1-1.8-4.1-4.1c0-2.2,1.8-4.1,4.1-4.1
				C301.7,154.9,303.5,156.7,303.5,159L303.5,159z M306,159c0-3.6-3-6.6-6.6-6.6c-3.6,0-6.6,3-6.6,6.6c0,3.6,3,6.6,6.6,6.6
				C303.1,165.6,306,162.6,306,159L306,159z M296.8,131.4l-11.6-11.6l-11.4,11.4l1.8,1.8l9.6-9.6l9.8,9.8L296.8,131.4z M325.3,122.4
				l-1.8-1.8l-9.9,9.9l-9.7-9.7l-1.8,1.8l11.6,11.6L325.3,122.4z M351.5,224.8h2.6V118.1h-2.6V224.8z M244.8,224.8h2.6V118.1h-2.6
				V224.8z"/>
		</g>
	</g>
	<path id="Combined-Shape-Copy-12" class="st5" d="M117,398h-1v-8h1l0,3.5h28l0-3.5h1v8h-1l0-3.5h-28L117,398z"/>
	<path id="_x31__x2F_4-grid-width-copy-3" class="st6" d="M118.1,430v-1.8h4.7v-13.2l-4.7,2.8l-0.8-1.5l5.3-3.1h2.2v15h4.3v1.8
		H118.1z M130.6,433.6l6.3-21.4h1.7l-6.3,21.4H130.6z M148.6,430v-3.3h-8.1v-1.8l7-11.7h3V425h2.4v1.7h-2.4v3.3H148.6z M142.4,425
		h6.2v-10.2h-0.1L142.4,425z M172.1,431.4c0,1.3-0.5,2.2-1.5,2.8s-2.5,0.9-4.5,0.9c-1.9,0-3.3-0.3-4.2-0.8c-0.8-0.5-1.3-1.3-1.3-2.3
		c0-0.7,0.2-1.2,0.5-1.6c0.4-0.4,0.8-0.7,1.4-0.8v-0.3c-0.7-0.4-1.1-0.9-1.1-1.7c0-0.6,0.2-1.1,0.6-1.4c0.4-0.3,0.9-0.6,1.5-0.7
		v-0.1c-0.7-0.4-1.3-0.9-1.7-1.5s-0.6-1.4-0.6-2.3c0-0.6,0.1-1.2,0.3-1.7c0.2-0.5,0.5-1,0.9-1.4s0.9-0.7,1.5-0.9
		c0.6-0.2,1.2-0.3,1.9-0.3c0.9,0,1.7,0.2,2.4,0.5v-0.2c0-0.5,0.1-0.9,0.3-1.2s0.6-0.5,1.1-0.5h1.8v1.7h-2.4v0.8
		c0.4,0.4,0.8,0.8,1,1.4s0.4,1.1,0.4,1.8c0,0.6-0.1,1.2-0.3,1.7c-0.2,0.5-0.5,1-0.9,1.4s-0.9,0.7-1.5,0.9c-0.6,0.2-1.2,0.3-1.9,0.3
		c-0.4,0-0.8,0-1.2-0.1c-0.4,0.1-0.8,0.3-1.1,0.5c-0.3,0.2-0.5,0.5-0.5,0.9c0,0.4,0.2,0.6,0.5,0.7c0.4,0.1,0.8,0.2,1.4,0.2h2.6
		c1.5,0,2.7,0.3,3.3,0.9C171.8,429.5,172.1,430.3,172.1,431.4z M170.3,431.5c0-0.5-0.2-0.9-0.6-1.2c-0.4-0.3-1-0.4-2-0.4h-4.1
		c-0.8,0.4-1.2,0.9-1.2,1.7c0,0.5,0.2,1,0.6,1.4c0.4,0.4,1.1,0.6,2.1,0.6h1.8c1.1,0,1.9-0.2,2.5-0.5
		C170,432.7,170.3,432.2,170.3,431.5z M166,424.3c0.8,0,1.5-0.2,1.9-0.6c0.5-0.4,0.7-1,0.7-1.8v-0.7c0-0.8-0.2-1.4-0.7-1.8
		c-0.5-0.4-1.1-0.6-1.9-0.6c-0.8,0-1.5,0.2-1.9,0.6c-0.5,0.4-0.7,1-0.7,1.8v0.7c0,0.8,0.2,1.4,0.7,1.8
		C164.6,424.1,165.2,424.3,166,424.3z M174.4,430v-12.4h1.9v2.3h0.1c0.2-0.6,0.6-1.1,1.2-1.6c0.6-0.5,1.4-0.7,2.4-0.7h0.7v1.9h-1.1
		c-1,0-1.9,0.2-2.4,0.6s-0.9,0.9-0.9,1.5v8.4H174.4z M184.1,414.7c-0.4,0-0.7-0.1-0.9-0.3c-0.2-0.2-0.3-0.5-0.3-0.8v-0.3
		c0-0.3,0.1-0.6,0.3-0.8c0.2-0.2,0.5-0.3,0.9-0.3s0.7,0.1,0.9,0.3c0.2,0.2,0.3,0.5,0.3,0.8v0.3c0,0.3-0.1,0.6-0.3,0.8
		C184.9,414.6,184.6,414.7,184.1,414.7z M183.2,417.6h1.9V430h-1.9V417.6z M197.1,428L197.1,428c-0.8,1.5-2.1,2.3-3.7,2.3
		c-0.8,0-1.5-0.2-2.1-0.5c-0.6-0.3-1.2-0.7-1.6-1.3s-0.8-1.2-1-2c-0.2-0.8-0.3-1.7-0.3-2.7s0.1-1.9,0.3-2.7c0.2-0.8,0.6-1.5,1-2
		c0.4-0.6,1-1,1.6-1.3c0.6-0.3,1.3-0.5,2.1-0.5c0.9,0,1.6,0.2,2.2,0.6c0.6,0.4,1.1,1,1.4,1.7h0.1v-7.4h1.9V430h-1.9V428z
		 M193.9,428.6c0.4,0,0.8-0.1,1.2-0.2s0.7-0.3,1-0.5c0.3-0.2,0.5-0.5,0.7-0.8s0.3-0.7,0.3-1.1v-4.6c0-0.3-0.1-0.7-0.3-0.9
		c-0.2-0.3-0.4-0.5-0.7-0.8c-0.3-0.2-0.6-0.4-1-0.5s-0.8-0.2-1.2-0.2c-1.1,0-1.9,0.3-2.6,1c-0.6,0.7-0.9,1.6-0.9,2.7v2.1
		c0,1.1,0.3,2,0.9,2.7C192,428.2,192.8,428.6,193.9,428.6z M207.5,417.6h1.9l1.3,5.4l1.3,5.4h0l1.5-5.4l1.6-5.4h1.7l1.6,5.4l1.5,5.4
		h0l1.3-5.4l1.3-5.4h1.8l-3.3,12.4h-2.4l-1.7-6l-1.1-3.8h0l-1.1,3.8l-1.7,6h-2.3L207.5,417.6z M228.2,414.7c-0.4,0-0.7-0.1-0.9-0.3
		c-0.2-0.2-0.3-0.5-0.3-0.8v-0.3c0-0.3,0.1-0.6,0.3-0.8c0.2-0.2,0.5-0.3,0.9-0.3c0.4,0,0.7,0.1,0.9,0.3c0.2,0.2,0.3,0.5,0.3,0.8v0.3
		c0,0.3-0.1,0.6-0.3,0.8C228.9,414.6,228.6,414.7,228.2,414.7z M227.2,417.6h1.9V430h-1.9V417.6z M241.1,428L241.1,428
		c-0.8,1.5-2.1,2.3-3.7,2.3c-0.8,0-1.5-0.2-2.1-0.5s-1.2-0.7-1.6-1.3c-0.4-0.6-0.8-1.2-1-2c-0.2-0.8-0.3-1.7-0.3-2.7
		s0.1-1.9,0.3-2.7c0.2-0.8,0.6-1.5,1-2c0.4-0.6,1-1,1.6-1.3c0.6-0.3,1.3-0.5,2.1-0.5c0.9,0,1.6,0.2,2.2,0.6s1.1,1,1.4,1.7h0.1v-7.4
		h1.9V430h-1.9V428z M237.9,428.6c0.4,0,0.8-0.1,1.2-0.2c0.4-0.1,0.7-0.3,1-0.5c0.3-0.2,0.5-0.5,0.7-0.8s0.3-0.7,0.3-1.1v-4.6
		c0-0.3-0.1-0.7-0.3-0.9c-0.2-0.3-0.4-0.5-0.7-0.8c-0.3-0.2-0.6-0.4-1-0.5c-0.4-0.1-0.8-0.2-1.2-0.2c-1.1,0-1.9,0.3-2.6,1
		c-0.6,0.7-0.9,1.6-0.9,2.7v2.1c0,1.1,0.3,2,0.9,2.7C236,428.2,236.8,428.6,237.9,428.6z M249.8,430c-0.7,0-1.2-0.2-1.5-0.6
		c-0.3-0.4-0.5-0.9-0.5-1.5v-8.7h-2v-1.7h1.2c0.4,0,0.7-0.1,0.9-0.3c0.2-0.2,0.2-0.5,0.2-0.9v-2.3h1.7v3.4h2.7v1.7h-2.7v9h2.5v1.7
		H249.8z M255.5,412.2h1.9v7.4h0.1c0.3-0.7,0.7-1.3,1.3-1.7c0.6-0.4,1.3-0.6,2.2-0.6c1.3,0,2.3,0.4,3,1.2c0.7,0.8,1.1,2,1.1,3.5v7.9
		h-1.9v-7.6c0-2.2-0.9-3.3-2.8-3.3c-0.4,0-0.8,0-1.1,0.1c-0.4,0.1-0.7,0.2-1,0.4c-0.3,0.2-0.5,0.4-0.7,0.7c-0.2,0.3-0.3,0.6-0.3,1
		v8.6h-1.9V412.2z"/>
</g>
</svg>
