<svg xmlns="http://www.w3.org/2000/svg" xmlns:xlink="http://www.w3.org/1999/xlink" viewBox="0 0 928 522"><defs><path id="a" d="M0 250h500V0H0z"/></defs><g fill="none" fill-rule="evenodd"><path fill="#FFF" d="M0 0h928v522H0z"/><path d="M215.017 407.5v3.5H214v-8h1.017v3.5h27.966V403H244v8h-1.017v-3.5h-27.966z" fill="#97C1FF" fill-rule="nonzero"/><path d="M214.653 430v-1.036h2.73v-7.672l-2.758 1.638-.462-.896 3.108-1.806h1.288v8.736h2.52V430h-6.426zm7.294 2.114l3.654-12.474h1.008l-3.654 12.474h-1.008zM232.433 430v-1.918h-4.718v-1.036l4.088-6.818h1.75v6.874h1.414v.98h-1.414V430h-1.12zm-3.612-2.898h3.612v-5.964h-.07l-3.542 5.964zm17.346 3.696c0 .747-.292 1.295-.875 1.645-.583.35-1.458.525-2.625.525-1.13 0-1.941-.154-2.436-.462-.495-.308-.742-.747-.742-1.316 0-.392.103-.698.308-.917.205-.22.485-.38.84-.483v-.154c-.43-.205-.644-.541-.644-1.008 0-.364.117-.642.35-.833a2.29 2.29 0 01.896-.427v-.056c-.43-.205-.763-.5-1.001-.882-.238-.383-.357-.826-.357-1.33 0-.364.065-.7.196-1.008.13-.308.315-.572.553-.791.238-.22.523-.39.854-.511a3.219 3.219 0 011.113-.182c.513 0 .97.093 1.372.28v-.126c0-.28.065-.513.196-.7.13-.187.345-.275.644-.266h1.078v.98h-1.372v.462c.261.224.464.492.609.805.145.313.217.665.217 1.057 0 .364-.065.7-.196 1.008-.13.308-.315.572-.553.791-.238.22-.525.39-.861.511a3.29 3.29 0 01-1.12.182c-.233 0-.467-.023-.7-.07a2.326 2.326 0 00-.658.287.592.592 0 00-.294.525c0 .215.103.36.308.434.205.075.471.112.798.112h1.54c.896 0 1.547.17 1.953.511.406.34.609.81.609 1.407zm-1.05.084c0-.29-.11-.52-.329-.693-.22-.173-.609-.259-1.169-.259h-2.408c-.448.205-.672.532-.672.98 0 .317.119.588.357.812.238.224.642.336 1.211.336h1.036c.625 0 1.11-.098 1.456-.294.345-.196.518-.49.518-.882zm-2.506-4.186c.476 0 .854-.114 1.134-.343.28-.229.42-.581.42-1.057v-.392c0-.476-.14-.828-.42-1.057-.28-.229-.658-.343-1.134-.343-.476 0-.854.114-1.134.343-.28.229-.42.581-.42 1.057v.392c0 .476.14.828.42 1.057.28.229.658.343 1.134.343zm4.858 3.304v-7.224h1.12v1.33h.07c.13-.345.364-.653.7-.924.336-.27.798-.406 1.386-.406h.434v1.12h-.658c-.607 0-1.08.114-1.421.343-.34.229-.511.516-.511.861v4.9h-1.12zm5.698-8.918c-.243 0-.418-.058-.525-.175a.646.646 0 01-.161-.455v-.182c0-.187.054-.338.161-.455.107-.117.282-.175.525-.175.243 0 .418.058.525.175a.646.646 0 01.161.455v.182a.646.646 0 01-.161.455c-.107.117-.282.175-.525.175zm-.56 1.694h1.12V430h-1.12v-7.224zm8.12 6.048h-.056c-.439.896-1.143 1.344-2.114 1.344-.448 0-.854-.089-1.218-.266a2.646 2.646 0 01-.931-.756 3.465 3.465 0 01-.588-1.19 5.625 5.625 0 01-.203-1.568c0-.579.068-1.101.203-1.568.135-.467.331-.863.588-1.19.257-.327.567-.579.931-.756.364-.177.77-.266 1.218-.266.504 0 .936.11 1.295.329.36.22.632.558.819 1.015h.056v-4.312h1.12V430h-1.12v-1.176zm-1.862.336c.252 0 .492-.033.721-.098a1.81 1.81 0 00.595-.287c.168-.126.301-.28.399-.462.098-.182.147-.39.147-.623v-2.688c0-.196-.049-.38-.147-.553a1.381 1.381 0 00-.399-.441 2.015 2.015 0 00-.595-.287 2.45 2.45 0 00-.721-.105c-.635 0-1.134.198-1.498.595-.364.397-.546.917-.546 1.561v1.232c0 .644.182 1.164.546 1.561.364.397.863.595 1.498.595zm7.91-6.384h1.092l.77 3.122.77 3.164h.028l.882-3.164.91-3.122h.994l.938 3.122.896 3.164h.028l.742-3.164.784-3.122h1.05L274.741 430h-1.386l-1.008-3.472-.63-2.198h-.028l-.616 2.198-1.008 3.472h-1.358l-1.932-7.224zm12.068-1.694c-.243 0-.418-.058-.525-.175a.646.646 0 01-.161-.455v-.182c0-.187.054-.338.161-.455.107-.117.282-.175.525-.175.243 0 .418.058.525.175a.646.646 0 01.161.455v.182a.646.646 0 01-.161.455c-.107.117-.282.175-.525.175zm-.56 1.694h1.12V430h-1.12v-7.224zm8.12 6.048h-.056c-.439.896-1.143 1.344-2.114 1.344-.448 0-.854-.089-1.218-.266a2.646 2.646 0 01-.931-.756 3.465 3.465 0 01-.588-1.19 5.625 5.625 0 01-.203-1.568c0-.579.068-1.101.203-1.568.135-.467.331-.863.588-1.19.257-.327.567-.579.931-.756.364-.177.77-.266 1.218-.266.504 0 .936.11 1.295.329.36.22.632.558.819 1.015h.056v-4.312h1.12V430h-1.12v-1.176zm-1.862.336c.252 0 .492-.033.721-.098a1.81 1.81 0 00.595-.287c.168-.126.301-.28.399-.462.098-.182.147-.39.147-.623v-2.688c0-.196-.049-.38-.147-.553a1.381 1.381 0 00-.399-.441 2.015 2.015 0 00-.595-.287 2.45 2.45 0 00-.721-.105c-.635 0-1.134.198-1.498.595-.364.397-.546.917-.546 1.561v1.232c0 .644.182 1.164.546 1.561.364.397.863.595 1.498.595zm6.958.84c-.392 0-.688-.11-.889-.329-.2-.22-.301-.506-.301-.861v-5.054h-1.19v-.98h.672c.243 0 .408-.049.497-.147.089-.098.133-.268.133-.511v-1.344h1.008v2.002h1.582v.98h-1.582v5.264h1.47v.98h-1.4zm3.318-10.36h1.12v4.312h.056c.177-.41.427-.737.749-.98s.754-.364 1.295-.364c.747 0 1.337.24 1.771.721.434.48.651 1.16.651 2.037V430h-1.12v-4.438c0-1.297-.546-1.946-1.638-1.946-.224 0-.441.028-.651.084-.21.056-.399.14-.567.252a1.247 1.247 0 00-.399.427 1.213 1.213 0 00-.147.609V430h-1.12v-10.36z" fill="#6F6F6F"/><path fill="#FFF" d="M214 386h500V136H214z"/><g transform="translate(214 136)"><path d="M222.222 125c0 53.694-43.528 97.222-97.222 97.222-53.694 0-97.222-43.528-97.222-97.222 0-53.694 43.528-97.222 97.222-97.222 53.694 0 97.222 43.528 97.222 97.222" fill="#000"/><path d="M131.982 74.157c-.5 0-1 .069-1.497.198a5.657 5.657 0 00-3.461 2.649L116.61 95.045a5.7 5.7 0 002.084 7.778 5.696 5.696 0 007.778-2.083l10.416-18.045a5.664 5.664 0 00.563-4.32 5.676 5.676 0 00-5.47-4.218zm-10.455 31.93a8.11 8.11 0 01-4.083-1.1c-3.913-2.257-5.26-7.275-3-11.192L124.86 75.75a8.137 8.137 0 014.98-3.809 8.146 8.146 0 016.215.813 8.115 8.115 0 013.809 4.979 8.147 8.147 0 01-.81 6.215l-10.416 18.042a8.207 8.207 0 01-7.11 4.097zm25.03 49.488c-.99 0-1.965.26-2.847.771a5.623 5.623 0 00-2.656 3.452 5.64 5.64 0 00.576 4.312 5.643 5.643 0 003.448 2.66l20.125 5.389a5.6 5.6 0 004.316-.577 5.616 5.616 0 002.656-3.448 5.703 5.703 0 00-4.024-6.975l-20.125-5.39a5.748 5.748 0 00-1.469-.194m20.115 19.282c-.698 0-1.41-.094-2.118-.282l-20.122-5.392a8.12 8.12 0 01-4.968-3.823 8.146 8.146 0 01-.827-6.215 8.128 8.128 0 013.823-4.962 8.116 8.116 0 016.212-.83l20.125 5.392a8.126 8.126 0 014.969 3.827 8.137 8.137 0 01.826 6.212c-.98 3.652-4.302 6.073-7.92 6.073M90.288 129.04a5.69 5.69 0 00-4.941 2.851L74.93 149.93a5.647 5.647 0 00-.562 4.319 5.666 5.666 0 002.646 3.458c2.722 1.57 6.211.64 7.777-2.083l10.417-18.045a5.701 5.701 0 00-2.083-7.778 5.676 5.676 0 00-2.837-.76zm-10.441 31.931a8.15 8.15 0 01-4.083-1.097 8.125 8.125 0 01-3.81-4.98 8.114 8.114 0 01.813-6.214l10.417-18.046c2.257-3.913 7.274-5.26 11.19-2.996 3.914 2.257 5.258 7.285 3 11.198l-10.416 18.038a8.207 8.207 0 01-7.111 4.097zm76.383-48.619a5.63 5.63 0 00-2.823.76 5.654 5.654 0 00-2.646 3.459 5.661 5.661 0 00.559 4.32l10.42 18.04a5.644 5.644 0 003.458 2.647 5.663 5.663 0 006.965-4.017 5.647 5.647 0 00-.562-4.32l-10.417-18.045a5.654 5.654 0 00-3.458-2.646 5.966 5.966 0 00-1.496-.198m10.468 31.924c-.715 0-1.437-.09-2.149-.282a8.14 8.14 0 01-4.976-3.809l-10.416-18.045a8.144 8.144 0 01-.813-6.215 8.135 8.135 0 013.813-4.976 8.132 8.132 0 016.215-.816 8.152 8.152 0 014.979 3.813l10.413 18.042a8.116 8.116 0 01.813 6.215 8.125 8.125 0 01-3.81 4.979 8.113 8.113 0 01-4.069 1.094m-65.342-59.702a5.62 5.62 0 00-2.823.76L80.49 95.752a5.651 5.651 0 00-2.646 3.459 5.646 5.646 0 00.56 4.32 5.651 5.651 0 003.461 2.645 5.676 5.676 0 004.316-.559l18.045-10.42a5.63 5.63 0 002.642-3.459 5.652 5.652 0 00-.559-4.319 5.654 5.654 0 00-3.458-2.646 5.966 5.966 0 00-1.496-.198m-17.993 24.299a8.266 8.266 0 01-2.146-.285 8.127 8.127 0 01-4.976-3.809 8.144 8.144 0 01-.813-6.215 8.13 8.13 0 013.81-4.976l18.045-10.416a8.11 8.11 0 016.215-.816 8.145 8.145 0 014.976 3.812 8.14 8.14 0 01.812 6.219 8.153 8.153 0 01-3.809 4.979L87.434 107.78a8.116 8.116 0 01-4.073 1.094m31.879 45.156a5.62 5.62 0 00-2.823.76l-18.042 10.42a5.626 5.626 0 00-2.646 3.458 5.629 5.629 0 00.563 4.316 5.653 5.653 0 003.458 2.65 5.656 5.656 0 004.316-.563l18.045-10.417a5.67 5.67 0 002.646-3.462 5.649 5.649 0 00-.563-4.32 5.636 5.636 0 00-3.458-2.641 5.669 5.669 0 00-1.496-.202m-18.007 24.302a8.206 8.206 0 01-7.108-4.097 8.153 8.153 0 01-.813-6.219 8.15 8.15 0 013.81-4.975l18.045-10.414a8.12 8.12 0 016.215-.812 8.134 8.134 0 014.98 3.809 8.13 8.13 0 01.808 6.215 8.134 8.134 0 01-3.809 4.98l-18.042 10.416a8.153 8.153 0 01-4.086 1.097m54.901-97.229c-.5 0-1 .07-1.497.198a5.654 5.654 0 00-3.458 2.646 5.652 5.652 0 00-.56 4.32 5.63 5.63 0 002.643 3.458l18.045 10.416a5.658 5.658 0 004.316.563 5.635 5.635 0 003.459-2.646c.76-1.31.958-2.84.562-4.32a5.651 5.651 0 00-2.646-3.458l-18.041-10.416a5.628 5.628 0 00-2.823-.76m17.993 24.298a8.116 8.116 0 01-4.073-1.094L148.012 93.89a8.137 8.137 0 01-3.809-4.975 8.154 8.154 0 01.81-6.22 8.161 8.161 0 014.978-3.812 8.159 8.159 0 016.216.816l18.045 10.417a8.13 8.13 0 013.809 4.976 8.144 8.144 0 01-.813 6.215 8.127 8.127 0 01-4.975 3.809 8.266 8.266 0 01-2.146.285m-56.202 13.906a5.699 5.699 0 00-4.94 2.844 5.704 5.704 0 002.083 7.78l18.045 10.418a5.705 5.705 0 004.316.562 5.653 5.653 0 003.458-2.65 5.629 5.629 0 00.563-4.315 5.64 5.64 0 00-2.646-3.462l-18.042-10.413a5.61 5.61 0 00-2.837-.764m18.018 24.302a8.181 8.181 0 01-4.084-1.094l-18.041-10.42c-3.913-2.26-5.257-7.281-3-11.194 2.26-3.91 7.281-5.257 11.194-3l18.045 10.416a8.159 8.159 0 013.81 4.98 8.144 8.144 0 01-.813 6.215 8.207 8.207 0 01-7.111 4.097" fill="#FFF"/><mask id="b" fill="#fff"><use xlink:href="#a"/></mask><path d="M27.778 222.222h194.444V27.778H27.778v194.444zM0 0v250h250V0H0z" fill="#C9DEFF" mask="url(#b)"/><path d="M277.778 222.222h194.444V27.778H277.778v194.444zM250 0v250h250V0H250z" fill="#F3F3F3" mask="url(#b)"/><path d="M375 222.222c-53.608 0-97.222-43.618-97.222-97.222 0-53.604 43.614-97.222 97.222-97.222S472.222 71.396 472.222 125c0 53.604-43.614 97.222-97.222 97.222" fill="#000" mask="url(#b)"/><path d="M381.082 152.364l.423-.173a8.157 8.157 0 005.104-7.584l.007-7.854c.007-6.4-4.92-11.864-10.982-12.184-3.25-.153-6.285.958-8.615 3.167a11.496 11.496 0 00-3.621 8.423l-.004 8.43a8.156 8.156 0 005.122 7.602l.42.173v17.743h2.5v-18.576c0-.51-.434-1.035-.91-1.226l-1.076-.434a5.668 5.668 0 01-3.56-5.281l.008-8.43a9.02 9.02 0 012.84-6.608c1.833-1.736 4.26-2.549 6.764-2.486 4.753.25 8.618 4.593 8.614 9.687l-.003 7.854a5.67 5.67 0 01-3.549 5.268l-1.201.49a1.25 1.25 0 00-.781 1.159v18.583h2.5v-17.743zm-39.556 23.466h66.944V98.472h-66.944v77.358zm69.444 1.253V97.222c0-.691-.559-1.25-1.246-1.25H340.28a1.25 1.25 0 00-1.25 1.25v79.861c0 .691.559 1.25 1.25 1.25h69.444c.687 0 1.246-.559 1.246-1.25zm-32.01-64.236a3.963 3.963 0 01-3.958 3.958 3.964 3.964 0 01-3.962-3.958 3.964 3.964 0 013.962-3.958 3.963 3.963 0 013.958 3.958zm2.497 0c0-3.56-2.896-6.458-6.455-6.458a6.466 6.466 0 00-6.459 6.458 6.464 6.464 0 006.459 6.458 6.463 6.463 0 006.455-6.458zm-9.028-26.91l-11.316-11.316-11.18 11.18 1.767 1.772 9.413-9.417 9.548 9.552 1.768-1.77zm27.882-8.781l-1.768-1.77-9.652 9.652-9.518-9.518-1.767 1.771 11.285 11.282 11.42-11.417zm25.52 99.927h2.5V72.916h-2.5v104.167zm-104.166 0h2.5V72.916h-2.5v104.167z" fill="#FFF" mask="url(#b)"/></g></g></svg>