<svg xmlns="http://www.w3.org/2000/svg" xmlns:xlink="http://www.w3.org/1999/xlink" viewBox="0 0 288 288"><defs><path id="a" d="M0 128h256V0H0z"/></defs><g fill="none" fill-rule="evenodd"><path fill="#FFF" d="M0 0h288v288H0z"/><path fill="#FFF" d="M16 208h256V80H16z"/><path fill="#C9DEFF" d="M30.222 200.889H144V87.11H30.222z"/><path fill="#F3F3F3" d="M144 200.889h113.778V87.11H144z"/><path fill="#000" d="M158.222 186.667h85.334v-85.334h-85.334z"/><g transform="translate(16 80)"><path d="M210.916 58.667A2.92 2.92 0 01208 61.582a2.92 2.92 0 01-2.915-2.915V48a.64.64 0 10-1.28 0v10.667a2.92 2.92 0 01-2.916 2.915 2.92 2.92 0 01-2.915-2.915V48a.64.64 0 10-1.28 0v10.667a2.92 2.92 0 01-2.916 2.915 2.92 2.92 0 01-2.916-2.915V48a.64.64 0 10-1.28 0v21.333a2.92 2.92 0 01-2.915 2.916 2.92 2.92 0 01-2.916-2.916V42.738c0-2.628 2.157-4.765 4.806-4.765h17.552c2.65 0 4.807 2.137 4.807 4.765v15.929zM182.47 56.17l-.147.272a3.162 3.162 0 01-4.292 1.141 3.104 3.104 0 01-1.463-1.893 3.073 3.073 0 01.313-2.354l5.59-9.653V56.17zm23.638-19.478h-17.552c-2.233 0-4.17 1.215-5.229 3.001-.026.032-.06.055-.082.094l-7.472 12.907a4.333 4.333 0 00-.44 3.328 4.37 4.37 0 002.064 2.672 4.415 4.415 0 002.193.583c1.051 0 2.068-.398 2.88-1.091V69.37c0 .014.007.025.007.039a4.197 4.197 0 004.189 4.119 4.2 4.2 0 004.195-4.196v-7.66a4.17 4.17 0 002.916 1.19 4.184 4.184 0 003.556-1.995 4.181 4.181 0 003.555 1.994 4.184 4.184 0 003.556-1.994A4.181 4.181 0 00208 62.862a4.2 4.2 0 004.196-4.195v-15.93c0-3.333-2.73-6.044-6.087-6.044zM171.186 84.39h-8.15l-4.074-7.057 4.074-7.056h7.41l-2.556 4.428 1.11.638 2.556-4.426 3.704 6.416-4.074 7.058zm1.11-14.755l2.925-5.068-1.109-.64-2.926 5.068h-8.52a.64.64 0 00-.554.322l-4.444 7.698a.64.64 0 000 .638l4.26 7.378-2.483 4.298 1.11.64 2.48-4.297h8.52a.645.645 0 00.555-.321l4.445-7.698a.64.64 0 000-.638l-4.26-7.38z" fill="#FFF"/><mask id="b" fill="#fff"><use xlink:href="#a"/></mask><path fill="#000" mask="url(#b)" d="M28.444 106.667h85.334V21.333H28.444z"/><path d="M97.139 61.61H85.102l12.037-12.038V61.61zm0 14.222H85.102l12.037-12.038v12.038zm0 14.222H85.102l12.037-12.037v12.037zm-12.942-12.94h12.035L84.197 89.148V77.113zm0-14.223h12.035L84.197 74.927V62.89zm-1.28 12.94H70.879l12.038-12.037v12.038zm0 14.223H70.879l12.038-12.037v12.037zm-12.943-12.94H82.01L69.974 89.148V77.113zm-1.28 12.94H56.657l12.037-12.037v12.037zm29.33-42.619a.657.657 0 00-.698.139L83.103 61.796 68.881 76.018 54.66 90.241a.64.64 0 00.453 1.095H97.78a.64.64 0 00.64-.642V48.027a.644.644 0 00-.395-.592zm-51.119 10.94c-.14-.244-.256-.494-.38-.743l7.588 4.38.641-1.107-9.025-5.211c-1.257-3.954-.601-8.226 1.63-11.604v8.754h1.28V42.426a13.59 13.59 0 013.237-2.606 13.487 13.487 0 017.637-1.781l-7.601 4.387.64 1.108 9.004-5.196c3.607.785 6.887 3.013 8.873 6.453.142.245.26.498.386.747l-7.586-4.38-.64 1.108 9.02 5.21c.783 2.45.86 5.078.178 7.622a13.568 13.568 0 01-1.81 3.995V50.33h-1.28v10.413a13.729 13.729 0 01-3.239 2.604 13.474 13.474 0 01-7.66 1.798l7.627-4.404-.64-1.107-9.014 5.203c-.206-.046-.414-.078-.618-.133a13.494 13.494 0 01-8.248-6.33m11.787 8.08c2.576 0 5.117-.676 7.406-2a14.754 14.754 0 006.925-9.023 14.75 14.75 0 00-1.485-11.278c-4.097-7.097-13.203-9.542-20.302-5.44a14.764 14.764 0 00-6.924 9.025 14.761 14.761 0 001.484 11.275 14.759 14.759 0 009.026 6.926c1.28.343 2.58.514 3.87.514" fill="#FFF" mask="url(#b)"/></g><path d="M30.508 211.25V213H30v-4h.508v1.75h13.984V209H45v4h-.508v-1.75H30.508z" fill="#97C1FF" fill-rule="nonzero"/><path d="M31.056 229v-.888h2.34v-6.576l-2.364 1.404-.396-.768 2.664-1.548h1.104v7.488h2.16V229h-5.508zm6.252 1.812l3.132-10.692h.864l-3.132 10.692h-.864zM46.296 229v-1.644h-4.044v-.888l3.504-5.844h1.5v5.892h1.212v.84h-1.212V229h-.96zm-3.096-2.484h3.096v-5.112h-.06l-3.036 5.112zm14.868 3.168c0 .64-.25 1.11-.75 1.41-.5.3-1.25.45-2.25.45-.968 0-1.664-.132-2.088-.396-.424-.264-.636-.64-.636-1.128 0-.336.088-.598.264-.786.176-.188.416-.326.72-.414v-.132c-.368-.176-.552-.464-.552-.864 0-.312.1-.55.3-.714.2-.164.456-.286.768-.366v-.048a2 2 0 01-.858-.756 2.114 2.114 0 01-.306-1.14c0-.312.056-.6.168-.864.112-.264.27-.49.474-.678.204-.188.448-.334.732-.438.284-.104.602-.156.954-.156.44 0 .832.08 1.176.24v-.108c0-.24.056-.44.168-.6.112-.16.296-.236.552-.228h.924v.84h-1.176v.396c.224.192.398.422.522.69.124.268.186.57.186.906 0 .312-.056.6-.168.864a1.94 1.94 0 01-.474.678c-.204.188-.45.334-.738.438a3.053 3.053 0 01-1.56.096 1.994 1.994 0 00-.564.246.508.508 0 00-.252.45c0 .184.088.308.264.372.176.064.404.096.684.096h1.32c.768 0 1.326.146 1.674.438.348.292.522.694.522 1.206zm-.9.072a.717.717 0 00-.282-.594c-.188-.148-.522-.222-1.002-.222H53.82c-.384.176-.576.456-.576.84 0 .272.102.504.306.696.204.192.55.288 1.038.288h.888c.536 0 .952-.084 1.248-.252a.817.817 0 00.444-.756zm-2.148-3.588c.408 0 .732-.098.972-.294.24-.196.36-.498.36-.906v-.336c0-.408-.12-.71-.36-.906-.24-.196-.564-.294-.972-.294-.408 0-.732.098-.972.294-.24.196-.36.498-.36.906v.336c0 .408.12.71.36.906.24.196.564.294.972.294zM59.184 229v-6.192h.96v1.14h.06a1.87 1.87 0 01.6-.792c.288-.232.684-.348 1.188-.348h.372v.96H61.8c-.52 0-.926.098-1.218.294-.292.196-.438.442-.438.738v4.2h-.96zm4.884-7.644c-.208 0-.358-.05-.45-.15a.553.553 0 01-.138-.39v-.156c0-.16.046-.29.138-.39.092-.1.242-.15.45-.15.208 0 .358.05.45.15.092.1.138.23.138.39v.156c0 .16-.046.29-.138.39-.092.1-.242.15-.45.15zm-.48 1.452h.96V229h-.96v-6.192zm6.96 5.184H70.5c-.376.768-.98 1.152-1.812 1.152-.384 0-.732-.076-1.044-.228a2.268 2.268 0 01-.798-.648 2.97 2.97 0 01-.504-1.02 4.821 4.821 0 01-.174-1.344c0-.496.058-.944.174-1.344.116-.4.284-.74.504-1.02.22-.28.486-.496.798-.648.312-.152.66-.228 1.044-.228.432 0 .802.094 1.11.282.308.188.542.478.702.87h.048v-3.696h.96V229h-.96v-1.008zm-1.596.288c.216 0 .422-.028.618-.084a1.55 1.55 0 00.51-.246c.144-.108.258-.24.342-.396.084-.156.126-.334.126-.534v-2.304a.945.945 0 00-.126-.474 1.184 1.184 0 00-.342-.378 1.727 1.727 0 00-.51-.246 2.1 2.1 0 00-.618-.09c-.544 0-.972.17-1.284.51-.312.34-.468.786-.468 1.338v1.056c0 .552.156.998.468 1.338.312.34.74.51 1.284.51zm6.78-5.472h.936l.66 2.676.66 2.712h.024l.756-2.712.78-2.676h.852l.804 2.676.768 2.712h.024l.636-2.712.672-2.676h.9L82.56 229h-1.188l-.864-2.976-.54-1.884h-.024l-.528 1.884-.864 2.976h-1.164l-1.656-6.192zm10.344-1.452c-.208 0-.358-.05-.45-.15a.553.553 0 01-.138-.39v-.156c0-.16.046-.29.138-.39.092-.1.242-.15.45-.15.208 0 .358.05.45.15.092.1.138.23.138.39v.156c0 .16-.046.29-.138.39-.092.1-.242.15-.45.15zm-.48 1.452h.96V229h-.96v-6.192zm6.96 5.184h-.048c-.376.768-.98 1.152-1.812 1.152-.384 0-.732-.076-1.044-.228a2.268 2.268 0 01-.798-.648 2.97 2.97 0 01-.504-1.02 4.821 4.821 0 01-.174-1.344c0-.496.058-.944.174-1.344.116-.4.284-.74.504-1.02.22-.28.486-.496.798-.648.312-.152.66-.228 1.044-.228.432 0 .802.094 1.11.282.308.188.542.478.702.87h.048v-3.696h.96V229h-.96v-1.008zm-1.596.288c.216 0 .422-.028.618-.084a1.55 1.55 0 00.51-.246c.144-.108.258-.24.342-.396.084-.156.126-.334.126-.534v-2.304a.945.945 0 00-.126-.474 1.184 1.184 0 00-.342-.378 1.727 1.727 0 00-.51-.246 2.1 2.1 0 00-.618-.09c-.544 0-.972.17-1.284.51-.312.34-.468.786-.468 1.338v1.056c0 .552.156.998.468 1.338.312.34.74.51 1.284.51zm5.964.72c-.336 0-.59-.094-.762-.282-.172-.188-.258-.434-.258-.738v-4.332h-1.02v-.84h.576c.208 0 .35-.042.426-.126.076-.084.114-.23.114-.438v-1.152h.864v1.716h1.356v.84h-1.356v4.512h1.26v.84h-1.2zm2.844-8.88h.96v3.696h.048c.152-.352.366-.632.642-.84.276-.208.646-.312 1.11-.312.64 0 1.146.206 1.518.618.372.412.558.994.558 1.746V229h-.96v-3.804c0-1.112-.468-1.668-1.404-1.668-.192 0-.378.024-.558.072-.18.048-.342.12-.486.216a1.069 1.069 0 00-.342.366 1.04 1.04 0 00-.126.522V229h-.96v-8.88z" fill="#6F6F6F"/></g></svg>