<svg id="a8558e70-94c8-4e4f-ae20-bf350f732cc4" data-name="Layer 1" xmlns="http://www.w3.org/2000/svg" xmlns:xlink="http://www.w3.org/1999/xlink" viewBox="0 0 288 288">
  <defs>
    <linearGradient id="a57b0db1-0fc4-44a9-bdd4-7b776efd7ad9" x1="67.288" y1="83.378" x2="220.713" y2="83.378" gradientUnits="userSpaceOnUse">
      <stop offset="0.1" stop-color="#a8a8a8"/>
      <stop offset="0.204" stop-color="#9f9f9f"/>
      <stop offset="0.373" stop-color="#878787"/>
      <stop offset="0.587" stop-color="#5f5f5f"/>
      <stop offset="0.835" stop-color="#282828"/>
      <stop offset="1"/>
    </linearGradient>
    <linearGradient id="bd17cb6b-d4c0-4fd6-89c4-1e50d4e2084d" x1="49.151" y1="110.575" x2="126.754" y2="244.987" gradientUnits="userSpaceOnUse">
      <stop offset="0.1" stop-color="#a8a8a8"/>
      <stop offset="0.9" stop-color="#fff"/>
    </linearGradient>
    <mask id="ac0d15af-cc03-4a5d-9dd9-2ed6836dfbcf" x="52" y="52.001" width="183.999" height="183.999" maskUnits="userSpaceOnUse">
      <g>
        <polyline points="69.251 103.75 144 63.5 218.75 103.75" fill="none" stroke-linejoin="round" stroke-width="8.28" stroke="url(#a57b0db1-0fc4-44a9-bdd4-7b776efd7ad9)"/>
        <polyline points="144 230.249 218.75 189.999 218.75 103.75" fill="none" stroke="#fff" stroke-linejoin="round" stroke-width="8.28"/>
        <polyline points="69.252 103.75 69.251 189.999 144 230.249" fill="none" stroke-linecap="round" stroke-linejoin="round" stroke-width="8.28" stroke="url(#bd17cb6b-d4c0-4fd6-89c4-1e50d4e2084d)"/>
        <circle cx="144" cy="63.5" r="5.75"/>
        <circle cx="69.251" cy="103.75" r="5.75"/>
        <circle cx="103.751" cy="85.063" r="5.75"/>
        <circle cx="184.25" cy="85.063" r="5.75"/>
        <circle cx="218.75" cy="103.75" r="5.75"/>
      </g>
    </mask>
    <linearGradient id="f423e834-7b95-4a5a-8a08-3735053cb921" x1="-3213" y1="783" x2="-3029.001" y2="599.001" gradientTransform="matrix(1, 0, 0, -1, 3265, 835.001)" gradientUnits="userSpaceOnUse">
      <stop offset="0.1" stop-color="#3ddbd9"/>
      <stop offset="0.9" stop-color="#4589ff"/>
    </linearGradient>
    <mask id="a736ed0c-9c9f-45d5-9c62-a9e2cb04ac04" x="52.001" y="52" width="183.999" height="183.999" maskUnits="userSpaceOnUse">
      <g>
        <line x1="103.751" y1="126.75" x2="103.751" y2="208.576" fill="none" stroke="#fff" stroke-linejoin="round" stroke-width="4.14"/>
        <line x1="184.25" y1="126.75" x2="184.25" y2="208.576" fill="none" stroke="#fff" stroke-linejoin="round" stroke-width="4.14"/>
        <circle cx="144" cy="63.5" r="5.75" fill="none" stroke="#fff" stroke-linejoin="round" stroke-width="4.14"/>
        <circle cx="144" cy="144" r="5.75" fill="none" stroke="#fff" stroke-linejoin="round" stroke-width="4.14"/>
        <circle cx="144" cy="103.75" r="5.75" fill="none" stroke="#fff" stroke-linejoin="round" stroke-width="4.14"/>
        <circle cx="69.251" cy="103.75" r="5.75" fill="none" stroke="#fff" stroke-linejoin="round" stroke-width="4.14"/>
        <circle cx="103.751" cy="85.063" r="5.75" fill="none" stroke="#fff" stroke-linejoin="round" stroke-width="4.14"/>
        <circle cx="184.25" cy="85.063" r="5.75" fill="none" stroke="#fff" stroke-linejoin="round" stroke-width="4.14"/>
        <circle cx="103.751" cy="121" r="5.75" fill="none" stroke="#fff" stroke-linejoin="round" stroke-width="4.14"/>
        <circle cx="184.25" cy="121" r="5.75" fill="none" stroke="#fff" stroke-linejoin="round" stroke-width="4.14"/>
        <circle cx="218.75" cy="103.75" r="5.75" fill="none" stroke="#fff" stroke-linejoin="round" stroke-width="4.14"/>
        <line x1="103.751" y1="90.813" x2="103.751" y2="115.25" fill="none" stroke="#fff" stroke-linejoin="round" stroke-width="4.14"/>
        <line x1="184.25" y1="90.813" x2="184.25" y2="115.25" fill="none" stroke="#fff" stroke-linejoin="round" stroke-width="4.14"/>
        <line x1="144" y1="230.249" x2="144" y2="149.75" fill="none" stroke="#fff" stroke-linejoin="round" stroke-width="4.14"/>
        <line x1="144" y1="138.25" x2="144" y2="109.5" fill="none" stroke="#fff" stroke-linejoin="round" stroke-width="4.14"/>
        <line x1="144" y1="98" x2="144" y2="69.25" fill="none" stroke="#fff" stroke-linejoin="round" stroke-width="4.14"/>
        <polyline points="69.251 189.999 144 230.249 218.75 189.999" fill="none" stroke="#000" stroke-linejoin="round" stroke-width="8.28"/>
      </g>
    </mask>
  </defs>
  <rect width="288" height="288" fill="#121619"/>
  <g>
    <g mask="url(#ac0d15af-cc03-4a5d-9dd9-2ed6836dfbcf)">
      <rect id="a9e194a1-d486-4b6c-a756-846901759afc" data-name="hexagon" x="52" y="52.001" width="183.999" height="183.999" transform="translate(-0.001 288) rotate(-90)" fill="url(#f423e834-7b95-4a5a-8a08-3735053cb921)"/>
    </g>
    <g mask="url(#a736ed0c-9c9f-45d5-9c62-a9e2cb04ac04)">
      <rect x="52.001" y="52" width="183.999" height="183.999" fill="#fff"/>
    </g>
  </g>
</svg>
