<svg id="b6556dd2-7e79-465e-9e81-0dc1d136ad4e" data-name="Layer 1" xmlns="http://www.w3.org/2000/svg" xmlns:xlink="http://www.w3.org/1999/xlink" viewBox="0 0 288 288">
  <defs>
    <linearGradient id="ab0aad47-3eee-446d-acfa-45ce53efb541" x1="67.288" y1="83.378" x2="220.713" y2="83.378" gradientUnits="userSpaceOnUse">
      <stop offset="0.1" stop-color="#a8a8a8"/>
      <stop offset="0.204" stop-color="#9f9f9f"/>
      <stop offset="0.373" stop-color="#878787"/>
      <stop offset="0.587" stop-color="#5f5f5f"/>
      <stop offset="0.835" stop-color="#282828"/>
      <stop offset="1"/>
    </linearGradient>
    <linearGradient id="b286f339-4f3f-4c69-b654-a83f489af010" x1="49.151" y1="110.575" x2="126.754" y2="244.987" gradientUnits="userSpaceOnUse">
      <stop offset="0.1" stop-color="#a8a8a8"/>
      <stop offset="0.9" stop-color="#fff"/>
    </linearGradient>
    <mask id="b1a9ba02-69a4-46f6-85bf-29f07a4159d0" x="52" y="52.001" width="183.999" height="183.999" maskUnits="userSpaceOnUse">
      <g>
        <polyline points="69.251 103.75 144 63.5 218.75 103.75" fill="none" stroke-linejoin="round" stroke-width="8.28" stroke="url(#ab0aad47-3eee-446d-acfa-45ce53efb541)"/>
        <polyline points="144 230.249 218.75 189.999 218.75 103.75" fill="none" stroke="#fff" stroke-linejoin="round" stroke-width="8.28"/>
        <polyline points="69.252 103.75 69.251 189.999 144 230.249" fill="none" stroke-linecap="round" stroke-linejoin="round" stroke-width="8.28" stroke="url(#b286f339-4f3f-4c69-b654-a83f489af010)"/>
        <circle cx="144" cy="63.5" r="5.75"/>
        <circle cx="69.251" cy="103.75" r="5.75"/>
        <circle cx="103.751" cy="85.063" r="5.75"/>
        <circle cx="184.25" cy="85.063" r="5.75"/>
        <circle cx="218.75" cy="103.75" r="5.75"/>
      </g>
    </mask>
    <linearGradient id="a03375b1-9581-4ce1-b44b-2bf0ec1299d4" x1="-3585" y1="411" x2="-3401.001" y2="227.001" gradientTransform="matrix(1, 0, 0, -1, 3637, 463.001)" gradientUnits="userSpaceOnUse">
      <stop offset="0.1" stop-color="#08bdba"/>
      <stop offset="0.9" stop-color="#0f62fe"/>
    </linearGradient>
    <mask id="e07b0677-da06-4d87-be8c-feefd87a8a0e" x="52.001" y="52" width="183.999" height="183.999" maskUnits="userSpaceOnUse">
      <g>
        <line x1="103.751" y1="126.75" x2="103.751" y2="208.576" fill="none" stroke="#fff" stroke-linejoin="round" stroke-width="4.14"/>
        <line x1="184.25" y1="126.75" x2="184.25" y2="208.576" fill="none" stroke="#fff" stroke-linejoin="round" stroke-width="4.14"/>
        <circle cx="144" cy="63.5" r="5.75" fill="none" stroke="#fff" stroke-linejoin="round" stroke-width="4.14"/>
        <circle cx="144" cy="144" r="5.75" fill="none" stroke="#fff" stroke-linejoin="round" stroke-width="4.14"/>
        <circle cx="144" cy="103.75" r="5.75" fill="none" stroke="#fff" stroke-linejoin="round" stroke-width="4.14"/>
        <circle cx="69.251" cy="103.75" r="5.75" fill="none" stroke="#fff" stroke-linejoin="round" stroke-width="4.14"/>
        <circle cx="103.751" cy="85.063" r="5.75" fill="none" stroke="#fff" stroke-linejoin="round" stroke-width="4.14"/>
        <circle cx="184.25" cy="85.063" r="5.75" fill="none" stroke="#fff" stroke-linejoin="round" stroke-width="4.14"/>
        <circle cx="103.751" cy="121" r="5.75" fill="none" stroke="#fff" stroke-linejoin="round" stroke-width="4.14"/>
        <circle cx="184.25" cy="121" r="5.75" fill="none" stroke="#fff" stroke-linejoin="round" stroke-width="4.14"/>
        <circle cx="218.75" cy="103.75" r="5.75" fill="none" stroke="#fff" stroke-linejoin="round" stroke-width="4.14"/>
        <line x1="103.751" y1="90.813" x2="103.751" y2="115.25" fill="none" stroke="#fff" stroke-linejoin="round" stroke-width="4.14"/>
        <line x1="184.25" y1="90.813" x2="184.25" y2="115.25" fill="none" stroke="#fff" stroke-linejoin="round" stroke-width="4.14"/>
        <line x1="144" y1="230.249" x2="144" y2="149.75" fill="none" stroke="#fff" stroke-linejoin="round" stroke-width="4.14"/>
        <line x1="144" y1="138.25" x2="144" y2="109.5" fill="none" stroke="#fff" stroke-linejoin="round" stroke-width="4.14"/>
        <line x1="144" y1="98" x2="144" y2="69.25" fill="none" stroke="#fff" stroke-linejoin="round" stroke-width="4.14"/>
        <polyline points="69.251 189.999 144 230.249 218.75 189.999" fill="none" stroke="#000" stroke-linejoin="round" stroke-width="8.28"/>
      </g>
    </mask>
  </defs>
  <rect width="288" height="288" fill="#121619"/>
  <g>
    <g mask="url(#b1a9ba02-69a4-46f6-85bf-29f07a4159d0)">
      <rect id="a37b703b-ac92-4291-a180-893fff701bcf" data-name="hexagon" x="52" y="52.001" width="183.999" height="183.999" transform="translate(-0.001 288) rotate(-90)" fill="url(#a03375b1-9581-4ce1-b44b-2bf0ec1299d4)"/>
    </g>
    <g mask="url(#e07b0677-da06-4d87-be8c-feefd87a8a0e)">
      <rect x="52.001" y="52" width="183.999" height="183.999"/>
    </g>
  </g>
</svg>
