<?xml version="1.0" encoding="utf-8"?>
<!-- Generator: Adobe Illustrator 25.2.0, SVG Export Plug-In . SVG Version: 6.00 Build 0)  -->
<svg version="1.1" id="Layer_1" xmlns="http://www.w3.org/2000/svg" xmlns:xlink="http://www.w3.org/1999/xlink" x="0px" y="0px"
	 viewBox="0 0 32 29" style="enable-background:new 0 0 32 29;" xml:space="preserve">
<style type="text/css">
	.st0{fill:none;}
	.st1{fill:#FDB300;}
	.st2{fill:#EA6C00;}
	.st3{fill:#FDAD00;}
	.st4{fill:#FDD231;}
	.st5{fill:#FEEEB7;}
</style>
<g>
	<path class="st0" d="M2,1h28v28H2V1z"/>
	<g>
		<path class="st1" d="M8.1,2.7L16,1.9l7.9,0.8l6.1,8.2L16,27.2L2,10.9L8.1,2.7z"/>
		<path class="st2" d="M7.7,10.9L16,27.2L2,10.9H7.7z M24.3,10.9L16,27.2l14-16.3H24.3z"/>
		<path class="st3" d="M7.7,10.9h16.6L16,27.2L7.7,10.9z"/>
		<path class="st4" d="M16,1.9L8.1,2.7l-0.4,8.2L16,1.9z M16,1.9l7.9,0.8l0.4,8.2L16,1.9z"/>
		<path class="st3" d="M29.9,10.9l-6.1-8.2l0.4,8.2H29.9z M2,10.9l6.1-8.2l-0.4,8.2H2z"/>
		<path class="st5" d="M16,1.9l-8.3,9h16.6L16,1.9z"/>
	</g>
</g>
</svg>
