<?xml version="1.0" encoding="utf-8"?>
<!-- Generator: Adobe Illustrator 25.3.1, SVG Export Plug-In . SVG Version: 6.00 Build 0)  -->
<svg version="1.1" id="icon" xmlns="http://www.w3.org/2000/svg" xmlns:xlink="http://www.w3.org/1999/xlink" x="0px" y="0px"
	 viewBox="0 0 32 32" style="enable-background:new 0 0 32 32;" xml:space="preserve">
<style type="text/css">
	.st0{fill:#6F6F6F;}
	.st1{fill:none;}
</style>
<path class="st0" d="M16,2C8.3,2,2,8.3,2,16s6.3,14,14,14s14-6.3,14-14S23.7,2,16,2z M16,28C9.4,28,4,22.6,4,16S9.4,4,16,4
	s12,5.4,12,12S22.6,28,16,28z"/>
<circle class="st0" cx="16" cy="23.5" r="1.5"/>
<path class="st0" d="M17,8h-1.5C13,8,11,10,11,12.5c0,0,0,0,0,0V13h2v-0.5c0-1.4,1.1-2.5,2.5-2.5H17c1.4,0,2.5,1.1,2.5,2.5
	S18.4,15,17,15h-2v4.5h2V17c2.5,0,4.5-2,4.5-4.5S19.5,8,17,8z"/>
<rect class="st1" width="32" height="32"/>
</svg>
