<svg width="20" height="20" viewBox="0 0 20 20" fill="none" xmlns="http://www.w3.org/2000/svg">
<g clip-path="url(#clip0_13_1001)">
<path d="M10.625 13.75V8.75H8.125V10H9.375V13.75H7.5V15H12.5V13.75H10.625Z" fill="#0043CE"/>
<path d="M10 5C9.48223 5 9.0625 5.41973 9.0625 5.9375C9.0625 6.45527 9.48223 6.875 10 6.875C10.5178 6.875 10.9375 6.45527 10.9375 5.9375C10.9375 5.41973 10.5178 5 10 5Z" fill="#0043CE"/>
<path d="M10 18.75C5.16751 18.75 1.25 14.8325 1.25 10C1.25 5.16751 5.16751 1.25 10 1.25C14.8325 1.25 18.75 5.16751 18.75 10C18.75 12.3206 17.8281 14.5462 16.1872 16.1872C14.5462 17.8281 12.3206 18.75 10 18.75ZM10 2.5C5.85786 2.5 2.5 5.85786 2.5 10C2.5 14.1421 5.85786 17.5 10 17.5C14.1421 17.5 17.5 14.1421 17.5 10C17.5 5.85786 14.1421 2.5 10 2.5Z" fill="#0043CE"/>
</g>
<defs>
<clipPath id="clip0_13_1001">
<rect width="20" height="20" fill="white"/>
</clipPath>
</defs>
</svg>
