<?xml version="1.0" encoding="UTF-8"?>
<svg width="24px" height="24px" viewBox="0 0 24 24" version="1.1" xmlns="http://www.w3.org/2000/svg" xmlns:xlink="http://www.w3.org/1999/xlink">
    <title>design-xd</title>
    <g id="design-xd" stroke="none" stroke-width="1" fill="none" fill-rule="evenodd">
        <circle id="Oval" fill="#697077" cx="12" cy="12" r="12"></circle>
        <g id="segment-icon-xd-app-grey" transform="translate(5.000000, 5.000000)" fill="#FFFFFF" fill-rule="nonzero">
            <path d="M11.5266667,0 L2.47333333,0 C1.12,0 0,1.09666667 0,2.45 L0,2.45 L0,11.06 C0,12.4366667 1.12,13.5333333 2.47333333,13.5333333 L2.47333333,13.5333333 L11.5266667,13.5333333 C12.88,13.5333333 14,12.4366667 14,11.0833333 L14,11.0833333 L14,2.45 C14,1.09666667 12.88,0 11.5266667,0 L11.5266667,0 Z M13.3,10.78 C13.3,11.9233333 12.3666667,12.8333333 11.2233333,12.8333333 L11.2233333,12.8333333 L2.77666667,12.8333333 C1.63333333,12.8333333 0.7,11.9233333 0.7,10.78 L0.7,2.75333333 C0.7,1.61 1.63333333,0.7 2.77666667,0.7 L11.2233333,0.7 C12.3666667,0.7 13.3,1.61 13.3,2.75333333 L13.3,2.75333333 L13.3,10.78 Z" id="Shape"></path>
            <path d="M5.53,6.39333333 L7.16333333,9.52 C7.18666667,9.56666667 7.16333333,9.61333333 7.14,9.61333333 L6.11333333,9.61333333 C6.06666667,9.61333333 6.02,9.59 5.99666667,9.54333333 C5.62333333,8.77333333 5.25,8.00333333 4.85333333,7.18666667 L4.85333333,7.18666667 C4.50333333,7.98 4.10666667,8.79666667 3.73333333,9.56666667 C3.71,9.61333333 3.66333333,9.63666667 3.64,9.63666667 L2.68333333,9.63666667 C2.63666667,9.63666667 2.61333333,9.59 2.66,9.56666667 L4.27,6.53333333 L2.73,3.43 C2.70666667,3.40666667 2.70666667,3.38333333 2.73,3.36 C2.73,3.36 2.75333333,3.33666667 2.77666667,3.33666667 L3.78,3.33666667 C3.82666667,3.33666667 3.87333333,3.36 3.87333333,3.40666667 C4.24666667,4.17666667 4.62,4.97 4.97,5.74 L4.97,5.74 C5.32,4.97 5.67,4.17666667 6.04333333,3.40666667 C6.06666667,3.36 6.09,3.33666667 6.16,3.33666667 L7.09333333,3.33666667 C7.14,3.33666667 7.16333333,3.36 7.11666667,3.43 L5.53,6.39333333 Z" id="Path"></path>
            <path d="M7.46666667,7.35 C7.46666667,5.99666667 8.37666667,4.92333333 9.8,4.92333333 C9.89333333,4.92333333 10.01,4.92333333 10.1033333,4.92333333 L10.1033333,3.38333333 C10.1033333,3.36 10.1266667,3.33666667 10.15,3.33666667 L11.0833333,3.33666667 C11.13,3.33666667 11.13,3.36 11.13,3.38333333 L11.13,8.75 C11.13,8.93666667 11.13,9.12333333 11.1533333,9.33333333 C11.1533333,9.38 11.1533333,9.38 11.1066667,9.40333333 C10.64,9.63666667 10.1266667,9.73 9.61333333,9.75333333 C8.35333333,9.70666667 7.46666667,8.91333333 7.46666667,7.35 Z M10.1033333,5.83333333 C9.98666667,5.78666667 9.87,5.76333333 9.75333333,5.78666667 C9.00666667,5.78666667 8.51666667,6.34666667 8.51666667,7.30333333 C8.51666667,8.37666667 9.03,8.82 9.70666667,8.82 C9.84666667,8.82 9.98666667,8.79666667 10.1033333,8.75 L10.1033333,5.83333333 L10.1033333,5.83333333 Z" id="Shape"></path>
        </g>
    </g>
</svg>