<svg width="20" height="20" viewBox="0 0 20 20" fill="none" xmlns="http://www.w3.org/2000/svg">
<g clip-path="url(#clip0_12_1078)">
<path d="M14.8526 4.28701L15.6558 3.32982C14.8799 2.67311 13.9954 2.15686 13.042 1.80432L12.6147 2.97782C13.4312 3.28068 14.1885 3.72372 14.8526 4.28701Z" fill="#0043CE"/>
<path d="M17.3812 8.75L18.6111 8.492C18.4382 7.49336 18.0918 6.5327 17.5875 5.65356L16.5054 6.25C16.9373 7.02751 17.2335 7.87295 17.3812 8.75Z" fill="#0043CE"/>
<path d="M12.6147 17.0221L13.042 18.1956C13.9954 17.843 14.8799 17.3268 15.6558 16.6701L14.8526 15.7129C14.1885 16.2762 13.4312 16.7192 12.6147 17.0221Z" fill="#0043CE"/>
<path d="M16.5054 13.75L17.5875 14.375C18.0921 13.4857 18.4385 12.5156 18.6114 11.508L17.3812 11.2911C17.2334 12.1551 16.9371 12.987 16.5054 13.75Z" fill="#0043CE"/>
<path d="M10 18.75V1.25C5.16751 1.25 1.25 5.16751 1.25 10C1.25 14.8325 5.16751 18.75 10 18.75Z" fill="#0043CE"/>
</g>
<defs>
<clipPath id="clip0_12_1078">
<rect width="20" height="20" fill="white"/>
</clipPath>
</defs>
</svg>
