<svg width="20" height="20" viewBox="0 0 20 20" fill="none" xmlns="http://www.w3.org/2000/svg">
<g clip-path="url(#clip0_680_366)">
<rect width="20" height="20" fill="white" fill-opacity="0.01" style="mix-blend-mode:multiply"/>
<rect width="20" height="20" fill="white" fill-opacity="0.01" style="mix-blend-mode:multiply"/>
<path d="M4.81249 2.9375C4.09562 3.48761 3.46381 4.14047 2.9375 4.875L3.9375 5.625C4.39652 4.98839 4.94366 4.42021 5.56249 3.9375L4.81249 2.9375Z" fill="#6F6F6F"/>
<path d="M2.875 7.6875L1.6875 7.3125C1.3856 8.17584 1.23752 9.08547 1.25 10H2.5C2.49746 9.21382 2.62415 8.43258 2.875 7.6875Z" fill="#6F6F6F"/>
<path d="M1.6875 12.75C1.97735 13.6215 2.39889 14.4435 2.9375 15.1875L3.9375 14.4375C3.48567 13.8049 3.12779 13.1102 2.875 12.375L1.6875 12.75Z" fill="#6F6F6F"/>
<path d="M4.875 17.0625C5.61895 17.6011 6.44097 18.0226 7.3125 18.3125L7.6875 17.125C6.95233 16.8722 6.25763 16.5143 5.625 16.0625L4.875 17.0625Z" fill="#6F6F6F"/>
<path d="M7.3125 1.6875L7.6875 2.875C8.43258 2.62415 9.21382 2.49746 10 2.5V1.25C9.08547 1.23752 8.17584 1.3856 7.3125 1.6875Z" fill="#6F6F6F"/>
<path d="M15.125 17.0625C15.8612 16.5138 16.5138 15.8612 17.0625 15.125L16.0625 14.375C15.5977 15.0274 15.0274 15.5977 14.375 16.0625L15.125 17.0625Z" fill="#6F6F6F"/>
<path d="M17.125 12.3125L18.3125 12.6875C18.5844 11.8168 18.7317 10.912 18.75 10H17.5C17.5025 10.7862 17.3758 11.5674 17.125 12.3125Z" fill="#6F6F6F"/>
<path d="M18.25 7.25C17.9601 6.37847 17.5386 5.55645 17 4.81249L16 5.56249C16.4518 6.19513 16.8097 6.88983 17.0625 7.625L18.25 7.25Z" fill="#6F6F6F"/>
<path d="M15.0625 2.875C14.3185 2.33639 13.4965 1.91485 12.625 1.625L12.25 2.8125C12.9852 3.06529 13.6799 3.42317 14.3125 3.87499L15.0625 2.875Z" fill="#6F6F6F"/>
<path d="M12.6875 18.3125L12.3125 17.125C11.5674 17.3758 10.7862 17.5025 10 17.5V18.75C10.9084 18.6959 11.8089 18.5493 12.6875 18.3125Z" fill="#6F6F6F"/>
</g>
<defs>
<clipPath id="clip0_680_366">
<rect width="20" height="20" fill="white"/>
</clipPath>
</defs>
</svg>
