<?xml version="1.0" encoding="UTF-8"?>
<svg width="20px" height="20px" viewBox="0 0 20 20" version="1.1" xmlns="http://www.w3.org/2000/svg"
    xmlns:xlink="http://www.w3.org/1999/xlink">
    <title>incomplete</title>
    <g id="Structure" stroke="none" stroke-width="1" fill="none" fill-rule="evenodd">
        <path
            d="M14.852625,4.2870625 L15.6558125,3.329875 C14.8799393,2.67316428 13.995395,2.15691749 13.042,1.804375 L12.61475,2.977875 C13.4312019,3.28073427 14.188525,3.72377863 14.852625,4.2870625 L14.852625,4.2870625 Z"
            id="Path" fill="#4589ff" fill-rule="nonzero"></path>
        <path
            d="M17.38125,8.75 L18.6110625,8.492 C18.4381928,7.49335586 18.0917729,6.5327001 17.5875,5.6535625 L16.5054375,6.25 C16.9373313,7.0275041 17.2335118,7.87294909 17.38125,8.75 L17.38125,8.75 Z"
            id="Path" fill="#4589ff" fill-rule="nonzero"></path>
        <path
            d="M12.61475,17.022125 L13.042,18.195625 C13.995395,17.8430825 14.8799393,17.3268357 15.6558125,16.670125 L14.852625,15.7129375 C14.188525,16.2762214 13.4312019,16.7192657 12.61475,17.022125 L12.61475,17.022125 Z"
            id="Path" fill="#4589ff" fill-rule="nonzero"></path>
        <path
            d="M16.5054375,13.75 L17.5875,14.375 C18.0920654,13.4857549 18.438496,12.5156983 18.611375,11.508 L17.38125,11.2911875 C17.2333909,12.1551912 16.9370786,12.9870776 16.5054375,13.75 L16.5054375,13.75 Z"
            id="Path" fill="#4589ff" fill-rule="nonzero"></path>
        <path
            d="M10,18.75 L10,1.25 C5.16750844,1.25 1.25,5.16750844 1.25,10 C1.25,14.8324916 5.16750844,18.75 10,18.75 L10,18.75 Z"
            id="Path" fill="#4589ff" fill-rule="nonzero"></path>
        <rect id="_Transparent_Rectangle_" x="0" y="0" width="20" height="20"></rect>
    </g>
</svg>