<?xml version="1.0" encoding="UTF-8"?>
<svg width="20px" height="20px" viewBox="0 0 20 20" version="1.1" xmlns="http://www.w3.org/2000/svg" xmlns:xlink="http://www.w3.org/1999/xlink">
    <title>pending (1)</title>
    <defs>
        <filter id="filter-1">
            <feColorMatrix in="SourceGraphic" type="matrix" values="0 0 0 0 0.321569 0 0 0 0 0.321569 0 0 0 0 0.321569 0 0 0 1.000000 0"></feColorMatrix>
        </filter>
    </defs>
    <g id="Structure" stroke="none" stroke-width="1" fill="none" fill-rule="evenodd">
        <g id="pending-(1)" filter="url(#filter-1)">
            <g>
                <circle id="Oval" fill="#000000" fill-rule="nonzero" cx="5.625" cy="10" r="1.25"></circle>
                <circle id="Oval" fill="#000000" fill-rule="nonzero" cx="14.375" cy="10" r="1.25"></circle>
                <circle id="Oval" fill="#000000" fill-rule="nonzero" cx="10" cy="10" r="1.25"></circle>
                <path d="M10,18.75 C5.16750844,18.75 1.25,14.8324916 1.25,10 C1.25,5.16750844 5.16750844,1.25 10,1.25 C14.8324916,1.25 18.75,5.16750844 18.75,10 C18.7445579,14.8302356 14.8302356,18.7445579 10,18.75 Z M10,2.5 C5.85786438,2.5 2.5,5.85786438 2.5,10 C2.5,14.1421356 5.85786438,17.5 10,17.5 C14.1421356,17.5 17.5,14.1421356 17.5,10 C17.4952814,5.85982047 14.1401795,2.50471863 10,2.5 Z" id="Shape" fill="#000000" fill-rule="nonzero"></path>
                <rect id="_Transparent_Rectangle_" x="0" y="0" width="20" height="20"></rect>
            </g>
        </g>
    </g>
</svg>