<?xml version="1.0" encoding="utf-8"?>
<!-- Generator: Adobe Illustrator 25.3.1, SVG Export Plug-In . SVG Version: 6.00 Build 0)  -->
<svg version="1.1" id="icon" xmlns="http://www.w3.org/2000/svg" xmlns:xlink="http://www.w3.org/1999/xlink" x="0px" y="0px"
	 viewBox="0 0 32 32" style="enable-background:new 0 0 32 32;" xml:space="preserve">
<style type="text/css">
	.st0{fill:#6F6F6F;}
	.st1{fill:none;}
</style>
<circle class="st0" cx="16" cy="22.5" r="1.5"/>
<path class="st0" d="M17,19h-2v-4h2c1.1,0,2-0.9,2-2s-0.9-2-2-2h-2c-1.1,0-2,0.9-2,2v0.5h-2V13c0-2.2,1.8-4,4-4h2c2.2,0,4,1.8,4,4
	s-1.8,4-4,4V19z"/>
<path class="st0" d="M16,30c-0.6,0-1.1-0.2-1.5-0.6L2.6,17.5c-0.8-0.8-0.8-2.1,0-2.9L14.5,2.6c0.8-0.8,2.1-0.8,2.9,0l11.9,11.9
	c0.8,0.8,0.8,2.1,0,2.9L17.5,29.4C17.1,29.8,16.6,30,16,30z M16,4C16,4,16,4,16,4L4,15.9c0,0,0,0.1,0,0.1L15.9,28c0,0,0.1,0,0.1,0
	L28,16.1c0,0,0-0.1,0-0.1L16,4C16,4,16,4,16,4z"/>
<rect id="_Transparent_Rectangle_" class="st1" width="32" height="32"/>
</svg>
