<?xml version="1.0" encoding="UTF-8"?>
<svg width="20px" height="20px" viewBox="0 0 20 20" version="1.1" xmlns="http://www.w3.org/2000/svg" xmlns:xlink="http://www.w3.org/1999/xlink">
    <title>undefined--filled</title>
    <defs>
        <filter id="filter-1">
            <feColorMatrix in="SourceGraphic" type="matrix" values="0 0 0 0 0.541176 0 0 0 0 0.247059 0 0 0 0 0.988235 0 0 0 1.000000 0"></feColorMatrix>
        </filter>
    </defs>
    <g id="Structure" stroke="none" stroke-width="1" fill="none" fill-rule="evenodd">
        <g id="undefined--filled" filter="url(#filter-1)">
            <g>
                <path d="M18.385125,9.1190625 L10.88125,1.614875 C10.394655,1.12838963 9.60584496,1.12838963 9.11925,1.614875 L1.614875,9.1190625 C1.12836943,9.60560028 1.12836943,10.3943997 1.614875,10.8809375 L9.1190625,18.385125 C9.60565746,18.8716104 10.3944675,18.8716104 10.8810625,18.385125 L18.385125,10.88125 C18.6188496,10.6475928 18.7501604,10.3306451 18.7501604,10.0001562 C18.7501604,9.66966737 18.6188496,9.35271971 18.385125,9.1190625 Z M13.125,11.25 L6.875,11.25 L6.875,8.75 L13.125,8.75 L13.125,11.25 Z" id="Shape" fill="#000000" fill-rule="nonzero"></path>
                <rect id="inner-path" x="6.875" y="8.75" width="6.25" height="2.5"></rect>
                <rect id="_Transparent_Rectangle_" x="0" y="0" width="20" height="20"></rect>
            </g>
        </g>
    </g>
</svg>