<?xml version="1.0" encoding="UTF-8"?>
<svg width="20px" height="20px" viewBox="0 0 20 20" version="1.1" xmlns="http://www.w3.org/2000/svg" xmlns:xlink="http://www.w3.org/1999/xlink">
    <title>status_indicator_1 copy 60</title>
    <defs>
        <filter id="filter-1">
            <feColorMatrix in="SourceGraphic" type="matrix" values="0 0 0 0 0.541176 0 0 0 0 0.247059 0 0 0 0 0.988235 0 0 0 1.000000 0"></feColorMatrix>
        </filter>
    </defs>
    <g id="status_indicator_1-copy-60" stroke="none" stroke-width="1" fill="none" fill-rule="evenodd">
        <g filter="url(#filter-1)" id="undefined-(1)">
            <g>
                <rect id="Rectangle" fill="#000000" fill-rule="nonzero" x="6.875" y="8.75" width="6.25" height="2.5"></rect>
                <path d="M10,18.7500021 C9.65462807,18.7506264 9.32325411,18.6135512 9.07925,18.369125 L1.630875,10.92075 C1.12307577,10.4119371 1.12307577,9.58806294 1.630875,9.07925 L9.07925,1.630875 C9.58806294,1.12307577 10.4119371,1.12307577 10.92075,1.630875 L18.369125,9.07925 C18.8769242,9.58806294 18.8769242,10.4119371 18.369125,10.92075 L10.92075,18.369125 C10.6767459,18.6135512 10.3453719,18.7506264 10,18.7500021 L10,18.7500021 Z M10,2.4995 C9.98615995,2.4995 9.97288712,2.50500196 9.9630625,2.51475 L2.51475,9.9630625 C2.49442557,9.98349377 2.49442557,10.0165062 2.51475,10.0369375 L9.9630625,17.48525 C9.9835496,17.5054387 10.0164504,17.5054387 10.0369375,17.48525 L17.48525,10.0369375 C17.5055744,10.0165062 17.5055744,9.98349377 17.48525,9.9630625 L10.0369375,2.51475 C10.0271129,2.50500196 10.01384,2.4995 10,2.4995 Z" id="Shape" fill="#000000" fill-rule="nonzero"></path>
                <rect id="_Transparent_Rectangle_" x="0" y="0" width="20" height="20"></rect>
            </g>
        </g>
    </g>
</svg>