<svg xmlns="http://www.w3.org/2000/svg" width="2432" height="1216" viewBox="0 0 2432 1216"><rect x="1520" y="912" width="304" height="304" fill="#78a9ff"/><polygon points="1825.283 606.345 1825.283 302.345 1521.283 606.345 1825.283 606.345" fill="#fff"/><polygon points="1824 0 1520 0 1824 304 1824 0" fill="#78a9ff"/><polygon points="2128 0 1824 0 2128 304 2128 0" fill="#d0e2ff"/><polygon points="2128 304 1824 304 2128 608 2128 304" fill="#a6c8ff"/><polygon points="1824 608 2128 608 1824 304 1824 608" fill="#d4bbff"/><polygon points="912 608 912 912 608 912 911.292 608 912 608" fill="#d0e2ff"/><rect x="912" y="304" width="608.622" height="608" fill="#edf5ff"/><rect x="1520" y="304" width="304" height="304" transform="translate(3344 912) rotate(-180)" fill="#d0e2ff"/><polygon points="912 0 912 608 304 0 912 0" fill="#e8daff"/><polygon points="2432 608 2432 1216 1824 608 2432 608" fill="#e8daff"/><path d="M760.622,304A151.487,151.487,0,0,1,716.1,411.48L501.142,196.52A152,152,0,0,1,760.622,304Z" fill="#e8daff"/><polygon points="912 608 304 608 304 0 912 608" fill="#d4bbff"/><polygon points="0 0 0 304 304 0 0 0" fill="#edf5ff"/><polygon points="304 304 304 0 0 304 304 304" fill="#d0e2ff"/><polygon points="0 608 304 608 0 304 0 608" fill="#78a9ff"/><polygon points="304 304 0 304 304 608 304 304" fill="#a6c8ff"/><rect x="0.622" y="608.22" width="304" height="304" fill="#fff"/><rect y="912" width="304" height="304.22" fill="#f6f2ff"/><path d="M304,608.22V760.11c-83.881,0-151.89,67.9-151.89,151.67V912H0v-.22C0,800,60.5,702.342,150.589,649.66A302.9,302.9,0,0,1,304,608.22Z" fill="#d4bbff"/><path d="M0,912H152c0,83.942,67.95,152,151.78,152H304v152.22h-.22c-111.86,0-209.59-60.547-262.31-150.7A303.115,303.115,0,0,1,0,912Z" fill="#e8daff"/><polygon points="1520 304 1824 304 1520 0 1520 304" fill="#fff"/><polygon points="1824 304 2128 304 1824 0 1824 304" fill="#edf5ff"/><polygon points="1520 912 1824 912 1520 608 1520 912" fill="#d0e2ff"/><path d="M1368.622,1216c0-83.95-68.328-152-152.622-152v152Z" fill="#fff"/><path d="M1216,912v152a152,152,0,0,1,152,152h152V912Z" fill="#e8daff"/><path d="M1216,1064a152,152,0,0,0-152,152h152Z" fill="#e8daff"/><path d="M1216,1064V912H912v303.669h152A152,152,0,0,1,1216,1064Z" fill="#fff"/><path d="M1064,0a152,152,0,0,0,152,152V0Z" fill="#edf5ff"/><path d="M1216,304V152A152,152,0,0,1,1064,0H912V304Z" fill="#fff"/><path d="M1216,152A152,152,0,0,0,1368,0H1216Z" fill="#a6c8ff"/><path d="M1216,152V304h304V.332H1368A152,152,0,0,1,1216,152Z" fill="#d0e2ff"/><polygon points="608 608 608 912 304 608 608 608" fill="#001141"/><polygon points="912 912 912 1216 608 912 912 912" fill="#d4bbff"/><polygon points="608 608 608 912 912 608 608 608" fill="#0043ce"/><polygon points="305.33 608 305.33 608.71 304.62 608 305.33 608" fill="#001141"/><path d="M715.479,411.48a152,152,0,1,1-214.96-214.96Z" fill="#fff"/><path d="M760,304a151.487,151.487,0,0,1-44.52,107.48L500.521,196.52A152,152,0,0,1,760,304Z" fill="#d4bbff"/><rect x="2128" width="304" height="304" fill="#fff"/><rect x="2128" y="304" width="304" height="304" fill="#f6f2ff"/><path d="M2432,0V152c-83.881,0-151.89,67.95-151.89,151.78V304H2128v-.22c0-111.86,60.5-209.59,150.589-262.31A302.728,302.728,0,0,1,2432,0Z" fill="#e8daff"/><path d="M2128,304h152c0,83.881,67.95,151.89,151.78,151.89h.22V608h-.22c-111.86,0-209.59-60.5-262.31-150.589A302.728,302.728,0,0,1,2128,304Z" fill="#d4bbff"/><polygon points="1368 304 1368 456 1216 456 1368 304" fill="#001141"/><rect x="1368" y="304" width="152" height="608" fill="#0043ce"/><polygon points="1064 304 1064 456 912 456 1064 304" fill="#4589ff"/><rect x="1064" y="304" width="152" height="608" fill="#0043ce"/><polygon points="1824 608 1520 608 1824 912 1824 608" fill="#edf5ff"/><polygon points="912 1216 608 912 608 1216 608 1216 912 1216" fill="#edf5ff"/><polygon points="608 912 608 912 608 912 608 912 304 912 304 1216 304 1216 304 1216 608 1216 608 912 608 912" fill="#fff"/><polygon points="304 608 304 912 608 912 608 912 304 608" fill="#edf5ff"/><polygon points="607.999 912 304 912.001 608 1216 607.999 912" fill="#d0e2ff"/><polygon points="2432 1216 1824 1216 1824 608 2432 1216" fill="#d4bbff"/><path d="M2236.461,1019.307a152,152,0,1,1-214.96-214.96Z" fill="#fff"/><path d="M2280.983,911.827a151.487,151.487,0,0,1-44.52,107.48L2021.5,804.347a152,152,0,0,1,259.48,107.48Z" fill="#d4bbff"/></svg>