<svg id="b42f3bfb-cc9b-4d98-b6ee-725b6e2bc50a" data-name="Layer 1" xmlns="http://www.w3.org/2000/svg" xmlns:xlink="http://www.w3.org/1999/xlink" viewBox="0 0 576 576">
  <defs>
    <linearGradient id="b84e7796-740a-4b4a-a9e3-00d74c57658d" x1="126.933" y1="354.66" x2="163.32" y2="318.273" gradientUnits="userSpaceOnUse">
      <stop offset="0"/>
      <stop offset="0.9" stop-color="#fff"/>
    </linearGradient>
    <linearGradient id="b05a2ba2-7274-43ab-af27-0feac8d1d9b5" x1="92.245" y1="319.969" x2="128.643" y2="283.572" xlink:href="#b84e7796-740a-4b4a-a9e3-00d74c57658d"/>
    <linearGradient id="aab65bf0-83f5-4015-ac8c-00b7d532d336" x1="202.078" y1="364.595" x2="202.078" y2="205.978" gradientUnits="userSpaceOnUse">
      <stop offset="0.08" stop-color="#393939"/>
      <stop offset="0.305" stop-color="#7f7f7f"/>
      <stop offset="0.507" stop-color="#b6b6b6"/>
      <stop offset="0.679" stop-color="#dedede"/>
      <stop offset="0.816" stop-color="#f6f6f6"/>
      <stop offset="0.9" stop-color="#fff"/>
    </linearGradient>
    <linearGradient id="e732fd63-0bc6-4ea2-bf7e-c447b899401b" x1="80.685" y1="366.214" x2="163.33" y2="283.568" gradientUnits="userSpaceOnUse">
      <stop offset="0"/>
      <stop offset="0.17" stop-color="#393939"/>
      <stop offset="0.397" stop-color="#7f7f7f"/>
      <stop offset="0.602" stop-color="#b6b6b6"/>
      <stop offset="0.777" stop-color="#dedede"/>
      <stop offset="0.915" stop-color="#f6f6f6"/>
      <stop offset="1" stop-color="#fff"/>
    </linearGradient>
    <linearGradient id="ba28f8f0-2c7e-4f9a-a73d-f87c54bf882b" x1="167.392" y1="360.433" x2="167.392" y2="325.75" gradientUnits="userSpaceOnUse">
      <stop offset="0.19" stop-color="#393939"/>
      <stop offset="1"/>
    </linearGradient>
    <mask id="ff4e9a54-7ab5-4291-b384-85fb05be247c" x="69.123" y="192.799" width="184.976" height="184.976" maskUnits="userSpaceOnUse">
      <g>
        <line x1="126.928" y1="354.653" x2="163.325" y2="318.28" fill="none" stroke-linejoin="round" stroke-width="8.324" stroke="url(#b84e7796-740a-4b4a-a9e3-00d74c57658d)"/>
        <line x1="92.245" y1="319.97" x2="128.642" y2="283.572" fill="none" stroke-linejoin="round" stroke-width="8.324" stroke="url(#b05a2ba2-7274-43ab-af27-0feac8d1d9b5)"/>
        <path d="M167.4,360.433l28.9-17.341V291.067l24.121-24.114a55.812,55.812,0,0,0,16.343-39.471V210.14" fill="none" stroke-linecap="round" stroke-linejoin="round" stroke-width="8.324" stroke="url(#aab65bf0-83f5-4015-ac8c-00b7d532d336)"/>
        <line x1="80.684" y1="366.214" x2="163.331" y2="283.569" fill="none" stroke-linejoin="round" stroke-width="8.324" stroke="url(#e732fd63-0bc6-4ea2-bf7e-c447b899401b)"/>
        <path d="M236.758,210.14H219.416a55.8,55.8,0,0,0-39.464,16.35L155.831,250.6H103.806l-17.341,28.9h40.463" fill="none" stroke="#fff" stroke-linejoin="round" stroke-width="8.324"/>
        <line x1="167.392" y1="360.433" x2="167.392" y2="325.75" fill="none" stroke-linejoin="round" stroke-width="8.324" stroke="url(#ba28f8f0-2c7e-4f9a-a73d-f87c54bf882b)"/>
      </g>
    </mask>
    <linearGradient id="a50fa8d0-2c32-46b2-b486-72c60a80c29f" x1="-6160.775" y1="-2040.123" x2="-5975.799" y2="-2225.099" gradientTransform="matrix(1, 0, 0, -1, 6229.898, -1847.325)" gradientUnits="userSpaceOnUse">
      <stop offset="0.1" stop-color="#be95ff"/>
      <stop offset="0.9" stop-color="#4589ff"/>
    </linearGradient>
  </defs>
  <rect width="576" height="576" fill="#161616"/>
  <g>
    <path d="M291.239,248.313v-3.741h5.237V214.754h-5.237v-3.741H306.2v3.741h-5.237v29.818H306.2v3.741Z" fill="#fff"/>
    <path d="M314.378,211.013h15.337a9.919,9.919,0,0,1,7.3,2.618,10.675,10.675,0,0,1,2.057,10.528,7.344,7.344,0,0,1-1.5,2.378,6.087,6.087,0,0,1-1.977,1.39,9.269,9.269,0,0,1-1.978.614v.32a7.565,7.565,0,0,1,2.272.535,7.411,7.411,0,0,1,2.378,1.523,8.682,8.682,0,0,1,1.9,2.672,9.1,9.1,0,0,1,.774,3.928,12.373,12.373,0,0,1-.721,4.275,10.509,10.509,0,0,1-2,3.42,9.327,9.327,0,0,1-3.046,2.271,8.925,8.925,0,0,1-3.848.828h-16.94Zm4.489,16.138h10.314a6.04,6.04,0,0,0,4.168-1.336,4.886,4.886,0,0,0,1.5-3.847V220.15a4.892,4.892,0,0,0-1.5-3.847,6.045,6.045,0,0,0-4.168-1.336H318.867Zm0,17.208h11.062a6.6,6.6,0,0,0,4.542-1.469,5.45,5.45,0,0,0,1.657-4.3v-1.817a5.451,5.451,0,0,0-1.657-4.3,6.6,6.6,0,0,0-4.542-1.47H318.867Z" fill="#fff"/>
    <path d="M378.345,216.891h-.267l-3.153,6.253L366,239.389l-8.924-16.245-3.153-6.253h-.267v31.422h-4.382v-37.3h5.985l10.688,20.092h.267l10.742-20.092h5.771v37.3h-4.382Z" fill="#fff"/>
    <path d="M293,303.809v-37.3h22.231v3.954H297.492v12.5h16.192v3.955H297.492v16.887Z" fill="#fff"/>
    <path d="M340.35,303.809a4.2,4.2,0,0,1-3.447-1.283,6.341,6.341,0,0,1-1.309-3.207h-.267a7.144,7.144,0,0,1-2.993,3.848,9.3,9.3,0,0,1-4.97,1.283,9.668,9.668,0,0,1-6.814-2.245,7.882,7.882,0,0,1-2.431-6.092,6.958,6.958,0,0,1,2.859-5.985q2.857-2.085,8.9-2.084h5.452v-2.726a5.96,5.96,0,0,0-1.6-4.489,6.843,6.843,0,0,0-4.916-1.549,7.4,7.4,0,0,0-4.195,1.122,9.247,9.247,0,0,0-2.806,2.993l-2.565-2.4a9.741,9.741,0,0,1,3.581-3.821,11.272,11.272,0,0,1,6.2-1.576q5.022,0,7.8,2.453a8.629,8.629,0,0,1,2.779,6.825v15.144h3.152v3.794Zm-12.291-2.993a10.9,10.9,0,0,0,2.939-.374,7.193,7.193,0,0,0,2.3-1.069,5.291,5.291,0,0,0,1.5-1.6,3.83,3.83,0,0,0,.535-1.977V291.25h-5.665a10.336,10.336,0,0,0-5.371,1.069,3.453,3.453,0,0,0-1.683,3.1v1.122a3.732,3.732,0,0,0,1.47,3.152A6.4,6.4,0,0,0,328.059,300.816Z" fill="#fff"/>
    <path d="M357.13,304.45a12.894,12.894,0,0,1-6.44-1.47,14.646,14.646,0,0,1-4.462-3.927l3.046-2.458a12.012,12.012,0,0,0,3.58,3.126,9.335,9.335,0,0,0,4.6,1.095,6.806,6.806,0,0,0,4.249-1.175,4.272,4.272,0,0,0,.481-6.066A6.373,6.373,0,0,0,358.412,292l-2.191-.32a18.275,18.275,0,0,1-3.527-.828,9.8,9.8,0,0,1-2.805-1.5,6.433,6.433,0,0,1-1.871-2.326,7.566,7.566,0,0,1-.668-3.313,7.955,7.955,0,0,1,.749-3.554,7.149,7.149,0,0,1,2.057-2.538,8.975,8.975,0,0,1,3.126-1.522,14.422,14.422,0,0,1,3.9-.508,12.174,12.174,0,0,1,5.638,1.176,12.631,12.631,0,0,1,3.981,3.259l-2.832,2.565a8.489,8.489,0,0,0-2.672-2.324,8.6,8.6,0,0,0-4.436-1.042,6.121,6.121,0,0,0-4.034,1.148,3.876,3.876,0,0,0-1.363,3.127,3.27,3.27,0,0,0,1.363,2.938,10.133,10.133,0,0,0,3.928,1.336l2.137.322q4.6.694,6.52,2.644a6.96,6.96,0,0,1,1.923,5.1,7.807,7.807,0,0,1-2.725,6.306A11.242,11.242,0,0,1,357.13,304.45Z" fill="#fff"/>
    <path d="M380.59,303.809a4.376,4.376,0,0,1-3.393-1.253,4.658,4.658,0,0,1-1.149-3.28V280.028h-4.543v-3.8h2.565a2.513,2.513,0,0,0,1.9-.56,2.91,2.91,0,0,0,.508-1.951v-5.13h3.848v7.641h6.038v3.8h-6.038v19.987h5.611v3.794Z" fill="#fff"/>
    <path d="M416.768,304.45a16.071,16.071,0,0,1-7.748-1.737,16.435,16.435,0,0,1-5.451-4.782l3.313-2.78a14.518,14.518,0,0,0,4.382,3.982,11.3,11.3,0,0,0,5.665,1.362,8.778,8.778,0,0,0,6.118-1.924,6.6,6.6,0,0,0,2.111-5.13,5.25,5.25,0,0,0-1.6-4.115,12.079,12.079,0,0,0-5.29-2.3l-3.047-.694a17.669,17.669,0,0,1-7.828-3.554,8.464,8.464,0,0,1-2.7-6.707,10.132,10.132,0,0,1,.909-4.382,8.789,8.789,0,0,1,2.538-3.206,11.462,11.462,0,0,1,3.9-1.951,17.7,17.7,0,0,1,5-.668,15.7,15.7,0,0,1,7.24,1.55,13.947,13.947,0,0,1,5.1,4.543l-3.367,2.458a11.619,11.619,0,0,0-3.741-3.367,11.017,11.017,0,0,0-5.45-1.229,9.293,9.293,0,0,0-5.638,1.523,5.319,5.319,0,0,0-2.058,4.569,4.816,4.816,0,0,0,1.737,4.035,13.443,13.443,0,0,0,5.264,2.164l3.046.695q5.5,1.23,7.963,3.741a9.141,9.141,0,0,1,2.458,6.68,11.818,11.818,0,0,1-.882,4.649,9.546,9.546,0,0,1-2.538,3.527,11.8,11.8,0,0,1-4.035,2.244A16.752,16.752,0,0,1,416.768,304.45Z" fill="#fff"/>
    <path d="M443.007,303.809a4.376,4.376,0,0,1-3.393-1.253,4.658,4.658,0,0,1-1.149-3.28V280.028h-4.543v-3.8h2.565a2.513,2.513,0,0,0,1.9-.56,2.91,2.91,0,0,0,.508-1.951v-5.13h3.848v7.641h6.038v3.8H442.74v19.987h5.611v3.794Z" fill="#fff"/>
    <path d="M475.711,303.809a4.193,4.193,0,0,1-3.446-1.283,6.341,6.341,0,0,1-1.309-3.207h-.268a7.138,7.138,0,0,1-2.992,3.848,9.3,9.3,0,0,1-4.97,1.283,9.668,9.668,0,0,1-6.814-2.245,7.882,7.882,0,0,1-2.431-6.092,6.958,6.958,0,0,1,2.859-5.985q2.858-2.085,8.9-2.084h5.451v-2.726a5.96,5.96,0,0,0-1.6-4.489,6.846,6.846,0,0,0-4.917-1.549,7.4,7.4,0,0,0-4.194,1.122,9.247,9.247,0,0,0-2.806,2.993l-2.565-2.4a9.734,9.734,0,0,1,3.581-3.821,11.271,11.271,0,0,1,6.2-1.576q5.023,0,7.8,2.453a8.629,8.629,0,0,1,2.778,6.825v15.144h3.153v3.794Zm-12.291-2.993a10.9,10.9,0,0,0,2.94-.374,7.193,7.193,0,0,0,2.3-1.069,5.3,5.3,0,0,0,1.5-1.6,3.829,3.829,0,0,0,.534-1.977V291.25h-5.665a10.33,10.33,0,0,0-5.37,1.069,3.453,3.453,0,0,0-1.683,3.1v1.122a3.733,3.733,0,0,0,1.469,3.152A6.4,6.4,0,0,0,463.42,300.816Z" fill="#fff"/>
    <path d="M484.208,303.809V276.233h4.275v5.078h.268a8.325,8.325,0,0,1,2.672-3.528,8.214,8.214,0,0,1,5.29-1.55h1.657v4.276h-2.512a9.65,9.65,0,0,0-5.424,1.309,3.861,3.861,0,0,0-1.951,3.286v18.705Z" fill="#fff"/>
    <path d="M510.125,303.809a4.377,4.377,0,0,1-3.393-1.253,4.663,4.663,0,0,1-1.149-3.28V280.028h-4.542v-3.8h2.565a2.514,2.514,0,0,0,1.9-.56,2.916,2.916,0,0,0,.508-1.951v-5.13h3.847v7.641H515.9v3.8h-6.039v19.987h5.612v3.794Z" fill="#fff"/>
    <path d="M316.516,359.3H292.041v-4.6l12.184-11.223a27.063,27.063,0,0,0,4.382-5.118,9.891,9.891,0,0,0,1.764-5.44v-.643a7.314,7.314,0,0,0-1.711-5.038,6.571,6.571,0,0,0-5.183-1.93,8.518,8.518,0,0,0-2.993.481,6.756,6.756,0,0,0-2.217,1.336,7.432,7.432,0,0,0-1.55,2,12.211,12.211,0,0,0-.989,2.485l-4.008-1.55a15.925,15.925,0,0,1,1.469-3.232,10.838,10.838,0,0,1,5.772-4.74,13.684,13.684,0,0,1,4.729-.739,13.824,13.824,0,0,1,4.864.8,9.6,9.6,0,0,1,5.8,5.661,11.913,11.913,0,0,1,.774,4.378,12.944,12.944,0,0,1-.614,4.059,15.85,15.85,0,0,1-1.683,3.551,21.6,21.6,0,0,1-2.592,3.284q-1.523,1.6-3.287,3.2L296.9,355.35h19.612Z" fill="#fff"/>
    <path d="M336.128,359.945q-6.681,0-9.753-5.077T323.3,340.653q0-9.137,3.072-14.215t9.753-5.077q6.68,0,9.753,5.077t3.073,14.215q0,9.138-3.073,14.215T336.128,359.945Zm0-3.955a7.3,7.3,0,0,0,3.741-.905,6.923,6.923,0,0,0,2.511-2.556,12.67,12.67,0,0,0,1.417-3.887,25.016,25.016,0,0,0,.454-4.954v-6.07a25,25,0,0,0-.454-4.952,12.686,12.686,0,0,0-1.417-3.888,6.931,6.931,0,0,0-2.511-2.556,8.177,8.177,0,0,0-7.482,0,6.941,6.941,0,0,0-2.512,2.556,12.712,12.712,0,0,0-1.416,3.888,24.928,24.928,0,0,0-.454,4.952v6.07a24.942,24.942,0,0,0,.454,4.954,12.7,12.7,0,0,0,1.416,3.887,6.934,6.934,0,0,0,2.512,2.556A7.29,7.29,0,0,0,336.128,355.99Z" fill="#fff"/>
    <path d="M380.643,359.3H356.167v-4.6l12.185-11.223a27.02,27.02,0,0,0,4.381-5.118,9.891,9.891,0,0,0,1.764-5.44v-.643a7.314,7.314,0,0,0-1.71-5.038,6.574,6.574,0,0,0-5.184-1.93,8.512,8.512,0,0,0-2.992.481,6.76,6.76,0,0,0-2.218,1.336,7.432,7.432,0,0,0-1.55,2,12.269,12.269,0,0,0-.989,2.485l-4.007-1.55a15.817,15.817,0,0,1,1.469-3.232,10.831,10.831,0,0,1,5.771-4.74,15.33,15.33,0,0,1,9.593.062,9.6,9.6,0,0,1,5.8,5.661,11.913,11.913,0,0,1,.775,4.378,12.944,12.944,0,0,1-.614,4.059,15.854,15.854,0,0,1-1.684,3.551,21.542,21.542,0,0,1-2.592,3.284q-1.522,1.6-3.286,3.2L361.03,355.35h19.613Z" fill="#fff"/>
    <path d="M388.925,359.3V355.35h10.421V325.316h-.374l-9.406,8.764-2.618-2.832L396.834,322h7V355.35h9.619V359.3Z" fill="#fff"/>
  </g>
  <g>
    <g mask="url(#ff4e9a54-7ab5-4291-b384-85fb05be247c)">
      <rect id="bd6158d9-0d61-49c4-bfd8-df3b2974e492" data-name="hexagon" x="69.123" y="192.799" width="184.976" height="184.976" transform="translate(-123.675 446.898) rotate(-90)" fill="url(#a50fa8d0-2c32-46b2-b486-72c60a80c29f)"/>
    </g>
    <circle cx="132.709" cy="279.506" r="5.78" fill="none" stroke="#fff" stroke-linejoin="round" stroke-width="4.162"/>
    <circle cx="167.392" cy="279.506" r="5.78" fill="none" stroke="#fff" stroke-linejoin="round" stroke-width="4.162"/>
    <circle cx="167.392" cy="314.189" r="5.78" fill="none" stroke="#fff" stroke-linejoin="round" stroke-width="4.162"/>
  </g>
</svg>
