<svg xmlns="http://www.w3.org/2000/svg" width="240" height="240" viewBox="0 0 240 240">
  <g fill="none" fill-rule="evenodd">
    <polygon fill="#97C1FF" fill-rule="nonzero" points="161 179 168 179 168 198 161 198" transform="rotate(90 164.5 188.5)"/>
    <rect width="7" height="106" x="96.5" y="135.5" fill="#0062FF" fill-rule="nonzero" transform="rotate(90 100 188.5)"/>
    <polygon fill="#97C1FF" fill-rule="nonzero" points="125.5 135.5 132.5 135.5 132.5 193.5 125.5 193.5" transform="rotate(90 129 164.5)"/>
    <rect width="7" height="51" x="69" y="139" fill="#0062FF" fill-rule="nonzero" transform="rotate(90 72.5 164.5)"/>
    <polygon fill="#97C1FF" fill-rule="nonzero" points="82.5 134.5 89.5 134.5 89.5 146.5 82.5 146.5" transform="rotate(90 86 140.5)"/>
    <rect width="7" height="31" x="59" y="125" fill="#0062FF" fill-rule="nonzero" transform="rotate(90 62.5 140.5)"/>
    <polygon fill="#97C1FF" fill-rule="nonzero" points="168 95 175 95 175 138 168 138" transform="rotate(90 171.5 116.5)"/>
    <polygon fill="#0062FF" fill-rule="nonzero" points="94 66 101 66 101 167 94 167" transform="rotate(90 97.5 116.5)"/>
    <rect width="2" height="7" x="148" y="113" fill="#FFF" fill-rule="nonzero"/>
    <rect width="2" height="7" x="78" y="137" fill="#FFF" fill-rule="nonzero"/>
    <rect width="2" height="7" x="153" y="185" fill="#FFF" fill-rule="nonzero"/>
    <rect width="2" height="7" x="98" y="161" fill="#FFF" fill-rule="nonzero"/>
  </g>
</svg>
