<?xml version="1.0" encoding="UTF-8"?>
<svg width="240px" height="240px" viewBox="0 0 240 240" version="1.1" xmlns="http://www.w3.org/2000/svg" xmlns:xlink="http://www.w3.org/1999/xlink">
    <!-- Generator: Sketch 58 (84663) - https://sketch.com -->
    <title>Group 6treediagram</title>
    <desc>Created with Sketch.</desc>
    <g id="Data-vis-pages" stroke="none" stroke-width="1" fill="none" fill-rule="evenodd">
        <g id="Dataviz-overview-1-Copy-2" transform="translate(40, 96)">
            <g id="Group-6">
                <rect id="Rectangle" fill="#0062FF" x="0" y="42" width="24" height="10"></rect>
                <rect id="Rectangle-Copy-167" fill="#0062FF" x="122" y="0" width="26" height="10"></rect>
                <rect id="Rectangle-Copy-169" fill="#0062FF" x="122" y="24" width="26" height="10"></rect>
                <path d="M61,17 C43.6791179,17 41.7347505,47 23,47" id="Stroke-1" stroke="#0062FF" stroke-width="0.5"></path>
                <path d="M86,17 C102.409257,17 104.251289,29 122,29" id="Stroke-3-Copy-4" stroke="#0062FF" stroke-width="0.5"></path>
                <path d="M86,5 C102.409257,5 104.251289,17 122,17" id="Stroke-3-Copy-5" stroke="#0062FF" stroke-width="0.5" transform="translate(104.000000, 11.000000) scale(1, -1) translate(-104.000000, -11.000000) "></path>
                <path d="M61,47 C43.6791179,47 41.7347505,77 23,77" id="Stroke-1" stroke="#0062FF" stroke-width="0.5" transform="translate(42.000000, 62.000000) scale(1, -1) translate(-42.000000, -62.000000) "></path>
                <path d="M84.4893617,17 L129.755319,17.5" id="Path-2-Copy-2" stroke="#146EFF" stroke-width="0.5"></path>
                <rect id="Rectangle-Copy-160" fill="#0062FF" x="61" y="12" width="26" height="10"></rect>
                <rect id="Rectangle-Copy-161" fill="#0062FF" x="61" y="71" width="26" height="10"></rect>
                <rect id="Rectangle-Copy-168" fill="#0062FF" x="122" y="12" width="26" height="10"></rect>
                <rect id="Rectangle-Copy-319" fill="#0062FF" x="122" y="71" width="26" height="10"></rect>
                <rect id="Rectangle-Copy-322" fill="#0062FF" x="122" y="59" width="26" height="10"></rect>
                <rect id="Rectangle-Copy-323" fill="#0062FF" x="122" y="83" width="26" height="10"></rect>
                <path d="M86,76 C102.409257,76 104.251289,88 122,88" id="Stroke-3-Copy-10" stroke="#0062FF" stroke-width="0.5"></path>
                <path d="M86,64 C102.409257,64 104.251289,76 122,76" id="Stroke-3-Copy-11" stroke="#0062FF" stroke-width="0.5" transform="translate(104.000000, 70.000000) scale(1, -1) translate(-104.000000, -70.000000) "></path>
                <path d="M84.4893617,76 L129.755319,76.5" id="Path-2-Copy-3" stroke="#146EFF" stroke-width="0.5"></path>
            </g>
        </g>
    </g>
</svg>
