<svg width="85" height="85" viewBox="0 0 85 85" fill="none" xmlns="http://www.w3.org/2000/svg">
<path d="M78.6786 46.5094L62.8214 37.2642C62.2929 37 62.0286 37 61.5 37C60.9714 37 60.4429 37 60.1786 37.2642L44.3214 46.5094C43.5286 47.0377 43 47.8302 43 48.8868V67.1132C43 68.1698 43.5286 68.9623 44.3214 69.4906L60.1786 78.7358C60.7071 79 60.9714 79 61.5 79C62.0286 79 62.5571 79 62.8214 78.7358L78.6786 69.4906C79.4714 68.9623 80 68.1698 80 67.1132V48.8868C80 47.8302 79.4714 47.0377 78.6786 46.5094ZM74.7143 65.5283L61.5 73.4528L48.2857 65.5283V50.2075L61.5 42.283L74.7143 50.2075V65.5283Z" fill="black"/>
<path d="M62.3843 11.6832C60.7829 11.6832 58.9146 11.9505 57.3132 12.4851C54.3772 8.74257 50.1068 6.60396 45.5694 6.60396C42.3665 6.60396 39.4306 7.67327 37.0285 9.27723C34.0925 6.60396 30.089 5 26.0854 5C21.8149 5 17.8114 6.60396 14.6085 9.81188C11.6726 12.7525 9.80427 16.7624 9.80427 21.0396C9.80427 22.6436 10.0712 23.9802 10.3381 25.3168C7.13523 27.9901 5 32.2673 5 36.5446C5 44.5644 11.4057 50.9802 19.1459 50.9802H19.9466C22.6157 55.7921 27.6868 59 33.2918 59C34.6263 59 35.6939 58.7327 37.0285 58.4653V52.8515C35.9609 53.3861 34.6263 53.6535 33.2918 53.6535C29.2883 53.6535 25.5516 50.9802 24.2171 47.2376L23.4164 45.099L21.2811 45.6337C20.7473 45.6337 19.9466 45.901 19.4128 45.901C14.6085 45.901 10.605 41.8911 10.605 36.8119C10.605 33.604 12.2064 30.6634 15.1423 29.0594L17.2776 27.7228L16.21 25.5842C15.6762 24.2475 15.4093 22.9109 15.4093 21.3069C15.4093 18.3663 16.4769 15.6931 18.6121 13.8218C20.7473 11.6832 23.4164 10.6139 26.3523 10.6139C29.8221 10.6139 33.0249 12.2178 34.8932 14.8911L36.4947 17.0297L39.6975 14.3564C41.5658 12.7525 43.7011 11.9505 45.8363 11.9505C49.3061 11.9505 52.5089 13.8218 54.1103 17.0297L55.1779 19.1683L57.3132 18.099C58.9146 17.297 60.516 17.0297 62.3843 17.0297C69.0569 17.0297 74.6619 22.6436 74.6619 29.5941C74.6619 32.5347 73.5943 34.9406 71.9929 37.0792L76.7971 39.7525C78.9324 36.8119 80 33.3366 80 29.5941C80 19.703 71.9929 11.6832 62.3843 11.6832Z" fill="black"/>
</svg>
