<svg width="32" height="32" viewBox="0 0 32 32" fill="none" xmlns="http://www.w3.org/2000/svg">
<path d="M29.6202 17.5094L23.6504 14.0289C23.4514 13.9294 23.3519 13.9294 23.1529 13.9294C22.9539 13.9294 22.755 13.9294 22.6555 14.0289L16.6857 17.5094C16.3872 17.7083 16.1882 18.0067 16.1882 18.4044V25.2661C16.1882 25.6639 16.3872 25.9623 16.6857 26.1612L22.6555 29.6417C22.8545 29.7412 22.9539 29.7412 23.1529 29.7412C23.3519 29.7412 23.5509 29.7412 23.6504 29.6417L29.6202 26.1612C29.9187 25.9623 30.1176 25.6639 30.1176 25.2661V18.4044C30.1176 18.0067 29.9187 17.7083 29.6202 17.5094ZM28.1277 24.6695L23.1529 27.6528L18.1781 24.6695V18.9017L23.1529 15.9183L28.1277 18.9017V24.6695Z" fill="black"/>
<path d="M23.4859 4.39837C22.883 4.39837 22.1796 4.49901 21.5767 4.70029C20.4714 3.29132 18.8637 2.4862 17.1555 2.4862C15.9498 2.4862 14.8445 2.88876 13.9401 3.49261C12.8348 2.4862 11.3276 1.88235 9.82039 1.88235C8.21269 1.88235 6.70547 2.4862 5.49969 3.69389C4.39439 4.80093 3.69102 6.31054 3.69102 7.92079C3.69102 8.52464 3.7915 9.02784 3.89198 9.53104C2.68621 10.5375 1.88235 12.1477 1.88235 13.758C1.88235 16.7772 4.29391 19.1925 7.20787 19.1925H7.50932C8.51413 21.0041 10.4233 22.2118 12.5334 22.2118C13.0358 22.2118 13.4377 22.1111 13.9401 22.0105V19.897C13.5382 20.0983 13.0358 20.199 12.5334 20.199C11.0262 20.199 9.61943 19.1925 9.11702 17.7836L8.81558 16.9785L8.01172 17.1797C7.81076 17.1797 7.50932 17.2804 7.30835 17.2804C5.49969 17.2804 3.99247 15.7708 3.99247 13.8586C3.99247 12.6509 4.59535 11.5439 5.70065 10.94L6.5045 10.4368L6.10258 9.63168C5.90161 9.12848 5.80113 8.62528 5.80113 8.02143C5.80113 6.91439 6.20306 5.90798 7.00691 5.2035C7.81076 4.39837 8.81558 3.99581 9.92087 3.99581C11.2271 3.99581 12.4329 4.59965 13.1363 5.60606L13.7392 6.41118L14.9449 5.40478C15.6483 4.80093 16.4522 4.49901 17.256 4.49901C18.5623 4.49901 19.7681 5.2035 20.3709 6.41118L20.7729 7.21631L21.5767 6.81375C22.1796 6.51183 22.7825 6.41118 23.4859 6.41118C25.9979 6.41118 28.108 8.52464 28.108 11.1413C28.108 12.2483 27.7061 13.1541 27.1032 13.9592L28.9119 14.9656C29.7157 13.8586 30.1176 12.5503 30.1176 11.1413C30.1176 7.41759 27.1032 4.39837 23.4859 4.39837Z" fill="black"/>
</svg>
