<svg xmlns="http://www.w3.org/2000/svg" viewBox="0 0 928 522"><g fill="none" fill-rule="evenodd"><path fill="#EDF4FF" d="M464 0h464v522H464z"/><path fill="#054ADA" d="M464 0H0v522h464z"/><path d="M140 353h184V169H140z"/><g fill="#FFF"><path d="M162.997 176.822c-8.372 0-15.18 6.808-15.18 15.18s6.808 15.175 15.18 15.175 15.18-6.803 15.18-15.175-6.808-15.18-15.18-15.18m0 34.5c-10.655 0-19.32-8.67-19.32-19.32 0-10.654 8.665-19.325 19.32-19.325 10.655 0 19.32 8.67 19.32 19.325 0 10.65-8.665 19.32-19.32 19.32m137.994 103.5c-8.372 0-15.18 6.808-15.18 15.18s6.808 15.175 15.18 15.175 15.18-6.803 15.18-15.175-6.808-15.18-15.18-15.18m0 34.5c-10.654 0-19.32-8.67-19.32-19.32 0-10.654 8.666-19.325 19.32-19.325 10.655 0 19.32 8.67 19.32 19.325 0 10.65-8.665 19.32-19.32 19.32m-137.994-22.995c-2.03 0-3.68 1.65-3.68 3.68a3.682 3.682 0 003.68 3.675c2.03 0 3.68-1.65 3.68-3.675 0-2.03-1.65-3.68-3.68-3.68m0 11.5c-4.312 0-7.82-3.507-7.82-7.82 0-4.312 3.508-7.825 7.82-7.825 4.313 0 7.82 3.513 7.82 7.825 0 4.313-3.507 7.82-7.82 7.82m137.994-149.5c-2.03 0-3.68 1.65-3.68 3.68a3.682 3.682 0 003.68 3.675c2.03 0 3.68-1.65 3.68-3.675 0-2.03-1.65-3.68-3.68-3.68m0 11.5c-4.312 0-7.82-3.507-7.82-7.82 0-4.312 3.508-7.825 7.82-7.825 4.313 0 7.82 3.513 7.82 7.825 0 4.313-3.507 7.82-7.82 7.82m-68.994 34.495c-14.714 0-26.68 11.966-26.68 26.68 0 14.709 11.966 26.675 26.68 26.675s26.68-11.966 26.68-26.675c0-14.714-11.966-26.68-26.68-26.68m0 57.5c-16.997 0-30.82-13.828-30.82-30.82 0-16.991 13.823-30.825 30.82-30.825s30.82 13.834 30.82 30.825c0 16.992-13.823 30.82-30.82 30.82"/><path d="M231.997 245.827c-8.372 0-15.18 6.808-15.18 15.18s6.808 15.175 15.18 15.175 15.18-6.803 15.18-15.175-6.808-15.18-15.18-15.18m0 34.5c-10.655 0-19.32-8.67-19.32-19.32 0-10.654 8.665-19.325 19.32-19.325 10.655 0 19.32 8.67 19.32 19.325 0 10.65-8.665 19.32-19.32 19.32"/><path d="M300.991 207.178c-3.685 0-7.02-1.369-9.654-3.565l-1.984-1.99c-2.179-2.628-3.542-5.951-3.542-9.625 0-8.372 6.808-15.175 15.18-15.175s15.18 6.803 15.18 15.175-6.808 15.18-15.18 15.18m-8.032 53.825c-2.755 5.618-20.516 38.18-60.962 38.18-40.445 0-58.207-32.562-60.961-38.18 2.754-5.612 20.516-38.174 60.961-38.174 40.446 0 58.207 32.562 60.962 38.174m-129.962 84.175c-8.372 0-15.18-6.808-15.18-15.18s6.808-15.175 15.18-15.175 15.18 6.803 15.18 15.175-6.808 15.18-15.18 15.18m137.994-172.5c-10.654 0-19.32 8.67-19.32 19.32 0 4.582 1.668 8.74 4.342 12.052l-22.11 22.114c-8.687-4.416-19.21-7.48-31.906-7.48-46.822 0-64.975 41.089-65.153 41.509a2.052 2.052 0 000 1.627c.12.287 8.763 19.837 29.405 32.004l-21.2 21.195c-3.318-2.674-7.475-4.341-12.052-4.341-10.655 0-19.32 8.67-19.32 19.32 0 10.654 8.665 19.325 19.32 19.325 10.655 0 19.32-8.67 19.32-19.325 0-4.583-1.667-8.735-4.341-12.047l22.109-22.108c8.694 4.41 19.21 7.486 31.912 7.486 46.822 0 64.975-41.095 65.153-41.509a2.052 2.052 0 000-1.627c-.12-.288-8.763-19.844-29.41-32.01l21.205-21.2c3.312 2.673 7.47 4.34 12.046 4.34 10.655 0 19.32-8.67 19.32-19.325 0-10.65-8.665-19.32-19.32-19.32"/></g><path d="M604 353h184V169H604z"/><g fill="#054ADA"><path d="M626.997 176.822c-8.372 0-15.18 6.808-15.18 15.18s6.808 15.175 15.18 15.175 15.18-6.803 15.18-15.175-6.808-15.18-15.18-15.18m0 34.5c-10.655 0-19.32-8.67-19.32-19.32 0-10.654 8.665-19.325 19.32-19.325 10.655 0 19.32 8.67 19.32 19.325 0 10.65-8.665 19.32-19.32 19.32m137.994 103.5c-8.372 0-15.18 6.808-15.18 15.18s6.808 15.175 15.18 15.175 15.18-6.803 15.18-15.175-6.808-15.18-15.18-15.18m0 34.5c-10.654 0-19.32-8.67-19.32-19.32 0-10.654 8.666-19.325 19.32-19.325 10.655 0 19.32 8.67 19.32 19.325 0 10.65-8.665 19.32-19.32 19.32m-137.994-22.995c-2.03 0-3.68 1.65-3.68 3.68a3.682 3.682 0 003.68 3.675c2.03 0 3.68-1.65 3.68-3.675 0-2.03-1.65-3.68-3.68-3.68m0 11.5c-4.312 0-7.82-3.507-7.82-7.82 0-4.312 3.508-7.825 7.82-7.825 4.313 0 7.82 3.513 7.82 7.825 0 4.313-3.507 7.82-7.82 7.82m137.994-149.5c-2.03 0-3.68 1.65-3.68 3.68a3.682 3.682 0 003.68 3.675c2.03 0 3.68-1.65 3.68-3.675 0-2.03-1.65-3.68-3.68-3.68m0 11.5c-4.312 0-7.82-3.507-7.82-7.82 0-4.312 3.508-7.825 7.82-7.825 4.313 0 7.82 3.513 7.82 7.825 0 4.313-3.507 7.82-7.82 7.82m-68.994 34.495c-14.714 0-26.68 11.966-26.68 26.68 0 14.709 11.966 26.675 26.68 26.675s26.68-11.966 26.68-26.675c0-14.714-11.966-26.68-26.68-26.68m0 57.5c-16.997 0-30.82-13.828-30.82-30.82 0-16.991 13.823-30.825 30.82-30.825s30.82 13.834 30.82 30.825c0 16.992-13.823 30.82-30.82 30.82"/><path d="M695.997 245.827c-8.372 0-15.18 6.808-15.18 15.18s6.808 15.175 15.18 15.175 15.18-6.803 15.18-15.175-6.808-15.18-15.18-15.18m0 34.5c-10.655 0-19.32-8.67-19.32-19.32 0-10.654 8.665-19.325 19.32-19.325 10.655 0 19.32 8.67 19.32 19.325 0 10.65-8.665 19.32-19.32 19.32"/><path d="M764.991 207.178c-3.685 0-7.02-1.369-9.654-3.565l-1.984-1.99c-2.179-2.628-3.542-5.951-3.542-9.625 0-8.372 6.808-15.175 15.18-15.175s15.18 6.803 15.18 15.175-6.808 15.18-15.18 15.18m-8.032 53.825c-2.755 5.618-20.516 38.18-60.962 38.18-40.445 0-58.207-32.562-60.961-38.18 2.754-5.612 20.516-38.174 60.961-38.174 40.446 0 58.207 32.562 60.962 38.174m-129.962 84.175c-8.372 0-15.18-6.808-15.18-15.18s6.808-15.175 15.18-15.175 15.18 6.803 15.18 15.175-6.808 15.18-15.18 15.18m137.994-172.5c-10.654 0-19.32 8.67-19.32 19.32 0 4.582 1.668 8.74 4.342 12.052l-22.11 22.114c-8.687-4.416-19.21-7.48-31.906-7.48-46.822 0-64.975 41.089-65.153 41.509a2.052 2.052 0 000 1.627c.12.287 8.763 19.837 29.405 32.004l-21.2 21.195c-3.318-2.674-7.475-4.341-12.052-4.341-10.655 0-19.32 8.67-19.32 19.32 0 10.654 8.665 19.325 19.32 19.325 10.655 0 19.32-8.67 19.32-19.325 0-4.583-1.667-8.735-4.341-12.047l22.109-22.108c8.694 4.41 19.21 7.486 31.912 7.486 46.822 0 64.975-41.095 65.153-41.509a2.052 2.052 0 000-1.627c-.12-.288-8.763-19.844-29.41-32.01l21.205-21.2c3.312 2.673 7.47 4.34 12.046 4.34 10.655 0 19.32-8.67 19.32-19.325 0-10.65-8.665-19.32-19.32-19.32"/></g></g></svg>