<?xml version="1.0" encoding="utf-8"?>
<!-- Generator: Adobe Illustrator 25.3.1, SVG Export Plug-In . SVG Version: 6.00 Build 0)  -->
<svg version="1.1" id="icon" xmlns="http://www.w3.org/2000/svg" xmlns:xlink="http://www.w3.org/1999/xlink" x="0px" y="0px"
	 viewBox="0 0 32 32" style="enable-background:new 0 0 32 32;" xml:space="preserve">
<style type="text/css">
	.st0{fill:none;}
	.st1{fill:#FF832B;}
	.st2{fill:#BA4E00;}
	.st3{fill:#231F20;}
</style>
<path id="inner-path" class="st0" d="M16,20c-0.8,0-1.5-0.7-1.5-1.5S15.2,17,16,17c0.8,0,1.5,0.7,1.5,1.5S16.8,20,16,20z M14.9,15
	h2.2V6h-2.2C14.9,6,14.9,15,14.9,15z"/>
<path class="st1" d="M28.3,4H3.7h0.1L16,25.8l0,0L28.4,4H28.3z M14.9,6h2.2v9h-2.2C14.9,15,14.9,6,14.9,6z M16,20
	c-0.8,0-1.5-0.7-1.5-1.5S15.2,17,16,17c0.8,0,1.5,0.7,1.5,1.5S16.8,20,16,20z"/>
<path class="st2" d="M29.9,2.5c0.2,0.3,0.2,0.7,0,1l-13,25c-0.3,0.5-0.9,0.7-1.3,0.4c-0.2-0.1-0.3-0.2-0.4-0.4l-13-25
	C1.9,3,2,2.4,2.5,2.1C2.7,2,2.8,2,3,2h26C29.3,2,29.7,2.2,29.9,2.5z M4.6,4L16,25.8l0,0L27.4,4l0,0H4.6L4.6,4z"/>
<rect id="_Transparent_Rectangle_" class="st0" width="32" height="32"/>
<g>
	<circle class="st3" cx="16" cy="18.5" r="1.5"/>
	<rect x="14.9" y="6" class="st3" width="2.2" height="9"/>
</g>
</svg>
