<?xml version="1.0" encoding="utf-8"?>
<!-- Generator: Adobe Illustrator 25.3.1, SVG Export Plug-In . SVG Version: 6.00 Build 0)  -->
<svg version="1.1" id="Layer_1" xmlns="http://www.w3.org/2000/svg" xmlns:xlink="http://www.w3.org/1999/xlink" x="0px" y="0px"
	 viewBox="0 0 20 20" style="enable-background:new 0 0 20 20;" xml:space="preserve">
<style type="text/css">
	.st0{fill:#BA4E00;}
	.st1{fill:none;}
</style>
<g id="Structure">
	<g id="warning--alt-inverted">
		<path id="Path" class="st0" d="M10,10.6c-0.5,0-0.9,0.4-0.9,0.9s0.4,0.9,0.9,0.9s0.9-0.4,0.9-0.9S10.5,10.6,10,10.6z"/>
		<rect id="Rectangle" x="9.4" y="3.8" class="st0" width="1.2" height="5.6"/>
		<path id="Shape" class="st0" d="M18.7,1.6c0.1,0.2,0.1,0.4,0,0.6l-8.1,15.6c-0.1,0.2-0.3,0.3-0.6,0.3S9.6,18,9.4,17.8L1.3,2.2
			C1.2,2,1.2,1.7,1.3,1.6c0.1-0.2,0.3-0.3,0.5-0.3h16.2C18.3,1.2,18.5,1.4,18.7,1.6z M2.9,2.5L10,16.1h0l7.1-13.6l0,0L2.9,2.5
			L2.9,2.5z"/>
		<rect id="_Transparent_Rectangle_" class="st1" width="20" height="20"/>
	</g>
</g>
</svg>
