<svg id="e0418501-ae67-4b48-a7e5-bd5740c8acd1" data-name="Layer 1" xmlns="http://www.w3.org/2000/svg" xmlns:xlink="http://www.w3.org/1999/xlink" viewBox="0 0 1152 1152">
  <defs>
    <linearGradient id="ae543c03-fd9d-4562-8fcc-72c99fff317c" x1="690.911" y1="847.23" x2="690.911" y2="384.631" gradientUnits="userSpaceOnUse">
      <stop offset="0.1" stop-color="#fff"/>
      <stop offset="1"/>
    </linearGradient>
    <linearGradient id="a9b0825a-37c5-4e07-abd7-7661ada99f99" x1="918.799" y1="391.452" x2="918.799" y2="761.039" gradientUnits="userSpaceOnUse">
      <stop offset="0" stop-color="#fff"/>
      <stop offset="0.138" stop-color="#f6f6f6"/>
      <stop offset="0.363" stop-color="#dedede"/>
      <stop offset="0.646" stop-color="#b6b6b6"/>
      <stop offset="0.9" stop-color="#8d8d8d"/>
    </linearGradient>
    <linearGradient id="e0eded9d-f4ee-4630-93f0-ea980269c20f" x1="734.006" y1="391.452" x2="734.006" y2="761.039" gradientUnits="userSpaceOnUse">
      <stop offset="0"/>
      <stop offset="0.9" stop-color="#8d8d8d"/>
    </linearGradient>
    <linearGradient id="a432b409-0df1-4820-b192-01dc76674a5c" x1="-4458.281" y1="-1837.471" x2="-4458.281" y2="-1640.266" gradientTransform="translate(5243.31 -1381.531) rotate(-45)" xlink:href="#a9b0825a-37c5-4e07-abd7-7661ada99f99"/>
    <linearGradient id="afac1883-d6f6-4be4-9b63-b02c3cb39102" x1="-4556.883" y1="-1837.471" x2="-4556.883" y2="-1640.266" gradientTransform="translate(5243.31 -1381.531) rotate(-45)" xlink:href="#e0eded9d-f4ee-4630-93f0-ea980269c20f"/>
    <linearGradient id="bad895b1-b674-4f11-9c3d-cab2913aac58" x1="0.329" y1="609.999" x2="2.175" y2="609.999" gradientTransform="matrix(0, 369.411, 369.411, 0, -224764.602, 60.589)" gradientUnits="userSpaceOnUse">
      <stop offset="0" stop-color="#3d3d3d"/>
      <stop offset="1" stop-color="#171717"/>
    </linearGradient>
    <mask id="eb5803bc-12c2-4d28-959a-4ff38a1d8c14" x="550.592" y="300.435" width="551.622" height="551.622" maskUnits="userSpaceOnUse">
      <g>
        <path d="M643.564,393.407A257.767,257.767,0,0,0,567.83,576.246c0,142.805,115.767,258.572,258.573,258.572" fill="none" stroke-linejoin="round" stroke-width="24.823" stroke="url(#ae543c03-fd9d-4562-8fcc-72c99fff317c)"/>
        <path d="M826.4,834.818c142.8,0,258.572-115.767,258.572-258.572S969.208,317.673,826.4,317.673a257.767,257.767,0,0,0-182.839,75.734" fill="none" stroke="#fff" stroke-linecap="round" stroke-linejoin="round" stroke-width="24.823"/>
        <path d="M643.564,410.647A17.238,17.238,0,1,1,660.8,393.409,17.258,17.258,0,0,1,643.564,410.647Z"/>
        <path d="M826.4,748.627a172.382,172.382,0,0,0,0-344.763" fill="none" stroke-linejoin="round" stroke-width="24.823" stroke="url(#a9b0825a-37c5-4e07-abd7-7661ada99f99)"/>
        <path d="M826.4,403.864a172.382,172.382,0,1,0,0,344.763" fill="none" stroke-linejoin="round" stroke-width="24.823" stroke="url(#e0eded9d-f4ee-4630-93f0-ea980269c20f)"/>
        <path d="M887.349,637.192A86.191,86.191,0,0,0,765.456,515.3" fill="none" stroke-linejoin="round" stroke-width="24.823" stroke="url(#a432b409-0df1-4820-b192-01dc76674a5c)"/>
        <path d="M765.456,515.3A86.191,86.191,0,0,0,887.349,637.192" fill="none" stroke-linejoin="round" stroke-width="24.823" stroke="url(#afac1883-d6f6-4be4-9b63-b02c3cb39102)"/>
        <path d="M765.46,498.063A17.238,17.238,0,1,0,782.7,515.3,17.26,17.26,0,0,0,765.46,498.063Z"/>
        <circle cx="826.403" cy="403.864" r="17.238"/>
      </g>
      <rect x="1039.356" y="300.969" width="62.194" height="550.379" transform="translate(2140.906 1152.318) rotate(180)"/>
    </mask>
    <linearGradient id="a2519c3d-208e-4980-a565-b1ac2fdfe41e" x1="550.592" y1="852.056" x2="1102.213" y2="300.435" gradientUnits="userSpaceOnUse">
      <stop offset="0.1" stop-color="#3ddbd9"/>
      <stop offset="0.9" stop-color="#4589ff"/>
    </linearGradient>
  </defs>
  <rect width="1152" height="1152" fill="#3d3d3d"/>
  <rect width="1152" height="864" fill="url(#bad895b1-b674-4f11-9c3d-cab2913aac58)"/>
  <rect x="112.644" y="288" width="926.712" height="576"/>
  <g>
    <path d="M150.364,340.344a7.7,7.7,0,0,1-6.432-2.9q-2.272-2.895-2.272-8.592,0-5.664,2.272-8.64a7.618,7.618,0,0,1,6.432-2.976,7.8,7.8,0,0,1,4.528,1.264,8.385,8.385,0,0,1,2.864,3.472l-1.568.928a6.456,6.456,0,0,0-2.224-2.9,6,6,0,0,0-3.6-1.072,5.869,5.869,0,0,0-4.9,2.248,10.209,10.209,0,0,0-1.76,6.42v2.537q0,4.14,1.76,6.324a5.936,5.936,0,0,0,4.9,2.183,6.031,6.031,0,0,0,3.744-1.136,6.766,6.766,0,0,0,2.24-3.056l1.568.928A8.286,8.286,0,0,1,155,339.016,7.958,7.958,0,0,1,150.364,340.344Z" fill="#fff"/>
    <path d="M162.364,339.96V323.576h1.824v2.944h.128a5.08,5.08,0,0,1,1.632-2.048,5.215,5.215,0,0,1,3.264-.9H170.3v1.792h-1.44a5.834,5.834,0,0,0-3.36.9,2.855,2.855,0,0,0-1.312,2.5v11.2Z" fill="#fff"/>
    <path d="M179.58,340.344a7.359,7.359,0,0,1-2.96-.576,6.188,6.188,0,0,1-2.272-1.68,7.511,7.511,0,0,1-1.44-2.7,12.189,12.189,0,0,1-.5-3.616,12.027,12.027,0,0,1,.5-3.6,7.541,7.541,0,0,1,1.44-2.689,6.4,6.4,0,0,1,2.256-1.695,7.084,7.084,0,0,1,2.943-.592,6.689,6.689,0,0,1,2.849.594,6.271,6.271,0,0,1,2.176,1.654,7.657,7.657,0,0,1,1.391,2.553,10.388,10.388,0,0,1,.5,3.292v.867H174.332v.8a7.18,7.18,0,0,0,.368,2.352,5.267,5.267,0,0,0,1.055,1.84,4.791,4.791,0,0,0,1.681,1.2,5.556,5.556,0,0,0,2.24.432,4.966,4.966,0,0,0,4.96-3.3l1.343.891a6.346,6.346,0,0,1-2.416,2.893A7.107,7.107,0,0,1,179.58,340.344Zm-.033-15.584a5.168,5.168,0,0,0-2.144.432,4.867,4.867,0,0,0-1.648,1.2,5.276,5.276,0,0,0-1.055,1.84,7.188,7.188,0,0,0-.368,2.352v.16h10.144v-.256a7.525,7.525,0,0,0-.352-2.352,5.059,5.059,0,0,0-1.008-1.808,4.679,4.679,0,0,0-1.569-1.152A4.768,4.768,0,0,0,179.547,324.76Z" fill="#fff"/>
    <path d="M202.364,339.96a1.947,1.947,0,0,1-1.536-.544,2.4,2.4,0,0,1-.544-1.472v-.576h-.16a4.483,4.483,0,0,1-1.792,2.176,6.823,6.823,0,0,1-7.168-.468,4.571,4.571,0,0,1-1.409-3.58,4.264,4.264,0,0,1,1.553-3.468q1.551-1.283,5.1-1.284h3.776v-1.92q0-4.064-4.192-4.064a4.654,4.654,0,0,0-4.48,2.656l-1.152-.953a5.7,5.7,0,0,1,2.064-2.35,6.47,6.47,0,0,1,3.632-.921,6.213,6.213,0,0,1,4.416,1.443,5.275,5.275,0,0,1,1.536,4.041v9.716h2.208v1.568Zm-6.945-1.184a6.484,6.484,0,0,0,1.856-.257,5.117,5.117,0,0,0,1.52-.723,3.436,3.436,0,0,0,1.024-1.126,3.02,3.02,0,0,0,.369-1.5V332.12h-3.84a6.271,6.271,0,0,0-3.569.788,2.52,2.52,0,0,0-1.1,2.17v.772a2.522,2.522,0,0,0,1.025,2.186A4.545,4.545,0,0,0,195.419,338.776Z" fill="#fff"/>
    <path d="M210.811,339.96a1.965,1.965,0,0,1-1.5-.545,2.065,2.065,0,0,1-.512-1.476v-12.8h-2.848v-1.568H207.8a1.194,1.194,0,0,0,.912-.272,1.5,1.5,0,0,0,.24-.976V319h1.664v4.576h3.712v1.568h-3.712v13.248h3.456v1.568Z" fill="#fff"/>
    <path d="M224.475,340.344a7.362,7.362,0,0,1-2.96-.576,6.188,6.188,0,0,1-2.272-1.68,7.542,7.542,0,0,1-1.44-2.7,12.189,12.189,0,0,1-.5-3.616,12.027,12.027,0,0,1,.5-3.6,7.573,7.573,0,0,1,1.44-2.689,6.4,6.4,0,0,1,2.256-1.695,7.092,7.092,0,0,1,2.944-.592,6.685,6.685,0,0,1,2.848.594,6.262,6.262,0,0,1,2.176,1.654,7.641,7.641,0,0,1,1.392,2.553,10.416,10.416,0,0,1,.5,3.292v.867H219.227v.8a7.206,7.206,0,0,0,.368,2.352,5.284,5.284,0,0,0,1.056,1.84,4.778,4.778,0,0,0,1.68,1.2,5.556,5.556,0,0,0,2.24.432,4.964,4.964,0,0,0,4.96-3.3l1.344.891a6.352,6.352,0,0,1-2.416,2.893A7.11,7.11,0,0,1,224.475,340.344Zm-.032-15.584a5.168,5.168,0,0,0-2.144.432,4.847,4.847,0,0,0-1.648,1.2,5.293,5.293,0,0,0-1.056,1.84,7.215,7.215,0,0,0-.368,2.352v.16h10.144v-.256a7.525,7.525,0,0,0-.352-2.352,5.059,5.059,0,0,0-1.008-1.808,4.675,4.675,0,0,0-1.568-1.152A4.768,4.768,0,0,0,224.443,324.76Z" fill="#fff"/>
    <path d="M254.811,339.96a1.949,1.949,0,0,1-1.536-.544,2.4,2.4,0,0,1-.544-1.472v-.576h-.16a4.483,4.483,0,0,1-1.792,2.176,6.823,6.823,0,0,1-7.168-.468,4.57,4.57,0,0,1-1.408-3.58,4.267,4.267,0,0,1,1.552-3.468q1.551-1.283,5.1-1.284h3.776v-1.92q0-4.064-4.192-4.064a4.657,4.657,0,0,0-4.48,2.656l-1.152-.953a5.7,5.7,0,0,1,2.064-2.35,6.472,6.472,0,0,1,3.632-.921,6.211,6.211,0,0,1,4.416,1.443,5.275,5.275,0,0,1,1.536,4.041v9.716h2.208v1.568Zm-6.944-1.184a6.494,6.494,0,0,0,1.856-.257,5.141,5.141,0,0,0,1.52-.723,3.447,3.447,0,0,0,1.024-1.126,3.02,3.02,0,0,0,.368-1.5V332.12H248.8a6.265,6.265,0,0,0-3.568.788,2.52,2.52,0,0,0-1.1,2.17v.772a2.521,2.521,0,0,0,1.024,2.186A4.546,4.546,0,0,0,247.867,338.776Z" fill="#fff"/>
  </g>
  <g>
    <path d="M145.436,377.944a1.962,1.962,0,0,1-1.5-.545,2.064,2.064,0,0,1-.512-1.475v-12.8h-2.848v-1.567h1.856a1.19,1.19,0,0,0,.912-.273,1.5,1.5,0,0,0,.24-.976v-3.328h1.664v4.577h3.712v1.567h-3.712v13.248H148.7v1.568Z" fill="#fff"/>
    <path d="M153.34,377.944V361.561h1.824V364.5h.128a5.087,5.087,0,0,1,1.632-2.048,5.215,5.215,0,0,1,3.264-.9h1.088v1.792h-1.44a5.834,5.834,0,0,0-3.36.895,2.857,2.857,0,0,0-1.312,2.5v11.2Z" fill="#fff"/>
    <path d="M175,375.353h-.128a5.308,5.308,0,0,1-.607,1.12,3.879,3.879,0,0,1-.96.943,5.178,5.178,0,0,1-1.36.656,5.936,5.936,0,0,1-1.841.256,5.256,5.256,0,0,1-4.095-1.616,6.624,6.624,0,0,1-1.472-4.624V361.561h1.824v10.175a5.482,5.482,0,0,0,1.088,3.744,3.986,3.986,0,0,0,3.135,1.216,5.992,5.992,0,0,0,1.649-.223,4.537,4.537,0,0,0,1.408-.672,3.3,3.3,0,0,0,.992-1.137,3.39,3.39,0,0,0,.367-1.616V361.561h1.825v16.383H175Z" fill="#fff"/>
    <path d="M187.419,378.328a7.219,7.219,0,0,1-6.3-3.136l1.344-1.055a6.916,6.916,0,0,0,2.24,1.983,6.028,6.028,0,0,0,2.848.641,4.634,4.634,0,0,0,2.912-.8,3.105,3.105,0,0,0,.24-4.367,4.64,4.64,0,0,0-2.576-1.009l-1.344-.224a10.989,10.989,0,0,1-2.048-.48,5.011,5.011,0,0,1-1.584-.863,3.8,3.8,0,0,1-1.024-1.329,5.007,5.007,0,0,1,.064-3.919,4.159,4.159,0,0,1,1.168-1.441,5.029,5.029,0,0,1,1.76-.864,8.131,8.131,0,0,1,2.208-.287,7.079,7.079,0,0,1,3.36.7,7.474,7.474,0,0,1,2.24,1.824l-1.216,1.12A6.879,6.879,0,0,0,190,363.4a5.242,5.242,0,0,0-2.768-.656,4.321,4.321,0,0,0-2.736.769,2.605,2.605,0,0,0-.976,2.175,2.4,2.4,0,0,0,.88,2.081,6.268,6.268,0,0,0,2.64.927l1.312.193a6.952,6.952,0,0,1,3.7,1.487,3.987,3.987,0,0,1,1.2,3.088,4.386,4.386,0,0,1-1.552,3.584A6.525,6.525,0,0,1,187.419,378.328Z" fill="#fff"/>
    <path d="M200.763,377.944a1.962,1.962,0,0,1-1.5-.545,2.064,2.064,0,0,1-.512-1.475v-12.8H195.9v-1.567h1.856a1.19,1.19,0,0,0,.912-.273,1.5,1.5,0,0,0,.24-.976v-3.328h1.664v4.577h3.712v1.567h-3.712v13.248h3.456v1.568Z" fill="#fff"/>
    <path d="M214.427,378.328a7.346,7.346,0,0,1-2.96-.576,6.177,6.177,0,0,1-2.272-1.68,7.5,7.5,0,0,1-1.44-2.7,12.179,12.179,0,0,1-.5-3.616,12.027,12.027,0,0,1,.5-3.6,7.537,7.537,0,0,1,1.44-2.688,6.392,6.392,0,0,1,2.256-1.695,7.073,7.073,0,0,1,2.944-.592,6.673,6.673,0,0,1,2.848.594,6.259,6.259,0,0,1,2.176,1.654,7.649,7.649,0,0,1,1.392,2.553,10.412,10.412,0,0,1,.5,3.292v.867H209.179v.8a7.178,7.178,0,0,0,.368,2.351,5.284,5.284,0,0,0,1.056,1.84,4.766,4.766,0,0,0,1.68,1.2,5.556,5.556,0,0,0,2.24.433,4.967,4.967,0,0,0,4.96-3.3l1.344.89a6.358,6.358,0,0,1-2.416,2.893A7.1,7.1,0,0,1,214.427,378.328Zm-.032-15.584a5.173,5.173,0,0,0-2.145.433,4.85,4.85,0,0,0-1.647,1.2,5.3,5.3,0,0,0-1.056,1.841,7.187,7.187,0,0,0-.368,2.351v.161h10.144v-.256a7.527,7.527,0,0,0-.352-2.353,5.067,5.067,0,0,0-1.008-1.808,4.7,4.7,0,0,0-1.568-1.152A4.784,4.784,0,0,0,214.4,362.744Z" fill="#fff"/>
    <path d="M236.539,375.32h-.1a5.21,5.21,0,0,1-1.872,2.193,5.542,5.542,0,0,1-3.12.815,6,6,0,0,1-4.96-2.24,12.1,12.1,0,0,1,0-12.672,6,6,0,0,1,4.96-2.239,5.62,5.62,0,0,1,3.136.815,4.966,4.966,0,0,1,1.856,2.193h.1v-9.92h1.824v23.679h-1.824Zm-4.672,1.376a6.217,6.217,0,0,0,1.808-.256,4.516,4.516,0,0,0,1.488-.752,3.7,3.7,0,0,0,1.008-1.184,3.24,3.24,0,0,0,.368-1.552v-6.5a3.022,3.022,0,0,0-.368-1.472,3.6,3.6,0,0,0-1.008-1.152,5.052,5.052,0,0,0-1.488-.752,5.9,5.9,0,0,0-1.808-.271,4.839,4.839,0,0,0-3.84,1.567,6.177,6.177,0,0,0-1.376,4.225v2.3a6.171,6.171,0,0,0,1.376,4.224A4.837,4.837,0,0,0,231.867,376.7Z" fill="#fff"/>
    <path d="M263.13,377.944a1.945,1.945,0,0,1-1.536-.544,2.407,2.407,0,0,1-.544-1.471v-.576h-.16a4.481,4.481,0,0,1-1.792,2.175,6.826,6.826,0,0,1-7.168-.467,4.572,4.572,0,0,1-1.408-3.581,4.263,4.263,0,0,1,1.552-3.467q1.551-1.284,5.1-1.284h3.776v-1.92q0-4.064-4.192-4.065a4.661,4.661,0,0,0-4.48,2.656l-1.152-.953a5.686,5.686,0,0,1,2.064-2.349,6.467,6.467,0,0,1,3.632-.921,6.211,6.211,0,0,1,4.416,1.442,5.276,5.276,0,0,1,1.536,4.041v9.716h2.208v1.568Zm-6.944-1.183a6.459,6.459,0,0,0,1.856-.258,5.1,5.1,0,0,0,1.52-.723,3.416,3.416,0,0,0,1.024-1.126,3.014,3.014,0,0,0,.368-1.5V370.1h-3.84a6.256,6.256,0,0,0-3.568.789,2.518,2.518,0,0,0-1.1,2.169v.772a2.523,2.523,0,0,0,1.024,2.187A4.546,4.546,0,0,0,256.186,376.761Z" fill="#fff"/>
    <path d="M268.73,377.944V361.561h1.824v2.591h.1a5.071,5.071,0,0,1,1.7-2.128,6.07,6.07,0,0,1,7.216.768,6.683,6.683,0,0,1,1.456,4.624v10.528h-1.824V367.736a5.493,5.493,0,0,0-1.072-3.712,3.941,3.941,0,0,0-3.12-1.215,6.193,6.193,0,0,0-1.664.223,4.519,4.519,0,0,0-1.424.672,3.237,3.237,0,0,0-1.36,2.721v11.519Z" fill="#fff"/>
    <path d="M298.01,377.944a1.944,1.944,0,0,1-1.536-.544,2.4,2.4,0,0,1-.544-1.471v-.576h-.16a4.481,4.481,0,0,1-1.792,2.175,6.826,6.826,0,0,1-7.168-.467,4.573,4.573,0,0,1-1.409-3.581,4.261,4.261,0,0,1,1.553-3.467q1.551-1.284,5.1-1.284h3.775v-1.92q0-4.064-4.191-4.065a4.659,4.659,0,0,0-4.48,2.656l-1.152-.953a5.686,5.686,0,0,1,2.064-2.349,6.462,6.462,0,0,1,3.632-.921,6.212,6.212,0,0,1,4.416,1.442,5.276,5.276,0,0,1,1.536,4.041v9.716h2.208v1.568Zm-6.945-1.183a6.449,6.449,0,0,0,1.856-.258,5.093,5.093,0,0,0,1.52-.723,3.416,3.416,0,0,0,1.024-1.126,3.014,3.014,0,0,0,.368-1.5V370.1h-3.839a6.262,6.262,0,0,0-3.569.789,2.518,2.518,0,0,0-1.1,2.169v.772a2.524,2.524,0,0,0,1.025,2.187A4.545,4.545,0,0,0,291.065,376.761Z" fill="#fff"/>
    <path d="M305.625,377.944a1.963,1.963,0,0,1-1.5-.544,2.015,2.015,0,0,1-.512-1.44V354.265h1.824v22.111h2.528v1.568Z" fill="#fff"/>
    <path d="M321.593,361.561h1.856l-7.584,20.992a2.941,2.941,0,0,1-.928,1.407,3.183,3.183,0,0,1-1.792.385h-1.856v-1.569h2.752l1.568-4.326-6.08-16.889h1.92l5.024,14.457h.128Z" fill="#fff"/>
    <path d="M330.009,377.944a1.962,1.962,0,0,1-1.5-.545,2.064,2.064,0,0,1-.512-1.475v-12.8h-2.848v-1.567H327a1.19,1.19,0,0,0,.912-.273,1.5,1.5,0,0,0,.24-.976v-3.328h1.664v4.577h3.712v1.567h-3.712v13.248h3.456v1.568Z" fill="#fff"/>
    <path d="M338.809,357.112a1.242,1.242,0,0,1-.944-.32,1.155,1.155,0,0,1-.3-.832v-.319a1.155,1.155,0,0,1,.3-.832,1.547,1.547,0,0,1,1.887,0,1.156,1.156,0,0,1,.305.832v.319a1.156,1.156,0,0,1-.305.832A1.244,1.244,0,0,1,338.809,357.112Zm-.9,4.449h1.823v16.383h-1.823Z" fill="#fff"/>
    <path d="M351.448,378.328a6.386,6.386,0,0,1-5.232-2.24,11.829,11.829,0,0,1,0-12.672,6.388,6.388,0,0,1,5.232-2.239,5.877,5.877,0,0,1,5.824,3.615l-1.536.769a4.549,4.549,0,0,0-1.615-2.048,5.368,5.368,0,0,0-6.48.9,6.4,6.4,0,0,0-1.312,4.193v2.3a6.4,6.4,0,0,0,1.312,4.193,4.639,4.639,0,0,0,3.807,1.6,5.184,5.184,0,0,0,2.848-.736,5.289,5.289,0,0,0,1.856-2.111l1.345.9a6.467,6.467,0,0,1-2.289,2.609A6.728,6.728,0,0,1,351.448,378.328Z" fill="#fff"/>
    <path d="M366.2,378.328a7.769,7.769,0,0,1-3.664-.8,7.692,7.692,0,0,1-2.64-2.336l1.344-1.055a6.906,6.906,0,0,0,2.24,1.983,6.028,6.028,0,0,0,2.848.641,4.636,4.636,0,0,0,2.912-.8,3.105,3.105,0,0,0,.24-4.367,4.64,4.64,0,0,0-2.576-1.009l-1.344-.224a10.97,10.97,0,0,1-2.048-.48,5.011,5.011,0,0,1-1.584-.863,3.8,3.8,0,0,1-1.024-1.329,5.007,5.007,0,0,1,.064-3.919,4.159,4.159,0,0,1,1.168-1.441,5.021,5.021,0,0,1,1.76-.864,8.125,8.125,0,0,1,2.208-.287,7.079,7.079,0,0,1,3.36.7,7.487,7.487,0,0,1,2.24,1.824l-1.216,1.12a6.879,6.879,0,0,0-1.712-1.424,5.242,5.242,0,0,0-2.768-.656,4.318,4.318,0,0,0-2.736.769,2.605,2.605,0,0,0-.976,2.175,2.4,2.4,0,0,0,.88,2.081,6.268,6.268,0,0,0,2.64.927l1.312.193a6.952,6.952,0,0,1,3.7,1.487,3.987,3.987,0,0,1,1.2,3.088,4.389,4.389,0,0,1-1.552,3.584A6.525,6.525,0,0,1,366.2,378.328Z" fill="#fff"/>
  </g>
  <g>
    <path d="M143.388,401.111h-2.816v-1.567h2.816v-4.576a2.973,2.973,0,0,1,.624-1.985,2.4,2.4,0,0,1,1.936-.735h2.88v1.567h-3.616v5.729h3.616v1.567h-3.616v14.817h-1.824Z" fill="#fff"/>
    <path d="M158.235,416.312a7.226,7.226,0,0,1-2.943-.577,6.065,6.065,0,0,1-2.24-1.679,7.893,7.893,0,0,1-1.441-2.7,11.858,11.858,0,0,1-.511-3.617,11.693,11.693,0,0,1,.511-3.6,7.921,7.921,0,0,1,1.441-2.689,6.24,6.24,0,0,1,2.24-1.695,7.616,7.616,0,0,1,5.888,0,6.245,6.245,0,0,1,2.239,1.695,7.9,7.9,0,0,1,1.44,2.689,11.661,11.661,0,0,1,.513,3.6,11.825,11.825,0,0,1-.513,3.617,7.875,7.875,0,0,1-1.44,2.7,6.07,6.07,0,0,1-2.239,1.679A7.236,7.236,0,0,1,158.235,416.312Zm0-1.632a4.911,4.911,0,0,0,3.792-1.5,6.281,6.281,0,0,0,1.392-4.416v-2.048a6.29,6.29,0,0,0-1.392-4.4,5.511,5.511,0,0,0-7.584-.016,6.29,6.29,0,0,0-1.391,4.416v2.048a6.3,6.3,0,0,0,1.391,4.4A4.891,4.891,0,0,0,158.235,414.68Z" fill="#fff"/>
    <path d="M180.251,413.336h-.128a5.22,5.22,0,0,1-.608,1.12,3.845,3.845,0,0,1-.96.943,5.164,5.164,0,0,1-1.36.657,5.934,5.934,0,0,1-1.84.256,5.257,5.257,0,0,1-4.1-1.617,6.629,6.629,0,0,1-1.472-4.624V399.544h1.824V409.72a5.491,5.491,0,0,0,1.088,3.744,3.991,3.991,0,0,0,3.136,1.216,5.985,5.985,0,0,0,1.648-.224,4.5,4.5,0,0,0,1.408-.672,3.287,3.287,0,0,0,.992-1.137,3.379,3.379,0,0,0,.368-1.616V399.544h1.824v16.384h-1.824Z" fill="#fff"/>
    <path d="M188.027,415.928V399.544h1.824v2.592h.1a5.059,5.059,0,0,1,1.7-2.128,6.067,6.067,0,0,1,7.216.767,6.686,6.686,0,0,1,1.456,4.624v10.529h-1.824V405.72a5.491,5.491,0,0,0-1.072-3.712,3.938,3.938,0,0,0-3.12-1.216,6.154,6.154,0,0,0-1.664.224,4.5,4.5,0,0,0-1.424.672,3.234,3.234,0,0,0-1.36,2.72v11.52Z" fill="#fff"/>
    <path d="M216.634,413.3h-.095a5.221,5.221,0,0,1-1.872,2.192,5.543,5.543,0,0,1-3.121.816,6,6,0,0,1-4.96-2.241,12.1,12.1,0,0,1,0-12.672,6,6,0,0,1,4.96-2.239,5.621,5.621,0,0,1,3.137.816,4.963,4.963,0,0,1,1.856,2.192h.095v-9.92h1.824v23.68h-1.824Zm-4.672,1.376a6.219,6.219,0,0,0,1.809-.256,4.55,4.55,0,0,0,1.487-.752,3.7,3.7,0,0,0,1.009-1.185,3.247,3.247,0,0,0,.367-1.551v-6.5a3.025,3.025,0,0,0-.367-1.471,3.6,3.6,0,0,0-1.009-1.153,5.046,5.046,0,0,0-1.487-.752,5.93,5.93,0,0,0-1.809-.271,4.837,4.837,0,0,0-3.839,1.567,6.177,6.177,0,0,0-1.376,4.225v2.3a6.17,6.17,0,0,0,1.376,4.223A4.835,4.835,0,0,0,211.962,414.68Z" fill="#fff"/>
    <path d="M235.674,415.928a1.949,1.949,0,0,1-1.536-.544,2.412,2.412,0,0,1-.544-1.472v-.576h-.16a4.483,4.483,0,0,1-1.792,2.176,6.823,6.823,0,0,1-7.168-.468,4.57,4.57,0,0,1-1.408-3.58A4.267,4.267,0,0,1,224.618,408q1.551-1.282,5.1-1.284H233.5v-1.92q0-4.063-4.192-4.064a4.657,4.657,0,0,0-4.48,2.656l-1.152-.953a5.689,5.689,0,0,1,2.064-2.35,6.472,6.472,0,0,1,3.632-.921,6.211,6.211,0,0,1,4.416,1.443,5.273,5.273,0,0,1,1.536,4.041v9.715h2.208v1.569Zm-6.944-1.184a6.459,6.459,0,0,0,1.856-.258,5.139,5.139,0,0,0,1.52-.722,3.436,3.436,0,0,0,1.024-1.126,3.02,3.02,0,0,0,.368-1.5v-3.055h-3.84a6.265,6.265,0,0,0-3.568.788,2.519,2.519,0,0,0-1.1,2.17v.771A2.522,2.522,0,0,0,226.01,414,4.546,4.546,0,0,0,228.73,414.744Z" fill="#fff"/>
    <path d="M244.122,415.928a1.965,1.965,0,0,1-1.5-.545,2.066,2.066,0,0,1-.512-1.476v-12.8h-2.848v-1.567h1.856a1.19,1.19,0,0,0,.912-.273,1.491,1.491,0,0,0,.24-.975v-3.328h1.664v4.576h3.712v1.567H243.93v13.248h3.456v1.569Z" fill="#fff"/>
    <path d="M252.922,395.1a1.243,1.243,0,0,1-.944-.321,1.155,1.155,0,0,1-.3-.832v-.319a1.157,1.157,0,0,1,.3-.832,1.552,1.552,0,0,1,1.888,0,1.161,1.161,0,0,1,.3.832v.319a1.16,1.16,0,0,1-.3.832A1.246,1.246,0,0,1,252.922,395.1Zm-.9,4.448h1.824v16.384h-1.824Z" fill="#fff"/>
    <path d="M265.625,416.312a7.229,7.229,0,0,1-2.943-.577,6.065,6.065,0,0,1-2.24-1.679,7.893,7.893,0,0,1-1.441-2.7,11.858,11.858,0,0,1-.511-3.617,11.693,11.693,0,0,1,.511-3.6,7.921,7.921,0,0,1,1.441-2.689,6.24,6.24,0,0,1,2.24-1.695,7.616,7.616,0,0,1,5.888,0,6.257,6.257,0,0,1,2.24,1.695,7.937,7.937,0,0,1,1.44,2.689,11.692,11.692,0,0,1,.512,3.6,11.857,11.857,0,0,1-.512,3.617,7.909,7.909,0,0,1-1.44,2.7,6.081,6.081,0,0,1-2.24,1.679A7.236,7.236,0,0,1,265.625,416.312Zm0-1.632a4.909,4.909,0,0,0,3.792-1.5,6.281,6.281,0,0,0,1.393-4.416v-2.048a6.29,6.29,0,0,0-1.393-4.4,5.511,5.511,0,0,0-7.584-.016,6.29,6.29,0,0,0-1.391,4.416v2.048a6.3,6.3,0,0,0,1.391,4.4A4.891,4.891,0,0,0,265.625,414.68Z" fill="#fff"/>
    <path d="M277.4,415.928V399.544h1.824v2.592h.1a5.075,5.075,0,0,1,1.7-2.128,6.067,6.067,0,0,1,7.216.767,6.682,6.682,0,0,1,1.456,4.624v10.529h-1.824V405.72a5.486,5.486,0,0,0-1.072-3.712,3.938,3.938,0,0,0-3.12-1.216,6.154,6.154,0,0,0-1.664.224,4.508,4.508,0,0,0-1.424.672,3.274,3.274,0,0,0-.992,1.136,3.313,3.313,0,0,0-.368,1.584v11.52Z" fill="#fff"/>
  </g>
  <path d="M282.83,693.022s.386-3.324-.056-4.654-2.658-4.1-3.046-7.2-.166-6.87,2.27-9.472,4.044-3.768,7.644-4.488,7.978,1.054,9.916,1.828,2.382,1.108,3.546,1.44,1.328.388,1.662,1a8.868,8.868,0,0,1,.886,1.5,1.634,1.634,0,0,1-.112,1.828,4.111,4.111,0,0,1-.776.774,23.246,23.246,0,0,1,.722,3.546c.054,1.164,1,3.214.332,3.878-.5.5-1.218.942-1.218,1.108a6.9,6.9,0,0,1-.276,1.274,4.568,4.568,0,0,0,.774,2.6,9.324,9.324,0,0,1,.72,1.33.879.879,0,0,1-.554,1.274,2.835,2.835,0,0,1-1,.278,3.472,3.472,0,0,1-.722.056,7.518,7.518,0,0,1-.276,1.218l-.166.442s.222.776-.11,1.11a1.407,1.407,0,0,0-.556,1.772c.39,1.052.056,2.492-1.494,2.436s-3.38-.166-3.878.334-.72.774-.72.774,4.376,1.552,6.592,2.658l2.216,1.108s2.16.61,3.378,3.712,1.274,5.04,1.55,8.2,2.05,8.308,2.382,10.968.444,5.428.444,5.428,2.27.332,2.992,1.718,2.99,6.37,2.16,9.028-1.33,4.1-3.158,5.318-5.318,1.274-5.318,1.274.664,5.816.886,8.918,2.548,9.584,2.77,15.234,1.55,12.962,1.5,16.064-1.44,3.212-2.88,3.158-3.048-.056-3.048-.056a64.414,64.414,0,0,1-.332,10.082c-.608,3.766-1.718,18.28-2.1,21.492s-1.164,10.524-2.714,18.39-4.1,16.176-3.768,17.836,1.662,10.97.61,12.964-2.826,5.372-2.826,6.258,1.276,2.494,1.164,3.1l-.11.61a4.333,4.333,0,0,0,2.6,1.44c1.33,0,4.156-.5,5.208.5a3.14,3.14,0,0,1,1.108,1.828s.72.666.664,1.164-2.326,2.326-5.206,2.492a71.469,71.469,0,0,1-8.31-.386,4.484,4.484,0,0,1-.166,1.328c-.166.276-6.148.222-7.81.222s-4.044-.278-4.32-.61a6.782,6.782,0,0,1,.054-2.99.5.5,0,0,1,.388-.278,7.184,7.184,0,0,1-.11-2.216,26.356,26.356,0,0,0-.056-6.592c-.388-1.274-1.994-6.038-2.16-9.472s-.222-9.472.166-11.3,3.546-12.574,3.878-14.292-1-2.99-.776-5.152,1.606-5.87,1.718-7.92a69.355,69.355,0,0,0-.5-8.31c-.222-2.05-.276-5.262-.276-5.262a32.125,32.125,0,0,0-1.5,5.872c-.276,2.492,0,5.762-.776,11.854s-2.99,15.788-3.876,20.828-2.106,9.362-2.494,10.914a17.755,17.755,0,0,0-.83,3.932c.11.61,1.606,5.982,1.218,7.478a19.916,19.916,0,0,1-2.6,4.432s.5,1.106,1.22,1.328a2.747,2.747,0,0,1,1.44,2.382c-.056.888-.166,2-1.108,2.272a19.065,19.065,0,0,1-3.934.056s-.22,1.108-.72,1.108-7.81.774-8.308-.388a3.3,3.3,0,0,1-.056-2.548,2.677,2.677,0,0,1,.166-.388,14.055,14.055,0,0,0-1.44-4.93,24.126,24.126,0,0,1-2.548-6.924c-.554-2.936-.664-5.152.11-7.424s2.272-4.32,1.718-7.034-.166-6.26,0-11.134,1.662-13.738,1.552-18.5,1.772-13.958,1.716-18.17,1.386-17.89,1.386-17.89-4.432-1.22-4.432-2.77.444-8.2.444-11.578.276-16.174.83-19.554a43.93,43.93,0,0,0,.776-6.758v-1.5s-3.324-.276-4.542-1.716-3.99-4.654-3.878-8.532a157.813,157.813,0,0,1,1.606-19.276c1.108-6.426,2.216-12.3,3.434-14.014s2.16-1.718,2.16-1.718a30.8,30.8,0,0,1,7.2-3.988c3.822-1.384,6.7-2.38,8.476-3.656s2.992-3.544,4.154-4.264a3.467,3.467,0,0,0,1.442-1.44" fill="#fff"/>
  <g>
    <g mask="url(#eb5803bc-12c2-4d28-959a-4ff38a1d8c14)">
      <rect x="550.592" y="300.435" width="551.622" height="551.622" fill="url(#a2519c3d-208e-4980-a565-b1ac2fdfe41e)"/>
    </g>
    <path d="M765.46,538.907a23.444,23.444,0,1,1,23.45-23.443A23.474,23.474,0,0,1,765.46,538.907Zm0-34.476a11.033,11.033,0,1,0,11.026,11.033A11.044,11.044,0,0,0,765.46,504.431Z" fill="#fff"/>
    <path d="M826.4,427.472a23.444,23.444,0,1,1,23.45-23.444A23.474,23.474,0,0,1,826.4,427.472Zm0-34.477a11.033,11.033,0,1,0,11.026,11.033A11.045,11.045,0,0,0,826.4,393Z" fill="#fff"/>
    <path d="M643.564,417.016a23.444,23.444,0,1,1,23.45-23.444A23.474,23.474,0,0,1,643.564,417.016Zm0-34.477a11.033,11.033,0,1,0,11.026,11.033A11.044,11.044,0,0,0,643.564,382.539Z" fill="#fff"/>
  </g>
</svg>
