<svg xmlns="http://www.w3.org/2000/svg" xmlns:xlink="http://www.w3.org/1999/xlink" width="32.11" height="40" version="1.1" viewBox="0 0 32.11 40">
	<defs>
		<path id="path-1" d="M1.2405585,36.8586756 L0.00144018976,3.84178492 C-0.0394830275,2.75136653 0.796610749,1.82724966 1.88567179,1.75918334 L29.9688501,0.00398469995 C31.0773842,-0.0652986838 32.032194,0.777180513 32.1014774,1.88571465 C32.1040877,1.92747994 32.1053938,1.96931653 32.1053938,2.01116332 L32.1053938,37.9889049 C32.1053938,39.0996021 31.2049959,40 30.0942987,40 C30.0642095,40 30.034124,39.9993247 30.004065,39.9979747 L3.16000504,38.7923224 C2.11453506,38.745367 1.27980674,37.9044633 1.2405585,36.8586756 Z" />
	</defs>
	<g id="storybook-logo/default" fill="none" fill-rule="evenodd" stroke="none" stroke-width="1">
		<g id="storybook-icon/default">
			<mask id="mask-2" fill="#fff">
				<use xlink:href="#path-1" />
			</mask>
			<use id="path1_fill-path" fill="#FF4785" fill-rule="nonzero" xlink:href="#path-1" />
			<path id="path2_fill-path" fill="#FFF" fill-rule="nonzero" d="M23.7074082,4.91663721 L23.8992315,0.303023661 L27.7558963,0 L27.9220445,4.75786009 C27.9278268,4.92344459 27.7982816,5.06236485 27.6326971,5.06814719 C27.5617959,5.07062311 27.4923115,5.04789212 27.4365822,5.00399056 L25.9493283,3.83238502 L24.1884561,5.168114 C24.0564522,5.26824702 23.868268,5.24241056 23.768135,5.11040663 C23.7259839,5.05483953 23.7045108,4.98632234 23.7074082,4.91663721 Z" mask="url(#mask-2)" />
			<path id="path9_fill-path" fill="#FFF" fill-rule="nonzero" d="M18.7751036,15.0765471 C18.7751036,15.8589807 24.0454698,15.4839807 24.7529701,14.934375 C24.7529701,9.60618896 21.8939904,6.80631104 16.6587161,6.80631104 C11.4234417,6.80631104 8.49020288,9.64975119 8.49020288,13.9149136 C8.49020288,21.3434049 18.5151963,21.485577 18.5151963,25.5374813 C18.5151963,26.674858 17.9582523,27.3501754 16.7329753,27.3501754 C15.1364023,27.3501754 14.505199,26.5347946 14.5794582,23.762439 C14.5794582,23.1610127 8.49020288,22.9735127 8.30455485,23.762439 C7.83181939,30.4808433 12.0175154,32.418689 16.8072345,32.418689 C21.4484352,32.418689 25.0871365,29.9448159 25.0871365,25.4663953 C25.0871365,17.5047587 14.9136246,17.7180168 14.9136246,13.7727416 C14.9136246,12.1733056 16.101772,11.9600475 16.8072345,11.9600475 C17.5498266,11.9600475 18.8864924,12.0909334 18.7751036,15.0765471 Z" mask="url(#mask-2)" />
		</g>
	</g>
</svg>