<?xml version="1.0" encoding="UTF-8"?>
<svg width="240px" height="240px" viewBox="0 0 240 240" version="1.1" xmlns="http://www.w3.org/2000/svg" xmlns:xlink="http://www.w3.org/1999/xlink">
    <!-- Generator: Sketch 58 (84663) - https://sketch.com -->
    <title>Group 31</title>
    <desc>Created with Sketch.</desc>
    <g id="Data-vis-pages" stroke="none" stroke-width="1" fill="none" fill-rule="evenodd">
        <g id="Dataviz-overview-1-Copy-2" transform="translate(48,100)">
            <g id="Group-31">
                <path d="M0,70.1666667 C0.610939112,70.1666667 0.610939112,64.6666667 0,53.6666667 C6.41486068,50.6111111 11.4551084,49.0833333 15.120743,49.0833333 C20.619195,49.0833333 26.1176471,56.4166667 33.4489164,56.4166667 C40.7801858,56.4166667 55.9009288,28.4583333 65.0650155,28.4583333 C74.2291022,28.4583333 84.3095975,68.3333333 97.5975232,68.3333333 C110.885449,68.3333333 120.50774,17 148,17 C148,17 148,94 148,94 C142.501548,89.4166667 137.4613,87.125 132.879257,87.125 C126.006192,87.125 122.798762,94 115.925697,94 C109.052632,94 96.2229102,78.875 88.4334365,78.875 C80.6439628,78.875 76.9783282,85.2916667 68.7306502,84.375 C60.4829721,83.4583333 54.9845201,64.6666667 49.4860681,64.6666667 C43.9876161,64.6666667 39.8637771,84.375 33.4489164,84.375 C27.0340557,84.375 19.7027864,72.9166667 16.0371517,70.625 C12.371517,68.3333333 5.04024768,66.9583333 0,70.1666667 Z" id="Path-12" fill="#B2CFFF"></path>
                <path d="M0,25.9423077 C4.27657379,28.0662393 8.55314757,28.0662393 12.8297214,25.9423077 C19.244582,22.7564103 25.1176471,10.9230769 31.5325077,10.9230769 C37.9473684,10.9230769 41.6965944,29.1282051 49.9442724,29.1282051 C58.1919505,29.1282051 59.1083591,14.1089744 65.9814241,14.1089744 C72.8544892,14.1089744 76.0866873,26 88,26 C99.9133127,26 109.510836,0 115.467492,0 C121.424149,0 126.464396,7.73717949 132.879257,7.73717949 C137.155831,7.73717949 142.196078,5.76495726 148,1.82051282 L148,19.1153846 C136.697626,20.3290598 127.380805,27.9145299 120.049536,41.8717949 C107.219814,62.8076923 104.012384,70.5448718 97.5975232,71 C85.2260062,71 73.7708978,31.8589744 65.5232198,31.8589744 C57.2755418,31.8589744 49.9442724,56.8910256 32.9907121,56.8910256 C22.4520124,56.8910256 19.7027864,52.3397436 12.8297214,52.3397436 C8.24767802,52.3397436 3.97110423,53.7051282 0,56.4358974 L0,25.9423077 Z" id="Path-11" fill="#0062FF"></path>
            </g>
        </g>
    </g>
</svg>
