<svg width="20" height="20" viewBox="0 0 20 20" fill="none" xmlns="http://www.w3.org/2000/svg">
<g clip-path="url(#clip0_13_1012)">
<path d="M10.625 13.75V8.75H8.125V10H9.375V13.75H7.5V15H12.5V13.75H10.625Z" fill="#0043CE"/>
<path d="M10 5C9.48223 5 9.0625 5.41973 9.0625 5.9375C9.0625 6.45527 9.48223 6.875 10 6.875C10.5178 6.875 10.9375 6.45527 10.9375 5.9375C10.9375 5.41973 10.5178 5 10 5Z" fill="#0043CE"/>
<path d="M16.25 17.5H3.75C3.05997 17.4992 2.50079 16.94 2.5 16.25V3.75C2.50079 3.05997 3.05997 2.50079 3.75 2.5H16.25C16.94 2.50079 17.4992 3.05997 17.5 3.75V16.25C17.4992 16.94 16.94 17.4992 16.25 17.5ZM3.75 3.75V16.25H16.25V3.75H3.75Z" fill="#0043CE"/>
</g>
<defs>
<clipPath id="clip0_13_1012">
<rect width="20" height="20" fill="white"/>
</clipPath>
</defs>
</svg>
