<svg width="20" height="20" viewBox="0 0 20 20" fill="none" xmlns="http://www.w3.org/2000/svg">
<g clip-path="url(#clip0_13_996)">
<path d="M10 1.25C5.16751 1.25 1.25 5.16751 1.25 10C1.25 14.8325 5.16751 18.75 10 18.75C14.8325 18.75 18.75 14.8325 18.75 10C18.75 7.67936 17.8281 5.45376 16.1872 3.81282C14.5462 2.17187 12.3206 1.25 10 1.25ZM10 5C10.5178 5 10.9375 5.41973 10.9375 5.9375C10.9375 6.45527 10.5178 6.875 10 6.875C9.48223 6.875 9.0625 6.45527 9.0625 5.9375C9.0625 5.41973 9.48223 5 10 5ZM12.5 15.0781H7.5V13.6719H9.29688V10.0781H8.125V8.67188H10.7031V13.6719H12.5V15.0781Z" fill="#0043CE"/>
</g>
<defs>
<clipPath id="clip0_13_996">
<rect width="20" height="20" fill="white"/>
</clipPath>
</defs>
</svg>
