<?xml version="1.0" encoding="UTF-8"?>
<svg width="20px" height="20px" viewBox="0 0 20 20" version="1.1" xmlns="http://www.w3.org/2000/svg"
    xmlns:xlink="http://www.w3.org/1999/xlink">
    <title>unknown (1)</title>
    <g id="Structure" stroke="none" stroke-width="1" fill="none" fill-rule="evenodd">

        <circle id="Oval" fill="#6F6F6F" fill-rule="nonzero" cx="10" cy="14.0625" r="1"></circle>
        <path
            d="M10.625,11.875 L9.375,11.875 L9.375,9.375 L10.625,9.375 C11.3153559,9.375 11.875,8.81535594 11.875,8.125 C11.875,7.43464406 11.3153559,6.875 10.625,6.875 L9.375,6.875 C8.68497245,6.87579217 8.12579217,7.43497245 8.125,8.125 L8.125,8.4375 L6.875,8.4375 L6.875,8.125 C6.87654996,6.74493065 7.99493065,5.62654996 9.375,5.625 L10.625,5.625 C12.0057119,5.625 13.125,6.74428813 13.125,8.125 C13.125,9.50571187 12.0057119,10.625 10.625,10.625 L10.625,11.875 Z"
            id="Path" fill="#6F6F6F" fill-rule="nonzero"></path>
        <path
            d="M10,18.7500021 C9.65462807,18.7506264 9.32325411,18.6135512 9.07925,18.369125 L1.630875,10.92075 C1.12307577,10.4119371 1.12307577,9.58806294 1.630875,9.07925 L9.07925,1.630875 C9.58806294,1.12307577 10.4119371,1.12307577 10.92075,1.630875 L18.369125,9.07925 C18.8769242,9.58806294 18.8769242,10.4119371 18.369125,10.92075 L10.92075,18.369125 C10.6767459,18.6135512 10.3453719,18.7506264 10,18.7500021 L10,18.7500021 Z M10,2.4995 C9.98615995,2.4995 9.97288712,2.50500196 9.9630625,2.51475 L2.51475,9.9630625 C2.49442557,9.98349377 2.49442557,10.0165062 2.51475,10.0369375 L9.9630625,17.48525 C9.9835496,17.5054387 10.0164504,17.5054387 10.0369375,17.48525 L17.48525,10.0369375 C17.5055744,10.0165062 17.5055744,9.98349377 17.48525,9.9630625 L10.0369375,2.51475 C10.0271129,2.50500196 10.01384,2.4995 10,2.4995 Z"
            id="Shape" fill="#6F6F6F" fill-rule="nonzero"></path>
        <rect id="_Transparent_Rectangle_" x="0" y="0" width="20" height="20"></rect>

    </g>
</svg>