<svg xmlns="http://www.w3.org/2000/svg" xmlns:xlink="http://www.w3.org/1999/xlink" viewBox="0 0 288 288"><defs><path id="a" d="M0 0h184v183.999H0z"/><path id="c" d="M0 184h184V0H0z"/></defs><g fill="none" fill-rule="evenodd"><path fill="#FFF" d="M0 0h288v288H0z"/><g transform="translate(52 52)"><mask id="b" fill="#fff"><use xlink:href="#a"/></mask><path d="M184 91.999c0 50.813-41.19 92-92 92s-92-41.187-92-92c0-50.81 41.19-92 92-92s92 41.19 92 92" fill="#DDD" mask="url(#b)"/><mask id="d" fill="#fff"><use xlink:href="#c"/></mask><path d="M13.554 170.446h156.892V13.554H13.554v156.892zm-.822.822h158.536V12.732H12.732v158.536z" fill="#006AFE" mask="url(#d)"/><path d="M39.84 144.16h104.32V39.84H39.84v104.32zm-.822.822h105.964V39.018H39.018v105.964z" fill="#006AFE" mask="url(#d)"/><path fill="#FFF" mask="url(#d)" d="M13.143 39.429h26.286V13.143H13.143z"/><path d="M13.554 39.018h25.464V13.554H13.554v25.464zm-.822.821H39.84V12.732H12.732V39.84z" fill="#006AFE" mask="url(#d)"/><path fill="#FFF" mask="url(#d)" d="M144.571 39.429h26.286V13.143h-26.286z"/><path d="M144.982 39.018h25.464V13.554h-25.464v25.464zm-.821.821h27.107V12.732H144.16V39.84z" fill="#006AFE" mask="url(#d)"/><path fill="#FFF" mask="url(#d)" d="M13.143 170.857h26.286v-26.286H13.143z"/><path d="M13.554 170.446h25.464v-25.464H13.554v25.464zm-.822.822H39.84V144.16H12.732v27.107z" fill="#006AFE" mask="url(#d)"/><path fill="#FFF" mask="url(#d)" d="M144.571 170.857h26.286v-26.286h-26.286z"/><path d="M144.982 170.446h25.464v-25.464h-25.464v25.464zm-.821.822h27.107V144.16H144.16v27.107z" fill="#006AFE" mask="url(#d)"/><path d="M126.498 90.288a1.553 1.553 0 01-1.554-1.554V80.11a1.552 1.552 0 013.105 0v8.625a1.55 1.55 0 01-1.55 1.554m21.345-8.844c-.4 0-.795-.15-1.097-.456l-6.098-6.095a1.553 1.553 0 112.194-2.199l6.095 6.095a1.553 1.553 0 010 2.199 1.53 1.53 0 01-1.094.456m-42.692 0c-.397 0-.795-.15-1.097-.456a1.553 1.553 0 010-2.199l6.098-6.095a1.553 1.553 0 112.195 2.198l-6.098 6.096c-.302.305-.7.456-1.098.456m21.346-11.513c-6.279 0-11.385-5.106-11.385-11.385s5.106-11.385 11.385-11.385c6.276 0 11.385 5.106 11.385 11.385 0 6.28-5.109 11.385-11.385 11.385m0-25.875c-7.99 0-14.49 6.503-14.49 14.49 0 7.991 6.5 14.49 14.49 14.49 7.988 0 14.49-6.499 14.49-14.49 0-7.987-6.502-14.49-14.49-14.49m30.188 16.044h-8.625a1.553 1.553 0 110-3.105h8.625c.857 0 1.55.693 1.55 1.55a1.55 1.55 0 01-1.55 1.555m-51.75 0H96.31a1.553 1.553 0 110-3.105h8.625c.857 0 1.55.693 1.55 1.55a1.55 1.55 0 01-1.55 1.555m36.809-15.248c-.397 0-.791-.154-1.094-.457a1.553 1.553 0 010-2.198l6.095-6.098a1.549 1.549 0 012.195 0c.608.608.608 1.59 0 2.201l-6.098 6.095a1.545 1.545 0 01-1.098.457m-30.492 0a1.55 1.55 0 01-1.097-.457l-6.098-6.095a1.557 1.557 0 010-2.201 1.549 1.549 0 012.194 0l6.099 6.098a1.553 1.553 0 010 2.198 1.55 1.55 0 01-1.098.457m15.246-6.315a1.553 1.553 0 01-1.554-1.554V28.36a1.552 1.552 0 013.105 0v8.625a1.55 1.55 0 01-1.55 1.554m7.472 120.236c-18.544-20.523-40.549-29.673-71.355-29.673H27.31v-3.109h35.305c31.76 0 54.477 9.473 73.659 30.702l-2.304 2.08z" fill="#000" mask="url(#d)"/><path d="M133.971 141.525c-18.544-20.523-40.549-29.673-71.355-29.673H27.31v-3.109h35.305c31.76 0 54.477 9.473 73.659 30.702l-2.304 2.08z" fill="#000" mask="url(#d)"/><path d="M33.175 54.235c0-3.9 3.174-7.07 7.074-7.07 3.897 0 7.07 3.17 7.07 7.07 0 3.9-3.173 7.071-7.07 7.071-3.9 0-7.074-3.17-7.074-7.07m25.875 4.31c0-3.897 3.174-7.07 7.074-7.07 3.897 0 7.07 3.173 7.07 7.07 0 3.9-3.173 7.074-7.07 7.074-3.9 0-7.074-3.174-7.074-7.074m8.625 33.045V68.61c4.88-.753 8.625-4.982 8.625-10.065 0-5.612-4.567-10.176-10.176-10.176-5.612 0-10.18 4.564-10.18 10.176 0 5.083 3.747 9.312 8.626 10.064v22.925c-.654-.01-1.291-.04-1.955-.04H41.8V64.3c4.88-.752 8.625-4.98 8.625-10.064 0-5.615-4.567-10.179-10.176-10.179-5.612 0-10.18 4.564-10.18 10.18 0 5.082 3.747 9.311 8.626 10.063v27.196H27.31V94.6h35.305c30.807 0 52.814 9.151 71.356 29.674l2.303-2.077c-18.147-20.086-39.465-29.63-68.6-30.606" fill="#000" mask="url(#d)"/></g></g></svg>