<svg xmlns="http://www.w3.org/2000/svg" xmlns:xlink="http://www.w3.org/1999/xlink" width="288px" height="288px" viewBox="0 0 288 288" version="1.1"><!--Generator: Sketch 50.2 (55047) - http://www.bohemiancoding.com/sketch--><title>Arrows do</title><desc>Created with Sketch.</desc>
<defs>
  <path d="M10.5,0 C4.725,0 0,4.725 0,10.5 C0,16.275 4.725,21 10.5,21 C16.275,21 21,16.275 21,10.5 C21,4.725 16.275,0 10.5,0 Z" id="arrows-do_svg__path-1"/>
  <polygon id="arrows-do_svg__path-3" points="86.25 0.5 78.1425 8.6075 121.7275 52.25 0 52.25 0 63.75 121.7275 63.75 78.1425 107.3925 86.25 115.5 143.75 58"/>
</defs>
<g id="arrows-do_svg__Desktop" stroke="none" stroke-width="1" fill="none" fill-rule="evenodd">
  <g id="arrows-do_svg__Icons_Desktop_1312px" transform="translate(-352.000000, -12279.000000)">
    <g id="arrows-do_svg__Arrows-do" transform="translate(352.000000, 12279.000000)">
      <rect id="arrows-do_svg__Rectangle-3" fill="none" x="0" y="0" width="288" height="288"/>
      <!-- <g id="arrows-do_svg__Grid-01" opacity="0.75" transform="translate(51.500000, 51.000000)" stroke="#DCDCDC" stroke-linecap="square"> -->
        <!-- <g id="arrows-do_svg__Vertical-lines" transform="translate(0.205100, 0.615299)">
          <path d="M0.410199557,0 L0.410199557,183.769401" id="arrows-do_svg__Line"/>
          <path d="M17.6385809,0 L17.6385809,183.769401" id="arrows-do_svg__Line"/>
          <path d="M6.15299335,0 L6.15299335,183.769401" id="arrows-do_svg__Line"/>
          <path d="M23.3813747,0 L23.3813747,183.769401" id="arrows-do_svg__Line"/>
          <path d="M11.8957871,0 L11.8957871,183.769401" id="arrows-do_svg__Line"/>
          <path d="M29.1241685,0 L29.1241685,183.769401" id="arrows-do_svg__Line"/>
          <path d="M34.8669623,0 L34.8669623,183.769401" id="arrows-do_svg__Line"/>
          <path d="M40.6097561,0 L40.6097561,183.769401" id="arrows-do_svg__Line"/>
          <path d="M46.3525499,0 L46.3525499,183.769401" id="arrows-do_svg__Line"/>
          <path d="M52.0953437,0 L52.0953437,183.769401" id="arrows-do_svg__Line"/>
          <path d="M57.8381375,0 L57.8381375,183.769401" id="arrows-do_svg__Line"/>
          <path d="M63.5809313,0 L63.5809313,183.769401" id="arrows-do_svg__Line"/>
          <path d="M69.3237251,0 L69.3237251,183.769401" id="arrows-do_svg__Line"/>
          <path d="M75.0665188,0 L75.0665188,183.769401" id="arrows-do_svg__Line"/>
          <path d="M80.8093126,0 L80.8093126,183.769401" id="arrows-do_svg__Line"/>
          <path d="M86.5521064,0 L86.5521064,183.769401" id="arrows-do_svg__Line"/>
          <path d="M92.2949002,0 L92.2949002,183.769401" id="arrows-do_svg__Line"/>
          <path d="M98.037694,0 L98.037694,183.769401" id="arrows-do_svg__Line"/>
          <path d="M103.780488,0 L103.780488,183.769401" id="arrows-do_svg__Line"/>
          <path d="M109.523282,0 L109.523282,183.769401" id="arrows-do_svg__Line"/>
          <path d="M115.266075,0 L115.266075,183.769401" id="arrows-do_svg__Line"/>
          <path d="M121.008869,0 L121.008869,183.769401" id="arrows-do_svg__Line"/>
          <path d="M126.751663,0 L126.751663,183.769401" id="arrows-do_svg__Line"/>
          <path d="M132.494457,0 L132.494457,183.769401" id="arrows-do_svg__Line"/>
          <path d="M138.237251,0 L138.237251,183.769401" id="arrows-do_svg__Line"/>
          <path d="M143.980044,0 L143.980044,183.769401" id="arrows-do_svg__Line"/>
          <path d="M149.722838,0 L149.722838,183.769401" id="arrows-do_svg__Line"/>
          <path d="M155.465632,0 L155.465632,183.769401" id="arrows-do_svg__Line"/>
          <path d="M161.208426,0 L161.208426,183.769401" id="arrows-do_svg__Line"/>
          <path d="M166.95122,0 L166.95122,183.769401" id="arrows-do_svg__Line"/>
          <path d="M172.694013,0 L172.694013,183.769401" id="arrows-do_svg__Line"/>
          <path d="M178.436807,0 L178.436807,183.769401" id="arrows-do_svg__Line"/>
          <path d="M184.179601,0 L184.179601,183.769401" id="arrows-do_svg__Line"/>
        </g> -->
        <!-- <g id="arrows-do_svg__Horizontal" transform="translate(92.384701, 92.705100) rotate(90.000000) translate(-92.384701, -92.705100) translate(-0.115299, 0.705100)">
          <path d="M0.410199557,0 L0.410199557,183.769401" id="arrows-do_svg__Line"/>
          <path d="M17.6385809,0 L17.6385809,183.769401" id="arrows-do_svg__Line"/>
          <path d="M6.15299335,0 L6.15299335,183.769401" id="arrows-do_svg__Line"/>
          <path d="M23.3813747,0 L23.3813747,183.769401" id="arrows-do_svg__Line"/>
          <path d="M11.8957871,0 L11.8957871,183.769401" id="arrows-do_svg__Line"/>
          <path d="M29.1241685,0 L29.1241685,183.769401" id="arrows-do_svg__Line"/>
          <path d="M34.8669623,0 L34.8669623,183.769401" id="arrows-do_svg__Line"/>
          <path d="M40.6097561,0 L40.6097561,183.769401" id="arrows-do_svg__Line"/>
          <path d="M46.3525499,0 L46.3525499,183.769401" id="arrows-do_svg__Line"/>
          <path d="M52.0953437,0 L52.0953437,183.769401" id="arrows-do_svg__Line"/>
          <path d="M57.8381375,0 L57.8381375,183.769401" id="arrows-do_svg__Line"/>
          <path d="M63.5809313,0 L63.5809313,183.769401" id="arrows-do_svg__Line"/>
          <path d="M69.3237251,0 L69.3237251,183.769401" id="arrows-do_svg__Line"/>
          <path d="M75.0665188,0 L75.0665188,183.769401" id="arrows-do_svg__Line"/>
          <path d="M80.8093126,0 L80.8093126,183.769401" id="arrows-do_svg__Line"/>
          <path d="M86.5521064,0 L86.5521064,183.769401" id="arrows-do_svg__Line"/>
          <path d="M92.2949002,0 L92.2949002,183.769401" id="arrows-do_svg__Line"/>
          <path d="M98.037694,0 L98.037694,183.769401" id="arrows-do_svg__Line"/>
          <path d="M103.780488,0 L103.780488,183.769401" id="arrows-do_svg__Line"/>
          <path d="M109.523282,0 L109.523282,183.769401" id="arrows-do_svg__Line"/>
          <path d="M115.266075,0 L115.266075,183.769401" id="arrows-do_svg__Line"/>
          <path d="M121.008869,0 L121.008869,183.769401" id="arrows-do_svg__Line"/>
          <path d="M126.751663,0 L126.751663,183.769401" id="arrows-do_svg__Line"/>
          <path d="M132.494457,0 L132.494457,183.769401" id="arrows-do_svg__Line"/>
          <path d="M138.237251,0 L138.237251,183.769401" id="arrows-do_svg__Line"/>
          <path d="M143.980044,0 L143.980044,183.769401" id="arrows-do_svg__Line"/>
          <path d="M149.722838,0 L149.722838,183.769401" id="arrows-do_svg__Line"/>
          <path d="M155.465632,0 L155.465632,183.769401" id="arrows-do_svg__Line"/>
          <path d="M161.208426,0 L161.208426,183.769401" id="arrows-do_svg__Line"/>
          <path d="M166.95122,0 L166.95122,183.769401" id="arrows-do_svg__Line"/>
          <path d="M172.694013,0 L172.694013,183.769401" id="arrows-do_svg__Line"/>
          <path d="M178.436807,0 L178.436807,183.769401" id="arrows-do_svg__Line"/>
          <path d="M184.179601,0 L184.179601,183.769401" id="arrows-do_svg__Line"/>
        </g> -->
      <!-- </g> -->
      <g id="arrows-do_svg__icon/navigation/down-to-bottom/24-copy-13" transform="translate(69.000000, 85.000000)">
        <g id="arrows-do_svg__arrow--right" transform="translate(-20.250000, 5.500000) scale(1.35,1.35)">
          <!-- <mask id="arrows-do_svg__mask-4" fill="white">
            <use xlink:href="#arrows-do_svg__path-3"/>
          </mask> -->
            <use id="arrows-do_svg__Mask" fill="#FFFFFF" fill-rule="nonzero" xlink:href="#arrows-do_svg__path-3"/>
          </g>
        </g>
      </g>
    </g>
  </g>
</svg>