<?xml version="1.0" encoding="UTF-8"?><svg width="31px" height="30px" viewBox="0 0 31 30" version="1.1" xmlns="http://www.w3.org/2000/svg" xmlns:xlink="http://www.w3.org/1999/xlink"><!--Generator: Sketch 49.3 (51167) - http://www.bohemiancoding.com/sketch--><title>Github</title><desc>Created with Sketch.</desc><defs/><g id="github-icon_svg__Desktop" stroke="none" stroke-width="1" fill="none" fill-rule="evenodd"><g id="github-icon_svg__Github" transform="translate(-1.000000, -1.000000)"><rect id="github-icon_svg__Rectangle-21-Copy-4" x="0" y="0" width="32" height="32"/><path d="M1,16.3587777 C1,23.1605221 5.42857143,28.865211 11.6296786,30.9496165 C12.4035714,31.0593221 12.7368214,30.6204998 12.7368214,30.1816776 L12.7368214,27.5487443 C8.41785714,28.4263887 7.53214286,25.4643388 7.53214286,25.4643388 C6.86785714,23.7090499 5.76071429,23.2702277 5.76071429,23.2702277 C4.32142857,22.2828777 5.87142857,22.2828777 5.87142857,22.2828777 C7.42142857,22.3925832 8.19642857,23.8187554 8.19642857,23.8187554 C9.525,26.1225721 11.85,25.4643388 12.7368214,25.1352221 C12.8464286,24.1478721 13.2903929,23.4896388 13.7321429,23.0508165 C10.3,22.6119943 6.64753571,21.2955277 6.64753571,15.4811333 C6.64753571,13.8355499 7.20110714,12.4093777 8.19642857,11.3123222 C8.08571429,10.8734999 7.53214286,9.33762218 8.30825,7.25321663 C8.30825,7.25321663 9.63571429,6.81439441 12.5142857,8.7890944 C13.7321429,8.45997774 15.0607143,8.24056663 16.3892857,8.24056663 C17.7189643,8.24056663 19.0464286,8.45997774 20.2642857,8.7890944 C23.2546786,6.81439441 24.4714286,7.25321663 24.4714286,7.25321663 C25.3571429,9.33762218 24.8035714,10.9832055 24.5821429,11.3123222 C25.5785714,12.4093777 26.1321429,13.7258444 26.1321429,15.4811333 C26.1321429,21.4052332 22.4785714,22.7216999 19.0464286,23.0508165 C19.6,23.4896388 20.1535714,24.4769888 20.1535714,25.903161 L20.1535714,30.0719721 C20.1535714,30.5107943 20.4868214,30.9496165 21.2607143,30.8399109 C27.5714286,28.9749165 32,23.1605221 32,16.3587777 C32,7.91144996 25.025,1 16.5,1 C7.975,1 1,7.91144996 1,16.3587777 Z" id="github-icon_svg__Page-1" fill="#ffffff"/></g></g></svg>