<?xml version="1.0" encoding="utf-8"?>
<!-- Generator: Adobe Illustrator 22.1.0, SVG Export Plug-In . SVG Version: 6.00 Build 0)  -->
<svg version="1.1" id="Layer_1" xmlns="http://www.w3.org/2000/svg" xmlns:xlink="http://www.w3.org/1999/xlink" x="0px" y="0px"
	 viewBox="0 0 464 464" style="enable-background:new 0 0 464 464;" xml:space="preserve">
<g>
	<g>
		<g>
			<g>
				<g>
					<path id="SVGID_1_" d="M223.2,209c3.8,0,7-3.1,7-7c0-3.9-3.1-7-7-7c-3.8,0-7,3.1-7,7C216.2,206,219.4,209,223.2,209"/>
				</g>
			</g>
			<g>
				<g>
					<path id="SVGID_3_" d="M240.7,209c3.8,0,7-3.1,7-7c0-3.9-3.1-7-7-7c-3.8,0-7,3.1-7,7C233.7,206,236.9,209,240.7,209"/>
				</g>
			</g>
			<g>
				<g>
					<path id="SVGID_5_" d="M193.2,228.8c-4.8,2.1-8.2,5.9-8.2,11.7c0,6.8,5.5,12.2,12.2,12.2c6.4,0,10.2-4.4,11.8-9l8-25.3
						L193.2,228.8z"/>
				</g>
			</g>
			<g>
				<g>
					<path id="SVGID_7_" d="M270.6,228.8l-23.6-10.4l8,25.3c1.5,4.5,5.3,9,11.8,9l0,0c6.8,0,12.2-5.5,12.2-12.2
						C279,234.7,275.4,231,270.6,228.8"/>
				</g>
			</g>
			<g>
				<g>
					<path id="SVGID_9_" d="M218.3,220.7h27.3c-2.5-5.2-7.6-8.7-13.6-8.7C225.9,212,220.8,215.5,218.3,220.7"/>
				</g>
			</g>
			<g>
				<g>
					<rect id="SVGID_11_" x="216.8" y="227.7" width="30.2" height="8.1"/>
				</g>
			</g>
			<g>
				<g>
					<rect id="SVGID_13_" x="216.8" y="242.8" width="30.2" height="8.1"/>
				</g>
			</g>
			<g>
				<g>
					<path id="SVGID_15_" d="M231.9,266.5c6,0,11.2-3.6,13.6-8.7h-27.3C220.8,263,225.9,266.5,231.9,266.5"/>
				</g>
			</g>
		</g>
		<g>
			<g>
				<g>
					<path id="SVGID_17_" d="M232.1,169.2c5,0,9.2-4.2,9.2-9.2c0-5.2-4.1-9.2-9.2-9.2c-5,0-9.2,4.2-9.2,9.2
						C222.8,165,226.9,169.2,232.1,169.2"/>
				</g>
			</g>
			<g>
				<g>
					<path id="SVGID_19_" d="M232.1,185.4c16.5,0,30.7-10.6,36.7-25.6c-6-15-20.3-25.6-36.7-25.6s-30.7,10.6-36.7,25.6
						C201.3,174.9,215.5,185.4,232.1,185.4 M232.1,139c11.4,0,20.6,9.3,20.6,20.9s-9.2,20.9-20.6,20.9c-11.4,0-20.6-9.3-20.6-20.9
						C211.3,148.3,220.6,139,232.1,139"/>
				</g>
			</g>
			<g>
				<g>
					<path id="SVGID_21_" d="M232.1,122.8c13.9,0,26.2,6.3,34.4,16.2v-7c-6.9-12.5-19.8-20.9-34.4-20.9c-14.7,0-27.5,8.4-34.4,20.9
						v7C205.8,129.2,218.2,122.8,232.1,122.8"/>
				</g>
			</g>
		</g>
		<g>
			<g>
				<g>
					<g>
						<g>
							<rect id="SVGID_23_" x="194.1" y="338.8" width="23.7" height="4.3"/>
						</g>
					</g>
					<g>
						<g>
							<rect id="SVGID_25_" x="194.1" y="329.6" width="23.7" height="4.3"/>
						</g>
					</g>
					<g>
						<g>
							<rect id="SVGID_27_" x="203.6" y="320.5" width="14.3" height="4.3"/>
						</g>
					</g>
					<g>
						<g>
							<rect id="SVGID_29_" x="203.6" y="311.4" width="14.3" height="4.3"/>
						</g>
					</g>
					<g>
						<g>
							<rect id="SVGID_31_" x="246.2" y="338.8" width="23.7" height="4.3"/>
						</g>
					</g>
					<g>
						<g>
							<rect id="SVGID_33_" x="246.2" y="329.6" width="23.7" height="4.3"/>
						</g>
					</g>
					<g>
						<g>
							<rect id="SVGID_35_" x="246.2" y="320.5" width="14.3" height="4.3"/>
						</g>
					</g>
					<g>
						<g>
							<rect id="SVGID_37_" x="246.2" y="311.4" width="14.3" height="4.3"/>
						</g>
					</g>
					<g>
						<g>
							<polygon id="SVGID_39_" points="246.2,306.6 260.3,306.6 260.3,302.3 246.2,302.3 233.8,302.3 232.3,306.6 244.7,306.6 
								246.2,302.4 							"/>
						</g>
					</g>
					<g>
						<g>
							<polygon id="SVGID_41_" points="230.2,302.3 217.8,302.3 203.6,302.3 203.6,306.6 217.8,306.6 217.8,302.4 219.3,306.6 
								231.7,306.6 							"/>
						</g>
					</g>
					<g>
						<g>
							<polygon id="SVGID_43_" points="260.3,293.1 236.9,293.1 235.4,297.5 260.3,297.5 							"/>
						</g>
					</g>
					<g>
						<g>
							<polygon id="SVGID_45_" points="241.6,279.2 269.8,279.2 269.8,274.9 243.1,274.9 							"/>
						</g>
					</g>
					<g>
						<g>
							<polygon id="SVGID_47_" points="231.9,343.1 233.5,338.8 230.5,338.8 							"/>
						</g>
					</g>
					<g>
						<g>
							<polygon id="SVGID_49_" points="228.7,334 235.1,334 236.7,329.6 227.3,329.6 							"/>
						</g>
					</g>
					<g>
						<g>
							<polygon id="SVGID_51_" points="225.5,324.8 238.3,324.8 239.9,320.5 224.1,320.5 							"/>
						</g>
					</g>
					<g>
						<g>
							<polygon id="SVGID_53_" points="222.4,315.7 241.5,315.7 243,311.4 220.9,311.4 							"/>
						</g>
					</g>
					<g>
						<g>
							<polygon id="SVGID_55_" points="227,293.1 203.6,293.1 203.6,297.5 228.5,297.5 							"/>
						</g>
					</g>
					<g>
						<g>
							<polygon id="SVGID_57_" points="238.6,288.3 269.8,288.3 269.8,284 240,284 							"/>
						</g>
					</g>
					<g>
						<g>
							<polygon id="SVGID_59_" points="194.1,288.3 225.4,288.3 224,284 194.1,284 							"/>
						</g>
					</g>
					<g>
						<g>
							<polygon id="SVGID_61_" points="194.1,274.9 194.1,279.2 222.2,279.2 220.8,274.9 							"/>
						</g>
					</g>
				</g>
			</g>
		</g>
	</g>
</g>
</svg>
