<?xml version="1.0" encoding="UTF-8"?><svg width="32px" height="29px" viewBox="0 0 32 29" version="1.1" xmlns="http://www.w3.org/2000/svg" xmlns:xlink="http://www.w3.org/1999/xlink"><!--Generator: Sketch 49.3 (51167) - http://www.bohemiancoding.com/sketch--><title>Sketch</title><desc>Created with Sketch.</desc><defs/><g id="sketch-icon_svg__Desktop" stroke="none" stroke-width="1" fill="none" fill-rule="evenodd"><g id="sketch-icon_svg__Sketch" transform="translate(0.000000, -1.000000)"><rect id="sketch-icon_svg__Rectangle-21-Copy" x="0" y="0" width="32" height="32"/><g id="sketch-icon_svg__sketch-symbol" transform="translate(0.000000, 1.000000)" fill-rule="nonzero"><polygon fill="#FDB300" points="6.96774197 0.954324416 15.967742 0 24.967742 0.954324416 31.9354839 10.3358186 15.967742 28.9855822 0 10.3358186"/><g transform="translate(0.000000, 10.335819)"><polygon fill="#EA6C00" points="6.46773604 0 15.9677563 18.6497697 0 0"/><polygon fill="#EA6C00" transform="translate(23.951591, 9.324885) scale(-1, 1) translate(-23.951591, -9.324885) " points="22.4354492 0 31.9354695 18.6497697 15.9677131 0"/><polygon fill="#FDAD00" points="6.46773604 0 25.4677766 0 15.9677563 18.6497697"/></g><g><polygon fill="#FDD231" points="15.9677563 0 6.96771574 0.954311798 6.46773604 10.3358118"/><polygon fill="#FDD231" transform="translate(20.717717, 5.167906) scale(-1, 1) translate(-20.717717, -5.167906) " points="25.4677276 0 16.467687 0.954311798 15.9677073 10.3358118"/><polygon fill="#FDAD00" transform="translate(28.451612, 5.645062) scale(-1, 1) translate(-28.451612, -5.645062) " points="24.9677131 10.3358118 31.9355101 0.954311798 31.4354492 10.3358118"/><polygon fill="#FDAD00" points="0 10.3358118 6.96771574 0.954311798 6.46773604 10.3358118"/><polygon fill="#FEEEB7" points="15.9677563 0 6.46773604 10.3358118 25.4677766 10.3358118"/></g></g></g></g></svg>
