<svg xmlns="http://www.w3.org/2000/svg" xmlns:xlink="http://www.w3.org/1999/xlink" width="320" height="640" viewBox="0 0 320 640">
    <defs>
        <path id="a" d="M22.5 30c-8.284 0-15-6.716-15-15 0-8.284 6.716-15 15-15 8.284 0 15 6.716 15 15a15 15 0 0 1-15 15zm0-22.5a7.5 7.5 0 1 0 0 15 7.5 7.5 0 0 0 0-15zm60 22.5c-8.284 0-15-6.716-15-15 0-8.284 6.716-15 15-15 8.284 0 15 6.716 15 15a15 15 0 0 1-15 15zm0-22.5a7.5 7.5 0 1 0 0 15 7.5 7.5 0 0 0 0-15zM90 108.75H75a7.5 7.5 0 0 1-7.5-7.5V75H75v26.25h15V67.5h7.5V45a3.75 3.75 0 0 0-3.75-3.75H69.675l-17.175 30-17.175-30H11.25A3.75 3.75 0 0 0 7.5 45v22.5H15v33.75h15V75h7.5v26.25a7.5 7.5 0 0 1-7.5 7.5H15a7.5 7.5 0 0 1-7.5-7.5V75A7.5 7.5 0 0 1 0 67.5V45c0-6.213 5.037-11.25 11.25-11.25h28.425L52.5 56.25l12.825-22.5H93.75C99.963 33.75 105 38.787 105 45v22.5a7.5 7.5 0 0 1-7.5 7.5v26.25a7.5 7.5 0 0 1-7.5 7.5z"/>
        <path id="c" d="M94.125 59.625l-48.75-48.75c-9.527-9.527-24.973-9.527-34.5 0-9.527 9.527-9.527 24.973 0 34.5l11.25 11.25 5.288-5.288-11.25-11.25a16.875 16.875 0 1 1 23.85-23.85l48.75 48.75a16.875 16.875 0 1 1-23.85 23.85L41.924 65.85A9.413 9.413 0 0 1 55.2 52.5l11.888 11.888 5.287-5.288S60.263 46.987 60.187 46.987c-6.575-6.575-17.236-6.575-23.812 0-6.576 6.576-6.576 17.237 0 23.813l23.25 23.325a24.395 24.395 0 1 0 34.5-34.5z"/>
        <path id="e" d="M112.275 39.975C103.252 16.663 81.23.949 56.25 0 31.27.95 9.248 16.663.225 39.975a3.75 3.75 0 0 0 0 2.55C9.248 65.837 31.27 81.551 56.25 82.5c24.98-.95 47.002-16.663 56.025-39.975a3.75 3.75 0 0 0 0-2.55zM56.25 75C36.375 75 15.375 60.263 7.763 41.25 15.375 22.238 36.374 7.5 56.25 7.5c19.875 0 40.875 14.738 48.487 33.75C97.126 60.263 76.126 75 56.25 75zm0-56.25c-12.426 0-22.5 10.074-22.5 22.5s10.074 22.5 22.5 22.5 22.5-10.074 22.5-22.5-10.074-22.5-22.5-22.5zm0 37.5c-8.284 0-15-6.716-15-15 0-8.284 6.716-15 15-15 8.284 0 15 6.716 15 15a15 15 0 0 1-15 15z"/>
    </defs>
    <g fill="none" fill-rule="evenodd" transform="translate(103 150)">
        <g transform="translate(4.5 .75)">
            <mask id="b" fill="#fff">
                <use xlink:href="#a"/>
            </mask>
            <use fill="#fff" fill-rule="nonzero" xlink:href="#a"/>
        </g>
        <path d="M-3-3h120v120H-3z"/>
        <g transform="translate(4.5 276.5)">
            <mask id="d" fill="#fff">
                <use xlink:href="#c"/>
            </mask>
            <use fill="#fff" fill-rule="nonzero" xlink:href="#c"/>
        </g>
        <path d="M-3 269h120v120H-3z"/>
        <g>
            <g transform="translate(.75 151.75)">
                <mask id="f" fill="#fff">
                    <use xlink:href="#e"/>
                </mask>
                <use fill="#fff" fill-rule="nonzero" xlink:href="#e"/>
            </g>
            <path d="M-3 133h120v120H-3z"/>
        </g>
    </g>
</svg>
