<?xml version="1.0" encoding="UTF-8"?><svg width="320px" height="320px" viewBox="0 0 320 320" version="1.1" xmlns="http://www.w3.org/2000/svg" xmlns:xlink="http://www.w3.org/1999/xlink"><!--Generator: Sketch 49.2 (51160) - http://www.bohemiancoding.com/sketch--><title>S - Type Specs</title><desc>Created with Sketch.</desc><defs><rect id="type-scales_svg__path-1" x="0" y="0" width="320" height="320"/></defs><g id="type-scales_svg__Symbols" stroke="none" stroke-width="1" fill="none" fill-rule="evenodd"><g id="type-scales_svg__Split---Type-Specs"><g id="type-scales_svg__S---Type-Specs-Copy"><g><g id="type-scales_svg__S---Type-Specs"><rect fill="none" x="0" y="0" width="320" height="320"/><g id="type-scales_svg__Group-2"><g><use fill-opacity="0" fill="#051B75" fill-rule="evenodd" xlink:href="#type-scales_svg__path-1"/><rect x="0" y="0" width="320" height="320"/></g><g id="type-scales_svg__Group-3" transform="translate(16.000000, 16.000000)" fill="#FFFFFF"><g id="type-scales_svg__Group"><path d="M2.51245714,75.07109 L0.669257143,75.07109 L0.669257143,59.827564 L6.76937143,59.827564 C9.51222857,59.827564 11.0482286,61.5091564 11.0482286,64.1953365 C11.0482286,66.8815166 9.51222857,68.563109 6.76937143,68.563109 L2.51245714,68.563109 L2.51245714,75.07109 Z M2.51245714,61.4436398 L2.51245714,66.9470332 L6.76937143,66.9470332 C8.2176,66.9470332 9.07337143,66.1608341 9.07337143,64.7631469 L9.07337143,63.6275261 C9.07337143,62.2298389 8.2176,61.4436398 6.76937143,61.4436398 L2.51245714,61.4436398 Z M17.2141714,75.07109 L15.6562286,75.07109 C14.4493714,75.07109 13.7910857,74.3067299 13.7910857,73.2584645 L13.7910857,58.9103318 L15.5465143,58.9103318 L15.5465143,73.5423697 L17.2141714,73.5423697 L17.2141714,75.07109 Z M24.0164571,75.3331564 C20.9444571,75.3331564 18.9257143,73.018237 18.9257143,69.4366635 C18.9257143,65.85509 20.9444571,63.5401706 24.0164571,63.5401706 C27.0445714,63.5401706 28.9097143,65.85509 28.9097143,69.043564 L28.9097143,69.8734408 L20.7689143,69.8734408 L20.7689143,70.3975735 C20.7689143,72.3412322 22.0196571,73.804436 24.1261714,73.804436 C25.5524571,73.804436 26.6496,73.1055924 27.2420571,71.8607773 L28.4928,72.7561706 C27.7686857,74.284891 26.1449143,75.3331564 24.0164571,75.3331564 Z M24.0164571,65.0033744 C22.1074286,65.0033744 20.7689143,66.4447393 20.7689143,68.410237 L20.7689143,68.563109 L27.0226286,68.563109 L27.0226286,68.3228815 C27.0226286,66.335545 25.8157714,65.0033744 24.0164571,65.0033744 Z M30.1385143,75.07109 L34.3296,69.3929858 L30.3140571,63.802237 L32.3766857,63.802237 L35.2512,67.9952986 L35.3170286,67.9952986 L38.3012571,63.802237 L40.2541714,63.802237 L36.2605714,69.2619526 L40.3419429,75.07109 L38.2793143,75.07109 L35.3389714,70.6596398 L35.2731429,70.6596398 L32.0914286,75.07109 L30.1385143,75.07109 Z M57.984,75.07109 L47.9122286,75.07109 L47.9122286,73.4550142 L52.1910857,73.4550142 L52.1910857,61.1815735 L52.0374857,61.1815735 L48.1755429,64.7631469 L47.1003429,63.6056872 L51.1597714,59.827564 L54.0342857,59.827564 L54.0342857,73.4550142 L57.984,73.4550142 L57.984,75.07109 Z M65.7517714,75.3331564 C62.5700571,75.3331564 60.6171429,73.1055924 60.6171429,69.4803412 C60.6171429,64.9596967 63.6233143,61.4218009 66.0809143,59.827564 L68.4507429,59.827564 C65.1812571,62.208 63.36,64.1953365 62.5261714,67.7332322 L62.6358857,67.77691 C63.36,66.5320948 64.4571429,65.5930237 66.3222857,65.5930237 C68.9554286,65.5930237 70.8425143,67.4056493 70.8425143,70.2883791 C70.8425143,73.2803033 68.8237714,75.3331564 65.7517714,75.3331564 Z M65.7298286,73.7389194 C67.7485714,73.7389194 68.9334857,72.5814597 68.9334857,70.5286066 L68.9334857,70.3538957 C68.9334857,68.3010427 67.7485714,67.1435829 65.7298286,67.1435829 C63.7110857,67.1435829 62.5261714,68.3010427 62.5261714,70.3538957 L62.5261714,70.5286066 C62.5261714,72.5814597 63.7110857,73.7389194 65.7298286,73.7389194 Z" id="type-scales_svg__Plex-16"/><path d="M2.99794286,111.924171 L0.924342857,111.924171 L0.924342857,94.7752038 L7.78697143,94.7752038 C10.8726857,94.7752038 12.6006857,96.6669953 12.6006857,99.6889479 C12.6006857,102.7109 10.8726857,104.602692 7.78697143,104.602692 L2.99794286,104.602692 L2.99794286,111.924171 Z M2.99794286,96.5932891 L2.99794286,102.784607 L7.78697143,102.784607 C9.41622857,102.784607 10.3789714,101.900133 10.3789714,100.327735 L10.3789714,99.0501611 C10.3789714,97.477763 9.41622857,96.5932891 7.78697143,96.5932891 L2.99794286,96.5932891 Z M19.5373714,111.924171 L17.7846857,111.924171 C16.4269714,111.924171 15.6864,111.064265 15.6864,109.884967 L15.6864,93.7433175 L17.6612571,93.7433175 L17.6612571,110.20436 L19.5373714,110.20436 L19.5373714,111.924171 Z M27.1899429,112.218995 C23.7339429,112.218995 21.4628571,109.614711 21.4628571,105.585441 C21.4628571,101.556171 23.7339429,98.9518863 27.1899429,98.9518863 C30.5965714,98.9518863 32.6948571,101.556171 32.6948571,105.143204 L32.6948571,106.076815 L23.5364571,106.076815 L23.5364571,106.666464 C23.5364571,108.853081 24.9435429,110.499185 27.3133714,110.499185 C28.9179429,110.499185 30.1522286,109.712986 30.8187429,108.312569 L32.2258286,109.319886 C31.4112,111.039697 29.5844571,112.218995 27.1899429,112.218995 Z M27.1899429,100.597991 C25.0422857,100.597991 23.5364571,102.219526 23.5364571,104.430711 L23.5364571,104.602692 L30.5718857,104.602692 L30.5718857,104.332436 C30.5718857,102.096682 29.2141714,100.597991 27.1899429,100.597991 Z M34.0772571,111.924171 L38.7922286,105.536303 L34.2747429,99.2467109 L36.5952,99.2467109 L39.8290286,103.963905 L39.9030857,103.963905 L43.2603429,99.2467109 L45.4573714,99.2467109 L40.9645714,105.388891 L45.5561143,111.924171 L43.2356571,111.924171 L39.9277714,106.961289 L39.8537143,106.961289 L36.2742857,111.924171 L34.0772571,111.924171 Z M65.4034286,111.924171 L54.0726857,111.924171 L54.0726857,110.106085 L58.8864,110.106085 L58.8864,96.2984645 L58.7136,96.2984645 L54.3689143,100.327735 L53.1593143,99.0255924 L57.7261714,94.7752038 L60.96,94.7752038 L60.96,110.106085 L65.4034286,110.106085 L65.4034286,111.924171 Z M74.1174857,112.218995 C70.1924571,112.218995 68.1435429,110.081517 68.1435429,107.256114 C68.1435429,104.922085 69.5506286,103.570806 71.6242286,103.005725 L71.6242286,102.809175 C69.8221714,102.194957 68.6619429,100.745403 68.6619429,98.7799052 C68.6619429,96.1756209 70.6861714,94.4803791 74.1174857,94.4803791 C77.5488,94.4803791 79.5730286,96.1756209 79.5730286,98.7799052 C79.5730286,100.745403 78.4128,102.194957 76.6107429,102.809175 L76.6107429,103.005725 C78.6843429,103.570806 80.0914286,104.922085 80.0914286,107.256114 C80.0914286,110.081517 78.0425143,112.218995 74.1174857,112.218995 Z M74.1174857,110.425479 C76.512,110.425479 77.8944,109.295318 77.8944,107.354389 L77.8944,106.838445 C77.8944,104.897517 76.512,103.767355 74.1174857,103.767355 C71.7229714,103.767355 70.3405714,104.897517 70.3405714,106.838445 L70.3405714,107.354389 C70.3405714,109.295318 71.7229714,110.425479 74.1174857,110.425479 Z M74.1174857,102.047545 C76.2651429,102.047545 77.4253714,101.089365 77.4253714,99.3449858 L77.4253714,98.976455 C77.4253714,97.2320758 76.2651429,96.2738957 74.1174857,96.2738957 C71.9698286,96.2738957 70.8096,97.2320758 70.8096,98.976455 L70.8096,99.3449858 C70.8096,101.089365 71.9698286,102.047545 74.1174857,102.047545 Z" id="type-scales_svg__Plex-18"/><path d="M3.48342857,150.14218 L1.17942857,150.14218 L1.17942857,131.087773 L8.80457143,131.087773 C12.2331429,131.087773 14.1531429,133.189763 14.1531429,136.547488 C14.1531429,139.905213 12.2331429,142.007204 8.80457143,142.007204 L3.48342857,142.007204 L3.48342857,150.14218 Z M3.48342857,133.107867 L3.48342857,139.987109 L8.80457143,139.987109 C10.6148571,139.987109 11.6845714,139.00436 11.6845714,137.257251 L11.6845714,135.837725 C11.6845714,134.090616 10.6148571,133.107867 8.80457143,133.107867 L3.48342857,133.107867 Z M21.8605714,150.14218 L19.9131429,150.14218 C18.4045714,150.14218 17.5817143,149.18673 17.5817143,147.876398 L17.5817143,129.941232 L19.776,129.941232 L19.776,148.23128 L21.8605714,148.23128 L21.8605714,150.14218 Z M30.3634286,150.469763 C26.5234286,150.469763 24,147.576114 24,143.099147 C24,138.62218 26.5234286,135.728531 30.3634286,135.728531 C34.1485714,135.728531 36.48,138.62218 36.48,142.607773 L36.48,143.645118 L26.304,143.645118 L26.304,144.300284 C26.304,146.729858 27.8674286,148.558863 30.5005714,148.558863 C32.2834286,148.558863 33.6548571,147.685308 34.3954286,146.129289 L35.9588571,147.248531 C35.0537143,149.159431 33.024,150.469763 30.3634286,150.469763 Z M30.3634286,137.557536 C27.9771429,137.557536 26.304,139.359242 26.304,141.816114 L26.304,142.007204 L34.1211429,142.007204 L34.1211429,141.706919 C34.1211429,139.222749 32.6125714,137.557536 30.3634286,137.557536 Z M38.016,150.14218 L43.2548571,143.04455 L38.2354286,136.056114 L40.8137143,136.056114 L44.4068571,141.297441 L44.4891429,141.297441 L48.2194286,136.056114 L50.6605714,136.056114 L45.6685714,142.880758 L50.7702857,150.14218 L48.192,150.14218 L44.5165714,144.627867 L44.4342857,144.627867 L40.4571429,150.14218 L38.016,150.14218 Z M72.4388571,148.122085 L72.4388571,150.14218 L59.8765714,150.14218 L59.8765714,147.794502 L66.1302857,142.061801 C67.9131429,140.423886 69.2845714,138.512986 69.2845714,136.683981 L69.2845714,136.356398 C69.2845714,134.254408 68.1051429,132.807583 65.7462857,132.807583 C63.3874286,132.807583 62.2902857,134.227109 61.7691429,136.028815 L59.712,135.237156 C60.4525714,132.998673 62.1531429,130.76019 65.856,130.76019 C69.5862857,130.76019 71.7257143,133.05327 71.7257143,136.301801 C71.7257143,139.250047 69.9702857,141.324739 67.5291429,143.508626 L62.3725714,148.122085 L72.4388571,148.122085 Z M82.5051429,150.469763 C77.9245714,150.469763 75.9222857,146.839052 75.9222857,140.614976 C75.9222857,134.3909 77.9245714,130.76019 82.5051429,130.76019 C87.0857143,130.76019 89.088,134.3909 89.088,140.614976 C89.088,146.839052 87.0857143,150.469763 82.5051429,150.469763 Z M82.5051429,148.476967 C85.4948571,148.476967 86.6742857,145.856303 86.6742857,142.170995 L86.6742857,139.058957 C86.6742857,135.373649 85.4948571,132.752986 82.5051429,132.752986 C79.5154286,132.752986 78.336,135.373649 78.336,139.058957 L78.336,142.170995 C78.336,145.856303 79.5154286,148.476967 82.5051429,148.476967 Z" id="type-scales_svg__Plex-20"/><path d="M4.4544,191.090047 L1.6896,191.090047 L1.6896,168.224758 L10.8397714,168.224758 C14.9540571,168.224758 17.2580571,170.747147 17.2580571,174.776417 C17.2580571,178.805687 14.9540571,181.328076 10.8397714,181.328076 L4.4544,181.328076 L4.4544,191.090047 Z M4.4544,170.648872 L4.4544,178.903962 L10.8397714,178.903962 C13.0121143,178.903962 14.2957714,177.724664 14.2957714,175.628133 L14.2957714,173.924701 C14.2957714,171.828171 13.0121143,170.648872 10.8397714,170.648872 L4.4544,170.648872 Z M26.5069714,191.090047 L24.1700571,191.090047 C22.3597714,191.090047 21.3723429,189.943507 21.3723429,188.371109 L21.3723429,166.84891 L24.0054857,166.84891 L24.0054857,188.796967 L26.5069714,188.796967 L26.5069714,191.090047 Z M36.7104,191.483147 C32.1024,191.483147 29.0742857,188.010768 29.0742857,182.638408 C29.0742857,177.266047 32.1024,173.793668 36.7104,173.793668 C41.2525714,173.793668 44.0502857,177.266047 44.0502857,182.048758 L44.0502857,183.293573 L31.8390857,183.293573 L31.8390857,184.079773 C31.8390857,186.995261 33.7152,189.190066 36.8749714,189.190066 C39.0144,189.190066 40.6601143,188.141801 41.5488,186.274578 L43.4249143,187.617668 C42.3387429,189.910749 39.9030857,191.483147 36.7104,191.483147 Z M36.7104,175.988474 C33.8468571,175.988474 31.8390857,178.150521 31.8390857,181.098768 L31.8390857,181.328076 L41.2196571,181.328076 L41.2196571,180.967735 C41.2196571,177.98673 39.4093714,175.988474 36.7104,175.988474 Z M45.8934857,191.090047 L52.1801143,182.572891 L46.1568,174.186768 L49.2507429,174.186768 L53.5625143,180.47636 L53.6612571,180.47636 L58.1376,174.186768 L61.0669714,174.186768 L55.0765714,182.376341 L61.1986286,191.090047 L58.1046857,191.090047 L53.6941714,184.472872 L53.5954286,184.472872 L48.8228571,191.090047 L45.8934857,191.090047 Z M87.2009143,188.665934 L87.2009143,191.090047 L72.1261714,191.090047 L72.1261714,188.272834 L79.6306286,181.393592 C81.7700571,179.428095 83.4157714,177.135014 83.4157714,174.940209 L83.4157714,174.547109 C83.4157714,172.02472 82.0004571,170.288531 79.1698286,170.288531 C76.3392,170.288531 75.0226286,171.991962 74.3972571,174.154009 L71.9286857,173.204019 C72.8173714,170.517839 74.8580571,167.831659 79.3014857,167.831659 C83.7778286,167.831659 86.3451429,170.583355 86.3451429,174.481592 C86.3451429,178.019488 84.2386286,180.509118 81.3092571,183.129782 L75.1213714,188.665934 L87.2009143,188.665934 Z M104.382171,191.090047 L101.749029,191.090047 L101.749029,186.602161 L90.6569143,186.602161 L90.6569143,184.178047 L100.267886,168.224758 L104.382171,168.224758 L104.382171,184.309081 L107.706514,184.309081 L107.706514,186.602161 L104.382171,186.602161 L104.382171,191.090047 Z M101.584457,170.354047 L93.2571429,184.309081 L101.749029,184.309081 L101.749029,170.354047 L101.584457,170.354047 Z" id="type-scales_svg__Plex-24"/><path d="M5.42537143,236.132701 L2.19977143,236.132701 L2.19977143,209.456531 L12.8749714,209.456531 C17.6749714,209.456531 20.3629714,212.399318 20.3629714,217.100133 C20.3629714,221.800948 17.6749714,224.743735 12.8749714,224.743735 L5.42537143,224.743735 L5.42537143,236.132701 Z M5.42537143,212.284664 L5.42537143,221.915602 L12.8749714,221.915602 C15.4093714,221.915602 16.9069714,220.539754 16.9069714,218.093801 L16.9069714,216.106464 C16.9069714,213.660512 15.4093714,212.284664 12.8749714,212.284664 L5.42537143,212.284664 Z M31.1533714,236.132701 L28.4269714,236.132701 C26.3149714,236.132701 25.1629714,234.795071 25.1629714,232.960607 L25.1629714,207.851374 L28.2349714,207.851374 L28.2349714,233.457441 L31.1533714,233.457441 L31.1533714,236.132701 Z M43.0573714,236.591318 C37.6813714,236.591318 34.1485714,232.540209 34.1485714,226.272455 C34.1485714,220.004701 37.6813714,215.953592 43.0573714,215.953592 C48.3565714,215.953592 51.6205714,220.004701 51.6205714,225.584531 L51.6205714,227.036815 L37.3741714,227.036815 L37.3741714,227.954047 C37.3741714,231.35545 39.5629714,233.916057 43.2493714,233.916057 C45.7453714,233.916057 47.6653714,232.693081 48.7021714,230.514654 L50.8909714,232.081592 C49.6237714,234.756853 46.7821714,236.591318 43.0573714,236.591318 Z M43.0573714,218.514199 C39.7165714,218.514199 37.3741714,221.036588 37.3741714,224.476209 L37.3741714,224.743735 L48.3181714,224.743735 L48.3181714,224.323336 C48.3181714,220.845498 46.2061714,218.514199 43.0573714,218.514199 Z M53.7709714,236.132701 L61.1053714,226.196019 L54.0781714,216.412209 L57.6877714,216.412209 L62.7181714,223.750066 L62.8333714,223.750066 L68.0557714,216.412209 L71.4733714,216.412209 L64.4845714,225.966711 L71.6269714,236.132701 L68.0173714,236.132701 L62.8717714,228.412664 L62.7565714,228.412664 L57.1885714,236.132701 L53.7709714,236.132701 Z M101.962971,233.304569 L101.962971,236.132701 L84.3757714,236.132701 L84.3757714,232.845953 L93.1309714,224.820171 C95.6269714,222.52709 97.5469714,219.851829 97.5469714,217.291223 L97.5469714,216.832607 C97.5469714,213.88982 95.8957714,211.864265 92.5933714,211.864265 C89.2909714,211.864265 87.7549714,213.851602 87.0253714,216.373991 L84.1453714,215.265668 C85.1821714,212.131791 87.5629714,208.997915 92.7469714,208.997915 C97.9693714,208.997915 100.964571,212.208227 100.964571,216.756171 C100.964571,220.883716 98.5069714,223.788284 95.0893714,226.845725 L87.8701714,233.304569 L101.962971,233.304569 Z M116.055771,236.591318 C109.950171,236.591318 106.762971,233.266351 106.762971,228.87128 C106.762971,225.240569 108.951771,223.138578 112.177371,222.259564 L112.177371,221.95382 C109.374171,220.99837 107.569371,218.743507 107.569371,215.686066 C107.569371,211.634957 110.718171,208.997915 116.055771,208.997915 C121.393371,208.997915 124.542171,211.634957 124.542171,215.686066 C124.542171,218.743507 122.737371,220.99837 119.934171,221.95382 L119.934171,222.259564 C123.159771,223.138578 125.348571,225.240569 125.348571,228.87128 C125.348571,233.266351 122.161371,236.591318 116.055771,236.591318 Z M116.055771,233.801403 C119.780571,233.801403 121.930971,232.043374 121.930971,229.024152 L121.930971,228.221573 C121.930971,225.202351 119.780571,223.444322 116.055771,223.444322 C112.330971,223.444322 110.180571,225.202351 110.180571,228.221573 L110.180571,229.024152 C110.180571,232.043374 112.330971,233.801403 116.055771,233.801403 Z M116.055771,220.769062 C119.396571,220.769062 121.201371,219.278559 121.201371,216.565081 L121.201371,215.99181 C121.201371,213.278332 119.396571,211.787829 116.055771,211.787829 C112.714971,211.787829 110.910171,213.278332 110.910171,215.99181 L110.910171,216.565081 C110.910171,219.278559 112.714971,220.769062 116.055771,220.769062 Z" id="type-scales_svg__Plex-28"/><path d="M6.39634286,286.635071 L2.70994286,286.635071 L2.70994286,256.148019 L14.9101714,256.148019 C20.3958857,256.148019 23.4678857,259.511204 23.4678857,264.883564 C23.4678857,270.255924 20.3958857,273.619109 14.9101714,273.619109 L6.39634286,273.619109 L6.39634286,286.635071 Z M6.39634286,259.380171 L6.39634286,270.386957 L14.9101714,270.386957 C17.8066286,270.386957 19.5181714,268.814559 19.5181714,266.019185 L19.5181714,263.747943 C19.5181714,260.952569 17.8066286,259.380171 14.9101714,259.380171 L6.39634286,259.380171 Z M35.7997714,286.635071 L32.6838857,286.635071 C30.2701714,286.635071 28.9536,285.106351 28.9536,283.00982 L28.9536,254.313555 L32.4644571,254.313555 L32.4644571,283.57763 L35.7997714,283.57763 L35.7997714,286.635071 Z M49.4043429,287.159204 C43.2603429,287.159204 39.2228571,282.529365 39.2228571,275.366218 C39.2228571,268.203071 43.2603429,263.573232 49.4043429,263.573232 C55.4605714,263.573232 59.1908571,268.203071 59.1908571,274.580019 L59.1908571,276.239773 L42.9092571,276.239773 L42.9092571,277.288038 C42.9092571,281.175355 45.4107429,284.101763 49.6237714,284.101763 C52.4763429,284.101763 54.6706286,282.704076 55.8555429,280.214445 L58.3570286,282.005232 C56.9088,285.062673 53.6612571,287.159204 49.4043429,287.159204 Z M49.4043429,266.49964 C45.5862857,266.49964 42.9092571,269.38237 42.9092571,273.313365 L42.9092571,273.619109 L55.4166857,273.619109 L55.4166857,273.138654 C55.4166857,269.163981 53.0029714,266.49964 49.4043429,266.49964 Z M61.6484571,286.635071 L70.0306286,275.278863 L61.9995429,264.097365 L66.1248,264.097365 L71.8738286,272.483488 L72.0054857,272.483488 L77.9739429,264.097365 L81.8797714,264.097365 L73.8925714,275.016796 L82.0553143,286.635071 L77.9300571,286.635071 L72.0493714,277.812171 L71.9177143,277.812171 L65.5542857,286.635071 L61.6484571,286.635071 Z M101.4528,269.076626 L104.788114,269.076626 C108.913371,269.076626 111.019886,266.936417 111.019886,264.010009 L111.019886,263.704265 C111.019886,260.515791 108.781714,258.899716 105.534171,258.899716 C102.3744,258.899716 100.487314,260.384758 99.2146286,262.699678 L96.4937143,260.603147 C98.0297143,258.157194 100.706743,255.623886 105.621943,255.623886 C110.800457,255.623886 114.925714,258.375583 114.925714,263.311166 C114.925714,267.242161 112.292571,269.600758 109.045029,270.430635 L109.045029,270.605346 C112.336457,271.260512 115.496229,273.706464 115.496229,278.292626 C115.496229,283.533953 111.327086,287.159204 105.095314,287.159204 C99.7851429,287.159204 97.0642286,284.582218 95.1771429,281.961555 L97.9419429,279.865024 C99.5218286,282.267299 101.321143,283.883374 105.051429,283.883374 C109.352229,283.883374 111.634286,281.830521 111.634286,278.248948 L111.634286,277.899526 C111.634286,274.317953 109.352229,272.2651 105.051429,272.2651 L101.4528,272.2651 L101.4528,269.076626 Z M143.056457,283.402919 L143.056457,286.635071 L122.9568,286.635071 L122.9568,282.878787 L132.962743,273.706464 C135.815314,271.085801 138.0096,268.02836 138.0096,265.101953 L138.0096,264.57782 C138.0096,261.214635 136.122514,258.899716 132.348343,258.899716 C128.574171,258.899716 126.818743,261.170957 125.984914,264.053687 L122.693486,262.787033 C123.8784,259.20546 126.599314,255.623886 132.523886,255.623886 C138.492343,255.623886 141.915429,259.292815 141.915429,264.490464 C141.915429,269.207659 139.106743,272.527166 135.200914,276.021384 L126.9504,283.402919 L143.056457,283.402919 Z" id="type-scales_svg__Plex-32"/><path d="M1.54148571,12.2843602 L0.159085714,12.2843602 L0.159085714,0.85171564 L4.73417143,0.85171564 C6.79131429,0.85171564 7.94331429,2.11290995 7.94331429,4.12754502 C7.94331429,6.14218009 6.79131429,7.40337441 4.73417143,7.40337441 L1.54148571,7.40337441 L1.54148571,12.2843602 Z M1.54148571,2.06377251 L1.54148571,6.19131754 L4.73417143,6.19131754 C5.82034286,6.19131754 6.46217143,5.60166825 6.46217143,4.55340284 L6.46217143,3.7016872 C6.46217143,2.6534218 5.82034286,2.06377251 4.73417143,2.06377251 L1.54148571,2.06377251 Z M12.5677714,12.2843602 L11.3993143,12.2843602 C10.4941714,12.2843602 10.0004571,11.71109 10.0004571,10.924891 L10.0004571,0.163791469 L11.3170286,0.163791469 L11.3170286,11.1378199 L12.5677714,11.1378199 L12.5677714,12.2843602 Z M17.6694857,12.48091 C15.3654857,12.48091 13.8514286,10.7447204 13.8514286,8.05854028 C13.8514286,5.37236019 15.3654857,3.63617062 17.6694857,3.63617062 C19.9405714,3.63617062 21.3394286,5.37236019 21.3394286,7.76371564 L21.3394286,8.38612322 L15.2338286,8.38612322 L15.2338286,8.77922275 C15.2338286,10.2369668 16.1718857,11.3343697 17.7517714,11.3343697 C18.8214857,11.3343697 19.6443429,10.810237 20.0886857,9.87662559 L21.0267429,10.5481706 C20.4836571,11.6947109 19.2658286,12.48091 17.6694857,12.48091 Z M17.6694857,4.73357346 C16.2377143,4.73357346 15.2338286,5.81459716 15.2338286,7.28872038 L15.2338286,7.40337441 L19.9241143,7.40337441 L19.9241143,7.22320379 C19.9241143,5.73270142 19.0189714,4.73357346 17.6694857,4.73357346 Z M22.4585143,12.2843602 L25.6018286,8.02578199 L22.5901714,3.83272038 L24.1371429,3.83272038 L26.2930286,6.97751659 L26.3424,6.97751659 L28.5805714,3.83272038 L30.0452571,3.83272038 L27.0500571,7.92750711 L30.1110857,12.2843602 L28.5641143,12.2843602 L26.3588571,8.97577251 L26.3094857,8.97577251 L23.9232,12.2843602 L22.4585143,12.2843602 Z M43.3426286,12.2843602 L35.7888,12.2843602 L35.7888,11.0723033 L38.9979429,11.0723033 L38.9979429,1.86722275 L38.8827429,1.86722275 L35.9862857,4.55340284 L35.1798857,3.68530806 L38.2244571,0.85171564 L40.3803429,0.85171564 L40.3803429,11.0723033 L43.3426286,11.0723033 L43.3426286,12.2843602 Z M52.9865143,11.0723033 L52.9865143,12.2843602 L45.4491429,12.2843602 L45.4491429,10.8757536 L49.2013714,7.4361327 C50.2710857,6.45338389 51.0939429,5.3068436 51.0939429,4.20944076 L51.0939429,4.012891 C51.0939429,2.75169668 50.3862857,1.8836019 48.9709714,1.8836019 C47.5556571,1.8836019 46.8973714,2.73531754 46.5846857,3.81634123 L45.3504,3.34134597 C45.7947429,1.99825592 46.8150857,0.655165877 49.0368,0.655165877 C51.2749714,0.655165877 52.5586286,2.03101422 52.5586286,3.9801327 C52.5586286,5.74908057 51.5053714,6.99389573 50.0406857,8.30422749 L46.9467429,11.0723033 L52.9865143,11.0723033 Z" id="type-scales_svg__Plex-12"/><path d="M2.02697143,42.3127962 L0.414171429,42.3127962 L0.414171429,28.9747109 L5.75177143,28.9747109 C8.15177143,28.9747109 9.49577143,30.4461043 9.49577143,32.7965118 C9.49577143,35.1469194 8.15177143,36.6183128 5.75177143,36.6183128 L2.02697143,36.6183128 L2.02697143,42.3127962 Z M2.02697143,30.3887773 L2.02697143,35.2042464 L5.75177143,35.2042464 C7.01897143,35.2042464 7.76777143,34.5163223 7.76777143,33.293346 L7.76777143,32.2996777 C7.76777143,31.0767014 7.01897143,30.3887773 5.75177143,30.3887773 L2.02697143,30.3887773 Z M15.0281143,42.3127962 L13.6649143,42.3127962 C12.6089143,42.3127962 12.0329143,41.643981 12.0329143,40.7267488 L12.0329143,28.1721327 L13.5689143,28.1721327 L13.5689143,40.9751659 L15.0281143,40.9751659 L15.0281143,42.3127962 Z M21.1172571,42.5421043 C18.4292571,42.5421043 16.6628571,40.5165498 16.6628571,37.382673 C16.6628571,34.2487962 18.4292571,32.2232417 21.1172571,32.2232417 C23.7668571,32.2232417 25.3988571,34.2487962 25.3988571,37.0387109 L25.3988571,37.7648531 L18.2756571,37.7648531 L18.2756571,38.2234692 C18.2756571,39.9241706 19.3700571,41.2044739 21.2132571,41.2044739 C22.4612571,41.2044739 23.4212571,40.5929858 23.9396571,39.5037725 L25.0340571,40.2872417 C24.4004571,41.624872 22.9796571,42.5421043 21.1172571,42.5421043 Z M21.1172571,33.503545 C19.4468571,33.503545 18.2756571,34.7647393 18.2756571,36.4845498 L18.2756571,36.6183128 L23.7476571,36.6183128 L23.7476571,36.4081137 C23.7476571,34.6691943 22.6916571,33.503545 21.1172571,33.503545 Z M26.6112,42.3127962 L30.2784,37.344455 L26.7648,32.4525498 L28.5696,32.4525498 L31.0848,36.1214787 L31.1424,36.1214787 L33.7536,32.4525498 L35.4624,32.4525498 L31.968,37.2298009 L35.5392,42.3127962 L33.7344,42.3127962 L31.1616,38.4527773 L31.104,38.4527773 L28.32,42.3127962 L26.6112,42.3127962 Z M51.2502857,42.3127962 L42.4374857,42.3127962 L42.4374857,40.8987299 L46.1814857,40.8987299 L46.1814857,30.1594692 L46.0470857,30.1594692 L42.6678857,33.293346 L41.7270857,32.2805687 L45.2790857,28.9747109 L47.7942857,28.9747109 L47.7942857,40.8987299 L51.2502857,40.8987299 L51.2502857,42.3127962 Z M61.1410286,42.3127962 L59.6050286,42.3127962 L59.6050286,39.6948626 L53.1346286,39.6948626 L53.1346286,38.2807962 L58.7410286,28.9747109 L61.1410286,28.9747109 L61.1410286,38.3572322 L63.0802286,38.3572322 L63.0802286,39.6948626 L61.1410286,39.6948626 L61.1410286,42.3127962 Z M59.5090286,30.2167962 L54.6514286,38.3572322 L59.6050286,38.3572322 L59.6050286,30.2167962 L59.5090286,30.2167962 Z" id="type-scales_svg__Plex-14"/></g></g></g></g></g></g></g></g></svg>
