<?xml version="1.0" encoding="utf-8"?>
<!-- Generator: Adobe Illustrator 25.2.0, SVG Export Plug-In . SVG Version: 6.00 Build 0)  -->
<svg version="1.1" id="Layer_1" xmlns="http://www.w3.org/2000/svg" xmlns:xlink="http://www.w3.org/1999/xlink" x="0px" y="0px"
	 viewBox="0 0 922 691.5" style="enable-background:new 0 0 922 691.5;" xml:space="preserve">
<style type="text/css">
	.st0{fill-rule:evenodd;clip-rule:evenodd;fill:#FFFFFF;}
	.st1{fill:#F3F3F3;}
	.st2{fill:#6EA6FF;}
	.st3{fill:#171717;}
	.st4{fill:#BB8EFF;}
	.st5{fill:#00BAB6;}
	.st6{fill-rule:evenodd;clip-rule:evenodd;fill:#FA75A6;}
	.st7{fill:#FA75A6;}
</style>
<g id="_32x32-base-grid-comp-copy-13">
	<polygon id="Rectangle-3" class="st0" points="0,0 922,0 922,691.5 0,691.5 	"/>
</g>
<rect id="Rectangle-13-Copy-102" x="320.5" y="87.4" class="st1" width="242.6" height="242.6"/>
<rect id="Rectangle-13-Copy-103" x="320.5" y="360.4" class="st1" width="242.6" height="242.6"/>
<rect id="Rectangle-13-Copy-106" x="591.9" y="87.4" class="st1" width="242.6" height="242.6"/>
<rect id="Rectangle-13-Copy-107" x="591.9" y="360.4" class="st1" width="242.6" height="242.6"/>
<g id="Group-22-Copy-4">
	<g id="Group-21">
		<path class="st2" d="M471.7,248.3c-5.3,0-9.6-4.2-9.6-9.5c0-5.3,4.2-9.6,9.5-9.6c5.3,0,9.6,4.2,9.6,9.5c0,0,0,0.1,0,0.1
			C481.2,244,477,248.3,471.7,248.3z M471.7,231.6c-4,0-7.2,3.1-7.3,7.1c0,4,3.1,7.2,7.1,7.3s7.2-3.1,7.3-7.1c0,0,0-0.1,0-0.1
			C478.8,234.8,475.7,231.6,471.7,231.6z"/>
		<path class="st2" d="M537.9,315.2c-5.3,0-9.6-4.2-9.6-9.5c0-5.3,4.2-9.6,9.5-9.6c5.3,0,9.6,4.2,9.6,9.5c0,0,0,0.1,0,0.1
			C547.4,310.9,543.2,315.2,537.9,315.2z M537.9,298.5c-4,0-7.2,3.1-7.3,7.1c0,4,3.1,7.2,7.1,7.3s7.2-3.1,7.3-7.1c0,0,0-0.1,0-0.1
			C545.1,301.8,541.9,298.5,537.9,298.5L537.9,298.5z"/>
		<path class="st2" d="M471.7,309.7c-2.2,0-4-1.7-4-3.9c0-2.2,1.7-4,3.9-4c2.2,0,4,1.7,4,3.9c0,0,0,0,0,0
			C475.7,307.9,473.9,309.7,471.7,309.7z M471.7,304.1c-0.9,0-1.6,0.7-1.6,1.6c0,0.9,0.7,1.6,1.6,1.6c0.9,0,1.6-0.7,1.6-1.6
			c0,0,0,0,0,0C473.3,304.8,472.6,304.1,471.7,304.1L471.7,304.1z"/>
		<path class="st2" d="M537.9,242.7c-2.2,0-4-1.7-4-3.9c0-2.2,1.7-4,3.9-4c2.2,0,4,1.7,4,3.9c0,0,0,0,0,0
			C541.9,240.9,540.1,242.7,537.9,242.7z M537.9,237.2c-0.9,0-1.6,0.7-1.6,1.6s0.7,1.6,1.6,1.6c0.9,0,1.6-0.7,1.6-1.6c0,0,0,0,0,0
			C539.5,237.9,538.8,237.2,537.9,237.2z"/>
		<path class="st2" d="M504.8,287.4c-8.4,0.1-15.2-6.6-15.3-15c-0.1-8.4,6.6-15.2,15-15.3c8.4-0.1,15.2,6.6,15.3,15c0,0,0,0.1,0,0.1
			C519.8,280.5,513.1,287.3,504.8,287.4z M504.8,259.5c-7.1-0.1-12.8,5.6-12.9,12.6c-0.1,7.1,5.6,12.8,12.6,12.9
			c7.1,0.1,12.8-5.6,12.9-12.6c0,0,0-0.1,0-0.1C517.5,265.2,511.8,259.5,504.8,259.5L504.8,259.5z"/>
		<path class="st2" d="M504.8,281.8c-5.3,0-9.6-4.2-9.6-9.5s4.2-9.6,9.5-9.6c5.3,0,9.6,4.2,9.6,9.5c0,0,0,0.1,0,0.1
			C514.3,277.5,510.1,281.7,504.8,281.8z M504.8,265c-4,0-7.2,3.1-7.3,7.1c0,4,3.1,7.2,7.1,7.3c4,0,7.2-3.1,7.3-7.1c0,0,0-0.1,0-0.1
			C512,268.3,508.8,265.1,504.8,265L504.8,265z"/>
		<path class="st2" d="M537.9,229.2c-5.3,0.1-9.5,4.4-9.5,9.6c0,2.1,0.7,4.1,2,5.8l-10.4,10.5c-4.7-2.4-10-3.6-15.3-3.6
			c-22.6,0-31.4,20-31.4,20.2c-0.1,0.3-0.1,0.6,0,0.9c3.1,6.4,8,11.8,14,15.5l-9.9,10c-1.6-1.3-3.7-2-5.8-2c-5.3,0-9.6,4.2-9.6,9.5
			c0,5.3,4.2,9.6,9.5,9.6c5.3,0,9.6-4.2,9.6-9.5c0-2.1-0.7-4.2-2-5.9l10.4-10.5c4.7,2.4,10,3.6,15.3,3.6c22.6,0,31.4-20,31.4-20.2
			c0.1-0.3,0.1-0.6,0-0.9c-3.1-6.4-8-11.8-14-15.5l9.9-10c1.6,1.3,3.7,2,5.8,2c5.3-0.1,9.5-4.4,9.4-9.6
			C547.3,233.5,543.1,229.3,537.9,229.2L537.9,229.2z M471.7,312.9c-4,0-7.2-3.1-7.3-7.1s3.1-7.2,7.1-7.3c4,0,7.2,3.1,7.3,7.1
			c0,0,0,0.1,0,0.1C478.8,309.7,475.7,312.9,471.7,312.9L471.7,312.9z M533.9,272.2c-1.4,2.9-9.7,18.3-29.1,18.3
			s-27.7-15.4-29.1-18.3c1.4-3,9.7-18.3,29.1-18.3S532.5,269.3,533.9,272.2L533.9,272.2z M537.9,246c-4,0-7.2-3.1-7.3-7.1
			c0-4,3.1-7.2,7.1-7.3c4,0,7.2,3.1,7.3,7.1c0,0,0,0.1,0,0.1C545.1,242.7,541.9,245.9,537.9,246L537.9,246z"/>
	</g>
</g>
<g id="Learn-Copy">
	<g>
		<path class="st3" d="M337,116.2v-10.7h1.7v9.2h4.4v1.5H337z"/>
		<path class="st3" d="M347.7,116.4c-0.5,0-1-0.1-1.5-0.3c-0.4-0.2-0.8-0.5-1.2-0.8c-0.3-0.4-0.6-0.8-0.7-1.3
			c-0.3-1.1-0.3-2.3,0-3.5c0.2-0.5,0.4-0.9,0.7-1.3c0.3-0.4,0.7-0.6,1.2-0.8c0.5-0.2,1-0.3,1.5-0.3c0.5,0,1.1,0.1,1.5,0.3
			c0.4,0.2,0.8,0.5,1.1,0.9c0.3,0.4,0.5,0.8,0.7,1.3c0.2,0.5,0.2,1,0.2,1.6v0.6h-5.5v0.3c0,0.6,0.2,1.1,0.5,1.5
			c0.4,0.4,1,0.6,1.6,0.6c0.4,0,0.9-0.1,1.2-0.3c0.3-0.2,0.6-0.5,0.9-0.9l1,1c-0.3,0.5-0.8,0.9-1.3,1.2
			C349.1,116.3,348.4,116.5,347.7,116.4z M347.7,109.4c-0.3,0-0.5,0-0.8,0.2c-0.2,0.1-0.4,0.2-0.6,0.4c-0.2,0.2-0.3,0.4-0.4,0.7
			c-0.1,0.3-0.1,0.6-0.1,0.8v0.1h3.7v-0.2c0-0.5-0.1-1.1-0.5-1.5C348.7,109.6,348.2,109.4,347.7,109.4z"/>
		<path class="st3" d="M359,116.2c-0.4,0-0.7-0.1-1-0.4c-0.2-0.3-0.4-0.6-0.4-1h-0.1c-0.1,0.5-0.4,0.9-0.8,1.1
			c-0.5,0.3-1,0.4-1.5,0.4c-0.7,0-1.4-0.2-1.9-0.6c-0.5-0.5-0.7-1.1-0.7-1.7c0-0.7,0.3-1.4,0.9-1.8c0.8-0.4,1.7-0.7,2.5-0.6h1.4V111
			c0-0.4-0.1-0.8-0.4-1.1c-0.3-0.3-0.8-0.4-1.2-0.4c-0.4,0-0.8,0.1-1.2,0.3c-0.3,0.2-0.6,0.5-0.8,0.8l-1-0.9
			c0.3-0.5,0.7-0.8,1.1-1.1c0.6-0.3,1.2-0.5,1.9-0.4c0.9-0.1,1.7,0.2,2.4,0.7c0.6,0.5,0.9,1.3,0.8,2.1v4h0.8v1.4H359z M355.6,115.2
			c0.5,0,0.9-0.1,1.3-0.3c0.3-0.2,0.5-0.6,0.5-0.9v-1.2H356c-1.2,0-1.7,0.4-1.7,1.1v0.3c0,0.3,0.1,0.6,0.4,0.8
			C354.9,115.1,355.2,115.2,355.6,115.2L355.6,115.2z"/>
		<path class="st3" d="M361.6,116.2v-8h1.7v1.5h0.1c0.1-0.4,0.4-0.8,0.7-1.1c0.4-0.3,1-0.5,1.5-0.5h0.4v1.6h-0.7
			c-0.5,0-1.1,0.1-1.5,0.3c-0.3,0.2-0.5,0.6-0.5,1v5.1H361.6z"/>
		<path class="st3" d="M367.4,116.2v-8h1.7v1.3h0.1c0.2-0.4,0.4-0.8,0.8-1.1c0.4-0.3,0.9-0.5,1.5-0.4c0.7,0,1.4,0.3,1.9,0.8
			c0.5,0.7,0.7,1.5,0.7,2.3v5.1h-1.7v-4.9c0-1.2-0.5-1.9-1.5-1.9c-0.2,0-0.4,0-0.6,0.1c-0.2,0.1-0.4,0.1-0.6,0.3
			c-0.2,0.1-0.3,0.3-0.4,0.4c-0.1,0.2-0.2,0.4-0.1,0.6v5.3H367.4z"/>
	</g>
</g>
<g id="Supply-Copy-2">
	<g>
		<path class="st3" d="M340.2,390.9c-0.8,0-1.6-0.1-2.3-0.5c-0.6-0.3-1.2-0.8-1.6-1.3l1.2-1.1c0.3,0.4,0.8,0.8,1.3,1
			c0.5,0.2,1,0.4,1.6,0.4c0.6,0,1.1-0.1,1.6-0.5c0.4-0.3,0.5-0.8,0.5-1.2c0-0.4-0.1-0.7-0.4-1c-0.4-0.3-0.8-0.5-1.3-0.6l-1-0.2
			c-0.9-0.1-1.7-0.5-2.4-1c-0.5-0.5-0.8-1.3-0.8-2c0-0.4,0.1-0.9,0.3-1.3c0.2-0.4,0.4-0.7,0.8-1c0.3-0.3,0.7-0.5,1.2-0.6
			c0.5-0.1,1-0.2,1.6-0.2c0.7,0,1.4,0.1,2.1,0.4c0.6,0.3,1.1,0.7,1.5,1.2l-1.2,1.1c-0.3-0.4-0.6-0.6-1-0.9c-0.5-0.2-1-0.3-1.5-0.3
			c-0.5,0-1,0.1-1.4,0.4c-0.3,0.3-0.5,0.7-0.5,1.1c0,0.4,0.1,0.8,0.4,1c0.4,0.3,0.8,0.4,1.3,0.5l1,0.2c0.9,0.1,1.7,0.5,2.4,1
			c0.5,0.5,0.8,1.3,0.7,2c0,0.5-0.1,0.9-0.3,1.4c-0.2,0.4-0.4,0.8-0.8,1.1c-0.4,0.3-0.8,0.5-1.2,0.7
			C341.3,390.8,340.7,390.9,340.2,390.9z"/>
		<path class="st3" d="M350.9,389.4L350.9,389.4c-0.1,0.2-0.2,0.4-0.3,0.6c-0.1,0.2-0.3,0.3-0.4,0.5c-0.2,0.1-0.4,0.3-0.6,0.3
			c-0.3,0.1-0.6,0.1-0.9,0.1c-0.7,0-1.4-0.3-1.9-0.8c-0.5-0.7-0.7-1.5-0.7-2.3v-5.1h1.7v4.9c0,1.2,0.5,1.9,1.5,1.9
			c0.2,0,0.4,0,0.6-0.1c0.2-0.1,0.4-0.1,0.5-0.3c0.2-0.1,0.3-0.3,0.4-0.4c0.1-0.2,0.2-0.4,0.1-0.6v-5.3h1.7v8h-1.7V389.4z"/>
		<path class="st3" d="M355,382.7h1.7v1.3h0.1c0.2-0.5,0.5-0.8,0.9-1.1c0.4-0.3,0.9-0.4,1.4-0.4c0.9,0,1.8,0.4,2.4,1.1
			c1.1,1.9,1.1,4.3,0,6.2c-0.6,0.7-1.4,1.1-2.4,1.1c-0.5,0-1-0.1-1.4-0.4c-0.4-0.3-0.7-0.7-0.9-1.1h-0.1v4.4H355V382.7z
			 M358.4,389.5c0.5,0,1-0.2,1.4-0.6c0.4-0.4,0.5-0.9,0.5-1.5V386c0-0.5-0.2-1.1-0.5-1.5c-0.4-0.4-0.9-0.6-1.4-0.6
			c-0.5,0-0.9,0.1-1.3,0.4c-0.3,0.2-0.5,0.6-0.5,1v2.7c0,0.4,0.2,0.8,0.5,1C357.5,389.4,358,389.5,358.4,389.5L358.4,389.5z"/>
		<path class="st3" d="M364,382.7h1.7v1.3h0.1c0.2-0.5,0.5-0.8,0.9-1.1c0.4-0.3,0.9-0.4,1.4-0.4c0.9,0,1.8,0.4,2.4,1.1
			c1.1,1.9,1.1,4.3,0,6.2c-0.6,0.7-1.4,1.1-2.4,1.1c-0.5,0-1-0.1-1.4-0.4c-0.4-0.3-0.7-0.7-0.9-1.1h-0.1v4.4H364V382.7z
			 M367.5,389.5c0.5,0,1-0.2,1.4-0.6c0.4-0.4,0.5-0.9,0.5-1.5V386c0-0.5-0.2-1.1-0.5-1.5c-0.4-0.4-0.9-0.6-1.4-0.6
			c-0.5,0-0.9,0.1-1.3,0.4c-0.3,0.2-0.5,0.6-0.5,1v2.7c0,0.4,0.2,0.8,0.5,1C366.6,389.4,367.1,389.5,367.5,389.5L367.5,389.5z"/>
		<path class="st3" d="M374.9,390.7c-0.5,0-0.9-0.1-1.3-0.4c-0.3-0.3-0.4-0.8-0.4-1.2v-9.7h1.7v10h1.1v1.4H374.9z"/>
		<path class="st3" d="M382.3,382.7h1.6l-3.4,9.6c-0.1,0.2-0.2,0.5-0.3,0.7c-0.1,0.2-0.2,0.3-0.4,0.5c-0.2,0.1-0.4,0.2-0.6,0.3
			c-0.3,0.1-0.5,0.1-0.8,0.1h-1v-1.4h1.4l0.5-1.4l-2.9-8.3h1.7l1.6,4.7l0.5,1.7h0.1l0.5-1.7L382.3,382.7z"/>
	</g>
</g>
<g id="Care-Copy-2">
	<g>
		<path class="st3" d="M614,116.4c-1.3,0.1-2.5-0.5-3.3-1.4c-0.9-1.2-1.3-2.7-1.2-4.1c0-0.8,0.1-1.6,0.3-2.4
			c0.2-0.6,0.5-1.2,0.9-1.7c0.4-0.5,0.9-0.8,1.4-1.1c0.6-0.2,1.2-0.4,1.9-0.4c0.8,0,1.6,0.2,2.3,0.6c0.7,0.4,1.2,1.1,1.5,1.8
			l-1.5,0.8c-0.2-0.5-0.5-0.9-0.9-1.2c-0.4-0.3-1-0.5-1.5-0.5c-0.7,0-1.5,0.3-2,0.8c-0.5,0.7-0.8,1.5-0.7,2.3v1.6
			c0,0.8,0.2,1.7,0.7,2.3c0.9,1,2.4,1.1,3.5,0.3c0.4-0.3,0.7-0.8,0.9-1.3l1.4,0.8c-0.3,0.7-0.8,1.4-1.5,1.8
			C615.6,116.2,614.8,116.5,614,116.4z"/>
		<path class="st3" d="M625.4,116.2c-0.4,0-0.7-0.1-1-0.4c-0.2-0.3-0.4-0.6-0.4-1h-0.1c-0.1,0.5-0.4,0.9-0.8,1.1
			c-0.5,0.3-1,0.4-1.5,0.4c-0.7,0-1.4-0.2-1.9-0.6c-0.5-0.5-0.7-1.1-0.7-1.7c0-0.7,0.3-1.4,0.9-1.8c0.8-0.4,1.7-0.7,2.5-0.6h1.4V111
			c0-0.4-0.1-0.8-0.4-1.1c-0.3-0.3-0.8-0.4-1.2-0.4c-0.4,0-0.8,0.1-1.2,0.3c-0.3,0.2-0.6,0.5-0.8,0.8l-1-0.9
			c0.3-0.5,0.7-0.8,1.1-1.1c0.6-0.3,1.2-0.5,1.9-0.4c0.9-0.1,1.7,0.2,2.4,0.7c0.6,0.5,0.9,1.3,0.8,2.1v4h0.8v1.4H625.4z M622,115.2
			c0.5,0,0.9-0.1,1.3-0.3c0.3-0.2,0.5-0.6,0.5-0.9v-1.2h-1.4c-1.2,0-1.7,0.4-1.7,1.1v0.3c0,0.3,0.1,0.6,0.4,0.8
			C621.3,115.1,621.7,115.2,622,115.2L622,115.2z"/>
		<path class="st3" d="M628,116.2v-8h1.7v1.5h0.1c0.1-0.4,0.4-0.8,0.7-1.1c0.4-0.3,1-0.5,1.5-0.5h0.4v1.6h-0.7
			c-0.5,0-1.1,0.1-1.5,0.3c-0.3,0.2-0.5,0.6-0.5,1v5.1H628z"/>
		<path class="st3" d="M636.9,116.4c-0.5,0-1.1-0.1-1.5-0.3c-0.4-0.2-0.8-0.5-1.2-0.8c-0.3-0.4-0.6-0.8-0.7-1.3
			c-0.3-1.1-0.3-2.3,0-3.5c0.2-0.5,0.4-0.9,0.7-1.3c0.3-0.4,0.7-0.6,1.2-0.8c0.5-0.2,1-0.3,1.5-0.3c0.5,0,1.1,0.1,1.5,0.3
			c0.4,0.2,0.8,0.5,1.1,0.9c0.3,0.4,0.5,0.8,0.7,1.3c0.2,0.5,0.2,1,0.2,1.6v0.6H635v0.3c0,0.6,0.2,1.1,0.5,1.5
			c0.4,0.4,1,0.6,1.6,0.6c0.4,0,0.9-0.1,1.2-0.3c0.3-0.2,0.6-0.5,0.9-0.9l1,1c-0.3,0.5-0.8,0.9-1.3,1.2
			C638.3,116.3,637.6,116.4,636.9,116.4z M636.9,109.4c-0.3,0-0.5,0-0.8,0.2c-0.2,0.1-0.4,0.2-0.6,0.4c-0.2,0.2-0.3,0.4-0.4,0.7
			c-0.1,0.3-0.1,0.6-0.1,0.8v0.1h3.7v-0.2c0-0.5-0.1-1.1-0.5-1.5C637.9,109.6,637.4,109.4,636.9,109.4z"/>
	</g>
</g>
<g id="Emotion-Copy-2">
	<g>
		<path class="st3" d="M609.9,390.7V380h6.9v1.5h-5.1v3h4.7v1.5h-4.7v3.1h5.1v1.5H609.9z"/>
		<path class="st3" d="M618.9,390.7v-8h1.7v1.3h0.1c0.1-0.2,0.2-0.4,0.3-0.6c0.1-0.2,0.3-0.3,0.4-0.5c0.2-0.1,0.4-0.3,0.6-0.3
			c0.3-0.1,0.5-0.1,0.8-0.1c0.5,0,1,0.1,1.4,0.4c0.4,0.3,0.8,0.7,0.9,1.2h0c0.2-0.5,0.4-0.9,0.8-1.2c0.5-0.3,1-0.5,1.6-0.5
			c0.7,0,1.4,0.3,1.9,0.8c0.5,0.7,0.7,1.5,0.7,2.3v5.1h-1.7v-4.9c0-0.5-0.1-1-0.4-1.4c-0.3-0.3-0.7-0.5-1.1-0.5
			c-0.2,0-0.4,0-0.6,0.1c-0.2,0.1-0.4,0.1-0.5,0.3c-0.2,0.1-0.3,0.3-0.4,0.4c-0.1,0.2-0.1,0.4-0.1,0.6v5.4h-1.7v-4.9
			c0-1.2-0.5-1.9-1.5-1.9c-0.2,0-0.4,0-0.6,0.1c-0.2,0.1-0.4,0.1-0.5,0.3c-0.3,0.2-0.5,0.6-0.5,1v5.4H618.9z"/>
		<path class="st3" d="M635.6,390.9c-0.5,0-1-0.1-1.5-0.3c-0.4-0.2-0.8-0.5-1.2-0.8c-0.3-0.4-0.6-0.8-0.7-1.3
			c-0.3-1.1-0.3-2.3,0-3.5c0.2-0.5,0.4-0.9,0.7-1.3c0.3-0.4,0.7-0.6,1.2-0.8c1-0.4,2.1-0.4,3,0c0.4,0.2,0.8,0.5,1.2,0.8
			c0.3,0.4,0.6,0.8,0.7,1.3c0.3,1.1,0.3,2.3,0,3.5c-0.2,0.5-0.4,0.9-0.7,1.3c-0.3,0.4-0.7,0.6-1.2,0.8
			C636.6,390.8,636.1,390.9,635.6,390.9z M635.6,389.5c0.5,0,1-0.2,1.4-0.5c0.4-0.4,0.6-1,0.5-1.6v-1.3c0-0.6-0.1-1.1-0.5-1.6
			c-0.8-0.7-2-0.7-2.8,0c-0.4,0.4-0.6,1-0.5,1.6v1.3c0,0.6,0.1,1.1,0.5,1.6C634.6,389.3,635.1,389.5,635.6,389.5z"/>
		<path class="st3" d="M643.3,390.7c-0.5,0-1-0.1-1.3-0.5c-0.3-0.4-0.5-0.8-0.4-1.3v-4.9h-1.2v-1.4h0.7c0.2,0,0.4,0,0.6-0.2
			c0.1-0.2,0.2-0.4,0.2-0.6v-1.4h1.5v2.2h1.7v1.4h-1.7v5.3h1.6v1.4H643.3z"/>
		<path class="st3" d="M647.6,381.3c-0.3,0-0.6-0.1-0.8-0.2c-0.2-0.2-0.2-0.4-0.2-0.6v-0.3c0-0.2,0.1-0.5,0.2-0.6
			c0.2-0.2,0.5-0.3,0.8-0.2c0.3,0,0.5,0.1,0.8,0.2c0.2,0.2,0.2,0.4,0.2,0.6v0.3c0,0.2-0.1,0.5-0.2,0.6
			C648.1,381.2,647.8,381.3,647.6,381.3z M646.7,382.7h1.7v8h-1.7L646.7,382.7z"/>
		<path class="st3" d="M653.9,390.9c-0.5,0-1-0.1-1.5-0.3c-0.4-0.2-0.8-0.5-1.2-0.8c-0.3-0.4-0.6-0.8-0.7-1.3
			c-0.3-1.1-0.3-2.3,0-3.5c0.2-0.5,0.4-0.9,0.7-1.3c0.3-0.4,0.7-0.6,1.2-0.8c1-0.4,2.1-0.4,3,0c0.4,0.2,0.8,0.5,1.2,0.8
			c0.3,0.4,0.6,0.8,0.7,1.3c0.3,1.1,0.3,2.3,0,3.5c-0.2,0.5-0.4,0.9-0.7,1.3c-0.3,0.4-0.7,0.6-1.2,0.8
			C654.9,390.8,654.4,390.9,653.9,390.9z M653.9,389.5c0.5,0,1-0.2,1.4-0.5c0.4-0.4,0.6-1,0.5-1.6v-1.3c0-0.6-0.1-1.1-0.5-1.6
			c-0.8-0.7-2-0.7-2.8,0c-0.4,0.4-0.6,1-0.5,1.6v1.3c0,0.6,0.1,1.1,0.5,1.6C652.9,389.3,653.4,389.5,653.9,389.5z"/>
		<path class="st3" d="M659.4,390.7v-8h1.7v1.3h0.1c0.2-0.4,0.4-0.8,0.8-1.1c0.4-0.3,0.9-0.5,1.5-0.4c0.7,0,1.4,0.3,1.9,0.8
			c0.5,0.7,0.7,1.5,0.7,2.3v5.1h-1.7v-4.9c0-1.2-0.5-1.9-1.5-1.9c-0.2,0-0.4,0-0.6,0.1c-0.2,0.1-0.4,0.1-0.6,0.3
			c-0.2,0.1-0.3,0.3-0.4,0.4c-0.1,0.2-0.2,0.4-0.1,0.6v5.3H659.4z"/>
	</g>
</g>
<path class="st4" d="M803.6,259.2c6.1-4.2,7.6-12.6,3.4-18.7c-0.5-0.7-1.1-1.4-1.7-2l1.9-2c0.3-0.4,0.4-0.9,0.2-1.3
	c-0.1-0.3-3.2-6.4-12.1-6.4c-9,0-12,6.1-12.1,6.4c-0.2,0.4-0.1,1,0.2,1.3l2,2c-2.7,2.4-4.2,5.9-4.2,9.5c0,0.7,0.1,1.4,0.2,2
	c-1.9-0.4-3.8-0.3-5.7,0.1c0.1-0.7,0.2-1.4,0.2-2.2c-0.1-4.8-2.7-9.2-6.8-11.6c0-0.2,0.1-0.5,0.1-0.7c0-3.8-3.1-6.9-6.9-6.9
	s-6.9,3.1-6.9,6.9c0,0,0,0.1,0,0.1c-6.7,3.3-9.5,11.3-6.3,18.1c1,2.1,2.5,3.9,4.5,5.2c-9.3,3.2-15.5,11.9-15.5,21.7v17.8h2.4v-17.8
	c0.1-9.8,6.9-18.2,16.4-20.2c0.6-0.1,1-0.8,0.9-1.4c-0.1-0.4-0.3-0.7-0.7-0.8c-5.7-2.4-8.4-8.9-6.1-14.6c1-2.3,2.7-4.3,4.9-5.5
	c1.4,3.6,5.4,5.3,9,3.9c1.6-0.6,2.9-1.8,3.7-3.3c3.1,2,5.1,5.5,5.1,9.2c0,1-0.2,2.1-0.5,3.1c-6.9,3.1-10.1,11.2-7,18.2
	c1,2.3,2.6,4.2,4.6,5.6c-9.3,3.3-15.4,12.1-15.4,21.9v18h2.4v-18c0-6.9,3.4-13.4,9.2-17.3v6.1c0,6.3,4.7,11.6,10.9,12.3v5.5
	c-2.9,0.8-4.7,3.7-3.9,6.7c0.8,2.9,3.7,4.7,6.7,3.9c2.9-0.8,4.7-3.7,3.9-6.7c-0.5-2.1-2.2-3.6-4.3-4v-5.4c6.4-0.6,11.2-6,11.2-12.4
	v-5.7c5.5,3.9,8.7,10.3,8.7,17v18h2.4v-18c0-9.8-6.1-18.6-15.4-21.9c6.2-4.4,7.7-13,3.2-19.2c-1.5-2.2-3.7-3.8-6.2-4.8
	c-0.3-0.9-0.4-1.8-0.4-2.8c0-3,1.3-5.8,3.5-7.8l1.9,2c0.5,0.5,1.2,0.5,1.7,0c0,0,0.1-0.1,0.1-0.1c1.2-1.2,2.9-1.8,4.6-1.6
	c1.7-0.2,3.4,0.4,4.6,1.6c0.2,0.3,0.5,0.5,0.9,0.5c0,0,0.1,0,0.1,0c0.3,0,0.6-0.1,0.8-0.4l2-2.1c2.2,2.1,3.4,5,3.4,8
	c0,4.5-2.8,8.6-6.9,10.3c-0.6,0.3-0.9,1-0.6,1.5c0.1,0.3,0.5,0.6,0.8,0.7c9.5,2.1,16.3,10.4,16.4,20.2v17.8h2.4v-17.8
	C819,271.1,812.8,262.4,803.6,259.2z M762.1,240.3c-2.5,0-4.5-2.1-4.5-4.6c0-2.5,2.1-4.5,4.6-4.5c2.5,0,4.5,2.1,4.5,4.5
	C766.7,238.2,764.6,240.3,762.1,240.3z M782.1,308.7c0,1.7-1.4,3.2-3.1,3.2c-1.7,0-3.2-1.4-3.2-3.1c0-1.7,1.4-3.2,3.1-3.2
	c0,0,0,0,0,0C780.7,305.6,782.1,307,782.1,308.7z M790.3,263.6c0,4.5-2.7,8.7-6.9,10.5c-0.6,0.3-0.9,1-0.6,1.6
	c0.1,0.3,0.4,0.6,0.8,0.7c1.8,0.4,3.6,1.1,5.3,2c0,0.1-0.1,0.2-0.1,0.3v6.9c0.1,5.5-4.3,10-9.7,10.1s-10-4.3-10.1-9.7
	c0-0.1,0-0.2,0-0.3v-6.9c0-0.2,0-0.4-0.1-0.5c1.5-0.8,3.2-1.4,4.9-1.8c0.6-0.1,1-0.8,0.9-1.4c-0.1-0.4-0.3-0.7-0.7-0.8
	c-5.8-2.6-8.3-9.5-5.7-15.2c2.6-5.8,9.5-8.3,15.2-5.7C787.6,255.1,790.3,259.1,790.3,263.6L790.3,263.6z M800.8,239.8
	c-3.3-2.2-7.6-2.2-11,0l-4.1-4.3c4.6-5.3,12.6-5.9,17.9-1.3c0.5,0.4,0.9,0.8,1.3,1.3L800.8,239.8z"/>
<g id="Group-18-Copy-8">
	<path class="st5" d="M503.8,516.2c-3.7,0-6.7-3-6.7-6.7c0-3.7,3-6.7,6.7-6.7c3.7,0,6.7,3,6.7,6.7
		C510.4,513.3,507.4,516.2,503.8,516.2z M503.8,505.3c-2.4,0-4.3,1.9-4.3,4.3c0,2.4,1.9,4.3,4.3,4.3c2.4,0,4.3-1.9,4.3-4.3
		C508.1,507.2,506.1,505.3,503.8,505.3L503.8,505.3z"/>
	<path class="st5" d="M503.8,587.5c-3.7,0-6.7-3-6.7-6.7s3-6.7,6.7-6.7c3.7,0,6.7,3,6.7,6.7C510.4,584.5,507.4,587.5,503.8,587.5z
		 M503.8,576.5c-2.4,0-4.3,1.9-4.3,4.3c0,2.4,1.9,4.3,4.3,4.3c2.4,0,4.3-1.9,4.3-4.3C508.1,578.4,506.1,576.5,503.8,576.5
		L503.8,576.5z"/>
	<g>
		<path class="st5" d="M544.9,551.9h-11c-0.7,0-1.2-0.5-1.2-1.2v-11c0-0.7,0.5-1.2,1.2-1.2h11c0.7,0,1.2,0.5,1.2,1.2v11
			C546,551.3,545.5,551.9,544.9,551.9z M535.1,549.5h8.6v-8.6h-8.6V549.5z"/>
	</g>
	<g>
		<path class="st5" d="M473.6,551.9h-11c-0.6,0-1.2-0.5-1.2-1.2c0,0,0,0,0,0v-11c0-0.6,0.5-1.2,1.2-1.2c0,0,0,0,0,0h11
			c0.7,0,1.2,0.5,1.2,1.2v11C474.8,551.3,474.3,551.9,473.6,551.9z M463.9,549.5h8.6v-8.6h-8.6V549.5z"/>
	</g>
	<path class="st5" d="M480.2,504.4l-0.8,2.2l7.5,2.8c-9.2,4.4-16.4,12.1-20.1,21.6l2.2,0.8c3.4-9,10.2-16.3,19-20.4l-2.9,7.7
		l2.2,0.8l4.3-11.4L480.2,504.4z"/>
	<path class="st5" d="M542.1,520.8l-2.6,7.5c-4.4-9.2-12.1-16.4-21.6-20.1l-0.8,2.2c9,3.5,16.3,10.3,20.4,19l-7.8-2.7l-0.8,2.2
		l11.5,4l4-11.5L542.1,520.8z"/>
	<path class="st5" d="M540.7,559.3l-2.2-0.8c-3.5,9.1-10.4,16.4-19.2,20.5l2.3-8.2l-2.3-0.6l-3.3,11.7l11.7,3.3l0.6-2.3l-7.4-2.1
		C530,576.4,537.1,568.7,540.7,559.3z"/>
	<path class="st5" d="M470.1,561l7.7,2.9l0.8-2.2l-11.4-4.2l-4.2,11.4l2.2,0.8l2.8-7.5c4.4,9.2,12.1,16.4,21.6,20.1l0.8-2.2
		C481.5,576.5,474.2,569.7,470.1,561z"/>
	<path class="st5" d="M518.2,535.1C518.1,535,518.1,535,518.2,535.1L518.2,535.1c-5.7-8-16.7-9.9-24.6-4.2
		c-7.9,5.6-9.8,16.6-4.2,24.6c0.5,0.7,1,1.3,1.6,1.9c0,0.1,0.1,0.1,0.2,0.2c6.7,7,17.9,7.2,24.9,0.5
		C522.3,551.9,523.2,542.2,518.2,535.1z M503.8,529.9c4.7,0,9.1,2.1,11.9,5.8l-5.8,5.8l-5.3-5.3c-0.5-0.5-1.2-0.5-1.7,0
		c-0.1,0.1-0.2,0.3-0.3,0.5l-3.8,11.5h-3.3c-0.4,0-0.9,0.3-1.1,0.7l-2.8,5.7c-5.1-6.7-3.9-16.3,2.8-21.4
		C497.1,531,500.4,529.9,503.8,529.9L503.8,529.9z M503.8,560.5c-3.9,0-7.6-1.5-10.4-4.1l2.9-5.8h3.4c0.5,0,1-0.3,1.1-0.8l3.5-10.5
		l4.8,4.8c0.5,0.5,1.2,0.5,1.7,0c0,0,0,0,0,0l6.3-6.3c4.2,7.3,1.6,16.6-5.7,20.8C509,559.8,506.4,560.5,503.8,560.5L503.8,560.5z"/>
</g>
<g id="Group-19-Copy-11">
	<path id="Fill-3" class="st6" d="M771.8,544.6c0,0.8-0.6,1.4-1.4,1.4c-0.8,0-1.4-0.6-1.4-1.4c0-0.8,0.6-1.4,1.4-1.4c0,0,0,0,0,0
		C771.2,543.2,771.8,543.8,771.8,544.6"/>
	<path id="Fill-5" class="st6" d="M752.6,544.6c0,0.8-0.6,1.4-1.4,1.4c-0.8,0-1.4-0.6-1.4-1.4c0-0.8,0.6-1.4,1.4-1.4c0,0,0,0,0,0
		C751.9,543.2,752.6,543.8,752.6,544.6"/>
	<path id="Fill-7" class="st6" d="M804.9,515.7c0,0.8-0.6,1.4-1.4,1.4c-0.8,0-1.4-0.6-1.4-1.4c0-0.8,0.6-1.4,1.4-1.4
		C804.3,514.3,804.9,514.9,804.9,515.7"/>
	<path id="Fill-9" class="st6" d="M788.4,515.7c0,0.8-0.6,1.4-1.4,1.4c-0.8,0-1.4-0.6-1.4-1.4c0-0.8,0.6-1.4,1.4-1.4
		C787.7,514.3,788.4,514.9,788.4,515.7"/>
	<path class="st7" d="M811.8,503.5h-33c-3.7,0-6.7,3-6.7,6.7V531h-31.9c-3.7,0-6.7,3-6.7,6.7v27.5c0,3.7,3,6.7,6.7,6.7h10.4l10.7,16
		l2-1.3l-11-16.5c-0.2-0.3-0.6-0.5-1-0.5h-11c-2.4,0-4.3-1.9-4.3-4.3v-27.5c0-2.4,1.9-4.3,4.3-4.3h41.3c2.4,0,4.3,1.9,4.3,4.3v27.5
		c0,2.4-1.9,4.3-4.3,4.3h-19.3v2.4h19.3c3.7,0,6.7-3,6.7-6.7v-26.4h7.1v-2.4H788c-0.6-3.2-3.3-5.5-6.6-5.5h-7.1v-20.9
		c0-2.4,1.9-4.3,4.3-4.3h33c2.4,0,4.3,1.9,4.3,4.3v22c0,2.4-1.9,4.3-4.3,4.3h-8.3c-0.4,0-0.9,0.3-1.1,0.7l-5.5,11l2.1,1.1l5.2-10.4
		h7.5c3.7,0,6.7-3,6.7-6.7v-22C818.5,506.5,815.5,503.5,811.8,503.5z"/>
	<path class="st7" d="M760.8,560.9c-6,0-10.8-4.8-10.8-10.8h2.4c0,4.7,3.8,8.4,8.5,8.4c4.6,0,8.4-3.8,8.4-8.4h2.4
		C771.6,556.1,766.8,560.9,760.8,560.9z"/>
	<path class="st7" d="M804.7,529.4h-2.4c0-3.9-3.1-7.1-7.1-7.1c-3.9,0-7.1,3.1-7.1,7.1c0,0,0,0,0,0.1h-2.4c0-5.2,4.2-9.5,9.4-9.5
		C800.4,519.9,804.7,524.1,804.7,529.4C804.7,529.4,804.7,529.4,804.7,529.4L804.7,529.4z"/>
</g>
</svg>
