<?xml version="1.0" encoding="UTF-8"?>
<svg width="289px" height="332px" viewBox="0 0 289 332" version="1.1" xmlns="http://www.w3.org/2000/svg" xmlns:xlink="http://www.w3.org/1999/xlink">
    <!-- Generator: Sketch 51.2 (57519) - http://www.bohemiancoding.com/sketch -->
    <title>Group</title>
    <desc>Created with Sketch.</desc>
    <defs></defs>
    <g id="Page-1" stroke="none" stroke-width="1" fill="none" fill-rule="evenodd">
        <g id="Typography_Mobile_320px-Copy" transform="translate(-15.000000, -49.000000)">
            <g id="Group" transform="translate(15.000000, 49.000000)">
                <polygon id="W-Copy-5" fill="#252525" points="30.754 91 29.06 91 28.29 81.228 29.34 81.228 29.746 86.828 29.956 89.782 30.068 89.782 31.356 83.776 32.672 83.776 33.96 89.782 34.072 89.782 34.282 86.828 34.688 81.228 35.71 81.228 34.94 91 33.246 91 32.056 85.162 31.944 85.162"></polygon>
                <path d="M106.342,91 L99.79,91 L99.79,89.978 L102.59,89.978 L102.59,82.096 L102.492,82.096 L100.028,84.392 L99.342,83.65 L101.932,81.228 L103.766,81.228 L103.766,89.978 L106.342,89.978 L106.342,91 Z M111.2,91.168 C108.82,91.168 107.784,89.306 107.784,86.114 C107.784,82.922 108.82,81.06 111.2,81.06 C113.58,81.06 114.616,82.922 114.616,86.114 C114.616,89.306 113.58,91.168 111.2,91.168 Z M111.2,90.146 C112.768,90.146 113.398,88.872 113.398,86.912 L113.398,85.316 C113.398,83.356 112.768,82.082 111.2,82.082 C109.632,82.082 109.002,83.356 109.002,85.316 L109.002,86.912 C109.002,88.872 109.632,90.146 111.2,90.146 Z M111.2,86.94 C110.556,86.94 110.332,86.646 110.332,86.268 L110.332,85.96 C110.332,85.582 110.556,85.288 111.2,85.288 C111.844,85.288 112.068,85.582 112.068,85.96 L112.068,86.268 C112.068,86.646 111.844,86.94 111.2,86.94 Z" id="10-copy" fill="#252525"></path>
                <path d="M181.118,89.978 L181.118,91 L174.594,91 L174.594,89.796 L177.856,86.856 C178.808,86.002 179.494,85.092 179.494,84.098 L179.494,83.93 C179.494,82.754 178.864,82.082 177.66,82.082 C176.47,82.082 175.868,82.74 175.56,83.748 L174.51,83.356 C174.888,82.208 175.77,81.06 177.688,81.06 C179.634,81.06 180.726,82.236 180.726,83.888 C180.726,85.372 179.844,86.464 178.542,87.598 L175.812,89.978 L181.118,89.978 Z M186.2,91.168 C183.82,91.168 182.784,89.306 182.784,86.114 C182.784,82.922 183.82,81.06 186.2,81.06 C188.58,81.06 189.616,82.922 189.616,86.114 C189.616,89.306 188.58,91.168 186.2,91.168 Z M186.2,90.146 C187.768,90.146 188.398,88.872 188.398,86.912 L188.398,85.316 C188.398,83.356 187.768,82.082 186.2,82.082 C184.632,82.082 184.002,83.356 184.002,85.316 L184.002,86.912 C184.002,88.872 184.632,90.146 186.2,90.146 Z M186.2,86.94 C185.556,86.94 185.332,86.646 185.332,86.268 L185.332,85.96 C185.332,85.582 185.556,85.288 186.2,85.288 C186.844,85.288 187.068,85.582 187.068,85.96 L187.068,86.268 C187.068,86.646 186.844,86.94 186.2,86.94 Z" id="20-copy" fill="#252525"></path>
                <path d="M251.302,85.372 L252.38,85.372 C253.738,85.372 254.424,84.686 254.424,83.748 L254.424,83.65 C254.424,82.614 253.696,82.082 252.632,82.082 C251.596,82.082 250.98,82.586 250.574,83.328 L249.692,82.656 C250.196,81.872 251.064,81.06 252.66,81.06 C254.326,81.06 255.656,81.942 255.656,83.524 C255.656,84.784 254.816,85.54 253.752,85.806 L253.752,85.862 C254.83,86.072 255.852,86.856 255.852,88.326 C255.852,90.006 254.508,91.168 252.478,91.168 C250.756,91.168 249.874,90.342 249.272,89.502 L250.154,88.83 C250.672,89.6 251.246,90.146 252.478,90.146 C253.85,90.146 254.62,89.474 254.62,88.312 L254.62,88.2 C254.62,87.052 253.892,86.38 252.464,86.38 L251.302,86.38 L251.302,85.372 Z M261.2,91.168 C258.82,91.168 257.784,89.306 257.784,86.114 C257.784,82.922 258.82,81.06 261.2,81.06 C263.58,81.06 264.616,82.922 264.616,86.114 C264.616,89.306 263.58,91.168 261.2,91.168 Z M261.2,90.146 C262.768,90.146 263.398,88.872 263.398,86.912 L263.398,85.316 C263.398,83.356 262.768,82.082 261.2,82.082 C259.632,82.082 259.002,83.356 259.002,85.316 L259.002,86.912 C259.002,88.872 259.632,90.146 261.2,90.146 Z M261.2,86.94 C260.556,86.94 260.332,86.646 260.332,86.268 L260.332,85.96 C260.332,85.582 260.556,85.288 261.2,85.288 C261.844,85.288 262.068,85.582 262.068,85.96 L262.068,86.268 C262.068,86.646 261.844,86.94 261.2,86.94 Z" id="30-copy" fill="#252525"></path>
                <circle id="Oval-2-Copy-37" fill="#EDF4FF" cx="107" cy="32" r="32"></circle>
                <circle id="Oval-2-Copy-39" fill="#FFFFFF" cx="32" cy="32" r="32"></circle>
                <circle id="Oval-2-Copy-42" fill="#97C1FF" cx="257" cy="32" r="32"></circle>
                <circle id="Oval-2-Copy-46" fill="#C9DEFF" cx="182" cy="32" r="32"></circle>
                <polygon id="K-Copy-6" fill="#000000" points="36.32 41 31.256 32.792 28.856 35.624 28.856 41 26.84 41 26.84 24.248 28.856 24.248 28.856 32.984 28.928 32.984 31.136 30.2 36.08 24.248 38.504 24.248 32.624 31.304 38.672 41"></polygon>
                <polygon id="K-Copy-7" fill="#000000" points="111.32 41 106.256 32.792 103.856 35.624 103.856 41 101.84 41 101.84 24.248 103.856 24.248 103.856 32.984 103.928 32.984 106.136 30.2 111.08 24.248 113.504 24.248 107.624 31.304 113.672 41"></polygon>
                <polygon id="K-Copy-8" fill="#000000" points="186.32 41 181.256 32.792 178.856 35.624 178.856 41 176.84 41 176.84 24.248 178.856 24.248 178.856 32.984 178.928 32.984 181.136 30.2 186.08 24.248 188.504 24.248 182.624 31.304 188.672 41"></polygon>
                <polygon id="K-Copy-9" fill="#000000" points="261.32 41 256.256 32.792 253.856 35.624 253.856 41 251.84 41 251.84 24.248 253.856 24.248 253.856 32.984 253.928 32.984 256.136 30.2 261.08 24.248 263.504 24.248 257.624 31.304 263.672 41"></polygon>
                <path d="M30.012,211 L28.892,211 L28.892,209.082 L24.076,209.082 L24.076,208.046 L28.304,201.228 L30.012,201.228 L30.012,208.116 L31.468,208.116 L31.468,209.082 L30.012,209.082 L30.012,211 Z M28.836,202.138 L25.126,208.116 L28.892,208.116 L28.892,202.138 L28.836,202.138 Z M36.2,211.168 C33.82,211.168 32.784,209.306 32.784,206.114 C32.784,202.922 33.82,201.06 36.2,201.06 C38.58,201.06 39.616,202.922 39.616,206.114 C39.616,209.306 38.58,211.168 36.2,211.168 Z M36.2,210.146 C37.768,210.146 38.398,208.872 38.398,206.912 L38.398,205.316 C38.398,203.356 37.768,202.082 36.2,202.082 C34.632,202.082 34.002,203.356 34.002,205.316 L34.002,206.912 C34.002,208.872 34.632,210.146 36.2,210.146 Z M36.2,206.94 C35.556,206.94 35.332,206.646 35.332,206.268 L35.332,205.96 C35.332,205.582 35.556,205.288 36.2,205.288 C36.844,205.288 37.068,205.582 37.068,205.96 L37.068,206.268 C37.068,206.646 36.844,206.94 36.2,206.94 Z" id="40-copy" fill="#252525"></path>
                <path d="M105.614,201.228 L105.614,202.25 L101.246,202.25 L100.966,205.988 L101.064,205.988 C101.54,205.33 102.072,204.924 103.108,204.924 C104.816,204.924 106.062,206.044 106.062,207.934 C106.062,209.838 104.816,211.168 102.73,211.168 C101.078,211.168 100.224,210.342 99.622,209.502 L100.504,208.83 C101.022,209.6 101.554,210.146 102.758,210.146 C104.102,210.146 104.844,209.362 104.844,208.088 L104.844,207.976 C104.844,206.688 104.088,205.918 102.73,205.918 C101.806,205.918 101.358,206.282 100.938,206.744 L99.944,206.604 L100.294,201.228 L105.614,201.228 Z M111.2,211.168 C108.82,211.168 107.784,209.306 107.784,206.114 C107.784,202.922 108.82,201.06 111.2,201.06 C113.58,201.06 114.616,202.922 114.616,206.114 C114.616,209.306 113.58,211.168 111.2,211.168 Z M111.2,210.146 C112.768,210.146 113.398,208.872 113.398,206.912 L113.398,205.316 C113.398,203.356 112.768,202.082 111.2,202.082 C109.632,202.082 109.002,203.356 109.002,205.316 L109.002,206.912 C109.002,208.872 109.632,210.146 111.2,210.146 Z M111.2,206.94 C110.556,206.94 110.332,206.646 110.332,206.268 L110.332,205.96 C110.332,205.582 110.556,205.288 111.2,205.288 C111.844,205.288 112.068,205.582 112.068,205.96 L112.068,206.268 C112.068,206.646 111.844,206.94 111.2,206.94 Z" id="50-copy" fill="#252525"></path>
                <path d="M177.814,211.168 C175.756,211.168 174.496,209.74 174.496,207.416 C174.496,204.518 176.442,202.25 178.038,201.228 L179.55,201.228 C177.422,202.754 176.246,204.028 175.7,206.296 L175.77,206.324 C176.246,205.526 176.96,204.924 178.178,204.924 C179.886,204.924 181.104,206.086 181.104,207.934 C181.104,209.852 179.802,211.168 177.814,211.168 Z M177.8,210.174 C179.13,210.174 179.914,209.404 179.914,208.088 L179.914,207.976 C179.914,206.66 179.13,205.89 177.8,205.89 C176.47,205.89 175.686,206.66 175.686,207.976 L175.686,208.088 C175.686,209.404 176.47,210.174 177.8,210.174 Z M186.2,211.168 C183.82,211.168 182.784,209.306 182.784,206.114 C182.784,202.922 183.82,201.06 186.2,201.06 C188.58,201.06 189.616,202.922 189.616,206.114 C189.616,209.306 188.58,211.168 186.2,211.168 Z M186.2,210.146 C187.768,210.146 188.398,208.872 188.398,206.912 L188.398,205.316 C188.398,203.356 187.768,202.082 186.2,202.082 C184.632,202.082 184.002,203.356 184.002,205.316 L184.002,206.912 C184.002,208.872 184.632,210.146 186.2,210.146 Z M186.2,206.94 C185.556,206.94 185.332,206.646 185.332,206.268 L185.332,205.96 C185.332,205.582 185.556,205.288 186.2,205.288 C186.844,205.288 187.068,205.582 187.068,205.96 L187.068,206.268 C187.068,206.646 186.844,206.94 186.2,206.94 Z" id="60-copy" fill="#252525"></path>
                <path d="M252.282,211 L251.022,211 L254.844,202.236 L250.56,202.236 L250.56,204.056 L249.51,204.056 L249.51,201.228 L256.034,201.228 L256.034,202.264 L252.282,211 Z M261.2,211.168 C258.82,211.168 257.784,209.306 257.784,206.114 C257.784,202.922 258.82,201.06 261.2,201.06 C263.58,201.06 264.616,202.922 264.616,206.114 C264.616,209.306 263.58,211.168 261.2,211.168 Z M261.2,210.146 C262.768,210.146 263.398,208.872 263.398,206.912 L263.398,205.316 C263.398,203.356 262.768,202.082 261.2,202.082 C259.632,202.082 259.002,203.356 259.002,205.316 L259.002,206.912 C259.002,208.872 259.632,210.146 261.2,210.146 Z M261.2,206.94 C260.556,206.94 260.332,206.646 260.332,206.268 L260.332,205.96 C260.332,205.582 260.556,205.288 261.2,205.288 C261.844,205.288 262.068,205.582 262.068,205.96 L262.068,206.268 C262.068,206.646 261.844,206.94 261.2,206.94 Z" id="70-copy" fill="#252525"></path>
                <circle id="Oval-2-Copy-35" fill="#054ADA" cx="257" cy="152" r="32"></circle>
                <circle id="Oval-2-Copy-44" fill="#418CFF" cx="107" cy="152" r="32"></circle>
                <circle id="Oval-2-Copy-48" fill="#6EA6FF" cx="32" cy="152" r="32"></circle>
                <circle id="Oval-2-Copy-50" fill="#0062FF" cx="182" cy="152" r="32"></circle>
                <polygon id="K-Copy-10" fill="#000000" points="36.32 161 31.256 152.792 28.856 155.624 28.856 161 26.84 161 26.84 144.248 28.856 144.248 28.856 152.984 28.928 152.984 31.136 150.2 36.08 144.248 38.504 144.248 32.624 151.304 38.672 161"></polygon>
                <polygon id="K-Copy-11" fill="#000000" points="113.32 161 108.256 152.792 105.856 155.624 105.856 161 103.84 161 103.84 144.248 105.856 144.248 105.856 152.984 105.928 152.984 108.136 150.2 113.08 144.248 115.504 144.248 109.624 151.304 115.672 161"></polygon>
                <polygon id="W-Copy-7" fill="#FFFFFF" points="179.864 161 176.96 161 175.64 144.248 177.44 144.248 178.136 153.848 178.496 158.912 178.688 158.912 180.896 148.616 183.152 148.616 185.36 158.912 185.552 158.912 185.912 153.848 186.608 144.248 188.36 144.248 187.04 161 184.136 161 182.096 150.992 181.904 150.992"></polygon>
                <polygon id="W-Copy-8" fill="#FFFFFF" points="254.864 161 251.96 161 250.64 144.248 252.44 144.248 253.136 153.848 253.496 158.912 253.688 158.912 255.896 148.616 258.152 148.616 260.36 158.912 260.552 158.912 260.912 153.848 261.608 144.248 263.36 144.248 262.04 161 259.136 161 257.096 150.992 256.904 150.992"></polygon>
                <path d="M27.8,331.168 C25.532,331.168 24.37,329.95 24.37,328.34 C24.37,327.01 25.168,326.24 26.358,325.918 L26.358,325.806 C25.322,325.456 24.664,324.63 24.664,323.51 C24.664,322.026 25.826,321.06 27.8,321.06 C29.774,321.06 30.936,322.026 30.936,323.51 C30.936,324.63 30.278,325.456 29.242,325.806 L29.242,325.918 C30.432,326.24 31.23,327.01 31.23,328.34 C31.23,329.95 30.068,331.168 27.8,331.168 Z M27.8,330.174 C29.172,330.174 30.012,329.516 30.012,328.41 L30.012,328.102 C30.012,326.982 29.2,326.338 27.8,326.338 C26.4,326.338 25.588,326.982 25.588,328.102 L25.588,328.41 C25.588,329.516 26.428,330.174 27.8,330.174 Z M27.8,325.386 C29.06,325.386 29.746,324.812 29.746,323.818 L29.746,323.622 C29.746,322.628 29.032,322.054 27.8,322.054 C26.568,322.054 25.854,322.628 25.854,323.622 L25.854,323.818 C25.854,324.812 26.54,325.386 27.8,325.386 Z M36.2,331.168 C33.82,331.168 32.784,329.306 32.784,326.114 C32.784,322.922 33.82,321.06 36.2,321.06 C38.58,321.06 39.616,322.922 39.616,326.114 C39.616,329.306 38.58,331.168 36.2,331.168 Z M36.2,330.146 C37.768,330.146 38.398,328.872 38.398,326.912 L38.398,325.316 C38.398,323.356 37.768,322.082 36.2,322.082 C34.632,322.082 34.002,323.356 34.002,325.316 L34.002,326.912 C34.002,328.872 34.632,330.146 36.2,330.146 Z M36.2,326.94 C35.556,326.94 35.332,326.646 35.332,326.268 L35.332,325.96 C35.332,325.582 35.556,325.288 36.2,325.288 C36.844,325.288 37.068,325.582 37.068,325.96 L37.068,326.268 C37.068,326.646 36.844,326.94 36.2,326.94 Z" id="80-copy" fill="#252525"></path>
                <path d="M106.104,324.812 C106.104,327.71 104.158,329.978 102.562,331 L101.05,331 C103.178,329.474 104.354,328.2 104.9,325.932 L104.83,325.904 C104.354,326.702 103.64,327.304 102.422,327.304 C100.714,327.304 99.496,326.142 99.496,324.294 C99.496,322.376 100.798,321.06 102.786,321.06 C104.844,321.06 106.104,322.488 106.104,324.812 Z M102.8,326.338 C104.13,326.338 104.914,325.568 104.914,324.252 L104.914,324.14 C104.914,322.824 104.13,322.054 102.8,322.054 C101.47,322.054 100.686,322.824 100.686,324.14 L100.686,324.252 C100.686,325.568 101.47,326.338 102.8,326.338 Z M111.2,331.168 C108.82,331.168 107.784,329.306 107.784,326.114 C107.784,322.922 108.82,321.06 111.2,321.06 C113.58,321.06 114.616,322.922 114.616,326.114 C114.616,329.306 113.58,331.168 111.2,331.168 Z M111.2,330.146 C112.768,330.146 113.398,328.872 113.398,326.912 L113.398,325.316 C113.398,323.356 112.768,322.082 111.2,322.082 C109.632,322.082 109.002,323.356 109.002,325.316 L109.002,326.912 C109.002,328.872 109.632,330.146 111.2,330.146 Z M111.2,326.94 C110.556,326.94 110.332,326.646 110.332,326.268 L110.332,325.96 C110.332,325.582 110.556,325.288 111.2,325.288 C111.844,325.288 112.068,325.582 112.068,325.96 L112.068,326.268 C112.068,326.646 111.844,326.94 111.2,326.94 Z" id="90-copy" fill="#252525"></path>
                <path d="M177.142,331 L170.59,331 L170.59,329.978 L173.39,329.978 L173.39,322.096 L173.292,322.096 L170.828,324.392 L170.142,323.65 L172.732,321.228 L174.566,321.228 L174.566,329.978 L177.142,329.978 L177.142,331 Z M182,331.168 C179.62,331.168 178.584,329.306 178.584,326.114 C178.584,322.922 179.62,321.06 182,321.06 C184.38,321.06 185.416,322.922 185.416,326.114 C185.416,329.306 184.38,331.168 182,331.168 Z M182,330.146 C183.568,330.146 184.198,328.872 184.198,326.912 L184.198,325.316 C184.198,323.356 183.568,322.082 182,322.082 C180.432,322.082 179.802,323.356 179.802,325.316 L179.802,326.912 C179.802,328.872 180.432,330.146 182,330.146 Z M182,326.94 C181.356,326.94 181.132,326.646 181.132,326.268 L181.132,325.96 C181.132,325.582 181.356,325.288 182,325.288 C182.644,325.288 182.868,325.582 182.868,325.96 L182.868,326.268 C182.868,326.646 182.644,326.94 182,326.94 Z M190.4,331.168 C188.02,331.168 186.984,329.306 186.984,326.114 C186.984,322.922 188.02,321.06 190.4,321.06 C192.78,321.06 193.816,322.922 193.816,326.114 C193.816,329.306 192.78,331.168 190.4,331.168 Z M190.4,330.146 C191.968,330.146 192.598,328.872 192.598,326.912 L192.598,325.316 C192.598,323.356 191.968,322.082 190.4,322.082 C188.832,322.082 188.202,323.356 188.202,325.316 L188.202,326.912 C188.202,328.872 188.832,330.146 190.4,330.146 Z M190.4,326.94 C189.756,326.94 189.532,326.646 189.532,326.268 L189.532,325.96 C189.532,325.582 189.756,325.288 190.4,325.288 C191.044,325.288 191.268,325.582 191.268,325.96 L191.268,326.268 C191.268,326.646 191.044,326.94 190.4,326.94 Z" id="100-copy" fill="#252525"></path>
                <polygon id="K-Copy-5" fill="#252525" points="259.52 331 256.566 326.212 255.166 327.864 255.166 331 253.99 331 253.99 321.228 255.166 321.228 255.166 326.324 255.208 326.324 256.496 324.7 259.38 321.228 260.794 321.228 257.364 325.344 260.892 331"></polygon>
                <circle id="Oval-2-Copy-52" fill="#061F80" cx="107" cy="272" r="32"></circle>
                <circle id="Oval-2-Copy-54" fill="#0530AD" cx="32" cy="272" r="32"></circle>
                <circle id="Oval-2-Copy-56" fill="#051243" cx="182" cy="272" r="32"></circle>
                <circle id="Oval-2-Copy-57" fill="#000000" cx="257" cy="272" r="32"></circle>
                <polygon id="W-Copy-9" fill="#FFFFFF" points="29.864 281 26.96 281 25.64 264.248 27.44 264.248 28.136 273.848 28.496 278.912 28.688 278.912 30.896 268.616 33.152 268.616 35.36 278.912 35.552 278.912 35.912 273.848 36.608 264.248 38.36 264.248 37.04 281 34.136 281 32.096 270.992 31.904 270.992"></polygon>
                <polygon id="W-Copy-10" fill="#FFFFFF" points="104.864 281 101.96 281 100.64 264.248 102.44 264.248 103.136 273.848 103.496 278.912 103.688 278.912 105.896 268.616 108.152 268.616 110.36 278.912 110.552 278.912 110.912 273.848 111.608 264.248 113.36 264.248 112.04 281 109.136 281 107.096 270.992 106.904 270.992"></polygon>
                <polygon id="W-Copy-11" fill="#FFFFFF" points="179.864 281 176.96 281 175.64 264.248 177.44 264.248 178.136 273.848 178.496 278.912 178.688 278.912 180.896 268.616 183.152 268.616 185.36 278.912 185.552 278.912 185.912 273.848 186.608 264.248 188.36 264.248 187.04 281 184.136 281 182.096 270.992 181.904 270.992"></polygon>
                <polygon id="W-Copy-12" fill="#FFFFFF" points="254.864 281 251.96 281 250.64 264.248 252.44 264.248 253.136 273.848 253.496 278.912 253.688 278.912 255.896 268.616 258.152 268.616 260.36 278.912 260.552 278.912 260.912 273.848 261.608 264.248 263.36 264.248 262.04 281 259.136 281 257.096 270.992 256.904 270.992"></polygon>
            </g>
        </g>
    </g>
</svg>