<?xml version="1.0" encoding="UTF-8"?>
<svg width="289px" height="444px" viewBox="0 0 289 444" version="1.1" xmlns="http://www.w3.org/2000/svg" xmlns:xlink="http://www.w3.org/1999/xlink">
    <!-- Generator: Sketch 51.2 (57519) - http://www.bohemiancoding.com/sketch -->
    <title>Group 2</title>
    <desc>Created with Sketch.</desc>
    <defs></defs>
    <g id="Page-1" stroke="none" stroke-width="1" fill="none" fill-rule="evenodd">
        <g id="Typography_Mobile_320px-Copy" transform="translate(-15.000000, -531.000000)">
            <g id="Group-2" transform="translate(15.000000, 531.000000)">
                <path d="M35.652,116 L34.42,116 L33.44,113.116 L29.492,113.116 L28.512,116 L27.322,116 L30.738,106.228 L32.236,106.228 L35.652,116 Z M33.146,112.08 L31.494,107.32 L31.424,107.32 L29.772,112.08 L33.146,112.08 Z M39.852,116.168 C37.822,116.168 36.632,114.698 36.632,112.388 C36.632,110.078 37.822,108.608 39.852,108.608 C41.28,108.608 42.134,109.308 42.554,110.302 L41.616,110.778 C41.35,110.036 40.734,109.602 39.852,109.602 C38.522,109.602 37.836,110.512 37.836,111.772 L37.836,113.004 C37.836,114.264 38.522,115.174 39.852,115.174 C40.762,115.174 41.42,114.74 41.812,113.914 L42.624,114.46 C42.162,115.496 41.224,116.168 39.852,116.168 Z M46.894,116.168 C44.864,116.168 43.674,114.698 43.674,112.388 C43.674,110.078 44.864,108.608 46.894,108.608 C48.322,108.608 49.176,109.308 49.596,110.302 L48.658,110.778 C48.392,110.036 47.776,109.602 46.894,109.602 C45.564,109.602 44.878,110.512 44.878,111.772 L44.878,113.004 C44.878,114.264 45.564,115.174 46.894,115.174 C47.804,115.174 48.462,114.74 48.854,113.914 L49.666,114.46 C49.204,115.496 48.266,116.168 46.894,116.168 Z M53.964,116.168 C52.004,116.168 50.716,114.684 50.716,112.388 C50.716,110.092 52.004,108.608 53.964,108.608 C55.896,108.608 57.086,110.092 57.086,112.136 L57.086,112.668 L51.892,112.668 L51.892,113.004 C51.892,114.25 52.69,115.188 54.034,115.188 C54.944,115.188 55.644,114.74 56.022,113.942 L56.82,114.516 C56.358,115.496 55.322,116.168 53.964,116.168 Z M53.964,109.546 C52.746,109.546 51.892,110.47 51.892,111.73 L51.892,111.828 L55.882,111.828 L55.882,111.674 C55.882,110.4 55.112,109.546 53.964,109.546 Z M61.104,116.168 C59.774,116.168 58.892,115.608 58.248,114.754 L59.046,114.11 C59.606,114.81 60.278,115.216 61.188,115.216 C62.14,115.216 62.7,114.782 62.7,114.04 C62.7,113.48 62.392,113.046 61.44,112.906 L60.866,112.822 C59.536,112.626 58.542,112.08 58.542,110.736 C58.542,109.308 59.648,108.608 61.118,108.608 C62.28,108.608 63.05,109.042 63.638,109.77 L62.896,110.442 C62.574,109.994 61.958,109.56 61.034,109.56 C60.11,109.56 59.62,109.994 59.62,110.68 C59.62,111.38 60.11,111.66 61.006,111.8 L61.566,111.884 C63.162,112.122 63.778,112.822 63.778,113.914 C63.778,115.314 62.756,116.168 61.104,116.168 Z M67.922,116.168 C66.592,116.168 65.71,115.608 65.066,114.754 L65.864,114.11 C66.424,114.81 67.096,115.216 68.006,115.216 C68.958,115.216 69.518,114.782 69.518,114.04 C69.518,113.48 69.21,113.046 68.258,112.906 L67.684,112.822 C66.354,112.626 65.36,112.08 65.36,110.736 C65.36,109.308 66.466,108.608 67.936,108.608 C69.098,108.608 69.868,109.042 70.456,109.77 L69.714,110.442 C69.392,109.994 68.776,109.56 67.852,109.56 C66.928,109.56 66.438,109.994 66.438,110.68 C66.438,111.38 66.928,111.66 67.824,111.8 L68.384,111.884 C69.98,112.122 70.596,112.822 70.596,113.914 C70.596,115.314 69.574,116.168 67.922,116.168 Z M73.13,107.082 C72.654,107.082 72.444,106.83 72.444,106.452 L72.444,106.27 C72.444,105.892 72.654,105.64 73.13,105.64 C73.606,105.64 73.816,105.892 73.816,106.27 L73.816,106.452 C73.816,106.83 73.606,107.082 73.13,107.082 Z M72.57,116 L72.57,108.776 L73.69,108.776 L73.69,116 L72.57,116 Z M76.07,116 L76.07,105.64 L77.19,105.64 L77.19,109.952 L77.246,109.952 C77.624,109.042 78.366,108.608 79.36,108.608 C81.166,108.608 82.3,110.078 82.3,112.388 C82.3,114.698 81.166,116.168 79.36,116.168 C78.366,116.168 77.68,115.72 77.246,114.824 L77.19,114.824 L77.19,116 L76.07,116 Z M79.052,115.16 C80.312,115.16 81.096,114.292 81.096,113.004 L81.096,111.772 C81.096,110.484 80.312,109.616 79.052,109.616 C78.03,109.616 77.19,110.204 77.19,111.002 L77.19,113.69 C77.19,114.628 78.03,115.16 79.052,115.16 Z M86.374,116 L85.38,116 C84.61,116 84.19,115.51 84.19,114.838 L84.19,105.64 L85.31,105.64 L85.31,115.02 L86.374,115.02 L86.374,116 Z M90.714,116.168 C88.754,116.168 87.466,114.684 87.466,112.388 C87.466,110.092 88.754,108.608 90.714,108.608 C92.646,108.608 93.836,110.092 93.836,112.136 L93.836,112.668 L88.642,112.668 L88.642,113.004 C88.642,114.25 89.44,115.188 90.784,115.188 C91.694,115.188 92.394,114.74 92.772,113.942 L93.57,114.516 C93.108,115.496 92.072,116.168 90.714,116.168 Z M90.714,109.546 C89.496,109.546 88.642,110.47 88.642,111.73 L88.642,111.828 L92.632,111.828 L92.632,111.674 C92.632,110.4 91.862,109.546 90.714,109.546 Z" id="Accessible" fill="#252525"></path>
                <path d="M194.238,116 L190.668,110.036 L189.492,107.866 L189.45,107.866 L189.45,116 L188.302,116 L188.302,106.228 L189.66,106.228 L193.23,112.192 L194.406,114.362 L194.448,114.362 L194.448,106.228 L195.596,106.228 L195.596,116 L194.238,116 Z M200.818,116.168 C198.886,116.168 197.556,114.684 197.556,112.388 C197.556,110.092 198.886,108.608 200.818,108.608 C202.75,108.608 204.08,110.092 204.08,112.388 C204.08,114.684 202.75,116.168 200.818,116.168 Z M200.818,115.174 C202.022,115.174 202.876,114.432 202.876,112.906 L202.876,111.87 C202.876,110.344 202.022,109.602 200.818,109.602 C199.614,109.602 198.76,110.344 198.76,111.87 L198.76,112.906 C198.76,114.432 199.614,115.174 200.818,115.174 Z M208.924,116 L207.524,116 C206.754,116 206.334,115.51 206.334,114.81 L206.334,109.756 L205.144,109.756 L205.144,108.776 L205.816,108.776 C206.292,108.776 206.446,108.608 206.446,108.118 L206.446,106.774 L207.454,106.774 L207.454,108.776 L209.036,108.776 L209.036,109.756 L207.454,109.756 L207.454,115.02 L208.924,115.02 L208.924,116 Z M221.608,116 L220.376,116 L219.396,113.116 L215.448,113.116 L214.468,116 L213.278,116 L216.694,106.228 L218.192,106.228 L221.608,116 Z M219.102,112.08 L217.45,107.32 L217.38,107.32 L215.728,112.08 L219.102,112.08 Z M225.808,116.168 C223.778,116.168 222.588,114.698 222.588,112.388 C222.588,110.078 223.778,108.608 225.808,108.608 C227.236,108.608 228.09,109.308 228.51,110.302 L227.572,110.778 C227.306,110.036 226.69,109.602 225.808,109.602 C224.478,109.602 223.792,110.512 223.792,111.772 L223.792,113.004 C223.792,114.264 224.478,115.174 225.808,115.174 C226.718,115.174 227.376,114.74 227.768,113.914 L228.58,114.46 C228.118,115.496 227.18,116.168 225.808,116.168 Z M232.85,116.168 C230.82,116.168 229.63,114.698 229.63,112.388 C229.63,110.078 230.82,108.608 232.85,108.608 C234.278,108.608 235.132,109.308 235.552,110.302 L234.614,110.778 C234.348,110.036 233.732,109.602 232.85,109.602 C231.52,109.602 230.834,110.512 230.834,111.772 L230.834,113.004 C230.834,114.264 231.52,115.174 232.85,115.174 C233.76,115.174 234.418,114.74 234.81,113.914 L235.622,114.46 C235.16,115.496 234.222,116.168 232.85,116.168 Z M239.92,116.168 C237.96,116.168 236.672,114.684 236.672,112.388 C236.672,110.092 237.96,108.608 239.92,108.608 C241.852,108.608 243.042,110.092 243.042,112.136 L243.042,112.668 L237.848,112.668 L237.848,113.004 C237.848,114.25 238.646,115.188 239.99,115.188 C240.9,115.188 241.6,114.74 241.978,113.942 L242.776,114.516 C242.314,115.496 241.278,116.168 239.92,116.168 Z M239.92,109.546 C238.702,109.546 237.848,110.47 237.848,111.73 L237.848,111.828 L241.838,111.828 L241.838,111.674 C241.838,110.4 241.068,109.546 239.92,109.546 Z M247.06,116.168 C245.73,116.168 244.848,115.608 244.204,114.754 L245.002,114.11 C245.562,114.81 246.234,115.216 247.144,115.216 C248.096,115.216 248.656,114.782 248.656,114.04 C248.656,113.48 248.348,113.046 247.396,112.906 L246.822,112.822 C245.492,112.626 244.498,112.08 244.498,110.736 C244.498,109.308 245.604,108.608 247.074,108.608 C248.236,108.608 249.006,109.042 249.594,109.77 L248.852,110.442 C248.53,109.994 247.914,109.56 246.99,109.56 C246.066,109.56 245.576,109.994 245.576,110.68 C245.576,111.38 246.066,111.66 246.962,111.8 L247.522,111.884 C249.118,112.122 249.734,112.822 249.734,113.914 C249.734,115.314 248.712,116.168 247.06,116.168 Z M253.878,116.168 C252.548,116.168 251.666,115.608 251.022,114.754 L251.82,114.11 C252.38,114.81 253.052,115.216 253.962,115.216 C254.914,115.216 255.474,114.782 255.474,114.04 C255.474,113.48 255.166,113.046 254.214,112.906 L253.64,112.822 C252.31,112.626 251.316,112.08 251.316,110.736 C251.316,109.308 252.422,108.608 253.892,108.608 C255.054,108.608 255.824,109.042 256.412,109.77 L255.67,110.442 C255.348,109.994 254.732,109.56 253.808,109.56 C252.884,109.56 252.394,109.994 252.394,110.68 C252.394,111.38 252.884,111.66 253.78,111.8 L254.34,111.884 C255.936,112.122 256.552,112.822 256.552,113.914 C256.552,115.314 255.53,116.168 253.878,116.168 Z M259.086,107.082 C258.61,107.082 258.4,106.83 258.4,106.452 L258.4,106.27 C258.4,105.892 258.61,105.64 259.086,105.64 C259.562,105.64 259.772,105.892 259.772,106.27 L259.772,106.452 C259.772,106.83 259.562,107.082 259.086,107.082 Z M258.526,116 L258.526,108.776 L259.646,108.776 L259.646,116 L258.526,116 Z M262.026,116 L262.026,105.64 L263.146,105.64 L263.146,109.952 L263.202,109.952 C263.58,109.042 264.322,108.608 265.316,108.608 C267.122,108.608 268.256,110.078 268.256,112.388 C268.256,114.698 267.122,116.168 265.316,116.168 C264.322,116.168 263.636,115.72 263.202,114.824 L263.146,114.824 L263.146,116 L262.026,116 Z M265.008,115.16 C266.268,115.16 267.052,114.292 267.052,113.004 L267.052,111.772 C267.052,110.484 266.268,109.616 265.008,109.616 C263.986,109.616 263.146,110.204 263.146,111.002 L263.146,113.69 C263.146,114.628 263.986,115.16 265.008,115.16 Z M272.33,116 L271.336,116 C270.566,116 270.146,115.51 270.146,114.838 L270.146,105.64 L271.266,105.64 L271.266,115.02 L272.33,115.02 L272.33,116 Z M276.67,116.168 C274.71,116.168 273.422,114.684 273.422,112.388 C273.422,110.092 274.71,108.608 276.67,108.608 C278.602,108.608 279.792,110.092 279.792,112.136 L279.792,112.668 L274.598,112.668 L274.598,113.004 C274.598,114.25 275.396,115.188 276.74,115.188 C277.65,115.188 278.35,114.74 278.728,113.942 L279.526,114.516 C279.064,115.496 278.028,116.168 276.67,116.168 Z M276.67,109.546 C275.452,109.546 274.598,110.47 274.598,111.73 L274.598,111.828 L278.588,111.828 L278.588,111.674 C278.588,110.4 277.818,109.546 276.67,109.546 Z" id="Not-Accessible-Copy" fill="#252525"></path>
                <path d="M35.238,278 L31.668,272.036 L30.492,269.866 L30.45,269.866 L30.45,278 L29.302,278 L29.302,268.228 L30.66,268.228 L34.23,274.192 L35.406,276.362 L35.448,276.362 L35.448,268.228 L36.596,268.228 L36.596,278 L35.238,278 Z M41.818,278.168 C39.886,278.168 38.556,276.684 38.556,274.388 C38.556,272.092 39.886,270.608 41.818,270.608 C43.75,270.608 45.08,272.092 45.08,274.388 C45.08,276.684 43.75,278.168 41.818,278.168 Z M41.818,277.174 C43.022,277.174 43.876,276.432 43.876,274.906 L43.876,273.87 C43.876,272.344 43.022,271.602 41.818,271.602 C40.614,271.602 39.76,272.344 39.76,273.87 L39.76,274.906 C39.76,276.432 40.614,277.174 41.818,277.174 Z M49.924,278 L48.524,278 C47.754,278 47.334,277.51 47.334,276.81 L47.334,271.756 L46.144,271.756 L46.144,270.776 L46.816,270.776 C47.292,270.776 47.446,270.608 47.446,270.118 L47.446,268.774 L48.454,268.774 L48.454,270.776 L50.036,270.776 L50.036,271.756 L48.454,271.756 L48.454,277.02 L49.924,277.02 L49.924,278 Z M62.608,278 L61.376,278 L60.396,275.116 L56.448,275.116 L55.468,278 L54.278,278 L57.694,268.228 L59.192,268.228 L62.608,278 Z M60.102,274.08 L58.45,269.32 L58.38,269.32 L56.728,274.08 L60.102,274.08 Z M66.808,278.168 C64.778,278.168 63.588,276.698 63.588,274.388 C63.588,272.078 64.778,270.608 66.808,270.608 C68.236,270.608 69.09,271.308 69.51,272.302 L68.572,272.778 C68.306,272.036 67.69,271.602 66.808,271.602 C65.478,271.602 64.792,272.512 64.792,273.772 L64.792,275.004 C64.792,276.264 65.478,277.174 66.808,277.174 C67.718,277.174 68.376,276.74 68.768,275.914 L69.58,276.46 C69.118,277.496 68.18,278.168 66.808,278.168 Z M73.85,278.168 C71.82,278.168 70.63,276.698 70.63,274.388 C70.63,272.078 71.82,270.608 73.85,270.608 C75.278,270.608 76.132,271.308 76.552,272.302 L75.614,272.778 C75.348,272.036 74.732,271.602 73.85,271.602 C72.52,271.602 71.834,272.512 71.834,273.772 L71.834,275.004 C71.834,276.264 72.52,277.174 73.85,277.174 C74.76,277.174 75.418,276.74 75.81,275.914 L76.622,276.46 C76.16,277.496 75.222,278.168 73.85,278.168 Z M80.92,278.168 C78.96,278.168 77.672,276.684 77.672,274.388 C77.672,272.092 78.96,270.608 80.92,270.608 C82.852,270.608 84.042,272.092 84.042,274.136 L84.042,274.668 L78.848,274.668 L78.848,275.004 C78.848,276.25 79.646,277.188 80.99,277.188 C81.9,277.188 82.6,276.74 82.978,275.942 L83.776,276.516 C83.314,277.496 82.278,278.168 80.92,278.168 Z M80.92,271.546 C79.702,271.546 78.848,272.47 78.848,273.73 L78.848,273.828 L82.838,273.828 L82.838,273.674 C82.838,272.4 82.068,271.546 80.92,271.546 Z M88.06,278.168 C86.73,278.168 85.848,277.608 85.204,276.754 L86.002,276.11 C86.562,276.81 87.234,277.216 88.144,277.216 C89.096,277.216 89.656,276.782 89.656,276.04 C89.656,275.48 89.348,275.046 88.396,274.906 L87.822,274.822 C86.492,274.626 85.498,274.08 85.498,272.736 C85.498,271.308 86.604,270.608 88.074,270.608 C89.236,270.608 90.006,271.042 90.594,271.77 L89.852,272.442 C89.53,271.994 88.914,271.56 87.99,271.56 C87.066,271.56 86.576,271.994 86.576,272.68 C86.576,273.38 87.066,273.66 87.962,273.8 L88.522,273.884 C90.118,274.122 90.734,274.822 90.734,275.914 C90.734,277.314 89.712,278.168 88.06,278.168 Z M94.878,278.168 C93.548,278.168 92.666,277.608 92.022,276.754 L92.82,276.11 C93.38,276.81 94.052,277.216 94.962,277.216 C95.914,277.216 96.474,276.782 96.474,276.04 C96.474,275.48 96.166,275.046 95.214,274.906 L94.64,274.822 C93.31,274.626 92.316,274.08 92.316,272.736 C92.316,271.308 93.422,270.608 94.892,270.608 C96.054,270.608 96.824,271.042 97.412,271.77 L96.67,272.442 C96.348,271.994 95.732,271.56 94.808,271.56 C93.884,271.56 93.394,271.994 93.394,272.68 C93.394,273.38 93.884,273.66 94.78,273.8 L95.34,273.884 C96.936,274.122 97.552,274.822 97.552,275.914 C97.552,277.314 96.53,278.168 94.878,278.168 Z M100.086,269.082 C99.61,269.082 99.4,268.83 99.4,268.452 L99.4,268.27 C99.4,267.892 99.61,267.64 100.086,267.64 C100.562,267.64 100.772,267.892 100.772,268.27 L100.772,268.452 C100.772,268.83 100.562,269.082 100.086,269.082 Z M99.526,278 L99.526,270.776 L100.646,270.776 L100.646,278 L99.526,278 Z M103.026,278 L103.026,267.64 L104.146,267.64 L104.146,271.952 L104.202,271.952 C104.58,271.042 105.322,270.608 106.316,270.608 C108.122,270.608 109.256,272.078 109.256,274.388 C109.256,276.698 108.122,278.168 106.316,278.168 C105.322,278.168 104.636,277.72 104.202,276.824 L104.146,276.824 L104.146,278 L103.026,278 Z M106.008,277.16 C107.268,277.16 108.052,276.292 108.052,275.004 L108.052,273.772 C108.052,272.484 107.268,271.616 106.008,271.616 C104.986,271.616 104.146,272.204 104.146,273.002 L104.146,275.69 C104.146,276.628 104.986,277.16 106.008,277.16 Z M113.33,278 L112.336,278 C111.566,278 111.146,277.51 111.146,276.838 L111.146,267.64 L112.266,267.64 L112.266,277.02 L113.33,277.02 L113.33,278 Z M117.67,278.168 C115.71,278.168 114.422,276.684 114.422,274.388 C114.422,272.092 115.71,270.608 117.67,270.608 C119.602,270.608 120.792,272.092 120.792,274.136 L120.792,274.668 L115.598,274.668 L115.598,275.004 C115.598,276.25 116.396,277.188 117.74,277.188 C118.65,277.188 119.35,276.74 119.728,275.942 L120.526,276.516 C120.064,277.496 119.028,278.168 117.67,278.168 Z M117.67,271.546 C116.452,271.546 115.598,272.47 115.598,273.73 L115.598,273.828 L119.588,273.828 L119.588,273.674 C119.588,272.4 118.818,271.546 117.67,271.546 Z" id="Not-Accessible-Copy-2" fill="#252525"></path>
                <path d="M35.238,440 L31.668,434.036 L30.492,431.866 L30.45,431.866 L30.45,440 L29.302,440 L29.302,430.228 L30.66,430.228 L34.23,436.192 L35.406,438.362 L35.448,438.362 L35.448,430.228 L36.596,430.228 L36.596,440 L35.238,440 Z M41.818,440.168 C39.886,440.168 38.556,438.684 38.556,436.388 C38.556,434.092 39.886,432.608 41.818,432.608 C43.75,432.608 45.08,434.092 45.08,436.388 C45.08,438.684 43.75,440.168 41.818,440.168 Z M41.818,439.174 C43.022,439.174 43.876,438.432 43.876,436.906 L43.876,435.87 C43.876,434.344 43.022,433.602 41.818,433.602 C40.614,433.602 39.76,434.344 39.76,435.87 L39.76,436.906 C39.76,438.432 40.614,439.174 41.818,439.174 Z M49.924,440 L48.524,440 C47.754,440 47.334,439.51 47.334,438.81 L47.334,433.756 L46.144,433.756 L46.144,432.776 L46.816,432.776 C47.292,432.776 47.446,432.608 47.446,432.118 L47.446,430.774 L48.454,430.774 L48.454,432.776 L50.036,432.776 L50.036,433.756 L48.454,433.756 L48.454,439.02 L49.924,439.02 L49.924,440 Z M62.608,440 L61.376,440 L60.396,437.116 L56.448,437.116 L55.468,440 L54.278,440 L57.694,430.228 L59.192,430.228 L62.608,440 Z M60.102,436.08 L58.45,431.32 L58.38,431.32 L56.728,436.08 L60.102,436.08 Z M66.808,440.168 C64.778,440.168 63.588,438.698 63.588,436.388 C63.588,434.078 64.778,432.608 66.808,432.608 C68.236,432.608 69.09,433.308 69.51,434.302 L68.572,434.778 C68.306,434.036 67.69,433.602 66.808,433.602 C65.478,433.602 64.792,434.512 64.792,435.772 L64.792,437.004 C64.792,438.264 65.478,439.174 66.808,439.174 C67.718,439.174 68.376,438.74 68.768,437.914 L69.58,438.46 C69.118,439.496 68.18,440.168 66.808,440.168 Z M73.85,440.168 C71.82,440.168 70.63,438.698 70.63,436.388 C70.63,434.078 71.82,432.608 73.85,432.608 C75.278,432.608 76.132,433.308 76.552,434.302 L75.614,434.778 C75.348,434.036 74.732,433.602 73.85,433.602 C72.52,433.602 71.834,434.512 71.834,435.772 L71.834,437.004 C71.834,438.264 72.52,439.174 73.85,439.174 C74.76,439.174 75.418,438.74 75.81,437.914 L76.622,438.46 C76.16,439.496 75.222,440.168 73.85,440.168 Z M80.92,440.168 C78.96,440.168 77.672,438.684 77.672,436.388 C77.672,434.092 78.96,432.608 80.92,432.608 C82.852,432.608 84.042,434.092 84.042,436.136 L84.042,436.668 L78.848,436.668 L78.848,437.004 C78.848,438.25 79.646,439.188 80.99,439.188 C81.9,439.188 82.6,438.74 82.978,437.942 L83.776,438.516 C83.314,439.496 82.278,440.168 80.92,440.168 Z M80.92,433.546 C79.702,433.546 78.848,434.47 78.848,435.73 L78.848,435.828 L82.838,435.828 L82.838,435.674 C82.838,434.4 82.068,433.546 80.92,433.546 Z M88.06,440.168 C86.73,440.168 85.848,439.608 85.204,438.754 L86.002,438.11 C86.562,438.81 87.234,439.216 88.144,439.216 C89.096,439.216 89.656,438.782 89.656,438.04 C89.656,437.48 89.348,437.046 88.396,436.906 L87.822,436.822 C86.492,436.626 85.498,436.08 85.498,434.736 C85.498,433.308 86.604,432.608 88.074,432.608 C89.236,432.608 90.006,433.042 90.594,433.77 L89.852,434.442 C89.53,433.994 88.914,433.56 87.99,433.56 C87.066,433.56 86.576,433.994 86.576,434.68 C86.576,435.38 87.066,435.66 87.962,435.8 L88.522,435.884 C90.118,436.122 90.734,436.822 90.734,437.914 C90.734,439.314 89.712,440.168 88.06,440.168 Z M94.878,440.168 C93.548,440.168 92.666,439.608 92.022,438.754 L92.82,438.11 C93.38,438.81 94.052,439.216 94.962,439.216 C95.914,439.216 96.474,438.782 96.474,438.04 C96.474,437.48 96.166,437.046 95.214,436.906 L94.64,436.822 C93.31,436.626 92.316,436.08 92.316,434.736 C92.316,433.308 93.422,432.608 94.892,432.608 C96.054,432.608 96.824,433.042 97.412,433.77 L96.67,434.442 C96.348,433.994 95.732,433.56 94.808,433.56 C93.884,433.56 93.394,433.994 93.394,434.68 C93.394,435.38 93.884,435.66 94.78,435.8 L95.34,435.884 C96.936,436.122 97.552,436.822 97.552,437.914 C97.552,439.314 96.53,440.168 94.878,440.168 Z M100.086,431.082 C99.61,431.082 99.4,430.83 99.4,430.452 L99.4,430.27 C99.4,429.892 99.61,429.64 100.086,429.64 C100.562,429.64 100.772,429.892 100.772,430.27 L100.772,430.452 C100.772,430.83 100.562,431.082 100.086,431.082 Z M99.526,440 L99.526,432.776 L100.646,432.776 L100.646,440 L99.526,440 Z M103.026,440 L103.026,429.64 L104.146,429.64 L104.146,433.952 L104.202,433.952 C104.58,433.042 105.322,432.608 106.316,432.608 C108.122,432.608 109.256,434.078 109.256,436.388 C109.256,438.698 108.122,440.168 106.316,440.168 C105.322,440.168 104.636,439.72 104.202,438.824 L104.146,438.824 L104.146,440 L103.026,440 Z M106.008,439.16 C107.268,439.16 108.052,438.292 108.052,437.004 L108.052,435.772 C108.052,434.484 107.268,433.616 106.008,433.616 C104.986,433.616 104.146,434.204 104.146,435.002 L104.146,437.69 C104.146,438.628 104.986,439.16 106.008,439.16 Z M113.33,440 L112.336,440 C111.566,440 111.146,439.51 111.146,438.838 L111.146,429.64 L112.266,429.64 L112.266,439.02 L113.33,439.02 L113.33,440 Z M117.67,440.168 C115.71,440.168 114.422,438.684 114.422,436.388 C114.422,434.092 115.71,432.608 117.67,432.608 C119.602,432.608 120.792,434.092 120.792,436.136 L120.792,436.668 L115.598,436.668 L115.598,437.004 C115.598,438.25 116.396,439.188 117.74,439.188 C118.65,439.188 119.35,438.74 119.728,437.942 L120.526,438.516 C120.064,439.496 119.028,440.168 117.67,440.168 Z M117.67,433.546 C116.452,433.546 115.598,434.47 115.598,435.73 L115.598,435.828 L119.588,435.828 L119.588,435.674 C119.588,434.4 118.818,433.546 117.67,433.546 Z" id="Not-Accessible-Copy-3" fill="#252525"></path>
                <circle id="Oval-2-Copy-47" fill="#0062FF" cx="257" cy="32" r="32"></circle>
                <path d="M247.232,31.352 L249.08,31.352 C251.408,31.352 252.584,30.176 252.584,28.568 L252.584,28.4 C252.584,26.624 251.336,25.712 249.512,25.712 C247.736,25.712 246.68,26.576 245.984,27.848 L244.472,26.696 C245.336,25.352 246.824,23.96 249.56,23.96 C252.416,23.96 254.696,25.472 254.696,28.184 C254.696,30.344 253.256,31.64 251.432,32.096 L251.432,32.192 C253.28,32.552 255.032,33.896 255.032,36.416 C255.032,39.296 252.728,41.288 249.248,41.288 C246.296,41.288 244.784,39.872 243.752,38.432 L245.264,37.28 C246.152,38.6 247.136,39.536 249.248,39.536 C251.6,39.536 252.92,38.384 252.92,36.392 L252.92,36.2 C252.92,34.232 251.672,33.08 249.224,33.08 L247.232,33.08 L247.232,31.352 Z M264.2,41.288 C260.12,41.288 258.344,38.096 258.344,32.624 C258.344,27.152 260.12,23.96 264.2,23.96 C268.28,23.96 270.056,27.152 270.056,32.624 C270.056,38.096 268.28,41.288 264.2,41.288 Z M264.2,39.536 C266.888,39.536 267.968,37.352 267.968,33.992 L267.968,31.256 C267.968,27.896 266.888,25.712 264.2,25.712 C261.512,25.712 260.432,27.896 260.432,31.256 L260.432,33.992 C260.432,37.352 261.512,39.536 264.2,39.536 Z M264.2,34.04 C263.096,34.04 262.712,33.536 262.712,32.888 L262.712,32.36 C262.712,31.712 263.096,31.208 264.2,31.208 C265.304,31.208 265.688,31.712 265.688,32.36 L265.688,32.888 C265.688,33.536 265.304,34.04 264.2,34.04 Z" id="30-copy-2" fill="#97C1FF"></path>
                <path d="M165,88 L289,88" id="Line-2-Copy-3" stroke="#EE538B" stroke-width="2" stroke-linecap="square" stroke-dasharray="2,7"></path>
                <path d="M6,250 L288,250" id="Line-2-Copy-4" stroke="#EE538B" stroke-width="2" stroke-linecap="square" stroke-dasharray="2,7"></path>
                <path d="M6,412 L288,412" id="Line-2-Copy-5" stroke="#EE538B" stroke-width="2" stroke-linecap="square" stroke-dasharray="2,7"></path>
                <circle id="Oval-2-Copy-38" fill="#0062FF" cx="182" cy="32" r="32"></circle>
                <circle id="Oval-2-Copy-40" fill="#0062FF" cx="32" cy="32" r="32"></circle>
                <circle id="Oval-2-Copy-41" fill="#0062FF" cx="109" cy="32" r="32"></circle>
                <polygon id="W-Copy-6" fill="#FFFFFF" points="29.864 41 26.96 41 25.64 24.248 27.44 24.248 28.136 33.848 28.496 38.912 28.688 38.912 30.896 28.616 33.152 28.616 35.36 38.912 35.552 38.912 35.912 33.848 36.608 24.248 38.36 24.248 37.04 41 34.136 41 32.096 30.992 31.904 30.992"></polygon>
                <path d="M107.872,41 L96.64,41 L96.64,39.248 L101.44,39.248 L101.44,25.736 L101.272,25.736 L97.048,29.672 L95.872,28.4 L100.312,24.248 L103.456,24.248 L103.456,39.248 L107.872,39.248 L107.872,41 Z M116.2,41.288 C112.12,41.288 110.344,38.096 110.344,32.624 C110.344,27.152 112.12,23.96 116.2,23.96 C120.28,23.96 122.056,27.152 122.056,32.624 C122.056,38.096 120.28,41.288 116.2,41.288 Z M116.2,39.536 C118.888,39.536 119.968,37.352 119.968,33.992 L119.968,31.256 C119.968,27.896 118.888,25.712 116.2,25.712 C113.512,25.712 112.432,27.896 112.432,31.256 L112.432,33.992 C112.432,37.352 113.512,39.536 116.2,39.536 Z M116.2,34.04 C115.096,34.04 114.712,33.536 114.712,32.888 L114.712,32.36 C114.712,31.712 115.096,31.208 116.2,31.208 C117.304,31.208 117.688,31.712 117.688,32.36 L117.688,32.888 C117.688,33.536 117.304,34.04 116.2,34.04 Z" id="10-copy-2" fill="#EDF4FF"></path>
                <path d="M180.488,39.248 L180.488,41 L169.304,41 L169.304,38.936 L174.896,33.896 C176.528,32.432 177.704,30.872 177.704,29.168 L177.704,28.88 C177.704,26.864 176.624,25.712 174.56,25.712 C172.52,25.712 171.488,26.84 170.96,28.568 L169.16,27.896 C169.808,25.928 171.32,23.96 174.608,23.96 C177.944,23.96 179.816,25.976 179.816,28.808 C179.816,31.352 178.304,33.224 176.072,35.168 L171.392,39.248 L180.488,39.248 Z M189.2,41.288 C185.12,41.288 183.344,38.096 183.344,32.624 C183.344,27.152 185.12,23.96 189.2,23.96 C193.28,23.96 195.056,27.152 195.056,32.624 C195.056,38.096 193.28,41.288 189.2,41.288 Z M189.2,39.536 C191.888,39.536 192.968,37.352 192.968,33.992 L192.968,31.256 C192.968,27.896 191.888,25.712 189.2,25.712 C186.512,25.712 185.432,27.896 185.432,31.256 L185.432,33.992 C185.432,37.352 186.512,39.536 189.2,39.536 Z M189.2,34.04 C188.096,34.04 187.712,33.536 187.712,32.888 L187.712,32.36 C187.712,31.712 188.096,31.208 189.2,31.208 C190.304,31.208 190.688,31.712 190.688,32.36 L190.688,32.888 C190.688,33.536 190.304,34.04 189.2,34.04 Z" id="20-copy-2" fill="#C9DEFF"></path>
                <path id="Line-2-Copy" d="M1.5,81.5 L1.5,93.5 L1.5,94.5 L3.5,94.5 L3.5,93.5 L3.5,81.5 L3.5,80.5 L1.5,80.5 L1.5,81.5 Z M158.65315,93.5 L158.65315,81.5 L158.65315,80.5 L156.65315,80.5 L156.65315,81.5 L156.65315,93.5 L156.65315,94.5 L158.65315,94.5 L158.65315,93.5 Z M2.5,88.5 L157.65315,88.5 L158.65315,88.5 L158.65315,86.5 L157.65315,86.5 L2.5,86.5 L1.5,86.5 L1.5,88.5 L2.5,88.5 Z" fill="#24A249" fill-rule="nonzero"></path>
                <path d="M10,102.25 C5.1875,102.25 1.25,106.1875 1.25,111 C1.25,115.8125 5.1875,119.75 10,119.75 C14.8125,119.75 18.75,115.8125 18.75,111 C18.75,106.1875 14.8125,102.25 10,102.25 Z" id="Shape" fill="#24A249" fill-rule="nonzero"></path>
                <polygon id="Shape" fill="#FFFFFF" fill-rule="nonzero" points="14.375 108.75 13.5 107.875 8.75 112.625 6.5 110.375 5.625 111.25 8.75 114.375"></polygon>
                <path d="M170,102.25 C165.167508,102.25 161.25,106.167508 161.25,111 C161.25,115.832492 165.167508,119.75 170,119.75 C174.832492,119.75 178.75,115.832492 178.75,111 C178.75,108.679356 177.828128,106.453759 176.187184,104.812816 C174.546241,103.171872 172.320644,102.25 170,102.25 Z" id="Shape" fill="#EE538B" fill-rule="nonzero"></path>
                <polygon id="Shape" fill="#FFFFFF" fill-rule="nonzero" points="174.375 107.50625 173.49375 106.625 170 110.11875 166.50625 106.625 165.625 107.50625 169.11875 111 165.625 114.49375 166.50625 115.375 170 111.88125 173.49375 115.375 174.375 114.49375 170.88125 111"></polygon>
                <path d="M11,264.25 C6.16750844,264.25 2.25,268.167508 2.25,273 C2.25,277.832492 6.16750844,281.75 11,281.75 C15.8324916,281.75 19.75,277.832492 19.75,273 C19.75,270.679356 18.8281276,268.453759 17.1871843,266.812816 C15.546241,265.171872 13.3206443,264.25 11,264.25 Z" id="Shape" fill="#EE538B" fill-rule="nonzero"></path>
                <polygon id="Shape" fill="#FFFFFF" fill-rule="nonzero" points="15.375 269.50625 14.49375 268.625 11 272.11875 7.50625 268.625 6.625 269.50625 10.11875 273 6.625 276.49375 7.50625 277.375 11 273.88125 14.49375 277.375 15.375 276.49375 11.88125 273"></polygon>
                <path d="M11,426.25 C6.16750844,426.25 2.25,430.167508 2.25,435 C2.25,439.832492 6.16750844,443.75 11,443.75 C15.8324916,443.75 19.75,439.832492 19.75,435 C19.75,432.679356 18.8281276,430.453759 17.1871843,428.812816 C15.546241,427.171872 13.3206443,426.25 11,426.25 Z" id="Shape" fill="#EE538B" fill-rule="nonzero"></path>
                <polygon id="Shape" fill="#FFFFFF" fill-rule="nonzero" points="15.375 431.50625 14.49375 430.625 11 434.11875 7.50625 430.625 6.625 431.50625 10.11875 435 6.625 438.49375 7.50625 439.375 11 435.88125 14.49375 439.375 15.375 438.49375 11.88125 435"></polygon>
                <circle id="Oval-2-Copy-43" fill="#0062FF" cx="32" cy="193" r="32"></circle>
                <circle id="Oval-2-Copy-45" fill="#0062FF" cx="182" cy="193" r="32"></circle>
                <circle id="Oval-2-Copy-49" fill="#0062FF" cx="109" cy="193" r="32"></circle>
                <circle id="Oval-2-Copy-51" fill="#0062FF" cx="257" cy="193" r="32"></circle>
                <path d="M28.592,202 L26.672,202 L26.672,198.712 L18.416,198.712 L18.416,196.936 L25.664,185.248 L28.592,185.248 L28.592,197.056 L31.088,197.056 L31.088,198.712 L28.592,198.712 L28.592,202 Z M26.576,186.808 L20.216,197.056 L26.672,197.056 L26.672,186.808 L26.576,186.808 Z M39.2,202.288 C35.12,202.288 33.344,199.096 33.344,193.624 C33.344,188.152 35.12,184.96 39.2,184.96 C43.28,184.96 45.056,188.152 45.056,193.624 C45.056,199.096 43.28,202.288 39.2,202.288 Z M39.2,200.536 C41.888,200.536 42.968,198.352 42.968,194.992 L42.968,192.256 C42.968,188.896 41.888,186.712 39.2,186.712 C36.512,186.712 35.432,188.896 35.432,192.256 L35.432,194.992 C35.432,198.352 36.512,200.536 39.2,200.536 Z M39.2,195.04 C38.096,195.04 37.712,194.536 37.712,193.888 L37.712,193.36 C37.712,192.712 38.096,192.208 39.2,192.208 C40.304,192.208 40.688,192.712 40.688,193.36 L40.688,193.888 C40.688,194.536 40.304,195.04 39.2,195.04 Z" id="40-copy-2" fill="#6EA6FF"></path>
                <path d="M106.624,185.248 L106.624,187 L99.136,187 L98.656,193.408 L98.824,193.408 C99.64,192.28 100.552,191.584 102.328,191.584 C105.256,191.584 107.392,193.504 107.392,196.744 C107.392,200.008 105.256,202.288 101.68,202.288 C98.848,202.288 97.384,200.872 96.352,199.432 L97.864,198.28 C98.752,199.6 99.664,200.536 101.728,200.536 C104.032,200.536 105.304,199.192 105.304,197.008 L105.304,196.816 C105.304,194.608 104.008,193.288 101.68,193.288 C100.096,193.288 99.328,193.912 98.608,194.704 L96.904,194.464 L97.504,185.248 L106.624,185.248 Z M116.2,202.288 C112.12,202.288 110.344,199.096 110.344,193.624 C110.344,188.152 112.12,184.96 116.2,184.96 C120.28,184.96 122.056,188.152 122.056,193.624 C122.056,199.096 120.28,202.288 116.2,202.288 Z M116.2,200.536 C118.888,200.536 119.968,198.352 119.968,194.992 L119.968,192.256 C119.968,188.896 118.888,186.712 116.2,186.712 C113.512,186.712 112.432,188.896 112.432,192.256 L112.432,194.992 C112.432,198.352 113.512,200.536 116.2,200.536 Z M116.2,195.04 C115.096,195.04 114.712,194.536 114.712,193.888 L114.712,193.36 C114.712,192.712 115.096,192.208 116.2,192.208 C117.304,192.208 117.688,192.712 117.688,193.36 L117.688,193.888 C117.688,194.536 117.304,195.04 116.2,195.04 Z" id="50-copy-2" fill="#418CFF"></path>
                <path d="M248.912,202 L246.752,202 L253.304,186.976 L245.96,186.976 L245.96,190.096 L244.16,190.096 L244.16,185.248 L255.344,185.248 L255.344,187.024 L248.912,202 Z M264.2,202.288 C260.12,202.288 258.344,199.096 258.344,193.624 C258.344,188.152 260.12,184.96 264.2,184.96 C268.28,184.96 270.056,188.152 270.056,193.624 C270.056,199.096 268.28,202.288 264.2,202.288 Z M264.2,200.536 C266.888,200.536 267.968,198.352 267.968,194.992 L267.968,192.256 C267.968,188.896 266.888,186.712 264.2,186.712 C261.512,186.712 260.432,188.896 260.432,192.256 L260.432,194.992 C260.432,198.352 261.512,200.536 264.2,200.536 Z M264.2,195.04 C263.096,195.04 262.712,194.536 262.712,193.888 L262.712,193.36 C262.712,192.712 263.096,192.208 264.2,192.208 C265.304,192.208 265.688,192.712 265.688,193.36 L265.688,193.888 C265.688,194.536 265.304,195.04 264.2,195.04 Z" id="70-copy-2" fill="#054ADA"></path>
                <circle id="Oval-2-Copy-36" fill="#0062FF" cx="32" cy="355" r="32"></circle>
                <path d="M24.8,364.288 C20.912,364.288 18.92,362.2 18.92,359.44 C18.92,357.16 20.288,355.84 22.328,355.288 L22.328,355.096 C20.552,354.496 19.424,353.08 19.424,351.16 C19.424,348.616 21.416,346.96 24.8,346.96 C28.184,346.96 30.176,348.616 30.176,351.16 C30.176,353.08 29.048,354.496 27.272,355.096 L27.272,355.288 C29.312,355.84 30.68,357.16 30.68,359.44 C30.68,362.2 28.688,364.288 24.8,364.288 Z M24.8,362.584 C27.152,362.584 28.592,361.456 28.592,359.56 L28.592,359.032 C28.592,357.112 27.2,356.008 24.8,356.008 C22.4,356.008 21.008,357.112 21.008,359.032 L21.008,359.56 C21.008,361.456 22.448,362.584 24.8,362.584 Z M24.8,354.376 C26.96,354.376 28.136,353.392 28.136,351.688 L28.136,351.352 C28.136,349.648 26.912,348.664 24.8,348.664 C22.688,348.664 21.464,349.648 21.464,351.352 L21.464,351.688 C21.464,353.392 22.64,354.376 24.8,354.376 Z M39.2,364.288 C35.12,364.288 33.344,361.096 33.344,355.624 C33.344,350.152 35.12,346.96 39.2,346.96 C43.28,346.96 45.056,350.152 45.056,355.624 C45.056,361.096 43.28,364.288 39.2,364.288 Z M39.2,362.536 C41.888,362.536 42.968,360.352 42.968,356.992 L42.968,354.256 C42.968,350.896 41.888,348.712 39.2,348.712 C36.512,348.712 35.432,350.896 35.432,354.256 L35.432,356.992 C35.432,360.352 36.512,362.536 39.2,362.536 Z M39.2,357.04 C38.096,357.04 37.712,356.536 37.712,355.888 L37.712,355.36 C37.712,354.712 38.096,354.208 39.2,354.208 C40.304,354.208 40.688,354.712 40.688,355.36 L40.688,355.888 C40.688,356.536 40.304,357.04 39.2,357.04 Z" id="80-copy-2" fill="#0530AD"></path>
                <circle id="Oval-2-Copy-53" fill="#0062FF" cx="182" cy="355" r="32"></circle>
                <circle id="Oval-2-Copy-55" fill="#0062FF" cx="109" cy="355" r="32"></circle>
                <circle id="Oval-2-Copy-58" fill="#0062FF" cx="257" cy="355" r="32"></circle>
                <path d="M107.464,353.392 C107.464,358.36 104.128,362.248 101.392,364 L98.8,364 C102.448,361.384 104.464,359.2 105.4,355.312 L105.28,355.264 C104.464,356.632 103.24,357.664 101.152,357.664 C98.224,357.664 96.136,355.672 96.136,352.504 C96.136,349.216 98.368,346.96 101.776,346.96 C105.304,346.96 107.464,349.408 107.464,353.392 Z M101.8,356.008 C104.08,356.008 105.424,354.688 105.424,352.432 L105.424,352.24 C105.424,349.984 104.08,348.664 101.8,348.664 C99.52,348.664 98.176,349.984 98.176,352.24 L98.176,352.432 C98.176,354.688 99.52,356.008 101.8,356.008 Z M116.2,364.288 C112.12,364.288 110.344,361.096 110.344,355.624 C110.344,350.152 112.12,346.96 116.2,346.96 C120.28,346.96 122.056,350.152 122.056,355.624 C122.056,361.096 120.28,364.288 116.2,364.288 Z M116.2,362.536 C118.888,362.536 119.968,360.352 119.968,356.992 L119.968,354.256 C119.968,350.896 118.888,348.712 116.2,348.712 C113.512,348.712 112.432,350.896 112.432,354.256 L112.432,356.992 C112.432,360.352 113.512,362.536 116.2,362.536 Z M116.2,357.04 C115.096,357.04 114.712,356.536 114.712,355.888 L114.712,355.36 C114.712,354.712 115.096,354.208 116.2,354.208 C117.304,354.208 117.688,354.712 117.688,355.36 L117.688,355.888 C117.688,356.536 117.304,357.04 116.2,357.04 Z" id="90-copy-2" fill="#061F80"></path>
                <path d="M173.672,364 L162.44,364 L162.44,362.248 L167.24,362.248 L167.24,348.736 L167.072,348.736 L162.848,352.672 L161.672,351.4 L166.112,347.248 L169.256,347.248 L169.256,362.248 L173.672,362.248 L173.672,364 Z M182,364.288 C177.92,364.288 176.144,361.096 176.144,355.624 C176.144,350.152 177.92,346.96 182,346.96 C186.08,346.96 187.856,350.152 187.856,355.624 C187.856,361.096 186.08,364.288 182,364.288 Z M182,362.536 C184.688,362.536 185.768,360.352 185.768,356.992 L185.768,354.256 C185.768,350.896 184.688,348.712 182,348.712 C179.312,348.712 178.232,350.896 178.232,354.256 L178.232,356.992 C178.232,360.352 179.312,362.536 182,362.536 Z M182,357.04 C180.896,357.04 180.512,356.536 180.512,355.888 L180.512,355.36 C180.512,354.712 180.896,354.208 182,354.208 C183.104,354.208 183.488,354.712 183.488,355.36 L183.488,355.888 C183.488,356.536 183.104,357.04 182,357.04 Z M196.4,364.288 C192.32,364.288 190.544,361.096 190.544,355.624 C190.544,350.152 192.32,346.96 196.4,346.96 C200.48,346.96 202.256,350.152 202.256,355.624 C202.256,361.096 200.48,364.288 196.4,364.288 Z M196.4,362.536 C199.088,362.536 200.168,360.352 200.168,356.992 L200.168,354.256 C200.168,350.896 199.088,348.712 196.4,348.712 C193.712,348.712 192.632,350.896 192.632,354.256 L192.632,356.992 C192.632,360.352 193.712,362.536 196.4,362.536 Z M196.4,357.04 C195.296,357.04 194.912,356.536 194.912,355.888 L194.912,355.36 C194.912,354.712 195.296,354.208 196.4,354.208 C197.504,354.208 197.888,354.712 197.888,355.36 L197.888,355.888 C197.888,356.536 197.504,357.04 196.4,357.04 Z" id="100-copy-2" fill="#051243"></path>
                <polygon id="K-Copy-12" fill="#000000" points="261.32 364 256.256 355.792 253.856 358.624 253.856 364 251.84 364 251.84 347.248 253.856 347.248 253.856 355.984 253.928 355.984 256.136 353.2 261.08 347.248 263.504 347.248 257.624 354.304 263.672 364"></polygon>
            </g>
        </g>
    </g>
</svg>