<?xml version="1.0" encoding="utf-8"?>
<!-- Generator: Adobe Illustrator 22.1.0, SVG Export Plug-In . SVG Version: 6.00 Build 0)  -->
<svg version="1.1" xmlns="http://www.w3.org/2000/svg" xmlns:xlink="http://www.w3.org/1999/xlink" x="0px" y="0px"
	 viewBox="0 0 289 332" style="enable-background:new 0 0 289 332;" xml:space="preserve">
<style type="text/css">
	.st0{fill:#F3F3F3;}
	.st1{fill:#252525;}
	.st2{fill:#EDF4FF;}
	.st3{fill:#FFFFFF;}
	.st4{fill:#97C1FF;}
	.st5{fill:#C9DEFF;}
	.st6{fill:#054ADA;}
	.st7{fill:#418CFF;}
	.st8{fill:#6EA6FF;}
	.st9{fill:#0062FF;}
	.st10{fill:#061F80;}
	.st11{fill:#0530AD;}
	.st12{fill:#051243;}
</style>
<g id="Layer_2">
	<rect class="st0" width="289" height="332"/>
</g>
<g id="Layer_1">
	<title>Group</title>
	<desc>Created with Sketch.</desc>
	<g id="Page-1">
		<g id="Typography_Mobile_320px-Copy" transform="translate(-15.000000, -49.000000)">
			<g id="Group" transform="translate(15.000000, 49.000000)">
				<polygon id="W-Copy-5" class="st1" points="30.8,91 29.1,91 28.3,81.2 29.3,81.2 29.7,86.8 30,89.8 30.1,89.8 31.4,83.8 
					32.7,83.8 34,89.8 34.1,89.8 34.3,86.8 34.7,81.2 35.7,81.2 34.9,91 33.2,91 32.1,85.2 31.9,85.2 				"/>
				<path id="_x31_0-copy" class="st1" d="M106.3,91h-6.6v-1h2.8v-7.9h-0.1l-2.5,2.3l-0.7-0.7l2.6-2.4h1.8V90h2.6V91z M111.2,91.2
					c-2.4,0-3.4-1.9-3.4-5.1s1-5.1,3.4-5.1c2.4,0,3.4,1.9,3.4,5.1S113.6,91.2,111.2,91.2z M111.2,90.1c1.6,0,2.2-1.3,2.2-3.2v-1.6
					c0-2-0.6-3.2-2.2-3.2c-1.6,0-2.2,1.3-2.2,3.2v1.6C109,88.9,109.6,90.1,111.2,90.1z M111.2,86.9c-0.6,0-0.9-0.3-0.9-0.7V86
					c0-0.4,0.2-0.7,0.9-0.7c0.6,0,0.9,0.3,0.9,0.7v0.3C112.1,86.6,111.8,86.9,111.2,86.9z"/>
				<path id="_x32_0-copy" class="st1" d="M181.1,90v1h-6.5v-1.2l3.3-2.9c1-0.9,1.6-1.8,1.6-2.8v-0.2c0-1.2-0.6-1.8-1.8-1.8
					c-1.2,0-1.8,0.7-2.1,1.7l-1.1-0.4c0.4-1.1,1.3-2.3,3.2-2.3c1.9,0,3,1.2,3,2.8c0,1.5-0.9,2.6-2.2,3.7l-2.7,2.4H181.1z
					 M186.2,91.2c-2.4,0-3.4-1.9-3.4-5.1s1-5.1,3.4-5.1c2.4,0,3.4,1.9,3.4,5.1S188.6,91.2,186.2,91.2z M186.2,90.1
					c1.6,0,2.2-1.3,2.2-3.2v-1.6c0-2-0.6-3.2-2.2-3.2c-1.6,0-2.2,1.3-2.2,3.2v1.6C184,88.9,184.6,90.1,186.2,90.1z M186.2,86.9
					c-0.6,0-0.9-0.3-0.9-0.7V86c0-0.4,0.2-0.7,0.9-0.7s0.9,0.3,0.9,0.7v0.3C187.1,86.6,186.8,86.9,186.2,86.9z"/>
				<path id="_x33_0-copy" class="st1" d="M251.3,85.4h1.1c1.4,0,2-0.7,2-1.6v-0.1c0-1-0.7-1.6-1.8-1.6c-1,0-1.7,0.5-2.1,1.2
					l-0.9-0.7c0.5-0.8,1.4-1.6,3-1.6c1.7,0,3,0.9,3,2.5c0,1.3-0.8,2-1.9,2.3v0.1c1.1,0.2,2.1,1,2.1,2.5c0,1.7-1.3,2.8-3.4,2.8
					c-1.7,0-2.6-0.8-3.2-1.7l0.9-0.7c0.5,0.8,1.1,1.3,2.3,1.3c1.4,0,2.1-0.7,2.1-1.8v-0.1c0-1.1-0.7-1.8-2.2-1.8h-1.2V85.4z
					 M261.2,91.2c-2.4,0-3.4-1.9-3.4-5.1s1-5.1,3.4-5.1c2.4,0,3.4,1.9,3.4,5.1S263.6,91.2,261.2,91.2z M261.2,90.1
					c1.6,0,2.2-1.3,2.2-3.2v-1.6c0-2-0.6-3.2-2.2-3.2c-1.6,0-2.2,1.3-2.2,3.2v1.6C259,88.9,259.6,90.1,261.2,90.1z M261.2,86.9
					c-0.6,0-0.9-0.3-0.9-0.7V86c0-0.4,0.2-0.7,0.9-0.7c0.6,0,0.9,0.3,0.9,0.7v0.3C262.1,86.6,261.8,86.9,261.2,86.9z"/>
				<circle id="Oval-2-Copy-37" class="st2" cx="107" cy="32" r="32"/>
				<circle id="Oval-2-Copy-39" class="st3" cx="32" cy="32" r="32"/>
				<circle id="Oval-2-Copy-42" class="st4" cx="257" cy="32" r="32"/>
				<circle id="Oval-2-Copy-46" class="st5" cx="182" cy="32" r="32"/>
				<polygon id="K-Copy-6" points="36.3,41 31.3,32.8 28.9,35.6 28.9,41 26.8,41 26.8,24.2 28.9,24.2 28.9,33 28.9,33 31.1,30.2 
					36.1,24.2 38.5,24.2 32.6,31.3 38.7,41 				"/>
				<polygon id="K-Copy-7" points="111.3,41 106.3,32.8 103.9,35.6 103.9,41 101.8,41 101.8,24.2 103.9,24.2 103.9,33 103.9,33 
					106.1,30.2 111.1,24.2 113.5,24.2 107.6,31.3 113.7,41 				"/>
				<polygon id="K-Copy-8" points="186.3,41 181.3,32.8 178.9,35.6 178.9,41 176.8,41 176.8,24.2 178.9,24.2 178.9,33 178.9,33 
					181.1,30.2 186.1,24.2 188.5,24.2 182.6,31.3 188.7,41 				"/>
				<polygon id="K-Copy-9" points="261.3,41 256.3,32.8 253.9,35.6 253.9,41 251.8,41 251.8,24.2 253.9,24.2 253.9,33 253.9,33 
					256.1,30.2 261.1,24.2 263.5,24.2 257.6,31.3 263.7,41 				"/>
				<path id="_x34_0-copy" class="st1" d="M30,211h-1.1v-1.9h-4.8v-1l4.2-6.8H30v6.9h1.5v1H30V211z M28.8,202.1l-3.7,6h3.8
					L28.8,202.1L28.8,202.1z M36.2,211.2c-2.4,0-3.4-1.9-3.4-5.1s1-5.1,3.4-5.1s3.4,1.9,3.4,5.1S38.6,211.2,36.2,211.2z M36.2,210.1
					c1.6,0,2.2-1.3,2.2-3.2v-1.6c0-2-0.6-3.2-2.2-3.2s-2.2,1.3-2.2,3.2v1.6C34,208.9,34.6,210.1,36.2,210.1z M36.2,206.9
					c-0.6,0-0.9-0.3-0.9-0.7V206c0-0.4,0.2-0.7,0.9-0.7s0.9,0.3,0.9,0.7v0.3C37.1,206.6,36.8,206.9,36.2,206.9z"/>
				<path id="_x35_0-copy" class="st1" d="M105.6,201.2v1h-4.4L101,206h0.1c0.5-0.7,1-1.1,2-1.1c1.7,0,3,1.1,3,3
					c0,1.9-1.2,3.2-3.3,3.2c-1.7,0-2.5-0.8-3.1-1.7l0.9-0.7c0.5,0.8,1.1,1.3,2.3,1.3c1.3,0,2.1-0.8,2.1-2.1V208
					c0-1.3-0.8-2.1-2.1-2.1c-0.9,0-1.4,0.4-1.8,0.8l-1-0.1l0.3-5.4H105.6z M111.2,211.2c-2.4,0-3.4-1.9-3.4-5.1s1-5.1,3.4-5.1
					c2.4,0,3.4,1.9,3.4,5.1S113.6,211.2,111.2,211.2z M111.2,210.1c1.6,0,2.2-1.3,2.2-3.2v-1.6c0-2-0.6-3.2-2.2-3.2
					c-1.6,0-2.2,1.3-2.2,3.2v1.6C109,208.9,109.6,210.1,111.2,210.1z M111.2,206.9c-0.6,0-0.9-0.3-0.9-0.7V206
					c0-0.4,0.2-0.7,0.9-0.7c0.6,0,0.9,0.3,0.9,0.7v0.3C112.1,206.6,111.8,206.9,111.2,206.9z"/>
				<path id="_x36_0-copy" class="st1" d="M177.8,211.2c-2.1,0-3.3-1.4-3.3-3.8c0-2.9,1.9-5.2,3.5-6.2h1.5c-2.1,1.5-3.3,2.8-3.9,5.1
					l0.1,0c0.5-0.8,1.2-1.4,2.4-1.4c1.7,0,2.9,1.2,2.9,3C181.1,209.9,179.8,211.2,177.8,211.2z M177.8,210.2c1.3,0,2.1-0.8,2.1-2.1
					V208c0-1.3-0.8-2.1-2.1-2.1s-2.1,0.8-2.1,2.1v0.1C175.7,209.4,176.5,210.2,177.8,210.2z M186.2,211.2c-2.4,0-3.4-1.9-3.4-5.1
					s1-5.1,3.4-5.1c2.4,0,3.4,1.9,3.4,5.1S188.6,211.2,186.2,211.2z M186.2,210.1c1.6,0,2.2-1.3,2.2-3.2v-1.6c0-2-0.6-3.2-2.2-3.2
					c-1.6,0-2.2,1.3-2.2,3.2v1.6C184,208.9,184.6,210.1,186.2,210.1z M186.2,206.9c-0.6,0-0.9-0.3-0.9-0.7V206
					c0-0.4,0.2-0.7,0.9-0.7s0.9,0.3,0.9,0.7v0.3C187.1,206.6,186.8,206.9,186.2,206.9z"/>
				<path id="_x37_0-copy" class="st1" d="M252.3,211H251l3.8-8.8h-4.3v1.8h-1.1v-2.8h6.5v1L252.3,211z M261.2,211.2
					c-2.4,0-3.4-1.9-3.4-5.1s1-5.1,3.4-5.1c2.4,0,3.4,1.9,3.4,5.1S263.6,211.2,261.2,211.2z M261.2,210.1c1.6,0,2.2-1.3,2.2-3.2
					v-1.6c0-2-0.6-3.2-2.2-3.2c-1.6,0-2.2,1.3-2.2,3.2v1.6C259,208.9,259.6,210.1,261.2,210.1z M261.2,206.9c-0.6,0-0.9-0.3-0.9-0.7
					V206c0-0.4,0.2-0.7,0.9-0.7c0.6,0,0.9,0.3,0.9,0.7v0.3C262.1,206.6,261.8,206.9,261.2,206.9z"/>
				<circle id="Oval-2-Copy-35" class="st6" cx="257" cy="152" r="32"/>
				<circle id="Oval-2-Copy-44" class="st7" cx="107" cy="152" r="32"/>
				<circle id="Oval-2-Copy-48" class="st8" cx="32" cy="152" r="32"/>
				<circle id="Oval-2-Copy-50" class="st9" cx="182" cy="152" r="32"/>
				<polygon id="K-Copy-10" points="36.3,161 31.3,152.8 28.9,155.6 28.9,161 26.8,161 26.8,144.2 28.9,144.2 28.9,153 28.9,153 
					31.1,150.2 36.1,144.2 38.5,144.2 32.6,151.3 38.7,161 				"/>
				<polygon id="K-Copy-11" points="113.3,161 108.3,152.8 105.9,155.6 105.9,161 103.8,161 103.8,144.2 105.9,144.2 105.9,153 
					105.9,153 108.1,150.2 113.1,144.2 115.5,144.2 109.6,151.3 115.7,161 				"/>
				<polygon id="W-Copy-7" class="st3" points="179.9,161 177,161 175.6,144.2 177.4,144.2 178.1,153.8 178.5,158.9 178.7,158.9 
					180.9,148.6 183.2,148.6 185.4,158.9 185.6,158.9 185.9,153.8 186.6,144.2 188.4,144.2 187,161 184.1,161 182.1,151 181.9,151 
									"/>
				<polygon id="W-Copy-8" class="st3" points="254.9,161 252,161 250.6,144.2 252.4,144.2 253.1,153.8 253.5,158.9 253.7,158.9 
					255.9,148.6 258.2,148.6 260.4,158.9 260.6,158.9 260.9,153.8 261.6,144.2 263.4,144.2 262,161 259.1,161 257.1,151 256.9,151 
									"/>
				<path id="_x38_0-copy" class="st1" d="M27.8,331.2c-2.3,0-3.4-1.2-3.4-2.8c0-1.3,0.8-2.1,2-2.4v-0.1c-1-0.4-1.7-1.2-1.7-2.3
					c0-1.5,1.2-2.5,3.1-2.5s3.1,1,3.1,2.5c0,1.1-0.7,1.9-1.7,2.3v0.1c1.2,0.3,2,1.1,2,2.4C31.2,330,30.1,331.2,27.8,331.2z
					 M27.8,330.2c1.4,0,2.2-0.7,2.2-1.8v-0.3c0-1.1-0.8-1.8-2.2-1.8c-1.4,0-2.2,0.6-2.2,1.8v0.3C25.6,329.5,26.4,330.2,27.8,330.2z
					 M27.8,325.4c1.3,0,1.9-0.6,1.9-1.6v-0.2c0-1-0.7-1.6-1.9-1.6c-1.2,0-1.9,0.6-1.9,1.6v0.2C25.9,324.8,26.5,325.4,27.8,325.4z
					 M36.2,331.2c-2.4,0-3.4-1.9-3.4-5.1c0-3.2,1-5.1,3.4-5.1s3.4,1.9,3.4,5.1C39.6,329.3,38.6,331.2,36.2,331.2z M36.2,330.1
					c1.6,0,2.2-1.3,2.2-3.2v-1.6c0-2-0.6-3.2-2.2-3.2s-2.2,1.3-2.2,3.2v1.6C34,328.9,34.6,330.1,36.2,330.1z M36.2,326.9
					c-0.6,0-0.9-0.3-0.9-0.7V326c0-0.4,0.2-0.7,0.9-0.7s0.9,0.3,0.9,0.7v0.3C37.1,326.6,36.8,326.9,36.2,326.9z"/>
				<path id="_x39_0-copy" class="st1" d="M106.1,324.8c0,2.9-1.9,5.2-3.5,6.2h-1.5c2.1-1.5,3.3-2.8,3.8-5.1l-0.1,0
					c-0.5,0.8-1.2,1.4-2.4,1.4c-1.7,0-2.9-1.2-2.9-3c0-1.9,1.3-3.2,3.3-3.2C104.8,321.1,106.1,322.5,106.1,324.8z M102.8,326.3
					c1.3,0,2.1-0.8,2.1-2.1v-0.1c0-1.3-0.8-2.1-2.1-2.1c-1.3,0-2.1,0.8-2.1,2.1v0.1C100.7,325.6,101.5,326.3,102.8,326.3z
					 M111.2,331.2c-2.4,0-3.4-1.9-3.4-5.1c0-3.2,1-5.1,3.4-5.1c2.4,0,3.4,1.9,3.4,5.1C114.6,329.3,113.6,331.2,111.2,331.2z
					 M111.2,330.1c1.6,0,2.2-1.3,2.2-3.2v-1.6c0-2-0.6-3.2-2.2-3.2c-1.6,0-2.2,1.3-2.2,3.2v1.6C109,328.9,109.6,330.1,111.2,330.1z
					 M111.2,326.9c-0.6,0-0.9-0.3-0.9-0.7V326c0-0.4,0.2-0.7,0.9-0.7c0.6,0,0.9,0.3,0.9,0.7v0.3
					C112.1,326.6,111.8,326.9,111.2,326.9z"/>
				<path id="_x31_00-copy" class="st1" d="M177.1,331h-6.6v-1h2.8v-7.9h-0.1l-2.5,2.3l-0.7-0.7l2.6-2.4h1.8v8.8h2.6V331z
					 M182,331.2c-2.4,0-3.4-1.9-3.4-5.1c0-3.2,1-5.1,3.4-5.1s3.4,1.9,3.4,5.1C185.4,329.3,184.4,331.2,182,331.2z M182,330.1
					c1.6,0,2.2-1.3,2.2-3.2v-1.6c0-2-0.6-3.2-2.2-3.2s-2.2,1.3-2.2,3.2v1.6C179.8,328.9,180.4,330.1,182,330.1z M182,326.9
					c-0.6,0-0.9-0.3-0.9-0.7V326c0-0.4,0.2-0.7,0.9-0.7s0.9,0.3,0.9,0.7v0.3C182.9,326.6,182.6,326.9,182,326.9z M190.4,331.2
					c-2.4,0-3.4-1.9-3.4-5.1c0-3.2,1-5.1,3.4-5.1c2.4,0,3.4,1.9,3.4,5.1C193.8,329.3,192.8,331.2,190.4,331.2z M190.4,330.1
					c1.6,0,2.2-1.3,2.2-3.2v-1.6c0-2-0.6-3.2-2.2-3.2c-1.6,0-2.2,1.3-2.2,3.2v1.6C188.2,328.9,188.8,330.1,190.4,330.1z
					 M190.4,326.9c-0.6,0-0.9-0.3-0.9-0.7V326c0-0.4,0.2-0.7,0.9-0.7c0.6,0,0.9,0.3,0.9,0.7v0.3C191.3,326.6,191,326.9,190.4,326.9z
					"/>
				<polygon id="K-Copy-5" class="st1" points="259.5,331 256.6,326.2 255.2,327.9 255.2,331 254,331 254,321.2 255.2,321.2 
					255.2,326.3 255.2,326.3 256.5,324.7 259.4,321.2 260.8,321.2 257.4,325.3 260.9,331 				"/>
				<circle id="Oval-2-Copy-52" class="st10" cx="107" cy="272" r="32"/>
				<circle id="Oval-2-Copy-54" class="st11" cx="32" cy="272" r="32"/>
				<circle id="Oval-2-Copy-56" class="st12" cx="182" cy="272" r="32"/>
				<circle id="Oval-2-Copy-57" cx="257" cy="272" r="32"/>
				<polygon id="W-Copy-9" class="st3" points="29.9,281 27,281 25.6,264.2 27.4,264.2 28.1,273.8 28.5,278.9 28.7,278.9 
					30.9,268.6 33.2,268.6 35.4,278.9 35.6,278.9 35.9,273.8 36.6,264.2 38.4,264.2 37,281 34.1,281 32.1,271 31.9,271 				"/>
				<polygon id="W-Copy-10" class="st3" points="104.9,281 102,281 100.6,264.2 102.4,264.2 103.1,273.8 103.5,278.9 103.7,278.9 
					105.9,268.6 108.2,268.6 110.4,278.9 110.6,278.9 110.9,273.8 111.6,264.2 113.4,264.2 112,281 109.1,281 107.1,271 106.9,271 
									"/>
				<polygon id="W-Copy-11" class="st3" points="179.9,281 177,281 175.6,264.2 177.4,264.2 178.1,273.8 178.5,278.9 178.7,278.9 
					180.9,268.6 183.2,268.6 185.4,278.9 185.6,278.9 185.9,273.8 186.6,264.2 188.4,264.2 187,281 184.1,281 182.1,271 181.9,271 
									"/>
				<polygon id="W-Copy-12" class="st3" points="254.9,281 252,281 250.6,264.2 252.4,264.2 253.1,273.8 253.5,278.9 253.7,278.9 
					255.9,268.6 258.2,268.6 260.4,278.9 260.6,278.9 260.9,273.8 261.6,264.2 263.4,264.2 262,281 259.1,281 257.1,271 256.9,271 
									"/>
			</g>
		</g>
	</g>
</g>
</svg>
