<?xml version="1.0" encoding="utf-8"?>
<!-- Generator: Adobe Illustrator 23.0.4, SVG Export Plug-In . SVG Version: 6.00 Build 0)  -->
<svg version="1.1" id="Layer_1" xmlns="http://www.w3.org/2000/svg" xmlns:xlink="http://www.w3.org/1999/xlink" x="0px" y="0px"
	 viewBox="0 0 32 32" enable-background="new 0 0 32 32" xml:space="preserve">
<g>
	<path fill-rule="evenodd" clip-rule="evenodd" fill="#FDB300" d="M8.1,4.1L16,3.3l7.9,0.8l6.1,8.2L16,28.7L2,12.4L8.1,4.1z"/>
	<g transform="translate(59.000000, 211.881084)">
		<polygon fill-rule="evenodd" clip-rule="evenodd" fill="#EA6C00" points="-51.3,-199.9 -43,-183.6 -57,-199.9 		"/>
		<polygon fill-rule="evenodd" clip-rule="evenodd" fill="#EA6C00" points="-34.7,-199.9 -43,-183.6 -29,-199.9 		"/>
		<polygon fill-rule="evenodd" clip-rule="evenodd" fill="#FDAD00" points="-51.3,-199.9 -34.7,-199.9 -43,-183.6 		"/>
	</g>
	<g transform="translate(59.000000, 85.000000)">
		<polygon fill-rule="evenodd" clip-rule="evenodd" fill="#FDD231" points="-43,-81.7 -50.9,-80.9 -51.3,-72.6 		"/>
		<polygon fill-rule="evenodd" clip-rule="evenodd" fill="#FDD231" points="-43,-81.7 -35.1,-80.9 -34.7,-72.6 		"/>
		<polygon fill-rule="evenodd" clip-rule="evenodd" fill="#FDAD00" points="-29,-73 -35.1,-81.2 -34.7,-73 		"/>
		<polygon fill-rule="evenodd" clip-rule="evenodd" fill="#FDAD00" points="-57,-73 -50.9,-81.2 -51.3,-73 		"/>
		<polygon fill-rule="evenodd" clip-rule="evenodd" fill="#FEEEB7" points="-43,-82 -51.3,-73 -34.7,-73 		"/>
	</g>
</g>
<rect fill-rule="evenodd" clip-rule="evenodd" fill="none" width="32" height="32"/>
</svg>
