<svg id="Layer_1" xmlns="http://www.w3.org/2000/svg" viewBox="0 0 289 444">
  <style>
    .st1{fill:#252525}.st2{fill:#0062ff}.st4{fill:#f3f3f3;stroke:#ee538b;stroke-width:2;stroke-linecap:square;stroke-dasharray:2,7}.st5{fill:#fff}.st8{fill:#24a249}.st9{fill:#ee538b}
  </style>
  <path fill="#f3f3f3" d="M0 0h289v443.8H0z"/>
  <g id="Page-1">
    <g id="Typography_Mobile_320px-Copy" transform="translate(-15 -531)">
      <g id="Group-2" transform="translate(15 531)">
        <path id="Accessible" class="st1" d="M35.7 116h-1.2l-1-2.9h-3.9l-1 2.9h-1.2l3.4-9.8h1.5l3.4 9.8zm-2.6-3.9l-1.7-4.8h-.1l-1.7 4.8h3.5zm6.8 4.1c-2 0-3.2-1.5-3.2-3.8s1.2-3.8 3.2-3.8c1.4 0 2.3.7 2.7 1.7l-.9.5c-.3-.7-.9-1.2-1.8-1.2-1.3 0-2 .9-2 2.2v1.2c0 1.3.7 2.2 2 2.2.9 0 1.6-.4 2-1.3l.8.5c-.5 1.1-1.5 1.8-2.8 1.8zm7 0c-2 0-3.2-1.5-3.2-3.8s1.2-3.8 3.2-3.8c1.4 0 2.3.7 2.7 1.7l-.9.5c-.3-.7-.9-1.2-1.8-1.2-1.3 0-2 .9-2 2.2v1.2c0 1.3.7 2.2 2 2.2.9 0 1.6-.4 2-1.3l.8.5c-.5 1.1-1.4 1.8-2.8 1.8zm7.1 0c-2 0-3.2-1.5-3.2-3.8s1.3-3.8 3.2-3.8c1.9 0 3.1 1.5 3.1 3.5v.5h-5.2v.3c0 1.2.8 2.2 2.1 2.2.9 0 1.6-.4 2-1.2l.8.6c-.4 1-1.5 1.7-2.8 1.7zm0-6.7c-1.2 0-2.1.9-2.1 2.2v.1h4v-.2c0-1.2-.8-2.1-1.9-2.1zm7.1 6.7c-1.3 0-2.2-.6-2.9-1.4l.8-.6c.6.7 1.2 1.1 2.1 1.1 1 0 1.5-.4 1.5-1.2 0-.6-.3-1-1.3-1.1l-.6-.1c-1.3-.2-2.3-.7-2.3-2.1 0-1.4 1.1-2.1 2.6-2.1 1.2 0 1.9.4 2.5 1.2l-.7.7c-.3-.4-.9-.9-1.9-.9s-1.4.4-1.4 1.1c0 .7.5 1 1.4 1.1l.6.1c1.6.2 2.2.9 2.2 2 .1 1.3-.9 2.2-2.6 2.2zm6.8 0c-1.3 0-2.2-.6-2.9-1.4l.8-.6c.6.7 1.2 1.1 2.1 1.1 1 0 1.5-.4 1.5-1.2 0-.6-.3-1-1.3-1.1l-.6-.1c-1.3-.2-2.3-.7-2.3-2.1 0-1.4 1.1-2.1 2.6-2.1 1.2 0 1.9.4 2.5 1.2l-.7.7c-.3-.4-.9-.9-1.9-.9-.9 0-1.4.4-1.4 1.1 0 .7.5 1 1.4 1.1l.6.1c1.6.2 2.2.9 2.2 2 .1 1.3-.9 2.2-2.6 2.2zm5.2-9.1c-.5 0-.7-.3-.7-.6v-.2c0-.4.2-.6.7-.6.5 0 .7.3.7.6v.2c0 .3-.2.6-.7.6zm-.5 8.9v-7.2h1.1v7.2h-1.1zm3.5 0v-10.4h1.1v4.3h.1c.4-.9 1.1-1.3 2.1-1.3 1.8 0 2.9 1.5 2.9 3.8s-1.1 3.8-2.9 3.8c-1 0-1.7-.4-2.1-1.3h-.1v1.2h-1.1zm3-.8c1.3 0 2-.9 2-2.2v-1.2c0-1.3-.8-2.2-2-2.2-1 0-1.9.6-1.9 1.4v2.7c0 .9.8 1.5 1.9 1.5zm7.3.8h-1c-.8 0-1.2-.5-1.2-1.2v-9.2h1.1v9.4h1.1v1zm4.3.2c-2 0-3.2-1.5-3.2-3.8s1.3-3.8 3.2-3.8c1.9 0 3.1 1.5 3.1 3.5v.5h-5.2v.3c0 1.2.8 2.2 2.1 2.2.9 0 1.6-.4 2-1.2l.8.6c-.4 1-1.4 1.7-2.8 1.7zm0-6.7c-1.2 0-2.1.9-2.1 2.2v.1h4v-.2c0-1.2-.7-2.1-1.9-2.1z"/>
        <path id="Not-Accessible-Copy" class="st1" d="M194.2 116l-3.6-6-1.2-2.2v8.1h-1.1v-9.8h1.4l3.6 6 1.2 2.2v-8.1h1.1v9.8h-1.4zm6.6.2c-1.9 0-3.3-1.5-3.3-3.8s1.3-3.8 3.3-3.8c1.9 0 3.3 1.5 3.3 3.8s-1.3 3.8-3.3 3.8zm0-1c1.2 0 2.1-.7 2.1-2.3v-1c0-1.5-.9-2.3-2.1-2.3-1.2 0-2.1.7-2.1 2.3v1c.1 1.5.9 2.3 2.1 2.3zm8.1.8h-1.4c-.8 0-1.2-.5-1.2-1.2v-5.1h-1.2v-1h.7c.5 0 .6-.2.6-.7v-1.3h1v2h1.6v1h-1.6v5.3h1.5v1zm12.7 0h-1.2l-1-2.9h-3.9l-1 2.9h-1.2l3.4-9.8h1.5l3.4 9.8zm-2.5-3.9l-1.7-4.8h-.1l-1.7 4.8h3.5zm6.7 4.1c-2 0-3.2-1.5-3.2-3.8s1.2-3.8 3.2-3.8c1.4 0 2.3.7 2.7 1.7l-.9.5c-.3-.7-.9-1.2-1.8-1.2-1.3 0-2 .9-2 2.2v1.2c0 1.3.7 2.2 2 2.2.9 0 1.6-.4 2-1.3l.8.5c-.5 1.1-1.4 1.8-2.8 1.8zm7.1 0c-2 0-3.2-1.5-3.2-3.8s1.2-3.8 3.2-3.8c1.4 0 2.3.7 2.7 1.7l-.9.5c-.3-.7-.9-1.2-1.8-1.2-1.3 0-2 .9-2 2.2v1.2c0 1.3.7 2.2 2 2.2.9 0 1.6-.4 2-1.3l.8.5c-.5 1.1-1.5 1.8-2.8 1.8zm7 0c-2 0-3.2-1.5-3.2-3.8s1.3-3.8 3.2-3.8c1.9 0 3.1 1.5 3.1 3.5v.5h-5.2v.3c0 1.2.8 2.2 2.1 2.2.9 0 1.6-.4 2-1.2l.8.6c-.4 1-1.4 1.7-2.8 1.7zm0-6.7c-1.2 0-2.1.9-2.1 2.2v.1h4v-.2c0-1.2-.7-2.1-1.9-2.1zm7.2 6.7c-1.3 0-2.2-.6-2.9-1.4l.8-.6c.6.7 1.2 1.1 2.1 1.1 1 0 1.5-.4 1.5-1.2 0-.6-.3-1-1.3-1.1l-.6-.1c-1.3-.2-2.3-.7-2.3-2.1 0-1.4 1.1-2.1 2.6-2.1 1.2 0 1.9.4 2.5 1.2l-.7.7c-.3-.4-.9-.9-1.9-.9-.9 0-1.4.4-1.4 1.1 0 .7.5 1 1.4 1.1l.6.1c1.6.2 2.2.9 2.2 2 0 1.3-1 2.2-2.6 2.2zm6.8 0c-1.3 0-2.2-.6-2.9-1.4l.8-.6c.6.7 1.2 1.1 2.1 1.1 1 0 1.5-.4 1.5-1.2 0-.6-.3-1-1.3-1.1l-.6-.1c-1.3-.2-2.3-.7-2.3-2.1 0-1.4 1.1-2.1 2.6-2.1 1.2 0 1.9.4 2.5 1.2l-.7.7c-.3-.4-.9-.9-1.9-.9s-1.4.4-1.4 1.1c0 .7.5 1 1.4 1.1l.6.1c1.6.2 2.2.9 2.2 2 .1 1.3-1 2.2-2.6 2.2zm5.2-9.1c-.5 0-.7-.3-.7-.6v-.2c0-.4.2-.6.7-.6s.7.3.7.6v.2c0 .3-.2.6-.7.6zm-.6 8.9v-7.2h1.1v7.2h-1.1zm3.5 0v-10.4h1.1v4.3h.1c.4-.9 1.1-1.3 2.1-1.3 1.8 0 2.9 1.5 2.9 3.8s-1.1 3.8-2.9 3.8c-1 0-1.7-.4-2.1-1.3h-.1v1.2H262zm3-.8c1.3 0 2-.9 2-2.2v-1.2c0-1.3-.8-2.2-2-2.2-1 0-1.9.6-1.9 1.4v2.7c0 .9.9 1.5 1.9 1.5zm7.3.8h-1c-.8 0-1.2-.5-1.2-1.2v-9.2h1.1v9.4h1.1v1zm4.4.2c-2 0-3.2-1.5-3.2-3.8s1.3-3.8 3.2-3.8c1.9 0 3.1 1.5 3.1 3.5v.5h-5.2v.3c0 1.2.8 2.2 2.1 2.2.9 0 1.6-.4 2-1.2l.8.6c-.4 1-1.5 1.7-2.8 1.7zm0-6.7c-1.2 0-2.1.9-2.1 2.2v.1h4v-.2c0-1.2-.8-2.1-1.9-2.1z"/>
        <path id="Not-Accessible-Copy-2" class="st1" d="M35.2 278l-3.6-6-1.2-2.2v8.1h-1.1v-9.8h1.4l3.6 6 1.2 2.2v-8.1h1.1v9.8h-1.4zm6.6.2c-1.9 0-3.3-1.5-3.3-3.8s1.3-3.8 3.3-3.8 3.3 1.5 3.3 3.8-1.3 3.8-3.3 3.8zm0-1c1.2 0 2.1-.7 2.1-2.3v-1c0-1.5-.9-2.3-2.1-2.3-1.2 0-2.1.7-2.1 2.3v1c.1 1.5.9 2.3 2.1 2.3zm8.1.8h-1.4c-.8 0-1.2-.5-1.2-1.2v-5.1h-1.2v-1h.7c.5 0 .6-.2.6-.7v-1.3h1v2H50v1h-1.6v5.3h1.5v1zm12.7 0h-1.2l-1-2.9h-3.9l-1 2.9h-1.2l3.4-9.8h1.5l3.4 9.8zm-2.5-3.9l-1.7-4.8h-.1l-1.7 4.8h3.5zm6.7 4.1c-2 0-3.2-1.5-3.2-3.8s1.2-3.8 3.2-3.8c1.4 0 2.3.7 2.7 1.7l-.9.5c-.3-.7-.9-1.2-1.8-1.2-1.3 0-2 .9-2 2.2v1.2c0 1.3.7 2.2 2 2.2.9 0 1.6-.4 2-1.3l.8.5c-.5 1.1-1.4 1.8-2.8 1.8zm7 0c-2 0-3.2-1.5-3.2-3.8s1.2-3.8 3.2-3.8c1.4 0 2.3.7 2.7 1.7l-.9.5c-.3-.7-.9-1.2-1.8-1.2-1.3 0-2 .9-2 2.2v1.2c0 1.3.7 2.2 2 2.2.9 0 1.6-.4 2-1.3l.8.5c-.4 1.1-1.4 1.8-2.8 1.8zm7.1 0c-2 0-3.2-1.5-3.2-3.8s1.3-3.8 3.2-3.8c1.9 0 3.1 1.5 3.1 3.5v.5h-5.2v.3c0 1.2.8 2.2 2.1 2.2.9 0 1.6-.4 2-1.2l.8.6c-.4 1-1.4 1.7-2.8 1.7zm0-6.7c-1.2 0-2.1.9-2.1 2.2v.1h4v-.2c0-1.2-.7-2.1-1.9-2.1zm7.2 6.7c-1.3 0-2.2-.6-2.9-1.4l.8-.6c.6.7 1.2 1.1 2.1 1.1 1 0 1.5-.4 1.5-1.2 0-.6-.3-1-1.3-1.1l-.6-.1c-1.3-.2-2.3-.7-2.3-2.1 0-1.4 1.1-2.1 2.6-2.1 1.2 0 1.9.4 2.5 1.2l-.7.7c-.3-.4-.9-.9-1.9-.9-.9 0-1.4.4-1.4 1.1 0 .7.5 1 1.4 1.1l.6.1c1.6.2 2.2.9 2.2 2 0 1.3-1 2.2-2.6 2.2zm6.8 0c-1.3 0-2.2-.6-2.9-1.4l.8-.6c.6.7 1.2 1.1 2.1 1.1 1 0 1.5-.4 1.5-1.2 0-.6-.3-1-1.3-1.1l-.6-.1c-1.3-.2-2.3-.7-2.3-2.1 0-1.4 1.1-2.1 2.6-2.1 1.2 0 1.9.4 2.5 1.2l-.7.7c-.3-.4-.9-.9-1.9-.9-.9 0-1.4.4-1.4 1.1 0 .7.5 1 1.4 1.1l.6.1c1.6.2 2.2.9 2.2 2 .1 1.3-1 2.2-2.6 2.2zm5.2-9.1c-.5 0-.7-.3-.7-.6v-.2c0-.4.2-.6.7-.6s.7.3.7.6v.2c0 .3-.2.6-.7.6zm-.6 8.9v-7.2h1.1v7.2h-1.1zm3.5 0v-10.4h1.1v4.3h.1c.4-.9 1.1-1.3 2.1-1.3 1.8 0 2.9 1.5 2.9 3.8s-1.1 3.8-2.9 3.8c-1 0-1.7-.4-2.1-1.3h-.1v1.2H103zm3-.8c1.3 0 2-.9 2-2.2v-1.2c0-1.3-.8-2.2-2-2.2-1 0-1.9.6-1.9 1.4v2.7c0 .9.9 1.5 1.9 1.5zm7.3.8h-1c-.8 0-1.2-.5-1.2-1.2v-9.2h1.1v9.4h1.1v1zm4.4.2c-2 0-3.2-1.5-3.2-3.8s1.3-3.8 3.2-3.8c1.9 0 3.1 1.5 3.1 3.5v.5h-5.2v.3c0 1.2.8 2.2 2.1 2.2.9 0 1.6-.4 2-1.2l.8.6c-.4 1-1.5 1.7-2.8 1.7zm0-6.7c-1.2 0-2.1.9-2.1 2.2v.1h4v-.2c0-1.2-.8-2.1-1.9-2.1z"/>
        <path id="Not-Accessible-Copy-3" class="st1" d="M35.2 440l-3.6-6-1.2-2.2v8.1h-1.1v-9.8h1.4l3.6 6 1.2 2.2v-8.1h1.1v9.8h-1.4zm6.6.2c-1.9 0-3.3-1.5-3.3-3.8s1.3-3.8 3.3-3.8 3.3 1.5 3.3 3.8-1.3 3.8-3.3 3.8zm0-1c1.2 0 2.1-.7 2.1-2.3v-1c0-1.5-.9-2.3-2.1-2.3-1.2 0-2.1.7-2.1 2.3v1c.1 1.5.9 2.3 2.1 2.3zm8.1.8h-1.4c-.8 0-1.2-.5-1.2-1.2v-5.1h-1.2v-1h.7c.5 0 .6-.2.6-.7v-1.3h1v2H50v1h-1.6v5.3h1.5v1zm12.7 0h-1.2l-1-2.9h-3.9l-1 2.9h-1.2l3.4-9.8h1.5l3.4 9.8zm-2.5-3.9l-1.7-4.8h-.1l-1.7 4.8h3.5zm6.7 4.1c-2 0-3.2-1.5-3.2-3.8s1.2-3.8 3.2-3.8c1.4 0 2.3.7 2.7 1.7l-.9.5c-.3-.7-.9-1.2-1.8-1.2-1.3 0-2 .9-2 2.2v1.2c0 1.3.7 2.2 2 2.2.9 0 1.6-.4 2-1.3l.8.5c-.5 1.1-1.4 1.8-2.8 1.8zm7 0c-2 0-3.2-1.5-3.2-3.8s1.2-3.8 3.2-3.8c1.4 0 2.3.7 2.7 1.7l-.9.5c-.3-.7-.9-1.2-1.8-1.2-1.3 0-2 .9-2 2.2v1.2c0 1.3.7 2.2 2 2.2.9 0 1.6-.4 2-1.3l.8.5c-.4 1.1-1.4 1.8-2.8 1.8zm7.1 0c-2 0-3.2-1.5-3.2-3.8s1.3-3.8 3.2-3.8c1.9 0 3.1 1.5 3.1 3.5v.5h-5.2v.3c0 1.2.8 2.2 2.1 2.2.9 0 1.6-.4 2-1.2l.8.6c-.4 1-1.4 1.7-2.8 1.7zm0-6.7c-1.2 0-2.1.9-2.1 2.2v.1h4v-.2c0-1.2-.7-2.1-1.9-2.1zm7.2 6.7c-1.3 0-2.2-.6-2.9-1.4l.8-.6c.6.7 1.2 1.1 2.1 1.1 1 0 1.5-.4 1.5-1.2 0-.6-.3-1-1.3-1.1l-.6-.1c-1.3-.2-2.3-.7-2.3-2.1 0-1.4 1.1-2.1 2.6-2.1 1.2 0 1.9.4 2.5 1.2l-.7.7c-.3-.4-.9-.9-1.9-.9-.9 0-1.4.4-1.4 1.1 0 .7.5 1 1.4 1.1l.6.1c1.6.2 2.2.9 2.2 2 0 1.3-1 2.2-2.6 2.2zm6.8 0c-1.3 0-2.2-.6-2.9-1.4l.8-.6c.6.7 1.2 1.1 2.1 1.1 1 0 1.5-.4 1.5-1.2 0-.6-.3-1-1.3-1.1l-.6-.1c-1.3-.2-2.3-.7-2.3-2.1 0-1.4 1.1-2.1 2.6-2.1 1.2 0 1.9.4 2.5 1.2l-.7.7c-.3-.4-.9-.9-1.9-.9-.9 0-1.4.4-1.4 1.1 0 .7.5 1 1.4 1.1l.6.1c1.6.2 2.2.9 2.2 2 .1 1.3-1 2.2-2.6 2.2zm5.2-9.1c-.5 0-.7-.3-.7-.6v-.2c0-.4.2-.6.7-.6s.7.3.7.6v.2c0 .3-.2.6-.7.6zm-.6 8.9v-7.2h1.1v7.2h-1.1zm3.5 0v-10.4h1.1v4.3h.1c.4-.9 1.1-1.3 2.1-1.3 1.8 0 2.9 1.5 2.9 3.8s-1.1 3.8-2.9 3.8c-1 0-1.7-.4-2.1-1.3h-.1v1.2H103zm3-.8c1.3 0 2-.9 2-2.2v-1.2c0-1.3-.8-2.2-2-2.2-1 0-1.9.6-1.9 1.4v2.7c0 .9.9 1.5 1.9 1.5zm7.3.8h-1c-.8 0-1.2-.5-1.2-1.2v-9.2h1.1v9.4h1.1v1zm4.4.2c-2 0-3.2-1.5-3.2-3.8s1.3-3.8 3.2-3.8c1.9 0 3.1 1.5 3.1 3.5v.5h-5.2v.3c0 1.2.8 2.2 2.1 2.2.9 0 1.6-.4 2-1.2l.8.6c-.4 1-1.5 1.7-2.8 1.7zm0-6.7c-1.2 0-2.1.9-2.1 2.2v.1h4v-.2c0-1.2-.8-2.1-1.9-2.1z"/>
        <circle id="Oval-2-Copy-47" class="st2" cx="257" cy="32" r="32"/>
        <path id="_x33_0-copy-2" d="M247.2 31.4h1.8c2.3 0 3.5-1.2 3.5-2.8v-.2c0-1.8-1.2-2.7-3.1-2.7-1.8 0-2.8.9-3.5 2.1l-1.5-1.2c.9-1.3 2.4-2.7 5.1-2.7 2.9 0 5.1 1.5 5.1 4.2 0 2.2-1.4 3.5-3.3 3.9v.1c1.8.4 3.6 1.7 3.6 4.2 0 2.9-2.3 4.9-5.8 4.9-3 0-4.5-1.4-5.5-2.9l1.5-1.2c.9 1.3 1.9 2.3 4 2.3 2.4 0 3.7-1.2 3.7-3.1v-.2c0-2-1.2-3.1-3.7-3.1h-2v-1.6zm17 9.9c-4.1 0-5.9-3.2-5.9-8.7s1.8-8.7 5.9-8.7c4.1 0 5.9 3.2 5.9 8.7s-1.8 8.7-5.9 8.7zm0-1.8c2.7 0 3.8-2.2 3.8-5.5v-2.7c0-3.4-1.1-5.5-3.8-5.5-2.7 0-3.8 2.2-3.8 5.5V34c0 3.4 1.1 5.5 3.8 5.5zm0-5.5c-1.1 0-1.5-.5-1.5-1.2v-.5c0-.6.4-1.2 1.5-1.2s1.5.5 1.5 1.2v.5c0 .7-.4 1.2-1.5 1.2z" fill="#97c1ff"/>
        <path id="Line-2-Copy-3" class="st4" d="M165 88h124"/>
        <path id="Line-2-Copy-4" class="st4" d="M6 250h282"/>
        <path id="Line-2-Copy-5" class="st4" d="M6 412h282"/>
        <circle id="Oval-2-Copy-38" class="st2" cx="182" cy="32" r="32"/>
        <circle id="Oval-2-Copy-40" class="st2" cx="32" cy="32" r="32"/>
        <circle id="Oval-2-Copy-41" class="st2" cx="109" cy="32" r="32"/>
        <path id="W-Copy-6" class="st5" d="M29.9 41H27l-1.4-16.8h1.8l.7 9.6.4 5.1h.2l2.2-10.3h2.3l2.2 10.3h.2l.3-5.1.7-9.6h1.8L37 41h-2.9l-2-10h-.2z"/>
        <path id="_x31_0-copy-2" d="M107.9 41H96.6v-1.8h4.8V25.7h-.2l-4.2 4-1.2-1.3 4.4-4.2h3.1v15h4.4V41zm8.3.3c-4.1 0-5.9-3.2-5.9-8.7s1.8-8.7 5.9-8.7c4.1 0 5.9 3.2 5.9 8.7s-1.8 8.7-5.9 8.7zm0-1.8c2.7 0 3.8-2.2 3.8-5.5v-2.7c0-3.4-1.1-5.5-3.8-5.5-2.7 0-3.8 2.2-3.8 5.5V34c0 3.4 1.1 5.5 3.8 5.5zm0-5.5c-1.1 0-1.5-.5-1.5-1.2v-.5c0-.6.4-1.2 1.5-1.2s1.5.5 1.5 1.2v.5c0 .7-.4 1.2-1.5 1.2z" fill="#edf4ff"/>
        <path id="_x32_0-copy-2" d="M180.5 39.2V41h-11.2v-2.1l5.6-5c1.6-1.5 2.8-3 2.8-4.7v-.3c0-2-1.1-3.2-3.1-3.2s-3.1 1.1-3.6 2.9l-1.8-.7c.6-2 2.2-3.9 5.4-3.9 3.3 0 5.2 2 5.2 4.8 0 2.5-1.5 4.4-3.7 6.4l-4.7 4.1h9.1zm8.7 2.1c-4.1 0-5.9-3.2-5.9-8.7s1.8-8.7 5.9-8.7 5.9 3.2 5.9 8.7-1.8 8.7-5.9 8.7zm0-1.8c2.7 0 3.8-2.2 3.8-5.5v-2.7c0-3.4-1.1-5.5-3.8-5.5s-3.8 2.2-3.8 5.5V34c0 3.4 1.1 5.5 3.8 5.5zm0-5.5c-1.1 0-1.5-.5-1.5-1.2v-.5c0-.6.4-1.2 1.5-1.2s1.5.5 1.5 1.2v.5c0 .7-.4 1.2-1.5 1.2z" fill="#c9deff"/>
        <path id="Line-2-Copy" class="st8" d="M1.5 81.5v13h2v-14h-2v1zm157.2 12v-13h-2v14h2v-1zm-156.2-5h156.2v-2H1.5v2h1z"/>
        <path id="Shape" class="st8" d="M10 102.2c-4.8 0-8.8 3.9-8.8 8.8s3.9 8.8 8.8 8.8 8.8-3.9 8.8-8.8-4-8.8-8.8-8.8z"/>
        <path id="Shape_1_" class="st5" d="M14.4 108.8l-.9-.9-4.7 4.7-2.3-2.2-.9.8 3.2 3.2z"/>
        <path id="Shape_2_" class="st9" d="M170 102.2c-4.8 0-8.8 3.9-8.8 8.8s3.9 8.8 8.8 8.8 8.8-3.9 8.8-8.8c0-2.3-.9-4.5-2.6-6.2-1.7-1.6-3.9-2.6-6.2-2.6z"/>
        <path id="Shape_3_" class="st5" d="M174.4 107.5l-.9-.9-3.5 3.5-3.5-3.5-.9.9 3.5 3.5-3.5 3.5.9.9 3.5-3.5 3.5 3.5.9-.9-3.5-3.5z"/>
        <path id="Shape_4_" class="st9" d="M11 264.2c-4.8 0-8.8 3.9-8.8 8.8s3.9 8.8 8.8 8.8 8.8-3.9 8.8-8.8c0-2.3-.9-4.5-2.6-6.2-1.7-1.6-3.9-2.6-6.2-2.6z"/>
        <path id="Shape_5_" class="st5" d="M15.4 269.5l-.9-.9-3.5 3.5-3.5-3.5-.9.9 3.5 3.5-3.5 3.5.9.9 3.5-3.5 3.5 3.5.9-.9-3.5-3.5z"/>
        <path id="Shape_6_" class="st9" d="M11 426.2c-4.8 0-8.8 3.9-8.8 8.8s3.9 8.8 8.8 8.8 8.8-3.9 8.8-8.8c0-2.3-.9-4.5-2.6-6.2-1.7-1.6-3.9-2.6-6.2-2.6z"/>
        <path id="Shape_7_" class="st5" d="M15.4 431.5l-.9-.9-3.5 3.5-3.5-3.5-.9.9 3.5 3.5-3.5 3.5.9.9 3.5-3.5 3.5 3.5.9-.9-3.5-3.5z"/>
        <circle id="Oval-2-Copy-43" class="st2" cx="32" cy="193" r="32"/>
        <circle id="Oval-2-Copy-45" class="st2" cx="182" cy="193" r="32"/>
        <circle id="Oval-2-Copy-49" class="st2" cx="109" cy="193" r="32"/>
        <circle id="Oval-2-Copy-51" class="st2" cx="257" cy="193" r="32"/>
        <path id="_x34_0-copy-2" d="M28.6 202h-1.9v-3.3h-8.3v-1.8l7.2-11.7h2.9V197H31v1.7h-2.5v3.3zm-2-15.2L20.2 197h6.5l-.1-10.2zm12.6 15.5c-4.1 0-5.9-3.2-5.9-8.7s1.8-8.7 5.9-8.7 5.9 3.2 5.9 8.7-1.8 8.7-5.9 8.7zm0-1.8c2.7 0 3.8-2.2 3.8-5.5v-2.7c0-3.4-1.1-5.5-3.8-5.5s-3.8 2.2-3.8 5.5v2.7c0 3.4 1.1 5.5 3.8 5.5zm0-5.5c-1.1 0-1.5-.5-1.5-1.2v-.5c0-.6.4-1.2 1.5-1.2s1.5.5 1.5 1.2v.5c0 .7-.4 1.2-1.5 1.2z" fill="#6ea6ff"/>
        <path id="_x35_0-copy-2" d="M106.6 185.2v1.8h-7.5l-.5 6.4h.2c.8-1.1 1.7-1.8 3.5-1.8 2.9 0 5.1 1.9 5.1 5.2 0 3.3-2.1 5.5-5.7 5.5-2.8 0-4.3-1.4-5.3-2.9l1.5-1.2c.9 1.3 1.8 2.3 3.9 2.3 2.3 0 3.6-1.3 3.6-3.5v-.2c0-2.2-1.3-3.5-3.6-3.5-1.6 0-2.4.6-3.1 1.4l-1.7-.2.6-9.2h9zm9.6 17.1c-4.1 0-5.9-3.2-5.9-8.7s1.8-8.7 5.9-8.7c4.1 0 5.9 3.2 5.9 8.7s-1.8 8.7-5.9 8.7zm0-1.8c2.7 0 3.8-2.2 3.8-5.5v-2.7c0-3.4-1.1-5.5-3.8-5.5-2.7 0-3.8 2.2-3.8 5.5v2.7c0 3.4 1.1 5.5 3.8 5.5zm0-5.5c-1.1 0-1.5-.5-1.5-1.2v-.5c0-.6.4-1.2 1.5-1.2s1.5.5 1.5 1.2v.5c0 .7-.4 1.2-1.5 1.2z" fill="#418cff"/>
        <path id="_x37_0-copy-2" d="M248.9 202h-2.2l6.6-15H246v3.1h-1.8v-4.8h11.2v1.8l-6.5 14.9zm15.3.3c-4.1 0-5.9-3.2-5.9-8.7s1.8-8.7 5.9-8.7c4.1 0 5.9 3.2 5.9 8.7s-1.8 8.7-5.9 8.7zm0-1.8c2.7 0 3.8-2.2 3.8-5.5v-2.7c0-3.4-1.1-5.5-3.8-5.5-2.7 0-3.8 2.2-3.8 5.5v2.7c0 3.4 1.1 5.5 3.8 5.5zm0-5.5c-1.1 0-1.5-.5-1.5-1.2v-.5c0-.6.4-1.2 1.5-1.2s1.5.5 1.5 1.2v.5c0 .7-.4 1.2-1.5 1.2z" fill="#054ada"/>
        <circle id="Oval-2-Copy-36" class="st2" cx="32" cy="355" r="32"/>
        <path id="_x38_0-copy-2" d="M24.8 364.3c-3.9 0-5.9-2.1-5.9-4.8 0-2.3 1.4-3.6 3.4-4.2v-.2c-1.8-.6-2.9-2-2.9-3.9 0-2.5 2-4.2 5.4-4.2s5.4 1.7 5.4 4.2c0 1.9-1.1 3.3-2.9 3.9v.2c2 .6 3.4 1.9 3.4 4.2 0 2.7-2 4.8-5.9 4.8zm0-1.7c2.4 0 3.8-1.1 3.8-3v-.6c0-1.9-1.4-3-3.8-3s-3.8 1.1-3.8 3v.5c0 2 1.4 3.1 3.8 3.1zm0-8.2c2.2 0 3.3-1 3.3-2.7v-.3c0-1.7-1.2-2.7-3.3-2.7s-3.3 1-3.3 2.7v.3c0 1.7 1.1 2.7 3.3 2.7zm14.4 9.9c-4.1 0-5.9-3.2-5.9-8.7 0-5.5 1.8-8.7 5.9-8.7s5.9 3.2 5.9 8.7c0 5.5-1.8 8.7-5.9 8.7zm0-1.8c2.7 0 3.8-2.2 3.8-5.5v-2.7c0-3.4-1.1-5.5-3.8-5.5s-3.8 2.2-3.8 5.5v2.7c0 3.4 1.1 5.5 3.8 5.5zm0-5.5c-1.1 0-1.5-.5-1.5-1.2v-.5c0-.6.4-1.2 1.5-1.2s1.5.5 1.5 1.2v.5c0 .7-.4 1.2-1.5 1.2z" fill="#0530ad"/>
        <circle id="Oval-2-Copy-53" class="st2" cx="182" cy="355" r="32"/>
        <circle id="Oval-2-Copy-55" class="st2" cx="109" cy="355" r="32"/>
        <circle id="Oval-2-Copy-58" class="st2" cx="257" cy="355" r="32"/>
        <path id="_x39_0-copy-2" d="M107.5 353.4c0 5-3.3 8.9-6.1 10.6h-2.6c3.6-2.6 5.7-4.8 6.6-8.7h-.1c-.8 1.4-2 2.4-4.1 2.4-2.9 0-5-2-5-5.2 0-3.3 2.2-5.5 5.6-5.5 3.5 0 5.7 2.4 5.7 6.4zm-5.7 2.6c2.3 0 3.6-1.3 3.6-3.6v-.2c0-2.3-1.3-3.6-3.6-3.6s-3.6 1.3-3.6 3.6v.2c0 2.3 1.3 3.6 3.6 3.6zm14.4 8.3c-4.1 0-5.9-3.2-5.9-8.7 0-5.5 1.8-8.7 5.9-8.7 4.1 0 5.9 3.2 5.9 8.7 0 5.5-1.8 8.7-5.9 8.7zm0-1.8c2.7 0 3.8-2.2 3.8-5.5v-2.7c0-3.4-1.1-5.5-3.8-5.5-2.7 0-3.8 2.2-3.8 5.5v2.7c0 3.4 1.1 5.5 3.8 5.5zm0-5.5c-1.1 0-1.5-.5-1.5-1.2v-.5c0-.6.4-1.2 1.5-1.2s1.5.5 1.5 1.2v.5c0 .7-.4 1.2-1.5 1.2z" fill="#061f80"/>
        <path id="_x31_00-copy-2" d="M173.7 364h-11.2v-1.8h4.8v-13.5h-.2l-4.2 3.9-1.2-1.3 4.4-4.2h3.1v15h4.4v1.9zm8.3.3c-4.1 0-5.9-3.2-5.9-8.7 0-5.5 1.8-8.7 5.9-8.7s5.9 3.2 5.9 8.7c0 5.5-1.8 8.7-5.9 8.7zm0-1.8c2.7 0 3.8-2.2 3.8-5.5v-2.7c0-3.4-1.1-5.5-3.8-5.5s-3.8 2.2-3.8 5.5v2.7c0 3.4 1.1 5.5 3.8 5.5zm0-5.5c-1.1 0-1.5-.5-1.5-1.2v-.5c0-.6.4-1.2 1.5-1.2s1.5.5 1.5 1.2v.5c0 .7-.4 1.2-1.5 1.2zm14.4 7.3c-4.1 0-5.9-3.2-5.9-8.7 0-5.5 1.8-8.7 5.9-8.7 4.1 0 5.9 3.2 5.9 8.7 0 5.5-1.8 8.7-5.9 8.7zm0-1.8c2.7 0 3.8-2.2 3.8-5.5v-2.7c0-3.4-1.1-5.5-3.8-5.5-2.7 0-3.8 2.2-3.8 5.5v2.7c0 3.4 1.1 5.5 3.8 5.5zm0-5.5c-1.1 0-1.5-.5-1.5-1.2v-.5c0-.6.4-1.2 1.5-1.2s1.5.5 1.5 1.2v.5c0 .7-.4 1.2-1.5 1.2z" fill="#051243"/>
        <path id="K-Copy-12" d="M261.3 364l-5-8.2-2.4 2.8v5.4h-2.1v-16.8h2.1v8.8l2.2-2.8 5-6h2.4l-5.9 7.1 6.1 9.7z"/>
      </g>
    </g>
  </g>
</svg>