<?xml version="1.0" encoding="utf-8"?>
<!-- Generator: Adobe Illustrator 22.1.0, SVG Export Plug-In . SVG Version: 6.00 Build 0)  -->
<svg version="1.1" id="Layer_1" xmlns="http://www.w3.org/2000/svg" xmlns:xlink="http://www.w3.org/1999/xlink" x="0px" y="0px"
	 viewBox="0 0 289 444" style="enable-background:new 0 0 289 444;" xml:space="preserve">
<style type="text/css">
	.st0{fill:#F3F3F3;}
	.st1{fill:#252525;}
	.st2{fill:#0062FF;}
	.st3{fill:#97C1FF;}
	.st4{fill:#F3F3F3;stroke:#EE538B;stroke-width:2;stroke-linecap:square;stroke-dasharray:2,7;}
	.st5{fill:#FFFFFF;}
	.st6{fill:#EDF4FF;}
	.st7{fill:#C9DEFF;}
	.st8{fill:#24A249;}
	.st9{fill:#EE538B;}
	.st10{fill:#6EA6FF;}
	.st11{fill:#418CFF;}
	.st12{fill:#054ADA;}
	.st13{fill:#0530AD;}
	.st14{fill:#061F80;}
	.st15{fill:#051243;}
</style>
<rect class="st0" width="289" height="443.8"/>
<title>Group 2</title>
<desc>Created with Sketch.</desc>
<g id="Page-1">
	<g id="Typography_Mobile_320px-Copy" transform="translate(-15.000000, -531.000000)">
		<g id="Group-2" transform="translate(15.000000, 531.000000)">
			<path id="Accessible" class="st1" d="M35.7,116h-1.2l-1-2.9h-3.9l-1,2.9h-1.2l3.4-9.8h1.5L35.7,116z M33.1,112.1l-1.7-4.8h-0.1
				l-1.7,4.8H33.1z M39.9,116.2c-2,0-3.2-1.5-3.2-3.8s1.2-3.8,3.2-3.8c1.4,0,2.3,0.7,2.7,1.7l-0.9,0.5c-0.3-0.7-0.9-1.2-1.8-1.2
				c-1.3,0-2,0.9-2,2.2v1.2c0,1.3,0.7,2.2,2,2.2c0.9,0,1.6-0.4,2-1.3l0.8,0.5C42.2,115.5,41.2,116.2,39.9,116.2z M46.9,116.2
				c-2,0-3.2-1.5-3.2-3.8s1.2-3.8,3.2-3.8c1.4,0,2.3,0.7,2.7,1.7l-0.9,0.5c-0.3-0.7-0.9-1.2-1.8-1.2c-1.3,0-2,0.9-2,2.2v1.2
				c0,1.3,0.7,2.2,2,2.2c0.9,0,1.6-0.4,2-1.3l0.8,0.5C49.2,115.5,48.3,116.2,46.9,116.2z M54,116.2c-2,0-3.2-1.5-3.2-3.8
				s1.3-3.8,3.2-3.8c1.9,0,3.1,1.5,3.1,3.5v0.5h-5.2v0.3c0,1.2,0.8,2.2,2.1,2.2c0.9,0,1.6-0.4,2-1.2l0.8,0.6
				C56.4,115.5,55.3,116.2,54,116.2z M54,109.5c-1.2,0-2.1,0.9-2.1,2.2v0.1h4v-0.2C55.9,110.4,55.1,109.5,54,109.5z M61.1,116.2
				c-1.3,0-2.2-0.6-2.9-1.4l0.8-0.6c0.6,0.7,1.2,1.1,2.1,1.1c1,0,1.5-0.4,1.5-1.2c0-0.6-0.3-1-1.3-1.1l-0.6-0.1
				c-1.3-0.2-2.3-0.7-2.3-2.1c0-1.4,1.1-2.1,2.6-2.1c1.2,0,1.9,0.4,2.5,1.2l-0.7,0.7c-0.3-0.4-0.9-0.9-1.9-0.9s-1.4,0.4-1.4,1.1
				c0,0.7,0.5,1,1.4,1.1l0.6,0.1c1.6,0.2,2.2,0.9,2.2,2C63.8,115.3,62.8,116.2,61.1,116.2z M67.9,116.2c-1.3,0-2.2-0.6-2.9-1.4
				l0.8-0.6c0.6,0.7,1.2,1.1,2.1,1.1c1,0,1.5-0.4,1.5-1.2c0-0.6-0.3-1-1.3-1.1l-0.6-0.1c-1.3-0.2-2.3-0.7-2.3-2.1
				c0-1.4,1.1-2.1,2.6-2.1c1.2,0,1.9,0.4,2.5,1.2l-0.7,0.7c-0.3-0.4-0.9-0.9-1.9-0.9c-0.9,0-1.4,0.4-1.4,1.1c0,0.7,0.5,1,1.4,1.1
				l0.6,0.1c1.6,0.2,2.2,0.9,2.2,2C70.6,115.3,69.6,116.2,67.9,116.2z M73.1,107.1c-0.5,0-0.7-0.3-0.7-0.6v-0.2
				c0-0.4,0.2-0.6,0.7-0.6c0.5,0,0.7,0.3,0.7,0.6v0.2C73.8,106.8,73.6,107.1,73.1,107.1z M72.6,116v-7.2h1.1v7.2H72.6z M76.1,116
				v-10.4h1.1v4.3h0.1c0.4-0.9,1.1-1.3,2.1-1.3c1.8,0,2.9,1.5,2.9,3.8s-1.1,3.8-2.9,3.8c-1,0-1.7-0.4-2.1-1.3h-0.1v1.2H76.1z
				 M79.1,115.2c1.3,0,2-0.9,2-2.2v-1.2c0-1.3-0.8-2.2-2-2.2c-1,0-1.9,0.6-1.9,1.4v2.7C77.2,114.6,78,115.2,79.1,115.2z M86.4,116
				h-1c-0.8,0-1.2-0.5-1.2-1.2v-9.2h1.1v9.4h1.1V116z M90.7,116.2c-2,0-3.2-1.5-3.2-3.8s1.3-3.8,3.2-3.8c1.9,0,3.1,1.5,3.1,3.5v0.5
				h-5.2v0.3c0,1.2,0.8,2.2,2.1,2.2c0.9,0,1.6-0.4,2-1.2l0.8,0.6C93.1,115.5,92.1,116.2,90.7,116.2z M90.7,109.5
				c-1.2,0-2.1,0.9-2.1,2.2v0.1h4v-0.2C92.6,110.4,91.9,109.5,90.7,109.5z"/>
			<path id="Not-Accessible-Copy" class="st1" d="M194.2,116l-3.6-6l-1.2-2.2h0v8.1h-1.1v-9.8h1.4l3.6,6l1.2,2.2h0v-8.1h1.1v9.8
				H194.2z M200.8,116.2c-1.9,0-3.3-1.5-3.3-3.8s1.3-3.8,3.3-3.8c1.9,0,3.3,1.5,3.3,3.8S202.8,116.2,200.8,116.2z M200.8,115.2
				c1.2,0,2.1-0.7,2.1-2.3v-1c0-1.5-0.9-2.3-2.1-2.3c-1.2,0-2.1,0.7-2.1,2.3v1C198.8,114.4,199.6,115.2,200.8,115.2z M208.9,116
				h-1.4c-0.8,0-1.2-0.5-1.2-1.2v-5.1h-1.2v-1h0.7c0.5,0,0.6-0.2,0.6-0.7v-1.3h1v2h1.6v1h-1.6v5.3h1.5V116z M221.6,116h-1.2l-1-2.9
				h-3.9l-1,2.9h-1.2l3.4-9.8h1.5L221.6,116z M219.1,112.1l-1.7-4.8h-0.1l-1.7,4.8H219.1z M225.8,116.2c-2,0-3.2-1.5-3.2-3.8
				s1.2-3.8,3.2-3.8c1.4,0,2.3,0.7,2.7,1.7l-0.9,0.5c-0.3-0.7-0.9-1.2-1.8-1.2c-1.3,0-2,0.9-2,2.2v1.2c0,1.3,0.7,2.2,2,2.2
				c0.9,0,1.6-0.4,2-1.3l0.8,0.5C228.1,115.5,227.2,116.2,225.8,116.2z M232.9,116.2c-2,0-3.2-1.5-3.2-3.8s1.2-3.8,3.2-3.8
				c1.4,0,2.3,0.7,2.7,1.7l-0.9,0.5c-0.3-0.7-0.9-1.2-1.8-1.2c-1.3,0-2,0.9-2,2.2v1.2c0,1.3,0.7,2.2,2,2.2c0.9,0,1.6-0.4,2-1.3
				l0.8,0.5C235.2,115.5,234.2,116.2,232.9,116.2z M239.9,116.2c-2,0-3.2-1.5-3.2-3.8s1.3-3.8,3.2-3.8c1.9,0,3.1,1.5,3.1,3.5v0.5
				h-5.2v0.3c0,1.2,0.8,2.2,2.1,2.2c0.9,0,1.6-0.4,2-1.2l0.8,0.6C242.3,115.5,241.3,116.2,239.9,116.2z M239.9,109.5
				c-1.2,0-2.1,0.9-2.1,2.2v0.1h4v-0.2C241.8,110.4,241.1,109.5,239.9,109.5z M247.1,116.2c-1.3,0-2.2-0.6-2.9-1.4l0.8-0.6
				c0.6,0.7,1.2,1.1,2.1,1.1c1,0,1.5-0.4,1.5-1.2c0-0.6-0.3-1-1.3-1.1l-0.6-0.1c-1.3-0.2-2.3-0.7-2.3-2.1c0-1.4,1.1-2.1,2.6-2.1
				c1.2,0,1.9,0.4,2.5,1.2l-0.7,0.7c-0.3-0.4-0.9-0.9-1.9-0.9c-0.9,0-1.4,0.4-1.4,1.1c0,0.7,0.5,1,1.4,1.1l0.6,0.1
				c1.6,0.2,2.2,0.9,2.2,2C249.7,115.3,248.7,116.2,247.1,116.2z M253.9,116.2c-1.3,0-2.2-0.6-2.9-1.4l0.8-0.6
				c0.6,0.7,1.2,1.1,2.1,1.1c1,0,1.5-0.4,1.5-1.2c0-0.6-0.3-1-1.3-1.1l-0.6-0.1c-1.3-0.2-2.3-0.7-2.3-2.1c0-1.4,1.1-2.1,2.6-2.1
				c1.2,0,1.9,0.4,2.5,1.2l-0.7,0.7c-0.3-0.4-0.9-0.9-1.9-0.9s-1.4,0.4-1.4,1.1c0,0.7,0.5,1,1.4,1.1l0.6,0.1c1.6,0.2,2.2,0.9,2.2,2
				C256.6,115.3,255.5,116.2,253.9,116.2z M259.1,107.1c-0.5,0-0.7-0.3-0.7-0.6v-0.2c0-0.4,0.2-0.6,0.7-0.6s0.7,0.3,0.7,0.6v0.2
				C259.8,106.8,259.6,107.1,259.1,107.1z M258.5,116v-7.2h1.1v7.2H258.5z M262,116v-10.4h1.1v4.3h0.1c0.4-0.9,1.1-1.3,2.1-1.3
				c1.8,0,2.9,1.5,2.9,3.8s-1.1,3.8-2.9,3.8c-1,0-1.7-0.4-2.1-1.3h-0.1v1.2H262z M265,115.2c1.3,0,2-0.9,2-2.2v-1.2
				c0-1.3-0.8-2.2-2-2.2c-1,0-1.9,0.6-1.9,1.4v2.7C263.1,114.6,264,115.2,265,115.2z M272.3,116h-1c-0.8,0-1.2-0.5-1.2-1.2v-9.2h1.1
				v9.4h1.1V116z M276.7,116.2c-2,0-3.2-1.5-3.2-3.8s1.3-3.8,3.2-3.8c1.9,0,3.1,1.5,3.1,3.5v0.5h-5.2v0.3c0,1.2,0.8,2.2,2.1,2.2
				c0.9,0,1.6-0.4,2-1.2l0.8,0.6C279.1,115.5,278,116.2,276.7,116.2z M276.7,109.5c-1.2,0-2.1,0.9-2.1,2.2v0.1h4v-0.2
				C278.6,110.4,277.8,109.5,276.7,109.5z"/>
			<path id="Not-Accessible-Copy-2" class="st1" d="M35.2,278l-3.6-6l-1.2-2.2h0v8.1h-1.1v-9.8h1.4l3.6,6l1.2,2.2h0v-8.1h1.1v9.8
				H35.2z M41.8,278.2c-1.9,0-3.3-1.5-3.3-3.8s1.3-3.8,3.3-3.8s3.3,1.5,3.3,3.8S43.8,278.2,41.8,278.2z M41.8,277.2
				c1.2,0,2.1-0.7,2.1-2.3v-1c0-1.5-0.9-2.3-2.1-2.3c-1.2,0-2.1,0.7-2.1,2.3v1C39.8,276.4,40.6,277.2,41.8,277.2z M49.9,278h-1.4
				c-0.8,0-1.2-0.5-1.2-1.2v-5.1h-1.2v-1h0.7c0.5,0,0.6-0.2,0.6-0.7v-1.3h1v2H50v1h-1.6v5.3h1.5V278z M62.6,278h-1.2l-1-2.9h-3.9
				l-1,2.9h-1.2l3.4-9.8h1.5L62.6,278z M60.1,274.1l-1.7-4.8h-0.1l-1.7,4.8H60.1z M66.8,278.2c-2,0-3.2-1.5-3.2-3.8s1.2-3.8,3.2-3.8
				c1.4,0,2.3,0.7,2.7,1.7l-0.9,0.5c-0.3-0.7-0.9-1.2-1.8-1.2c-1.3,0-2,0.9-2,2.2v1.2c0,1.3,0.7,2.2,2,2.2c0.9,0,1.6-0.4,2-1.3
				l0.8,0.5C69.1,277.5,68.2,278.2,66.8,278.2z M73.8,278.2c-2,0-3.2-1.5-3.2-3.8s1.2-3.8,3.2-3.8c1.4,0,2.3,0.7,2.7,1.7l-0.9,0.5
				c-0.3-0.7-0.9-1.2-1.8-1.2c-1.3,0-2,0.9-2,2.2v1.2c0,1.3,0.7,2.2,2,2.2c0.9,0,1.6-0.4,2-1.3l0.8,0.5
				C76.2,277.5,75.2,278.2,73.8,278.2z M80.9,278.2c-2,0-3.2-1.5-3.2-3.8s1.3-3.8,3.2-3.8c1.9,0,3.1,1.5,3.1,3.5v0.5h-5.2v0.3
				c0,1.2,0.8,2.2,2.1,2.2c0.9,0,1.6-0.4,2-1.2l0.8,0.6C83.3,277.5,82.3,278.2,80.9,278.2z M80.9,271.5c-1.2,0-2.1,0.9-2.1,2.2v0.1
				h4v-0.2C82.8,272.4,82.1,271.5,80.9,271.5z M88.1,278.2c-1.3,0-2.2-0.6-2.9-1.4l0.8-0.6c0.6,0.7,1.2,1.1,2.1,1.1
				c1,0,1.5-0.4,1.5-1.2c0-0.6-0.3-1-1.3-1.1l-0.6-0.1c-1.3-0.2-2.3-0.7-2.3-2.1c0-1.4,1.1-2.1,2.6-2.1c1.2,0,1.9,0.4,2.5,1.2
				l-0.7,0.7c-0.3-0.4-0.9-0.9-1.9-0.9c-0.9,0-1.4,0.4-1.4,1.1c0,0.7,0.5,1,1.4,1.1l0.6,0.1c1.6,0.2,2.2,0.9,2.2,2
				C90.7,277.3,89.7,278.2,88.1,278.2z M94.9,278.2c-1.3,0-2.2-0.6-2.9-1.4l0.8-0.6c0.6,0.7,1.2,1.1,2.1,1.1c1,0,1.5-0.4,1.5-1.2
				c0-0.6-0.3-1-1.3-1.1l-0.6-0.1c-1.3-0.2-2.3-0.7-2.3-2.1c0-1.4,1.1-2.1,2.6-2.1c1.2,0,1.9,0.4,2.5,1.2l-0.7,0.7
				c-0.3-0.4-0.9-0.9-1.9-0.9c-0.9,0-1.4,0.4-1.4,1.1c0,0.7,0.5,1,1.4,1.1l0.6,0.1c1.6,0.2,2.2,0.9,2.2,2
				C97.6,277.3,96.5,278.2,94.9,278.2z M100.1,269.1c-0.5,0-0.7-0.3-0.7-0.6v-0.2c0-0.4,0.2-0.6,0.7-0.6s0.7,0.3,0.7,0.6v0.2
				C100.8,268.8,100.6,269.1,100.1,269.1z M99.5,278v-7.2h1.1v7.2H99.5z M103,278v-10.4h1.1v4.3h0.1c0.4-0.9,1.1-1.3,2.1-1.3
				c1.8,0,2.9,1.5,2.9,3.8s-1.1,3.8-2.9,3.8c-1,0-1.7-0.4-2.1-1.3h-0.1v1.2H103z M106,277.2c1.3,0,2-0.9,2-2.2v-1.2
				c0-1.3-0.8-2.2-2-2.2c-1,0-1.9,0.6-1.9,1.4v2.7C104.1,276.6,105,277.2,106,277.2z M113.3,278h-1c-0.8,0-1.2-0.5-1.2-1.2v-9.2h1.1
				v9.4h1.1V278z M117.7,278.2c-2,0-3.2-1.5-3.2-3.8s1.3-3.8,3.2-3.8c1.9,0,3.1,1.5,3.1,3.5v0.5h-5.2v0.3c0,1.2,0.8,2.2,2.1,2.2
				c0.9,0,1.6-0.4,2-1.2l0.8,0.6C120.1,277.5,119,278.2,117.7,278.2z M117.7,271.5c-1.2,0-2.1,0.9-2.1,2.2v0.1h4v-0.2
				C119.6,272.4,118.8,271.5,117.7,271.5z"/>
			<path id="Not-Accessible-Copy-3" class="st1" d="M35.2,440l-3.6-6l-1.2-2.2h0v8.1h-1.1v-9.8h1.4l3.6,6l1.2,2.2h0v-8.1h1.1v9.8
				H35.2z M41.8,440.2c-1.9,0-3.3-1.5-3.3-3.8s1.3-3.8,3.3-3.8s3.3,1.5,3.3,3.8S43.8,440.2,41.8,440.2z M41.8,439.2
				c1.2,0,2.1-0.7,2.1-2.3v-1c0-1.5-0.9-2.3-2.1-2.3c-1.2,0-2.1,0.7-2.1,2.3v1C39.8,438.4,40.6,439.2,41.8,439.2z M49.9,440h-1.4
				c-0.8,0-1.2-0.5-1.2-1.2v-5.1h-1.2v-1h0.7c0.5,0,0.6-0.2,0.6-0.7v-1.3h1v2H50v1h-1.6v5.3h1.5V440z M62.6,440h-1.2l-1-2.9h-3.9
				l-1,2.9h-1.2l3.4-9.8h1.5L62.6,440z M60.1,436.1l-1.7-4.8h-0.1l-1.7,4.8H60.1z M66.8,440.2c-2,0-3.2-1.5-3.2-3.8s1.2-3.8,3.2-3.8
				c1.4,0,2.3,0.7,2.7,1.7l-0.9,0.5c-0.3-0.7-0.9-1.2-1.8-1.2c-1.3,0-2,0.9-2,2.2v1.2c0,1.3,0.7,2.2,2,2.2c0.9,0,1.6-0.4,2-1.3
				l0.8,0.5C69.1,439.5,68.2,440.2,66.8,440.2z M73.8,440.2c-2,0-3.2-1.5-3.2-3.8s1.2-3.8,3.2-3.8c1.4,0,2.3,0.7,2.7,1.7l-0.9,0.5
				c-0.3-0.7-0.9-1.2-1.8-1.2c-1.3,0-2,0.9-2,2.2v1.2c0,1.3,0.7,2.2,2,2.2c0.9,0,1.6-0.4,2-1.3l0.8,0.5
				C76.2,439.5,75.2,440.2,73.8,440.2z M80.9,440.2c-2,0-3.2-1.5-3.2-3.8s1.3-3.8,3.2-3.8c1.9,0,3.1,1.5,3.1,3.5v0.5h-5.2v0.3
				c0,1.2,0.8,2.2,2.1,2.2c0.9,0,1.6-0.4,2-1.2l0.8,0.6C83.3,439.5,82.3,440.2,80.9,440.2z M80.9,433.5c-1.2,0-2.1,0.9-2.1,2.2v0.1
				h4v-0.2C82.8,434.4,82.1,433.5,80.9,433.5z M88.1,440.2c-1.3,0-2.2-0.6-2.9-1.4l0.8-0.6c0.6,0.7,1.2,1.1,2.1,1.1
				c1,0,1.5-0.4,1.5-1.2c0-0.6-0.3-1-1.3-1.1l-0.6-0.1c-1.3-0.2-2.3-0.7-2.3-2.1c0-1.4,1.1-2.1,2.6-2.1c1.2,0,1.9,0.4,2.5,1.2
				l-0.7,0.7c-0.3-0.4-0.9-0.9-1.9-0.9c-0.9,0-1.4,0.4-1.4,1.1c0,0.7,0.5,1,1.4,1.1l0.6,0.1c1.6,0.2,2.2,0.9,2.2,2
				C90.7,439.3,89.7,440.2,88.1,440.2z M94.9,440.2c-1.3,0-2.2-0.6-2.9-1.4l0.8-0.6c0.6,0.7,1.2,1.1,2.1,1.1c1,0,1.5-0.4,1.5-1.2
				c0-0.6-0.3-1-1.3-1.1l-0.6-0.1c-1.3-0.2-2.3-0.7-2.3-2.1c0-1.4,1.1-2.1,2.6-2.1c1.2,0,1.9,0.4,2.5,1.2l-0.7,0.7
				c-0.3-0.4-0.9-0.9-1.9-0.9c-0.9,0-1.4,0.4-1.4,1.1c0,0.7,0.5,1,1.4,1.1l0.6,0.1c1.6,0.2,2.2,0.9,2.2,2
				C97.6,439.3,96.5,440.2,94.9,440.2z M100.1,431.1c-0.5,0-0.7-0.3-0.7-0.6v-0.2c0-0.4,0.2-0.6,0.7-0.6s0.7,0.3,0.7,0.6v0.2
				C100.8,430.8,100.6,431.1,100.1,431.1z M99.5,440v-7.2h1.1v7.2H99.5z M103,440v-10.4h1.1v4.3h0.1c0.4-0.9,1.1-1.3,2.1-1.3
				c1.8,0,2.9,1.5,2.9,3.8s-1.1,3.8-2.9,3.8c-1,0-1.7-0.4-2.1-1.3h-0.1v1.2H103z M106,439.2c1.3,0,2-0.9,2-2.2v-1.2
				c0-1.3-0.8-2.2-2-2.2c-1,0-1.9,0.6-1.9,1.4v2.7C104.1,438.6,105,439.2,106,439.2z M113.3,440h-1c-0.8,0-1.2-0.5-1.2-1.2v-9.2h1.1
				v9.4h1.1V440z M117.7,440.2c-2,0-3.2-1.5-3.2-3.8s1.3-3.8,3.2-3.8c1.9,0,3.1,1.5,3.1,3.5v0.5h-5.2v0.3c0,1.2,0.8,2.2,2.1,2.2
				c0.9,0,1.6-0.4,2-1.2l0.8,0.6C120.1,439.5,119,440.2,117.7,440.2z M117.7,433.5c-1.2,0-2.1,0.9-2.1,2.2v0.1h4v-0.2
				C119.6,434.4,118.8,433.5,117.7,433.5z"/>
			<circle id="Oval-2-Copy-47" class="st2" cx="257" cy="32" r="32"/>
			<path id="_x33_0-copy-2" class="st3" d="M247.2,31.4h1.8c2.3,0,3.5-1.2,3.5-2.8v-0.2c0-1.8-1.2-2.7-3.1-2.7
				c-1.8,0-2.8,0.9-3.5,2.1l-1.5-1.2c0.9-1.3,2.4-2.7,5.1-2.7c2.9,0,5.1,1.5,5.1,4.2c0,2.2-1.4,3.5-3.3,3.9v0.1
				c1.8,0.4,3.6,1.7,3.6,4.2c0,2.9-2.3,4.9-5.8,4.9c-3,0-4.5-1.4-5.5-2.9l1.5-1.2c0.9,1.3,1.9,2.3,4,2.3c2.4,0,3.7-1.2,3.7-3.1v-0.2
				c0-2-1.2-3.1-3.7-3.1h-2V31.4z M264.2,41.3c-4.1,0-5.9-3.2-5.9-8.7s1.8-8.7,5.9-8.7c4.1,0,5.9,3.2,5.9,8.7S268.3,41.3,264.2,41.3
				z M264.2,39.5c2.7,0,3.8-2.2,3.8-5.5v-2.7c0-3.4-1.1-5.5-3.8-5.5c-2.7,0-3.8,2.2-3.8,5.5V34C260.4,37.4,261.5,39.5,264.2,39.5z
				 M264.2,34c-1.1,0-1.5-0.5-1.5-1.2v-0.5c0-0.6,0.4-1.2,1.5-1.2c1.1,0,1.5,0.5,1.5,1.2v0.5C265.7,33.5,265.3,34,264.2,34z"/>
			<path id="Line-2-Copy-3" class="st4" d="M165,88h124"/>
			<path id="Line-2-Copy-4" class="st4" d="M6,250h282"/>
			<path id="Line-2-Copy-5" class="st4" d="M6,412h282"/>
			<circle id="Oval-2-Copy-38" class="st2" cx="182" cy="32" r="32"/>
			<circle id="Oval-2-Copy-40" class="st2" cx="32" cy="32" r="32"/>
			<circle id="Oval-2-Copy-41" class="st2" cx="109" cy="32" r="32"/>
			<polygon id="W-Copy-6" class="st5" points="29.9,41 27,41 25.6,24.2 27.4,24.2 28.1,33.8 28.5,38.9 28.7,38.9 30.9,28.6 
				33.2,28.6 35.4,38.9 35.6,38.9 35.9,33.8 36.6,24.2 38.4,24.2 37,41 34.1,41 32.1,31 31.9,31 			"/>
			<path id="_x31_0-copy-2" class="st6" d="M107.9,41H96.6v-1.8h4.8V25.7h-0.2L97,29.7l-1.2-1.3l4.4-4.2h3.1v15h4.4V41z M116.2,41.3
				c-4.1,0-5.9-3.2-5.9-8.7s1.8-8.7,5.9-8.7c4.1,0,5.9,3.2,5.9,8.7S120.3,41.3,116.2,41.3z M116.2,39.5c2.7,0,3.8-2.2,3.8-5.5v-2.7
				c0-3.4-1.1-5.5-3.8-5.5c-2.7,0-3.8,2.2-3.8,5.5V34C112.4,37.4,113.5,39.5,116.2,39.5z M116.2,34c-1.1,0-1.5-0.5-1.5-1.2v-0.5
				c0-0.6,0.4-1.2,1.5-1.2c1.1,0,1.5,0.5,1.5,1.2v0.5C117.7,33.5,117.3,34,116.2,34z"/>
			<path id="_x32_0-copy-2" class="st7" d="M180.5,39.2V41h-11.2v-2.1l5.6-5c1.6-1.5,2.8-3,2.8-4.7v-0.3c0-2-1.1-3.2-3.1-3.2
				c-2,0-3.1,1.1-3.6,2.9l-1.8-0.7c0.6-2,2.2-3.9,5.4-3.9c3.3,0,5.2,2,5.2,4.8c0,2.5-1.5,4.4-3.7,6.4l-4.7,4.1H180.5z M189.2,41.3
				c-4.1,0-5.9-3.2-5.9-8.7s1.8-8.7,5.9-8.7s5.9,3.2,5.9,8.7S193.3,41.3,189.2,41.3z M189.2,39.5c2.7,0,3.8-2.2,3.8-5.5v-2.7
				c0-3.4-1.1-5.5-3.8-5.5s-3.8,2.2-3.8,5.5V34C185.4,37.4,186.5,39.5,189.2,39.5z M189.2,34c-1.1,0-1.5-0.5-1.5-1.2v-0.5
				c0-0.6,0.4-1.2,1.5-1.2s1.5,0.5,1.5,1.2v0.5C190.7,33.5,190.3,34,189.2,34z"/>
			<path id="Line-2-Copy" class="st8" d="M1.5,81.5v12v1h2v-1v-12v-1h-2V81.5z M158.7,93.5v-12v-1h-2v1v12v1h2V93.5z M2.5,88.5
				h155.2h1v-2h-1H2.5h-1v2H2.5z"/>
			<path id="Shape" class="st8" d="M10,102.2c-4.8,0-8.8,3.9-8.8,8.8s3.9,8.8,8.8,8.8s8.8-3.9,8.8-8.8S14.8,102.2,10,102.2z"/>
			<polygon id="Shape_1_" class="st5" points="14.4,108.8 13.5,107.9 8.8,112.6 6.5,110.4 5.6,111.2 8.8,114.4 			"/>
			<path id="Shape_2_" class="st9" d="M170,102.2c-4.8,0-8.8,3.9-8.8,8.8s3.9,8.8,8.8,8.8s8.8-3.9,8.8-8.8c0-2.3-0.9-4.5-2.6-6.2
				C174.5,103.2,172.3,102.2,170,102.2z"/>
			<polygon id="Shape_3_" class="st5" points="174.4,107.5 173.5,106.6 170,110.1 166.5,106.6 165.6,107.5 169.1,111 165.6,114.5 
				166.5,115.4 170,111.9 173.5,115.4 174.4,114.5 170.9,111 			"/>
			<path id="Shape_4_" class="st9" d="M11,264.2c-4.8,0-8.8,3.9-8.8,8.8s3.9,8.8,8.8,8.8s8.8-3.9,8.8-8.8c0-2.3-0.9-4.5-2.6-6.2
				C15.5,265.2,13.3,264.2,11,264.2z"/>
			<polygon id="Shape_5_" class="st5" points="15.4,269.5 14.5,268.6 11,272.1 7.5,268.6 6.6,269.5 10.1,273 6.6,276.5 7.5,277.4 
				11,273.9 14.5,277.4 15.4,276.5 11.9,273 			"/>
			<path id="Shape_6_" class="st9" d="M11,426.2c-4.8,0-8.8,3.9-8.8,8.8s3.9,8.8,8.8,8.8s8.8-3.9,8.8-8.8c0-2.3-0.9-4.5-2.6-6.2
				C15.5,427.2,13.3,426.2,11,426.2z"/>
			<polygon id="Shape_7_" class="st5" points="15.4,431.5 14.5,430.6 11,434.1 7.5,430.6 6.6,431.5 10.1,435 6.6,438.5 7.5,439.4 
				11,435.9 14.5,439.4 15.4,438.5 11.9,435 			"/>
			<circle id="Oval-2-Copy-43" class="st2" cx="32" cy="193" r="32"/>
			<circle id="Oval-2-Copy-45" class="st2" cx="182" cy="193" r="32"/>
			<circle id="Oval-2-Copy-49" class="st2" cx="109" cy="193" r="32"/>
			<circle id="Oval-2-Copy-51" class="st2" cx="257" cy="193" r="32"/>
			<path id="_x34_0-copy-2" class="st10" d="M28.6,202h-1.9v-3.3h-8.3v-1.8l7.2-11.7h2.9v11.8h2.5v1.7h-2.5V202z M26.6,186.8
				l-6.4,10.2h6.5L26.6,186.8L26.6,186.8z M39.2,202.3c-4.1,0-5.9-3.2-5.9-8.7s1.8-8.7,5.9-8.7s5.9,3.2,5.9,8.7
				S43.3,202.3,39.2,202.3z M39.2,200.5c2.7,0,3.8-2.2,3.8-5.5v-2.7c0-3.4-1.1-5.5-3.8-5.5s-3.8,2.2-3.8,5.5v2.7
				C35.4,198.4,36.5,200.5,39.2,200.5z M39.2,195c-1.1,0-1.5-0.5-1.5-1.2v-0.5c0-0.6,0.4-1.2,1.5-1.2s1.5,0.5,1.5,1.2v0.5
				C40.7,194.5,40.3,195,39.2,195z"/>
			<path id="_x35_0-copy-2" class="st11" d="M106.6,185.2v1.8h-7.5l-0.5,6.4h0.2c0.8-1.1,1.7-1.8,3.5-1.8c2.9,0,5.1,1.9,5.1,5.2
				c0,3.3-2.1,5.5-5.7,5.5c-2.8,0-4.3-1.4-5.3-2.9l1.5-1.2c0.9,1.3,1.8,2.3,3.9,2.3c2.3,0,3.6-1.3,3.6-3.5v-0.2
				c0-2.2-1.3-3.5-3.6-3.5c-1.6,0-2.4,0.6-3.1,1.4l-1.7-0.2l0.6-9.2H106.6z M116.2,202.3c-4.1,0-5.9-3.2-5.9-8.7s1.8-8.7,5.9-8.7
				c4.1,0,5.9,3.2,5.9,8.7S120.3,202.3,116.2,202.3z M116.2,200.5c2.7,0,3.8-2.2,3.8-5.5v-2.7c0-3.4-1.1-5.5-3.8-5.5
				c-2.7,0-3.8,2.2-3.8,5.5v2.7C112.4,198.4,113.5,200.5,116.2,200.5z M116.2,195c-1.1,0-1.5-0.5-1.5-1.2v-0.5
				c0-0.6,0.4-1.2,1.5-1.2c1.1,0,1.5,0.5,1.5,1.2v0.5C117.7,194.5,117.3,195,116.2,195z"/>
			<path id="_x37_0-copy-2" class="st12" d="M248.9,202h-2.2l6.6-15H246v3.1h-1.8v-4.8h11.2v1.8L248.9,202z M264.2,202.3
				c-4.1,0-5.9-3.2-5.9-8.7s1.8-8.7,5.9-8.7c4.1,0,5.9,3.2,5.9,8.7S268.3,202.3,264.2,202.3z M264.2,200.5c2.7,0,3.8-2.2,3.8-5.5
				v-2.7c0-3.4-1.1-5.5-3.8-5.5c-2.7,0-3.8,2.2-3.8,5.5v2.7C260.4,198.4,261.5,200.5,264.2,200.5z M264.2,195
				c-1.1,0-1.5-0.5-1.5-1.2v-0.5c0-0.6,0.4-1.2,1.5-1.2c1.1,0,1.5,0.5,1.5,1.2v0.5C265.7,194.5,265.3,195,264.2,195z"/>
			<circle id="Oval-2-Copy-36" class="st2" cx="32" cy="355" r="32"/>
			<path id="_x38_0-copy-2" class="st13" d="M24.8,364.3c-3.9,0-5.9-2.1-5.9-4.8c0-2.3,1.4-3.6,3.4-4.2v-0.2c-1.8-0.6-2.9-2-2.9-3.9
				c0-2.5,2-4.2,5.4-4.2s5.4,1.7,5.4,4.2c0,1.9-1.1,3.3-2.9,3.9v0.2c2,0.6,3.4,1.9,3.4,4.2C30.7,362.2,28.7,364.3,24.8,364.3z
				 M24.8,362.6c2.4,0,3.8-1.1,3.8-3V359c0-1.9-1.4-3-3.8-3s-3.8,1.1-3.8,3v0.5C21,361.5,22.4,362.6,24.8,362.6z M24.8,354.4
				c2.2,0,3.3-1,3.3-2.7v-0.3c0-1.7-1.2-2.7-3.3-2.7s-3.3,1-3.3,2.7v0.3C21.5,353.4,22.6,354.4,24.8,354.4z M39.2,364.3
				c-4.1,0-5.9-3.2-5.9-8.7c0-5.5,1.8-8.7,5.9-8.7s5.9,3.2,5.9,8.7C45.1,361.1,43.3,364.3,39.2,364.3z M39.2,362.5
				c2.7,0,3.8-2.2,3.8-5.5v-2.7c0-3.4-1.1-5.5-3.8-5.5s-3.8,2.2-3.8,5.5v2.7C35.4,360.4,36.5,362.5,39.2,362.5z M39.2,357
				c-1.1,0-1.5-0.5-1.5-1.2v-0.5c0-0.6,0.4-1.2,1.5-1.2s1.5,0.5,1.5,1.2v0.5C40.7,356.5,40.3,357,39.2,357z"/>
			<circle id="Oval-2-Copy-53" class="st2" cx="182" cy="355" r="32"/>
			<circle id="Oval-2-Copy-55" class="st2" cx="109" cy="355" r="32"/>
			<circle id="Oval-2-Copy-58" class="st2" cx="257" cy="355" r="32"/>
			<path id="_x39_0-copy-2" class="st14" d="M107.5,353.4c0,5-3.3,8.9-6.1,10.6h-2.6c3.6-2.6,5.7-4.8,6.6-8.7l-0.1,0
				c-0.8,1.4-2,2.4-4.1,2.4c-2.9,0-5-2-5-5.2c0-3.3,2.2-5.5,5.6-5.5C105.3,347,107.5,349.4,107.5,353.4z M101.8,356
				c2.3,0,3.6-1.3,3.6-3.6v-0.2c0-2.3-1.3-3.6-3.6-3.6c-2.3,0-3.6,1.3-3.6,3.6v0.2C98.2,354.7,99.5,356,101.8,356z M116.2,364.3
				c-4.1,0-5.9-3.2-5.9-8.7c0-5.5,1.8-8.7,5.9-8.7c4.1,0,5.9,3.2,5.9,8.7C122.1,361.1,120.3,364.3,116.2,364.3z M116.2,362.5
				c2.7,0,3.8-2.2,3.8-5.5v-2.7c0-3.4-1.1-5.5-3.8-5.5c-2.7,0-3.8,2.2-3.8,5.5v2.7C112.4,360.4,113.5,362.5,116.2,362.5z M116.2,357
				c-1.1,0-1.5-0.5-1.5-1.2v-0.5c0-0.6,0.4-1.2,1.5-1.2c1.1,0,1.5,0.5,1.5,1.2v0.5C117.7,356.5,117.3,357,116.2,357z"/>
			<path id="_x31_00-copy-2" class="st15" d="M173.7,364h-11.2v-1.8h4.8v-13.5h-0.2l-4.2,3.9l-1.2-1.3l4.4-4.2h3.1v15h4.4V364z
				 M182,364.3c-4.1,0-5.9-3.2-5.9-8.7c0-5.5,1.8-8.7,5.9-8.7s5.9,3.2,5.9,8.7C187.9,361.1,186.1,364.3,182,364.3z M182,362.5
				c2.7,0,3.8-2.2,3.8-5.5v-2.7c0-3.4-1.1-5.5-3.8-5.5s-3.8,2.2-3.8,5.5v2.7C178.2,360.4,179.3,362.5,182,362.5z M182,357
				c-1.1,0-1.5-0.5-1.5-1.2v-0.5c0-0.6,0.4-1.2,1.5-1.2s1.5,0.5,1.5,1.2v0.5C183.5,356.5,183.1,357,182,357z M196.4,364.3
				c-4.1,0-5.9-3.2-5.9-8.7c0-5.5,1.8-8.7,5.9-8.7c4.1,0,5.9,3.2,5.9,8.7C202.3,361.1,200.5,364.3,196.4,364.3z M196.4,362.5
				c2.7,0,3.8-2.2,3.8-5.5v-2.7c0-3.4-1.1-5.5-3.8-5.5c-2.7,0-3.8,2.2-3.8,5.5v2.7C192.6,360.4,193.7,362.5,196.4,362.5z M196.4,357
				c-1.1,0-1.5-0.5-1.5-1.2v-0.5c0-0.6,0.4-1.2,1.5-1.2c1.1,0,1.5,0.5,1.5,1.2v0.5C197.9,356.5,197.5,357,196.4,357z"/>
			<polygon id="K-Copy-12" points="261.3,364 256.3,355.8 253.9,358.6 253.9,364 251.8,364 251.8,347.2 253.9,347.2 253.9,356 
				253.9,356 256.1,353.2 261.1,347.2 263.5,347.2 257.6,354.3 263.7,364 			"/>
		</g>
	</g>
</g>
</svg>
