<svg id="Layer_1" xmlns="http://www.w3.org/2000/svg" viewBox="0 0 925 97">
  <style>
    .st1{fill:#252525}.st2{font-family:&apos;IBMPlexMono&apos;}.st3{font-size:14px}.st4{fill:#fff}
  </style>
  <path fill="#f3f3f3" d="M0 0h925v97H0z"/>
  <text transform="translate(31.8 95)" class="st1 st2 st3">
    W
  </text>
  <text transform="translate(107.6 95)" class="st1 st2 st3">
    10
  </text>
  <text transform="translate(184.6 95)" class="st1 st2 st3">
    20
  </text>
  <text transform="translate(264.6 95)" class="st1 st2 st3">
    30
  </text>
  <text transform="translate(341.6 95)" class="st1 st2 st3">
    40
  </text>
  <text transform="translate(419.6 95)" class="st1 st2 st3">
    50
  </text>
  <text transform="translate(496.6 95)" class="st1 st2 st3">
    60
  </text>
  <text transform="translate(573.6 95)" class="st1 st2 st3">
    70
  </text>
  <text transform="translate(650.6 95)" class="st1 st2 st3">
    80
  </text>
  <text transform="translate(727.6 95)" class="st1 st2 st3">
    90
  </text>
  <text transform="translate(801.4 95)" class="st1 st2 st3">
    100
  </text>
  <text transform="translate(886.8 95)" class="st1 st2 st3">
    K
  </text>
  <circle class="st4" cx="35" cy="35" r="35"/>
  <path d="M38.3 44l-5.1-8.2-2.4 2.8V44h-2V27.2h2V36h.1l2.2-2.8 4.9-6h2.4l-5.9 7.1 6 9.7h-2.2z"/>
  <g transform="translate(81)">
    <circle cx="35" cy="35" r="35" fill="#edf4ff"/>
    <path d="M38.3 44l-5.1-8.2-2.4 2.8V44h-2V27.2h2V36h.1l2.2-2.8 4.9-6h2.4l-5.9 7.1 6 9.7h-2.2z"/>
  </g>
  <g transform="translate(158)">
    <circle cx="35" cy="35" r="35" fill="#c9deff"/>
    <path d="M39.3 44l-5.1-8.2-2.4 2.8V44h-2V27.2h2V36h.1l2.2-2.8 4.9-6h2.4l-5.9 7.1 6 9.7h-2.2z"/>
  </g>
  <g transform="translate(237)">
    <circle cx="35" cy="35" r="35" fill="#97c1ff"/>
    <path d="M39.3 44l-5.1-8.2-2.4 2.8V44h-2V27.2h2V36h.1l2.2-2.8 4.9-6h2.4l-5.9 7.1 6 9.7h-2.2z"/>
  </g>
  <g transform="translate(314)">
    <circle cx="35" cy="35" r="35" fill="#6ea6ff"/>
    <path d="M39.3 44l-5.1-8.2-2.4 2.8V44h-2V27.2h2V36h.1l2.2-2.8 4.9-6h2.4l-5.9 7.1 6 9.7h-2.2z"/>
  </g>
  <g transform="translate(392)">
    <circle cx="35" cy="35" r="35" fill="#418cff"/>
    <path d="M39.3 44l-5.1-8.2-2.4 2.8V44h-2V27.2h2V36h.1l2.2-2.8 4.9-6h2.4l-5.9 7.1 6 9.7h-2.2z"/>
  </g>
  <g transform="translate(469)">
    <circle cx="35" cy="35" r="35" fill="#0062ff"/>
    <path class="st4" d="M32.9 44H30l-1.3-16.8h1.8l.7 9.6.4 5.1h.2L34 31.6h2.3l2.2 10.3h.2l.4-5.1.7-9.6h1.8L40 44h-2.9l-2-10h-.2l-2 10z"/>
  </g>
  <g transform="translate(546)">
    <circle cx="35" cy="35" r="35" fill="#054ada"/>
    <path class="st4" d="M32.9 44H30l-1.3-16.8h1.8l.7 9.6.4 5.1h.2L34 31.6h2.3l2.2 10.3h.2l.4-5.1.7-9.6h1.8L40 44h-2.9l-2-10h-.2l-2 10z"/>
  </g>
  <g transform="translate(624)">
    <circle cx="35" cy="35" r="35" fill="#0530ad"/>
    <path class="st4" d="M33.9 44H31l-1.3-16.8h1.8l.7 9.6.4 5.1h.2L35 31.6h2.3l2.2 10.3h.2l.4-5.1.7-9.6h1.8L41 44h-2.9l-2-10h-.2l-2 10z"/>
  </g>
  <g transform="translate(701)">
    <circle cx="35" cy="35" r="35" fill="#061f80"/>
    <path class="st4" d="M32.9 44H30l-1.3-16.8h1.8l.7 9.6.4 5.1h.2L34 31.6h2.3l2.2 10.3h.2l.4-5.1.7-9.6h1.8L40 44h-2.9l-2-10h-.2l-2 10z"/>
  </g>
  <g transform="translate(778)">
    <circle cx="35" cy="35" r="35" fill="#051243"/>
    <path class="st4" d="M32.9 44H30l-1.3-16.8h1.8l.7 9.6.4 5.1h.2L34 31.6h2.3l2.2 10.3h.2l.4-5.1.7-9.6h1.8L40 44h-2.9l-2-10h-.2l-2 10z"/>
  </g>
  <g transform="translate(855)">
    <circle cx="35" cy="35" r="35"/>
    <path class="st4" d="M32.9 44H30l-1.3-16.8h1.8l.7 9.6.4 5.1h.2L34 31.6h2.3l2.2 10.3h.2l.4-5.1.7-9.6h1.8L40 44h-2.9l-2-10h-.2l-2 10z"/>
  </g>
</svg>