<?xml version="1.0" encoding="utf-8"?>
<!-- Generator: Adobe Illustrator 22.1.0, SVG Export Plug-In . SVG Version: 6.00 Build 0)  -->
<svg version="1.1" id="Layer_1" xmlns="http://www.w3.org/2000/svg" xmlns:xlink="http://www.w3.org/1999/xlink" x="0px" y="0px"
	 viewBox="0 0 926 120" style="enable-background:new 0 0 926 120;" xml:space="preserve">
<style type="text/css">
	.st0{fill:#F3F3F3;}
	.st1{enable-background:new    ;}
	.st2{fill:#252525;}
	.st3{fill:#0062FF;}
	.st4{fill:#FFFFFF;}
	.st5{fill:#EDF4FF;}
	.st6{fill:#C9DEFF;}
	.st7{fill:#97C1FF;}
	.st8{fill:#6EA6FF;}
	.st9{fill:#418CFF;}
	.st10{fill:#054ADA;}
	.st11{fill:#0530AD;}
	.st12{fill:#24A249;}
	.st13{fill:#061F80;}
	.st14{fill:#051243;}
	.st15{fill:#EE538B;}
	.st16{fill:none;}
</style>
<path class="st0" d="M0,0h933v120H0V0z"/>
<g class="st1">
	<path class="st2" d="M34.4,115l-1-2.9h-3.9l-1,2.9h-1.2l3.4-9.8h1.5l3.4,9.8H34.4z M31.5,106.3l-1.7,4.8h3.4
		C33.2,111.1,31.5,106.3,31.5,106.3z M39.9,115.2c-0.5,0-1-0.1-1.4-0.3c-0.4-0.2-0.7-0.4-1-0.8c-0.3-0.3-0.5-0.7-0.6-1.2
		s-0.2-1-0.2-1.6s0.1-1.1,0.2-1.6s0.4-0.9,0.6-1.2c0.3-0.3,0.6-0.6,1-0.8c0.4-0.2,0.9-0.3,1.4-0.3c0.7,0,1.3,0.2,1.7,0.5
		s0.8,0.7,1,1.2l-0.9,0.5c-0.1-0.4-0.3-0.7-0.6-0.9c-0.3-0.2-0.7-0.3-1.1-0.3c-0.3,0-0.6,0.1-0.9,0.2c-0.3,0.1-0.5,0.3-0.6,0.4
		s-0.3,0.4-0.4,0.7c-0.1,0.3-0.1,0.6-0.1,0.9v1.2c0,0.6,0.2,1.2,0.5,1.6s0.8,0.6,1.5,0.6c0.9,0,1.6-0.4,2-1.3l0.8,0.5
		c-0.2,0.5-0.6,0.9-1,1.2S40.5,115.2,39.9,115.2L39.9,115.2z M46.8,115.2c-0.5,0-1-0.1-1.4-0.3c-0.4-0.2-0.7-0.4-1-0.8
		c-0.3-0.3-0.5-0.7-0.6-1.2s-0.2-1-0.2-1.6s0.1-1.1,0.2-1.6s0.4-0.9,0.6-1.2c0.3-0.3,0.6-0.6,1-0.8c0.4-0.2,0.9-0.3,1.4-0.3
		c0.7,0,1.3,0.2,1.7,0.5s0.8,0.7,1,1.2l-0.9,0.5c-0.1-0.4-0.3-0.7-0.6-0.9c-0.3-0.2-0.7-0.3-1.1-0.3c-0.3,0-0.6,0.1-0.9,0.2
		c-0.3,0.1-0.5,0.3-0.6,0.4s-0.3,0.4-0.4,0.7c-0.1,0.3-0.1,0.6-0.1,0.9v1.2c0,0.6,0.2,1.2,0.5,1.6s0.8,0.6,1.5,0.6
		c0.9,0,1.6-0.4,2-1.3l0.8,0.5c-0.2,0.5-0.6,0.9-1,1.2S47.5,115.2,46.8,115.2L46.8,115.2z M53.8,115.2c-0.5,0-0.9-0.1-1.3-0.3
		c-0.4-0.2-0.7-0.4-1-0.8c-0.3-0.3-0.5-0.7-0.7-1.2s-0.2-1-0.2-1.6s0.1-1.1,0.2-1.6c0.2-0.5,0.4-0.9,0.7-1.2c0.3-0.3,0.6-0.6,1-0.8
		c0.4-0.2,0.8-0.3,1.3-0.3s0.9,0.1,1.3,0.3s0.7,0.4,1,0.7c0.3,0.3,0.5,0.7,0.6,1.1s0.2,0.9,0.2,1.4v0.5h-5.2v0.3
		c0,0.3,0,0.6,0.1,0.9s0.2,0.5,0.4,0.7s0.4,0.3,0.7,0.5c0.3,0.1,0.6,0.2,0.9,0.2c0.5,0,0.9-0.1,1.2-0.3c0.3-0.2,0.6-0.5,0.8-0.9
		l0.8,0.6c-0.2,0.5-0.6,0.9-1.1,1.2C55.1,115,54.5,115.2,53.8,115.2L53.8,115.2z M53.8,108.5c-0.3,0-0.6,0.1-0.8,0.2
		s-0.5,0.3-0.7,0.5s-0.3,0.4-0.4,0.7c-0.1,0.3-0.2,0.6-0.2,0.9v0.1h4v-0.2c0-0.6-0.2-1.2-0.5-1.5C54.8,108.7,54.4,108.5,53.8,108.5z
		 M60.9,115.2c-0.7,0-1.2-0.1-1.7-0.4s-0.8-0.6-1.2-1l0.8-0.6c0.3,0.4,0.6,0.6,0.9,0.8c0.3,0.2,0.7,0.3,1.2,0.3s0.8-0.1,1.1-0.3
		s0.4-0.5,0.4-0.9c0-0.3-0.1-0.5-0.3-0.7s-0.5-0.3-1-0.4l-0.6-0.1c-0.3,0-0.6-0.1-0.9-0.2c-0.3-0.1-0.5-0.2-0.7-0.4
		s-0.4-0.4-0.5-0.6s-0.2-0.5-0.2-0.9s0.1-0.7,0.2-0.9c0.1-0.3,0.3-0.5,0.5-0.7s0.5-0.3,0.8-0.4s0.7-0.1,1-0.1c0.6,0,1.1,0.1,1.5,0.3
		c0.4,0.2,0.7,0.5,1,0.9l-0.7,0.7c-0.2-0.2-0.4-0.4-0.7-0.6s-0.7-0.3-1.2-0.3s-0.8,0.1-1.1,0.3c-0.2,0.2-0.4,0.5-0.4,0.8
		c0,0.4,0.1,0.6,0.4,0.8c0.2,0.2,0.6,0.3,1,0.3l0.6,0.1c0.8,0.1,1.4,0.4,1.7,0.7c0.3,0.3,0.5,0.8,0.5,1.3c0,0.7-0.2,1.3-0.7,1.7
		C62.4,115,61.8,115.2,60.9,115.2L60.9,115.2z M67.7,115.2c-0.7,0-1.2-0.1-1.7-0.4s-0.8-0.6-1.2-1l0.8-0.6c0.3,0.4,0.6,0.6,0.9,0.8
		c0.3,0.2,0.7,0.3,1.2,0.3s0.8-0.1,1.1-0.3s0.4-0.5,0.4-0.9c0-0.3-0.1-0.5-0.3-0.7c-0.2-0.2-0.5-0.3-1-0.4l-0.6-0.1
		c-0.3,0-0.6-0.1-0.9-0.2s-0.5-0.2-0.7-0.4s-0.4-0.4-0.5-0.6s-0.2-0.5-0.2-0.9s0.1-0.7,0.2-0.9c0.1-0.3,0.3-0.5,0.5-0.7
		s0.5-0.3,0.8-0.4s0.7-0.1,1-0.1c0.6,0,1.1,0.1,1.5,0.3c0.4,0.2,0.7,0.5,1,0.9l-0.7,0.7c-0.2-0.2-0.4-0.4-0.7-0.6
		c-0.3-0.2-0.7-0.3-1.2-0.3s-0.8,0.1-1.1,0.3c-0.2,0.2-0.4,0.5-0.4,0.8c0,0.4,0.1,0.6,0.4,0.8c0.2,0.2,0.6,0.3,1,0.3l0.6,0.1
		c0.8,0.1,1.4,0.4,1.7,0.7c0.3,0.3,0.5,0.8,0.5,1.3c0,0.7-0.2,1.3-0.7,1.7C69.2,115,68.5,115.2,67.7,115.2L67.7,115.2z M72.9,106.1
		c-0.2,0-0.4-0.1-0.5-0.2s-0.2-0.3-0.2-0.5v-0.2c0-0.2,0.1-0.3,0.2-0.5c0.1-0.1,0.3-0.2,0.5-0.2s0.4,0.1,0.5,0.2s0.2,0.3,0.2,0.5
		v0.2c0,0.2-0.1,0.3-0.2,0.5C73.3,106,73.1,106.1,72.9,106.1z M72.3,107.8h1.1v7.2h-1.1V107.8z M75.8,104.6h1.1v4.3H77
		c0.2-0.5,0.5-0.8,0.8-1c0.4-0.2,0.8-0.3,1.3-0.3c0.4,0,0.9,0.1,1.2,0.3c0.4,0.2,0.7,0.4,0.9,0.8c0.3,0.3,0.5,0.7,0.6,1.2
		s0.2,1,0.2,1.6s-0.1,1.1-0.2,1.6s-0.3,0.9-0.6,1.2c-0.3,0.3-0.6,0.6-0.9,0.8c-0.4,0.2-0.8,0.3-1.2,0.3c-1,0-1.7-0.4-2.1-1.3h-0.1
		v1.2h-1.1C75.8,115.3,75.8,104.6,75.8,104.6z M78.8,114.2c0.6,0,1.1-0.2,1.5-0.6s0.5-0.9,0.5-1.6v-1.2c0-0.6-0.2-1.2-0.5-1.6
		c-0.4-0.4-0.9-0.6-1.5-0.6c-0.3,0-0.5,0-0.7,0.1l-0.6,0.3c-0.2,0.1-0.3,0.3-0.4,0.4S77,109.8,77,110v2.7c0,0.2,0,0.4,0.1,0.6
		s0.2,0.3,0.4,0.5s0.4,0.2,0.6,0.3C78.3,114.1,78.5,114.2,78.8,114.2z M85.1,115c-0.4,0-0.7-0.1-0.9-0.3c-0.2-0.2-0.3-0.5-0.3-0.8
		v-9.2H85v9.4h1.1v1C86.1,115.1,85.1,115,85.1,115z M90.5,115.2c-0.5,0-0.9-0.1-1.3-0.3c-0.4-0.2-0.7-0.4-1-0.8
		c-0.3-0.3-0.5-0.7-0.7-1.2s-0.2-1-0.2-1.6s0.1-1.1,0.2-1.6c0.2-0.5,0.4-0.9,0.7-1.2c0.3-0.3,0.6-0.6,1-0.8c0.4-0.2,0.8-0.3,1.3-0.3
		s0.9,0.1,1.3,0.3s0.7,0.4,1,0.7c0.3,0.3,0.5,0.7,0.6,1.1s0.2,0.9,0.2,1.4v0.5h-5.2v0.3c0,0.3,0,0.6,0.1,0.9s0.2,0.5,0.4,0.7
		c0.2,0.2,0.4,0.3,0.7,0.5c0.3,0.1,0.6,0.2,0.9,0.2c0.5,0,0.9-0.1,1.2-0.3c0.3-0.2,0.6-0.5,0.8-0.9l0.8,0.6
		c-0.2,0.5-0.6,0.9-1.1,1.2C91.7,115,91.1,115.2,90.5,115.2L90.5,115.2z M90.5,108.5c-0.3,0-0.6,0.1-0.8,0.2s-0.5,0.3-0.7,0.5
		s-0.3,0.4-0.4,0.7c-0.1,0.3-0.2,0.6-0.2,0.9v0.1h4v-0.2c0-0.6-0.2-1.2-0.5-1.5C91.5,108.7,91,108.5,90.5,108.5z"/>
</g>
<g class="st1">
	<path class="st2" d="M189.7,109l-1.2-2.2v8.1h-1.1v-9.8h1.4l3.6,6l1.2,2.2v-8.1h1.1v9.8h-1.4L189.7,109z M199.8,115.2
		c-0.5,0-0.9-0.1-1.3-0.3c-0.4-0.2-0.7-0.4-1-0.8c-0.3-0.3-0.5-0.7-0.7-1.2s-0.2-1-0.2-1.6s0.1-1.1,0.2-1.6s0.4-0.9,0.7-1.2
		c0.3-0.3,0.6-0.6,1-0.8c0.4-0.2,0.8-0.3,1.3-0.3s0.9,0.1,1.3,0.3c0.4,0.2,0.7,0.4,1,0.8c0.3,0.3,0.5,0.7,0.7,1.2s0.2,1,0.2,1.6
		s-0.1,1.1-0.2,1.6s-0.4,0.9-0.7,1.2c-0.3,0.3-0.6,0.6-1,0.8C200.7,115.1,200.3,115.2,199.8,115.2z M199.8,114.2
		c0.6,0,1.1-0.2,1.5-0.6s0.6-0.9,0.6-1.7v-1c0-0.8-0.2-1.3-0.6-1.7s-0.9-0.6-1.5-0.6s-1.1,0.2-1.5,0.6s-0.6,0.9-0.6,1.7v1
		c0,0.8,0.2,1.3,0.6,1.7C198.7,114,199.2,114.2,199.8,114.2z M206.5,115c-0.4,0-0.7-0.1-0.9-0.3s-0.3-0.5-0.3-0.9v-5h-1.2v-1h0.7
		c0.2,0,0.4,0,0.5-0.1s0.1-0.3,0.1-0.5v-1.3h1v2h1.6v1h-1.6v5.2h1.5v1L206.5,115L206.5,115z M219.4,115l-1-2.9h-3.9l-1,2.9h-1.2
		l3.4-9.8h1.5l3.4,9.8H219.4z M216.4,106.3l-1.7,4.8h3.4L216.4,106.3z M224.8,115.2c-0.5,0-1-0.1-1.4-0.3c-0.4-0.2-0.7-0.4-1-0.8
		c-0.3-0.3-0.5-0.7-0.6-1.2s-0.2-1-0.2-1.6s0.1-1.1,0.2-1.6s0.4-0.9,0.6-1.2c0.3-0.3,0.6-0.6,1-0.8c0.4-0.2,0.9-0.3,1.4-0.3
		c0.7,0,1.3,0.2,1.7,0.5s0.8,0.7,1,1.2l-0.9,0.5c-0.1-0.4-0.3-0.7-0.6-0.9c-0.3-0.2-0.7-0.3-1.1-0.3c-0.3,0-0.6,0.1-0.9,0.2
		c-0.3,0.1-0.5,0.3-0.6,0.4s-0.3,0.4-0.4,0.7c-0.1,0.3-0.1,0.6-0.1,0.9v1.2c0,0.6,0.2,1.2,0.5,1.6s0.8,0.6,1.5,0.6
		c0.9,0,1.6-0.4,2-1.3l0.8,0.5c-0.2,0.5-0.6,0.9-1,1.2S225.5,115.2,224.8,115.2L224.8,115.2z M231.8,115.2c-0.5,0-1-0.1-1.4-0.3
		c-0.4-0.2-0.7-0.4-1-0.8c-0.3-0.3-0.5-0.7-0.6-1.2s-0.2-1-0.2-1.6s0.1-1.1,0.2-1.6s0.4-0.9,0.6-1.2c0.3-0.3,0.6-0.6,1-0.8
		c0.4-0.2,0.9-0.3,1.4-0.3c0.7,0,1.3,0.2,1.7,0.5s0.8,0.7,1,1.2l-0.9,0.5c-0.1-0.4-0.3-0.7-0.6-0.9c-0.3-0.2-0.7-0.3-1.1-0.3
		c-0.3,0-0.6,0.1-0.9,0.2c-0.3,0.1-0.5,0.3-0.6,0.4s-0.3,0.4-0.4,0.7c-0.1,0.3-0.1,0.6-0.1,0.9v1.2c0,0.6,0.2,1.2,0.5,1.6
		s0.8,0.6,1.5,0.6c0.9,0,1.6-0.4,2-1.3l0.8,0.5c-0.2,0.5-0.6,0.9-1,1.2S232.5,115.2,231.8,115.2L231.8,115.2z M238.8,115.2
		c-0.5,0-0.9-0.1-1.3-0.3c-0.4-0.2-0.7-0.4-1-0.8c-0.3-0.3-0.5-0.7-0.7-1.2s-0.2-1-0.2-1.6s0.1-1.1,0.2-1.6c0.2-0.5,0.4-0.9,0.7-1.2
		c0.3-0.3,0.6-0.6,1-0.8c0.4-0.2,0.8-0.3,1.3-0.3s0.9,0.1,1.3,0.3s0.7,0.4,1,0.7c0.3,0.3,0.5,0.7,0.6,1.1s0.2,0.9,0.2,1.4v0.5h-5.2
		v0.3c0,0.3,0,0.6,0.1,0.9s0.2,0.5,0.4,0.7s0.4,0.3,0.7,0.5c0.3,0.1,0.6,0.2,0.9,0.2c0.5,0,0.9-0.1,1.2-0.3c0.3-0.2,0.6-0.5,0.8-0.9
		l0.8,0.6c-0.2,0.5-0.6,0.9-1.1,1.2C240,115,239.4,115.2,238.8,115.2L238.8,115.2z M238.8,108.5c-0.3,0-0.6,0.1-0.8,0.2
		s-0.5,0.3-0.7,0.5s-0.3,0.4-0.4,0.7c-0.1,0.3-0.2,0.6-0.2,0.9v0.1h4v-0.2c0-0.6-0.2-1.2-0.5-1.5
		C239.8,108.7,239.3,108.5,238.8,108.5L238.8,108.5z M245.9,115.2c-0.7,0-1.2-0.1-1.7-0.4s-0.8-0.6-1.2-1l0.8-0.6
		c0.3,0.4,0.6,0.6,0.9,0.8c0.3,0.2,0.7,0.3,1.2,0.3s0.8-0.1,1.1-0.3s0.4-0.5,0.4-0.9c0-0.3-0.1-0.5-0.3-0.7s-0.5-0.3-1-0.4l-0.6-0.1
		c-0.3,0-0.6-0.1-0.9-0.2c-0.3-0.1-0.5-0.2-0.7-0.4s-0.4-0.4-0.5-0.6s-0.2-0.5-0.2-0.9s0.1-0.7,0.2-0.9c0.1-0.3,0.3-0.5,0.5-0.7
		s0.5-0.3,0.8-0.4s0.7-0.1,1-0.1c0.6,0,1.1,0.1,1.5,0.3c0.4,0.2,0.7,0.5,1,0.9l-0.7,0.7c-0.2-0.2-0.4-0.4-0.7-0.6s-0.7-0.3-1.2-0.3
		s-0.8,0.1-1.1,0.3c-0.2,0.2-0.4,0.5-0.4,0.8c0,0.4,0.1,0.6,0.4,0.8c0.2,0.2,0.6,0.3,1,0.3l0.6,0.1c0.8,0.1,1.4,0.4,1.7,0.7
		c0.3,0.3,0.5,0.8,0.5,1.3c0,0.7-0.2,1.3-0.7,1.7C247.4,115,246.7,115.2,245.9,115.2L245.9,115.2z M252.6,115.2
		c-0.7,0-1.2-0.1-1.7-0.4s-0.8-0.6-1.2-1l0.8-0.6c0.3,0.4,0.6,0.6,0.9,0.8c0.3,0.2,0.7,0.3,1.2,0.3s0.8-0.1,1.1-0.3s0.4-0.5,0.4-0.9
		c0-0.3-0.1-0.5-0.3-0.7s-0.5-0.3-1-0.4l-0.6-0.1c-0.3,0-0.6-0.1-0.9-0.2c-0.3-0.1-0.5-0.2-0.7-0.4s-0.4-0.4-0.5-0.6
		s-0.2-0.5-0.2-0.9s0.1-0.7,0.2-0.9c0.1-0.3,0.3-0.5,0.5-0.7s0.5-0.3,0.8-0.4s0.7-0.1,1-0.1c0.6,0,1.1,0.1,1.5,0.3
		c0.4,0.2,0.7,0.5,1,0.9l-0.7,0.7c-0.2-0.2-0.4-0.4-0.7-0.6s-0.7-0.3-1.2-0.3s-0.8,0.1-1.1,0.3c-0.2,0.2-0.4,0.5-0.4,0.8
		c0,0.4,0.1,0.6,0.4,0.8c0.2,0.2,0.6,0.3,1,0.3l0.6,0.1c0.8,0.1,1.4,0.4,1.7,0.7c0.3,0.3,0.5,0.8,0.5,1.3c0,0.7-0.2,1.3-0.7,1.7
		C254.1,115,253.5,115.2,252.6,115.2L252.6,115.2z M257.8,106.1c-0.2,0-0.4-0.1-0.5-0.2s-0.2-0.3-0.2-0.5v-0.2
		c0-0.2,0.1-0.3,0.2-0.5c0.1-0.1,0.3-0.2,0.5-0.2s0.4,0.1,0.5,0.2s0.2,0.3,0.2,0.5v0.2c0,0.2-0.1,0.3-0.2,0.5
		C258.3,106,258.1,106.1,257.8,106.1z M257.3,107.8h1.1v7.2h-1.1V107.8z M260.8,104.6h1.1v4.3h0.1c0.2-0.5,0.5-0.8,0.8-1
		c0.4-0.2,0.8-0.3,1.3-0.3c0.4,0,0.9,0.1,1.2,0.3c0.4,0.2,0.7,0.4,0.9,0.8c0.3,0.3,0.5,0.7,0.6,1.2s0.2,1,0.2,1.6s-0.1,1.1-0.2,1.6
		s-0.3,0.9-0.6,1.2c-0.3,0.3-0.6,0.6-0.9,0.8c-0.4,0.2-0.8,0.3-1.2,0.3c-1,0-1.7-0.4-2.1-1.3h-0.1v1.2h-1.1L260.8,104.6L260.8,104.6
		z M263.8,114.2c0.6,0,1.1-0.2,1.5-0.6s0.5-0.9,0.5-1.6v-1.2c0-0.6-0.2-1.2-0.5-1.6c-0.4-0.4-0.9-0.6-1.5-0.6c-0.3,0-0.5,0-0.7,0.1
		l-0.6,0.3c-0.2,0.1-0.3,0.3-0.4,0.4s-0.1,0.4-0.1,0.6v2.7c0,0.2,0,0.4,0.1,0.6s0.2,0.3,0.4,0.5s0.4,0.2,0.6,0.3
		C263.3,114.1,263.5,114.2,263.8,114.2z M270.1,115c-0.4,0-0.7-0.1-0.9-0.3c-0.2-0.2-0.3-0.5-0.3-0.8v-9.2h1.1v9.4h1.1v1L270.1,115
		L270.1,115z M275.4,115.2c-0.5,0-0.9-0.1-1.3-0.3c-0.4-0.2-0.7-0.4-1-0.8c-0.3-0.3-0.5-0.7-0.7-1.2s-0.2-1-0.2-1.6s0.1-1.1,0.2-1.6
		c0.2-0.5,0.4-0.9,0.7-1.2c0.3-0.3,0.6-0.6,1-0.8c0.4-0.2,0.8-0.3,1.3-0.3s0.9,0.1,1.3,0.3s0.7,0.4,1,0.7c0.3,0.3,0.5,0.7,0.6,1.1
		s0.2,0.9,0.2,1.4v0.5h-5.2v0.3c0,0.3,0,0.6,0.1,0.9s0.2,0.5,0.4,0.7c0.2,0.2,0.4,0.3,0.7,0.5c0.3,0.1,0.6,0.2,0.9,0.2
		c0.5,0,0.9-0.1,1.2-0.3c0.3-0.2,0.6-0.5,0.8-0.9l0.8,0.6c-0.2,0.5-0.6,0.9-1.1,1.2C276.7,115,276.1,115.2,275.4,115.2L275.4,115.2z
		 M275.4,108.5c-0.3,0-0.6,0.1-0.8,0.2s-0.5,0.3-0.7,0.5s-0.3,0.4-0.4,0.7c-0.1,0.3-0.2,0.6-0.2,0.9v0.1h4v-0.2
		c0-0.6-0.2-1.2-0.5-1.5C276.5,108.7,276,108.5,275.4,108.5z"/>
</g>
<circle class="st3" cx="505" cy="35" r="35"/>
<g transform="translate(1)">
	<circle class="st3" cx="35" cy="35" r="35"/>
	<path class="st4" d="M31.9,44H29l-1.3-16.8h1.8l0.7,9.6l0.4,5.1h0.2L33,31.6h2.3l2.2,10.3h0.2l0.4-5.1l0.7-9.6h1.8L39,44h-2.9
		l-2-10h-0.2C33.9,34,31.9,44,31.9,44z"/>
</g>
<g transform="translate(78)">
	<circle class="st3" cx="35" cy="35" r="35"/>
	<path class="st5" d="M32.9,44H21.6v-1.8h4.8V29.1l-4.9,2.8l-0.8-1.5l5.5-3.1h2.2v15h4.4C32.9,42.2,32.9,44,32.9,44z M41.2,44.3
		c-4.1,0-5.9-3.2-5.9-8.7s1.8-8.7,5.9-8.7s5.9,3.2,5.9,8.7S45.3,44.3,41.2,44.3z M41.2,42.5c2.7,0,3.8-2.2,3.8-5.5v-2.7
		c0-3.4-1.1-5.5-3.8-5.5s-3.8,2.2-3.8,5.5V37C37.4,40.4,38.5,42.5,41.2,42.5z M41.2,37c-1.1,0-1.5-0.5-1.5-1.2v-0.5
		c0-0.6,0.4-1.2,1.5-1.2s1.5,0.5,1.5,1.2v0.5C42.7,36.5,42.3,37,41.2,37z"/>
</g>
<g transform="translate(159)">
	<circle class="st3" cx="35" cy="35" r="35"/>
	<path class="st6" d="M32.5,42.2V44H21.3v-2.1l5.6-5c1.6-1.5,2.8-3,2.8-4.7v-0.3c0-2-1.1-3.2-3.1-3.2s-3.1,1.1-3.6,2.9l-1.8-0.7
		c0.6-2,2.2-3.9,5.4-3.9c3.3,0,5.2,2,5.2,4.8c0,2.5-1.5,4.4-3.7,6.4l-4.7,4.1C23.4,42.2,32.5,42.2,32.5,42.2z M41.2,44.3
		c-4.1,0-5.9-3.2-5.9-8.7s1.8-8.7,5.9-8.7s5.9,3.2,5.9,8.7S45.3,44.3,41.2,44.3z M41.2,42.5c2.7,0,3.8-2.2,3.8-5.5v-2.7
		c0-3.4-1.1-5.5-3.8-5.5s-3.8,2.2-3.8,5.5V37C37.4,40.4,38.5,42.5,41.2,42.5z M41.2,37c-1.1,0-1.5-0.5-1.5-1.2v-0.5
		c0-0.6,0.4-1.2,1.5-1.2s1.5,0.5,1.5,1.2v0.5C42.7,36.5,42.3,37,41.2,37z"/>
</g>
<g transform="translate(236)">
	<circle class="st3" cx="35" cy="35" r="35"/>
	<path class="st7" d="M25.2,34.4H27c2.3,0,3.5-1.2,3.5-2.8v-0.2c0-1.8-1.2-2.7-3.1-2.7c-1.8,0-2.8,0.9-3.5,2.1l-1.5-1.2
		c0.9-1.3,2.4-2.7,5.1-2.7c2.9,0,5.1,1.5,5.1,4.2c0,2.2-1.4,3.5-3.3,3.9v0.1c1.8,0.4,3.6,1.7,3.6,4.2c0,2.9-2.3,4.9-5.8,4.9
		c-3,0-4.5-1.4-5.5-2.9l1.5-1.2c0.9,1.3,1.9,2.3,4,2.3c2.4,0,3.7-1.2,3.7-3.1v-0.2c0-2-1.2-3.1-3.7-3.1h-2
		C25.2,36.1,25.2,34.4,25.2,34.4z M42.2,44.3c-4.1,0-5.9-3.2-5.9-8.7s1.8-8.7,5.9-8.7s5.9,3.2,5.9,8.7S46.3,44.3,42.2,44.3z
		 M42.2,42.5c2.7,0,3.8-2.2,3.8-5.5v-2.7c0-3.4-1.1-5.5-3.8-5.5s-3.8,2.2-3.8,5.5V37C38.4,40.4,39.5,42.5,42.2,42.5z M42.2,37
		c-1.1,0-1.5-0.5-1.5-1.2v-0.5c0-0.6,0.4-1.2,1.5-1.2s1.5,0.5,1.5,1.2v0.5C43.7,36.5,43.3,37,42.2,37z"/>
</g>
<g transform="translate(315)">
	<circle class="st3" cx="35" cy="35" r="35"/>
	<path class="st8" d="M31.6,44h-1.9v-3.3h-8.3v-1.8l7.2-11.7h2.9V39H34v1.7h-2.5C31.6,40.7,31.6,44,31.6,44z M29.6,28.8L23.2,39h6.5
		L29.6,28.8C29.7,28.8,29.6,28.8,29.6,28.8z M42.2,44.3c-4.1,0-5.9-3.2-5.9-8.7s1.8-8.7,5.9-8.7s5.9,3.2,5.9,8.7
		S46.3,44.3,42.2,44.3z M42.2,42.5c2.7,0,3.8-2.2,3.8-5.5v-2.7c0-3.4-1.1-5.5-3.8-5.5s-3.8,2.2-3.8,5.5V37
		C38.4,40.4,39.5,42.5,42.2,42.5z M42.2,37c-1.1,0-1.5-0.5-1.5-1.2v-0.5c0-0.6,0.4-1.2,1.5-1.2s1.5,0.5,1.5,1.2v0.5
		C43.7,36.5,43.3,37,42.2,37z"/>
</g>
<g transform="translate(392)">
	<circle class="st3" cx="35" cy="35" r="35"/>
	<path class="st9" d="M32.6,27.2V29h-7.5l-0.5,6.4h0.2c0.8-1.1,1.7-1.8,3.5-1.8c2.9,0,5.1,1.9,5.1,5.2s-2.1,5.5-5.7,5.5
		c-2.8,0-4.3-1.4-5.3-2.9l1.5-1.2c0.9,1.3,1.8,2.3,3.9,2.3c2.3,0,3.6-1.3,3.6-3.5v-0.2c0-2.2-1.3-3.5-3.6-3.5
		c-1.6,0-2.4,0.6-3.1,1.4L23,36.5l0.6-9.2C23.5,27.2,32.6,27.2,32.6,27.2z M42.2,44.3c-4.1,0-5.9-3.2-5.9-8.7s1.8-8.7,5.9-8.7
		s5.9,3.2,5.9,8.7S46.3,44.3,42.2,44.3z M42.2,42.5c2.7,0,3.8-2.2,3.8-5.5v-2.7c0-3.4-1.1-5.5-3.8-5.5s-3.8,2.2-3.8,5.5V37
		C38.4,40.4,39.5,42.5,42.2,42.5z M42.2,37c-1.1,0-1.5-0.5-1.5-1.2v-0.5c0-0.6,0.4-1.2,1.5-1.2s1.5,0.5,1.5,1.2v0.5
		C43.7,36.5,43.3,37,42.2,37z"/>
</g>
<g transform="translate(547)">
	<circle class="st3" cx="35" cy="35" r="35"/>
	<path class="st10" d="M26.9,44h-2.2l6.6-15H24v3.1h-1.8v-4.8h11.2V29C33.4,29,26.9,44,26.9,44z M42.2,44.3c-4.1,0-5.9-3.2-5.9-8.7
		s1.8-8.7,5.9-8.7s5.9,3.2,5.9,8.7S46.3,44.3,42.2,44.3z M42.2,42.5c2.7,0,3.8-2.2,3.8-5.5v-2.7c0-3.4-1.1-5.5-3.8-5.5
		s-3.8,2.2-3.8,5.5V37C38.4,40.4,39.5,42.5,42.2,42.5z M42.2,37c-1.1,0-1.5-0.5-1.5-1.2v-0.5c0-0.6,0.4-1.2,1.5-1.2s1.5,0.5,1.5,1.2
		v0.5C43.7,36.5,43.3,37,42.2,37z"/>
</g>
<g transform="translate(624)">
	<circle class="st3" cx="35" cy="35" r="35"/>
	<path class="st11" d="M27.8,44.3c-3.9,0-5.9-2.1-5.9-4.8c0-2.3,1.4-3.6,3.4-4.2v-0.2c-1.8-0.6-2.9-2-2.9-3.9c0-2.5,2-4.2,5.4-4.2
		s5.4,1.7,5.4,4.2c0,1.9-1.1,3.3-2.9,3.9v0.2c2,0.6,3.4,1.9,3.4,4.2C33.7,42.2,31.7,44.3,27.8,44.3z M27.8,42.6c2.4,0,3.8-1.1,3.8-3
		V39c0-1.9-1.4-3-3.8-3S24,37.1,24,39v0.5C24,41.5,25.4,42.6,27.8,42.6z M27.8,34.4c2.2,0,3.3-1,3.3-2.7v-0.3c0-1.7-1.2-2.7-3.3-2.7
		s-3.3,1-3.3,2.7v0.3C24.5,33.4,25.6,34.4,27.8,34.4z M42.2,44.3c-4.1,0-5.9-3.2-5.9-8.7s1.8-8.7,5.9-8.7s5.9,3.2,5.9,8.7
		S46.3,44.3,42.2,44.3z M42.2,42.5c2.7,0,3.8-2.2,3.8-5.5v-2.7c0-3.4-1.1-5.5-3.8-5.5s-3.8,2.2-3.8,5.5V37
		C38.4,40.4,39.5,42.5,42.2,42.5z M42.2,37c-1.1,0-1.5-0.5-1.5-1.2v-0.5c0-0.6,0.4-1.2,1.5-1.2s1.5,0.5,1.5,1.2v0.5
		C43.7,36.5,43.3,37,42.2,37z"/>
</g>
<path class="st12" d="M2.5,86.5H156v-3h2v8h-2v-3H2.5v3h-2v-8h2V86.5z"/>
<g transform="translate(702)">
	<circle class="st3" cx="35" cy="35" r="35"/>
	<path class="st13" d="M34.5,33.4c0,5-3.3,8.9-6.1,10.6h-2.6c3.6-2.6,5.7-4.8,6.6-8.7h-0.1c-0.8,1.4-2,2.4-4.1,2.4c-2.9,0-5-2-5-5.2
		c0-3.3,2.2-5.5,5.6-5.5C32.3,27,34.5,29.4,34.5,33.4z M28.8,36c2.3,0,3.6-1.3,3.6-3.6v-0.2c0-2.3-1.3-3.6-3.6-3.6s-3.6,1.3-3.6,3.6
		v0.2C25.2,34.7,26.5,36,28.8,36z M43.2,44.3c-4.1,0-5.9-3.2-5.9-8.7s1.8-8.7,5.9-8.7s5.9,3.2,5.9,8.7S47.3,44.3,43.2,44.3z
		 M43.2,42.5c2.7,0,3.8-2.2,3.8-5.5v-2.7c0-3.4-1.1-5.5-3.8-5.5s-3.8,2.2-3.8,5.5V37C39.4,40.4,40.5,42.5,43.2,42.5z M43.2,37
		c-1.1,0-1.5-0.5-1.5-1.2v-0.5c0-0.6,0.4-1.2,1.5-1.2s1.5,0.5,1.5,1.2v0.5C44.7,36.5,44.3,37,43.2,37z"/>
</g>
<g transform="translate(779)">
	<circle class="st3" cx="35" cy="35" r="35"/>
	<path class="st14" d="M26.7,44H15.4v-1.8h4.8V29.1l-4.9,2.8l-0.8-1.5l5.5-3.1h2.2v15h4.4V44H26.7z M35,44.3c-4.1,0-5.9-3.2-5.9-8.7
		S30.9,27,35,27s5.9,3.2,5.9,8.7S39.1,44.3,35,44.3z M35,42.5c2.7,0,3.8-2.2,3.8-5.5v-2.7c0-3.4-1.1-5.5-3.8-5.5s-3.8,2.2-3.8,5.5
		V37C31.2,40.4,32.3,42.5,35,42.5z M35,37c-1.1,0-1.5-0.5-1.5-1.2v-0.5c0-0.6,0.4-1.2,1.5-1.2s1.5,0.5,1.5,1.2v0.5
		C36.5,36.5,36.1,37,35,37z M49.4,44.3c-4.1,0-5.9-3.2-5.9-8.7s1.8-8.7,5.9-8.7s5.9,3.2,5.9,8.7S53.5,44.3,49.4,44.3z M49.4,42.5
		c2.7,0,3.8-2.2,3.8-5.5v-2.7c0-3.4-1.1-5.5-3.8-5.5s-3.8,2.2-3.8,5.5V37C45.6,40.4,46.7,42.5,49.4,42.5z M49.4,37
		c-1.1,0-1.5-0.5-1.5-1.2v-0.5c0-0.6,0.4-1.2,1.5-1.2s1.5,0.5,1.5,1.2v0.5C50.9,36.5,50.5,37,49.4,37z"/>
</g>
<g transform="translate(856)">
	<circle class="st3" cx="35" cy="35" r="35"/>
	<path d="M38.3,44l-5.1-8.2l-2.4,2.8V44h-2V27.2h2V36h0.1l2.2-2.8l4.9-6h2.4l-5.9,7.1l6,9.7C40.5,44,38.3,44,38.3,44z"/>
</g>
<path class="st15" d="M162,89v-2h4v2H162z M171,89v-2h4v2H171z M180,89v-2h4v2H180z M189,89v-2h4v2H189z M198,89v-2h4v2H198z
	 M207,89v-2h4v2H207z M216,89v-2h4v2H216z M225,89v-2h4v2H225z M234,89v-2h4v2H234z M243,89v-2h4v2H243z M252,89v-2h4v2H252z
	 M261,89v-2h4v2H261z M270,89v-2h4v2H270z M279,89v-2h4v2H279z M288,89v-2h4v2H288z M297,89v-2h4v2H297z M306,89v-2h4v2H306z
	 M315,89v-2h4v2H315z M324,89v-2h4v2H324z M333,89v-2h4v2H333z M342,89v-2h4v2H342z M351,89v-2h4v2H351z M360,89v-2h4v2H360z
	 M369,89v-2h4v2H369z M378,89v-2h4v2H378z M387,89v-2h4v2H387z M396,89v-2h4v2H396z M405,89v-2h4v2H405z M414,89v-2h4v2H414z
	 M423,89v-2h4v2H423z M432,89v-2h4v2H432z M441,89v-2h4v2H441z M450,89v-2h4v2H450z M459,89v-2h4v2H459z M468,89v-2h4v2H468z
	 M477,89v-2h4v2H477z M486,89v-2h4v2H486z M495,89v-2h4v2H495z M504,89v-2h4v2H504z M513,89v-2h4v2H513z M522,89v-2h4v2H522z
	 M531,89v-2h4v2H531z M540,89v-2h4v2H540z M549,89v-2h4v2H549z M558,89v-2h4v2H558z M567,89v-2h4v2H567z M576,89v-2h4v2H576z
	 M585,89v-2h4v2H585z M594,89v-2h4v2H594z M603,89v-2h4v2H603z M612,89v-2h4v2H612z M621,89v-2h4v2H621z M630,89v-2h4v2H630z
	 M639,89v-2h4v2H639z M648,89v-2h4v2H648z M657,89v-2h4v2H657z M666,89v-2h4v2H666z M675,89v-2h4v2H675z M684,89v-2h4v2H684z
	 M693,89v-2h4v2H693z M702,89v-2h4v2H702z M711,89v-2h4v2H711z M720,89v-2h4v2H720z M729,89v-2h4v2H729z M738,89v-2h4v2H738z
	 M747,89v-2h4v2H747z M756,89v-2h4v2H756z M765,89v-2h4v2H765z M774,89v-2h4v2H774z M783,89v-2h4v2H783z M792,89v-2h4v2H792z
	 M801,89v-2h4v2H801z M810,89v-2h4v2H810z M819,89v-2h4v2H819z M828,89v-2h4v2H828z M837,89v-2h4v2H837z M846,89v-2h4v2H846z
	 M855,89v-2h4v2H855z M864,89v-2h4v2H864z M873,89v-2h4v2H873z M882,89v-2h4v2H882z M891,89v-2h4v2H891z M900,89v-2h4v2H900z
	 M909,89v-2h4v2H909z M918,89v-2h4v2H918z"/>
<g transform="translate(1.25 102.25)">
	<path id="a_1_" class="st12" d="M8.8,0C3.9,0,0,3.9,0,8.8c0,4.8,3.9,8.8,8.8,8.8c4.8,0,8.8-3.9,8.8-8.8C17.5,3.9,13.6,0,8.8,0z"/>
</g>
<path class="st4" d="M14.4,108.8l-0.9-0.9l-4.8,4.8l-2.2-2.3l-0.8,0.9l3.1,3.1C8.8,114.3,14.4,108.8,14.4,108.8z"/>
<path class="st16" d="M0,101h20v20H0V101z"/>
<g>
	<path class="st15" d="M169,102.2c-4.8,0-8.8,3.9-8.8,8.8s3.9,8.8,8.8,8.8s8.8-3.9,8.8-8.8S173.8,102.2,169,102.2z"/>
	<path class="st4" d="M173.4,107.5l-0.9-0.9l-3.5,3.5l-3.5-3.5l-0.9,0.9l3.5,3.5l-3.5,3.5l0.9,0.9l3.5-3.5l3.5,3.5l0.9-0.9l-3.5-3.5
		L173.4,107.5z"/>
	<path class="st16" d="M159,101h20v20h-20V101z"/>
</g>
</svg>
