<?xml version="1.0" encoding="UTF-8"?>
<svg width="926px" height="120px" viewBox="0 0 926 120" version="1.1" xmlns="http://www.w3.org/2000/svg" xmlns:xlink="http://www.w3.org/1999/xlink">
    <title>wcag-dos-donts-desktop</title>
    <g id="wcag-dos-donts-desktop" stroke="none" stroke-width="1" fill="none" fill-rule="evenodd">
        <g id="Group-51">
            <text id="Accessible" font-family="IBMPlexSans, IBM Plex Sans" font-size="14" font-weight="normal" line-spacing="20" fill="#252525">
                <tspan x="27" y="115">Accessible</tspan>
            </text>
            <text id="Not-Accessible-Copy" font-family="IBMPlexSans, IBM Plex Sans" font-size="14" font-weight="normal" line-spacing="20" fill="#252525">
                <tspan x="186" y="115">Not Accessible</tspan>
            </text>
            <circle id="Oval-2-Copy-36" fill="#0F62FE" cx="659" cy="35" r="35"></circle>
            <circle id="Oval-2-Copy-38" fill="#0F62FE" cx="194" cy="35" r="35"></circle>
            <circle id="Oval-2-Copy-40" fill="#0F62FE" cx="36" cy="35" r="35"></circle>
            <circle id="Oval-2-Copy-41" fill="#0F62FE" cx="113" cy="35" r="35"></circle>
            <circle id="Oval-2-Copy-43" fill="#0F62FE" cx="350" cy="35" r="35"></circle>
            <circle id="Oval-2-Copy-45" fill="#0F62FE" cx="505" cy="35" r="35"></circle>
            <circle id="Oval-2-Copy-47" fill="#0F62FE" cx="271" cy="35" r="35"></circle>
            <circle id="Oval-2-Copy-49" fill="#0F62FE" cx="427" cy="35" r="35"></circle>
            <circle id="Oval-2-Copy-51" fill="#0F62FE" cx="582" cy="35" r="35"></circle>
            <text id="W-Copy-6" font-family="IBMPlexMono, IBM Plex Mono" font-size="24" font-weight="normal" line-spacing="20" fill="#FFFFFF">
                <tspan x="21.56" y="42.1439209">W</tspan>
            </text>
            <text id="10-copy-2" font-family="IBMPlexMono, IBM Plex Mono" font-size="24" font-weight="normal" line-spacing="20" fill="#EDF5FF">
                <tspan x="91.36" y="42.1439209">10</tspan>
            </text>
            <text id="20-copy-2" font-family="IBMPlexMono, IBM Plex Mono" font-size="24" font-weight="normal" line-spacing="20" fill="#D0E2FF">
                <tspan x="172.36" y="42.1439209">20</tspan>
            </text>
            <text id="30-copy-2" font-family="IBMPlexMono, IBM Plex Mono" font-size="24" font-weight="normal" line-spacing="20" fill="#A6C8FF">
                <tspan x="250.36" y="42.1439209">30</tspan>
            </text>
            <text id="40-copy-2" font-family="IBMPlexMono, IBM Plex Mono" font-size="24" font-weight="normal" line-spacing="20" fill="#78A9FF">
                <tspan x="329.36" y="42.1439209">40</tspan>
            </text>
            <text id="50-copy-2" font-family="IBMPlexMono, IBM Plex Mono" font-size="24" font-weight="normal" line-spacing="20" fill="#4589FF">
                <tspan x="406.36" y="42.1439209">50</tspan>
            </text>
            <text id="70-copy-2" font-family="IBMPlexMono, IBM Plex Mono" font-size="24" font-weight="normal" line-spacing="20" fill="#0043CE">
                <tspan x="561.36" y="42.1439209">70</tspan>
            </text>
            <text id="80" font-family="IBMPlexMono, IBM Plex Mono" font-size="24" font-weight="normal" line-spacing="20" fill="#002D9C">
                <tspan x="638.36" y="42.1439209">80</tspan>
            </text>
            <circle id="Oval-2-Copy-53" fill="#0F62FE" cx="814" cy="35" r="35"></circle>
            <circle id="Oval-2-Copy-55" fill="#0F62FE" cx="737" cy="35" r="35"></circle>
            <circle id="Oval-2-Copy-58" fill="#0F62FE" cx="891" cy="35" r="35"></circle>
            <path id="Line-2-Copy" d="M157.65315,94.5 L155.65315,94.5 L155.653,88.5 L2.5,88.5 L2.5,94.5 L0.5,94.5 L0.5,80.5 L2.5,80.5 L2.5,86.5 L155.653,86.5 L155.65315,80.5 L157.65315,80.5 L157.65315,94.5 Z" fill="#198038" fill-rule="nonzero"></path>
            <text id="90-copy-2" font-family="IBMPlexMono, IBM Plex Mono" font-size="24" font-weight="normal" line-spacing="20" fill="#001D6C">
                <tspan x="717.36" y="42.1439209">90</tspan>
            </text>
            <text id="100-copy-2" font-family="IBMPlexMono, IBM Plex Mono" font-size="24" font-weight="normal" line-spacing="20" fill="#001141">
                <tspan x="786.16" y="42.1439209">100</tspan>
            </text>
            <text id="K-Copy-12" font-family="IBMPlexMono, IBM Plex Mono" font-size="24" font-weight="normal" line-spacing="20" fill="#000000">
                <tspan x="876.56" y="42.1439209">K</tspan>
            </text>
            <circle id="Oval-5" fill="#FFFFFF" cx="10" cy="111" r="7"></circle>
            <path d="M10,102.25 C14.8125,102.25 18.75,106.1875 18.75,111 C18.75,115.8125 14.8125,119.75 10,119.75 C5.1875,119.75 1.25,115.8125 1.25,111 C1.25,106.1875 5.1875,102.25 10,102.25 Z M13.5,107.875 L8.75,112.625 L6.5,110.375 L5.625,111.25 L8.75,114.375 L14.375,108.75 L13.5,107.875 Z" id="Mask" fill="#198038" fill-rule="nonzero"></path>
            <line x1="163" y1="88" x2="927" y2="88" id="Line-2-Copy-3" stroke="#DA1E28" stroke-width="2" stroke-linecap="square" stroke-dasharray="2,7"></line>
            <path d="M169,102.25 C164.167508,102.25 160.25,106.167508 160.25,111 C160.25,115.832492 164.167508,119.75 169,119.75 C173.832492,119.75 177.75,115.832492 177.75,111 C177.75,108.679356 176.828128,106.453759 175.187184,104.812816 C173.546241,103.171872 171.320644,102.25 169,102.25 Z" id="Shape" fill="#DA1E28" fill-rule="nonzero"></path>
            <polygon id="Shape" fill="#FFFFFF" fill-rule="nonzero" points="173.375 107.50625 172.49375 106.625 169 110.11875 165.50625 106.625 164.625 107.50625 168.11875 111 164.625 114.49375 165.50625 115.375 169 111.88125 172.49375 115.375 173.375 114.49375 169.88125 111"></polygon>
            <rect id="Rectangle-path" x="159" y="101" width="20" height="20"></rect>
        </g>
    </g>
</svg>