<svg id="Layer_1" xmlns="http://www.w3.org/2000/svg" viewBox="0 0 926 120">
  <style>
    .st1{enable-background:new}.st2{fill:#252525}.st3{fill:#0062ff}.st4{fill:#fff}.st12{fill:#24a249}.st15{fill:#ee538b}.st16{fill:none}
  </style>
  <path d="M-4-5h934v128H-4V-5z" fill="#f3f3f3"/>
  <g class="st1">
    <path class="st2" d="M34.4 115l-1-2.9h-3.9l-1 2.9h-1.2l3.4-9.8h1.5l3.4 9.8h-1.2zm-2.9-8.7l-1.7 4.8h3.4l-1.7-4.8zm8.4 8.9c-.5 0-1-.1-1.4-.3-.4-.2-.7-.4-1-.8-.3-.3-.5-.7-.6-1.2s-.2-1-.2-1.6.1-1.1.2-1.6.4-.9.6-1.2c.3-.3.6-.6 1-.8.4-.2.9-.3 1.4-.3.7 0 1.3.2 1.7.5s.8.7 1 1.2l-.9.5c-.1-.4-.3-.7-.6-.9-.3-.2-.7-.3-1.1-.3-.3 0-.6.1-.9.2-.3.1-.5.3-.6.4s-.3.4-.4.7c-.1.3-.1.6-.1.9v1.2c0 .6.2 1.2.5 1.6s.8.6 1.5.6c.9 0 1.6-.4 2-1.3l.8.5c-.2.5-.6.9-1 1.2s-1.3.8-1.9.8zm6.9 0c-.5 0-1-.1-1.4-.3-.4-.2-.7-.4-1-.8-.3-.3-.5-.7-.6-1.2s-.2-1-.2-1.6.1-1.1.2-1.6.4-.9.6-1.2c.3-.3.6-.6 1-.8.4-.2.9-.3 1.4-.3.7 0 1.3.2 1.7.5s.8.7 1 1.2l-.9.5c-.1-.4-.3-.7-.6-.9-.3-.2-.7-.3-1.1-.3-.3 0-.6.1-.9.2-.3.1-.5.3-.6.4s-.3.4-.4.7c-.1.3-.1.6-.1.9v1.2c0 .6.2 1.2.5 1.6s.8.6 1.5.6c.9 0 1.6-.4 2-1.3l.8.5c-.2.5-.6.9-1 1.2s-1.2.8-1.9.8zm7 0c-.5 0-.9-.1-1.3-.3-.4-.2-.7-.4-1-.8-.3-.3-.5-.7-.7-1.2s-.2-1-.2-1.6.1-1.1.2-1.6c.2-.5.4-.9.7-1.2.3-.3.6-.6 1-.8.4-.2.8-.3 1.3-.3s.9.1 1.3.3.7.4 1 .7c.3.3.5.7.6 1.1s.2.9.2 1.4v.5h-5.2v.3c0 .3 0 .6.1.9s.2.5.4.7.4.3.7.5c.3.1.6.2.9.2.5 0 .9-.1 1.2-.3.3-.2.6-.5.8-.9l.8.6c-.2.5-.6.9-1.1 1.2-.4.4-1 .6-1.7.6zm0-6.7c-.3 0-.6.1-.8.2s-.5.3-.7.5-.3.4-.4.7c-.1.3-.2.6-.2.9v.1h4v-.2c0-.6-.2-1.2-.5-1.5-.4-.5-.8-.7-1.4-.7zm7.1 6.7c-.7 0-1.2-.1-1.7-.4s-.8-.6-1.2-1l.8-.6c.3.4.6.6.9.8.3.2.7.3 1.2.3s.8-.1 1.1-.3.4-.5.4-.9c0-.3-.1-.5-.3-.7s-.5-.3-1-.4l-.6-.1c-.3 0-.6-.1-.9-.2-.3-.1-.5-.2-.7-.4s-.4-.4-.5-.6-.2-.5-.2-.9.1-.7.2-.9c.1-.3.3-.5.5-.7s.5-.3.8-.4.7-.1 1-.1c.6 0 1.1.1 1.5.3.4.2.7.5 1 .9l-.7.7c-.2-.2-.4-.4-.7-.6s-.7-.3-1.2-.3-.8.1-1.1.3c-.2.2-.4.5-.4.8 0 .4.1.6.4.8.2.2.6.3 1 .3l.6.1c.8.1 1.4.4 1.7.7.3.3.5.8.5 1.3 0 .7-.2 1.3-.7 1.7-.2.3-.8.5-1.7.5zm6.8 0c-.7 0-1.2-.1-1.7-.4s-.8-.6-1.2-1l.8-.6c.3.4.6.6.9.8.3.2.7.3 1.2.3s.8-.1 1.1-.3.4-.5.4-.9c0-.3-.1-.5-.3-.7-.2-.2-.5-.3-1-.4l-.6-.1c-.3 0-.6-.1-.9-.2s-.5-.2-.7-.4-.4-.4-.5-.6-.2-.5-.2-.9.1-.7.2-.9c.1-.3.3-.5.5-.7s.5-.3.8-.4.7-.1 1-.1c.6 0 1.1.1 1.5.3.4.2.7.5 1 .9l-.7.7c-.2-.2-.4-.4-.7-.6-.3-.2-.7-.3-1.2-.3s-.8.1-1.1.3c-.2.2-.4.5-.4.8 0 .4.1.6.4.8.2.2.6.3 1 .3l.6.1c.8.1 1.4.4 1.7.7.3.3.5.8.5 1.3 0 .7-.2 1.3-.7 1.7-.2.3-.9.5-1.7.5zm5.2-9.1c-.2 0-.4-.1-.5-.2s-.2-.3-.2-.5v-.2c0-.2.1-.3.2-.5.1-.1.3-.2.5-.2s.4.1.5.2.2.3.2.5v.2c0 .2-.1.3-.2.5-.1.1-.3.2-.5.2zm-.6 1.7h1.1v7.2h-1.1v-7.2zm3.5-3.2h1.1v4.3h.1c.2-.5.5-.8.8-1 .4-.2.8-.3 1.3-.3.4 0 .9.1 1.2.3.4.2.7.4.9.8.3.3.5.7.6 1.2s.2 1 .2 1.6-.1 1.1-.2 1.6-.3.9-.6 1.2c-.3.3-.6.6-.9.8-.4.2-.8.3-1.2.3-1 0-1.7-.4-2.1-1.3h-.1v1.2h-1.1v-10.7zm3 9.6c.6 0 1.1-.2 1.5-.6s.5-.9.5-1.6v-1.2c0-.6-.2-1.2-.5-1.6-.4-.4-.9-.6-1.5-.6-.3 0-.5 0-.7.1l-.6.3c-.2.1-.3.3-.4.4s-.1.4-.1.6v2.7c0 .2 0 .4.1.6s.2.3.4.5.4.2.6.3c.2 0 .4.1.7.1zm6.3.8c-.4 0-.7-.1-.9-.3-.2-.2-.3-.5-.3-.8v-9.2H85v9.4h1.1v1l-1-.1zm5.4.2c-.5 0-.9-.1-1.3-.3-.4-.2-.7-.4-1-.8-.3-.3-.5-.7-.7-1.2s-.2-1-.2-1.6.1-1.1.2-1.6c.2-.5.4-.9.7-1.2.3-.3.6-.6 1-.8.4-.2.8-.3 1.3-.3s.9.1 1.3.3.7.4 1 .7c.3.3.5.7.6 1.1s.2.9.2 1.4v.5h-5.2v.3c0 .3 0 .6.1.9s.2.5.4.7c.2.2.4.3.7.5.3.1.6.2.9.2.5 0 .9-.1 1.2-.3.3-.2.6-.5.8-.9l.8.6c-.2.5-.6.9-1.1 1.2-.5.4-1.1.6-1.7.6zm0-6.7c-.3 0-.6.1-.8.2s-.5.3-.7.5-.3.4-.4.7c-.1.3-.2.6-.2.9v.1h4v-.2c0-.6-.2-1.2-.5-1.5-.4-.5-.9-.7-1.4-.7z"/>
  </g>
  <g class="st1">
    <path class="st2" d="M189.7 109l-1.2-2.2v8.1h-1.1v-9.8h1.4l3.6 6 1.2 2.2v-8.1h1.1v9.8h-1.4l-3.6-6zm10.1 6.2c-.5 0-.9-.1-1.3-.3-.4-.2-.7-.4-1-.8-.3-.3-.5-.7-.7-1.2s-.2-1-.2-1.6.1-1.1.2-1.6.4-.9.7-1.2c.3-.3.6-.6 1-.8.4-.2.8-.3 1.3-.3s.9.1 1.3.3c.4.2.7.4 1 .8.3.3.5.7.7 1.2s.2 1 .2 1.6-.1 1.1-.2 1.6-.4.9-.7 1.2c-.3.3-.6.6-1 .8-.4.2-.8.3-1.3.3zm0-1c.6 0 1.1-.2 1.5-.6s.6-.9.6-1.7v-1c0-.8-.2-1.3-.6-1.7s-.9-.6-1.5-.6-1.1.2-1.5.6-.6.9-.6 1.7v1c0 .8.2 1.3.6 1.7.4.4.9.6 1.5.6zm6.7.8c-.4 0-.7-.1-.9-.3s-.3-.5-.3-.9v-5h-1.2v-1h.7c.2 0 .4 0 .5-.1s.1-.3.1-.5v-1.3h1v2h1.6v1h-1.6v5.2h1.5v1l-1.4-.1zm12.9 0l-1-2.9h-3.9l-1 2.9h-1.2l3.4-9.8h1.5l3.4 9.8h-1.2zm-3-8.7l-1.7 4.8h3.4l-1.7-4.8zm8.4 8.9c-.5 0-1-.1-1.4-.3-.4-.2-.7-.4-1-.8-.3-.3-.5-.7-.6-1.2s-.2-1-.2-1.6.1-1.1.2-1.6.4-.9.6-1.2c.3-.3.6-.6 1-.8.4-.2.9-.3 1.4-.3.7 0 1.3.2 1.7.5s.8.7 1 1.2l-.9.5c-.1-.4-.3-.7-.6-.9-.3-.2-.7-.3-1.1-.3-.3 0-.6.1-.9.2-.3.1-.5.3-.6.4s-.3.4-.4.7c-.1.3-.1.6-.1.9v1.2c0 .6.2 1.2.5 1.6s.8.6 1.5.6c.9 0 1.6-.4 2-1.3l.8.5c-.2.5-.6.9-1 1.2s-1.2.8-1.9.8zm7 0c-.5 0-1-.1-1.4-.3-.4-.2-.7-.4-1-.8-.3-.3-.5-.7-.6-1.2s-.2-1-.2-1.6.1-1.1.2-1.6.4-.9.6-1.2c.3-.3.6-.6 1-.8.4-.2.9-.3 1.4-.3.7 0 1.3.2 1.7.5s.8.7 1 1.2l-.9.5c-.1-.4-.3-.7-.6-.9-.3-.2-.7-.3-1.1-.3-.3 0-.6.1-.9.2-.3.1-.5.3-.6.4s-.3.4-.4.7c-.1.3-.1.6-.1.9v1.2c0 .6.2 1.2.5 1.6s.8.6 1.5.6c.9 0 1.6-.4 2-1.3l.8.5c-.2.5-.6.9-1 1.2s-1.2.8-1.9.8zm7 0c-.5 0-.9-.1-1.3-.3-.4-.2-.7-.4-1-.8-.3-.3-.5-.7-.7-1.2s-.2-1-.2-1.6.1-1.1.2-1.6c.2-.5.4-.9.7-1.2.3-.3.6-.6 1-.8.4-.2.8-.3 1.3-.3s.9.1 1.3.3.7.4 1 .7c.3.3.5.7.6 1.1s.2.9.2 1.4v.5h-5.2v.3c0 .3 0 .6.1.9s.2.5.4.7.4.3.7.5c.3.1.6.2.9.2.5 0 .9-.1 1.2-.3.3-.2.6-.5.8-.9l.8.6c-.2.5-.6.9-1.1 1.2-.5.4-1.1.6-1.7.6zm0-6.7c-.3 0-.6.1-.8.2s-.5.3-.7.5-.3.4-.4.7c-.1.3-.2.6-.2.9v.1h4v-.2c0-.6-.2-1.2-.5-1.5-.4-.5-.9-.7-1.4-.7zm7.1 6.7c-.7 0-1.2-.1-1.7-.4s-.8-.6-1.2-1l.8-.6c.3.4.6.6.9.8.3.2.7.3 1.2.3s.8-.1 1.1-.3.4-.5.4-.9c0-.3-.1-.5-.3-.7s-.5-.3-1-.4l-.6-.1c-.3 0-.6-.1-.9-.2-.3-.1-.5-.2-.7-.4s-.4-.4-.5-.6-.2-.5-.2-.9.1-.7.2-.9c.1-.3.3-.5.5-.7s.5-.3.8-.4.7-.1 1-.1c.6 0 1.1.1 1.5.3.4.2.7.5 1 .9l-.7.7c-.2-.2-.4-.4-.7-.6s-.7-.3-1.2-.3-.8.1-1.1.3c-.2.2-.4.5-.4.8 0 .4.1.6.4.8.2.2.6.3 1 .3l.6.1c.8.1 1.4.4 1.7.7.3.3.5.8.5 1.3 0 .7-.2 1.3-.7 1.7-.2.3-.9.5-1.7.5zm6.7 0c-.7 0-1.2-.1-1.7-.4s-.8-.6-1.2-1l.8-.6c.3.4.6.6.9.8.3.2.7.3 1.2.3s.8-.1 1.1-.3.4-.5.4-.9c0-.3-.1-.5-.3-.7s-.5-.3-1-.4l-.6-.1c-.3 0-.6-.1-.9-.2-.3-.1-.5-.2-.7-.4s-.4-.4-.5-.6-.2-.5-.2-.9.1-.7.2-.9c.1-.3.3-.5.5-.7s.5-.3.8-.4.7-.1 1-.1c.6 0 1.1.1 1.5.3.4.2.7.5 1 .9l-.7.7c-.2-.2-.4-.4-.7-.6s-.7-.3-1.2-.3-.8.1-1.1.3c-.2.2-.4.5-.4.8 0 .4.1.6.4.8.2.2.6.3 1 .3l.6.1c.8.1 1.4.4 1.7.7.3.3.5.8.5 1.3 0 .7-.2 1.3-.7 1.7-.2.3-.8.5-1.7.5zm5.2-9.1c-.2 0-.4-.1-.5-.2s-.2-.3-.2-.5v-.2c0-.2.1-.3.2-.5.1-.1.3-.2.5-.2s.4.1.5.2.2.3.2.5v.2c0 .2-.1.3-.2.5 0 .1-.2.2-.5.2zm-.5 1.7h1.1v7.2h-1.1v-7.2zm3.5-3.2h1.1v4.3h.1c.2-.5.5-.8.8-1 .4-.2.8-.3 1.3-.3.4 0 .9.1 1.2.3.4.2.7.4.9.8.3.3.5.7.6 1.2s.2 1 .2 1.6-.1 1.1-.2 1.6-.3.9-.6 1.2c-.3.3-.6.6-.9.8-.4.2-.8.3-1.2.3-1 0-1.7-.4-2.1-1.3h-.1v1.2h-1.1v-10.7zm3 9.6c.6 0 1.1-.2 1.5-.6s.5-.9.5-1.6v-1.2c0-.6-.2-1.2-.5-1.6-.4-.4-.9-.6-1.5-.6-.3 0-.5 0-.7.1l-.6.3c-.2.1-.3.3-.4.4s-.1.4-.1.6v2.7c0 .2 0 .4.1.6s.2.3.4.5.4.2.6.3c.2 0 .4.1.7.1zm6.3.8c-.4 0-.7-.1-.9-.3-.2-.2-.3-.5-.3-.8v-9.2h1.1v9.4h1.1v1l-1-.1zm5.3.2c-.5 0-.9-.1-1.3-.3-.4-.2-.7-.4-1-.8-.3-.3-.5-.7-.7-1.2s-.2-1-.2-1.6.1-1.1.2-1.6c.2-.5.4-.9.7-1.2.3-.3.6-.6 1-.8.4-.2.8-.3 1.3-.3s.9.1 1.3.3.7.4 1 .7c.3.3.5.7.6 1.1s.2.9.2 1.4v.5h-5.2v.3c0 .3 0 .6.1.9s.2.5.4.7c.2.2.4.3.7.5.3.1.6.2.9.2.5 0 .9-.1 1.2-.3.3-.2.6-.5.8-.9l.8.6c-.2.5-.6.9-1.1 1.2-.4.4-1 .6-1.7.6zm0-6.7c-.3 0-.6.1-.8.2s-.5.3-.7.5-.3.4-.4.7c-.1.3-.2.6-.2.9v.1h4v-.2c0-.6-.2-1.2-.5-1.5-.3-.5-.8-.7-1.4-.7z"/>
  </g>
  <circle class="st3" cx="505" cy="35" r="35"/>
  <g transform="translate(1)">
    <circle class="st3" cx="35" cy="35" r="35"/>
    <path class="st4" d="M31.9 44H29l-1.3-16.8h1.8l.7 9.6.4 5.1h.2L33 31.6h2.3l2.2 10.3h.2l.4-5.1.7-9.6h1.8L39 44h-2.9l-2-10h-.2l-2 10z"/>
  </g>
  <g transform="translate(78)">
    <circle class="st3" cx="35" cy="35" r="35"/>
    <path d="M32.9 44H21.6v-1.8h4.8V29.1l-4.9 2.8-.8-1.5 5.5-3.1h2.2v15h4.4c.1-.1.1 1.7.1 1.7zm8.3.3c-4.1 0-5.9-3.2-5.9-8.7s1.8-8.7 5.9-8.7 5.9 3.2 5.9 8.7-1.8 8.7-5.9 8.7zm0-1.8c2.7 0 3.8-2.2 3.8-5.5v-2.7c0-3.4-1.1-5.5-3.8-5.5s-3.8 2.2-3.8 5.5V37c0 3.4 1.1 5.5 3.8 5.5zm0-5.5c-1.1 0-1.5-.5-1.5-1.2v-.5c0-.6.4-1.2 1.5-1.2s1.5.5 1.5 1.2v.5c0 .7-.4 1.2-1.5 1.2z" fill="#edf4ff"/>
  </g>
  <g transform="translate(159)">
    <circle class="st3" cx="35" cy="35" r="35"/>
    <path d="M32.5 42.2V44H21.3v-2.1l5.6-5c1.6-1.5 2.8-3 2.8-4.7v-.3c0-2-1.1-3.2-3.1-3.2s-3.1 1.1-3.6 2.9l-1.8-.7c.6-2 2.2-3.9 5.4-3.9 3.3 0 5.2 2 5.2 4.8 0 2.5-1.5 4.4-3.7 6.4l-4.7 4.1c0-.1 9.1-.1 9.1-.1zm8.7 2.1c-4.1 0-5.9-3.2-5.9-8.7s1.8-8.7 5.9-8.7 5.9 3.2 5.9 8.7-1.8 8.7-5.9 8.7zm0-1.8c2.7 0 3.8-2.2 3.8-5.5v-2.7c0-3.4-1.1-5.5-3.8-5.5s-3.8 2.2-3.8 5.5V37c0 3.4 1.1 5.5 3.8 5.5zm0-5.5c-1.1 0-1.5-.5-1.5-1.2v-.5c0-.6.4-1.2 1.5-1.2s1.5.5 1.5 1.2v.5c0 .7-.4 1.2-1.5 1.2z" fill="#c9deff"/>
  </g>
  <g transform="translate(236)">
    <circle class="st3" cx="35" cy="35" r="35"/>
    <path d="M25.2 34.4H27c2.3 0 3.5-1.2 3.5-2.8v-.2c0-1.8-1.2-2.7-3.1-2.7-1.8 0-2.8.9-3.5 2.1l-1.5-1.2c.9-1.3 2.4-2.7 5.1-2.7 2.9 0 5.1 1.5 5.1 4.2 0 2.2-1.4 3.5-3.3 3.9v.1c1.8.4 3.6 1.7 3.6 4.2 0 2.9-2.3 4.9-5.8 4.9-3 0-4.5-1.4-5.5-2.9l1.5-1.2c.9 1.3 1.9 2.3 4 2.3 2.4 0 3.7-1.2 3.7-3.1v-.2c0-2-1.2-3.1-3.7-3.1h-2c.1.1.1-1.6.1-1.6zm17 9.9c-4.1 0-5.9-3.2-5.9-8.7s1.8-8.7 5.9-8.7 5.9 3.2 5.9 8.7-1.8 8.7-5.9 8.7zm0-1.8c2.7 0 3.8-2.2 3.8-5.5v-2.7c0-3.4-1.1-5.5-3.8-5.5s-3.8 2.2-3.8 5.5V37c0 3.4 1.1 5.5 3.8 5.5zm0-5.5c-1.1 0-1.5-.5-1.5-1.2v-.5c0-.6.4-1.2 1.5-1.2s1.5.5 1.5 1.2v.5c0 .7-.4 1.2-1.5 1.2z" fill="#97c1ff"/>
  </g>
  <g transform="translate(315)">
    <circle class="st3" cx="35" cy="35" r="35"/>
    <path d="M31.6 44h-1.9v-3.3h-8.3v-1.8l7.2-11.7h2.9V39H34v1.7h-2.5c.1 0 .1 3.3.1 3.3zm-2-15.2L23.2 39h6.5l-.1-10.2c.1 0 0 0 0 0zm12.6 15.5c-4.1 0-5.9-3.2-5.9-8.7s1.8-8.7 5.9-8.7 5.9 3.2 5.9 8.7-1.8 8.7-5.9 8.7zm0-1.8c2.7 0 3.8-2.2 3.8-5.5v-2.7c0-3.4-1.1-5.5-3.8-5.5s-3.8 2.2-3.8 5.5V37c0 3.4 1.1 5.5 3.8 5.5zm0-5.5c-1.1 0-1.5-.5-1.5-1.2v-.5c0-.6.4-1.2 1.5-1.2s1.5.5 1.5 1.2v.5c0 .7-.4 1.2-1.5 1.2z" fill="#6ea6ff"/>
  </g>
  <g transform="translate(392)">
    <circle class="st3" cx="35" cy="35" r="35"/>
    <path d="M32.6 27.2V29h-7.5l-.5 6.4h.2c.8-1.1 1.7-1.8 3.5-1.8 2.9 0 5.1 1.9 5.1 5.2s-2.1 5.5-5.7 5.5c-2.8 0-4.3-1.4-5.3-2.9l1.5-1.2c.9 1.3 1.8 2.3 3.9 2.3 2.3 0 3.6-1.3 3.6-3.5v-.2c0-2.2-1.3-3.5-3.6-3.5-1.6 0-2.4.6-3.1 1.4l-1.7-.2.6-9.2c-.1-.1 9-.1 9-.1zm9.6 17.1c-4.1 0-5.9-3.2-5.9-8.7s1.8-8.7 5.9-8.7 5.9 3.2 5.9 8.7-1.8 8.7-5.9 8.7zm0-1.8c2.7 0 3.8-2.2 3.8-5.5v-2.7c0-3.4-1.1-5.5-3.8-5.5s-3.8 2.2-3.8 5.5V37c0 3.4 1.1 5.5 3.8 5.5zm0-5.5c-1.1 0-1.5-.5-1.5-1.2v-.5c0-.6.4-1.2 1.5-1.2s1.5.5 1.5 1.2v.5c0 .7-.4 1.2-1.5 1.2z" fill="#418cff"/>
  </g>
  <g transform="translate(547)">
    <circle class="st3" cx="35" cy="35" r="35"/>
    <path d="M26.9 44h-2.2l6.6-15H24v3.1h-1.8v-4.8h11.2V29l-6.5 15zm15.3.3c-4.1 0-5.9-3.2-5.9-8.7s1.8-8.7 5.9-8.7 5.9 3.2 5.9 8.7-1.8 8.7-5.9 8.7zm0-1.8c2.7 0 3.8-2.2 3.8-5.5v-2.7c0-3.4-1.1-5.5-3.8-5.5s-3.8 2.2-3.8 5.5V37c0 3.4 1.1 5.5 3.8 5.5zm0-5.5c-1.1 0-1.5-.5-1.5-1.2v-.5c0-.6.4-1.2 1.5-1.2s1.5.5 1.5 1.2v.5c0 .7-.4 1.2-1.5 1.2z" fill="#054ada"/>
  </g>
  <g transform="translate(624)">
    <circle class="st3" cx="35" cy="35" r="35"/>
    <path d="M27.8 44.3c-3.9 0-5.9-2.1-5.9-4.8 0-2.3 1.4-3.6 3.4-4.2v-.2c-1.8-.6-2.9-2-2.9-3.9 0-2.5 2-4.2 5.4-4.2s5.4 1.7 5.4 4.2c0 1.9-1.1 3.3-2.9 3.9v.2c2 .6 3.4 1.9 3.4 4.2 0 2.7-2 4.8-5.9 4.8zm0-1.7c2.4 0 3.8-1.1 3.8-3V39c0-1.9-1.4-3-3.8-3S24 37.1 24 39v.5c0 2 1.4 3.1 3.8 3.1zm0-8.2c2.2 0 3.3-1 3.3-2.7v-.3c0-1.7-1.2-2.7-3.3-2.7s-3.3 1-3.3 2.7v.3c0 1.7 1.1 2.7 3.3 2.7zm14.4 9.9c-4.1 0-5.9-3.2-5.9-8.7s1.8-8.7 5.9-8.7 5.9 3.2 5.9 8.7-1.8 8.7-5.9 8.7zm0-1.8c2.7 0 3.8-2.2 3.8-5.5v-2.7c0-3.4-1.1-5.5-3.8-5.5s-3.8 2.2-3.8 5.5V37c0 3.4 1.1 5.5 3.8 5.5zm0-5.5c-1.1 0-1.5-.5-1.5-1.2v-.5c0-.6.4-1.2 1.5-1.2s1.5.5 1.5 1.2v.5c0 .7-.4 1.2-1.5 1.2z" fill="#0530ad"/>
  </g>
  <path class="st12" d="M2.5 86.5H156v-3h2v8h-2v-3H2.5v3h-2v-8h2v3z"/>
  <g transform="translate(702)">
    <circle class="st3" cx="35" cy="35" r="35"/>
    <path d="M34.5 33.4c0 5-3.3 8.9-6.1 10.6h-2.6c3.6-2.6 5.7-4.8 6.6-8.7h-.1c-.8 1.4-2 2.4-4.1 2.4-2.9 0-5-2-5-5.2 0-3.3 2.2-5.5 5.6-5.5 3.5 0 5.7 2.4 5.7 6.4zM28.8 36c2.3 0 3.6-1.3 3.6-3.6v-.2c0-2.3-1.3-3.6-3.6-3.6s-3.6 1.3-3.6 3.6v.2c0 2.3 1.3 3.6 3.6 3.6zm14.4 8.3c-4.1 0-5.9-3.2-5.9-8.7s1.8-8.7 5.9-8.7 5.9 3.2 5.9 8.7-1.8 8.7-5.9 8.7zm0-1.8c2.7 0 3.8-2.2 3.8-5.5v-2.7c0-3.4-1.1-5.5-3.8-5.5s-3.8 2.2-3.8 5.5V37c0 3.4 1.1 5.5 3.8 5.5zm0-5.5c-1.1 0-1.5-.5-1.5-1.2v-.5c0-.6.4-1.2 1.5-1.2s1.5.5 1.5 1.2v.5c0 .7-.4 1.2-1.5 1.2z" fill="#061f80"/>
  </g>
  <g transform="translate(779)">
    <circle class="st3" cx="35" cy="35" r="35"/>
    <path d="M26.7 44H15.4v-1.8h4.8V29.1l-4.9 2.8-.8-1.5 5.5-3.1h2.2v15h4.4V44h.1zm8.3.3c-4.1 0-5.9-3.2-5.9-8.7S30.9 27 35 27s5.9 3.2 5.9 8.7-1.8 8.6-5.9 8.6zm0-1.8c2.7 0 3.8-2.2 3.8-5.5v-2.7c0-3.4-1.1-5.5-3.8-5.5s-3.8 2.2-3.8 5.5V37c0 3.4 1.1 5.5 3.8 5.5zm0-5.5c-1.1 0-1.5-.5-1.5-1.2v-.5c0-.6.4-1.2 1.5-1.2s1.5.5 1.5 1.2v.5c0 .7-.4 1.2-1.5 1.2zm14.4 7.3c-4.1 0-5.9-3.2-5.9-8.7s1.8-8.7 5.9-8.7 5.9 3.2 5.9 8.7-1.8 8.7-5.9 8.7zm0-1.8c2.7 0 3.8-2.2 3.8-5.5v-2.7c0-3.4-1.1-5.5-3.8-5.5s-3.8 2.2-3.8 5.5V37c0 3.4 1.1 5.5 3.8 5.5zm0-5.5c-1.1 0-1.5-.5-1.5-1.2v-.5c0-.6.4-1.2 1.5-1.2s1.5.5 1.5 1.2v.5c0 .7-.4 1.2-1.5 1.2z" fill="#051243"/>
  </g>
  <g transform="translate(856)">
    <circle class="st3" cx="35" cy="35" r="35"/>
    <path d="M38.3 44l-5.1-8.2-2.4 2.8V44h-2V27.2h2V36h.1l2.2-2.8 4.9-6h2.4l-5.9 7.1 6 9.7h-2.2z"/>
  </g>
  <path class="st15" d="M162 89v-2h4v2h-4zm9 0v-2h4v2h-4zm9 0v-2h4v2h-4zm9 0v-2h4v2h-4zm9 0v-2h4v2h-4zm9 0v-2h4v2h-4zm9 0v-2h4v2h-4zm9 0v-2h4v2h-4zm9 0v-2h4v2h-4zm9 0v-2h4v2h-4zm9 0v-2h4v2h-4zm9 0v-2h4v2h-4zm9 0v-2h4v2h-4zm9 0v-2h4v2h-4zm9 0v-2h4v2h-4zm9 0v-2h4v2h-4zm9 0v-2h4v2h-4zm9 0v-2h4v2h-4zm9 0v-2h4v2h-4zm9 0v-2h4v2h-4zm9 0v-2h4v2h-4zm9 0v-2h4v2h-4zm9 0v-2h4v2h-4zm9 0v-2h4v2h-4zm9 0v-2h4v2h-4zm9 0v-2h4v2h-4zm9 0v-2h4v2h-4zm9 0v-2h4v2h-4zm9 0v-2h4v2h-4zm9 0v-2h4v2h-4zm9 0v-2h4v2h-4zm9 0v-2h4v2h-4zm9 0v-2h4v2h-4zm9 0v-2h4v2h-4zm9 0v-2h4v2h-4zm9 0v-2h4v2h-4zm9 0v-2h4v2h-4zm9 0v-2h4v2h-4zm9 0v-2h4v2h-4zm9 0v-2h4v2h-4zm9 0v-2h4v2h-4zm9 0v-2h4v2h-4zm9 0v-2h4v2h-4zm9 0v-2h4v2h-4zm9 0v-2h4v2h-4zm9 0v-2h4v2h-4zm9 0v-2h4v2h-4zm9 0v-2h4v2h-4zm9 0v-2h4v2h-4zm9 0v-2h4v2h-4zm9 0v-2h4v2h-4zm9 0v-2h4v2h-4zm9 0v-2h4v2h-4zm9 0v-2h4v2h-4zm9 0v-2h4v2h-4zm9 0v-2h4v2h-4zm9 0v-2h4v2h-4zm9 0v-2h4v2h-4zm9 0v-2h4v2h-4zm9 0v-2h4v2h-4zm9 0v-2h4v2h-4zm9 0v-2h4v2h-4zm9 0v-2h4v2h-4zm9 0v-2h4v2h-4zm9 0v-2h4v2h-4zm9 0v-2h4v2h-4zm9 0v-2h4v2h-4zm9 0v-2h4v2h-4zm9 0v-2h4v2h-4zm9 0v-2h4v2h-4zm9 0v-2h4v2h-4zm9 0v-2h4v2h-4zm9 0v-2h4v2h-4zm9 0v-2h4v2h-4zm9 0v-2h4v2h-4zm9 0v-2h4v2h-4zm9 0v-2h4v2h-4zm9 0v-2h4v2h-4zm9 0v-2h4v2h-4zm9 0v-2h4v2h-4zm9 0v-2h4v2h-4zm9 0v-2h4v2h-4zm9 0v-2h4v2h-4zm9 0v-2h4v2h-4zm9 0v-2h4v2h-4z"/>
  <g transform="translate(1.25 102.25)">
    <path id="a_1_" class="st12" d="M8.8 0C3.9 0 0 3.9 0 8.8c0 4.8 3.9 8.8 8.8 8.8 4.8 0 8.8-3.9 8.8-8.8-.1-4.9-4-8.8-8.8-8.8z"/>
  </g>
  <path class="st4" d="M14.4 108.8l-.9-.9-4.8 4.8-2.2-2.3-.8.9 3.1 3.1c0-.1 5.6-5.6 5.6-5.6z"/>
  <path class="st16" d="M0 101h20v20H0v-20z"/>
  <g>
    <path class="st15" d="M169 102.2c-4.8 0-8.8 3.9-8.8 8.8s3.9 8.8 8.8 8.8 8.8-3.9 8.8-8.8-4-8.8-8.8-8.8z"/>
    <path class="st4" d="M173.4 107.5l-.9-.9-3.5 3.5-3.5-3.5-.9.9 3.5 3.5-3.5 3.5.9.9 3.5-3.5 3.5 3.5.9-.9-3.5-3.5 3.5-3.5z"/>
    <path class="st16" d="M159 101h20v20h-20v-20z"/>
  </g>
</svg>