<?xml version="1.0" encoding="utf-8"?>
<!-- Generator: Adobe Illustrator 22.1.0, SVG Export Plug-In . SVG Version: 6.00 Build 0)  -->
<svg version="1.1" id="Layer_1" xmlns="http://www.w3.org/2000/svg" xmlns:xlink="http://www.w3.org/1999/xlink" x="0px" y="0px"
	 viewBox="0 0 926 120" style="enable-background:new 0 0 926 120;" xml:space="preserve">
<style type="text/css">
	.st0{fill:#F3F3F3;}
	.st1{fill:#252525;}
	.st2{font-family:'IBMPlexSans';}
	.st3{font-size:14px;}
	.st4{fill:#0062FF;}
	.st5{fill:#FFFFFF;}
	.st6{fill:#EDF4FF;}
	.st7{fill:#C9DEFF;}
	.st8{fill:#97C1FF;}
	.st9{fill:#6EA6FF;}
	.st10{fill:#418CFF;}
	.st11{fill:#054ADA;}
	.st12{fill:#0530AD;}
	.st13{fill:#24A249;}
	.st14{fill:#061F80;}
	.st15{fill:#051243;}
	.st16{fill:#EE538B;}
	.st17{filter:url(#Adobe_OpacityMaskFilter);}
	.st18{mask:url(#b_1_);fill:#FFFFFF;}
	.st19{fill:none;}
</style>
<rect class="st0" width="925" height="120"/>
<g>
	<g>
		<text transform="matrix(1 0 0 1 27 115)" class="st1 st2 st3">Accessible</text>
		<text transform="matrix(1 0 0 1 186 115)" class="st1 st2 st3">Not Accessible</text>
		<circle class="st4" cx="505" cy="35" r="35"/>
		<g transform="translate(1)">
			<circle class="st4" cx="35" cy="35" r="35"/>
			<path class="st5" d="M31.9,44H29l-1.3-16.8h1.8l0.7,9.6l0.4,5.1h0.2l2.2-10.3h2.3l2.2,10.3h0.2l0.4-5.1l0.7-9.6h1.8L39,44h-2.9
				l-2-10h-0.2L31.9,44z"/>
		</g>
		<g transform="translate(78)">
			<circle class="st4" cx="35" cy="35" r="35"/>
			<path class="st6" d="M32.9,44H21.6v-1.8h4.8V29.1l-4.9,2.8l-0.8-1.5l5.5-3.1h2.2v15h4.4C32.9,42.2,32.9,44,32.9,44z M41.2,44.3
				c-4.1,0-5.9-3.2-5.9-8.7s1.8-8.7,5.9-8.7s5.9,3.2,5.9,8.7S45.3,44.3,41.2,44.3z M41.2,42.5c2.7,0,3.8-2.2,3.8-5.5v-2.7
				c0-3.4-1.1-5.5-3.8-5.5s-3.8,2.2-3.8,5.5V37C37.4,40.4,38.5,42.5,41.2,42.5z M41.2,37c-1.1,0-1.5-0.5-1.5-1.2v-0.5
				c0-0.6,0.4-1.2,1.5-1.2s1.5,0.5,1.5,1.2v0.5C42.7,36.5,42.3,37,41.2,37z"/>
		</g>
		<g transform="translate(159)">
			<circle class="st4" cx="35" cy="35" r="35"/>
			<path class="st7" d="M32.5,42.2V44H21.3v-2.1l5.6-5c1.6-1.5,2.8-3,2.8-4.7v-0.3c0-2-1.1-3.2-3.1-3.2c-2,0-3.1,1.1-3.6,2.9
				l-1.8-0.7c0.6-2,2.2-3.9,5.4-3.9c3.3,0,5.2,2,5.2,4.8c0,2.5-1.5,4.4-3.7,6.4l-4.7,4.1C23.4,42.2,32.5,42.2,32.5,42.2z M41.2,44.3
				c-4.1,0-5.9-3.2-5.9-8.7s1.8-8.7,5.9-8.7s5.9,3.2,5.9,8.7S45.3,44.3,41.2,44.3z M41.2,42.5c2.7,0,3.8-2.2,3.8-5.5v-2.7
				c0-3.4-1.1-5.5-3.8-5.5s-3.8,2.2-3.8,5.5V37C37.4,40.4,38.5,42.5,41.2,42.5z M41.2,37c-1.1,0-1.5-0.5-1.5-1.2v-0.5
				c0-0.6,0.4-1.2,1.5-1.2s1.5,0.5,1.5,1.2v0.5C42.7,36.5,42.3,37,41.2,37z"/>
		</g>
		<g transform="translate(236)">
			<circle class="st4" cx="35" cy="35" r="35"/>
			<path class="st8" d="M25.2,34.4h1.8c2.3,0,3.5-1.2,3.5-2.8v-0.2c0-1.8-1.2-2.7-3.1-2.7c-1.8,0-2.8,0.9-3.5,2.1l-1.5-1.2
				c0.9-1.3,2.4-2.7,5.1-2.7c2.9,0,5.1,1.5,5.1,4.2c0,2.2-1.4,3.5-3.3,3.9v0.1c1.8,0.4,3.6,1.7,3.6,4.2c0,2.9-2.3,4.9-5.8,4.9
				c-3,0-4.5-1.4-5.5-2.9l1.5-1.2c0.9,1.3,1.9,2.3,4,2.3c2.4,0,3.7-1.2,3.7-3.1v-0.2c0-2-1.2-3.1-3.7-3.1h-2
				C25.2,36.1,25.2,34.4,25.2,34.4z M42.2,44.3c-4.1,0-5.9-3.2-5.9-8.7s1.8-8.7,5.9-8.7s5.9,3.2,5.9,8.7S46.3,44.3,42.2,44.3z
				 M42.2,42.5c2.7,0,3.8-2.2,3.8-5.5v-2.7c0-3.4-1.1-5.5-3.8-5.5s-3.8,2.2-3.8,5.5V37C38.4,40.4,39.5,42.5,42.2,42.5z M42.2,37
				c-1.1,0-1.5-0.5-1.5-1.2v-0.5c0-0.6,0.4-1.2,1.5-1.2s1.5,0.5,1.5,1.2v0.5C43.7,36.5,43.3,37,42.2,37z"/>
		</g>
		<g transform="translate(315)">
			<circle class="st4" cx="35" cy="35" r="35"/>
			<path class="st9" d="M31.6,44h-1.9v-3.3h-8.3v-1.8l7.2-11.7h2.9v11.8h2.5v1.7h-2.5C31.6,40.7,31.6,44,31.6,44z M29.6,28.8
				l-6.4,10.2h6.5L29.6,28.8C29.7,28.8,29.6,28.8,29.6,28.8z M42.2,44.3c-4.1,0-5.9-3.2-5.9-8.7s1.8-8.7,5.9-8.7s5.9,3.2,5.9,8.7
				S46.3,44.3,42.2,44.3z M42.2,42.5c2.7,0,3.8-2.2,3.8-5.5v-2.7c0-3.4-1.1-5.5-3.8-5.5s-3.8,2.2-3.8,5.5V37
				C38.4,40.4,39.5,42.5,42.2,42.5z M42.2,37c-1.1,0-1.5-0.5-1.5-1.2v-0.5c0-0.6,0.4-1.2,1.5-1.2s1.5,0.5,1.5,1.2v0.5
				C43.7,36.5,43.3,37,42.2,37z"/>
		</g>
		<g transform="translate(392)">
			<circle class="st4" cx="35" cy="35" r="35"/>
			<path class="st10" d="M32.6,27.2V29h-7.5l-0.5,6.4h0.2c0.8-1.1,1.7-1.8,3.5-1.8c2.9,0,5.1,1.9,5.1,5.2c0,3.3-2.1,5.5-5.7,5.5
				c-2.8,0-4.3-1.4-5.3-2.9l1.5-1.2c0.9,1.3,1.8,2.3,3.9,2.3c2.3,0,3.6-1.3,3.6-3.5v-0.2c0-2.2-1.3-3.5-3.6-3.5
				c-1.6,0-2.4,0.6-3.1,1.4l-1.7-0.2l0.6-9.2C23.5,27.2,32.6,27.2,32.6,27.2z M42.2,44.3c-4.1,0-5.9-3.2-5.9-8.7s1.8-8.7,5.9-8.7
				s5.9,3.2,5.9,8.7S46.3,44.3,42.2,44.3z M42.2,42.5c2.7,0,3.8-2.2,3.8-5.5v-2.7c0-3.4-1.1-5.5-3.8-5.5s-3.8,2.2-3.8,5.5V37
				C38.4,40.4,39.5,42.5,42.2,42.5z M42.2,37c-1.1,0-1.5-0.5-1.5-1.2v-0.5c0-0.6,0.4-1.2,1.5-1.2s1.5,0.5,1.5,1.2v0.5
				C43.7,36.5,43.3,37,42.2,37z"/>
		</g>
		<g transform="translate(547)">
			<circle class="st4" cx="35" cy="35" r="35"/>
			<path class="st11" d="M26.9,44h-2.2l6.6-15H24v3.1h-1.8v-4.8h11.2V29L26.9,44z M42.2,44.3c-4.1,0-5.9-3.2-5.9-8.7
				s1.8-8.7,5.9-8.7s5.9,3.2,5.9,8.7S46.3,44.3,42.2,44.3z M42.2,42.5c2.7,0,3.8-2.2,3.8-5.5v-2.7c0-3.4-1.1-5.5-3.8-5.5
				s-3.8,2.2-3.8,5.5V37C38.4,40.4,39.5,42.5,42.2,42.5z M42.2,37c-1.1,0-1.5-0.5-1.5-1.2v-0.5c0-0.6,0.4-1.2,1.5-1.2
				s1.5,0.5,1.5,1.2v0.5C43.7,36.5,43.3,37,42.2,37z"/>
		</g>
		<g transform="translate(624)">
			<circle class="st4" cx="35" cy="35" r="35"/>
			<path class="st12" d="M27.8,44.3c-3.9,0-5.9-2.1-5.9-4.8c0-2.3,1.4-3.6,3.4-4.2v-0.2c-1.8-0.6-2.9-2-2.9-3.9c0-2.5,2-4.2,5.4-4.2
				s5.4,1.7,5.4,4.2c0,1.9-1.1,3.3-2.9,3.9v0.2c2,0.6,3.4,1.9,3.4,4.2C33.7,42.2,31.7,44.3,27.8,44.3z M27.8,42.6
				c2.4,0,3.8-1.1,3.8-3V39c0-1.9-1.4-3-3.8-3S24,37.1,24,39v0.5C24,41.5,25.4,42.6,27.8,42.6z M27.8,34.4c2.2,0,3.3-1,3.3-2.7v-0.3
				c0-1.7-1.2-2.7-3.3-2.7s-3.3,1-3.3,2.7v0.3C24.5,33.4,25.6,34.4,27.8,34.4z M42.2,44.3c-4.1,0-5.9-3.2-5.9-8.7s1.8-8.7,5.9-8.7
				s5.9,3.2,5.9,8.7S46.3,44.3,42.2,44.3z M42.2,42.5c2.7,0,3.8-2.2,3.8-5.5v-2.7c0-3.4-1.1-5.5-3.8-5.5s-3.8,2.2-3.8,5.5V37
				C38.4,40.4,39.5,42.5,42.2,42.5z M42.2,37c-1.1,0-1.5-0.5-1.5-1.2v-0.5c0-0.6,0.4-1.2,1.5-1.2s1.5,0.5,1.5,1.2v0.5
				C43.7,36.5,43.3,37,42.2,37z"/>
		</g>
		<path class="st13" d="M2.5,86.5H156v-3h2v8h-2v-3H2.5v3h-2v-8h2V86.5z"/>
		<g transform="translate(702)">
			<circle class="st4" cx="35" cy="35" r="35"/>
			<path class="st14" d="M34.5,33.4c0,5-3.3,8.9-6.1,10.6h-2.6c3.6-2.6,5.7-4.8,6.6-8.7l-0.1,0c-0.8,1.4-2,2.4-4.1,2.4
				c-2.9,0-5-2-5-5.2c0-3.3,2.2-5.5,5.6-5.5C32.3,27,34.5,29.4,34.5,33.4z M28.8,36c2.3,0,3.6-1.3,3.6-3.6v-0.2
				c0-2.3-1.3-3.6-3.6-3.6s-3.6,1.3-3.6,3.6v0.2C25.2,34.7,26.5,36,28.8,36z M43.2,44.3c-4.1,0-5.9-3.2-5.9-8.7s1.8-8.7,5.9-8.7
				s5.9,3.2,5.9,8.7S47.3,44.3,43.2,44.3z M43.2,42.5c2.7,0,3.8-2.2,3.8-5.5v-2.7c0-3.4-1.1-5.5-3.8-5.5s-3.8,2.2-3.8,5.5V37
				C39.4,40.4,40.5,42.5,43.2,42.5z M43.2,37c-1.1,0-1.5-0.5-1.5-1.2v-0.5c0-0.6,0.4-1.2,1.5-1.2s1.5,0.5,1.5,1.2v0.5
				C44.7,36.5,44.3,37,43.2,37z"/>
		</g>
		<g transform="translate(779)">
			<circle class="st4" cx="35" cy="35" r="35"/>
			<path class="st15" d="M26.7,44H15.4v-1.8h4.8V29.1l-4.9,2.8l-0.8-1.5l5.5-3.1h2.2v15h4.4V44z M35,44.3c-4.1,0-5.9-3.2-5.9-8.7
				S30.9,27,35,27s5.9,3.2,5.9,8.7S39.1,44.3,35,44.3z M35,42.5c2.7,0,3.8-2.2,3.8-5.5v-2.7c0-3.4-1.1-5.5-3.8-5.5s-3.8,2.2-3.8,5.5
				V37C31.2,40.4,32.3,42.5,35,42.5z M35,37c-1.1,0-1.5-0.5-1.5-1.2v-0.5c0-0.6,0.4-1.2,1.5-1.2s1.5,0.5,1.5,1.2v0.5
				C36.5,36.5,36.1,37,35,37z M49.4,44.3c-4.1,0-5.9-3.2-5.9-8.7s1.8-8.7,5.9-8.7s5.9,3.2,5.9,8.7S53.5,44.3,49.4,44.3z M49.4,42.5
				c2.7,0,3.8-2.2,3.8-5.5v-2.7c0-3.4-1.1-5.5-3.8-5.5s-3.8,2.2-3.8,5.5V37C45.6,40.4,46.7,42.5,49.4,42.5z M49.4,37
				c-1.1,0-1.5-0.5-1.5-1.2v-0.5c0-0.6,0.4-1.2,1.5-1.2s1.5,0.5,1.5,1.2v0.5C50.9,36.5,50.5,37,49.4,37z"/>
		</g>
		<g transform="translate(856)">
			<circle class="st4" cx="35" cy="35" r="35"/>
			<path d="M38.3,44l-5.1-8.2l-2.4,2.8V44h-2V27.2h2V36h0.1l2.2-2.8l4.9-6h2.4l-5.9,7.1l6,9.7H38.3z"/>
		</g>
		<path class="st16" d="M162,89v-2h4v2H162z M171,89v-2h4v2H171z M180,89v-2h4v2H180z M189,89v-2h4v2H189z M198,89v-2h4v2H198z
			 M207,89v-2h4v2H207z M216,89v-2h4v2H216z M225,89v-2h4v2H225z M234,89v-2h4v2H234z M243,89v-2h4v2H243z M252,89v-2h4v2H252z
			 M261,89v-2h4v2H261z M270,89v-2h4v2H270z M279,89v-2h4v2H279z M288,89v-2h4v2H288z M297,89v-2h4v2H297z M306,89v-2h4v2H306z
			 M315,89v-2h4v2H315z M324,89v-2h4v2H324z M333,89v-2h4v2H333z M342,89v-2h4v2H342z M351,89v-2h4v2H351z M360,89v-2h4v2H360z
			 M369,89v-2h4v2H369z M378,89v-2h4v2H378z M387,89v-2h4v2H387z M396,89v-2h4v2H396z M405,89v-2h4v2H405z M414,89v-2h4v2H414z
			 M423,89v-2h4v2H423z M432,89v-2h4v2H432z M441,89v-2h4v2H441z M450,89v-2h4v2H450z M459,89v-2h4v2H459z M468,89v-2h4v2H468z
			 M477,89v-2h4v2H477z M486,89v-2h4v2H486z M495,89v-2h4v2H495z M504,89v-2h4v2H504z M513,89v-2h4v2H513z M522,89v-2h4v2H522z
			 M531,89v-2h4v2H531z M540,89v-2h4v2H540z M549,89v-2h4v2H549z M558,89v-2h4v2H558z M567,89v-2h4v2H567z M576,89v-2h4v2H576z
			 M585,89v-2h4v2H585z M594,89v-2h4v2H594z M603,89v-2h4v2H603z M612,89v-2h4v2H612z M621,89v-2h4v2H621z M630,89v-2h4v2H630z
			 M639,89v-2h4v2H639z M648,89v-2h4v2H648z M657,89v-2h4v2H657z M666,89v-2h4v2H666z M675,89v-2h4v2H675z M684,89v-2h4v2H684z
			 M693,89v-2h4v2H693z M702,89v-2h4v2H702z M711,89v-2h4v2H711z M720,89v-2h4v2H720z M729,89v-2h4v2H729z M738,89v-2h4v2H738z
			 M747,89v-2h4v2H747z M756,89v-2h4v2H756z M765,89v-2h4v2H765z M774,89v-2h4v2H774z M783,89v-2h4v2H783z M792,89v-2h4v2H792z
			 M801,89v-2h4v2H801z M810,89v-2h4v2H810z M819,89v-2h4v2H819z M828,89v-2h4v2H828z M837,89v-2h4v2H837z M846,89v-2h4v2H846z
			 M855,89v-2h4v2H855z M864,89v-2h4v2H864z M873,89v-2h4v2H873z M882,89v-2h4v2H882z M891,89v-2h4v2H891z M900,89v-2h4v2H900z
			 M909,89v-2h4v2H909z M918,89v-2h4v2H918z"/>
	</g>
	<g transform="translate(1.25 102.25)">
		<g>
			<path id="a_1_" class="st13" d="M8.8,0C3.9,0,0,3.9,0,8.8c0,4.8,3.9,8.8,8.8,8.8c4.8,0,8.8-3.9,8.8-8.8C17.5,3.9,13.6,0,8.8,0z"
				/>
		</g>
		<defs>
			<filter id="Adobe_OpacityMaskFilter" filterUnits="userSpaceOnUse" x="4.4" y="5.6" width="8.8" height="6.5">
				<feColorMatrix  type="matrix" values="1 0 0 0 0  0 1 0 0 0  0 0 1 0 0  0 0 0 1 0"/>
			</filter>
		</defs>
		<mask maskUnits="userSpaceOnUse" x="4.4" y="5.6" width="8.8" height="6.5" id="b_1_">
			<g class="st17">
				<path id="a_2_" class="st5" d="M8.8,0C3.9,0,0,3.9,0,8.8c0,4.8,3.9,8.8,8.8,8.8c4.8,0,8.8-3.9,8.8-8.8C17.5,3.9,13.6,0,8.8,0z"
					/>
			</g>
		</mask>
		<path class="st18" d="M13.1,6.5l-0.9-0.9l-4.8,4.8L5.2,8.1L4.4,9l3.1,3.1L13.1,6.5z"/>
	</g>
	<path class="st19" d="M0,101h20v20H0V101z"/>
	<g>
		<path class="st16" d="M169,102.2c-4.8,0-8.8,3.9-8.8,8.8s3.9,8.8,8.8,8.8s8.8-3.9,8.8-8.8S173.8,102.2,169,102.2z"/>
		<path class="st5" d="M173.4,107.5l-0.9-0.9l-3.5,3.5l-3.5-3.5l-0.9,0.9l3.5,3.5l-3.5,3.5l0.9,0.9l3.5-3.5l3.5,3.5l0.9-0.9
			l-3.5-3.5L173.4,107.5z"/>
		<path class="st19" d="M159,101h20v20h-20V101z"/>
	</g>
</g>
</svg>
