<svg xmlns="http://www.w3.org/2000/svg" width="925" height="97" viewBox="0 0 925 97">
    <g fill="none" fill-rule="evenodd">
        <text fill="#252525" font-family="IBMPlexMono, IBM Plex Mono" font-size="14">
            <tspan x="31.8" y="95">W</tspan>
        </text>
        <text fill="#252525" font-family="IBMPlexMono, IBM Plex Mono" font-size="14">
            <tspan x="107.6" y="95">10</tspan>
        </text>
        <text fill="#252525" font-family="IBMPlexMono, IBM Plex Mono" font-size="14">
            <tspan x="184.6" y="95">20</tspan>
        </text>
        <text fill="#252525" font-family="IBMPlexMono, IBM Plex Mono" font-size="14">
            <tspan x="264.6" y="95">30</tspan>
        </text>
        <text fill="#252525" font-family="IBMPlexMono, IBM Plex Mono" font-size="14">
            <tspan x="341.6" y="95">40</tspan>
        </text>
        <text fill="#252525" font-family="IBMPlexMono, IBM Plex Mono" font-size="14">
            <tspan x="419.6" y="95">50</tspan>
        </text>
        <text fill="#252525" font-family="IBMPlexMono, IBM Plex Mono" font-size="14">
            <tspan x="496.6" y="95">60</tspan>
        </text>
        <text fill="#252525" font-family="IBMPlexMono, IBM Plex Mono" font-size="14">
            <tspan x="573.6" y="95">70</tspan>
        </text>
        <text fill="#252525" font-family="IBMPlexMono, IBM Plex Mono" font-size="14">
            <tspan x="650.6" y="95">80</tspan>
        </text>
        <text fill="#252525" font-family="IBMPlexMono, IBM Plex Mono" font-size="14">
            <tspan x="727.6" y="95">90</tspan>
        </text>
        <text fill="#252525" font-family="IBMPlexMono, IBM Plex Mono" font-size="14">
            <tspan x="801.4" y="95">100</tspan>
        </text>
        <text fill="#252525" font-family="IBMPlexMono, IBM Plex Mono" font-size="14">
            <tspan x="886.8" y="95">K</tspan>
        </text>
        <g>
            <circle cx="35" cy="35" r="35" fill="#FFF"/>
            <path fill="#000" d="M38.32 44l-5.064-8.208-2.4 2.832V44H28.84V27.248h2.016v8.736h.072l2.208-2.784 4.944-5.952h2.424l-5.88 7.056L40.672 44z"/>
        </g>
        <g transform="translate(81)">
            <circle cx="35" cy="35" r="35" fill="#EDF4FF"/>
            <path fill="#000" d="M38.32 44l-5.064-8.208-2.4 2.832V44H28.84V27.248h2.016v8.736h.072l2.208-2.784 4.944-5.952h2.424l-5.88 7.056L40.672 44z"/>
        </g>
        <g transform="translate(158)">
            <circle cx="35" cy="35" r="35" fill="#C9DEFF"/>
            <path fill="#000" d="M39.32 44l-5.064-8.208-2.4 2.832V44H29.84V27.248h2.016v8.736h.072l2.208-2.784 4.944-5.952h2.424l-5.88 7.056L41.672 44z"/>
        </g>
        <g transform="translate(237)">
            <circle cx="35" cy="35" r="35" fill="#97C1FF"/>
            <path fill="#000" d="M39.32 44l-5.064-8.208-2.4 2.832V44H29.84V27.248h2.016v8.736h.072l2.208-2.784 4.944-5.952h2.424l-5.88 7.056L41.672 44z"/>
        </g>
        <g transform="translate(314)">
            <circle cx="35" cy="35" r="35" fill="#6EA6FF"/>
            <path fill="#000" d="M39.32 44l-5.064-8.208-2.4 2.832V44H29.84V27.248h2.016v8.736h.072l2.208-2.784 4.944-5.952h2.424l-5.88 7.056L41.672 44z"/>
        </g>
        <g transform="translate(392)">
            <circle cx="35" cy="35" r="35" fill="#418CFF"/>
            <path fill="#000" d="M39.32 44l-5.064-8.208-2.4 2.832V44H29.84V27.248h2.016v8.736h.072l2.208-2.784 4.944-5.952h2.424l-5.88 7.056L41.672 44z"/>
        </g>
        <g transform="translate(469)">
            <circle cx="35" cy="35" r="35" fill="#0062FF"/>
            <path fill="#FFF" d="M32.864 44H29.96l-1.32-16.752h1.8l.696 9.6.36 5.064h.192l2.208-10.296h2.256l2.208 10.296h.192l.36-5.064.696-9.6h1.752L40.04 44h-2.904l-2.04-10.008h-.192z"/>
        </g>
        <g transform="translate(546)">
            <circle cx="35" cy="35" r="35" fill="#054ADA"/>
            <path fill="#FFF" d="M32.864 44H29.96l-1.32-16.752h1.8l.696 9.6.36 5.064h.192l2.208-10.296h2.256l2.208 10.296h.192l.36-5.064.696-9.6h1.752L40.04 44h-2.904l-2.04-10.008h-.192z"/>
        </g>
        <g transform="translate(624)">
            <circle cx="35" cy="35" r="35" fill="#0530AD"/>
            <path fill="#FFF" d="M33.864 44H30.96l-1.32-16.752h1.8l.696 9.6.36 5.064h.192l2.208-10.296h2.256l2.208 10.296h.192l.36-5.064.696-9.6h1.752L41.04 44h-2.904l-2.04-10.008h-.192z"/>
        </g>
        <g transform="translate(701)">
            <circle cx="35" cy="35" r="35" fill="#061F80"/>
            <path fill="#FFF" d="M32.864 44H29.96l-1.32-16.752h1.8l.696 9.6.36 5.064h.192l2.208-10.296h2.256l2.208 10.296h.192l.36-5.064.696-9.6h1.752L40.04 44h-2.904l-2.04-10.008h-.192z"/>
        </g>
        <g transform="translate(778)">
            <circle cx="35" cy="35" r="35" fill="#051243"/>
            <path fill="#FFF" d="M32.864 44H29.96l-1.32-16.752h1.8l.696 9.6.36 5.064h.192l2.208-10.296h2.256l2.208 10.296h.192l.36-5.064.696-9.6h1.752L40.04 44h-2.904l-2.04-10.008h-.192z"/>
        </g>
        <g transform="translate(855)">
            <circle cx="35" cy="35" r="35" fill="#000"/>
            <path fill="#FFF" d="M32.864 44H29.96l-1.32-16.752h1.8l.696 9.6.36 5.064h.192l2.208-10.296h2.256l2.208 10.296h.192l.36-5.064.696-9.6h1.752L40.04 44h-2.904l-2.04-10.008h-.192z"/>
        </g>
    </g>
</svg>
