<svg xmlns="http://www.w3.org/2000/svg" xmlns:xlink="http://www.w3.org/1999/xlink" width="926" height="120" viewBox="0 0 926 120">
    <defs>
        <path id="a" d="M8.75 0C3.937 0 0 3.938 0 8.75c0 4.813 3.938 8.75 8.75 8.75 4.813 0 8.75-3.938 8.75-8.75C17.5 3.937 13.562 0 8.75 0z"/>
    </defs>
    <g fill="none" fill-rule="evenodd">
        <g>
            <text fill="#252525" font-family="IBMPlexSans, IBM Plex Sans" font-size="14">
                <tspan x="27" y="115">Accessible</tspan>
            </text>
            <text fill="#252525" font-family="IBMPlexSans, IBM Plex Sans" font-size="14">
                <tspan x="186" y="115">Not Accessible</tspan>
            </text>
            <circle cx="505" cy="35" r="35" fill="#0062FF"/>
            <g transform="translate(1)">
                <circle cx="35" cy="35" r="35" fill="#0062FF"/>
                <path fill="#FFF" d="M31.864 44H28.96l-1.32-16.752h1.8l.696 9.6.36 5.064h.192l2.208-10.296h2.256l2.208 10.296h.192l.36-5.064.696-9.6h1.752L39.04 44h-2.904l-2.04-10.008h-.192z"/>
            </g>
            <g transform="translate(78)">
                <circle cx="35" cy="35" r="35" fill="#0062FF"/>
                <path fill="#EDF4FF" d="M32.872 44H21.64v-1.752h4.8V29.072l-4.872 2.808-.792-1.536 5.472-3.096h2.208v15h4.416V44zm8.328.288c-4.08 0-5.856-3.192-5.856-8.664 0-5.472 1.776-8.664 5.856-8.664s5.856 3.192 5.856 8.664c0 5.472-1.776 8.664-5.856 8.664zm0-1.752c2.688 0 3.768-2.184 3.768-5.544v-2.736c0-3.36-1.08-5.544-3.768-5.544-2.688 0-3.768 2.184-3.768 5.544v2.736c0 3.36 1.08 5.544 3.768 5.544zm0-5.496c-1.104 0-1.488-.504-1.488-1.152v-.528c0-.648.384-1.152 1.488-1.152s1.488.504 1.488 1.152v.528c0 .648-.384 1.152-1.488 1.152z"/>
            </g>
            <g transform="translate(159)">
                <circle cx="35" cy="35" r="35" fill="#0062FF"/>
                <path fill="#C9DEFF" d="M32.488 42.248V44H21.304v-2.064l5.592-5.04c1.632-1.464 2.808-3.024 2.808-4.728v-.288c0-2.016-1.08-3.168-3.144-3.168-2.04 0-3.072 1.128-3.6 2.856l-1.8-.672c.648-1.968 2.16-3.936 5.448-3.936 3.336 0 5.208 2.016 5.208 4.848 0 2.544-1.512 4.416-3.744 6.36l-4.68 4.08h9.096zm8.712 2.04c-4.08 0-5.856-3.192-5.856-8.664 0-5.472 1.776-8.664 5.856-8.664s5.856 3.192 5.856 8.664c0 5.472-1.776 8.664-5.856 8.664zm0-1.752c2.688 0 3.768-2.184 3.768-5.544v-2.736c0-3.36-1.08-5.544-3.768-5.544-2.688 0-3.768 2.184-3.768 5.544v2.736c0 3.36 1.08 5.544 3.768 5.544zm0-5.496c-1.104 0-1.488-.504-1.488-1.152v-.528c0-.648.384-1.152 1.488-1.152s1.488.504 1.488 1.152v.528c0 .648-.384 1.152-1.488 1.152z"/>
            </g>
            <g transform="translate(236)">
                <circle cx="35" cy="35" r="35" fill="#0062FF"/>
                <path fill="#97C1FF" d="M25.232 34.352h1.848c2.328 0 3.504-1.176 3.504-2.784V31.4c0-1.776-1.248-2.688-3.072-2.688-1.776 0-2.832.864-3.528 2.136l-1.512-1.152c.864-1.344 2.352-2.736 5.088-2.736 2.856 0 5.136 1.512 5.136 4.224 0 2.16-1.44 3.456-3.264 3.912v.096c1.848.36 3.6 1.704 3.6 4.224 0 2.88-2.304 4.872-5.784 4.872-2.952 0-4.464-1.416-5.496-2.856l1.512-1.152c.888 1.32 1.872 2.256 3.984 2.256 2.352 0 3.672-1.152 3.672-3.144V39.2c0-1.968-1.248-3.12-3.696-3.12h-1.992v-1.728zM42.2 44.288c-4.08 0-5.856-3.192-5.856-8.664 0-5.472 1.776-8.664 5.856-8.664s5.856 3.192 5.856 8.664c0 5.472-1.776 8.664-5.856 8.664zm0-1.752c2.688 0 3.768-2.184 3.768-5.544v-2.736c0-3.36-1.08-5.544-3.768-5.544-2.688 0-3.768 2.184-3.768 5.544v2.736c0 3.36 1.08 5.544 3.768 5.544zm0-5.496c-1.104 0-1.488-.504-1.488-1.152v-.528c0-.648.384-1.152 1.488-1.152s1.488.504 1.488 1.152v.528c0 .648-.384 1.152-1.488 1.152z"/>
            </g>
            <g transform="translate(315)">
                <circle cx="35" cy="35" r="35" fill="#0062FF"/>
                <path fill="#6EA6FF" d="M31.592 44h-1.92v-3.288h-8.256v-1.776l7.248-11.688h2.928v11.808h2.496v1.656h-2.496V44zm-2.016-15.192l-6.36 10.248h6.456V28.808h-.096zM42.2 44.288c-4.08 0-5.856-3.192-5.856-8.664 0-5.472 1.776-8.664 5.856-8.664s5.856 3.192 5.856 8.664c0 5.472-1.776 8.664-5.856 8.664zm0-1.752c2.688 0 3.768-2.184 3.768-5.544v-2.736c0-3.36-1.08-5.544-3.768-5.544-2.688 0-3.768 2.184-3.768 5.544v2.736c0 3.36 1.08 5.544 3.768 5.544zm0-5.496c-1.104 0-1.488-.504-1.488-1.152v-.528c0-.648.384-1.152 1.488-1.152s1.488.504 1.488 1.152v.528c0 .648-.384 1.152-1.488 1.152z"/>
            </g>
            <g transform="translate(392)">
                <circle cx="35" cy="35" r="35" fill="#0062FF"/>
                <path fill="#418CFF" d="M32.624 27.248V29h-7.488l-.48 6.408h.168c.816-1.128 1.728-1.824 3.504-1.824 2.928 0 5.064 1.92 5.064 5.16 0 3.264-2.136 5.544-5.712 5.544-2.832 0-4.296-1.416-5.328-2.856l1.512-1.152c.888 1.32 1.8 2.256 3.864 2.256 2.304 0 3.576-1.344 3.576-3.528v-.192c0-2.208-1.296-3.528-3.624-3.528-1.584 0-2.352.624-3.072 1.416l-1.704-.24.6-9.216h9.12zm9.576 17.04c-4.08 0-5.856-3.192-5.856-8.664 0-5.472 1.776-8.664 5.856-8.664s5.856 3.192 5.856 8.664c0 5.472-1.776 8.664-5.856 8.664zm0-1.752c2.688 0 3.768-2.184 3.768-5.544v-2.736c0-3.36-1.08-5.544-3.768-5.544-2.688 0-3.768 2.184-3.768 5.544v2.736c0 3.36 1.08 5.544 3.768 5.544zm0-5.496c-1.104 0-1.488-.504-1.488-1.152v-.528c0-.648.384-1.152 1.488-1.152s1.488.504 1.488 1.152v.528c0 .648-.384 1.152-1.488 1.152z"/>
            </g>
            <g transform="translate(547)">
                <circle cx="35" cy="35" r="35" fill="#0062FF"/>
                <path fill="#054ADA" d="M26.912 44h-2.16l6.552-15.024H23.96v3.12h-1.8v-4.848h11.184v1.776L26.912 44zm15.288.288c-4.08 0-5.856-3.192-5.856-8.664 0-5.472 1.776-8.664 5.856-8.664s5.856 3.192 5.856 8.664c0 5.472-1.776 8.664-5.856 8.664zm0-1.752c2.688 0 3.768-2.184 3.768-5.544v-2.736c0-3.36-1.08-5.544-3.768-5.544-2.688 0-3.768 2.184-3.768 5.544v2.736c0 3.36 1.08 5.544 3.768 5.544zm0-5.496c-1.104 0-1.488-.504-1.488-1.152v-.528c0-.648.384-1.152 1.488-1.152s1.488.504 1.488 1.152v.528c0 .648-.384 1.152-1.488 1.152z"/>
            </g>
            <g transform="translate(624)">
                <circle cx="35" cy="35" r="35" fill="#0062FF"/>
                <path fill="#0530AD" d="M27.8 44.288c-3.888 0-5.88-2.088-5.88-4.848 0-2.28 1.368-3.6 3.408-4.152v-.192c-1.776-.6-2.904-2.016-2.904-3.936 0-2.544 1.992-4.2 5.376-4.2 3.384 0 5.376 1.656 5.376 4.2 0 1.92-1.128 3.336-2.904 3.936v.192c2.04.552 3.408 1.872 3.408 4.152 0 2.76-1.992 4.848-5.88 4.848zm0-1.704c2.352 0 3.792-1.128 3.792-3.024v-.528c0-1.92-1.392-3.024-3.792-3.024s-3.792 1.104-3.792 3.024v.528c0 1.896 1.44 3.024 3.792 3.024zm0-8.208c2.16 0 3.336-.984 3.336-2.688v-.336c0-1.704-1.224-2.664-3.336-2.664s-3.336.96-3.336 2.664v.336c0 1.704 1.176 2.688 3.336 2.688zm14.4 9.912c-4.08 0-5.856-3.192-5.856-8.664 0-5.472 1.776-8.664 5.856-8.664s5.856 3.192 5.856 8.664c0 5.472-1.776 8.664-5.856 8.664zm0-1.752c2.688 0 3.768-2.184 3.768-5.544v-2.736c0-3.36-1.08-5.544-3.768-5.544-2.688 0-3.768 2.184-3.768 5.544v2.736c0 3.36 1.08 5.544 3.768 5.544zm0-5.496c-1.104 0-1.488-.504-1.488-1.152v-.528c0-.648.384-1.152 1.488-1.152s1.488.504 1.488 1.152v.528c0 .648-.384 1.152-1.488 1.152z"/>
            </g>
            <path fill="#24A249" fill-rule="nonzero" d="M2.5 86.5H156v-3h2v8h-2v-3H2.5v3h-2v-8h2v3z"/>
            <g transform="translate(702)">
                <circle cx="35" cy="35" r="35" fill="#0062FF"/>
                <path fill="#061F80" d="M34.464 33.392c0 4.968-3.336 8.856-6.072 10.608H25.8c3.648-2.616 5.664-4.8 6.6-8.688l-.12-.048c-.816 1.368-2.04 2.4-4.128 2.4-2.928 0-5.016-1.992-5.016-5.16 0-3.288 2.232-5.544 5.64-5.544 3.528 0 5.688 2.448 5.688 6.432zM28.8 36.008c2.28 0 3.624-1.32 3.624-3.576v-.192c0-2.256-1.344-3.576-3.624-3.576-2.28 0-3.624 1.32-3.624 3.576v.192c0 2.256 1.344 3.576 3.624 3.576zm14.4 8.28c-4.08 0-5.856-3.192-5.856-8.664 0-5.472 1.776-8.664 5.856-8.664s5.856 3.192 5.856 8.664c0 5.472-1.776 8.664-5.856 8.664zm0-1.752c2.688 0 3.768-2.184 3.768-5.544v-2.736c0-3.36-1.08-5.544-3.768-5.544-2.688 0-3.768 2.184-3.768 5.544v2.736c0 3.36 1.08 5.544 3.768 5.544zm0-5.496c-1.104 0-1.488-.504-1.488-1.152v-.528c0-.648.384-1.152 1.488-1.152s1.488.504 1.488 1.152v.528c0 .648-.384 1.152-1.488 1.152z"/>
            </g>
            <g transform="translate(779)">
                <circle cx="35" cy="35" r="35" fill="#0062FF"/>
                <path fill="#051243" d="M26.672 44H15.44v-1.752h4.8V29.072l-4.872 2.808-.792-1.536 5.472-3.096h2.208v15h4.416V44zm8.328.288c-4.08 0-5.856-3.192-5.856-8.664 0-5.472 1.776-8.664 5.856-8.664s5.856 3.192 5.856 8.664c0 5.472-1.776 8.664-5.856 8.664zm0-1.752c2.688 0 3.768-2.184 3.768-5.544v-2.736c0-3.36-1.08-5.544-3.768-5.544-2.688 0-3.768 2.184-3.768 5.544v2.736c0 3.36 1.08 5.544 3.768 5.544zm0-5.496c-1.104 0-1.488-.504-1.488-1.152v-.528c0-.648.384-1.152 1.488-1.152s1.488.504 1.488 1.152v.528c0 .648-.384 1.152-1.488 1.152zm14.4 7.248c-4.08 0-5.856-3.192-5.856-8.664 0-5.472 1.776-8.664 5.856-8.664s5.856 3.192 5.856 8.664c0 5.472-1.776 8.664-5.856 8.664zm0-1.752c2.688 0 3.768-2.184 3.768-5.544v-2.736c0-3.36-1.08-5.544-3.768-5.544-2.688 0-3.768 2.184-3.768 5.544v2.736c0 3.36 1.08 5.544 3.768 5.544zm0-5.496c-1.104 0-1.488-.504-1.488-1.152v-.528c0-.648.384-1.152 1.488-1.152s1.488.504 1.488 1.152v.528c0 .648-.384 1.152-1.488 1.152z"/>
            </g>
            <g transform="translate(856)">
                <circle cx="35" cy="35" r="35" fill="#0062FF"/>
                <path fill="#000" d="M38.32 44l-5.064-8.208-2.4 2.832V44H28.84V27.248h2.016v8.736h.072l2.208-2.784 4.944-5.952h2.424l-5.88 7.056L40.672 44z"/>
            </g>
            <path fill="#EE538B" fill-rule="nonzero" d="M162 89v-2h4v2h-4zm9 0v-2h4v2h-4zm9 0v-2h4v2h-4zm9 0v-2h4v2h-4zm9 0v-2h4v2h-4zm9 0v-2h4v2h-4zm9 0v-2h4v2h-4zm9 0v-2h4v2h-4zm9 0v-2h4v2h-4zm9 0v-2h4v2h-4zm9 0v-2h4v2h-4zm9 0v-2h4v2h-4zm9 0v-2h4v2h-4zm9 0v-2h4v2h-4zm9 0v-2h4v2h-4zm9 0v-2h4v2h-4zm9 0v-2h4v2h-4zm9 0v-2h4v2h-4zm9 0v-2h4v2h-4zm9 0v-2h4v2h-4zm9 0v-2h4v2h-4zm9 0v-2h4v2h-4zm9 0v-2h4v2h-4zm9 0v-2h4v2h-4zm9 0v-2h4v2h-4zm9 0v-2h4v2h-4zm9 0v-2h4v2h-4zm9 0v-2h4v2h-4zm9 0v-2h4v2h-4zm9 0v-2h4v2h-4zm9 0v-2h4v2h-4zm9 0v-2h4v2h-4zm9 0v-2h4v2h-4zm9 0v-2h4v2h-4zm9 0v-2h4v2h-4zm9 0v-2h4v2h-4zm9 0v-2h4v2h-4zm9 0v-2h4v2h-4zm9 0v-2h4v2h-4zm9 0v-2h4v2h-4zm9 0v-2h4v2h-4zm9 0v-2h4v2h-4zm9 0v-2h4v2h-4zm9 0v-2h4v2h-4zm9 0v-2h4v2h-4zm9 0v-2h4v2h-4zm9 0v-2h4v2h-4zm9 0v-2h4v2h-4zm9 0v-2h4v2h-4zm9 0v-2h4v2h-4zm9 0v-2h4v2h-4zm9 0v-2h4v2h-4zm9 0v-2h4v2h-4zm9 0v-2h4v2h-4zm9 0v-2h4v2h-4zm9 0v-2h4v2h-4zm9 0v-2h4v2h-4zm9 0v-2h4v2h-4zm9 0v-2h4v2h-4zm9 0v-2h4v2h-4zm9 0v-2h4v2h-4zm9 0v-2h4v2h-4zm9 0v-2h4v2h-4zm9 0v-2h4v2h-4zm9 0v-2h4v2h-4zm9 0v-2h4v2h-4zm9 0v-2h4v2h-4zm9 0v-2h4v2h-4zm9 0v-2h4v2h-4zm9 0v-2h4v2h-4zm9 0v-2h4v2h-4zm9 0v-2h4v2h-4zm9 0v-2h4v2h-4zm9 0v-2h4v2h-4zm9 0v-2h4v2h-4zm9 0v-2h4v2h-4zm9 0v-2h4v2h-4zm9 0v-2h4v2h-4zm9 0v-2h4v2h-4zm9 0v-2h4v2h-4zm9 0v-2h4v2h-4zm9 0v-2h4v2h-4zm9 0v-2h4v2h-4zm9 0v-2h4v2h-4zm9 0v-2h4v2h-4z"/>
        </g>
        <g transform="translate(1.25 102.25)">
            <mask id="b" fill="#fff">
                <use xlink:href="#a"/>
            </mask>
            <use fill="#24A249" fill-rule="nonzero" xlink:href="#a"/>
            <path fill="#FFF" d="M13.125 6.5l-.875-.875-4.75 4.75-2.25-2.25L4.375 9 7.5 12.125z" mask="url(#b)"/>
        </g>
        <path d="M0 101h20v20H0z"/>
        <g>
            <path fill="#EE538B" fill-rule="nonzero" d="M169 102.25a8.75 8.75 0 1 0 0 17.5 8.75 8.75 0 0 0 0-17.5z"/>
            <path fill="#FFF" fill-rule="nonzero" d="M173.375 107.506l-.881-.881-3.494 3.494-3.494-3.494-.881.881 3.494 3.494-3.494 3.494.881.881 3.494-3.494 3.494 3.494.881-.881-3.494-3.494z"/>
            <path d="M159 101h20v20h-20z"/>
        </g>
    </g>
</svg>
