<svg id="Layer_1" xmlns="http://www.w3.org/2000/svg" viewBox="0 0 925 97">
  <style>
    .st1{enable-background:new}.st2{fill:#252525}.st3{fill:#fff}
  </style>
  <path fill="#f3f3f3" d="M-2 0h929.5v97H-2z"/>
  <g class="st1">
    <path class="st2" d="M33.1 95l-.8-9.8h1l.4 5.6.2 3h.1l1.3-6h1.3l1.3 6h.1l.2-3 .4-5.6h1l-.7 9.8h-1.7L36 89.2h-.1L34.8 95h-1.7z"/>
  </g>
  <g class="st1">
    <path class="st2" d="M108.8 95v-1h2.8v-7.9h-.1l-2.5 2.3-.7-.7 2.6-2.4h1.8V94h2.6v1h-6.5zM120.2 95.2c-.6 0-1.1-.1-1.5-.3-.4-.2-.8-.6-1.1-1-.3-.4-.5-1-.6-1.6-.1-.6-.2-1.3-.2-2.1s.1-1.5.2-2.1c.1-.6.3-1.2.6-1.6.3-.4.6-.8 1.1-1 .4-.2.9-.3 1.5-.3s1.1.1 1.5.3c.4.2.8.6 1.1 1 .3.4.5 1 .6 1.6.1.6.2 1.3.2 2.1s-.1 1.5-.2 2.1c-.1.6-.3 1.2-.6 1.6-.3.4-.6.8-1.1 1-.4.2-.9.3-1.5.3zm0-1.1c.4 0 .7-.1 1-.2s.5-.4.7-.7c.2-.3.3-.6.4-1s.1-.8.1-1.3v-1.6c0-.5 0-.9-.1-1.3s-.2-.7-.4-1c-.2-.3-.4-.5-.7-.7-.3-.2-.6-.2-1-.2s-.7.1-1 .2c-.3.2-.5.4-.7.7-.2.3-.3.6-.4 1s-.1.8-.1 1.3v1.6c0 .5 0 .9.1 1.3s.2.7.4 1c.2.3.4.5.7.7.3.2.6.2 1 .2zm0-3.2c-.3 0-.6-.1-.7-.2s-.2-.3-.2-.5V90c0-.2.1-.3.2-.5s.4-.2.7-.2c.3 0 .6.1.7.2s.2.3.2.5v.3c0 .2-.1.3-.2.5s-.4.1-.7.1z"/>
  </g>
  <g class="st1">
    <path class="st2" d="M192.1 95h-6.5v-1.2l3.3-2.9c.5-.4.9-.9 1.2-1.3.3-.5.5-.9.5-1.4V88c0-.6-.2-1-.5-1.4-.3-.3-.8-.5-1.4-.5-.6 0-1.1.2-1.4.5-.3.3-.6.7-.7 1.2l-1-.4c.1-.3.2-.6.4-.8s.4-.5.6-.7.6-.4.9-.5.8-.2 1.3-.2.9.1 1.3.2.7.3 1 .6.5.6.6.9c.1.3.2.7.2 1.1 0 .4-.1.7-.2 1.1-.1.3-.3.6-.4.9-.2.3-.4.6-.7.9-.3.3-.6.6-.9.8l-2.7 2.4h5.3v.9zM197.2 95.2c-.6 0-1.1-.1-1.5-.3-.4-.2-.8-.6-1.1-1-.3-.4-.5-1-.6-1.6-.1-.6-.2-1.3-.2-2.1s.1-1.5.2-2.1c.1-.6.3-1.2.6-1.6.3-.4.6-.8 1.1-1 .4-.2.9-.3 1.5-.3s1.1.1 1.5.3c.4.2.8.6 1.1 1 .3.4.5 1 .6 1.6.1.6.2 1.3.2 2.1s-.1 1.5-.2 2.1c-.1.6-.3 1.2-.6 1.6-.3.4-.6.8-1.1 1-.4.2-.9.3-1.5.3zm0-1.1c.4 0 .7-.1 1-.2s.5-.4.7-.7c.2-.3.3-.6.4-1s.1-.8.1-1.3v-1.6c0-.5 0-.9-.1-1.3s-.2-.7-.4-1c-.2-.3-.4-.5-.7-.7-.3-.2-.6-.2-1-.2s-.7.1-1 .2c-.3.2-.5.4-.7.7-.2.3-.3.6-.4 1s-.1.8-.1 1.3v1.6c0 .5 0 .9.1 1.3s.2.7.4 1c.2.3.4.5.7.7.3.2.6.2 1 .2zm0-3.2c-.3 0-.6-.1-.7-.2s-.2-.3-.2-.5V90c0-.2.1-.3.2-.5s.4-.2.7-.2c.3 0 .6.1.7.2s.2.3.2.5v.3c0 .2-.1.3-.2.5s-.4.1-.7.1z"/>
  </g>
  <g class="st1">
    <path class="st2" d="M268.4 89.4c.7 0 1.2-.2 1.5-.5s.5-.7.5-1.2v-.1c0-.5-.2-.9-.5-1.2-.3-.3-.8-.4-1.3-.4s-.9.1-1.3.3c-.3.2-.6.5-.8.9l-.9-.7c.1-.2.3-.4.4-.6s.4-.4.6-.5c.2-.1.5-.3.8-.4.3-.1.7-.1 1.1-.1.4 0 .8.1 1.2.2.4.1.7.3 1 .5.3.2.5.5.6.8.2.3.2.7.2 1 0 .3 0 .6-.1.9-.1.3-.2.5-.4.7s-.4.3-.6.5c-.2.1-.5.2-.7.3v.1c.3.1.5.1.8.3s.5.3.7.5c.2.2.4.4.5.7.1.3.2.6.2 1s-.1.8-.2 1.2c-.2.4-.4.6-.7.9-.3.2-.6.4-1.1.6-.4.1-.9.2-1.4.2-.4 0-.8 0-1.1-.1-.3-.1-.6-.2-.9-.4-.3-.2-.5-.3-.7-.5-.2-.2-.4-.4-.5-.6l.9-.7c.1.2.3.4.4.5.1.2.3.3.5.4l.6.3c.2.1.5.1.8.1.7 0 1.2-.2 1.6-.5s.6-.8.6-1.4v-.1c0-.6-.2-1-.5-1.3s-.9-.5-1.6-.5h-1.2v-1h1zM277.2 95.2c-.6 0-1.1-.1-1.5-.3-.4-.2-.8-.6-1.1-1-.3-.4-.5-1-.6-1.6-.1-.6-.2-1.3-.2-2.1s.1-1.5.2-2.1c.1-.6.3-1.2.6-1.6.3-.4.6-.8 1.1-1 .4-.2.9-.3 1.5-.3s1.1.1 1.5.3c.4.2.8.6 1.1 1 .3.4.5 1 .6 1.6.1.6.2 1.3.2 2.1s-.1 1.5-.2 2.1c-.1.6-.3 1.2-.6 1.6-.3.4-.6.8-1.1 1-.4.2-.9.3-1.5.3zm0-1.1c.4 0 .7-.1 1-.2s.5-.4.7-.7c.2-.3.3-.6.4-1s.1-.8.1-1.3v-1.6c0-.5 0-.9-.1-1.3s-.2-.7-.4-1c-.2-.3-.4-.5-.7-.7-.3-.2-.6-.2-1-.2s-.7.1-1 .2c-.3.2-.5.4-.7.7-.2.3-.3.6-.4 1s-.1.8-.1 1.3v1.6c0 .5 0 .9.1 1.3s.2.7.4 1c.2.3.4.5.7.7.3.2.6.2 1 .2zm0-3.2c-.3 0-.6-.1-.7-.2s-.2-.3-.2-.5V90c0-.2.1-.3.2-.5s.4-.2.7-.2c.3 0 .6.1.7.2s.2.3.2.5v.3c0 .2-.1.3-.2.5s-.4.1-.7.1z"/>
  </g>
  <g class="st1">
    <path class="st2" d="M346.9 95v-1.9h-4.8v-1l4.2-6.8h1.7v6.9h1.5v1H348V95h-1.1zm-3.8-2.9h3.8v-6h-.1l-3.7 6zM354.2 95.2c-.6 0-1.1-.1-1.5-.3-.4-.2-.8-.6-1.1-1-.3-.4-.5-1-.6-1.6-.1-.6-.2-1.3-.2-2.1s.1-1.5.2-2.1c.1-.6.3-1.2.6-1.6.3-.4.6-.8 1.1-1 .4-.2.9-.3 1.5-.3s1.1.1 1.5.3c.4.2.8.6 1.1 1 .3.4.5 1 .6 1.6.1.6.2 1.3.2 2.1s-.1 1.5-.2 2.1c-.1.6-.3 1.2-.6 1.6-.3.4-.6.8-1.1 1-.4.2-.9.3-1.5.3zm0-1.1c.4 0 .7-.1 1-.2s.5-.4.7-.7c.2-.3.3-.6.4-1s.1-.8.1-1.3v-1.6c0-.5 0-.9-.1-1.3s-.2-.7-.4-1c-.2-.3-.4-.5-.7-.7-.3-.2-.6-.2-1-.2s-.7.1-1 .2c-.3.2-.5.4-.7.7-.2.3-.3.6-.4 1s-.1.8-.1 1.3v1.6c0 .5 0 .9.1 1.3s.2.7.4 1c.2.3.4.5.7.7.3.2.6.2 1 .2zm0-3.2c-.3 0-.6-.1-.7-.2s-.2-.3-.2-.5V90c0-.2.1-.3.2-.5s.4-.2.7-.2c.3 0 .6.1.7.2s.2.3.2.5v.3c0 .2-.1.3-.2.5s-.4.1-.7.1z"/>
  </g>
  <g class="st1">
    <path class="st2" d="M426.6 86.2h-4.4L422 90h.1c.2-.3.5-.6.8-.8s.7-.3 1.2-.3c.4 0 .8.1 1.2.2.4.1.7.3.9.6.3.3.5.6.6.9.1.4.2.8.2 1.3s-.1.9-.2 1.3-.4.7-.7 1c-.3.3-.6.5-1.1.7-.4.2-.9.2-1.4.2-.4 0-.8 0-1.1-.1-.3-.1-.6-.2-.9-.4-.2-.2-.5-.3-.7-.5s-.4-.4-.5-.6l.9-.7c.1.2.3.4.4.5.1.2.3.3.5.4l.6.3c.2.1.5.1.8.1.7 0 1.2-.2 1.5-.5.4-.4.5-.9.5-1.5V92c0-.6-.2-1.1-.5-1.5-.4-.4-.9-.5-1.6-.5-.5 0-.8.1-1.1.2-.3.2-.5.4-.7.6l-1-.1.3-5.4h5.3v.9zM432.2 95.2c-.6 0-1.1-.1-1.5-.3-.4-.2-.8-.6-1.1-1-.3-.4-.5-1-.6-1.6-.1-.6-.2-1.3-.2-2.1s.1-1.5.2-2.1c.1-.6.3-1.2.6-1.6.3-.4.6-.8 1.1-1 .4-.2.9-.3 1.5-.3s1.1.1 1.5.3c.4.2.8.6 1.1 1 .3.4.5 1 .6 1.6.1.6.2 1.3.2 2.1s-.1 1.5-.2 2.1c-.1.6-.3 1.2-.6 1.6-.3.4-.6.8-1.1 1-.4.2-.9.3-1.5.3zm0-1.1c.4 0 .7-.1 1-.2s.5-.4.7-.7c.2-.3.3-.6.4-1s.1-.8.1-1.3v-1.6c0-.5 0-.9-.1-1.3s-.2-.7-.4-1c-.2-.3-.4-.5-.7-.7-.3-.2-.6-.2-1-.2s-.7.1-1 .2c-.3.2-.5.4-.7.7-.2.3-.3.6-.4 1s-.1.8-.1 1.3v1.6c0 .5 0 .9.1 1.3s.2.7.4 1c.2.3.4.5.7.7.3.2.6.2 1 .2zm0-3.2c-.3 0-.6-.1-.7-.2s-.2-.3-.2-.5V90c0-.2.1-.3.2-.5s.4-.2.7-.2c.3 0 .6.1.7.2s.2.3.2.5v.3c0 .2-.1.3-.2.5s-.4.1-.7.1z"/>
  </g>
  <g class="st1">
    <path class="st2" d="M500.8 95.2c-.5 0-1-.1-1.4-.3s-.8-.4-1-.7-.5-.7-.7-1.2c-.2-.5-.2-1-.2-1.6 0-.7.1-1.4.3-2.1.2-.6.5-1.2.8-1.8s.7-1 1.1-1.4.8-.7 1.2-1h1.5c-.5.4-1 .8-1.4 1.1-.4.4-.8.7-1.1 1.1-.3.4-.6.8-.8 1.3-.2.5-.4 1-.5 1.5h.1c.2-.4.5-.7.9-1 .4-.3.9-.4 1.5-.4.4 0 .8.1 1.2.2.4.1.7.3.9.6.3.3.5.6.6 1 .1.4.2.8.2 1.2 0 .5-.1.9-.2 1.3-.2.4-.4.7-.7 1-.3.3-.6.5-1 .7-.3.4-.8.5-1.3.5zm0-1c.7 0 1.2-.2 1.6-.5.4-.4.6-.9.6-1.5V92c0-.7-.2-1.2-.6-1.5-.4-.4-.9-.5-1.6-.5s-1.2.2-1.6.5c-.4.4-.6.9-.6 1.5v.1c0 .7.2 1.2.6 1.5.4.4.9.6 1.6.6zM509.2 95.2c-.6 0-1.1-.1-1.5-.3-.4-.2-.8-.6-1.1-1-.3-.4-.5-1-.6-1.6-.1-.6-.2-1.3-.2-2.1s.1-1.5.2-2.1c.1-.6.3-1.2.6-1.6.3-.4.6-.8 1.1-1 .4-.2.9-.3 1.5-.3s1.1.1 1.5.3c.4.2.8.6 1.1 1 .3.4.5 1 .6 1.6.1.6.2 1.3.2 2.1s-.1 1.5-.2 2.1c-.1.6-.3 1.2-.6 1.6-.3.4-.6.8-1.1 1-.4.2-.9.3-1.5.3zm0-1.1c.4 0 .7-.1 1-.2.3-.2.5-.4.7-.7.2-.3.3-.6.4-1s.1-.8.1-1.3v-1.6c0-.5 0-.9-.1-1.3s-.2-.7-.4-1-.4-.5-.7-.7c-.3-.2-.6-.2-1-.2s-.7.1-1 .2c-.3.2-.5.4-.7.7s-.3.6-.4 1-.1.8-.1 1.3v1.6c0 .5 0 .9.1 1.3s.2.7.4 1c.2.3.4.5.7.7.3.2.6.2 1 .2zm0-3.2c-.3 0-.6-.1-.7-.2s-.2-.3-.2-.5V90c0-.2.1-.3.2-.5s.4-.2.7-.2c.3 0 .6.1.7.2s.2.3.2.5v.3c0 .2-.1.3-.2.5s-.4.1-.7.1z"/>
  </g>
  <g class="st1">
    <path class="st2" d="M576 95l3.8-8.8h-4.3V88h-1v-2.8h6.5v1l-3.8 8.7H576zM586.2 95.2c-.6 0-1.1-.1-1.5-.3-.4-.2-.8-.6-1.1-1-.3-.4-.5-1-.6-1.6-.1-.6-.2-1.3-.2-2.1s.1-1.5.2-2.1c.1-.6.3-1.2.6-1.6.3-.4.6-.8 1.1-1 .4-.2.9-.3 1.5-.3s1.1.1 1.5.3c.4.2.8.6 1.1 1 .3.4.5 1 .6 1.6.1.6.2 1.3.2 2.1s-.1 1.5-.2 2.1c-.1.6-.3 1.2-.6 1.6-.3.4-.6.8-1.1 1-.4.2-.9.3-1.5.3zm0-1.1c.4 0 .7-.1 1-.2.3-.2.5-.4.7-.7.2-.3.3-.6.4-1s.1-.8.1-1.3v-1.6c0-.5 0-.9-.1-1.3s-.2-.7-.4-1-.4-.5-.7-.7c-.3-.2-.6-.2-1-.2s-.7.1-1 .2c-.3.2-.5.4-.7.7s-.3.6-.4 1-.1.8-.1 1.3v1.6c0 .5 0 .9.1 1.3s.2.7.4 1c.2.3.4.5.7.7.3.2.6.2 1 .2zm0-3.2c-.3 0-.6-.1-.7-.2s-.2-.3-.2-.5V90c0-.2.1-.3.2-.5s.4-.2.7-.2c.3 0 .6.1.7.2s.2.3.2.5v.3c0 .2-.1.3-.2.5s-.4.1-.7.1z"/>
  </g>
  <g class="st1">
    <path class="st2" d="M654.8 95.2c-.6 0-1.1-.1-1.5-.2s-.8-.3-1.1-.6c-.3-.3-.5-.6-.6-.9-.1-.3-.2-.7-.2-1.1 0-.7.2-1.2.5-1.6.4-.4.8-.7 1.4-.8v-.1c-.5-.2-.9-.5-1.2-.9-.3-.4-.5-.9-.5-1.4 0-.7.3-1.3.8-1.8.5-.4 1.3-.7 2.3-.7s1.8.2 2.3.7c.6.4.8 1 .8 1.8 0 .6-.2 1-.5 1.4-.3.4-.7.7-1.2.9v.1c.6.2 1.1.4 1.4.8.4.4.5.9.5 1.6 0 .4-.1.8-.2 1.1-.1.3-.4.6-.7.9-.3.3-.6.5-1.1.6s-.6.2-1.2.2zm0-1c.7 0 1.2-.2 1.6-.5s.6-.7.6-1.3v-.3c0-.6-.2-1-.6-1.3-.4-.3-.9-.5-1.6-.5s-1.2.2-1.6.5c-.4.3-.6.7-.6 1.3v.3c0 .6.2 1 .6 1.3s.9.5 1.6.5zm0-4.8c.6 0 1.1-.1 1.4-.4.3-.3.5-.7.5-1.2v-.2c0-.5-.2-.9-.5-1.2s-.8-.4-1.4-.4-1.1.1-1.4.4c-.3.3-.5.7-.5 1.2v.2c0 .5.2.9.5 1.2.3.3.8.4 1.4.4zM663.2 95.2c-.6 0-1.1-.1-1.5-.3-.4-.2-.8-.6-1.1-1-.3-.4-.5-1-.6-1.6-.1-.6-.2-1.3-.2-2.1s.1-1.5.2-2.1c.1-.6.3-1.2.6-1.6.3-.4.6-.8 1.1-1 .4-.2.9-.3 1.5-.3s1.1.1 1.5.3c.4.2.8.6 1.1 1 .3.4.5 1 .6 1.6.1.6.2 1.3.2 2.1s-.1 1.5-.2 2.1c-.1.6-.3 1.2-.6 1.6-.3.4-.6.8-1.1 1-.4.2-.9.3-1.5.3zm0-1.1c.4 0 .7-.1 1-.2.3-.2.5-.4.7-.7.2-.3.3-.6.4-1s.1-.8.1-1.3v-1.6c0-.5 0-.9-.1-1.3s-.2-.7-.4-1-.4-.5-.7-.7c-.3-.2-.6-.2-1-.2s-.7.1-1 .2c-.3.2-.5.4-.7.7s-.3.6-.4 1-.1.8-.1 1.3v1.6c0 .5 0 .9.1 1.3s.2.7.4 1c.2.3.4.5.7.7.3.2.6.2 1 .2zm0-3.2c-.3 0-.6-.1-.7-.2s-.2-.3-.2-.5V90c0-.2.1-.3.2-.5s.4-.2.7-.2c.3 0 .6.1.7.2s.2.3.2.5v.3c0 .2-.1.3-.2.5s-.4.1-.7.1z"/>
  </g>
  <g class="st1">
    <path class="st2" d="M735.1 88.8c0 .7-.1 1.4-.3 2.1-.2.6-.5 1.2-.8 1.8s-.7 1-1.1 1.4c-.4.4-.8.7-1.2 1H730c.5-.4 1-.8 1.4-1.1s.8-.7 1.1-1.1c.3-.4.6-.8.8-1.3.2-.5.4-1 .5-1.5h-.1c-.2.4-.6.7-.9 1-.4.3-.9.4-1.5.4-.4 0-.8-.1-1.2-.2-.4-.1-.7-.3-.9-.6-.3-.3-.5-.6-.6-.9-.1-.4-.2-.8-.2-1.3s.1-.9.2-1.3c.2-.4.4-.7.7-1 .3-.3.6-.5 1-.7.4-.2.9-.2 1.4-.2.5 0 1 .1 1.4.3.4.2.8.4 1 .7.3.3.5.7.7 1.2.2.2.3.7.3 1.3zm-3.3 1.5c.7 0 1.2-.2 1.6-.5.4-.4.6-.9.6-1.5v-.1c0-.7-.2-1.2-.6-1.5-.4-.4-.9-.5-1.6-.5s-1.2.2-1.6.5c-.4.4-.6.9-.6 1.5v.1c0 .7.2 1.2.6 1.5.4.4.9.5 1.6.5zM740.2 95.2c-.6 0-1.1-.1-1.5-.3-.4-.2-.8-.6-1.1-1-.3-.4-.5-1-.6-1.6-.1-.6-.2-1.3-.2-2.1s.1-1.5.2-2.1c.1-.6.3-1.2.6-1.6.3-.4.6-.8 1.1-1 .4-.2.9-.3 1.5-.3s1.1.1 1.5.3c.4.2.8.6 1.1 1 .3.4.5 1 .6 1.6.1.6.2 1.3.2 2.1s-.1 1.5-.2 2.1c-.1.6-.3 1.2-.6 1.6-.3.4-.6.8-1.1 1-.4.2-.9.3-1.5.3zm0-1.1c.4 0 .7-.1 1-.2.3-.2.5-.4.7-.7.2-.3.3-.6.4-1s.1-.8.1-1.3v-1.6c0-.5 0-.9-.1-1.3s-.2-.7-.4-1-.4-.5-.7-.7c-.3-.2-.6-.2-1-.2s-.7.1-1 .2c-.3.2-.5.4-.7.7s-.3.6-.4 1-.1.8-.1 1.3v1.6c0 .5 0 .9.1 1.3s.2.7.4 1c.2.3.4.5.7.7.3.2.6.2 1 .2zm0-3.2c-.3 0-.6-.1-.7-.2s-.2-.3-.2-.5V90c0-.2.1-.3.2-.5s.4-.2.7-.2c.3 0 .6.1.7.2s.2.3.2.5v.3c0 .2-.1.3-.2.5s-.4.1-.7.1z"/>
  </g>
  <g class="st1">
    <path class="st2" d="M802.6 95v-1h2.8v-7.9h-.1l-2.5 2.3-.7-.7 2.6-2.4h1.8V94h2.6v1h-6.5zM814 95.2c-.6 0-1.1-.1-1.5-.3s-.8-.6-1.1-1c-.3-.4-.5-1-.6-1.6-.1-.6-.2-1.3-.2-2.1s.1-1.5.2-2.1c.1-.6.3-1.2.6-1.6.3-.4.6-.8 1.1-1s.9-.3 1.5-.3 1.1.1 1.5.3c.4.2.8.6 1.1 1 .3.4.5 1 .6 1.6.1.6.2 1.3.2 2.1s-.1 1.5-.2 2.1c-.1.6-.3 1.2-.6 1.6-.3.4-.6.8-1.1 1-.4.2-.9.3-1.5.3zm0-1.1c.4 0 .7-.1 1-.2.3-.2.5-.4.7-.7.2-.3.3-.6.4-1s.1-.8.1-1.3v-1.6c0-.5 0-.9-.1-1.3s-.2-.7-.4-1c-.2-.3-.4-.5-.7-.7-.3-.2-.6-.2-1-.2s-.7.1-1 .2c-.3.2-.5.4-.7.7-.2.3-.3.6-.4 1s-.1.8-.1 1.3v1.6c0 .5 0 .9.1 1.3s.2.7.4 1c.2.3.4.5.7.7s.6.2 1 .2zm0-3.2c-.3 0-.6-.1-.7-.2s-.2-.3-.2-.5V90c0-.2.1-.3.2-.5s.4-.2.7-.2c.3 0 .6.1.7.2s.2.3.2.5v.3c0 .2-.1.3-.2.5s-.4.1-.7.1zM822.4 95.2c-.6 0-1.1-.1-1.5-.3-.4-.2-.8-.6-1.1-1-.3-.4-.5-1-.6-1.6-.1-.6-.2-1.3-.2-2.1s.1-1.5.2-2.1c.1-.6.3-1.2.6-1.6.3-.4.6-.8 1.1-1 .4-.2.9-.3 1.5-.3s1.1.1 1.5.3c.4.2.8.6 1.1 1 .3.4.5 1 .6 1.6.1.6.2 1.3.2 2.1s-.1 1.5-.2 2.1c-.1.6-.3 1.2-.6 1.6-.3.4-.6.8-1.1 1-.4.2-.9.3-1.5.3zm0-1.1c.4 0 .7-.1 1-.2.3-.2.5-.4.7-.7.2-.3.3-.6.4-1s.1-.8.1-1.3v-1.6c0-.5 0-.9-.1-1.3s-.2-.7-.4-1-.4-.5-.7-.7c-.3-.2-.6-.2-1-.2s-.7.1-1 .2c-.3.2-.5.4-.7.7s-.3.6-.4 1-.1.8-.1 1.3v1.6c0 .5 0 .9.1 1.3s.2.7.4 1c.2.3.4.5.7.7.3.2.6.2 1 .2zm0-3.2c-.3 0-.6-.1-.7-.2s-.2-.3-.2-.5V90c0-.2.1-.3.2-.5s.4-.2.7-.2c.3 0 .6.1.7.2s.2.3.2.5v.3c0 .2-.1.3-.2.5s-.4.1-.7.1z"/>
  </g>
  <g class="st1">
    <path class="st2" d="M890.6 90.2l-1.4 1.7V95H888v-9.8h1.2v5.1l1.3-1.6 2.9-3.5h1.4l-3.4 4.1 3.5 5.7h-1.4l-2.9-4.8z"/>
  </g>
  <circle class="st3" cx="35" cy="35" r="35"/>
  <path d="M38.3 44l-5.1-8.2-2.4 2.8V44h-2V27.2h2V36h.1l2.2-2.8 4.9-6h2.4l-5.9 7.1 6 9.7h-2.2z"/>
  <g transform="translate(81)">
    <circle cx="35" cy="35" r="35" fill="#edf4ff"/>
    <path d="M38.3 44l-5.1-8.2-2.4 2.8V44h-2V27.2h2V36h.1l2.2-2.8 4.9-6h2.4l-5.9 7.1 6 9.7h-2.2z"/>
  </g>
  <g transform="translate(158)">
    <circle cx="35" cy="35" r="35" fill="#c9deff"/>
    <path d="M39.3 44l-5.1-8.2-2.4 2.8V44h-2V27.2h2V36h.1l2.2-2.8 4.9-6h2.4l-5.9 7.1 6 9.7h-2.2z"/>
  </g>
  <g transform="translate(237)">
    <circle cx="35" cy="35" r="35" fill="#97c1ff"/>
    <path d="M39.3 44l-5.1-8.2-2.4 2.8V44h-2V27.2h2V36h.1l2.2-2.8 4.9-6h2.4l-5.9 7.1 6 9.7h-2.2z"/>
  </g>
  <g transform="translate(314)">
    <circle cx="35" cy="35" r="35" fill="#6ea6ff"/>
    <path d="M39.3 44l-5.1-8.2-2.4 2.8V44h-2V27.2h2V36h.1l2.2-2.8 4.9-6h2.4l-5.9 7.1 6 9.7h-2.2z"/>
  </g>
  <g transform="translate(392)">
    <circle cx="35" cy="35" r="35" fill="#418cff"/>
    <path d="M39.3 44l-5.1-8.2-2.4 2.8V44h-2V27.2h2V36h.1l2.2-2.8 4.9-6h2.4l-5.9 7.1 6 9.7h-2.2z"/>
  </g>
  <g transform="translate(469)">
    <circle cx="35" cy="35" r="35" fill="#0062ff"/>
    <path class="st3" d="M32.9 44H30l-1.3-16.8h1.8l.7 9.6.4 5.1h.2L34 31.6h2.3l2.2 10.3h.2l.4-5.1.7-9.6h1.8L40 44h-2.9l-2-10h-.2l-2 10z"/>
  </g>
  <g transform="translate(546)">
    <circle cx="35" cy="35" r="35" fill="#054ada"/>
    <path class="st3" d="M32.9 44H30l-1.3-16.8h1.8l.7 9.6.4 5.1h.2L34 31.6h2.3l2.2 10.3h.2l.4-5.1.7-9.6h1.8L40 44h-2.9l-2-10h-.2l-2 10z"/>
  </g>
  <g transform="translate(624)">
    <circle cx="35" cy="35" r="35" fill="#0530ad"/>
    <path class="st3" d="M33.9 44H31l-1.3-16.8h1.8l.7 9.6.4 5.1h.2L35 31.6h2.3l2.2 10.3h.2l.4-5.1.7-9.6h1.8L41 44h-2.9l-2-10h-.2l-2 10z"/>
  </g>
  <g transform="translate(701)">
    <circle cx="35" cy="35" r="35" fill="#061f80"/>
    <path class="st3" d="M32.9 44H30l-1.3-16.8h1.8l.7 9.6.4 5.1h.2L34 31.6h2.3l2.2 10.3h.2l.4-5.1.7-9.6h1.8L40 44h-2.9l-2-10h-.2l-2 10z"/>
  </g>
  <g transform="translate(778)">
    <circle cx="35" cy="35" r="35" fill="#051243"/>
    <path class="st3" d="M32.9 44H30l-1.3-16.8h1.8l.7 9.6.4 5.1h.2L34 31.6h2.3l2.2 10.3h.2l.4-5.1.7-9.6h1.8L40 44h-2.9l-2-10h-.2l-2 10z"/>
  </g>
  <g transform="translate(855)">
    <circle cx="35" cy="35" r="35"/>
    <path class="st3" d="M32.9 44H30l-1.3-16.8h1.8l.7 9.6.4 5.1h.2L34 31.6h2.3l2.2 10.3h.2l.4-5.1.7-9.6h1.8L40 44h-2.9l-2-10h-.2l-2 10z"/>
  </g>
</svg>