<?xml version="1.0" encoding="utf-8"?>
<!-- Generator: Adobe Illustrator 22.1.0, SVG Export Plug-In . SVG Version: 6.00 Build 0)  -->
<svg version="1.1" xmlns="http://www.w3.org/2000/svg" xmlns:xlink="http://www.w3.org/1999/xlink" x="0px" y="0px"
	 viewBox="0 0 926 120" style="enable-background:new 0 0 926 120;" xml:space="preserve">
<style type="text/css">
	.st0{fill:#F3F3F3;}
	.st1{enable-background:new    ;}
	.st2{fill:#252525;}
	.st3{fill:#FFFFFF;}
	.st4{fill:#EDF4FF;}
	.st5{fill:#C9DEFF;}
	.st6{fill:#97C1FF;}
	.st7{fill:#6EA6FF;}
	.st8{fill:#418CFF;}
	.st9{fill:#0062FF;}
	.st10{fill:#054ADA;}
	.st11{fill:#0530AD;}
	.st12{fill:#061F80;}
	.st13{fill:#051243;}
</style>
<g id="Layer_1">
	<path class="st0" d="M0,0h933v120H0V0z"/>
</g>
<g id="Layer_2">
	<g class="st1">
		<path class="st2" d="M33.6,95l-0.8-9.8h1l0.4,5.6l0.2,3h0.1l1.3-6h1.3l1.3,6h0.1l0.2-3l0.4-5.6h1L39.4,95h-1.7l-1.2-5.8h-0.1
			L35.3,95H33.6z"/>
	</g>
	<g class="st1">
		<path class="st2" d="M109.3,95v-1h2.8v-7.9H112l-2.5,2.3l-0.7-0.7l2.6-2.4h1.8V94h2.6v1C115.8,95,109.3,95,109.3,95z M120.7,95.2
			c-0.6,0-1.1-0.1-1.5-0.3c-0.4-0.2-0.8-0.6-1.1-1c-0.3-0.4-0.5-1-0.6-1.6s-0.2-1.3-0.2-2.1s0.1-1.5,0.2-2.1s0.3-1.2,0.6-1.6
			c0.3-0.4,0.6-0.8,1.1-1c0.4-0.2,0.9-0.3,1.5-0.3s1.1,0.1,1.5,0.3c0.4,0.2,0.8,0.6,1.1,1c0.3,0.4,0.5,1,0.6,1.6s0.2,1.3,0.2,2.1
			s-0.1,1.5-0.2,2.1s-0.3,1.2-0.6,1.6c-0.3,0.4-0.6,0.8-1.1,1C121.8,95.1,121.3,95.2,120.7,95.2z M120.7,94.1c0.4,0,0.7-0.1,1-0.2
			s0.5-0.4,0.7-0.7c0.2-0.3,0.3-0.6,0.4-1s0.1-0.8,0.1-1.3v-1.6c0-0.5,0-0.9-0.1-1.3s-0.2-0.7-0.4-1c-0.2-0.3-0.4-0.5-0.7-0.7
			c-0.3-0.2-0.6-0.2-1-0.2s-0.7,0.1-1,0.2c-0.3,0.2-0.5,0.4-0.7,0.7c-0.2,0.3-0.3,0.6-0.4,1s-0.1,0.8-0.1,1.3v1.6
			c0,0.5,0,0.9,0.1,1.3s0.2,0.7,0.4,1c0.2,0.3,0.4,0.5,0.7,0.7C120,94.1,120.3,94.1,120.7,94.1z M120.7,90.9c-0.3,0-0.6-0.1-0.7-0.2
			s-0.2-0.3-0.2-0.5V90c0-0.2,0.1-0.3,0.2-0.5s0.4-0.2,0.7-0.2c0.3,0,0.6,0.1,0.7,0.2s0.2,0.3,0.2,0.5v0.3c0,0.2-0.1,0.3-0.2,0.5
			S121,90.9,120.7,90.9z"/>
	</g>
	<g class="st1">
		<path class="st2" d="M192.6,95h-6.5v-1.2l3.3-2.9c0.5-0.4,0.9-0.9,1.2-1.3c0.3-0.5,0.5-0.9,0.5-1.4V88c0-0.6-0.2-1-0.5-1.4
			c-0.3-0.3-0.8-0.5-1.4-0.5c-0.6,0-1.1,0.2-1.4,0.5c-0.3,0.3-0.6,0.7-0.7,1.2l-1-0.4c0.1-0.3,0.2-0.6,0.4-0.8s0.4-0.5,0.6-0.7
			s0.6-0.4,0.9-0.5s0.8-0.2,1.3-0.2s0.9,0.1,1.3,0.2s0.7,0.3,1,0.6s0.5,0.6,0.6,0.9s0.2,0.7,0.2,1.1s-0.1,0.7-0.2,1.1
			c-0.1,0.3-0.3,0.6-0.4,0.9c-0.2,0.3-0.4,0.6-0.7,0.9s-0.6,0.6-0.9,0.8l-2.7,2.4h5.3V95H192.6z M197.7,95.2c-0.6,0-1.1-0.1-1.5-0.3
			c-0.4-0.2-0.8-0.6-1.1-1s-0.5-1-0.6-1.6s-0.2-1.3-0.2-2.1s0.1-1.5,0.2-2.1c0.1-0.6,0.3-1.2,0.6-1.6s0.6-0.8,1.1-1
			c0.4-0.2,0.9-0.3,1.5-0.3s1.1,0.1,1.5,0.3c0.4,0.2,0.8,0.6,1.1,1s0.5,1,0.6,1.6s0.2,1.3,0.2,2.1s-0.1,1.5-0.2,2.1
			c-0.1,0.6-0.3,1.2-0.6,1.6s-0.6,0.8-1.1,1C198.8,95.1,198.3,95.2,197.7,95.2z M197.7,94.1c0.4,0,0.7-0.1,1-0.2s0.5-0.4,0.7-0.7
			c0.2-0.3,0.3-0.6,0.4-1s0.1-0.8,0.1-1.3v-1.6c0-0.5,0-0.9-0.1-1.3s-0.2-0.7-0.4-1s-0.4-0.5-0.7-0.7s-0.6-0.2-1-0.2s-0.7,0.1-1,0.2
			c-0.3,0.2-0.5,0.4-0.7,0.7c-0.2,0.3-0.3,0.6-0.4,1s-0.1,0.8-0.1,1.3v1.6c0,0.5,0,0.9,0.1,1.3s0.2,0.7,0.4,1s0.4,0.5,0.7,0.7
			S197.3,94.1,197.7,94.1z M197.7,90.9c-0.3,0-0.6-0.1-0.7-0.2s-0.2-0.3-0.2-0.5V90c0-0.2,0.1-0.3,0.2-0.5s0.4-0.2,0.7-0.2
			s0.6,0.1,0.7,0.2s0.2,0.3,0.2,0.5v0.3c0,0.2-0.1,0.3-0.2,0.5S198,90.9,197.7,90.9z"/>
	</g>
	<g class="st1">
		<path class="st2" d="M268.9,89.4c0.7,0,1.2-0.2,1.5-0.5s0.5-0.7,0.5-1.2v-0.1c0-0.5-0.2-0.9-0.5-1.2c-0.3-0.3-0.8-0.4-1.3-0.4
			s-0.9,0.1-1.3,0.3c-0.3,0.2-0.6,0.5-0.8,0.9l-0.9-0.7c0.1-0.2,0.3-0.4,0.4-0.6s0.4-0.4,0.6-0.5s0.5-0.3,0.8-0.4s0.7-0.1,1.1-0.1
			s0.8,0.1,1.2,0.2c0.4,0.1,0.7,0.3,1,0.5s0.5,0.5,0.6,0.8c0.2,0.3,0.2,0.7,0.2,1s0,0.6-0.1,0.9s-0.2,0.5-0.4,0.7s-0.4,0.3-0.6,0.5
			c-0.2,0.1-0.5,0.2-0.7,0.3v0.1c0.3,0.1,0.5,0.1,0.8,0.3s0.5,0.3,0.7,0.5s0.4,0.4,0.5,0.7c0.1,0.3,0.2,0.6,0.2,1s-0.1,0.8-0.2,1.2
			c-0.2,0.4-0.4,0.6-0.7,0.9c-0.3,0.2-0.6,0.4-1.1,0.6c-0.4,0.1-0.9,0.2-1.4,0.2c-0.4,0-0.8,0-1.1-0.1c-0.3-0.1-0.6-0.2-0.9-0.4
			c-0.3-0.2-0.5-0.3-0.7-0.5s-0.4-0.4-0.5-0.6l0.9-0.7c0.1,0.2,0.3,0.4,0.4,0.5c0.1,0.2,0.3,0.3,0.5,0.4l0.6,0.3
			c0.2,0.1,0.5,0.1,0.8,0.1c0.7,0,1.2-0.2,1.6-0.5s0.6-0.8,0.6-1.4v-0.1c0-0.6-0.2-1-0.5-1.3s-0.9-0.5-1.6-0.5h-1.2v-1h1V89.4z
			 M277.7,95.2c-0.6,0-1.1-0.1-1.5-0.3c-0.4-0.2-0.8-0.6-1.1-1c-0.3-0.4-0.5-1-0.6-1.6s-0.2-1.3-0.2-2.1s0.1-1.5,0.2-2.1
			s0.3-1.2,0.6-1.6c0.3-0.4,0.6-0.8,1.1-1c0.4-0.2,0.9-0.3,1.5-0.3s1.1,0.1,1.5,0.3c0.4,0.2,0.8,0.6,1.1,1c0.3,0.4,0.5,1,0.6,1.6
			s0.2,1.3,0.2,2.1s-0.1,1.5-0.2,2.1s-0.3,1.2-0.6,1.6c-0.3,0.4-0.6,0.8-1.1,1C278.8,95.1,278.3,95.2,277.7,95.2z M277.7,94.1
			c0.4,0,0.7-0.1,1-0.2s0.5-0.4,0.7-0.7c0.2-0.3,0.3-0.6,0.4-1s0.1-0.8,0.1-1.3v-1.6c0-0.5,0-0.9-0.1-1.3s-0.2-0.7-0.4-1
			c-0.2-0.3-0.4-0.5-0.7-0.7c-0.3-0.2-0.6-0.2-1-0.2s-0.7,0.1-1,0.2c-0.3,0.2-0.5,0.4-0.7,0.7c-0.2,0.3-0.3,0.6-0.4,1
			s-0.1,0.8-0.1,1.3v1.6c0,0.5,0,0.9,0.1,1.3s0.2,0.7,0.4,1c0.2,0.3,0.4,0.5,0.7,0.7C277,94.1,277.3,94.1,277.7,94.1z M277.7,90.9
			c-0.3,0-0.6-0.1-0.7-0.2s-0.2-0.3-0.2-0.5V90c0-0.2,0.1-0.3,0.2-0.5s0.4-0.2,0.7-0.2c0.3,0,0.6,0.1,0.7,0.2s0.2,0.3,0.2,0.5v0.3
			c0,0.2-0.1,0.3-0.2,0.5S278,90.9,277.7,90.9z"/>
	</g>
	<g class="st1">
		<path class="st2" d="M347.4,95v-1.9h-4.8v-1l4.2-6.8h1.7v6.9h1.5v1h-1.5V95H347.4z M343.6,92.1h3.8v-6h-0.1L343.6,92.1L343.6,92.1
			z M354.7,95.2c-0.6,0-1.1-0.1-1.5-0.3c-0.4-0.2-0.8-0.6-1.1-1c-0.3-0.4-0.5-1-0.6-1.6s-0.2-1.3-0.2-2.1s0.1-1.5,0.2-2.1
			s0.3-1.2,0.6-1.6c0.3-0.4,0.6-0.8,1.1-1c0.4-0.2,0.9-0.3,1.5-0.3s1.1,0.1,1.5,0.3c0.4,0.2,0.8,0.6,1.1,1c0.3,0.4,0.5,1,0.6,1.6
			s0.2,1.3,0.2,2.1s-0.1,1.5-0.2,2.1s-0.3,1.2-0.6,1.6c-0.3,0.4-0.6,0.8-1.1,1C355.8,95.1,355.3,95.2,354.7,95.2z M354.7,94.1
			c0.4,0,0.7-0.1,1-0.2s0.5-0.4,0.7-0.7c0.2-0.3,0.3-0.6,0.4-1s0.1-0.8,0.1-1.3v-1.6c0-0.5,0-0.9-0.1-1.3s-0.2-0.7-0.4-1
			c-0.2-0.3-0.4-0.5-0.7-0.7c-0.3-0.2-0.6-0.2-1-0.2s-0.7,0.1-1,0.2c-0.3,0.2-0.5,0.4-0.7,0.7c-0.2,0.3-0.3,0.6-0.4,1
			s-0.1,0.8-0.1,1.3v1.6c0,0.5,0,0.9,0.1,1.3s0.2,0.7,0.4,1c0.2,0.3,0.4,0.5,0.7,0.7C354,94.1,354.3,94.1,354.7,94.1z M354.7,90.9
			c-0.3,0-0.6-0.1-0.7-0.2s-0.2-0.3-0.2-0.5V90c0-0.2,0.1-0.3,0.2-0.5s0.4-0.2,0.7-0.2c0.3,0,0.6,0.1,0.7,0.2s0.2,0.3,0.2,0.5v0.3
			c0,0.2-0.1,0.3-0.2,0.5S355,90.9,354.7,90.9z"/>
	</g>
	<g class="st1">
		<path class="st2" d="M427.1,86.2h-4.4l-0.2,3.8h0.1c0.2-0.3,0.5-0.6,0.8-0.8s0.7-0.3,1.2-0.3c0.4,0,0.8,0.1,1.2,0.2
			c0.4,0.1,0.7,0.3,0.9,0.6c0.3,0.3,0.5,0.6,0.6,0.9c0.1,0.4,0.2,0.8,0.2,1.3s-0.1,0.9-0.2,1.3s-0.4,0.7-0.7,1
			c-0.3,0.3-0.6,0.5-1.1,0.7c-0.4,0.2-0.9,0.2-1.4,0.2c-0.4,0-0.8,0-1.1-0.1c-0.3-0.1-0.6-0.2-0.9-0.4c-0.2-0.2-0.5-0.3-0.7-0.5
			s-0.4-0.4-0.5-0.6l0.9-0.7c0.1,0.2,0.3,0.4,0.4,0.5c0.1,0.2,0.3,0.3,0.5,0.4l0.6,0.3c0.2,0.1,0.5,0.1,0.8,0.1
			c0.7,0,1.2-0.2,1.5-0.5c0.4-0.4,0.5-0.9,0.5-1.5V92c0-0.6-0.2-1.1-0.5-1.5c-0.4-0.4-0.9-0.5-1.6-0.5c-0.5,0-0.8,0.1-1.1,0.2
			c-0.3,0.2-0.5,0.4-0.7,0.6l-1-0.1l0.3-5.4h5.3v0.9H427.1z M432.7,95.2c-0.6,0-1.1-0.1-1.5-0.3c-0.4-0.2-0.8-0.6-1.1-1
			c-0.3-0.4-0.5-1-0.6-1.6s-0.2-1.3-0.2-2.1s0.1-1.5,0.2-2.1s0.3-1.2,0.6-1.6c0.3-0.4,0.6-0.8,1.1-1c0.4-0.2,0.9-0.3,1.5-0.3
			s1.1,0.1,1.5,0.3c0.4,0.2,0.8,0.6,1.1,1c0.3,0.4,0.5,1,0.6,1.6s0.2,1.3,0.2,2.1s-0.1,1.5-0.2,2.1s-0.3,1.2-0.6,1.6
			c-0.3,0.4-0.6,0.8-1.1,1C433.8,95.1,433.3,95.2,432.7,95.2z M432.7,94.1c0.4,0,0.7-0.1,1-0.2s0.5-0.4,0.7-0.7
			c0.2-0.3,0.3-0.6,0.4-1s0.1-0.8,0.1-1.3v-1.6c0-0.5,0-0.9-0.1-1.3s-0.2-0.7-0.4-1c-0.2-0.3-0.4-0.5-0.7-0.7
			c-0.3-0.2-0.6-0.2-1-0.2s-0.7,0.1-1,0.2c-0.3,0.2-0.5,0.4-0.7,0.7c-0.2,0.3-0.3,0.6-0.4,1s-0.1,0.8-0.1,1.3v1.6
			c0,0.5,0,0.9,0.1,1.3s0.2,0.7,0.4,1c0.2,0.3,0.4,0.5,0.7,0.7C432,94.1,432.3,94.1,432.7,94.1z M432.7,90.9c-0.3,0-0.6-0.1-0.7-0.2
			s-0.2-0.3-0.2-0.5V90c0-0.2,0.1-0.3,0.2-0.5s0.4-0.2,0.7-0.2c0.3,0,0.6,0.1,0.7,0.2s0.2,0.3,0.2,0.5v0.3c0,0.2-0.1,0.3-0.2,0.5
			S433,90.9,432.7,90.9z"/>
	</g>
	<g class="st1">
		<path class="st2" d="M501.3,95.2c-0.5,0-1-0.1-1.4-0.3s-0.8-0.4-1-0.7s-0.5-0.7-0.7-1.2s-0.2-1-0.2-1.6c0-0.7,0.1-1.4,0.3-2.1
			c0.2-0.6,0.5-1.2,0.8-1.8s0.7-1,1.1-1.4s0.8-0.7,1.2-1h1.5c-0.5,0.4-1,0.8-1.4,1.1c-0.4,0.4-0.8,0.7-1.1,1.1
			c-0.3,0.4-0.6,0.8-0.8,1.3c-0.2,0.5-0.4,1-0.5,1.5h0.1c0.2-0.4,0.5-0.7,0.9-1s0.9-0.4,1.5-0.4c0.4,0,0.8,0.1,1.2,0.2
			c0.4,0.1,0.7,0.3,0.9,0.6c0.3,0.3,0.5,0.6,0.6,1s0.2,0.8,0.2,1.2c0,0.5-0.1,0.9-0.2,1.3c-0.2,0.4-0.4,0.7-0.7,1
			c-0.3,0.3-0.6,0.5-1,0.7C502.3,95.1,501.8,95.2,501.3,95.2z M501.3,94.2c0.7,0,1.2-0.2,1.6-0.5c0.4-0.4,0.6-0.9,0.6-1.5V92
			c0-0.7-0.2-1.2-0.6-1.5c-0.4-0.4-0.9-0.5-1.6-0.5s-1.2,0.2-1.6,0.5c-0.4,0.4-0.6,0.9-0.6,1.5v0.1c0,0.7,0.2,1.2,0.6,1.5
			C500.1,94,500.6,94.2,501.3,94.2z M509.7,95.2c-0.6,0-1.1-0.1-1.5-0.3c-0.4-0.2-0.8-0.6-1.1-1c-0.3-0.4-0.5-1-0.6-1.6
			s-0.2-1.3-0.2-2.1s0.1-1.5,0.2-2.1s0.3-1.2,0.6-1.6c0.3-0.4,0.6-0.8,1.1-1c0.4-0.2,0.9-0.3,1.5-0.3s1.1,0.1,1.5,0.3
			c0.4,0.2,0.8,0.6,1.1,1c0.3,0.4,0.5,1,0.6,1.6s0.2,1.3,0.2,2.1s-0.1,1.5-0.2,2.1c-0.1,0.6-0.3,1.2-0.6,1.6c-0.3,0.4-0.6,0.8-1.1,1
			C510.8,95.1,510.3,95.2,509.7,95.2z M509.7,94.1c0.4,0,0.7-0.1,1-0.2c0.3-0.2,0.5-0.4,0.7-0.7c0.2-0.3,0.3-0.6,0.4-1
			s0.1-0.8,0.1-1.3v-1.6c0-0.5,0-0.9-0.1-1.3s-0.2-0.7-0.4-1s-0.4-0.5-0.7-0.7c-0.3-0.2-0.6-0.2-1-0.2s-0.7,0.1-1,0.2
			c-0.3,0.2-0.5,0.4-0.7,0.7s-0.3,0.6-0.4,1s-0.1,0.8-0.1,1.3v1.6c0,0.5,0,0.9,0.1,1.3s0.2,0.7,0.4,1c0.2,0.3,0.4,0.5,0.7,0.7
			C509,94.1,509.3,94.1,509.7,94.1z M509.7,90.9c-0.3,0-0.6-0.1-0.7-0.2s-0.2-0.3-0.2-0.5V90c0-0.2,0.1-0.3,0.2-0.5s0.4-0.2,0.7-0.2
			c0.3,0,0.6,0.1,0.7,0.2s0.2,0.3,0.2,0.5v0.3c0,0.2-0.1,0.3-0.2,0.5S510,90.9,509.7,90.9z"/>
	</g>
	<g class="st1">
		<path class="st2" d="M576.5,95l3.8-8.8H576V88h-1v-2.8h6.5v1l-3.8,8.7h-1.2V95z M586.7,95.2c-0.6,0-1.1-0.1-1.5-0.3
			c-0.4-0.2-0.8-0.6-1.1-1s-0.5-1-0.6-1.6s-0.2-1.3-0.2-2.1s0.1-1.5,0.2-2.1c0.1-0.6,0.3-1.2,0.6-1.6s0.6-0.8,1.1-1
			c0.4-0.2,0.9-0.3,1.5-0.3s1.1,0.1,1.5,0.3c0.4,0.2,0.8,0.6,1.1,1s0.5,1,0.6,1.6s0.2,1.3,0.2,2.1s-0.1,1.5-0.2,2.1
			c-0.1,0.6-0.3,1.2-0.6,1.6s-0.6,0.8-1.1,1C587.8,95.1,587.3,95.2,586.7,95.2z M586.7,94.1c0.4,0,0.7-0.1,1-0.2
			c0.3-0.2,0.5-0.4,0.7-0.7c0.2-0.3,0.3-0.6,0.4-1s0.1-0.8,0.1-1.3v-1.6c0-0.5,0-0.9-0.1-1.3s-0.2-0.7-0.4-1s-0.4-0.5-0.7-0.7
			s-0.6-0.2-1-0.2s-0.7,0.1-1,0.2c-0.3,0.2-0.5,0.4-0.7,0.7s-0.3,0.6-0.4,1s-0.1,0.8-0.1,1.3v1.6c0,0.5,0,0.9,0.1,1.3s0.2,0.7,0.4,1
			s0.4,0.5,0.7,0.7S586.3,94.1,586.7,94.1z M586.7,90.9c-0.3,0-0.6-0.1-0.7-0.2s-0.2-0.3-0.2-0.5V90c0-0.2,0.1-0.3,0.2-0.5
			s0.4-0.2,0.7-0.2s0.6,0.1,0.7,0.2s0.2,0.3,0.2,0.5v0.3c0,0.2-0.1,0.3-0.2,0.5S587,90.9,586.7,90.9z"/>
	</g>
	<g class="st1">
		<path class="st2" d="M655.3,95.2c-0.6,0-1.1-0.1-1.5-0.2s-0.8-0.3-1.1-0.6c-0.3-0.3-0.5-0.6-0.6-0.9s-0.2-0.7-0.2-1.1
			c0-0.7,0.2-1.2,0.5-1.6c0.4-0.4,0.8-0.7,1.4-0.8v-0.1c-0.5-0.2-0.9-0.5-1.2-0.9s-0.5-0.9-0.5-1.4c0-0.7,0.3-1.3,0.8-1.8
			c0.5-0.4,1.3-0.7,2.3-0.7s1.8,0.2,2.3,0.7c0.6,0.4,0.8,1,0.8,1.8c0,0.6-0.2,1-0.5,1.4s-0.7,0.7-1.2,0.9V90
			c0.6,0.2,1.1,0.4,1.4,0.8c0.4,0.4,0.5,0.9,0.5,1.6c0,0.4-0.1,0.8-0.2,1.1c-0.1,0.3-0.4,0.6-0.7,0.9s-0.6,0.5-1.1,0.6
			S655.9,95.2,655.3,95.2z M655.3,94.2c0.7,0,1.2-0.2,1.6-0.5s0.6-0.7,0.6-1.3v-0.3c0-0.6-0.2-1-0.6-1.3c-0.4-0.3-0.9-0.5-1.6-0.5
			s-1.2,0.2-1.6,0.5c-0.4,0.3-0.6,0.7-0.6,1.3v0.3c0,0.6,0.2,1,0.6,1.3S654.6,94.2,655.3,94.2z M655.3,89.4c0.6,0,1.1-0.1,1.4-0.4
			c0.3-0.3,0.5-0.7,0.5-1.2v-0.2c0-0.5-0.2-0.9-0.5-1.2s-0.8-0.4-1.4-0.4s-1.1,0.1-1.4,0.4c-0.3,0.3-0.5,0.7-0.5,1.2v0.2
			c0,0.5,0.2,0.9,0.5,1.2C654.2,89.3,654.7,89.4,655.3,89.4z M663.7,95.2c-0.6,0-1.1-0.1-1.5-0.3c-0.4-0.2-0.8-0.6-1.1-1
			s-0.5-1-0.6-1.6s-0.2-1.3-0.2-2.1s0.1-1.5,0.2-2.1c0.1-0.6,0.3-1.2,0.6-1.6s0.6-0.8,1.1-1c0.4-0.2,0.9-0.3,1.5-0.3
			s1.1,0.1,1.5,0.3c0.4,0.2,0.8,0.6,1.1,1s0.5,1,0.6,1.6s0.2,1.3,0.2,2.1s-0.1,1.5-0.2,2.1c-0.1,0.6-0.3,1.2-0.6,1.6s-0.6,0.8-1.1,1
			C664.8,95.1,664.3,95.2,663.7,95.2z M663.7,94.1c0.4,0,0.7-0.1,1-0.2c0.3-0.2,0.5-0.4,0.7-0.7c0.2-0.3,0.3-0.6,0.4-1
			s0.1-0.8,0.1-1.3v-1.6c0-0.5,0-0.9-0.1-1.3s-0.2-0.7-0.4-1s-0.4-0.5-0.7-0.7s-0.6-0.2-1-0.2s-0.7,0.1-1,0.2
			c-0.3,0.2-0.5,0.4-0.7,0.7s-0.3,0.6-0.4,1s-0.1,0.8-0.1,1.3v1.6c0,0.5,0,0.9,0.1,1.3s0.2,0.7,0.4,1s0.4,0.5,0.7,0.7
			S663.3,94.1,663.7,94.1z M663.7,90.9c-0.3,0-0.6-0.1-0.7-0.2s-0.2-0.3-0.2-0.5V90c0-0.2,0.1-0.3,0.2-0.5s0.4-0.2,0.7-0.2
			s0.6,0.1,0.7,0.2s0.2,0.3,0.2,0.5v0.3c0,0.2-0.1,0.3-0.2,0.5S664,90.9,663.7,90.9z"/>
	</g>
	<g class="st1">
		<path class="st2" d="M735.6,88.8c0,0.7-0.1,1.4-0.3,2.1c-0.2,0.6-0.5,1.2-0.8,1.8s-0.7,1-1.1,1.4c-0.4,0.4-0.8,0.7-1.2,1h-1.7
			c0.5-0.4,1-0.8,1.4-1.1s0.8-0.7,1.1-1.1s0.6-0.8,0.8-1.3s0.4-1,0.5-1.5h-0.1c-0.2,0.4-0.6,0.7-0.9,1c-0.4,0.3-0.9,0.4-1.5,0.4
			c-0.4,0-0.8-0.1-1.2-0.2s-0.7-0.3-0.9-0.6c-0.3-0.3-0.5-0.6-0.6-0.9c-0.1-0.4-0.2-0.8-0.2-1.3s0.1-0.9,0.2-1.3
			c0.2-0.4,0.4-0.7,0.7-1s0.6-0.5,1-0.7s0.9-0.2,1.4-0.2s1,0.1,1.4,0.3c0.4,0.2,0.8,0.4,1,0.7c0.3,0.3,0.5,0.7,0.7,1.2
			C735.5,87.7,735.6,88.2,735.6,88.8L735.6,88.8z M732.3,90.3c0.7,0,1.2-0.2,1.6-0.5c0.4-0.4,0.6-0.9,0.6-1.5v-0.1
			c0-0.7-0.2-1.2-0.6-1.5c-0.4-0.4-0.9-0.5-1.6-0.5s-1.2,0.2-1.6,0.5c-0.4,0.4-0.6,0.9-0.6,1.5v0.1c0,0.7,0.2,1.2,0.6,1.5
			C731.1,90.2,731.6,90.3,732.3,90.3z M740.7,95.2c-0.6,0-1.1-0.1-1.5-0.3c-0.4-0.2-0.8-0.6-1.1-1s-0.5-1-0.6-1.6s-0.2-1.3-0.2-2.1
			s0.1-1.5,0.2-2.1c0.1-0.6,0.3-1.2,0.6-1.6s0.6-0.8,1.1-1c0.4-0.2,0.9-0.3,1.5-0.3s1.1,0.1,1.5,0.3c0.4,0.2,0.8,0.6,1.1,1
			s0.5,1,0.6,1.6s0.2,1.3,0.2,2.1s-0.1,1.5-0.2,2.1c-0.1,0.6-0.3,1.2-0.6,1.6s-0.6,0.8-1.1,1C741.8,95.1,741.3,95.2,740.7,95.2z
			 M740.7,94.1c0.4,0,0.7-0.1,1-0.2c0.3-0.2,0.5-0.4,0.7-0.7c0.2-0.3,0.3-0.6,0.4-1s0.1-0.8,0.1-1.3v-1.6c0-0.5,0-0.9-0.1-1.3
			s-0.2-0.7-0.4-1s-0.4-0.5-0.7-0.7s-0.6-0.2-1-0.2s-0.7,0.1-1,0.2c-0.3,0.2-0.5,0.4-0.7,0.7s-0.3,0.6-0.4,1s-0.1,0.8-0.1,1.3v1.6
			c0,0.5,0,0.9,0.1,1.3s0.2,0.7,0.4,1s0.4,0.5,0.7,0.7S740.3,94.1,740.7,94.1z M740.7,90.9c-0.3,0-0.6-0.1-0.7-0.2s-0.2-0.3-0.2-0.5
			V90c0-0.2,0.1-0.3,0.2-0.5s0.4-0.2,0.7-0.2s0.6,0.1,0.7,0.2s0.2,0.3,0.2,0.5v0.3c0,0.2-0.1,0.3-0.2,0.5S741,90.9,740.7,90.9z"/>
	</g>
	<g class="st1">
		<path class="st2" d="M803.1,95v-1h2.8v-7.9h-0.1l-2.5,2.3l-0.7-0.7l2.6-2.4h1.8V94h2.6v1H803.1L803.1,95z M814.5,95.2
			c-0.6,0-1.1-0.1-1.5-0.3s-0.8-0.6-1.1-1s-0.5-1-0.6-1.6s-0.2-1.3-0.2-2.1s0.1-1.5,0.2-2.1c0.1-0.6,0.3-1.2,0.6-1.6s0.6-0.8,1.1-1
			s0.9-0.3,1.5-0.3s1.1,0.1,1.5,0.3c0.4,0.2,0.8,0.6,1.1,1s0.5,1,0.6,1.6s0.2,1.3,0.2,2.1s-0.1,1.5-0.2,2.1
			c-0.1,0.6-0.3,1.2-0.6,1.6s-0.6,0.8-1.1,1C815.6,95.1,815.1,95.2,814.5,95.2z M814.5,94.1c0.4,0,0.7-0.1,1-0.2
			c0.3-0.2,0.5-0.4,0.7-0.7c0.2-0.3,0.3-0.6,0.4-1s0.1-0.8,0.1-1.3v-1.6c0-0.5,0-0.9-0.1-1.3s-0.2-0.7-0.4-1s-0.4-0.5-0.7-0.7
			s-0.6-0.2-1-0.2s-0.7,0.1-1,0.2c-0.3,0.2-0.5,0.4-0.7,0.7c-0.2,0.3-0.3,0.6-0.4,1s-0.1,0.8-0.1,1.3v1.6c0,0.5,0,0.9,0.1,1.3
			s0.2,0.7,0.4,1s0.4,0.5,0.7,0.7S814.1,94.1,814.5,94.1z M814.5,90.9c-0.3,0-0.6-0.1-0.7-0.2s-0.2-0.3-0.2-0.5V90
			c0-0.2,0.1-0.3,0.2-0.5s0.4-0.2,0.7-0.2s0.6,0.1,0.7,0.2s0.2,0.3,0.2,0.5v0.3c0,0.2-0.1,0.3-0.2,0.5S814.8,90.9,814.5,90.9z
			 M822.9,95.2c-0.6,0-1.1-0.1-1.5-0.3c-0.4-0.2-0.8-0.6-1.1-1s-0.5-1-0.6-1.6s-0.2-1.3-0.2-2.1s0.1-1.5,0.2-2.1
			c0.1-0.6,0.3-1.2,0.6-1.6s0.6-0.8,1.1-1c0.4-0.2,0.9-0.3,1.5-0.3s1.1,0.1,1.5,0.3c0.4,0.2,0.8,0.6,1.1,1s0.5,1,0.6,1.6
			s0.2,1.3,0.2,2.1s-0.1,1.5-0.2,2.1c-0.1,0.6-0.3,1.2-0.6,1.6s-0.6,0.8-1.1,1C824,95.1,823.5,95.2,822.9,95.2z M822.9,94.1
			c0.4,0,0.7-0.1,1-0.2c0.3-0.2,0.5-0.4,0.7-0.7c0.2-0.3,0.3-0.6,0.4-1s0.1-0.8,0.1-1.3v-1.6c0-0.5,0-0.9-0.1-1.3s-0.2-0.7-0.4-1
			s-0.4-0.5-0.7-0.7s-0.6-0.2-1-0.2s-0.7,0.1-1,0.2c-0.3,0.2-0.5,0.4-0.7,0.7s-0.3,0.6-0.4,1s-0.1,0.8-0.1,1.3v1.6
			c0,0.5,0,0.9,0.1,1.3s0.2,0.7,0.4,1s0.4,0.5,0.7,0.7S822.5,94.1,822.9,94.1z M822.9,90.9c-0.3,0-0.6-0.1-0.7-0.2s-0.2-0.3-0.2-0.5
			V90c0-0.2,0.1-0.3,0.2-0.5s0.4-0.2,0.7-0.2s0.6,0.1,0.7,0.2s0.2,0.3,0.2,0.5v0.3c0,0.2-0.1,0.3-0.2,0.5S823.2,90.9,822.9,90.9z"/>
	</g>
	<g class="st1">
		<path class="st2" d="M891.1,90.2l-1.4,1.7V95h-1.2v-9.8h1.2v5.1l1.3-1.6l2.9-3.5h1.4l-3.4,4.1l3.5,5.7H894
			C894,95,891.1,90.2,891.1,90.2z"/>
	</g>
	<circle class="st3" cx="35.5" cy="35" r="35"/>
	<path d="M38.8,44l-5.1-8.2l-2.4,2.8V44h-2V27.2h2V36h0.1l2.2-2.8l4.9-6h2.4L35,34.3l6,9.7C41,44,38.8,44,38.8,44z"/>
	<g transform="translate(81)">
		<circle class="st4" cx="35.5" cy="35" r="35"/>
		<path d="M38.8,44l-5.1-8.2l-2.4,2.8V44h-2V27.2h2V36h0.1l2.2-2.8l4.9-6h2.4L35,34.3l6,9.7C41,44,38.8,44,38.8,44z"/>
	</g>
	<g transform="translate(158)">
		<circle class="st5" cx="35.5" cy="35" r="35"/>
		<path d="M39.8,44l-5.1-8.2l-2.4,2.8V44h-2V27.2h2V36h0.1l2.2-2.8l4.9-6h2.4L36,34.3l6,9.7C42,44,39.8,44,39.8,44z"/>
	</g>
	<g transform="translate(237)">
		<circle class="st6" cx="35.5" cy="35" r="35"/>
		<path d="M39.8,44l-5.1-8.2l-2.4,2.8V44h-2V27.2h2V36h0.1l2.2-2.8l4.9-6h2.4L36,34.3l6,9.7C42,44,39.8,44,39.8,44z"/>
	</g>
	<g transform="translate(314)">
		<circle class="st7" cx="35.5" cy="35" r="35"/>
		<path d="M39.8,44l-5.1-8.2l-2.4,2.8V44h-2V27.2h2V36h0.1l2.2-2.8l4.9-6h2.4L36,34.3l6,9.7C42,44,39.8,44,39.8,44z"/>
	</g>
	<g transform="translate(392)">
		<circle class="st8" cx="35.5" cy="35" r="35"/>
		<path d="M39.8,44l-5.1-8.2l-2.4,2.8V44h-2V27.2h2V36h0.1l2.2-2.8l4.9-6h2.4L36,34.3l6,9.7C42,44,39.8,44,39.8,44z"/>
	</g>
	<g transform="translate(469)">
		<circle class="st9" cx="35.5" cy="35" r="35"/>
		<path class="st3" d="M33.4,44h-2.9l-1.3-16.8H31l0.7,9.6l0.4,5.1h0.2l2.2-10.3h2.3L39,41.9h0.2l0.4-5.1l0.7-9.6h1.8L40.5,44h-2.9
			l-2-10h-0.2C35.4,34,33.4,44,33.4,44z"/>
	</g>
	<g transform="translate(546)">
		<circle class="st10" cx="35.5" cy="35" r="35"/>
		<path class="st3" d="M33.4,44h-2.9l-1.3-16.8H31l0.7,9.6l0.4,5.1h0.2l2.2-10.3h2.3L39,41.9h0.2l0.4-5.1l0.7-9.6h1.8L40.5,44h-2.9
			l-2-10h-0.2C35.4,34,33.4,44,33.4,44z"/>
	</g>
	<g transform="translate(624)">
		<circle class="st11" cx="35.5" cy="35" r="35"/>
		<path class="st3" d="M34.4,44h-2.9l-1.3-16.8H32l0.7,9.6l0.4,5.1h0.2l2.2-10.3h2.3L40,41.9h0.2l0.4-5.1l0.7-9.6h1.8L41.5,44h-2.9
			l-2-10h-0.2C36.4,34,34.4,44,34.4,44z"/>
	</g>
	<g transform="translate(701)">
		<circle class="st12" cx="35.5" cy="35" r="35"/>
		<path class="st3" d="M33.4,44h-2.9l-1.3-16.8H31l0.7,9.6l0.4,5.1h0.2l2.2-10.3h2.3L39,41.9h0.2l0.4-5.1l0.7-9.6h1.8L40.5,44h-2.9
			l-2-10h-0.2C35.4,34,33.4,44,33.4,44z"/>
	</g>
	<g transform="translate(778)">
		<circle class="st13" cx="35.5" cy="35" r="35"/>
		<path class="st3" d="M33.4,44h-2.9l-1.3-16.8H31l0.7,9.6l0.4,5.1h0.2l2.2-10.3h2.3L39,41.9h0.2l0.4-5.1l0.7-9.6h1.8L40.5,44h-2.9
			l-2-10h-0.2C35.4,34,33.4,44,33.4,44z"/>
	</g>
	<g transform="translate(855)">
		<circle cx="35.5" cy="35" r="35"/>
		<path class="st3" d="M33.4,44h-2.9l-1.3-16.8H31l0.7,9.6l0.4,5.1h0.2l2.2-10.3h2.3L39,41.9h0.2l0.4-5.1l0.7-9.6h1.8L40.5,44h-2.9
			l-2-10h-0.2C35.4,34,33.4,44,33.4,44z"/>
	</g>
</g>
</svg>
