<?xml version="1.0" encoding="utf-8"?>
<!-- Generator: Adobe Illustrator 22.1.0, SVG Export Plug-In . SVG Version: 6.00 Build 0)  -->
<svg version="1.1" id="Layer_1" xmlns="http://www.w3.org/2000/svg" xmlns:xlink="http://www.w3.org/1999/xlink" x="0px" y="0px"
	 viewBox="0 0 925 97" style="enable-background:new 0 0 925 97;" xml:space="preserve">
<style type="text/css">
	.st0{fill:#F3F3F3;}
	.st1{fill:#252525;}
	.st2{font-family:'IBMPlexMono';}
	.st3{font-size:14px;}
	.st4{fill:#FFFFFF;}
	.st5{fill:#EDF4FF;}
	.st6{fill:#C9DEFF;}
	.st7{fill:#97C1FF;}
	.st8{fill:#6EA6FF;}
	.st9{fill:#418CFF;}
	.st10{fill:#0062FF;}
	.st11{fill:#054ADA;}
	.st12{fill:#0530AD;}
	.st13{fill:#061F80;}
	.st14{fill:#051243;}
</style>
<rect class="st0" width="925" height="97"/>
<g>
	<text transform="matrix(1 0 0 1 31.8 95)" class="st1 st2 st3">W</text>
	<text transform="matrix(1 0 0 1 107.6 95)" class="st1 st2 st3">10</text>
	<text transform="matrix(1 0 0 1 184.6 95)" class="st1 st2 st3">20</text>
	<text transform="matrix(1 0 0 1 264.6 95)" class="st1 st2 st3">30</text>
	<text transform="matrix(1 0 0 1 341.6 95)" class="st1 st2 st3">40</text>
	<text transform="matrix(1 0 0 1 419.6 95)" class="st1 st2 st3">50</text>
	<text transform="matrix(1 0 0 1 496.6 95)" class="st1 st2 st3">60</text>
	<text transform="matrix(1 0 0 1 573.6 95)" class="st1 st2 st3">70</text>
	<text transform="matrix(1 0 0 1 650.6 95)" class="st1 st2 st3">80</text>
	<text transform="matrix(1 0 0 1 727.6 95)" class="st1 st2 st3">90</text>
	<text transform="matrix(1 0 0 1 801.4 95)" class="st1 st2 st3">100</text>
	<text transform="matrix(1 0 0 1 886.8 95)" class="st1 st2 st3">K</text>
	<g>
		<circle class="st4" cx="35" cy="35" r="35"/>
		<path d="M38.3,44l-5.1-8.2l-2.4,2.8V44h-2V27.2h2V36h0.1l2.2-2.8l4.9-6h2.4l-5.9,7.1l6,9.7H38.3z"/>
	</g>
	<g transform="translate(81)">
		<circle class="st5" cx="35" cy="35" r="35"/>
		<path d="M38.3,44l-5.1-8.2l-2.4,2.8V44h-2V27.2h2V36h0.1l2.2-2.8l4.9-6h2.4l-5.9,7.1l6,9.7H38.3z"/>
	</g>
	<g transform="translate(158)">
		<circle class="st6" cx="35" cy="35" r="35"/>
		<path d="M39.3,44l-5.1-8.2l-2.4,2.8V44h-2V27.2h2V36h0.1l2.2-2.8l4.9-6h2.4l-5.9,7.1l6,9.7H39.3z"/>
	</g>
	<g transform="translate(237)">
		<circle class="st7" cx="35" cy="35" r="35"/>
		<path d="M39.3,44l-5.1-8.2l-2.4,2.8V44h-2V27.2h2V36h0.1l2.2-2.8l4.9-6h2.4l-5.9,7.1l6,9.7H39.3z"/>
	</g>
	<g transform="translate(314)">
		<circle class="st8" cx="35" cy="35" r="35"/>
		<path d="M39.3,44l-5.1-8.2l-2.4,2.8V44h-2V27.2h2V36h0.1l2.2-2.8l4.9-6h2.4l-5.9,7.1l6,9.7H39.3z"/>
	</g>
	<g transform="translate(392)">
		<circle class="st9" cx="35" cy="35" r="35"/>
		<path d="M39.3,44l-5.1-8.2l-2.4,2.8V44h-2V27.2h2V36h0.1l2.2-2.8l4.9-6h2.4l-5.9,7.1l6,9.7H39.3z"/>
	</g>
	<g transform="translate(469)">
		<circle class="st10" cx="35" cy="35" r="35"/>
		<path class="st4" d="M32.9,44H30l-1.3-16.8h1.8l0.7,9.6l0.4,5.1h0.2l2.2-10.3h2.3l2.2,10.3h0.2l0.4-5.1l0.7-9.6h1.8L40,44h-2.9
			l-2-10h-0.2L32.9,44z"/>
	</g>
	<g transform="translate(546)">
		<circle class="st11" cx="35" cy="35" r="35"/>
		<path class="st4" d="M32.9,44H30l-1.3-16.8h1.8l0.7,9.6l0.4,5.1h0.2l2.2-10.3h2.3l2.2,10.3h0.2l0.4-5.1l0.7-9.6h1.8L40,44h-2.9
			l-2-10h-0.2L32.9,44z"/>
	</g>
	<g transform="translate(624)">
		<circle class="st12" cx="35" cy="35" r="35"/>
		<path class="st4" d="M33.9,44H31l-1.3-16.8h1.8l0.7,9.6l0.4,5.1h0.2l2.2-10.3h2.3l2.2,10.3h0.2l0.4-5.1l0.7-9.6h1.8L41,44h-2.9
			l-2-10h-0.2L33.9,44z"/>
	</g>
	<g transform="translate(701)">
		<circle class="st13" cx="35" cy="35" r="35"/>
		<path class="st4" d="M32.9,44H30l-1.3-16.8h1.8l0.7,9.6l0.4,5.1h0.2l2.2-10.3h2.3l2.2,10.3h0.2l0.4-5.1l0.7-9.6h1.8L40,44h-2.9
			l-2-10h-0.2L32.9,44z"/>
	</g>
	<g transform="translate(778)">
		<circle class="st14" cx="35" cy="35" r="35"/>
		<path class="st4" d="M32.9,44H30l-1.3-16.8h1.8l0.7,9.6l0.4,5.1h0.2l2.2-10.3h2.3l2.2,10.3h0.2l0.4-5.1l0.7-9.6h1.8L40,44h-2.9
			l-2-10h-0.2L32.9,44z"/>
	</g>
	<g transform="translate(855)">
		<circle cx="35" cy="35" r="35"/>
		<path class="st4" d="M32.9,44H30l-1.3-16.8h1.8l0.7,9.6l0.4,5.1h0.2l2.2-10.3h2.3l2.2,10.3h0.2l0.4-5.1l0.7-9.6h1.8L40,44h-2.9
			l-2-10h-0.2L32.9,44z"/>
	</g>
</g>
</svg>
