<?xml version="1.0" encoding="utf-8"?>
<!-- Generator: Adobe Illustrator 26.0.3, SVG Export Plug-In . SVG Version: 6.00 Build 0)  -->
<svg version="1.1" id="Layer_1" xmlns="http://www.w3.org/2000/svg" xmlns:xlink="http://www.w3.org/1999/xlink" x="0px" y="0px"
	 viewBox="0 0 32 32" style="enable-background:new 0 0 32 32;" xml:space="preserve">
<style type="text/css">
	.st0{fill:#0ACF83;}
	.st1{fill:#A259FF;}
	.st2{fill:#F24E1E;}
	.st3{fill:#FF7262;}
	.st4{fill:#1ABCFE;}
</style>
<g id="Artboard">
	<g id="Figma-01" transform="translate(4.230000, 0.000000)">
		<path id="Path" class="st0" d="M6.4,32c2.9,0,5.3-2.4,5.3-5.3v-5.3H6.4c-2.9,0-5.3,2.4-5.3,5.3S3.5,32,6.4,32z"/>
		<path id="Path_00000115487993305415337490000018283638203786636466_" class="st1" d="M1.1,16c0-2.9,2.4-5.3,5.3-5.3h5.3v10.7H6.4
			C3.5,21.3,1.1,18.9,1.1,16z"/>
		<path id="Path_00000137823251389063472330000015470630710196301207_" class="st2" d="M1.1,5.3C1.1,2.4,3.5,0,6.4,0h5.3v10.7H6.4
			C3.5,10.7,1.1,8.3,1.1,5.3z"/>
		<path id="Path_00000119808543320381700150000005468028130716415418_" class="st3" d="M11.8,0h5.3c2.9,0,5.3,2.4,5.3,5.3
			s-2.4,5.3-5.3,5.3h-5.3V0z"/>
		<circle id="Oval" class="st4" cx="17.1" cy="16" r="5.3"/>
	</g>
</g>
</svg>
