<?xml version="1.0" encoding="utf-8"?>
<!-- Generator: Adobe Illustrator 23.0.4, SVG Export Plug-In . SVG Version: 6.00 Build 0)  -->
<svg version="1.1" id="Layer_1" xmlns="http://www.w3.org/2000/svg" xmlns:xlink="http://www.w3.org/1999/xlink" x="0px" y="0px"
	 viewBox="0 0 1296.1 728.8" style="enable-background:new 0 0 1296.1 728.8;" xml:space="preserve">
<style type="text/css">
	.st0{opacity:0.25;fill:none;stroke:#DCDCDC;stroke-linecap:square;enable-background:new    ;}
	.st1{fill:#F3F3F3;}
</style>
<title>Sizing alignment example comp</title>
<desc>Created with Sketch.</desc>
<polygon id="sizing-alignment-example-comp_svg__Fill-1" points="0,728.8 1296.1,728.8 1296.1,0 0,0 "/>
<g>
	<g>
		<path id="sizing-alignment-example-comp_svg__Path-4_11_" class="st0" d="M23.7,222.9h1248.6"/>
		<path id="sizing-alignment-example-comp_svg__Path-4_10_" class="st0" d="M23.7,255.9h1248.6"/>
		<path id="sizing-alignment-example-comp_svg__Path-4_9_" class="st0" d="M23.7,288.9h1248.6"/>
		<path id="sizing-alignment-example-comp_svg__Path-4_8_" class="st0" d="M23.7,430.5h1248.6"/>
		<path id="sizing-alignment-example-comp_svg__Path-4_7_" class="st0" d="M23.7,468.2h1248.6"/>
		<path id="sizing-alignment-example-comp_svg__Path-4_6_" class="st0" d="M23.7,505.9h1248.6"/>
		<g>
			<g>
				<path class="st1" d="M217.8,288.9v-6.6h9.3v-52.7h-9.3v-6.6h26.5v6.6H235v52.7h9.3v6.6H217.8z"/>
				<path class="st1" d="M258.7,222.9h27.1c10.9,0,17.6,6.7,17.6,17c0,9.8-6.3,13.3-10.7,14v0.6c4.7,0.3,12.9,4.3,12.9,15.3
					c0,10.9-7.3,19.1-17,19.1h-30V222.9z M266.7,251.5h18.2c6.2,0,10-3.3,10-9.2v-3.2c0-5.9-3.8-9.2-10-9.2h-18.2V251.5z
					 M266.7,281.9h19.6c6.8,0,11-3.6,11-10.2v-3.2c0-6.6-4.2-10.2-11-10.2h-19.6V281.9z"/>
				<path class="st1" d="M320.4,222.9H331l18.9,35.5h0.5l19-35.5h10.2v66h-7.7v-55.6h-0.5l-5.6,11.1L350,273.1l-15.8-28.7l-5.6-11.1
					h-0.5v55.6h-7.7V222.9z"/>
				<path class="st1" d="M419.5,288.9v-66h26.3c11.8,0,18.4,7.3,18.4,18.9c0,11.6-6.6,18.9-18.4,18.9h-18.3v28.2H419.5z
					 M427.4,253.7h18.3c6.2,0,9.9-3.4,9.9-9.4v-4.9c0-6-3.7-9.5-9.9-9.5h-18.3V253.7z"/>
				<path class="st1" d="M484,288.9c-5.2,0-8-3.3-8-7.8V219h7.6v63.3h7.2v6.6H484z"/>
				<path class="st1" d="M498.1,264.5c0-15.5,8.7-25.5,21.9-25.5c13,0,21.1,10,21.1,23.8v3.6H506v2.3c0,8.4,5.4,14.7,14.5,14.7
					c6.1,0,10.9-3,13.4-8.4l5.4,3.9c-3.1,6.6-10.1,11.2-19.3,11.2C506.8,290,498.1,280,498.1,264.5z M506,260.1v0.7H533v-1
					c0-8.6-5.2-14.4-12.9-14.4C511.8,245.3,506,251.6,506,260.1z"/>
				<path class="st1" d="M564.4,264.3l-17.3-24.2h8.9l12.4,18.1h0.3l12.9-18.1h8.4l-17.2,23.6l17.6,25.1h-8.9l-12.7-19.1h-0.3
					l-13.7,19.1h-8.4L564.4,264.3z"/>
				<path class="st1" d="M622.9,288.9v-7h18.4v-53.1h-0.7l-16.6,15.5l-4.6-5l17.5-16.3h12.4v59h17v7H622.9z"/>
				<path class="st1" d="M706.7,288.9v-12.9h-31.8v-7l27.6-46h11.8v46.4h9.5v6.6h-9.5v12.9H706.7z M682.4,269.3h24.4v-40.3h-0.5
					L682.4,269.3z"/>
				<path class="st1" d="M736,240.1h7.6v7.9h0.4c2.6-6.1,7.6-9.1,14.3-9.1c12.2,0,19.8,9.9,19.8,25.5s-7.7,25.5-19.8,25.5
					c-6.7,0-11.3-3-14.3-9.1h-0.4v26.8H736V240.1z M770,268.7v-8.3c0-8.7-5.3-14.6-13.8-14.6c-6.9,0-12.6,4-12.6,9.4v18.1
					c0,6.3,5.7,9.9,12.6,9.9C764.7,283.2,770,277.4,770,268.7z"/>
				<path class="st1" d="M801.7,264.3l-17.3-24.2h8.9l12.4,18.1h0.3l12.9-18.1h8.4L810,263.8l17.6,25.1h-8.9l-12.7-19.1h-0.3
					l-13.7,19.1h-8.4L801.7,264.3z"/>
			</g>
			<g>
				<path id="sizing-alignment-example-comp_svg__Fill-62_1_" class="st1" d="M926.7,296.4c-22.4,0-40.5-18.1-40.5-40.5
					s18.1-40.5,40.5-40.5s40.5,18.1,40.5,40.5S949,296.4,926.7,296.4 M926.7,208.7c-26.1,0-47.3,21.2-47.3,47.2s21.2,47.2,47.3,47.2
					s47.3-21.2,47.3-47.2S952.8,208.7,926.7,208.7"/>
				<polygon id="sizing-alignment-example-comp_svg__Fill-64_1_" class="st1" points="950.3,243.8 945.5,239 919.9,264.7 
					907.8,252.6 903,257.3 919.9,274.2 				"/>
			</g>
		</g>
		<g>
			<g>
				<path class="st1" d="M217.8,505.9v-7.6h10.6V438h-10.6v-7.6H248v7.6h-10.6v60.3H248v7.6H217.8z"/>
				<path class="st1" d="M264.6,430.5h31c12.4,0,20.1,7.7,20.1,19.4c0,11.2-7.2,15.2-12.2,16v0.6c5.4,0.3,14.8,5,14.8,17.5
					c0,12.4-8.3,21.8-19.4,21.8h-34.2V430.5z M273.6,463.1h20.8c7.1,0,11.4-3.8,11.4-10.5v-3.7c0-6.7-4.3-10.5-11.4-10.5h-20.8
					V463.1z M273.6,497.9H296c7.8,0,12.5-4.1,12.5-11.7v-3.7c0-7.6-4.8-11.7-12.5-11.7h-22.4V497.9z"/>
				<path class="st1" d="M335.1,430.5h12.1l21.6,40.6h0.5l21.7-40.6h11.7v75.4h-8.9v-63.5h-0.5l-6.4,12.6l-18,32.8l-18-32.8
					l-6.4-12.6H344v63.5h-8.9V430.5z"/>
				<path class="st1" d="M448.3,505.9v-75.4h30c13.5,0,21.1,8.3,21.1,21.6c0,13.3-7.6,21.6-21.1,21.6h-21v32.2H448.3z M457.3,465.7
					h21c7.1,0,11.3-3.9,11.3-10.8v-5.6c0-6.9-4.2-10.8-11.3-10.8h-21V465.7z"/>
				<path class="st1" d="M522,505.9c-5.9,0-9.2-3.8-9.2-9v-71h8.6v72.4h8.2v7.6H522z"/>
				<path class="st1" d="M538.1,478c0-17.7,9.9-29.2,25.1-29.2c14.9,0,24.1,11.4,24.1,27.2v4.1h-40.1v2.6c0,9.6,6.2,16.8,16.5,16.8
					c7,0,12.4-3.5,15.3-9.6l6.2,4.4c-3.6,7.6-11.6,12.7-22,12.7C548.1,507.2,538.1,495.7,538.1,478z M547.2,472.9v0.8H578v-1.2
					c0-9.8-5.9-16.4-14.8-16.4C553.8,456.1,547.2,463.2,547.2,472.9z"/>
				<path class="st1" d="M613.9,477.8l-19.8-27.6h10.2l14.1,20.7h0.3l14.7-20.7h9.6l-19.7,27l20.1,28.7h-10.2L618.9,484h-0.3
					l-15.7,21.8h-9.6L613.9,477.8z"/>
				<path class="st1" d="M680.8,505.9v-8h21.1v-60.7h-0.8l-19,17.7l-5.3-5.7l20-18.7h14.1v67.4h19.4v8H680.8z"/>
				<path class="st1" d="M743.3,478.2c0-22.4,14.8-39.9,26.9-47.7h11.7c-16.1,11.8-25.1,21.6-29.2,39.1l0.5,0.2
					c3.6-6.2,9-10.8,18.1-10.8c13,0,22.2,9,22.2,23.2c0,14.8-9.9,24.9-25.1,24.9C752.9,507.2,743.3,496.1,743.3,478.2z M784.3,483.4
					v-0.9c0-10.2-5.8-15.9-15.8-15.9c-9.9,0-15.8,5.7-15.8,15.9v0.9c0,10.2,5.8,15.9,15.8,15.9C778.4,499.3,784.3,493.5,784.3,483.4
					z"/>
				<path class="st1" d="M810.1,450.1h8.6v9.1h0.4c2.9-7,8.6-10.4,16.3-10.4c13.9,0,22.7,11.3,22.7,29.2s-8.7,29.2-22.7,29.2
					c-7.7,0-13-3.5-16.3-10.4h-0.4v30.7h-8.6V450.1z M848.8,482.7v-9.5c0-9.9-6-16.6-15.8-16.6c-7.9,0-14.4,4.5-14.4,10.7V488
					c0,7.2,6.5,11.3,14.4,11.3C842.8,499.4,848.8,492.7,848.8,482.7z"/>
				<path class="st1" d="M885.1,477.8l-19.8-27.6h10.2l14.1,20.7h0.3l14.7-20.7h9.6l-19.7,27l20.1,28.7h-10.2L890.1,484h-0.3
					l-15.7,21.8h-9.6L885.1,477.8z"/>
			</g>
			<g>
				<path id="sizing-alignment-example-comp_svg__Fill-23_1_" class="st1" d="M1027.1,518.8c-28,0-50.6-22.7-50.6-50.6
					c0-28,22.7-50.6,50.6-50.6c27.9,0,50.6,22.7,50.6,50.6C1077.8,496.2,1055.1,518.8,1027.1,518.8 M1027.1,409.2
					c-32.6,0-59.1,26.4-59.1,59s26.4,59.1,59.1,59.1c32.6,0,59.1-26.4,59.1-59.1C1086.2,435.6,1059.8,409.2,1027.1,409.2"/>
				<polygon id="sizing-alignment-example-comp_svg__Fill-25_1_" class="st1" points="1056.7,453.1 1050.7,447.1 1018.7,479.2 
					1003.6,464 997.6,470 1018.7,491.1 				"/>
			</g>
		</g>
	</g>
</g>
</svg>
