<?xml version="1.0" encoding="UTF-8"?>
<svg width="20px" height="20px" viewBox="0 0 20 20" version="1.1" xmlns="http://www.w3.org/2000/svg"
    xmlns:xlink="http://www.w3.org/1999/xlink">
    <title>Group</title>
    <g id="Structure" stroke="none" stroke-width="1" fill="none" fill-rule="evenodd">
        <g id="Group">

            <path
                d="M16.25,2.5 L3.75,2.5 C3.05964406,2.5 2.5,3.05964406 2.5,3.75 L2.5,16.25 C2.5,16.9403559 3.05964406,17.5 3.75,17.5 L16.25,17.5 C16.9403559,17.5 17.5,16.9403559 17.5,16.25 L17.5,3.75 C17.5,3.05964406 16.9403559,2.5 16.25,2.5 Z M10,5 C10.517767,5 10.9375,5.41973305 10.9375,5.9375 C10.9375,6.45526695 10.517767,6.875 10,6.875 C9.48223305,6.875 9.0625,6.45526695 9.0625,5.9375 C9.0625,5.41973305 9.48223305,5 10,5 Z M12.5,15.078125 L7.5,15.078125 L7.5,13.671875 L9.296875,13.671875 L9.296875,10.078125 L8.125,10.078125 L8.125,8.671875 L10.703125,8.671875 L10.703125,13.671875 L12.5,13.671875 L12.5,15.078125 Z"
                id="Shape" fill="#4589ff" fill-rule="nonzero"></path>
            <rect id="_Transparent_Rectangle_" x="0" y="0" width="20" height="20"></rect>

            <path
                d="M10,5 C10.517767,5 10.9375,5.41973305 10.9375,5.9375 C10.9375,6.45526695 10.517767,6.875 10,6.875 C9.48223305,6.875 9.0625,6.45526695 9.0625,5.9375 C9.0625,5.41973305 9.48223305,5 10,5 Z M12.5,13.671875 L10.703125,13.671875 L10.703125,8.671875 L8.125,8.671875 L8.125,10.078125 L9.296875,10.078125 L9.296875,13.671875 L7.5,13.671875 L7.5,15.078125 L12.5,15.078125 L12.5,13.671875 Z"
                id="_inner-path_" fill="#161616"></path>
        </g>
    </g>
</svg>