<svg id="a107b30d-6dcc-466f-8eea-0a628abef057" data-name="Layer 1" xmlns="http://www.w3.org/2000/svg" viewBox="0 0 928 522">
  <path d="M0,0H928V522H0Z" fill="#fff" fill-rule="evenodd"/>
  <g>
    <path d="M741.1072,335v-1.0361h2.73v-7.8677h-.0981l-2.4639,2.2959-.686-.7422,2.59-2.4219h1.834v8.7359h2.52V335Z" fill="#525252"/>
    <path d="M755.7371,335H749.325v-1.2041l3.1919-2.94a7.0659,7.0659,0,0,0,1.148-1.3409,2.5907,2.5907,0,0,0,.4624-1.4253v-.1684a1.9146,1.9146,0,0,0-.4483-1.32,1.7213,1.7213,0,0,0-1.3579-.5054,2.23,2.23,0,0,0-.7842.126,1.7864,1.7864,0,0,0-.581.35,1.9533,1.9533,0,0,0-.4058.5254,3.1848,3.1848,0,0,0-.2588.6508l-1.05-.4062a4.1531,4.1531,0,0,1,.3853-.8467,2.8371,2.8371,0,0,1,1.5117-1.2417,4.0187,4.0187,0,0,1,2.5132.0166,2.5145,2.5145,0,0,1,1.519,1.4829,3.1171,3.1171,0,0,1,.2027,1.147,3.393,3.393,0,0,1-.1607,1.063,4.1378,4.1378,0,0,1-.4409.93,5.6643,5.6643,0,0,1-.6792.86q-.3991.42-.8608.8394l-2.6324,2.3711h5.1382Z" fill="#525252"/>
    <path d="M760.8748,335.168a4.5173,4.5173,0,0,1-1.47-.2168,3.0935,3.0935,0,0,1-1.0571-.5952,2.4453,2.4453,0,0,1-.6441-.896,2.8727,2.8727,0,0,1-.2168-1.12,2.2518,2.2518,0,0,1,.5459-1.5957,2.9426,2.9426,0,0,1,1.4278-.8261v-.1118a2.5416,2.5416,0,0,1-1.2246-.8614,2.29,2.29,0,0,1-.4551-1.435,2.1874,2.1874,0,0,1,.812-1.7847,4.2479,4.2479,0,0,1,4.564,0,2.1888,2.1888,0,0,1,.812,1.7847,2.2934,2.2934,0,0,1-.4551,1.435,2.543,2.543,0,0,1-1.2251.8614v.1118a2.9457,2.9457,0,0,1,1.4282.8261,2.2537,2.2537,0,0,1,.5459,1.5957,2.8727,2.8727,0,0,1-.2168,1.12,2.4566,2.4566,0,0,1-.644.896,3.0987,3.0987,0,0,1-1.0572.5952A4.52,4.52,0,0,1,760.8748,335.168Zm0-1.0362a2.4536,2.4536,0,0,0,1.5821-.4531,1.5643,1.5643,0,0,0,.56-1.29v-.2935a1.5633,1.5633,0,0,0-.56-1.2895,2.9857,2.9857,0,0,0-3.1641,0,1.5641,1.5641,0,0,0-.56,1.2895v.2935a1.5651,1.5651,0,0,0,.56,1.29A2.4543,2.4543,0,0,0,760.8748,334.1318Zm0-4.76a2.1653,2.1653,0,0,0,1.4-.39,1.3943,1.3943,0,0,0,.4756-1.1435v-.209a1.3935,1.3935,0,0,0-.4756-1.1431,2.7078,2.7078,0,0,0-2.8,0,1.3923,1.3923,0,0,0-.4761,1.1431v.209a1.3931,1.3931,0,0,0,.4761,1.1435A2.1647,2.1647,0,0,0,760.8748,329.3721Z" fill="#525252"/>
    <path d="M766.265,327.7759h1.12v1.1626h.0556a2.0321,2.0321,0,0,1,.8194-1.0049,2.46,2.46,0,0,1,1.2949-.3257,2.7451,2.7451,0,0,1,1.2178.2661,2.6445,2.6445,0,0,1,.9311.7559,3.4739,3.4739,0,0,1,.5879,1.19,6.1555,6.1555,0,0,1,0,3.1363,3.4658,3.4658,0,0,1-.5879,1.19,2.6445,2.6445,0,0,1-.9311.7559,2.7451,2.7451,0,0,1-1.2178.2661,2.1879,2.1879,0,0,1-2.1143-1.3306h-.0556V337.8h-1.12Zm2.9819,6.3979a1.9279,1.9279,0,0,0,1.498-.5976,2.2369,2.2369,0,0,0,.5459-1.5694V330.769a2.2362,2.2362,0,0,0-.5459-1.5688,1.9265,1.9265,0,0,0-1.498-.5981,2.4428,2.4428,0,0,0-.7212.1054,2.0169,2.0169,0,0,0-.5947.2886,1.3829,1.3829,0,0,0-.3989.4429,1.1128,1.1128,0,0,0-.147.5561v2.7017a1.3019,1.3019,0,0,0,.147.626,1.4,1.4,0,0,0,.3989.4643,1.8121,1.8121,0,0,0,.5947.2886A2.6127,2.6127,0,0,0,769.2469,334.1738Z" fill="#525252"/>
    <path d="M773.3206,335l2.6743-3.64-2.562-3.584h1.3159l1.834,2.688h.042l1.9038-2.688h1.2461l-2.5478,3.5L779.8309,335H778.515l-1.876-2.8281h-.042L774.5667,335Z" fill="#525252"/>
  </g>
  <g>
    <path d="M101.3251,335v-1.918h-4.718v-1.0361l4.0882-6.8179h1.75v6.8741h1.4138v.98h-1.4138V335Zm-3.612-2.8979h3.612v-5.9639h-.07Z" fill="#525252"/>
    <path d="M108.675,335.168a4.5188,4.5188,0,0,1-1.47-.2168,3.0916,3.0916,0,0,1-1.0569-.5952,2.4415,2.4415,0,0,1-.644-.896,2.8674,2.8674,0,0,1-.217-1.12,2.2523,2.2523,0,0,1,.5459-1.5957,2.9438,2.9438,0,0,1,1.4279-.8261v-.1118a2.5426,2.5426,0,0,1-1.2248-.8614,2.2916,2.2916,0,0,1-.4551-1.435,2.1882,2.1882,0,0,1,.812-1.7847,4.2479,4.2479,0,0,1,4.564,0,2.1882,2.1882,0,0,1,.812,1.7847,2.2951,2.2951,0,0,1-.4548,1.435,2.5449,2.5449,0,0,1-1.2251.8614v.1118a2.9443,2.9443,0,0,1,1.4279.8261,2.2523,2.2523,0,0,1,.5459,1.5957,2.8709,2.8709,0,0,1-.2168,1.12,2.4531,2.4531,0,0,1-.644.896,3.0944,3.0944,0,0,1-1.0571.5952A4.5192,4.5192,0,0,1,108.675,335.168Zm0-1.0362a2.4539,2.4539,0,0,0,1.582-.4531,1.5649,1.5649,0,0,0,.56-1.29v-.2935a1.5639,1.5639,0,0,0-.56-1.2895,2.9855,2.9855,0,0,0-3.164,0,1.5637,1.5637,0,0,0-.56,1.2895v.2935a1.5647,1.5647,0,0,0,.56,1.29A2.4533,2.4533,0,0,0,108.675,334.1318Zm0-4.76a2.1646,2.1646,0,0,0,1.4-.39,1.3936,1.3936,0,0,0,.4759-1.1435v-.209a1.3928,1.3928,0,0,0-.4759-1.1431,2.7072,2.7072,0,0,0-2.8,0,1.3923,1.3923,0,0,0-.4761,1.1431v.209a1.3931,1.3931,0,0,0,.4761,1.1435A2.1636,2.1636,0,0,0,108.675,329.3721Z" fill="#525252"/>
    <path d="M114.0649,327.7759h1.12v1.1626h.0559a2.0311,2.0311,0,0,1,.8191-1.0049,2.46,2.46,0,0,1,1.2949-.3257,2.7459,2.7459,0,0,1,1.218.2661,2.646,2.646,0,0,1,.931.7559,3.4777,3.4777,0,0,1,.5881,1.19,6.1613,6.1613,0,0,1,0,3.1363,3.47,3.47,0,0,1-.5881,1.19,2.646,2.646,0,0,1-.931.7559,2.7459,2.7459,0,0,1-1.218.2661,2.1875,2.1875,0,0,1-2.114-1.3306h-.0559V337.8h-1.12Zm2.9822,6.3979a1.9276,1.9276,0,0,0,1.4978-.5976,2.2361,2.2361,0,0,0,.5461-1.5694V330.769a2.2354,2.2354,0,0,0-.5461-1.5688,1.9262,1.9262,0,0,0-1.4978-.5981,2.44,2.44,0,0,0-.7212.1054,2.0163,2.0163,0,0,0-.595.2886,1.3864,1.3864,0,0,0-.3989.4429,1.1128,1.1128,0,0,0-.147.5561v2.7017a1.3019,1.3019,0,0,0,.147.626,1.4038,1.4038,0,0,0,.3989.4643,1.8117,1.8117,0,0,0,.595.2886A2.61,2.61,0,0,0,117.0471,334.1738Z" fill="#525252"/>
    <path d="M121.1208,335l2.6741-3.64-2.562-3.584h1.3159l1.834,2.688h.042l1.904-2.688h1.2461l-2.5481,3.5L127.6308,335h-1.3159l-1.876-2.8281h-.042L122.3669,335Z" fill="#525252"/>
  </g>
  <g>
    <path d="M236.2891,335.168a3.4608,3.4608,0,0,1-1.365-.2588,2.8605,2.8605,0,0,1-1.0361-.7422,3.2512,3.2512,0,0,1-.6509-1.1831,5.1268,5.1268,0,0,1-.2241-1.5679,6.3968,6.3968,0,0,1,.322-2.0508,7.7489,7.7489,0,0,1,.833-1.75,8.2662,8.2662,0,0,1,1.127-1.4,7.5379,7.5379,0,0,1,1.2041-.9868h1.512q-.7845.5728-1.4,1.1172a8.4965,8.4965,0,0,0-1.0779,1.1382,6.8472,6.8472,0,0,0-.7839,1.27,7.4308,7.4308,0,0,0-.5181,1.5293l.07.0278a3.2055,3.2055,0,0,1,.9028-1.0014,2.4205,2.4205,0,0,1,1.449-.3994,3.1252,3.1252,0,0,1,1.1621.21,2.5424,2.5424,0,0,1,.91.603,2.8341,2.8341,0,0,1,.5952.9541,3.4415,3.4415,0,0,1,.2168,1.2491,3.6035,3.6035,0,0,1-.2309,1.312,2.9336,2.9336,0,0,1-.658,1.0244,2.9981,2.9981,0,0,1-1.029.6665A3.5877,3.5877,0,0,1,236.2891,335.168Zm-.0141-1.0362a1.8634,1.8634,0,0,0,2.0439-2.0576v-.1123a2.0485,2.0485,0,1,0-4.0879,0v.1123a1.8638,1.8638,0,0,0,2.044,2.0576Z" fill="#525252"/>
    <path d="M245.7249,335v-1.918h-4.718v-1.0361l4.0881-6.8179h1.75v6.8741h1.4139v.98H246.845V335Zm-3.612-2.8979h3.612v-5.9639h-.07Z" fill="#525252"/>
    <path d="M250.0648,327.7759h1.12v1.1626h.0559a2.0311,2.0311,0,0,1,.8191-1.0049,2.46,2.46,0,0,1,1.2949-.3257,2.7459,2.7459,0,0,1,1.218.2661,2.6456,2.6456,0,0,1,.9309.7559,3.4761,3.4761,0,0,1,.5882,1.19,6.1643,6.1643,0,0,1,0,3.1363,3.468,3.468,0,0,1-.5882,1.19,2.6456,2.6456,0,0,1-.9309.7559,2.7459,2.7459,0,0,1-1.218.2661,2.1875,2.1875,0,0,1-2.114-1.3306h-.0559V337.8h-1.12Zm2.9821,6.3979a1.9274,1.9274,0,0,0,1.4978-.5976,2.2357,2.2357,0,0,0,.5462-1.5694V330.769a2.235,2.235,0,0,0-.5462-1.5688,1.926,1.926,0,0,0-1.4978-.5981,2.44,2.44,0,0,0-.7211.1054,2.0163,2.0163,0,0,0-.595.2886,1.3864,1.3864,0,0,0-.3989.4429,1.1128,1.1128,0,0,0-.147.5561v2.7017a1.3019,1.3019,0,0,0,.147.626,1.4038,1.4038,0,0,0,.3989.4643,1.8117,1.8117,0,0,0,.595.2886A2.6094,2.6094,0,0,0,253.0469,334.1738Z" fill="#525252"/>
    <path d="M257.1207,335l2.674-3.64-2.562-3.584h1.316l1.8339,2.688h.042l1.9041-2.688h1.2461l-2.5481,3.5L263.6307,335h-1.3159l-1.876-2.8281h-.042L258.3668,335Z" fill="#525252"/>
  </g>
  <g>
    <path d="M388.275,335.168a4.5188,4.5188,0,0,1-1.47-.2168,3.0906,3.0906,0,0,1-1.0569-.5952,2.4415,2.4415,0,0,1-.644-.896,2.8675,2.8675,0,0,1-.2171-1.12,2.2527,2.2527,0,0,1,.5459-1.5957,2.9441,2.9441,0,0,1,1.428-.8261v-.1118a2.5421,2.5421,0,0,1-1.2248-.8614,2.2916,2.2916,0,0,1-.4551-1.435,2.1879,2.1879,0,0,1,.812-1.7847,4.2479,4.2479,0,0,1,4.564,0,2.1882,2.1882,0,0,1,.812,1.7847,2.2945,2.2945,0,0,1-.4549,1.435,2.5439,2.5439,0,0,1-1.2251.8614v.1118a2.9441,2.9441,0,0,1,1.428.8261,2.2527,2.2527,0,0,1,.5459,1.5957,2.8727,2.8727,0,0,1-.2168,1.12,2.4531,2.4531,0,0,1-.644.896,3.094,3.094,0,0,1-1.0572.5952A4.5186,4.5186,0,0,1,388.275,335.168Zm0-1.0362a2.4539,2.4539,0,0,0,1.582-.4531,1.5649,1.5649,0,0,0,.56-1.29v-.2935a1.5639,1.5639,0,0,0-.56-1.2895,2.9857,2.9857,0,0,0-3.1641,0,1.5637,1.5637,0,0,0-.56,1.2895v.2935a1.5647,1.5647,0,0,0,.56,1.29A2.4536,2.4536,0,0,0,388.275,334.1318Zm0-4.76a2.1649,2.1649,0,0,0,1.4-.39,1.3935,1.3935,0,0,0,.4758-1.1435v-.209a1.3927,1.3927,0,0,0-.4758-1.1431,2.7072,2.7072,0,0,0-2.8,0,1.3923,1.3923,0,0,0-.4761,1.1431v.209a1.3931,1.3931,0,0,0,.4761,1.1435A2.1636,2.1636,0,0,0,388.275,329.3721Z" fill="#525252"/>
    <path d="M396.6749,335.168a2.7656,2.7656,0,0,1-2.555-1.33,9.0168,9.0168,0,0,1,0-7.4478,3.119,3.119,0,0,1,5.11,0,9.0138,9.0138,0,0,1,0,7.4478A2.7654,2.7654,0,0,1,396.6749,335.168Zm0-1.0362a1.9109,1.9109,0,0,0,.98-.2368,1.8153,1.8153,0,0,0,.6579-.67,3.3124,3.3124,0,0,0,.3711-1.0186,6.5484,6.5484,0,0,0,.1189-1.2973v-1.59a6.552,6.552,0,0,0-.1189-1.2973,3.3182,3.3182,0,0,0-.3711-1.0186,1.819,1.819,0,0,0-.6579-.67,2.1463,2.1463,0,0,0-1.96,0,1.8185,1.8185,0,0,0-.658.67,3.3285,3.3285,0,0,0-.3711,1.0186,6.537,6.537,0,0,0-.1189,1.2973v1.59a6.5334,6.5334,0,0,0,.1189,1.2973,3.3227,3.3227,0,0,0,.3711,1.0186,1.8147,1.8147,0,0,0,.658.67A1.9094,1.9094,0,0,0,396.6749,334.1318Z" fill="#525252"/>
    <path d="M402.0648,327.7759h1.12v1.1626h.0559a2.0311,2.0311,0,0,1,.8191-1.0049,2.46,2.46,0,0,1,1.2949-.3257,2.7459,2.7459,0,0,1,1.218.2661,2.6456,2.6456,0,0,1,.9309.7559,3.4761,3.4761,0,0,1,.5882,1.19,6.1643,6.1643,0,0,1,0,3.1363,3.468,3.468,0,0,1-.5882,1.19,2.6456,2.6456,0,0,1-.9309.7559,2.7459,2.7459,0,0,1-1.218.2661,2.1875,2.1875,0,0,1-2.114-1.3306h-.0559V337.8h-1.12Zm2.9821,6.3979a1.9274,1.9274,0,0,0,1.4978-.5976,2.2357,2.2357,0,0,0,.5462-1.5694V330.769a2.235,2.235,0,0,0-.5462-1.5688,1.926,1.926,0,0,0-1.4978-.5981,2.44,2.44,0,0,0-.7211.1054,2.0163,2.0163,0,0,0-.595.2886,1.3864,1.3864,0,0,0-.3989.4429,1.1128,1.1128,0,0,0-.147.5561v2.7017a1.3019,1.3019,0,0,0,.147.626,1.4038,1.4038,0,0,0,.3989.4643,1.8117,1.8117,0,0,0,.595.2886A2.6094,2.6094,0,0,0,405.0469,334.1738Z" fill="#525252"/>
    <path d="M409.1207,335l2.674-3.64-2.562-3.584h1.316l1.8339,2.688h.042l1.9041-2.688h1.2461l-2.5481,3.5L415.6307,335h-1.3159l-1.876-2.8281h-.042L410.3668,335Z" fill="#525252"/>
  </g>
  <g>
    <path d="M559.5369,328.812a6.4023,6.4023,0,0,1-.322,2.0508,7.7386,7.7386,0,0,1-.833,1.75,8.2607,8.2607,0,0,1-1.1269,1.4,7.5547,7.5547,0,0,1-1.2039.9868h-1.512q.7838-.572,1.4-1.1172a8.4413,8.4413,0,0,0,1.0779-1.1382,6.8593,6.8593,0,0,0,.7842-1.27,7.4467,7.4467,0,0,0,.5178-1.5293l-.07-.0278a3.215,3.215,0,0,1-.9031,1.0019,2.42,2.42,0,0,1-1.449.399,3.1268,3.1268,0,0,1-1.1621-.2105,2.5415,2.5415,0,0,1-.91-.603,2.844,2.844,0,0,1-.595-.9473,3.4225,3.4225,0,0,1-.217-1.2558,3.6026,3.6026,0,0,1,.231-1.312,2.9262,2.9262,0,0,1,.6579-1.024,3,3,0,0,1,1.0222-.6665,3.5609,3.5609,0,0,1,1.337-.2387,3.4617,3.4617,0,0,1,1.3649.2587,2.8534,2.8534,0,0,1,1.0359.7422,3.259,3.259,0,0,1,.6512,1.1831A5.1386,5.1386,0,0,1,559.5369,328.812Zm-3.2619,1.5122a1.8641,1.8641,0,0,0,2.0439-2.0581v-.1123a2.0485,2.0485,0,1,0-4.0879,0v.1123a1.8645,1.8645,0,0,0,2.044,2.0581Z" fill="#525252"/>
    <path d="M564.689,335.168a3.4608,3.4608,0,0,1-1.365-.2588,2.8605,2.8605,0,0,1-1.0361-.7422,3.2512,3.2512,0,0,1-.6509-1.1831,5.1268,5.1268,0,0,1-.2241-1.5679,6.3968,6.3968,0,0,1,.322-2.0508,7.7489,7.7489,0,0,1,.833-1.75,8.2662,8.2662,0,0,1,1.127-1.4,7.5379,7.5379,0,0,1,1.2041-.9868h1.512q-.7845.5728-1.4,1.1172a8.4965,8.4965,0,0,0-1.0779,1.1382,6.8472,6.8472,0,0,0-.7839,1.27,7.4368,7.4368,0,0,0-.5181,1.5293l.07.0278a3.2067,3.2067,0,0,1,.9028-1.0014,2.4205,2.4205,0,0,1,1.449-.3994,3.1252,3.1252,0,0,1,1.1621.21,2.5424,2.5424,0,0,1,.91.603,2.8341,2.8341,0,0,1,.5952.9541,3.4415,3.4415,0,0,1,.2168,1.2491,3.6035,3.6035,0,0,1-.2309,1.312,2.9336,2.9336,0,0,1-.658,1.0244,2.9981,2.9981,0,0,1-1.029.6665A3.5877,3.5877,0,0,1,564.689,335.168Zm-.0141-1.0362a1.8634,1.8634,0,0,0,2.0439-2.0576v-.1123a2.0485,2.0485,0,1,0-4.0879,0v.1123a1.8638,1.8638,0,0,0,2.044,2.0576Z" fill="#525252"/>
    <path d="M570.0648,327.7759h1.12v1.1626h.0559a2.0311,2.0311,0,0,1,.8191-1.0049,2.46,2.46,0,0,1,1.2949-.3257,2.7459,2.7459,0,0,1,1.218.2661,2.6456,2.6456,0,0,1,.9309.7559,3.4761,3.4761,0,0,1,.5882,1.19,6.1643,6.1643,0,0,1,0,3.1363,3.468,3.468,0,0,1-.5882,1.19,2.6456,2.6456,0,0,1-.9309.7559,2.7459,2.7459,0,0,1-1.218.2661,2.1875,2.1875,0,0,1-2.114-1.3306h-.0559V337.8h-1.12Zm2.9821,6.3979a1.9274,1.9274,0,0,0,1.4978-.5976,2.2357,2.2357,0,0,0,.5462-1.5694V330.769a2.235,2.235,0,0,0-.5462-1.5688,1.926,1.926,0,0,0-1.4978-.5981,2.44,2.44,0,0,0-.7211.1054,2.0163,2.0163,0,0,0-.595.2886,1.3864,1.3864,0,0,0-.3989.4429,1.1128,1.1128,0,0,0-.147.5561v2.7017a1.3019,1.3019,0,0,0,.147.626,1.4038,1.4038,0,0,0,.3989.4643,1.8117,1.8117,0,0,0,.595.2886A2.6094,2.6094,0,0,0,573.0469,334.1738Z" fill="#525252"/>
    <path d="M577.1207,335l2.674-3.64-2.562-3.584h1.316l1.8339,2.688h.042l1.9041-2.688h1.2461l-2.5481,3.5L583.6307,335h-1.3159l-1.876-2.8281h-.042L578.3668,335Z" fill="#525252"/>
  </g>
  <path id="bfb2e3b8-1577-4388-b75f-ec802118105b" data-name="Watson IoT 02" d="M100,228H89.5V217.5H100Zm34.5,6.75H124v10.5h10.5ZM117.25,252h-10.5v10.5h10.5ZM109,217.5V228l9-5.3038Zm3,17.25a5.25,5.25,0,1,0,5.25,5.25A5.25,5.25,0,0,0,112,234.75Zm17.25-17.25a5.25,5.25,0,1,0,5.25,5.25A5.25,5.25,0,0,0,129.25,217.5ZM94.75,252a5.25,5.25,0,1,0,5.25,5.25A5.25,5.25,0,0,0,94.75,252Zm34.5-24v6.7388M117.25,240H124m-12,5.25V252m-12-29.25h9M98.4623,253.5377l9.8259-9.8259m8.9506,15.0382H123.25a6,6,0,0,0,6-6v-7.5112M94.75,228v6a6,6,0,0,0,6,6h6" fill="none" stroke="#000" stroke-linejoin="round" stroke-width="1.08"/>
  <path id="ff510afc-760a-452f-8fec-9d9fc9871f55" data-name="Watson IoT 02" d="M232,224H218V210h14Zm46,9H264v14h14Zm-23,23H241v14h14Zm-11-46v14l12-7.0718Zm4,23a7,7,0,1,0,7,7A7,7,0,0,0,248,233Zm23-23a7,7,0,1,0,7,7A7,7,0,0,0,271,210Zm-46,46a7,7,0,1,0,7,7A7,7,0,0,0,225,256Zm46-32v8.9851M255,240h9m-16,7v9m-16-39h12m-14.05,41.05L243.051,244.949M254.9851,265H263a8,8,0,0,0,8-8V246.9851M225,224v8a8,8,0,0,0,8,8h8" fill="none" stroke="#000" stroke-linejoin="round" stroke-width="1.44"/>
  <path id="a0e090f1-dc07-42e1-9e6d-037c839c8df2" data-name="Watson IoT 02" d="M380,220H362.5V202.5H380Zm57.5,11.25H420v17.5h17.5ZM408.75,260h-17.5v17.5h17.5ZM395,202.5V220l15-8.84Zm5,28.75a8.75,8.75,0,1,0,8.75,8.75A8.75,8.75,0,0,0,400,231.25Zm28.75-28.75a8.75,8.75,0,1,0,8.75,8.75A8.75,8.75,0,0,0,428.75,202.5ZM371.25,260a8.75,8.75,0,1,0,8.75,8.75A8.75,8.75,0,0,0,371.25,260Zm57.5-40v11.2314M408.75,240H420m-20,8.75V260m-20-48.75h15m-17.5628,51.3128,16.3765-16.3765M408.7314,271.25H418.75a10,10,0,0,0,10-10V248.7314M371.25,220v10a10,10,0,0,0,10,10h10" fill="none" stroke="#000" stroke-linejoin="round" stroke-width="1.8"/>
  <path id="a2d5be3e-eb95-48c4-a0f7-0b3e46ebc4c4" data-name="Watson IoT 02" d="M544,216H523V195h21Zm69,13.5H592v21h21ZM578.5,264h-21v21h21ZM562,195v21l18-10.6077Zm6,34.5A10.5,10.5,0,1,0,578.5,240,10.5,10.5,0,0,0,568,229.5ZM602.5,195A10.5,10.5,0,1,0,613,205.5,10.5,10.5,0,0,0,602.5,195Zm-69,69A10.5,10.5,0,1,0,544,274.5,10.5,10.5,0,0,0,533.5,264Zm69-48v13.4777M578.5,240H592m-24,10.5V264m-24-58.5h18m-21.0754,61.5754,19.6518-19.6518M578.4777,277.5H590.5a12,12,0,0,0,12-12V250.4777M533.5,216v12a12,12,0,0,0,12,12h12" fill="none" stroke="#000" stroke-linejoin="round" stroke-width="2.16"/>
  <path id="e1dbc915-9ca7-4c14-aa67-160e72226f17" data-name="Watson IoT 02" d="M728,208H700V180h28Zm92,18H792v28h28Zm-46,46H746v28h28Zm-22-92v28l24-14.1436Zm8,46a14,14,0,1,0,14,14A14,14,0,0,0,760,226Zm46-46a14,14,0,1,0,14,14A14,14,0,0,0,806,180Zm-92,92a14,14,0,1,0,14,14A14,14,0,0,0,714,272Zm92-64v17.97M774,240h18m-32,14v18m-32-78h24M723.9,276.1005l26.2024-26.2024M773.97,290H790a16,16,0,0,0,16-16V253.97M714,208v16a16,16,0,0,0,16,16h16" fill="none" stroke="#000" stroke-linejoin="round" stroke-width="2.88"/>
</svg>
