<?xml version="1.0" encoding="UTF-8"?>
<svg width="20px" height="20px" viewBox="0 0 20 20" version="1.1" xmlns="http://www.w3.org/2000/svg" xmlns:xlink="http://www.w3.org/1999/xlink">
    <title>warning--alt--filled</title>
    <g id="Structure" stroke="none" stroke-width="1" fill="none" fill-rule="evenodd">
        <g id="warning--alt--filled">
            <path d="M9.296875,6.875 L10.703125,6.875 L10.703125,13.125 L9.296875,13.125 L9.296875,6.875 Z M10,16.875 C9.48223305,16.875 9.0625,16.455267 9.0625,15.9375 C9.0625,15.419733 9.48223305,15 10,15 C10.517767,15 10.9375,15.419733 10.9375,15.9375 C10.9375,16.455267 10.517767,16.875 10,16.875 Z" id="_inner-path_" fill="#000000"></path>
            <path d="M18.6795,17.836625 L10.5545,2.211625 C10.4469258,2.00476996 10.2331549,1.87499065 10,1.87499065 C9.76684509,1.87499065 9.55307419,2.00476996 9.4455,2.211625 L1.3205,17.836625 C1.21973775,18.0303733 1.22741116,18.2626642 1.3407402,18.4493403 C1.45406924,18.6360165 1.65661628,18.75 1.875,18.75 L18.125,18.75 C18.3433837,18.75 18.5459308,18.6360165 18.6592598,18.4493403 C18.7725888,18.2626642 18.7802622,18.0303733 18.6795,17.836625 Z M9.296875,6.875 L10.703125,6.875 L10.703125,13.125 L9.296875,13.125 L9.296875,6.875 Z M10,16.875 C9.48223305,16.875 9.0625,16.455267 9.0625,15.9375 C9.0625,15.419733 9.48223305,15 10,15 C10.517767,15 10.9375,15.419733 10.9375,15.9375 C10.9375,16.455267 10.517767,16.875 10,16.875 Z" id="Shape" fill="#F1C21B" fill-rule="nonzero"></path>
            <rect id="_Transparent_Rectangle_" x="0" y="0" width="20" height="20"></rect>
        </g>
    </g>
</svg>