<?xml version="1.0" encoding="UTF-8"?>
<svg width="20px" height="20px" viewBox="0 0 20 20" version="1.1" xmlns="http://www.w3.org/2000/svg" xmlns:xlink="http://www.w3.org/1999/xlink">
    <title>warning--alt-inverted</title>
    <g id="Structure" stroke="none" stroke-width="1" fill="none" fill-rule="evenodd">
        <g id="warning--alt-inverted">
            <path d="M10,10.625 C9.48223305,10.625 9.0625,11.044733 9.0625,11.5625 C9.0625,12.080267 9.48223305,12.5 10,12.5 C10.517767,12.5 10.9375,12.080267 10.9375,11.5625 C10.9375,11.044733 10.517767,10.625 10,10.625 Z" id="Path" fill="#FC7B1E" fill-rule="nonzero"></path>
            <rect id="Rectangle" fill="#FC7B1E" fill-rule="nonzero" x="9.375" y="3.75" width="1.25" height="5.625"></rect>
            <path d="M18.659375,1.550625 C18.7724656,1.73730345 18.7800925,1.96942553 18.6795,2.163125 L10.5545,17.788125 C10.4469258,17.99498 10.2331549,18.1247593 10,18.1247593 C9.76684509,18.1247593 9.55307419,17.99498 9.4455,17.788125 L1.3205,2.163125 C1.2198589,1.96939633 1.22759588,1.73719445 1.34090953,1.55059476 C1.45422318,1.36399507 1.65668961,1.25 1.875,1.25 L18.125,1.25 C18.3433953,1.25 18.5459544,1.36399097 18.659375,1.550625 Z M2.9054375,2.5020625 L9.99875,16.142875 L10.00125,16.142875 L17.0945625,2.5020625 L17.0933125,2.5 L2.9066875,2.5 L2.9054375,2.5020625 Z" id="Shape" fill="#FF832B" fill-rule="nonzero"></path>
            <rect id="_Transparent_Rectangle_" x="0" y="0" width="20" height="20"></rect>
        </g>
    </g>
</svg>