<?xml version="1.0" encoding="UTF-8"?>
<svg width="20px" height="20px" viewBox="0 0 20 20" version="1.1" xmlns="http://www.w3.org/2000/svg" xmlns:xlink="http://www.w3.org/1999/xlink">
    <title>warning--alt</title>
    <g id="Structure" stroke="none" stroke-width="1" fill="none" fill-rule="evenodd">
        <g id="warning--alt">
            <path d="M10,14.375 C9.48223305,14.375 9.0625,14.794733 9.0625,15.3125 C9.0625,15.830267 9.48223305,16.25 10,16.25 C10.517767,16.25 10.9375,15.830267 10.9375,15.3125 C10.9375,14.794733 10.517767,14.375 10,14.375 Z" id="Path" fill="#F1C21B" fill-rule="nonzero"></path>
            <rect id="Rectangle" fill="#F1C21B" fill-rule="nonzero" x="9.375" y="7.5" width="1.25" height="5.625"></rect>
            <path d="M18.125,18.75 L1.875,18.75 C1.65661628,18.75 1.45406924,18.6360165 1.3407402,18.4493403 C1.22741116,18.2626642 1.21973775,18.0303733 1.3205,17.836625 L9.4455,2.211625 C9.55307419,2.00476996 9.76684509,1.87499065 10,1.87499065 C10.2331549,1.87499065 10.4469258,2.00476996 10.5545,2.211625 L18.6795,17.836625 C18.7802622,18.0303733 18.7725888,18.2626642 18.6592598,18.4493403 C18.5459308,18.6360165 18.3433837,18.75 18.125,18.75 Z M2.9066875,17.5 L17.0933125,17.5 L17.0945625,17.4979375 L10.00125,3.857125 L9.99875,3.857125 L2.9054375,17.4979375 L2.9066875,17.5 Z" id="Shape" fill="#F1C21B" fill-rule="nonzero"></path>
            <rect id="_Transparent_Rectangle_" x="0" y="0" width="20" height="20"></rect>
        </g>
    </g>
</svg>