<?xml version="1.0" encoding="UTF-8"?>
<svg width="20px" height="20px" viewBox="0 0 20 20" version="1.1" xmlns="http://www.w3.org/2000/svg" xmlns:xlink="http://www.w3.org/1999/xlink">
    <title>error</title>
    <g id="Structure" stroke="none" stroke-width="1" fill="none" fill-rule="evenodd">
        <g id="error">
            <g id="Icon-2" transform="translate(1.250000, 1.250000)" fill="#FA4D56" fill-rule="nonzero">
                <path d="M-5.55111512e-16,8.75 L-5.55111512e-16,8.75 C-5.55111512e-16,13.5824916 3.91750844,17.5 8.75,17.5 C13.5824916,17.5 17.5,13.5824916 17.5,8.75 C17.5,3.91750844 13.5824916,-5.55111512e-16 8.75,-5.55111512e-16 C3.91750844,-5.55111512e-16 -5.55111512e-16,3.91750844 -5.55111512e-16,8.75 Z M14.46875,13.59375 L3.90625,3.03125 C6.88635202,0.550674735 11.2659489,0.750573761 14.0076876,3.49231242 C16.7494262,6.23405107 16.9493253,10.613648 14.46875,13.59375 Z M3.9,14.475 C0.748653414,11.7988675 0.357279503,7.07722081 3.025,3.91875 L13.58125,14.475 C10.7862592,16.8366931 6.69499082,16.8366931 3.9,14.475 Z" id="Shape"></path>
            </g>
            <g id="_Transparent_Rectangle_">
                <rect id="Rectangle" x="0" y="0" width="20" height="20"></rect>
            </g>
        </g>
    </g>
</svg>