<?xml version="1.0" encoding="UTF-8"?>
<svg width="20px" height="20px" viewBox="0 0 20 20" version="1.1" xmlns="http://www.w3.org/2000/svg"
    xmlns:xlink="http://www.w3.org/1999/xlink">
    <title>misuse--outline (1)</title>

    <g id="Structure" stroke="none" stroke-width="1" fill="none" fill-rule="evenodd">
        <path
            d="M10,1.25 C5.125,1.25 1.25,5.125 1.25,10 C1.25,14.875 5.125,18.75 10,18.75 C14.875,18.75 18.75,14.875 18.75,10 C18.75,5.125 14.875,1.25 10,1.25 Z M10,17.5 C5.875,17.5 2.5,14.125 2.5,10 C2.5,5.875 5.875,2.5 10,2.5 C14.125,2.5 17.5,5.875 17.5,10 C17.5,14.125 14.125,17.5 10,17.5 Z"
            id="Shape" fill="#FA4D56" fill-rule="nonzero"></path>
        <rect id="_Transparent_Rectangle_" x="0" y="0" width="20" height="20"></rect>
        <polygon id="Path" fill="#FA4D56" fill-rule="nonzero"
            points="13.375 14.375 10 11 6.625 14.375 5.625 13.375 9 10 5.625 6.625 6.625 5.625 10 9 13.375 5.625 14.375 6.625 11 10 14.375 13.375">
        </polygon>
    </g>
</svg>