<svg width="20" height="20" viewBox="0 0 20 20" fill="none" xmlns="http://www.w3.org/2000/svg">
<g clip-path="url(#clip0_143_26823)">
<rect width="20" height="20" fill="white" fill-opacity="0.01" style="mix-blend-mode:multiply"/>
<rect width="20" height="20" fill="white" fill-opacity="0.01" style="mix-blend-mode:multiply"/>
<path d="M4.81274 2.9375C4.09586 3.48761 3.46406 4.14047 2.93774 4.875L3.93774 5.625C4.39677 4.98839 4.9439 4.42021 5.56274 3.9375L4.81274 2.9375Z" fill="#8D8D8D"/>
<path d="M2.87524 7.6875L1.68774 7.3125C1.38584 8.17584 1.23776 9.08547 1.25024 10H2.50024C2.4977 9.21382 2.62439 8.43258 2.87524 7.6875Z" fill="#8D8D8D"/>
<path d="M1.68774 12.75C1.97759 13.6215 2.39914 14.4435 2.93774 15.1875L3.93774 14.4375C3.48591 13.8049 3.12804 13.1102 2.87524 12.375L1.68774 12.75Z" fill="#8D8D8D"/>
<path d="M4.87524 17.0625C5.6192 17.6011 6.44122 18.0226 7.31274 18.3125L7.68774 17.125C6.95258 16.8722 6.25787 16.5143 5.62524 16.0625L4.87524 17.0625Z" fill="#8D8D8D"/>
<path d="M7.31274 1.6875L7.68774 2.875C8.43282 2.62415 9.21407 2.49746 10.0002 2.5V1.25C9.08571 1.23752 8.17609 1.3856 7.31274 1.6875Z" fill="#8D8D8D"/>
<path d="M15.1252 17.0625C15.8614 16.5138 16.5141 15.8612 17.0627 15.125L16.0627 14.375C15.5979 15.0274 15.0276 15.5977 14.3752 16.0625L15.1252 17.0625Z" fill="#8D8D8D"/>
<path d="M17.1252 12.3125L18.3127 12.6875C18.5846 11.8168 18.7319 10.912 18.7502 10H17.5002C17.5028 10.7862 17.3761 11.5674 17.1252 12.3125Z" fill="#8D8D8D"/>
<path d="M18.2502 7.25C17.9604 6.37847 17.5388 5.55645 17.0002 4.81249L16.0002 5.56249C16.4521 6.19513 16.8099 6.88983 17.0627 7.625L18.2502 7.25Z" fill="#8D8D8D"/>
<path d="M15.0627 2.875C14.3188 2.33639 13.4968 1.91485 12.6252 1.625L12.2502 2.8125C12.9854 3.06529 13.6801 3.42317 14.3127 3.87499L15.0627 2.875Z" fill="#8D8D8D"/>
<path d="M12.6877 18.3125L12.3127 17.125C11.5677 17.3758 10.7864 17.5025 10.0002 17.5V18.75C10.9086 18.6959 11.8091 18.5493 12.6877 18.3125Z" fill="#8D8D8D"/>
</g>
<defs>
<clipPath id="clip0_143_26823">
<rect width="20" height="20" fill="white"/>
</clipPath>
</defs>
</svg>
