<?xml version="1.0" encoding="UTF-8"?>
<svg width="20px" height="20px" viewBox="0 0 20 20" version="1.1" xmlns="http://www.w3.org/2000/svg" xmlns:xlink="http://www.w3.org/1999/xlink">
    <title>warning--filled</title>
    <g id="Structure" stroke="none" stroke-width="1" fill="none" fill-rule="evenodd">
        <g id="warning--filled">
            <rect id="Transparent_Rectangle" x="0" y="0" width="20" height="20"></rect>
            <path d="M10,1.25 C5.1875,1.25 1.25,5.1875 1.25,10 C1.25,14.8125 5.1875,18.75 10,18.75 C14.8125,18.75 18.75,14.8125 18.75,10 C18.75,5.1875 14.8125,1.25 10,1.25 Z M9.3125,5 L10.6875,5 L10.6875,11.875 L9.3125,11.875 L9.3125,5 L9.3125,5 Z M10,15.625 C9.5,15.625 9.0625,15.1875 9.0625,14.6875 C9.0625,14.1875 9.5,13.75 10,13.75 C10.5,13.75 10.9375,14.1875 10.9375,14.6875 C10.9375,15.1875 10.5,15.625 10,15.625 Z" id="Compound_Path" fill="#FA4D56" fill-rule="nonzero"></path>
            <path d="M10.9375,14.6875 C10.9375,15.1875 10.5,15.625 10,15.625 C9.5,15.625 9.0625,15.1875 9.0625,14.6875 C9.0625,14.1875 9.5,13.75 10,13.75 C10.5,13.75 10.9375,14.1875 10.9375,14.6875 Z M10.6875,5 L9.3125,5 L9.3125,11.875 L10.6875,11.875 L10.6875,5 Z" id="inner-path" fill="#171717"></path>
        </g>
    </g>
</svg>