<?xml version="1.0" encoding="UTF-8"?>
<svg width="20px" height="20px" viewBox="0 0 20 20" version="1.1" xmlns="http://www.w3.org/2000/svg"
    xmlns:xlink="http://www.w3.org/1999/xlink">
    <title>warning--hex (2)</title>
    <g id="Structure" stroke="none" stroke-width="1" fill="none" fill-rule="evenodd">
        <path
            d="M10,13.125 C9.48223305,13.125 9.0625,13.544733 9.0625,14.0625 C9.0625,14.580267 9.48223305,15 10,15 C10.517767,15 10.9375,14.580267 10.9375,14.0625 C10.9375,13.544733 10.517767,13.125 10,13.125 Z"
            id="Path" fill="#FA4D56" fill-rule="nonzero"></path>
        <rect id="Rectangle" fill="#FA4D56" fill-rule="nonzero" x="9.375" y="5" width="1.25" height="6.25">
        </rect>
        <path
            d="M14.375,18.125 L5.625,18.125 C5.40270709,18.125 5.1971384,18.0069457 5.085125,17.8149375 L0.710125,10.3149375 C0.596593332,10.1203268 0.596593332,9.87967322 0.710125,9.6850625 L5.085125,2.1850625 C5.1971384,1.99305433 5.40270709,1.875 5.625,1.875 L14.375,1.875 C14.5972929,1.875 14.8028616,1.99305433 14.914875,2.1850625 L19.289875,9.6850625 C19.4034067,9.87967322 19.4034067,10.1203268 19.289875,10.3149375 L14.914875,17.8149375 C14.8028616,18.0069457 14.5972929,18.125 14.375,18.125 Z M5.983875,16.875 L14.016125,16.875 L18.0264375,10 L14.016125,3.125 L5.983875,3.125 L1.9735625,10 L5.983875,16.875 Z"
            id="Shape" fill="#FA4D56" fill-rule="nonzero"></path>
        <rect id="_Transparent_Rectangle_" x="0" y="0" width="20" height="20"></rect>
    </g>
</svg>