<svg xmlns="http://www.w3.org/2000/svg" width="192" height="48" viewBox="0 0 320 320">
    <g fill="none" fill-rule="evenodd" transform="translate(64 136)">
        <path fill="#F3F3F3" d="M6 0h42v48H6a6 6 0 0 1-6-6V6a6 6 0 0 1 6-6z"/>
        <path fill="#171717" d="M48 0h48v48H48z"/>
        <path fill="#F3F3F3" d="M96 0h48v48H96zM144 0h42a6 6 0 0 1 6 6v36a6 6 0 0 1-6 6h-42V0z"/>
        <path stroke="#D8D8D8" stroke-linecap="square" stroke-width="1.5" d="M144 15v18"/>
        <g fill="#565656" fill-rule="nonzero">
            <path d="M117 21h1.5v9H117zM121.5 21h1.5v9h-1.5z"/>
            <path d="M111 16.5V18h1.5v15a1.5 1.5 0 0 0 1.5 1.5h12a1.5 1.5 0 0 0 1.5-1.5V18h1.5v-1.5h-18zm3 16.5V18h12v15h-12zM117 13.5h6V15h-6z"/>
        </g>
        <path d="M108 12h24v24h-24z"/>
        <g fill="#3D3D3D" fill-rule="nonzero">
            <path d="M35.25 24L30 29.25l-1.06-1.06L33.129 24l-4.19-4.19L30 18.75zM12.75 24L18 18.75l1.06 1.06L14.872 24l4.19 4.19L18 29.25zM21.318 31.112L25.233 16.5l1.449.389L22.767 31.5z"/>
        </g>
        <path d="M12 36V12h24v24z"/>
        <g>
            <path fill="#F3F3F3" fill-rule="nonzero" d="M67.857 16.5c.24 0 .465.115.606.308l1.518 2.077.45.615h10.454c.068.007.12.067.115.136v11.728a.129.129 0 0 1-.115.136h-17.77a.129.129 0 0 1-.115-.136V16.636a.129.129 0 0 1 .115-.136h4.742zm0-1.5h-4.742a1.626 1.626 0 0 0-1.615 1.636v14.728A1.626 1.626 0 0 0 63.115 33h17.77a1.626 1.626 0 0 0 1.615-1.636V19.636A1.626 1.626 0 0 0 80.885 18h-9.693l-1.518-2.078A2.25 2.25 0 0 0 67.857 15z"/>
            <path d="M60 12h24v24H60z"/>
        </g>
        <g>
            <g fill="#565656" fill-rule="nonzero">
                <path d="M179.205 23.744A12.522 12.522 0 0 0 168 15.75a12.522 12.522 0 0 0-11.205 7.994.743.743 0 0 0 0 .512A12.522 12.522 0 0 0 168 32.25a12.522 12.522 0 0 0 11.205-7.994.743.743 0 0 0 0-.512zM168 30.75c-3.975 0-8.178-2.944-9.697-6.75 1.519-3.806 5.722-6.75 9.697-6.75 3.975 0 8.178 2.944 9.698 6.75-1.52 3.806-5.723 6.75-9.698 6.75z"/>
                <path d="M168 19.5a4.5 4.5 0 1 0 0 9 4.5 4.5 0 0 0 0-9zm0 7.5a3 3 0 1 1 0-6 3 3 0 0 1 0 6z"/>
            </g>
            <path d="M156 12h24v24h-24z"/>
        </g>
    </g>
</svg>
