<?xml version="1.0" encoding="UTF-8"?>
<svg width="20px" height="20px" viewBox="0 0 20 20" version="1.1" xmlns="http://www.w3.org/2000/svg" xmlns:xlink="http://www.w3.org/1999/xlink">
    <title>Group</title>
    <defs>
        <filter id="filter-1">
            <feColorMatrix in="SourceGraphic" type="matrix" values="0 0 0 0 0.745098 0 0 0 0 0.745098 0 0 0 0 0.745098 0 0 0 1.000000 0"></feColorMatrix>
        </filter>
    </defs>
    <g id="Structure" stroke="none" stroke-width="1" fill="none" fill-rule="evenodd">
        <g id="Group">
            <g filter="url(#filter-1)" id="help--filled">
                <g>
                    <path d="M10,1.25 C5.16750844,1.25 1.25,5.16750844 1.25,10 C1.25,14.8324916 5.16750844,18.75 10,18.75 C14.8324916,18.75 18.75,14.8324916 18.75,10 C18.75,7.67935571 17.8281276,5.45375898 16.1871843,3.81281566 C14.546241,2.17187235 12.3206443,1.25 10,1.25 Z M10,15.625 C9.62081665,15.625 9.27897013,15.3965855 9.13386294,15.0462657 C8.98875575,14.695946 9.06896427,14.2927105 9.33708739,14.0245874 C9.60521051,13.7564643 10.008446,13.6762558 10.3587657,13.8213629 C10.7090855,13.9664701 10.9375,14.3083166 10.9375,14.6875 C10.9375,15.205267 10.517767,15.625 10,15.625 L10,15.625 Z M10.7138125,10.77875 L10.7138125,12.342125 L9.3075625,12.342125 L9.3075625,9.375 L10.6356875,9.375 C11.4559339,9.375 12.120875,8.71005891 12.120875,7.8898125 C12.120875,7.06956609 11.4559339,6.404625 10.6356875,6.404625 L9.6981875,6.404625 C8.87877533,6.40555496 8.21474246,7.06958783 8.2138125,7.889 L8.2138125,8.2875 L6.8075625,8.2875 L6.8075625,7.8889375 C6.80949268,6.29356277 8.10281191,5.00099855 9.6981875,4.99999919 L10.6356875,4.99999919 C12.2173179,4.99883045 13.5060547,6.26932218 13.5274354,7.85080852 C13.5488161,9.43229486 12.2948965,10.7371617 10.7138125,10.77875 L10.7138125,10.77875 Z" id="Shape" fill="#000000" fill-rule="nonzero"></path>
                    <rect id="_Transparent_Rectangle_" x="0" y="0" width="20" height="20"></rect>
                </g>
            </g>
            <path d="M10,15.625 C9.62081665,15.625 9.27897013,15.3965855 9.13386294,15.0462657 C8.98875575,14.695946 9.06896427,14.2927105 9.33708739,14.0245874 C9.60521051,13.7564643 10.008446,13.6762558 10.3587657,13.8213629 C10.7090855,13.9664701 10.9375,14.3083166 10.9375,14.6875 C10.9375,15.205267 10.517767,15.625 10,15.625 L10,15.625 Z M10.7138125,10.77875 L10.7138125,12.342125 L9.3075625,12.342125 L9.3075625,9.375 L10.6356875,9.375 C11.4559339,9.375 12.120875,8.71005891 12.120875,7.8898125 C12.120875,7.06956609 11.4559339,6.404625 10.6356875,6.404625 L9.6981875,6.404625 C8.87877533,6.40555496 8.21474246,7.06958783 8.2138125,7.889 L8.2138125,8.2875 L6.8075625,8.2875 L6.8075625,7.8889375 C6.80949268,6.29356277 8.10281191,5.00099855 9.6981875,4.99999919 L10.6356875,4.99999919 C12.2173179,4.99883045 13.5060547,6.26932218 13.5274354,7.85080852 C13.5488161,9.43229486 12.2948965,10.7371617 10.7138125,10.77875 L10.7138125,10.77875 Z" id="inner-path" fill="#000000"></path>
        </g>
    </g>
</svg>