<?xml version="1.0" encoding="UTF-8"?>
<svg width="20px" height="20px" viewBox="0 0 20 20" version="1.1" xmlns="http://www.w3.org/2000/svg"
    xmlns:xlink="http://www.w3.org/1999/xlink">
    <title>status_indicator_1 copy 66</title>
    <g id="status_indicator_1-copy-66" stroke="none" stroke-width="1" fill="none" fill-rule="evenodd">
        <path
            d="M10,13.125 C10.517767,13.125 10.9375,13.544733 10.9375,14.0625 C10.9375,14.580267 10.517767,15 10,15 C9.48223305,15 9.0625,14.580267 9.0625,14.0625 C9.0625,13.544733 9.48223305,13.125 10,13.125 Z M10.703125,10.78 C12.1118796,10.7383828 13.2261209,9.57320251 13.2047641,8.16399519 C13.1834072,6.75478787 12.0343687,5.62390798 10.625,5.62499921 L9.375,5.62499921 C7.95185472,5.6267219 6.7985969,6.77997972 6.796875,8.203125 L6.796875,8.515625 L8.203125,8.515625 L8.203125,8.203125 C8.20388269,7.55623041 8.72810541,7.03200769 9.375,7.03125 L10.625,7.03125 C11.2722087,7.03125 11.796875,7.55591631 11.796875,8.203125 C11.796875,8.85033369 11.2722087,9.375 10.625,9.375 L9.296875,9.375 L9.296875,11.953125 L10.703125,11.953125 L10.703125,10.78 Z"
            id="inner-path" fill="#000000"></path>


        <path
            d="M18.3851875,9.119125 L10.88125,1.615125 C10.3946622,1.12868129 9.60590031,1.12868129 9.1193125,1.615125 L1.6148125,9.119125 C1.12838898,9.60576998 1.12838898,10.3945425 1.6148125,10.8811875 L9.119125,18.3851875 C9.60571281,18.8716312 10.3944747,18.8716312 10.8810625,18.3851875 L18.3851875,10.88125 C18.8716527,10.3945979 18.8716527,9.60577714 18.3851875,9.119125 Z M10,15 C9.48223305,15 9.0625,14.580267 9.0625,14.0625 C9.0625,13.544733 9.48223305,13.125 10,13.125 C10.517767,13.125 10.9375,13.544733 10.9375,14.0625 C10.9375,14.580267 10.517767,15 10,15 Z M10.703125,10.7800625 L10.703125,11.953125 L9.296875,11.953125 L9.296875,9.375 L10.625,9.375 C11.2722087,9.375 11.796875,8.85033369 11.796875,8.203125 C11.796875,7.55591631 11.2722087,7.03125 10.625,7.03125 L9.375,7.03125 C8.72809116,7.03197332 8.20384832,7.55621616 8.203125,8.203125 L8.203125,8.515625 L6.796875,8.515625 L6.796875,8.203125 C6.7985969,6.77997972 7.95185472,5.6267219 9.375,5.625 L10.625,5.625 C12.0335807,5.625 13.1813686,6.75563905 13.2027132,8.16405799 C13.2240578,9.57247692 12.1110569,10.737315 10.703125,10.7800625 L10.703125,10.7800625 Z"
            id="Shape" fill="#8D8D8D" fill-rule="nonzero"></path>
        <rect id="_Transparent_Rectangle_" x="0" y="0" width="20" height="20"></rect>

    </g>
</svg>