<?xml version="1.0" encoding="UTF-8"?>
<svg width="20px" height="20px" viewBox="0 0 20 20" version="1.1" xmlns="http://www.w3.org/2000/svg"
    xmlns:xlink="http://www.w3.org/1999/xlink">
    <title>circle-dash</title>

    <g id="Structure" stroke="none" stroke-width="1" fill="none" fill-rule="evenodd">


        <path
            d="M4.8125,2.9375 C4.09562055,3.48761241 3.46381888,4.14047413 2.9375,4.875 L3.9375,5.625 C4.39652935,4.98839236 4.94366116,4.42021702 5.5625,3.9375 L4.8125,2.9375 Z"
            id="Path" fill="#4589ff" fill-rule="nonzero"></path>
        <path
            d="M2.875,7.6875 L1.6875,7.3125 C1.38560165,8.17584944 1.23752336,9.08547324 1.25,10 L2.5,10 C2.49746364,9.21382769 2.62415198,8.43258295 2.875,7.6875 L2.875,7.6875 Z"
            id="Path" fill="#4589ff" fill-rule="nonzero"></path>
        <path
            d="M1.6875,12.75 C1.97735132,13.6215221 2.39889972,14.4435415 2.9375,15.1875 L3.9375,14.4375 C3.48567465,13.8048658 3.12779777,13.1101636 2.875,12.375 L1.6875,12.75 Z"
            id="Path" fill="#4589ff" fill-rule="nonzero"></path>
        <path
            d="M4.875,17.0625 C5.61895852,17.6011003 6.44097791,18.0226487 7.3125,18.3125 L7.6875,17.125 C6.95233641,16.8722022 6.25763423,16.5143254 5.625,16.0625 L4.875,17.0625 Z"
            id="Path" fill="#4589ff" fill-rule="nonzero"></path>
        <path
            d="M7.3125,1.6875 L7.6875,2.875 C8.43258295,2.62415198 9.21382769,2.49746364 10,2.5 L10,1.25 C9.08547324,1.23752336 8.17584944,1.38560165 7.3125,1.6875 L7.3125,1.6875 Z"
            id="Path" fill="#4589ff" fill-rule="nonzero"></path>
        <path
            d="M15.125,17.0625 C15.8611823,16.5138203 16.5138203,15.8611823 17.0625,15.125 L16.0625,14.375 C15.597698,15.0273791 15.0273791,15.597698 14.375,16.0625 L15.125,17.0625 Z"
            id="Path" fill="#4589ff" fill-rule="nonzero"></path>
        <path
            d="M17.125,12.3125 L18.3125,12.6875 C18.5843754,11.816789 18.7316689,10.9119857 18.75,10 L17.5,10 C17.5025364,10.7861723 17.375848,11.567417 17.125,12.3125 Z"
            id="Path" fill="#4589ff" fill-rule="nonzero"></path>
        <path
            d="M18.25,7.25 C17.9601487,6.37847791 17.5386003,5.55645852 17,4.8125 L16,5.5625 C16.4518254,6.19513423 16.8097022,6.88983641 17.0625,7.625 L18.25,7.25 Z"
            id="Path" fill="#4589ff" fill-rule="nonzero"></path>
        <path
            d="M15.0625,2.875 C14.3185415,2.33639972 13.4965221,1.91485132 12.625,1.625 L12.25,2.8125 C12.9851636,3.06529777 13.6798658,3.42317465 14.3125,3.875 L15.0625,2.875 Z"
            id="Path" fill="#4589ff" fill-rule="nonzero"></path>
        <path
            d="M12.6875,18.3125 L12.3125,17.125 C11.567417,17.375848 10.7861723,17.5025364 10,17.5 L10,18.75 C10.9083742,18.695884 11.8088639,18.5492927 12.6875,18.3125 L12.6875,18.3125 Z"
            id="Path" fill="#4589ff" fill-rule="nonzero"></path>
        <rect id="_Transparent_Rectangle_" x="0" y="0" width="20" height="20"></rect>

    </g>
</svg>