<svg width="320" height="320" viewBox="0 0 320 320" fill="none" xmlns="http://www.w3.org/2000/svg">
<g filter="url(#filter0_d_1501_4347)">
<rect x="102" y="116.562" width="115" height="101.438" fill="#D8D8D8"/>
</g>
<rect x="102" y="116.423" width="115" height="101.437" fill="#F3F3F3"/>
<path fill-rule="evenodd" clip-rule="evenodd" d="M135.938 165.552H195.938V178.552H135.938V165.552Z" fill="#C9DEFF"/>
<path fill-rule="evenodd" clip-rule="evenodd" d="M194.806 165.552H207.806V178.552H194.806V165.552Z" fill="#006AFF"/>
<path d="M204.452 127.094L202.086 129.453L201.715 129.083L203.708 127.094L201.715 125.105L202.086 124.736L204.452 127.094Z" fill="black"/>
<mask id="mask0_1501_4347" style="mask-type:luminance" maskUnits="userSpaceOnUse" x="201" y="124" width="4" height="6">
<path d="M204.452 127.094L202.086 129.453L201.715 129.083L203.708 127.094L201.715 125.105L202.086 124.736L204.452 127.094Z" fill="white"/>
</mask>
<g mask="url(#mask0_1501_4347)">
<rect width="8.38542" height="8.41373" transform="matrix(0 1 -1 0 207.081 122.901)" fill="black"/>
</g>
<path fill-rule="evenodd" clip-rule="evenodd" d="M122.931 165.552H135.931V178.552H122.931V165.552Z" fill="#006AFF"/>
<path d="M114.797 127.361L117.164 129.72L117.534 129.35L115.541 127.361L117.534 125.372L117.164 125.003L114.797 127.361Z" fill="black"/>
<mask id="mask1_1501_4347" style="mask-type:luminance" maskUnits="userSpaceOnUse" x="114" y="125" width="4" height="5">
<path d="M114.797 127.361L117.164 129.72L117.534 129.35L115.541 127.361L117.534 125.372L117.164 125.003L114.797 127.361Z" fill="white"/>
</mask>
<g mask="url(#mask1_1501_4347)">
<rect width="8.38542" height="8.41373" transform="matrix(0 1 1 0 112.168 123.168)" fill="black"/>
</g>
<rect x="159.5" y="102" width="57.5" height="14.4235" fill="#F3F3F3"/>
<rect x="102.358" y="102.358" width="56.7849" height="13.7085" fill="white" stroke="#006AFF" stroke-width="0.715081"/>
<path fill-rule="evenodd" clip-rule="evenodd" d="M152.672 107.048H151.953V106.688H151.594V107.048H150.156V106.688H149.797V107.048H149.078C148.88 107.048 148.719 107.21 148.719 107.409V111.015C148.719 111.214 148.88 111.375 149.078 111.375H152.672C152.87 111.375 153.031 111.214 153.031 111.015V107.409C153.031 107.21 152.87 107.048 152.672 107.048ZM152.672 111.015H149.078V108.49H152.672V111.015ZM149.078 108.13H152.672V107.409H151.953V107.769H151.594V107.409H150.156V107.769H149.797V107.409H149.078V108.13Z" fill="black"/>
<mask id="mask2_1501_4347" style="mask-type:luminance" maskUnits="userSpaceOnUse" x="148" y="106" width="6" height="6">
<path fill-rule="evenodd" clip-rule="evenodd" d="M152.672 107.048H151.953V106.688H151.594V107.048H150.156V106.688H149.797V107.048H149.078C148.88 107.048 148.719 107.21 148.719 107.409V111.015C148.719 111.214 148.88 111.375 149.078 111.375H152.672C152.87 111.375 153.031 111.214 153.031 111.015V107.409C153.031 107.21 152.87 107.048 152.672 107.048ZM152.672 111.015H149.078V108.49H152.672V111.015ZM149.078 108.13H152.672V107.409H151.953V107.769H151.594V107.409H150.156V107.769H149.797V107.409H149.078V108.13Z" fill="white"/>
</mask>
<g mask="url(#mask2_1501_4347)">
<rect width="14.375" height="14.4235" transform="translate(148 106.327)" fill="black"/>
</g>
<path fill-rule="evenodd" clip-rule="evenodd" d="M210.172 107.048H209.453V106.688H209.094V107.048H207.656V106.688H207.297V107.048H206.578C206.38 107.048 206.219 107.21 206.219 107.409V111.015C206.219 111.214 206.38 111.375 206.578 111.375H210.172C210.37 111.375 210.531 111.214 210.531 111.015V107.409C210.531 107.21 210.37 107.048 210.172 107.048ZM210.172 111.015H206.578V108.49H210.172V111.015ZM206.578 108.13H210.172V107.409H209.453V107.769H209.094V107.409H207.656V107.769H207.297V107.409H206.578V108.13Z" fill="black"/>
<mask id="mask3_1501_4347" style="mask-type:luminance" maskUnits="userSpaceOnUse" x="206" y="106" width="5" height="6">
<path fill-rule="evenodd" clip-rule="evenodd" d="M210.172 107.048H209.453V106.688H209.094V107.048H207.656V106.688H207.297V107.048H206.578C206.38 107.048 206.219 107.21 206.219 107.409V111.015C206.219 111.214 206.38 111.375 206.578 111.375H210.172C210.37 111.375 210.531 111.214 210.531 111.015V107.409C210.531 107.21 210.37 107.048 210.172 107.048ZM210.172 111.015H206.578V108.49H210.172V111.015ZM206.578 108.13H210.172V107.409H209.453V107.769H209.094V107.409H207.656V107.769H207.297V107.409H206.578V108.13Z" fill="white"/>
</mask>
<g mask="url(#mask3_1501_4347)">
<rect width="14.375" height="14.4235" transform="translate(205.5 106.327)" fill="black"/>
</g>
<rect x="159.5" y="116.063" width="57.5" height="0.360588" fill="#C6C6C6"/>
<rect x="107.75" y="107.6" width="30.9062" height="3" fill="#8D8D8D"/>
<rect x="165.187" y="107.432" width="30.9062" height="3" fill="#8D8D8D"/>
<rect x="144.766" y="125.629" width="30.9062" height="3" fill="#8D8D8D"/>
<rect x="113.141" y="184.936" width="4" height="4" fill="#8D8D8D"/>
<rect x="127.516" y="184.936" width="4" height="4" fill="#8D8D8D"/>
<rect x="141.891" y="184.936" width="4" height="4" fill="#8D8D8D"/>
<rect x="156.341" y="184.938" width="4" height="4" fill="#8D8D8D"/>
<rect x="170.641" y="184.936" width="4" height="4" fill="#8D8D8D"/>
<rect x="185.016" y="184.936" width="4" height="4" fill="#8D8D8D"/>
<rect x="199.391" y="184.936" width="4" height="4" fill="#8D8D8D"/>
<rect x="113.141" y="199.719" width="4" height="4" fill="#8D8D8D"/>
<rect x="127.516" y="199.719" width="4" height="4" fill="#8D8D8D"/>
<rect x="141.891" y="199.719" width="4" height="4" fill="#8D8D8D"/>
<rect x="156.341" y="199.5" width="4" height="4" fill="#8D8D8D"/>
<rect x="170.641" y="199.719" width="4" height="4" fill="#8D8D8D"/>
<rect x="185.016" y="199.719" width="4" height="4" fill="#8D8D8D"/>
<rect x="199.391" y="199.719" width="4" height="4" fill="#8D8D8D"/>
<rect x="113.141" y="170.151" width="4" height="4" fill="#8D8D8D"/>
<rect x="127.516" y="170.151" width="4" height="4" fill="white"/>
<rect x="141.891" y="170.151" width="4" height="4" fill="#78A9FF"/>
<rect x="156.266" y="170.151" width="4" height="4" fill="#78A9FF"/>
<rect x="170.641" y="170.151" width="4" height="4" fill="#78A9FF"/>
<rect x="185.016" y="170.151" width="4" height="4" fill="#78A9FF"/>
<rect x="199.391" y="170.151" width="4" height="4" fill="white"/>
<rect x="113.141" y="155.006" width="4" height="4" fill="#8D8D8D"/>
<rect x="127.516" y="155.006" width="4" height="4" fill="#8D8D8D"/>
<rect x="141.891" y="155.006" width="4" height="4" fill="#8D8D8D"/>
<rect x="156.266" y="155.006" width="4" height="4" fill="#8D8D8D"/>
<rect x="170.641" y="155.006" width="4" height="4" fill="#8D8D8D"/>
<rect x="185.016" y="155.006" width="4" height="4" fill="#8D8D8D"/>
<rect x="199.391" y="155.006" width="4" height="4" fill="#8D8D8D"/>
<rect x="113.141" y="139.862" width="4" height="4" fill="#8D8D8D"/>
<rect x="127.516" y="139.862" width="4" height="4" fill="#8D8D8D"/>
<rect x="141.891" y="139.862" width="4" height="4" fill="#8D8D8D"/>
<rect x="156.266" y="139.862" width="4" height="4" fill="#8D8D8D"/>
<rect x="170.641" y="139.862" width="4" height="4" fill="#8D8D8D"/>
<rect x="185.016" y="139.862" width="4" height="4" fill="#8D8D8D"/>
<rect x="199.391" y="139.862" width="4" height="4" fill="#8D8D8D"/>
<defs>
<filter id="filter0_d_1501_4347" x="98" y="114.562" width="123" height="109.438" filterUnits="userSpaceOnUse" color-interpolation-filters="sRGB">
<feFlood flood-opacity="0" result="BackgroundImageFix"/>
<feColorMatrix in="SourceAlpha" type="matrix" values="0 0 0 0 0 0 0 0 0 0 0 0 0 0 0 0 0 0 127 0" result="hardAlpha"/>
<feOffset dy="2"/>
<feGaussianBlur stdDeviation="2"/>
<feColorMatrix type="matrix" values="0 0 0 0 0.862745 0 0 0 0 0.862745 0 0 0 0 0.862745 0 0 0 1 0"/>
<feBlend mode="normal" in2="BackgroundImageFix" result="effect1_dropShadow_1501_4347"/>
<feBlend mode="normal" in="SourceGraphic" in2="effect1_dropShadow_1501_4347" result="shape"/>
</filter>
</defs>
</svg>
