<svg width="320" height="320" viewBox="0 0 320 320" fill="none" xmlns="http://www.w3.org/2000/svg">
<path d="M215.875 125.625V120H214.625V125.625H209V126.875H214.625V132.5H215.875V126.875H221.5V125.625H215.875Z" fill="white"/>
<path fill-rule="evenodd" clip-rule="evenodd" d="M72 110H248V134H72V110Z" fill="#DCDCDC"/>
<g filter="url(#filter0_d_1501_4642)">
<rect x="74" y="142" width="174" height="66" fill="#D8D8D8"/>
</g>
<path fill-rule="evenodd" clip-rule="evenodd" d="M72 134H248V158H72V134Z" fill="#F3F3F3"/>
<path fill-rule="evenodd" clip-rule="evenodd" d="M72 157H248V183H72V157Z" fill="#F3F3F3"/>
<rect x="84" y="159" width="152" height="1" fill="#C6C6C6"/>
<path fill-rule="evenodd" clip-rule="evenodd" d="M72 183H248V211H72V183Z" fill="#F3F3F3"/>
<rect x="84" y="185" width="152" height="1" fill="#C6C6C6"/>
<path d="M230 119.75L233.75 123.5L233.22 124.03L230 120.81L226.78 124.03L226.25 123.5L230 119.75Z" fill="black"/>
<mask id="mask0_1501_4642" style="mask-type:luminance" maskUnits="userSpaceOnUse" x="226" y="119" width="8" height="6">
<path d="M230 119.75L233.75 123.5L233.22 124.03L230 120.81L226.78 124.03L226.25 123.5L230 119.75Z" fill="white"/>
</mask>
<g mask="url(#mask0_1501_4642)">
<rect width="30" height="30" transform="translate(224 116)" fill="#171717"/>
</g>
<rect x="84" y="120" width="72" height="6" fill="#8D8D8D"/>
<rect opacity="0.754768" x="84" y="144" width="99" height="6" fill="#A8A8A8"/>
<rect opacity="0.754768" x="84" y="170" width="72" height="6" fill="#A8A8A8"/>
<rect opacity="0.754768" x="84" y="196" width="99" height="6" fill="#A8A8A8"/>
<defs>
<filter id="filter0_d_1501_4642" x="68" y="138" width="186" height="78" filterUnits="userSpaceOnUse" color-interpolation-filters="sRGB">
<feFlood flood-opacity="0" result="BackgroundImageFix"/>
<feColorMatrix in="SourceAlpha" type="matrix" values="0 0 0 0 0 0 0 0 0 0 0 0 0 0 0 0 0 0 127 0" result="hardAlpha"/>
<feOffset dy="2"/>
<feGaussianBlur stdDeviation="3"/>
<feColorMatrix type="matrix" values="0 0 0 0 0.862745 0 0 0 0 0.862745 0 0 0 0 0.862745 0 0 0 1 0"/>
<feBlend mode="normal" in2="BackgroundImageFix" result="effect1_dropShadow_1501_4642"/>
<feBlend mode="normal" in="SourceGraphic" in2="effect1_dropShadow_1501_4642" result="shape"/>
</filter>
</defs>
</svg>
