<svg width="320" height="320" viewBox="0 0 320 320" fill="none" xmlns="http://www.w3.org/2000/svg">
<rect x="90" y="144" width="140" height="16" fill="#F4F4F4"/>
<rect x="90" y="159" width="140" height="1" fill="#8D8D8D"/>
<rect x="90.57" y="109.57" width="138.86" height="14.86" fill="#F4F4F4" stroke="#006AFF" stroke-width="1.14"/>
<rect x="104" y="182" width="27" height="3" fill="#8D8D8D"/>
<rect x="153" y="182" width="27" height="3" fill="#8D8D8D"/>
<rect x="91" y="102" width="33" height="3" fill="#8D8D8D"/>
<rect x="91" y="137" width="33" height="3" fill="#8D8D8D"/>
<rect x="91" y="172" width="33" height="3" fill="#8D8D8D"/>
<rect x="90" y="200" width="76" height="18" fill="#0F6DFF"/>
<path fill-rule="evenodd" clip-rule="evenodd" d="M90.5625 183.5C90.5625 181.325 92.3254 179.562 94.5 179.562C95.5443 179.562 96.5458 179.977 97.2842 180.716C98.0227 181.454 98.4375 182.456 98.4375 183.5C98.4375 185.675 96.6746 187.438 94.5 187.438C92.3254 187.438 90.5625 185.675 90.5625 183.5ZM91.125 183.5C91.125 185.364 92.636 186.875 94.5 186.875C96.364 186.875 97.875 185.364 97.875 183.5C97.875 181.636 96.364 180.125 94.5 180.125C92.636 180.125 91.125 181.636 91.125 183.5Z" fill="black"/>
<path fill-rule="evenodd" clip-rule="evenodd" d="M94.4873 181.8C93.5553 181.8 92.7998 182.556 92.7998 183.49C92.7998 184.423 93.5553 185.18 94.4873 185.18C95.4193 185.18 96.1748 184.423 96.1748 183.49C96.1748 182.556 95.4193 181.8 94.4873 181.8Z" fill="black"/>
<path fill-rule="evenodd" clip-rule="evenodd" d="M143.5 179.562C141.325 179.562 139.562 181.325 139.562 183.5C139.562 185.675 141.325 187.438 143.5 187.438C145.675 187.438 147.438 185.675 147.438 183.5C147.438 182.456 147.023 181.454 146.284 180.716C145.546 179.977 144.544 179.562 143.5 179.562ZM143.5 186.875C141.636 186.875 140.125 185.364 140.125 183.5C140.125 181.636 141.636 180.125 143.5 180.125C145.364 180.125 146.875 181.636 146.875 183.5C146.875 185.364 145.364 186.875 143.5 186.875Z" fill="black"/>
<rect x="202" y="182" width="27" height="3" fill="#8D8D8D"/>
<path fill-rule="evenodd" clip-rule="evenodd" d="M192.5 179.562C190.325 179.562 188.562 181.325 188.562 183.5C188.562 185.675 190.325 187.438 192.5 187.438C194.675 187.438 196.438 185.675 196.438 183.5C196.438 182.456 196.023 181.454 195.284 180.716C194.546 179.977 193.544 179.562 192.5 179.562ZM192.5 186.875C190.636 186.875 189.125 185.364 189.125 183.5C189.125 181.636 190.636 180.125 192.5 180.125C194.364 180.125 195.875 181.636 195.875 183.5C195.875 185.364 194.364 186.875 192.5 186.875Z" fill="black"/>
</svg>
