<svg width="320" height="320" viewBox="0 0 320 320" fill="none" xmlns="http://www.w3.org/2000/svg">
<path d="M140.672 154.392V161.88H139.664V154.392H137V153.504H143.336V154.392H140.672Z" fill="#0062FF"/>
<path fill-rule="evenodd" clip-rule="evenodd" d="M145.802 161.796C146.142 161.948 146.524 162.024 146.948 162.024C147.532 162.024 148.036 161.894 148.46 161.634C148.884 161.374 149.196 161.032 149.396 160.608L148.712 160.116C148.552 160.46 148.326 160.724 148.034 160.908C147.742 161.092 147.4 161.184 147.008 161.184C146.72 161.184 146.462 161.136 146.234 161.04C146.006 160.944 145.814 160.812 145.658 160.644C145.502 160.476 145.382 160.278 145.298 160.05C145.214 159.822 145.172 159.576 145.172 159.312V159.024H149.624V158.568C149.624 158.128 149.562 157.724 149.438 157.356C149.314 156.988 149.136 156.67 148.904 156.402C148.672 156.134 148.392 155.924 148.064 155.772C147.736 155.62 147.364 155.544 146.948 155.544C146.524 155.544 146.142 155.62 145.802 155.772C145.462 155.924 145.17 156.142 144.926 156.426C144.682 156.71 144.494 157.052 144.362 157.452C144.23 157.852 144.164 158.296 144.164 158.784C144.164 159.28 144.23 159.726 144.362 160.122C144.494 160.518 144.682 160.858 144.926 161.142C145.17 161.426 145.462 161.644 145.802 161.796ZM146.228 156.486C146.444 156.394 146.684 156.348 146.948 156.348C147.444 156.348 147.842 156.514 148.142 156.846C148.442 157.178 148.592 157.62 148.592 158.172V158.304H145.172V158.22C145.172 157.948 145.216 157.698 145.304 157.47C145.392 157.242 145.514 157.044 145.67 156.876C145.826 156.708 146.012 156.578 146.228 156.486Z" fill="#0062FF"/>
<path d="M150.44 161.88L152.732 158.76L150.536 155.688H151.664L153.236 157.992H153.272L154.904 155.688H155.972L153.788 158.688L156.02 161.88H154.892L153.284 159.456H153.248L151.508 161.88H150.44Z" fill="#0062FF"/>
<path d="M158.66 161.88C158.324 161.88 158.07 161.786 157.898 161.598C157.726 161.41 157.64 161.164 157.64 160.86V156.528H156.62V155.688H157.196C157.404 155.688 157.546 155.646 157.622 155.562C157.698 155.478 157.736 155.332 157.736 155.124V153.972H158.6V155.688H159.956V156.528H158.6V161.04H159.86V161.88H158.66Z" fill="#0062FF"/>
<path d="M165.356 161.88C165.02 161.88 164.766 161.786 164.594 161.598C164.422 161.41 164.336 161.172 164.336 160.884V153H165.296V161.04H166.208V161.88H165.356Z" fill="#0062FF"/>
<path fill-rule="evenodd" clip-rule="evenodd" d="M167.63 154.086C167.722 154.186 167.872 154.236 168.08 154.236C168.288 154.236 168.438 154.186 168.53 154.086C168.622 153.986 168.668 153.856 168.668 153.696V153.54C168.668 153.38 168.622 153.25 168.53 153.15C168.438 153.05 168.288 153 168.08 153C167.872 153 167.722 153.05 167.63 153.15C167.538 153.25 167.492 153.38 167.492 153.54V153.696C167.492 153.856 167.538 153.986 167.63 154.086ZM168.56 161.88V155.688H167.6V161.88H168.56Z" fill="#0062FF"/>
<path d="M170.6 161.88V155.688H171.56V156.696H171.608C171.76 156.344 171.974 156.064 172.25 155.856C172.526 155.648 172.896 155.544 173.36 155.544C174 155.544 174.506 155.75 174.878 156.162C175.25 156.574 175.436 157.156 175.436 157.908V161.88H174.476V158.076C174.476 156.964 174.008 156.408 173.072 156.408C172.88 156.408 172.694 156.432 172.514 156.48C172.334 156.528 172.172 156.6 172.028 156.696C171.884 156.792 171.77 156.914 171.686 157.062C171.602 157.21 171.56 157.384 171.56 157.584V161.88H170.6Z" fill="#0062FF"/>
<path d="M177.416 153H178.376V158.628H178.424L179.372 157.572L181.124 155.688H182.288L179.996 158.136L182.516 161.88H181.352L179.3 158.724L178.376 159.672V161.88H177.416V153Z" fill="#0062FF"/>
<path d="M137.736 167.38H183.736" stroke="#0062FF"/>
</svg>
