<svg width="320" height="320" viewBox="0 0 320 320" fill="none" xmlns="http://www.w3.org/2000/svg">
<rect x="107" y="127" width="91" height="6" fill="#8D8D8D"/>
<path fill-rule="evenodd" clip-rule="evenodd" d="M82.875 129C82.875 125.617 85.6173 122.875 89 122.875C90.6245 122.875 92.1824 123.52 93.331 124.669C94.4797 125.818 95.125 127.376 95.125 129C95.125 132.383 92.3827 135.125 89 135.125C85.6173 135.125 82.875 132.383 82.875 129ZM83.75 129C83.75 131.899 86.1005 134.25 89 134.25C90.3924 134.25 91.7277 133.697 92.7123 132.712C93.6969 131.728 94.25 130.392 94.25 129C94.25 126.101 91.8995 123.75 89 123.75C86.1005 123.75 83.75 126.101 83.75 129Z" fill="#252525"/>
<path fill-rule="evenodd" clip-rule="evenodd" d="M82 150C82 146.134 85.134 143 89 143C90.8565 143 92.637 143.737 93.9497 145.05C95.2625 146.363 96 148.143 96 150C96 153.866 92.866 157 89 157C85.134 157 82 153.866 82 150ZM83 150C83 153.314 85.6863 156 89 156C90.5913 156 92.1174 155.368 93.2426 154.243C94.3679 153.117 95 151.591 95 150C95 146.686 92.3137 144 89 144C85.6863 144 83 146.686 83 150Z" fill="#252525"/>
<circle cx="89" cy="150" r="3" fill="#171717"/>
<rect x="107" y="148" width="131" height="6" fill="#8D8D8D"/>
<rect x="107" y="169" width="91" height="6" fill="#8D8D8D"/>
<rect x="107" y="190" width="131" height="6" fill="#8D8D8D"/>
<path fill-rule="evenodd" clip-rule="evenodd" d="M82.875 171C82.875 167.617 85.6173 164.875 89 164.875C90.6245 164.875 92.1824 165.52 93.331 166.669C94.4797 167.818 95.125 169.376 95.125 171C95.125 174.383 92.3827 177.125 89 177.125C85.6173 177.125 82.875 174.383 82.875 171ZM83.75 171C83.75 173.899 86.1005 176.25 89 176.25C90.3924 176.25 91.7277 175.697 92.7123 174.712C93.6969 173.728 94.25 172.392 94.25 171C94.25 168.101 91.8995 165.75 89 165.75C86.1005 165.75 83.75 168.101 83.75 171Z" fill="#252525"/>
<path fill-rule="evenodd" clip-rule="evenodd" d="M82.875 192C82.875 188.617 85.6173 185.875 89 185.875C90.6245 185.875 92.1824 186.52 93.331 187.669C94.4797 188.818 95.125 190.376 95.125 192C95.125 195.383 92.3827 198.125 89 198.125C85.6173 198.125 82.875 195.383 82.875 192ZM83.75 192C83.75 194.899 86.1005 197.25 89 197.25C90.3924 197.25 91.7277 196.697 92.7123 195.712C93.6969 194.728 94.25 193.392 94.25 192C94.25 189.101 91.8995 186.75 89 186.75C86.1005 186.75 83.75 189.101 83.75 192Z" fill="#252525"/>
</svg>
