<svg width="320" height="320" viewBox="0 0 320 320" fill="none" xmlns="http://www.w3.org/2000/svg">
<rect x="56" y="144" width="208" height="32" fill="#F3F3F3"/>
<path fill-rule="evenodd" clip-rule="evenodd" d="M74.8693 162.5L78.5744 166.295L77.8825 167L74.1578 163.225C71.9377 165.1 68.6636 164.866 66.7221 162.694C64.7806 160.522 64.8572 157.178 66.896 155.101C68.9349 153.024 72.2161 152.946 74.3479 154.924C76.4797 156.902 76.7093 160.238 74.8693 162.5ZM70.7226 154.5C68.2833 154.5 66.3059 156.515 66.3059 159C66.3059 161.485 68.2833 163.5 70.7226 163.5C73.1618 163.5 75.1392 161.485 75.1392 159C75.1392 156.515 73.1618 154.5 70.7226 154.5Z" fill="black"/>
<mask id="mask0_1501_5669" style="mask-type:luminance" maskUnits="userSpaceOnUse" x="65" y="153" width="14" height="14">
<path fill-rule="evenodd" clip-rule="evenodd" d="M74.8693 162.5L78.5744 166.295L77.8825 167L74.1578 163.225C71.9377 165.1 68.6636 164.866 66.7221 162.694C64.7806 160.522 64.8572 157.178 66.896 155.101C68.9349 153.024 72.2161 152.946 74.3479 154.924C76.4797 156.902 76.7093 160.238 74.8693 162.5ZM70.7226 154.5C68.2833 154.5 66.3059 156.515 66.3059 159C66.3059 161.485 68.2833 163.5 70.7226 163.5C73.1618 163.5 75.1392 161.485 75.1392 159C75.1392 156.515 73.1618 154.5 70.7226 154.5Z" fill="white"/>
</mask>
<g mask="url(#mask0_1501_5669)">
<rect width="31.4074" height="32" transform="translate(63.8521 152)" fill="#565656"/>
</g>
<path d="M56 175.5H264" stroke="#8C8C8C"/>
<path d="M246.99 160L250.222 156.707L249.528 156L246.296 159.293L243.064 156L242.37 156.707L245.602 160L242.37 163.293L243.064 164L246.296 160.707L249.528 164L250.222 163.293L246.99 160Z" fill="black"/>
<mask id="mask1_1501_5669" style="mask-type:luminance" maskUnits="userSpaceOnUse" x="242" y="156" width="9" height="8">
<path d="M246.99 160L250.222 156.707L249.528 156L246.296 159.293L243.064 156L242.37 156.707L245.602 160L242.37 163.293L243.064 164L246.296 160.707L249.528 164L250.222 163.293L246.99 160Z" fill="white"/>
</mask>
<g mask="url(#mask1_1501_5669)">
<rect width="31.4074" height="32" transform="translate(238.444 152)" fill="#171717"/>
</g>
<rect x="88.3887" y="157" width="96" height="6" fill="#8D8D8D"/>
</svg>
