<svg width="320" height="320" viewBox="0 0 320 320" fill="none" xmlns="http://www.w3.org/2000/svg">
<rect x="56" y="144" width="208" height="32" fill="#F3F3F3"/>
<path d="M56 175.5H264" stroke="#8D8D8D"/>
<rect x="68.3887" y="157" width="96" height="6" fill="#8D8D8D"/>
<path fill-rule="evenodd" clip-rule="evenodd" d="M236.954 153.231C236.741 152.906 236.488 152.608 236.2 152.343C235.802 152.038 235.394 151.828 234.959 151.694C234.422 151.584 233.925 151.551 233.429 151.583L233.494 152.581C233.902 152.554 234.312 152.582 234.713 152.662C234.987 152.749 235.29 152.905 235.559 153.11C235.933 153.456 236.253 153.918 236.461 154.433V159.522H235.461V160.502H236.461V164.63C236.252 165.145 235.932 165.607 235.523 165.984C235.29 166.159 234.987 166.314 234.664 166.414C234.312 166.482 233.902 166.509 233.494 166.483L233.429 167.481C233.925 167.513 234.423 167.48 234.91 167.382C235.394 167.235 235.802 167.025 236.164 166.749C236.475 166.465 236.739 166.156 236.958 165.824C237.183 166.152 237.453 166.449 237.761 166.705C238.144 166.99 238.541 167.202 238.963 167.352C239.509 167.471 240 167.508 240.489 167.481L240.434 166.482C240.031 166.504 239.628 166.474 239.233 166.392C238.97 166.293 238.66 166.128 238.379 165.92C237.986 165.591 237.661 165.151 237.451 164.654V160.502H238.451V159.522H237.451V154.399C237.659 153.902 237.982 153.461 238.394 153.114C238.65 152.926 238.961 152.761 239.29 152.642C239.618 152.583 240.025 152.555 240.43 152.581L240.493 151.583C240.001 151.552 239.507 151.585 239.024 151.681C238.531 151.852 238.135 152.064 237.775 152.329C237.455 152.598 237.181 152.901 236.954 153.231Z" fill="black"/>
</svg>
