<svg xmlns="http://www.w3.org/2000/svg" viewBox="0 0 288 288"><g fill="none" fill-rule="evenodd"><path fill="#171717" d="M0 0h288v288H0z"/><path fill="#F3F3F3" d="M83.15 154.74v-2.11h2.94v-16.77h-2.94v-2.1h8.41v2.1h-2.94v16.77h2.94v2.11z"/><path d="M96.17 133.76h8.62c3.46 0 5.59 2.13 5.59 5.41 0 3.28-2 4.24-3.39 4.45v.18a4.58 4.58 0 014.12 4.87c0 3.45-2.32 6.07-5.42 6.07h-9.52v-20.98zm2.52 9.08h5.8c2 0 3.19-1.06 3.19-2.92v-1c0-1.87-1.2-2.92-3.19-2.92h-5.8v6.84zm0 9.67h6.22c2.17 0 3.49-1.14 3.49-3.24v-1c0-2.11-1.32-3.25-3.49-3.25h-6.22v7.49z" fill="#F3F3F3" fill-rule="nonzero"/><path fill="#F3F3F3" d="M115.8 133.76h3.37l6 11.3h.15l6-11.3h3.25v21h-2.47v-17.7h-.1l-1.77 3.52-5 9.14-5-9.14-1.78-3.52h-.15v17.68h-2.5zm35.93 10.13l-6.4-10.13h5.32l4.08 7.09h.09l4.15-7.09h4.93L157.44 144l6.82 10.76H159l-4.57-7.76h-.09l-4.42 7.73H145zm14.61 3.85v-4.33h8.93v4.33zm12.84 7v-21h13.92v4.06h-9.35v4.29h8v4h-8v8.6z"/><path d="M195.54 146.83c0-5.08 2.76-8.23 7.39-8.23s7.4 3.15 7.4 8.23-2.77 8.27-7.4 8.27c-4.63 0-7.39-3.19-7.39-8.27zm10.16 1.63v-3.22c0-2-1-3.13-2.77-3.13s-2.76 1.15-2.76 3.13v3.22c0 2 1 3.12 2.76 3.12 1.76 0 2.77-1.14 2.77-3.12z" fill="#F3F3F3" fill-rule="nonzero"/><path d="M213.49 154.74V139h4.44v3.42h.15a4 4 0 014-3.42h.78v4.15h-1.11c-2.58 0-3.85.57-3.85 2.4v9.23l-4.41-.04zm11.15-7.91c0-5.05 2.62-8.23 7.36-8.23 3.19 0 5.39 1.53 6.32 4.12l-3.61 1.56a2.62 2.62 0 00-2.71-2.17c-1.8 0-2.73 1.3-2.73 3.28v3c0 2 .93 3.27 2.73 3.27 1.8 0 2.5-1.11 2.95-2.37l3.46 1.5c-1 3-3.31 4.36-6.41 4.36-4.74-.05-7.36-3.27-7.36-8.32z" fill="#F3F3F3"/><path d="M240.18 146.83c0-5 2.65-8.23 7.4-8.23 5.23 0 7.33 3.78 7.33 8.05V148h-10.13v.24c0 2.07 1.12 3.39 3.49 3.39a5 5 0 003.88-1.89l2.22 2.76a8.51 8.51 0 01-6.61 2.62c-4.84-.02-7.58-3.24-7.58-8.29zm4.6-1.71v.24h5.53v-.27c0-1.92-.87-3.22-2.64-3.22s-2.89 1.3-2.89 3.25z" fill="#F3F3F3" fill-rule="nonzero"/><path d="M31 161h34v-34H31z"/><path d="M61.953 148.93h-13.57v-4.547h14.11v.68c0 1.34-.198 2.634-.54 3.868zm-13.57 10.604v-4.525h10.13a14.427 14.427 0 01-10.13 4.525zm-14.876-14.472v-16.616h14.11v31.088c-7.813-.205-14.11-6.608-14.11-14.472zm14.875-6.757h14.11v-4.547h-14.11v4.547zm0 5.312h14.11v-4.546h-14.11v4.546zm0 6.08H61.72a14.483 14.483 0 01-2.515 4.546H48.382v-4.546zm0-16.705h14.11v-4.546h-14.11v4.546zm14.493-5.312h-29.75a.382.382 0 00-.383.382v17c0 8.413 6.845 15.259 15.258 15.259s15.257-6.846 15.257-15.259v-17a.382.382 0 00-.382-.382z" fill="#F3F3F3"/></g></svg>