<?xml version="1.0" encoding="utf-8"?>
<!-- Generator: Adobe Illustrator 25.2.0, SVG Export Plug-In . SVG Version: 6.00 Build 0)  -->
<svg version="1.1" id="Layer_1" xmlns="http://www.w3.org/2000/svg" xmlns:xlink="http://www.w3.org/1999/xlink" x="0px" y="0px"
	 viewBox="0 0 1856 1044" style="enable-background:new 0 0 1856 1044;" xml:space="preserve">
<style type="text/css">
	.st0{fill-rule:evenodd;clip-rule:evenodd;fill:#FFFFFF;}
	.st1{fill-rule:evenodd;clip-rule:evenodd;fill:#C9DEFF;}
	.st2{fill-rule:evenodd;clip-rule:evenodd;fill:#F4F4F4;}
	.st3{fill-rule:evenodd;clip-rule:evenodd;}
	.st4{fill-rule:evenodd;clip-rule:evenodd;fill:#171717;}
	.st5{fill:#97C1FF;}
	.st6{fill-rule:evenodd;clip-rule:evenodd;fill:#6F6F6F;}
</style>
<g id="Artboard-Copy-17">
	<g id="Clearance-example-comp-Copy">
		<rect id="Rectangle-3" class="st0" width="1856" height="1044"/>
	</g>
	<g id="Group-24-Copy" transform="translate(214.000000, 136.000000)">
		<polygon id="Fill-1" class="st0" points="214,636 1214,636 1214,136 214,136 		"/>
		<path id="Fill-2" class="st1" d="M436.2,497.1h222.2V274.9H436.2V497.1z M380.7,219.3v27.8v27.8v222.2v27.8v27.8H714v-27.8v-27.8
			V274.9v-27.8v-27.8H380.7z"/>
		<path id="Fill-3" class="st2" d="M769.6,497.1h222.2V274.9H769.6V497.1z M714,219.3v27.8v27.8v222.2v27.8v27.8h333.3v-27.8v-27.8
			V274.9v-27.8v-27.8H714z"/>
		<polygon id="Fill-4" class="st0" points="436.2,497.1 658.4,497.1 658.4,274.9 436.2,274.9 		"/>
		<g id="Group-23" transform="translate(113.111111, 71.444444)">
			<path id="Fill-5" class="st3" d="M448.2,212.9c-3.9,0-7.8,2-9.9,5.7l-20.8,36.1c-3.1,5.4-1.3,12.4,4.2,15.6
				c2.6,1.5,5.7,1.9,8.6,1.1c3-0.8,5.4-2.7,6.9-5.3L458,230c1.5-2.6,1.9-5.7,1.1-8.6c-0.8-2.9-2.7-5.4-5.3-6.9
				C452,213.4,450.1,212.9,448.2,212.9 M427.2,276.7c-2.8,0-5.6-0.7-8.1-2.2c-7.8-4.5-10.5-14.6-6-22.4l20.8-36.1
				c4.5-7.8,14.6-10.5,22.4-6c3.8,2.2,6.5,5.7,7.6,10c1.1,4.2,0.6,8.6-1.6,12.4l-20.8,36.1c-2.2,3.8-5.7,6.5-10,7.6
				C430.1,276.5,428.7,276.7,427.2,276.7"/>
			<path id="Fill-7" class="st3" d="M477.3,375.7c-2,0-3.9,0.5-5.7,1.5c-2.6,1.5-4.5,4-5.3,6.9c-0.8,2.9-0.4,6,1.2,8.6
				c1.5,2.6,4,4.5,6.9,5.3h0l40.2,10.8c2.9,0.8,6,0.4,8.6-1.2c2.6-1.5,4.5-4,5.3-6.9c1.6-6.1-2-12.3-8.1-14l-40.2-10.8
				C479.3,375.8,478.3,375.7,477.3,375.7 M517.6,414.3c-1.4,0-2.8-0.2-4.2-0.6l-40.2-10.8c-4.2-1.1-7.7-3.8-9.9-7.6
				c-2.2-3.8-2.8-8.2-1.7-12.4c1.1-4.2,3.8-7.7,7.6-9.9c3.8-2.2,8.2-2.8,12.4-1.7l40.2,10.8c8.7,2.3,13.9,11.3,11.6,20.1
				c-1.1,4.2-3.8,7.7-7.6,9.9C523.2,413.5,520.4,414.3,517.6,414.3"/>
			<path id="Fill-9" class="st3" d="M364.8,322.6c-1,0-2,0.1-3,0.4c-3,0.8-5.4,2.7-6.9,5.3l-20.8,36.1c-1.5,2.6-1.9,5.7-1.1,8.6
				c0.8,2.9,2.7,5.4,5.3,6.9c5.4,3.1,12.4,1.3,15.6-4.2l20.8-36.1c3.1-5.4,1.3-12.4-4.2-15.6C368.7,323.2,366.8,322.6,364.8,322.6
				L364.8,322.6z M343.9,386.5c-2.8,0-5.6-0.7-8.2-2.2c-3.8-2.2-6.5-5.7-7.6-10c-1.1-4.2-0.6-8.7,1.6-12.4l20.8-36.1
				c2.2-3.8,5.7-6.5,10-7.6c4.2-1.1,8.7-0.6,12.4,1.6c7.8,4.5,10.5,14.6,6,22.4l-20.8,36.1C355.1,383.6,349.6,386.5,343.9,386.5
				L343.9,386.5z"/>
			<path id="Fill-11" class="st3" d="M496.7,289.3c-1.9,0-3.9,0.5-5.7,1.5c-2.6,1.5-4.5,4-5.3,6.9c-0.8,3-0.4,6,1.1,8.6l20.8,36.1
				c1.5,2.6,4,4.5,6.9,5.3c2.9,0.8,6,0.4,8.6-1.1c5.4-3.1,7.3-10.1,4.2-15.6l-20.8-36.1C504.5,291.3,500.6,289.3,496.7,289.3
				 M517.6,353.1c-1.4,0-2.9-0.2-4.3-0.6c-4.2-1.1-7.8-3.8-10-7.6l-20.8-36.1c-2.2-3.8-2.8-8.2-1.6-12.4c1.1-4.2,3.8-7.8,7.6-10
				c7.8-4.5,17.9-1.8,22.4,6l20.8,36.1c4.5,7.8,1.8,17.9-6,22.4C523.2,352.4,520.5,353.1,517.6,353.1"/>
			<path id="Fill-13" class="st3" d="M387,233.7c-1.9,0-3.9,0.5-5.7,1.5l-36.1,20.8c-2.6,1.5-4.5,4-5.3,6.9c-0.8,3-0.4,6,1.1,8.6
				c1.5,2.6,4,4.5,6.9,5.3c2.9,0.8,6,0.4,8.6-1.1l36.1-20.8c5.4-3.1,7.3-10.1,4.2-15.6C394.7,235.8,390.9,233.7,387,233.7
				 M350.9,282.3c-1.4,0-2.9-0.2-4.3-0.6c-4.2-1.1-7.8-3.8-10-7.6c-2.2-3.8-2.8-8.2-1.6-12.4c1.1-4.2,3.8-7.8,7.6-10l36.1-20.8
				c7.8-4.5,17.9-1.8,22.4,6c4.5,7.8,1.8,17.9-6,22.4l-36.1,20.8C356.6,281.6,353.8,282.3,350.9,282.3"/>
			<path id="Fill-15" class="st3" d="M414.7,372.6c-1.9,0-3.9,0.5-5.7,1.5L373,395c-2.6,1.5-4.5,4-5.3,6.9c-0.8,3-0.4,6,1.1,8.6
				c1.5,2.6,4,4.5,6.9,5.3c3,0.8,6,0.4,8.6-1.1l36.1-20.8c5.4-3.1,7.3-10.1,4.2-15.6C422.5,374.7,418.7,372.6,414.7,372.6
				 M378.7,421.2c-1.4,0-2.9-0.2-4.3-0.6c-4.2-1.1-7.8-3.8-10-7.6c-2.2-3.8-2.8-8.2-1.6-12.4c1.1-4.2,3.8-7.8,7.6-10l36.1-20.8
				c7.8-4.5,17.9-1.8,22.4,6c4.5,7.8,1.8,17.9-6,22.4L386.9,419C384.4,420.5,381.6,421.2,378.7,421.2"/>
			<path id="Fill-17" class="st3" d="M488.5,226.8c-3.9,0-7.8,2-9.9,5.7c-3.1,5.5-1.3,12.4,4.2,15.6l36.1,20.8
				c2.6,1.5,5.7,1.9,8.6,1.1s5.4-2.7,6.9-5.3c1.5-2.6,1.9-5.7,1.1-8.6c-0.8-2.9-2.7-5.4-5.3-6.9l-36.1-20.8
				C492.3,227.3,490.4,226.8,488.5,226.8 M524.5,275.4c-2.8,0-5.6-0.7-8.1-2.2l-36.1-20.8c-7.8-4.5-10.5-14.6-6-22.4
				c4.5-7.8,14.6-10.5,22.4-6l36.1,20.8c3.8,2.2,6.5,5.7,7.6,10c1.1,4.2,0.6,8.7-1.6,12.4c-2.2,3.8-5.7,6.5-10,7.6
				C527.3,275.2,525.9,275.4,524.5,275.4"/>
			<path id="Fill-19" class="st3" d="M412.1,303.2c-1,0-2,0.1-3,0.4c-2.9,0.8-5.4,2.7-6.9,5.3c-1.5,2.6-1.9,5.7-1.1,8.6
				c0.8,2.9,2.7,5.4,5.3,6.9l36.1,20.8c5.4,3.1,12.4,1.3,15.6-4.2c3.1-5.4,1.3-12.4-4.2-15.6l-36.1-20.8
				C416,303.7,414.1,303.2,412.1,303.2 M448.1,351.8c-2.8,0-5.6-0.7-8.2-2.2l-36.1-20.8c-3.8-2.2-6.5-5.7-7.6-10
				c-1.1-4.2-0.6-8.6,1.6-12.4c2.2-3.8,5.7-6.5,10-7.6c4.2-1.1,8.7-0.6,12.4,1.6l36.1,20.8c7.8,4.5,10.5,14.6,6,22.4
				C459.3,348.8,453.8,351.8,448.1,351.8"/>
			<path id="Fill-21" class="st4" d="M779.7,369.3l0.8-0.3c6.2-2.5,10.2-8.5,10.2-15.2l0-15.7c0-12.8-9.8-23.7-22-24.4
				c-6.5-0.3-12.6,1.9-17.2,6.3c-4.7,4.4-7.2,10.4-7.2,16.8l0,16.9c0,6.7,4,12.7,10.2,15.2l0.8,0.3v35.5h5v-37.2
				c0-1-0.9-2.1-1.8-2.5l-2.2-0.9c-4.3-1.8-7.1-5.9-7.1-10.6l0-16.9c0-5,2-9.7,5.7-13.2c3.7-3.5,8.5-5.1,13.5-5
				c9.5,0.5,17.2,9.2,17.2,19.4l0,15.7c0,4.7-2.8,8.8-7.1,10.5l-2.4,1c-0.9,0.4-1.6,1.3-1.6,2.3v37.2h5V369.3z M700.6,416.2h133.9
				V261.5H700.6V416.2z M839.5,418.7V259c0-1.4-1.1-2.5-2.5-2.5H698.1c-1.4,0-2.5,1.1-2.5,2.5v159.7c0,1.4,1.1,2.5,2.5,2.5H837
				C838.4,421.2,839.5,420.1,839.5,418.7L839.5,418.7z M775.5,290.2c0,4.4-3.6,7.9-7.9,7.9c-4.4,0-7.9-3.5-7.9-7.9
				c0-4.4,3.6-7.9,7.9-7.9C771.9,282.3,775.5,285.9,775.5,290.2L775.5,290.2z M780.5,290.2c0-7.1-5.8-12.9-12.9-12.9
				c-7.1,0-12.9,5.8-12.9,12.9c0,7.1,5.8,12.9,12.9,12.9C774.7,303.2,780.5,297.4,780.5,290.2L780.5,290.2z M762.4,236.4l-22.6-22.6
				l-22.4,22.4l3.5,3.5l18.8-18.8l19.1,19.1L762.4,236.4z M818.2,218.9l-3.5-3.5l-19.3,19.3l-19-19l-3.5,3.5l22.6,22.6L818.2,218.9z
				 M869.2,418.7h5V210.4h-5V418.7z M660.9,418.7h5V210.4h-5V418.7z"/>
		</g>
	</g>
	<path id="Combined-Shape-Copy-7" class="st5" d="M596,738h-2v-16h2l0,7H652l0-7h2v16h-2l0-7H596L596,738z"/>
	<path id="_x31__x2F_4-grid-width-copy-3" class="st6" d="M597.3,776v-2.1h5.5v-15.3l-5.5,3.3l-0.9-1.8l6.2-3.6h2.6v17.5h5v2.1
		H597.3z M611.9,780.2l7.3-24.9h2l-7.3,24.9H611.9z M632.9,776v-3.8h-9.4v-2.1l8.2-13.6h3.5v13.7h2.8v2h-2.8v3.8H632.9z
		 M625.6,770.2h7.2v-11.9h-0.1L625.6,770.2z M660.3,777.6c0,1.5-0.6,2.6-1.8,3.3c-1.2,0.7-2.9,1-5.2,1c-2.3,0-3.9-0.3-4.9-0.9
		c-1-0.6-1.5-1.5-1.5-2.6c0-0.8,0.2-1.4,0.6-1.8s1-0.8,1.7-1v-0.3c-0.9-0.4-1.3-1.1-1.3-2c0-0.7,0.2-1.3,0.7-1.7
		c0.5-0.4,1.1-0.7,1.8-0.9v-0.1c-0.9-0.4-1.5-1-2-1.8c-0.5-0.8-0.7-1.7-0.7-2.7c0-0.7,0.1-1.4,0.4-2c0.3-0.6,0.6-1.1,1.1-1.6
		s1-0.8,1.7-1s1.4-0.4,2.2-0.4c1,0,1.9,0.2,2.7,0.6v-0.3c0-0.6,0.1-1,0.4-1.4c0.3-0.4,0.7-0.6,1.3-0.5h2.2v2H657v0.9
		c0.5,0.4,0.9,1,1.2,1.6c0.3,0.6,0.4,1.3,0.4,2.1c0,0.7-0.1,1.4-0.4,2c-0.3,0.6-0.6,1.1-1.1,1.6c-0.5,0.4-1,0.8-1.7,1
		c-0.7,0.2-1.4,0.4-2.2,0.4c-0.5,0-0.9,0-1.4-0.1c-0.5,0.1-0.9,0.3-1.3,0.6c-0.4,0.3-0.6,0.6-0.6,1.1c0,0.4,0.2,0.7,0.6,0.9
		s0.9,0.2,1.6,0.2h3.1c1.8,0,3.1,0.3,3.9,1C659.9,775.5,660.3,776.4,660.3,777.6z M658.2,777.8c0-0.6-0.2-1-0.7-1.4
		s-1.2-0.5-2.3-0.5h-4.8c-0.9,0.4-1.3,1.1-1.3,2c0,0.6,0.2,1.2,0.7,1.6c0.5,0.4,1.3,0.7,2.4,0.7h2.1c1.3,0,2.2-0.2,2.9-0.6
		C657.9,779.1,658.2,778.5,658.2,777.8z M653.2,769.4c1,0,1.7-0.2,2.3-0.7s0.8-1.2,0.8-2.1v-0.8c0-1-0.3-1.7-0.8-2.1
		c-0.6-0.5-1.3-0.7-2.3-0.7c-1,0-1.7,0.2-2.3,0.7c-0.6,0.5-0.8,1.2-0.8,2.1v0.8c0,1,0.3,1.7,0.8,2.1S652.3,769.4,653.2,769.4z
		 M662.9,776v-14.4h2.2v2.7h0.1c0.3-0.7,0.7-1.3,1.4-1.8s1.6-0.8,2.8-0.8h0.9v2.2H669c-1.2,0-2.2,0.2-2.8,0.7s-1,1-1,1.7v9.8H662.9z
		 M674.3,758.2c-0.5,0-0.8-0.1-1-0.3s-0.3-0.5-0.3-0.9v-0.4c0-0.4,0.1-0.7,0.3-0.9s0.6-0.3,1-0.3c0.5,0,0.8,0.1,1,0.3
		c0.2,0.2,0.3,0.5,0.3,0.9v0.4c0,0.4-0.1,0.7-0.3,0.9C675.2,758,674.8,758.2,674.3,758.2z M673.2,761.6h2.2V776h-2.2V761.6z
		 M689.5,773.6h-0.1c-0.9,1.8-2.3,2.7-4.2,2.7c-0.9,0-1.7-0.2-2.4-0.5c-0.7-0.4-1.3-0.9-1.9-1.5c-0.5-0.7-0.9-1.4-1.2-2.4
		c-0.3-0.9-0.4-2-0.4-3.1s0.1-2.2,0.4-3.1c0.3-0.9,0.7-1.7,1.2-2.4c0.5-0.7,1.1-1.2,1.9-1.5c0.7-0.4,1.5-0.5,2.4-0.5
		c1,0,1.9,0.2,2.6,0.7c0.7,0.4,1.3,1.1,1.6,2h0.1v-8.6h2.2V776h-2.2V773.6z M685.7,774.3c0.5,0,1-0.1,1.4-0.2
		c0.5-0.1,0.9-0.3,1.2-0.6s0.6-0.6,0.8-0.9c0.2-0.4,0.3-0.8,0.3-1.2V766c0-0.4-0.1-0.8-0.3-1.1c-0.2-0.3-0.5-0.6-0.8-0.9
		s-0.7-0.4-1.2-0.6c-0.5-0.1-0.9-0.2-1.4-0.2c-1.3,0-2.3,0.4-3,1.2c-0.7,0.8-1.1,1.8-1.1,3.1v2.5c0,1.3,0.4,2.3,1.1,3.1
		C683.5,773.9,684.5,774.3,685.7,774.3z M701.5,761.6h2.2l1.5,6.2l1.5,6.3h0.1l1.8-6.3l1.8-6.2h2l1.9,6.2l1.8,6.3h0.1l1.5-6.3
		l1.6-6.2h2.1l-3.8,14.4h-2.8l-2-6.9l-1.3-4.4h-0.1l-1.2,4.4l-2,6.9h-2.7L701.5,761.6z M725.7,758.2c-0.5,0-0.8-0.1-1-0.3
		s-0.3-0.5-0.3-0.9v-0.4c0-0.4,0.1-0.7,0.3-0.9s0.6-0.3,1-0.3c0.5,0,0.8,0.1,1.1,0.3s0.3,0.5,0.3,0.9v0.4c0,0.4-0.1,0.7-0.3,0.9
		S726.2,758.2,725.7,758.2z M724.6,761.6h2.2V776h-2.2V761.6z M740.8,773.6h-0.1c-0.9,1.8-2.3,2.7-4.2,2.7c-0.9,0-1.7-0.2-2.4-0.5
		c-0.7-0.4-1.3-0.9-1.9-1.5c-0.5-0.7-0.9-1.4-1.2-2.4s-0.4-2-0.4-3.1s0.1-2.2,0.4-3.1s0.7-1.7,1.2-2.4c0.5-0.7,1.1-1.2,1.9-1.5
		c0.7-0.4,1.5-0.5,2.4-0.5c1,0,1.9,0.2,2.6,0.7c0.7,0.4,1.3,1.1,1.6,2h0.1v-8.6h2.2V776h-2.2V773.6z M737.1,774.3
		c0.5,0,1-0.1,1.4-0.2c0.5-0.1,0.9-0.3,1.2-0.6s0.6-0.6,0.8-0.9c0.2-0.4,0.3-0.8,0.3-1.2V766c0-0.4-0.1-0.8-0.3-1.1
		c-0.2-0.3-0.5-0.6-0.8-0.9s-0.7-0.4-1.2-0.6c-0.5-0.1-0.9-0.2-1.4-0.2c-1.3,0-2.3,0.4-3,1.2s-1.1,1.8-1.1,3.1v2.5
		c0,1.3,0.4,2.3,1.1,3.1S735.8,774.3,737.1,774.3z M751,776c-0.8,0-1.4-0.2-1.8-0.7c-0.4-0.4-0.6-1-0.6-1.7v-10.1h-2.4v-2h1.3
		c0.5,0,0.8-0.1,1-0.3c0.2-0.2,0.3-0.5,0.3-1v-2.7h2v4h3.2v2h-3.2V774h2.9v2H751z M757.6,755.3h2.2v8.6h0.1c0.4-0.8,0.9-1.5,1.5-2
		c0.6-0.5,1.5-0.7,2.6-0.7c1.5,0,2.7,0.5,3.5,1.4c0.9,1,1.3,2.3,1.3,4.1v9.3h-2.2v-8.9c0-2.6-1.1-3.9-3.3-3.9
		c-0.4,0-0.9,0.1-1.3,0.2c-0.4,0.1-0.8,0.3-1.1,0.5s-0.6,0.5-0.8,0.9c-0.2,0.3-0.3,0.8-0.3,1.2v10h-2.2V755.3z"/>
</g>
</svg>
