<?xml version="1.0" encoding="utf-8"?>
<!-- Generator: Adobe Illustrator 25.3.1, SVG Export Plug-In . SVG Version: 6.00 Build 0)  -->
<svg version="1.1" id="Layer_1" xmlns="http://www.w3.org/2000/svg" xmlns:xlink="http://www.w3.org/1999/xlink" x="0px" y="0px"
	 viewBox="0 0 20 20" style="enable-background:new 0 0 20 20;" xml:space="preserve">
<style type="text/css">
	.st0{fill:#6F6F6F;}
	.st1{fill:none;}
	.st2{fill-rule:evenodd;clip-rule:evenodd;fill:#FFFFFF;}
</style>
<g id="Structure">
	<g id="Group">
		<g id="pending--filled">
			<g>
				<path id="Shape" class="st0" d="M10,1.2c-4.8,0-8.8,3.9-8.8,8.8s3.9,8.8,8.8,8.8s8.8-3.9,8.8-8.8c0-2.3-0.9-4.5-2.6-6.2
					S12.3,1.2,10,1.2z M5,11.2c-0.7,0-1.2-0.6-1.2-1.2S4.3,8.8,5,8.8S6.2,9.3,6.2,10S5.7,11.2,5,11.2z M10,11.2
					c-0.7,0-1.2-0.6-1.2-1.2S9.3,8.8,10,8.8s1.2,0.6,1.2,1.2S10.7,11.2,10,11.2z M15,11.2c-0.7,0-1.2-0.6-1.2-1.2s0.6-1.2,1.2-1.2
					s1.2,0.6,1.2,1.2S15.7,11.2,15,11.2z"/>
				<rect id="_Transparent_Rectangle_" class="st1" width="20" height="20"/>
			</g>
		</g>
		<circle id="_inner-path_" class="st2" cx="5" cy="10" r="1.2"/>
		<circle id="_inner-path_2" class="st2" cx="10" cy="10" r="1.2"/>
		<circle id="_inner-path_3" class="st2" cx="15" cy="10" r="1.2"/>
	</g>
</g>
</svg>
