<?xml version="1.0" encoding="utf-8"?>
<!-- Generator: Adobe Illustrator 25.2.0, SVG Export Plug-In . SVG Version: 6.00 Build 0)  -->
<svg version="1.1" id="Layer_1" xmlns="http://www.w3.org/2000/svg" xmlns:xlink="http://www.w3.org/1999/xlink" x="0px" y="0px"
	 viewBox="0 0 1856 1044" style="enable-background:new 0 0 1856 1044;" xml:space="preserve">
<style type="text/css">
	.st0{fill:#FFFFFF;}
	.st1{fill-rule:evenodd;clip-rule:evenodd;fill:#FFFFFF;}
	.st2{fill-rule:evenodd;clip-rule:evenodd;fill:#C9DEFF;}
	.st3{fill:none;stroke:#95C0FF;}
	.st4{fill-rule:evenodd;clip-rule:evenodd;}
</style>
<rect class="st0" width="1856" height="1044"/>
<rect class="st1" width="1856" height="1044"/>
<g id="Group-42-Copy-4" transform="translate(84.000000, 64.000000)">
	<polygon id="Fill-1" class="st2" points="124,578 364,578 364,338 124,338 	"/>
</g>
<g id="Group-43-Copy-3" transform="translate(84.000000, 216.000000)">
	<polygon id="Fill-1_1_" class="st2" points="524,426.1 764,426.1 764,186.1 524,186.1 	"/>
</g>
<g id="Group-44-Copy-2" transform="translate(84.000000, 368.000000)">
	<polygon id="Fill-1_2_" class="st2" points="926,274 1166,274 1166,34 926,34 	"/>
</g>
<g id="Group-45-Copy-2" transform="translate(84.000000, 520.000000)">
	<polygon id="Fill-1_3_" class="st2" points="1326,122 1566,122 1566,-118 1326,-118 	"/>
</g>
<line class="st3" x1="328" y1="208" x2="328" y2="836"/>
<line class="st3" x1="1130" y1="208" x2="1130" y2="836"/>
<line class="st3" x1="1530" y1="208" x2="1530" y2="836"/>
<line class="st3" x1="1822" y1="522" x2="34" y2="522"/>
<g id="Group-12-Copy-4" transform="translate(84.000000, 64.000000)">
	<path id="Fill-2" class="st4" d="M326.5,375.6c0-4.1-3.4-7.5-7.5-7.5s-7.5,3.4-7.5,7.5s3.4,7.5,7.5,7.5S326.5,379.7,326.5,375.6"/>
	<path id="Fill-4" class="st4" d="M326.5,458.1c0-4.1-3.4-7.5-7.5-7.5s-7.5,3.4-7.5,7.5s3.4,7.5,7.5,7.5S326.5,462.2,326.5,458.1"/>
	<path id="Fill-6" class="st4" d="M326.5,540.6c0-4.1-3.4-7.5-7.5-7.5s-7.5,3.4-7.5,7.5c0,4.1,3.4,7.5,7.5,7.5
		S326.5,544.7,326.5,540.6"/>
	<g id="Clip-9">
	</g>
	<path id="Fill-8" class="st4" d="M134.2,402.9h219.6v-54.6H134.2V402.9z M356.5,408.3h-225c-1.5,0-2.7-1.2-2.7-2.7v-60
		c0-1.5,1.2-2.7,2.7-2.7h225c1.5,0,2.7,1.2,2.7,2.7v60C359.2,407.1,358,408.3,356.5,408.3L356.5,408.3z"/>
	<path id="Fill-10" class="st4" d="M134.2,485.4h219.6v-54.6H134.2V485.4z M356.5,490.8h-225c-1.5,0-2.7-1.2-2.7-2.7v-60
		c0-1.5,1.2-2.7,2.7-2.7h225c1.5,0,2.7,1.2,2.7,2.7v60C359.2,489.6,358,490.8,356.5,490.8L356.5,490.8z"/>
	<path id="Fill-11" class="st4" d="M134.2,567.9h219.6v-54.6H134.2V567.9z M356.5,573.3h-225c-1.5,0-2.7-1.2-2.7-2.7v-60
		c0-1.5,1.2-2.7,2.7-2.7h225c1.5,0,2.7,1.2,2.7,2.7v60C359.2,572.1,358,573.3,356.5,573.3L356.5,573.3z"/>
</g>
<g id="Group-6-Copy-7" transform="translate(86.000000, 373.000000)">
	<path id="Fill-2_1_" class="st4" d="M991.5,135.4c-2.7,0-4.8,2.2-4.8,5v82.5c0,15.6,11.7,27.3,27.3,27.3s27.3-11.8,27.3-27.3v-37.4
		c0-2.8-2.1-5-4.8-5s-4.8,2.2-4.8,5v7.3c0,1.5-1.2,2.7-2.7,2.7s-2.7-1.2-2.7-2.7V178c0-2.8-2.1-5-4.8-5c-2.6,0-4.7,2.1-4.8,4.9v15
		c0,1.5-1.2,2.7-2.7,2.7l0,0c-1.5,0-2.7-1.2-2.7-2.7v-14.8v-0.2v-3.5c0-2.8-2.1-5-4.8-5s-4.8,2.2-4.8,5V193c0,1.5-1.2,2.7-2.7,2.7
		s-2.7-1.2-2.7-2.7v-52.4C996.3,137.6,994.2,135.4,991.5,135.4 M1014,255.6c-18.6,0-32.7-14.1-32.7-32.8v-82.5
		c0-5.8,4.5-10.4,10.2-10.4s10.2,4.6,10.2,10.4v24.6c1.4-0.8,3.1-1.2,4.8-1.2c4,0,7.4,2.3,9.1,5.6c1.7-1.2,3.7-1.9,5.9-1.9
		c5.2,0,9.3,3.7,10.1,8.8c1.4-0.8,3.1-1.3,4.9-1.3c5.7,0,10.2,4.6,10.2,10.4v37.4C1046.7,241.5,1032.6,255.6,1014,255.6"/>
	<path id="Fill-4_1_" class="st4" d="M1153.8,227.7h-62.1v-32.2h27.3c1.5,0,2.7-1.2,2.7-2.7v-49.9h32.1V227.7L1153.8,227.7z
		 M1091.7,257.7h62.1v-24.6h-62.1V257.7L1091.7,257.7z M1156.5,137.5h-34.8v-95c0-1.5-1.2-2.7-2.7-2.7H931.5c-1.5,0-2.7,1.2-2.7,2.7
		v150.3c0,1.5,1.2,2.7,2.7,2.7H969v-5.4h-34.8v-24.6H969V160h-34.8V45.2h182.1v95V160H1059v5.4h57.3V190H1089h-30v5.4h27.3v64.9
		c0,1.5,1.2,2.7,2.7,2.7h67.5c1.5,0,2.7-1.2,2.7-2.7V140.2C1159.2,138.7,1158,137.5,1156.5,137.5L1156.5,137.5z"/>
</g>
<g id="Group-6-Copy-8" transform="translate(99.000000, 520.000000)">
	<path id="Fill-2_2_" class="st4" d="M1431-107.7c-44,0-79.8,35.8-79.8,79.8c0,59.9,67.4,127,79.7,138.7
		c12.1-12.6,79.9-85.4,79.9-138.7C1510.8-71.9,1475-107.7,1431-107.7 M1431,117.3c-0.6,0-1.3-0.2-1.8-0.7
		c-3.4-3.1-83.4-76.6-83.4-144.5c0-47,38.2-85.2,85.2-85.2s85.2,38.2,85.2,85.2c0,60.4-79.9,141-83.3,144.4
		C1432.4,117,1431.7,117.3,1431,117.3"/>
	<path id="Fill-4_2_" class="st4" d="M1431-55.2c-15.1,0-27.3,12.2-27.3,27.3c0,15,12.2,27.3,27.3,27.3s27.3-12.2,27.3-27.3
		S1446.1-55.2,1431-55.2 M1431,4.8c-18,0-32.7-14.7-32.7-32.7s14.7-32.7,32.7-32.7s32.7,14.7,32.7,32.7S1449,4.8,1431,4.8"/>
</g>
<line class="st3" x1="728" y1="208" x2="728" y2="836"/>
<path id="Fill-2-Copy-3" class="st4" d="M762.5,590.9v-4.1c0-23.5-14.6-44-36.3-51.9c8.6-6.1,13.8-16.1,13.8-26.8
	c0-18.2-14.8-33-33-33s-33,14.8-33,33c0,10.7,5.3,20.7,13.8,26.8c-21.6,7.9-36.3,28.4-36.3,51.9v4.1c-14.2-11.5-24.4-27.1-29.2-45.1
	c-6.1-22.6-3-46.2,8.8-66.5c16.2-28.1,45.7-43.8,76.1-43.8c14.9,0,29.9,3.8,43.7,11.7c41.9,24.2,56.3,77.8,32.1,119.7
	C777.6,576.4,770.5,584.3,762.5,590.9L762.5,590.9z M663.3,599c-2.1-1.2-4.2-2.6-6.2-4v-8.2c0-23.2,15.7-43.1,38.3-48.5
	c1.1-0.3,2-1.2,2.1-2.4c0.1-1.2-0.5-2.2-1.6-2.7c-9.9-4.4-16.3-14.3-16.3-25.1c0-15.2,12.4-27.5,27.6-27.5
	c15.2,0,27.6,12.3,27.6,27.5c0,10.8-6.4,20.6-16.3,25.1c-1.1,0.5-1.7,1.6-1.6,2.7c0.1,1.2,0.9,2.1,2.1,2.4
	c22.5,5.4,38.3,25.4,38.3,48.5v8.1C730.1,613.6,693.6,616.4,663.3,599L663.3,599z M844,599l-55-31.8c23.8-44,8.3-99.5-35.3-124.7
	c-44.4-25.6-101.5-10.4-127.1,34c-12.4,21.5-15.7,46.6-9.3,70.6c6.4,24,21.8,44.1,43.4,56.5c14.5,8.5,30.5,12.5,46.3,12.5
	c31.3,0,61.8-15.9,79.2-44.2l55.1,31.8L844,599z"/>
</svg>
