<?xml version="1.0" encoding="UTF-8"?>
<svg width="240px" height="240px" viewBox="0 0 240 240" version="1.1" xmlns="http://www.w3.org/2000/svg" xmlns:xlink="http://www.w3.org/1999/xlink">
    <!-- Generator: Sketch 58 (84663) - https://sketch.com -->
    <title>Group 32parallel</title>
    <desc>Created with Sketch.</desc>
    <g id="Data-vis-pages" stroke="none" stroke-width="1" fill="none" fill-rule="evenodd">
        <g id="Dataviz-overview-1-Copy-2" transform="translate(48, 96)">
            <g id="Group-32">
                <polyline id="Path-14" stroke="#97C1FF" stroke-width="0.7" points="0 86 48.3333333 43 97 89 144 67"></polyline>
                <polyline id="Path-15" stroke="#0062FF" stroke-width="0.7" points="0 86 48 6 96 89 145 20"></polyline>
                <polyline id="Path-16" stroke="#97C1FF" stroke-width="0.7" points="0 86 48.16609 58 96 89 145 57"></polyline>
                <polyline id="Path-16-Copy-2" stroke="#97C1FF" stroke-width="0.7" points="0 86 48.16609 73 96 89 145 77"></polyline>
                <polyline id="Path-16-Copy" stroke="#0062FF" stroke-width="0.7" points="1 52 48 5 97 62 144 20"></polyline>
                <polyline id="Path-17" stroke="#0062FF" stroke-width="0.7" points="0 69 48.3333333 5 97 46 145 18.7462687"></polyline>
                <path d="M144.5,0 L144.5,99" id="Path-13-Copy-3" stroke="#0062FF" stroke-width="1.5"></path>
                <path d="M96.5,0 L96.5,99" id="Path-13-Copy-2" stroke="#0062FF" stroke-width="1.5"></path>
                <path d="M0.5,0 L0.5,99" id="Path-13" stroke="#0062FF" stroke-width="1.5"></path>
                <path d="M48.5,0 L48.5,99" id="Path-13-Copy" stroke="#0062FF" stroke-width="1.5"></path>
            </g>
        </g>
    </g>
</svg>
