<?xml version="1.0" encoding="utf-8"?>
<!-- Generator: Adobe Illustrator 25.2.0, SVG Export Plug-In . SVG Version: 6.00 Build 0)  -->
<svg version="1.1" id="Layer_1" xmlns="http://www.w3.org/2000/svg" xmlns:xlink="http://www.w3.org/1999/xlink" x="0px" y="0px"
	 viewBox="0 0 576 1408" style="enable-background:new 0 0 576 1408;" xml:space="preserve">
<style type="text/css">
	.st0{fill-rule:evenodd;clip-rule:evenodd;fill:#FFFFFF;}
	.st1{fill-rule:evenodd;clip-rule:evenodd;fill:#C9DEFF;}
	.st2{fill:none;stroke:#95C0FF;}
	.st3{fill-rule:evenodd;clip-rule:evenodd;}
	.st4{filter:url(#Adobe_OpacityMaskFilter);}
	.st5{mask:url(#mask-2_1_);fill-rule:evenodd;clip-rule:evenodd;}
	.st6{filter:url(#Adobe_OpacityMaskFilter_1_);}
	.st7{mask:url(#mask-2_2_);fill-rule:evenodd;clip-rule:evenodd;}
	.st8{filter:url(#Adobe_OpacityMaskFilter_2_);}
	.st9{mask:url(#mask-2_3_);fill-rule:evenodd;clip-rule:evenodd;}
</style>
<desc>Created with Sketch.</desc>
<g id="_x31_5_x5F_Alignment_x5F_1">
	<rect id="Rectangle-3-Copy-81" class="st0" width="576" height="1408"/>
	<g id="Group-42-Copy-4" transform="translate(84.000000, 64.000000)">
		<polygon id="Fill-1" class="st1" points="84,304 324,304 324,64 84,64 		"/>
	</g>
	<line id="Path-3-Copy-29" class="st2" x1="545" y1="248" x2="33" y2="248"/>
	<g id="Group-43-Copy-3" transform="translate(84.000000, 216.000000)">
		<polygon id="Fill-1_1_" class="st1" points="84,456 324,456 324,216 84,216 		"/>
	</g>
	<g id="Group-44-Copy-2" transform="translate(84.000000, 368.000000)">
		<polygon id="Fill-1_2_" class="st1" points="84,608 324,608 324,368 84,368 		"/>
	</g>
	<g id="Group-45-Copy-2" transform="translate(84.000000, 520.000000)">
		<polygon id="Fill-1_3_" class="st1" points="84,760 324,760 324,520 84,520 		"/>
	</g>
	<line id="Path-3-Copy-30" class="st2" x1="545" y1="552" x2="33" y2="552"/>
	<line id="Path-3-Copy-31" class="st2" x1="545" y1="856" x2="33" y2="856"/>
	<line id="Path-3-Copy-32" class="st2" x1="545" y1="1160" x2="33" y2="1160"/>
	<line id="Path-3-Copy-28" class="st2" x1="288" y1="48" x2="288" y2="1360"/>
	<g id="Group-12-Copy-4" transform="translate(84.000000, 64.000000)">
		<path id="Fill-2" class="st3" d="M286.5,101.6c0-4.1-3.4-7.5-7.5-7.5s-7.5,3.4-7.5,7.5c0,4.1,3.4,7.5,7.5,7.5
			S286.5,105.7,286.5,101.6"/>
		<path id="Fill-4" class="st3" d="M286.5,184.1c0-4.1-3.4-7.5-7.5-7.5s-7.5,3.4-7.5,7.5c0,4.1,3.4,7.5,7.5,7.5
			S286.5,188.2,286.5,184.1"/>
		<path id="Fill-6" class="st3" d="M286.5,266.6c0-4.1-3.4-7.5-7.5-7.5s-7.5,3.4-7.5,7.5c0,4.1,3.4,7.5,7.5,7.5
			S286.5,270.7,286.5,266.6"/>
		<g id="Clip-9">
		</g>
		<defs>
			<filter id="Adobe_OpacityMaskFilter" filterUnits="userSpaceOnUse" x="88.8" y="68.9" width="230.4" height="65.4">
				<feColorMatrix type="matrix" values="1 0 0 0 0  0 1 0 0 0  0 0 1 0 0  0 0 0 1 0"/>
			</filter>
		</defs>
		<mask maskUnits="userSpaceOnUse" x="88.8" y="68.9" width="230.4" height="65.4" id="mask-2_1_">
			<g class="st4">
				<polygon id="path-1_1_" class="st0" points="84,304 324,304 324,64 84,64 				"/>
			</g>
		</mask>
		<path id="Fill-8" class="st5" d="M94.2,128.9h219.6V74.3H94.2V128.9z M316.5,134.3h-225c-1.5,0-2.7-1.2-2.7-2.7v-60
			c0-1.5,1.2-2.7,2.7-2.7h225c1.5,0,2.7,1.2,2.7,2.7v60C319.2,133.1,318,134.3,316.5,134.3L316.5,134.3z"/>
		<defs>
			<filter id="Adobe_OpacityMaskFilter_1_" filterUnits="userSpaceOnUse" x="88.8" y="151.4" width="230.4" height="65.4">
				<feColorMatrix type="matrix" values="1 0 0 0 0  0 1 0 0 0  0 0 1 0 0  0 0 0 1 0"/>
			</filter>
		</defs>
		<mask maskUnits="userSpaceOnUse" x="88.8" y="151.4" width="230.4" height="65.4" id="mask-2_2_">
			<g class="st6">
				<polygon id="path-1_2_" class="st0" points="84,304 324,304 324,64 84,64 				"/>
			</g>
		</mask>
		<path id="Fill-10" class="st7" d="M94.2,211.4h219.6v-54.6H94.2V211.4z M316.5,216.8h-225c-1.5,0-2.7-1.2-2.7-2.7v-60
			c0-1.5,1.2-2.7,2.7-2.7h225c1.5,0,2.7,1.2,2.7,2.7v60C319.2,215.6,318,216.8,316.5,216.8L316.5,216.8z"/>
		<defs>
			<filter id="Adobe_OpacityMaskFilter_2_" filterUnits="userSpaceOnUse" x="88.8" y="233.9" width="230.4" height="65.4">
				<feColorMatrix type="matrix" values="1 0 0 0 0  0 1 0 0 0  0 0 1 0 0  0 0 0 1 0"/>
			</filter>
		</defs>
		<mask maskUnits="userSpaceOnUse" x="88.8" y="233.9" width="230.4" height="65.4" id="mask-2_3_">
			<g class="st8">
				<polygon id="path-1_3_" class="st0" points="84,304 324,304 324,64 84,64 				"/>
			</g>
		</mask>
		<path id="Fill-11" class="st9" d="M94.2,293.9h219.6v-54.6H94.2V293.9z M316.5,299.3h-225c-1.5,0-2.7-1.2-2.7-2.7v-60
			c0-1.5,1.2-2.7,2.7-2.7h225c1.5,0,2.7,1.2,2.7,2.7v60C319.2,298.1,318,299.3,316.5,299.3L316.5,299.3z"/>
	</g>
	<path id="Fill-2-Copy-3" class="st3" d="M322.5,620.8v-4.1c0-23.5-14.6-44-36.3-51.9c8.6-6.1,13.8-16.1,13.8-26.8
		c0-18.2-14.8-33-33-33c-18.2,0-33,14.8-33,33c0,10.7,5.3,20.7,13.8,26.8c-21.6,7.9-36.3,28.4-36.3,51.9v4.1
		c-14.2-11.5-24.4-27.1-29.2-45.1c-6.1-22.6-3-46.2,8.8-66.5c16.2-28.1,45.7-43.8,76.1-43.8c14.9,0,29.9,3.8,43.7,11.7
		c41.9,24.2,56.3,77.8,32.1,119.7C337.6,606.3,330.5,614.2,322.5,620.8L322.5,620.8z M223.3,628.9c-2.1-1.2-4.2-2.6-6.2-4v-8.2
		c0-23.2,15.7-43.1,38.3-48.5c1.1-0.3,2-1.2,2.1-2.4c0.1-1.2-0.5-2.2-1.6-2.7c-9.9-4.4-16.3-14.3-16.3-25.1
		c0-15.2,12.4-27.5,27.6-27.5c15.2,0,27.6,12.3,27.6,27.5c0,10.8-6.4,20.6-16.3,25.1c-1.1,0.5-1.7,1.6-1.6,2.7
		c0.1,1.2,0.9,2.1,2.1,2.4c22.5,5.4,38.3,25.4,38.3,48.5v8.1C290.1,643.5,253.6,646.3,223.3,628.9L223.3,628.9z M404,628.9l-55-31.8
		c23.8-44,8.3-99.5-35.3-124.7c-44.4-25.6-101.5-10.4-127.1,34c-12.4,21.5-15.7,46.6-9.3,70.6c6.4,24,21.8,44.1,43.4,56.5
		C235.2,642,251.2,646,267,646c31.3,0,61.8-15.9,79.2-44.2l55.1,31.8L404,628.9z"/>
	<g id="Group-6-Copy-7" transform="translate(86.000000, 373.000000)">
		<path id="Fill-2_1_" class="st3" d="M149.5,469.4c-2.7,0-4.8,2.2-4.8,5v82.5c0,15.6,11.7,27.3,27.3,27.3s27.3-11.8,27.3-27.3
			v-37.4c0-2.8-2.1-5-4.8-5s-4.8,2.2-4.8,5v7.3c0,1.5-1.2,2.7-2.7,2.7s-2.7-1.2-2.7-2.7V512c0-2.8-2.1-5-4.8-5
			c-2.6,0-4.7,2.1-4.8,4.9l0,15c0,1.5-1.2,2.7-2.7,2.7h0c-1.5,0-2.7-1.2-2.7-2.7l0-14.8v-0.2v-3.5c0-2.8-2.1-5-4.8-5
			c-2.7,0-4.8,2.2-4.8,5v18.6c0,1.5-1.2,2.7-2.7,2.7s-2.7-1.2-2.7-2.7l0-52.4C154.3,471.6,152.2,469.4,149.5,469.4 M172,589.6
			c-18.6,0-32.7-14.1-32.7-32.8v-82.5c0-5.8,4.5-10.4,10.2-10.4s10.2,4.6,10.2,10.4l0,24.6c1.4-0.8,3.1-1.2,4.8-1.2
			c4,0,7.4,2.3,9.1,5.6c1.7-1.2,3.7-1.9,5.9-1.9c5.2,0,9.3,3.7,10.1,8.8c1.4-0.8,3.1-1.3,4.9-1.3c5.7,0,10.2,4.6,10.2,10.4v37.4
			C204.7,575.5,190.6,589.6,172,589.6"/>
		<path id="Fill-4_1_" class="st3" d="M311.8,561.7h-62.1v-32.2H277c1.5,0,2.7-1.2,2.7-2.7v-49.9h32.1V561.7z M249.7,591.7h62.1
			v-24.6h-62.1V591.7z M314.5,471.5h-34.8v-95c0-1.5-1.2-2.7-2.7-2.7H89.5c-1.5,0-2.7,1.2-2.7,2.7v150.3c0,1.5,1.2,2.7,2.7,2.7H127
			v-5.4H92.2v-24.6H127V494H92.2V379.2h182.1v95V494H217v5.4h57.3v24.6H247h-30v5.4h27.3v64.9c0,1.5,1.2,2.7,2.7,2.7h67.5
			c1.5,0,2.7-1.2,2.7-2.7V474.2C317.2,472.7,316,471.5,314.5,471.5L314.5,471.5z"/>
	</g>
	<g id="Group-6-Copy-8" transform="translate(99.000000, 520.000000)">
		<path id="Fill-2_2_" class="st3" d="M189,530.3c-44,0-79.8,35.8-79.8,79.8c0,59.9,67.4,127,79.7,138.7
			c12.1-12.6,79.9-85.4,79.9-138.7C268.8,566.1,233,530.3,189,530.3 M189,755.3c-0.6,0-1.3-0.2-1.8-0.7
			c-3.4-3.1-83.4-76.6-83.4-144.5c0-47,38.2-85.2,85.2-85.2s85.2,38.2,85.2,85.2c0,60.4-79.9,141-83.3,144.4
			C190.4,755,189.7,755.3,189,755.3"/>
		<path id="Fill-4_2_" class="st3" d="M189,582.8c-15.1,0-27.3,12.2-27.3,27.3c0,15,12.2,27.3,27.3,27.3s27.3-12.2,27.3-27.3
			C216.3,595,204.1,582.8,189,582.8 M189,642.8c-18,0-32.7-14.7-32.7-32.7c0-18,14.7-32.7,32.7-32.7s32.7,14.7,32.7,32.7
			C221.7,628.1,207,642.8,189,642.8"/>
	</g>
</g>
</svg>
