<svg width="91px" height="110px" viewBox="0 0 91 110" version="1.1" xmlns="http://www.w3.org/2000/svg" xmlns:xlink="http://www.w3.org/1999/xlink">
    <defs>
        <rect id="path-1" x="0" y="0" width="83" height="102"></rect>
        <filter x="-7.2%" y="-5.9%" width="114.5%" height="111.8%" filterUnits="objectBoundingBox" id="filter-2">
            <feOffset dx="0" dy="0" in="SourceAlpha" result="shadowOffsetOuter1"></feOffset>
            <feGaussianBlur stdDeviation="2" in="shadowOffsetOuter1" result="shadowBlurOuter1"></feGaussianBlur>
            <feColorMatrix values="0 0 0 0 0   0 0 0 0 0   0 0 0 0 0  0 0 0 0.3 0" type="matrix" in="shadowBlurOuter1"></feColorMatrix>
        </filter>
    </defs>
    <g id="7/27-updates" stroke="none" stroke-width="1" fill="none" fill-rule="evenodd">
        <g id="xlg-1312px-16-column" transform="translate(-412.000000, -821.000000)">
            <g id="Group-2" transform="translate(336.000000, 786.000000)">
                <g id="Group" transform="translate(80.000000, 39.000000)">
                    <g id="Rectangle-Copy-66">
                        <use fill="black" fill-opacity="1" filter="url(#filter-2)" xlink:href="#path-1"></use>
                        <use fill="#F4F4F4" fill-rule="evenodd" xlink:href="#path-1"></use>
                    </g>
                    <rect id="Rectangle-6-Copy-15" fill="#C6C6C6" x="3" y="52" width="42" height="3"></rect>
                    <rect id="Rectangle-6-Copy-23" fill="#C6C6C6" x="3" y="62" width="42" height="3"></rect>
                    <rect id="Rectangle-6-Copy-16" fill="#C6C6C6" x="3" y="57" width="49" height="3"></rect>
                    <rect id="Rectangle" fill="#0F62FE" x="67" y="86" width="16" height="16"></rect>
                    <path d="M76,36.9172414 L76,45 L71.7045455,40.5172414 L25.6,40.5172414 C23.6117749,40.5172414 22,38.9054665 22,36.9172414 L22,22.6 C22,20.6117749 23.6117749,19 25.6,19 L72.4,19 C74.3882251,19 76,20.6117749 76,22.6 L76,36.9172414 Z" id="Combined-Shape" fill="#C6C6C6"></path>
                    <path d="M0,85.5 L83,85.5" id="Path-3-Copy" stroke="#C1C7CD" stroke-width="0.9"></path>
                </g>
            </g>
        </g>
    </g>
</svg>