<svg width="24px" height="24px" viewBox="0 0 24 24" version="1.1" xmlns="http://www.w3.org/2000/svg" xmlns:xlink="http://www.w3.org/1999/xlink">
    <g id="6/22-updates" stroke="none" stroke-width="1" fill="none" fill-rule="evenodd">
        <g id="xlg-1312px-16-column" transform="translate(-1000.000000, -1288.000000)">
            <g id="Cards" transform="translate(336.000000, 786.000000)">
                <g id="Group-58" transform="translate(0.000000, 362.000000)">
                    <g id="Group-9" transform="translate(664.000000, 140.000000)">
                        <circle id="Oval-Copy-38" fill="#697077" cx="12" cy="12" r="12"></circle>
                        <path d="M18.2336783,15.6632002 C17.9480402,16.1680002 16.8416842,16.3792002 15.3599856,16.0936002 C15.1900191,16.0608002 15.0153314,16.0216002 14.8367092,15.9768002 C14.9854298,15.2696002 15.0877245,14.5528003 15.1412325,13.8312003 C15.7321808,13.4136003 16.2940144,12.9544004 16.8227991,12.4592004 C16.9156511,12.5568004 17.0037819,12.6536004 17.0871914,12.7504004 C17.5601074,13.2736003 17.9338763,13.8800003 18.1911867,14.5408003 C18.3572188,14.8928003 18.3729564,15.2992002 18.2336783,15.6632002 M15.1900191,11.0320005 C15.5889683,11.3288004 15.9729666,11.6456004 16.3396536,11.9824004 C15.9745404,12.3248004 15.5921158,12.6472004 15.1939536,12.9488004 C15.2049699,12.6320004 15.211265,12.3152004 15.211265,11.9984004 C15.211265,11.6760004 15.2033961,11.3544004 15.1900191,11.0320005 M15.2923138,7.92400061 C16.8039139,7.62560062 17.9441058,7.82640061 18.228957,8.32960059 C18.5334803,8.86480056 18.0975477,10.0480005 17.0061426,11.2944004 C16.9463395,11.3632004 16.883389,11.4320004 16.8188647,11.5016004 C16.2869325,11.0136005 15.7243119,10.5624005 15.1325768,10.1512005 C15.0719869,9.43840053 14.9657578,8.73040057 14.8123158,8.0320006 C14.9752004,7.9912006 15.1349374,7.95520061 15.2923138,7.92400061 M14.5392678,11.9984004 C14.5400547,12.4840004 14.5243171,12.9704004 14.4944155,13.4544003 C14.1064828,13.7216003 13.6973042,13.9816003 13.2716011,14.2320003 C12.8474717,14.4808003 12.4272768,14.7104003 12.0149507,14.9168003 C11.5813788,14.7056003 11.1556757,14.4784003 10.7394151,14.2336003 C10.3239415,13.9904003 9.91948422,13.7328003 9.52368262,13.4584003 C9.48748606,12.9736004 9.46860089,12.4880004 9.46860089,12.0008004 C9.46860089,11.5144004 9.48669917,11.0288005 9.52210886,10.5440005 C9.91004163,10.2744005 10.3160727,10.0144005 10.7362676,9.76800051 C11.1580363,9.52000053 11.5837394,9.29200054 12.0070819,9.08560055 C12.4351456,9.29760054 12.8561274,9.52400053 13.2684536,9.76640051 C13.6831403,10.0088005 14.0891714,10.2640005 14.4873336,10.5328005 C14.5219564,11.0208005 14.5392678,11.5096004 14.5392678,11.9984004 M14.1875316,15.7928002 C13.7397958,15.6520002 13.2747486,15.4792002 12.8018326,15.2768002 C13.0685856,15.1336002 13.3369123,14.9824003 13.6075997,14.8240003 C13.885369,14.6608003 14.1560563,14.4936003 14.4196618,14.3224003 C14.3669407,14.8160003 14.2898263,15.3072002 14.1875316,15.7928002 M13.9026804,16.8520002 C13.6933698,17.5296001 13.3636663,18.1624001 12.9285206,18.7184001 C12.7113412,19.0408 12.372982,19.2568 11.9937049,19.316 C11.420068,19.316 10.6890547,18.4480001 10.1917454,17.0000002 C10.1327292,16.8288002 10.0792212,16.6560002 10.0296477,16.4808002 C10.7103005,16.2584002 11.3752157,15.9880002 12.0204589,15.6744002 C12.6704233,15.9792002 13.3400598,16.2408002 14.0238602,16.4568002 C13.9876636,16.5896002 13.9467457,16.7208002 13.9026804,16.8520002 M9.61023963,14.3360003 C9.87069754,14.5056003 10.1350899,14.6688003 10.4034166,14.8256003 C10.6772515,14.9856003 10.9542339,15.1400002 11.2351507,15.2864002 C10.7874149,15.4872002 10.3294497,15.6648002 9.86282872,15.8176002 C9.75817343,15.3520002 9.67397706,14.8544003 9.61023963,14.3360003 M9.85889431,8.20720059 C10.320794,8.35520059 10.7748248,8.52640058 11.2194131,8.72080057 C10.6685958,9.01040055 10.1319423,9.32480054 9.60866587,9.66560052 C9.67161642,9.15520054 9.75581278,8.66640057 9.85889431,8.20720059 M10.1736471,7.06800065 C10.6748908,5.58720072 11.4153467,4.68320077 11.986623,4.68320077 C12.5940958,4.68320077 13.3849121,5.65840072 13.9018935,7.24160064 C13.9357294,7.34480064 13.9672047,7.44880063 13.9971062,7.55280063 C13.3180271,7.76720061 12.6538988,8.0264006 12.0086556,8.32960059 C11.3657731,8.0232006 10.7040055,7.76080061 10.0265002,7.54480063 C10.0713524,7.38400063 10.120926,7.22560064 10.1736471,7.06800065 M14.4062848,9.66480052 C14.1418925,9.49600053 13.8751395,9.33200054 13.6044521,9.17440054 C13.3376992,9.01840055 13.0693724,8.86800056 12.7963244,8.72400057 C13.2629454,8.52480058 13.7216975,8.35440059 14.164712,8.21520059 C14.2685804,8.69440057 14.3488424,9.17840054 14.4062848,9.66480052 M8.81784956,16.0960002 C8.13562296,16.2504002 7.43215055,16.2760002 6.74126825,16.1712002 C6.35805676,16.1408002 6.00474679,15.9504002 5.76474782,15.6464002 C5.47832281,15.1416002 5.85287859,14.0632003 6.83805472,12.9016004 C6.96159518,12.7560004 7.08985692,12.6144004 7.22205308,12.4760004 C7.74454266,12.9664004 8.29850751,13.4200003 8.88001323,13.8368003 C8.94453755,14.5664003 9.05627478,15.2912002 9.21522492,16.0064002 C9.08381564,16.0392002 8.95161949,16.0696002 8.81784956,16.0960002 M8.81863645,12.9440004 C8.4165398,12.6344004 8.04355778,12.3176004 7.70441168,11.9992004 C8.04355778,11.6824004 8.4165398,11.3664004 8.81784956,11.0584004 C8.80368569,11.3720004 8.79581687,11.6864004 8.79660375,12.0016004 C8.79660375,12.3152004 8.80447257,12.6296004 8.81863645,12.9440004 M5.76002652,8.36160058 C6.06376293,7.82560061 7.28972493,7.61600062 8.89653775,7.95200061 C8.99961928,7.9736006 9.10427457,7.9968006 9.21050363,8.0240006 C9.05312725,8.72960057 8.9421769,9.44560053 8.87843947,10.1656005 C8.2992944,10.5808005 7.74611642,11.0336005 7.22362685,11.5208004 C7.10795521,11.4000004 6.99621798,11.2760004 6.88762828,11.1488004 C5.87491128,9.9680005 5.47517528,8.86400056 5.76002652,8.36160058 M17.5931564,12.3000004 C17.5003044,12.1936004 17.4035179,12.0856004 17.3004364,11.9784004 C17.3720426,11.9016004 17.4412882,11.8248004 17.5089601,11.7488004 C18.7726924,10.3056005 19.3054114,8.85760056 18.8112496,7.9872006 C18.3375467,7.15280065 16.9282412,6.90480066 15.164052,7.25360064 C14.9893643,7.28800064 14.8170371,7.32720064 14.64471,7.37040063 C14.6116609,7.25520064 14.5770381,7.14000065 14.5400547,7.02640065 C13.9412376,5.19200074 12.9741597,3.9992008 11.9858361,4.0000008 C11.0384303,4.0000008 10.1224997,5.11760075 9.5378465,6.84640066 C9.48040412,7.01600065 9.42768303,7.18800064 9.37889635,7.36160064 C9.26322472,7.33280064 9.14833996,7.30640064 9.03188144,7.28240064 C7.17011888,6.89360066 5.67110887,7.14960065 5.17773392,8.0200006 C4.7048179,8.85520056 5.19976662,10.2200005 6.38087634,11.5976004 C6.49733486,11.7344004 6.61772779,11.8672004 6.74205513,11.9976004 C6.5956951,12.1504004 6.45799076,12.3032004 6.32894213,12.4552004 C5.17616016,13.8128003 4.71032608,15.1560002 5.18245521,15.9872002 C5.67032199,16.8464002 7.14887307,17.1272001 8.94768508,16.7672002 C9.09404511,16.7376002 9.23883138,16.7048002 9.38283076,16.6680002 C9.43555185,16.8552002 9.49378111,17.0416001 9.55673166,17.2256001 C10.1382374,18.9184001 11.0494466,20 11.9937049,20 C12.9694384,19.9992 13.9467457,18.8376001 14.5392678,17.0736001 C14.5856938,16.9336002 14.6305461,16.7888002 14.6722509,16.6400002 C14.8587419,16.6864002 15.0460198,16.7288002 15.2340845,16.7648002 C16.9691591,17.0984001 18.3454155,16.8360002 18.8159709,16.0040002 C19.3022639,15.1448002 18.8010202,13.7032003 17.5931564,12.3000004 M11.2941669,10.7504005 C10.6221697,11.1448004 10.3916134,12.0184004 10.7795461,12.7016004 C11.1682658,13.3848003 12.0275408,13.6192003 12.6995379,13.2248003 C13.3715351,12.8304004 13.6020915,11.9568004 13.2141587,11.2736004 L13.2141587,11.2728004 C12.8262259,10.5896005 11.966164,10.3560005 11.2941669,10.7504005" id="Fill-1-Copy-14" fill="#F2F4F8"></path>
                    </g>
                </g>
            </g>
        </g>
    </g>
</svg>