<svg width="24px" height="24px" viewBox="0 0 24 24" version="1.1" xmlns="http://www.w3.org/2000/svg" xmlns:xlink="http://www.w3.org/1999/xlink">
    <g id="6/22-updates" stroke="none" stroke-width="1" fill="none" fill-rule="evenodd">
        <g id="xlg-1312px-16-column" transform="translate(-972.000000, -2012.000000)">
            <g id="Cards" transform="translate(336.000000, 786.000000)">
                <g id="Group-58" transform="translate(0.000000, 1086.000000)">
                    <g id="Group-42" transform="translate(636.000000, 140.000000)">
                        <circle id="Oval-Copy-41" fill="#697077" cx="12" cy="12" r="12"></circle>
                        <path d="M11.4999219,6 L7.71824252,10.2327093 L15.2817575,10.2327093 L11.4999219,6 Z M11.4999219,6 L15.7186279,10.0133721 L15.7186279,6.45363953 L11.4999219,6 Z M7.28121582,6.45363953 L7.28121582,10.0133721 L11.4999219,6 L7.28121582,6.45363953 Z M16.2403412,10.2753372 L19,10.6860465 L15.7186279,6.45363953 L16.2403412,10.2753372 Z M4,10.6860465 L6.75950251,10.2753372 L7.28121582,6.45363953 L4,10.6860465 Z M16.1834668,10.6860465 L11.4817971,18.9632674 L11.4999219,19 L19,10.6860465 L16.1834668,10.6860465 Z M7.39668337,10.6860465 L11.4807033,18.9605465 L15.6026916,10.6860465 L7.39668337,10.6860465 Z M4,10.6860465 L11.4747659,18.9723372 L11.4792971,18.9634186 L6.77731482,10.6860465 L4,10.6860465 Z M11.4761721,18.9735465 L11.4999219,19 L11.4803908,18.9658372 L11.4761721,18.9735465 Z" id="Fill-1-Copy-16" fill="#F4F4F4"></path>
                    </g>
                </g>
            </g>
        </g>
    </g>
</svg>