<?xml version="1.0" encoding="UTF-8"?>
<svg width="24px" height="24px" viewBox="0 0 24 24" version="1.1" xmlns="http://www.w3.org/2000/svg" xmlns:xlink="http://www.w3.org/1999/xlink">
    <title>framework-JS</title>
    <g id="framework-JS" stroke="none" stroke-width="1" fill="none" fill-rule="evenodd">
        <circle id="Oval" fill="#697077" cx="12" cy="12" r="12"></circle>
        <path d="M7.415,17.168 C7.863,17.168 8.27133333,17.1003333 8.64,16.965 C9.00866667,16.8296667 9.32133333,16.6383333 9.578,16.391 C9.83466667,16.1436667 10.033,15.8473333 10.173,15.502 C10.313,15.1566667 10.383,14.7693333 10.383,14.34 L10.383,14.34 L10.383,7.228 L5.609,7.228 L5.609,8.544 L8.801,8.544 L8.801,14.172 C8.801,14.704 8.675,15.1006667 8.423,15.362 C8.171,15.6233333 7.835,15.754 7.415,15.754 C6.98566667,15.754 6.652,15.6326667 6.414,15.39 C6.176,15.1473333 6.015,14.816 5.931,14.396 L5.931,14.396 L4.475,14.718 C4.60566667,15.446 4.916,16.0363333 5.406,16.489 C5.896,16.9416667 6.56566667,17.168 7.415,17.168 Z M15.661,17.168 C16.221,17.168 16.7203333,17.0956667 17.159,16.951 C17.5976667,16.8063333 17.9686667,16.601 18.272,16.335 C18.5753333,16.069 18.8063333,15.7493333 18.965,15.376 C19.1236667,15.0026667 19.203,14.5873333 19.203,14.13 C19.203,13.346 18.9766667,12.73 18.524,12.282 C18.0713333,11.834 17.355,11.5166667 16.375,11.33 L16.375,11.33 L15.507,11.148 C14.975,11.0453333 14.583,10.8936667 14.331,10.693 C14.079,10.4923333 13.953,10.1866667 13.953,9.776 C13.953,9.34666667 14.107,9.02 14.415,8.796 C14.723,8.572 15.157,8.46 15.717,8.46 C16.2583333,8.46 16.711,8.558 17.075,8.754 C17.439,8.95 17.747,9.21133333 17.999,9.538 L17.999,9.538 L19.105,8.558 C18.7223333,8.07266667 18.2603333,7.70166667 17.719,7.445 C17.1776667,7.18833333 16.5383333,7.06 15.801,7.06 C15.2783333,7.06 14.807,7.12533333 14.387,7.256 C13.967,7.38666667 13.61,7.571 13.316,7.809 C13.022,8.047 12.7933333,8.341 12.63,8.691 C12.4666667,9.041 12.385,9.43066667 12.385,9.86 C12.385,10.644 12.623,11.26 13.099,11.708 C13.575,12.156 14.289,12.4686667 15.241,12.646 L15.241,12.646 L16.109,12.8 C16.6783333,12.912 17.075,13.08 17.299,13.304 C17.523,13.528 17.635,13.8313333 17.635,14.214 C17.635,14.69 17.4763333,15.068 17.159,15.348 C16.8416667,15.628 16.3703333,15.768 15.745,15.768 C15.213,15.768 14.7393333,15.6606667 14.324,15.446 C13.9086667,15.2313333 13.5283333,14.914 13.183,14.494 L13.183,14.494 L12.091,15.516 C12.5016667,16.02 12.994,16.4213333 13.568,16.72 C14.142,17.0186667 14.8396667,17.168 15.661,17.168 Z" id="JS" fill="#FFFFFF" fill-rule="nonzero"></path>
    </g>
</svg>