<svg xmlns="http://www.w3.org/2000/svg" viewBox="0 0 288 288"><defs><linearGradient x1="101.819%" y1="-1.824%" x2="-1.842%" y2="101.842%" id="a"><stop stop-color="#BB8EFF" offset="0%"/><stop stop-color="#0062FF" offset="100%"/></linearGradient></defs><g fill="none" fill-rule="evenodd"><path d="M0 0h288v288H0z" fill="#FFF"/><path fill="#FFF" d="M44 121h79V42H44z"/><g fill="#000"><path d="M83.501 97.892c-1.226 0-2.42-.14-3.57-.397l7.616-7.183c.78-.733.95-1.893.416-2.82l-6.635-11.523a.524.524 0 01.096-.646l4.587-4.284c.787-.735.96-1.9.422-2.835l-1.76-3.05a16.363 16.363 0 0111.194 5.604l-3.278 5.708a2.31 2.31 0 000 2.295l2.758 4.796a2.307 2.307 0 001.995 1.152h2.234c-1.495 7.507-8.135 13.183-16.075 13.183M67.11 81.5c0-2.34.496-4.567 1.384-6.583l1.136 1.956a2.313 2.313 0 001.99 1.143h4.556c.187 0 .36.1.454.26l1.87 3.24a.525.525 0 01-.093.647L75.9 84.521a2.29 2.29 0 00-.419 2.827l1.658 2.872a.52.52 0 010 .523l-2.59 4.477c-4.475-2.93-7.44-7.984-7.44-13.72m15.5-16.366l2.286 3.957a.524.524 0 01-.096.648l-4.587 4.287a2.292 2.292 0 00-.424 2.83l6.635 11.523a.52.52 0 01-.094.64l-8.378 7.903a16.12 16.12 0 01-1.863-.81l2.589-4.477a2.307 2.307 0 00.002-2.302l-1.657-2.871a.52.52 0 01.094-.644l2.51-2.36c.78-.736.95-1.9.414-2.829l-1.872-3.24a2.304 2.304 0 00-1.992-1.153H71.62a.524.524 0 01-.453-.257l-1.703-2.934c2.729-4.513 7.571-7.61 13.145-7.911m17.22 17.795h-2.486a.523.523 0 01-.454-.26l-2.76-4.795a.522.522 0 01.002-.52l2.914-5.077a16.296 16.296 0 012.784 10.652M83.5 63.329c-.164 0-.326.009-.488.013h-.018c-6.53.18-12.208 3.82-15.265 9.152-.014.019-.022.04-.034.06A18.046 18.046 0 0065.33 81.5c0 6.695 3.643 12.552 9.046 15.704.014.008.02.021.034.03.021.012.044.016.066.027a18.054 18.054 0 003.334 1.492l.032.01a18.08 18.08 0 005.658.907c10.019 0 18.17-8.15 18.17-18.17 0-10.02-8.151-18.17-18.17-18.17m11.253 47.886l-.631-1.663a29.99 29.99 0 0017.406-17.428l1.664.627a31.775 31.775 0 01-18.439 18.464m-22.506 0A31.775 31.775 0 0153.81 92.752l1.663-.627a29.99 29.99 0 0017.407 17.428l-.632 1.663zm39.282-40.336A30.063 30.063 0 0094.12 53.474l.632-1.664a31.851 31.851 0 0118.438 18.44l-1.661.631zm-56.059 0l-1.66-.631A31.852 31.852 0 0172.247 51.81l.632 1.664A30.065 30.065 0 0055.47 70.88m28.031-25.521a5.288 5.288 0 00-5.283 5.281c0 .16-.003.322.018.48a5.264 5.264 0 005.265 4.803 5.258 5.258 0 005.264-4.774c.022-.185.02-.347.02-.509a5.288 5.288 0 00-5.285-5.28m0 12.343a7.03 7.03 0 01-7.031-6.383 5.58 5.58 0 01-.03-.679c0-3.893 3.168-7.06 7.061-7.06a7.067 7.067 0 017.06 7.06c0 .235-.002.468-.03.702-.342 3.614-3.366 6.36-7.03 6.36"/><path d="M83.501 45.359a5.288 5.288 0 00-5.283 5.281c0 .16-.003.322.018.48a5.264 5.264 0 005.265 4.803 5.258 5.258 0 005.264-4.774c.022-.185.02-.347.02-.509a5.288 5.288 0 00-5.285-5.28m0 12.343a7.03 7.03 0 01-7.031-6.383 5.58 5.58 0 01-.03-.679c0-3.893 3.168-7.06 7.061-7.06a7.067 7.067 0 017.06 7.06c0 .235-.002.468-.03.702-.342 3.614-3.366 6.36-7.03 6.36m.001 49.374a5.256 5.256 0 00-5.262 4.774c-.024.188-.02.349-.02.508a5.289 5.289 0 005.282 5.283 5.289 5.289 0 005.283-5.283c0-.161.003-.323-.017-.484a5.263 5.263 0 00-5.266-4.798m0 12.344c-3.893 0-7.06-3.168-7.06-7.062 0-.236.002-.47.032-.706.341-3.61 3.364-6.355 7.028-6.355a7.03 7.03 0 017.06 7.061c0 3.894-3.166 7.062-7.06 7.062m30.771-43.203c-.132 0-.265 0-.397.017a5.264 5.264 0 00-4.8 5.265 5.259 5.259 0 004.775 5.263c.189.025.347.027.51.02a5.29 5.29 0 005.283-5.283c0-2.94-2.469-5.237-5.37-5.282m.086 12.344c-.233 0-.465-.003-.699-.032-3.616-.342-6.36-3.365-6.36-7.03a7.028 7.028 0 016.384-7.032c.21-.027.442-.03.675-.03 3.894 0 7.06 3.168 7.06 7.062s-3.166 7.062-7.06 7.062m-61.64-12.344c-2.945-.125-5.362 2.344-5.362 5.282 0 2.941 2.386 5.307 5.37 5.282.133 0 .266 0 .4-.017a5.264 5.264 0 004.797-5.265 5.258 5.258 0 00-4.773-5.263c-.158-.019-.296-.019-.432-.019m-.078 12.344c-3.894 0-7.06-3.168-7.06-7.062s3.166-7.061 7.06-7.061c.233 0 .466.002.7.031 3.616.342 6.36 3.366 6.36 7.03a7.027 7.027 0 01-6.384 7.033c-.21.026-.443.029-.676.029"/></g><path fill="#FFF" d="M165 121h79V42h-79z"/><path d="M236.57 100.36c-1.347 0-2.665-.783-3.44-2.044a.889.889 0 00-.758-.424h-.715a.889.889 0 00-.89.89v8.985h-16.392a.889.889 0 00-.888.89v.566c0 .325.177.624.461.779a4.026 4.026 0 012.106 3.517 4.053 4.053 0 01-4.049 4.048 4.053 4.053 0 01-4.05-4.048c0-1.384.747-2.702 1.948-3.44a.888.888 0 00.423-.757v-.665a.889.889 0 00-.888-.89h-8.987v-7.335c1.093 1.076 2.544 1.707 4.03 1.707 3.223 0 5.845-2.613 5.845-5.826 0-3.214-2.622-5.828-5.844-5.828-1.558 0-2.978.563-4.031 1.55V82.39h30.317v11.455c0 .492.397.889.889.889h.593a.89.89 0 00.78-.463c.687-1.255 2.011-2.006 3.54-2.006 2.245 0 4.073 1.816 4.073 4.049 0 2.232-1.828 4.047-4.073 4.047zm-56.66-2.468a5.833 5.833 0 00-5.826 5.827c0 1.54.6 2.977 1.652 4.048h-7.379V82.389h8.987c.49 0 .888-.397.888-.888v-.74a.886.886 0 00-.424-.756 4.02 4.02 0 01-1.947-3.442 4.053 4.053 0 014.05-4.049 4.053 4.053 0 014.048 4.049c0 1.458-.808 2.808-2.108 3.527a.892.892 0 00-.458.779v.632c0 .491.397.888.889.888h16.392v11.455c0 .492.398.889.889.889h.598c.323 0 .62-.175.776-.458.698-1.26 2.022-2.01 3.545-2.01 2.242 0 4.067 1.815 4.067 4.048 0 2.232-1.825 4.047-4.067 4.047-1.359 0-2.683-.783-3.458-2.044a.89.89 0 00-.757-.424h-.704a.889.889 0 00-.889.89v8.985h-14.602a5.783 5.783 0 001.664-4.048 5.833 5.833 0 00-5.826-5.827zm-11.553-42.659h8.987c.49 0 .888-.397.888-.889v-.74a.888.888 0 00-.423-.757c-1.2-.738-1.947-2.057-1.947-3.44a4.053 4.053 0 014.05-4.049 4.053 4.053 0 014.048 4.049 4.025 4.025 0 01-2.107 3.517.891.891 0 00-.46.778v.642c0 .492.397.889.889.889h16.392v11.455c0 .492.398.889.889.889h.592a.891.891 0 00.78-.463c.688-1.255 2.012-2.006 3.541-2.006 2.246 0 4.073 1.816 4.073 4.049 0 2.232-1.827 4.047-4.073 4.047-1.346 0-2.664-.783-3.44-2.044a.889.889 0 00-.758-.425h-.715a.889.889 0 00-.889.89v8.985h-14.602a5.783 5.783 0 001.664-4.047 5.833 5.833 0 00-5.826-5.828 5.833 5.833 0 00-5.826 5.828c0 1.54.6 2.977 1.652 4.047h-7.379V55.233zm41.08 0a.888.888 0 00.889-.889v-.74a.888.888 0 00-.423-.757c-1.201-.738-1.947-2.057-1.947-3.44a4.053 4.053 0 014.05-4.049 4.053 4.053 0 014.048 4.049 4.025 4.025 0 01-2.107 3.517.891.891 0 00-.46.778v.642c0 .492.397.889.888.889h16.393v9.649c-1.056-.981-2.49-1.553-4.025-1.553-3.226 0-5.85 2.614-5.85 5.828 0 3.212 2.624 5.826 5.85 5.826 1.47 0 2.92-.634 4.025-1.711v7.338H200.45v-7.345c1.092 1.081 2.541 1.718 4.025 1.718 3.226 0 5.85-2.614 5.85-5.826 0-3.214-2.624-5.828-5.85-5.828-1.536 0-2.97.572-4.025 1.553v-9.649h8.987zm27.133 35.252c-1.536 0-2.97.572-4.025 1.553V71.626a.889.889 0 00-.888-.89h-.692a.887.887 0 00-.75.414c-.803 1.268-2.133 2.054-3.472 2.054-2.246 0-4.073-1.815-4.073-4.047 0-2.233 1.827-4.049 4.073-4.049 1.528 0 2.852.75 3.54 2.006a.891.891 0 00.78.463h.594c.49 0 .888-.397.888-.889V54.344a.889.889 0 00-.888-.89H216.16a5.765 5.765 0 001.67-4.047 5.833 5.833 0 00-5.826-5.828 5.833 5.833 0 00-5.826 5.828c0 1.513.615 2.97 1.664 4.047h-23.775a5.765 5.765 0 001.67-4.047 5.833 5.833 0 00-5.826-5.828 5.833 5.833 0 00-5.827 5.828c0 1.513.615 2.97 1.664 4.047h-8.28a.889.889 0 00-.889.89v54.313c0 .492.398.889.89.889h9.874c.49 0 .888-.397.888-.89v-.738a.886.886 0 00-.424-.756c-1.219-.748-1.947-2.035-1.947-3.443a4.053 4.053 0 014.05-4.048 4.053 4.053 0 014.048 4.048c0 1.458-.808 2.808-2.108 3.527a.892.892 0 00-.458.779v.632c0 .492.397.889.889.889h25.488a5.84 5.84 0 00-1.59 3.973 5.833 5.833 0 005.825 5.827 5.833 5.833 0 005.826-5.827 5.763 5.763 0 00-1.596-3.973h15.422c.49 0 .888-.397.888-.89v-8.235c1.092 1.082 2.54 1.718 4.025 1.718 3.226 0 5.85-2.613 5.85-5.826 0-3.214-2.624-5.828-5.85-5.828z" fill="#8A3FFC"/><path fill="#FFF" d="M44 247h79v-79H44z"/><path d="M115.595 197.625c0 14.998-12.159 27.156-27.156 27.156-14.998 0-27.157-12.158-27.157-27.156s12.16-27.156 27.157-27.156 27.156 12.158 27.156 27.156" fill="#F7F1FF"/><path d="M115.595 197.625c0 14.998-12.159 27.156-27.156 27.156-14.998 0-27.157-12.158-27.157-27.156s12.16-27.156 27.157-27.156 27.156 12.158 27.156 27.156z" stroke="#000" stroke-width=".5" stroke-linecap="round"/><path d="M95.845 190.219a7.406 7.406 0 01-7.406 7.406 7.406 7.406 0 01-7.407-7.406 7.406 7.406 0 017.407-7.406 7.406 7.406 0 017.406 7.406m7.406 19.75a7.406 7.406 0 01-7.406 7.406 7.406 7.406 0 01-7.406-7.406 7.406 7.406 0 017.406-7.406 7.406 7.406 0 017.406 7.406m-41.29-18.405a7.406 7.406 0 0111.665 6.06 7.406 7.406 0 01-7.406 7.407 7.37 7.37 0 01-4.232-1.326m33.789-32.231a7.41 7.41 0 01-7.34 6.401 7.405 7.405 0 01-7.336-6.401m32.439 15.695a7.412 7.412 0 01-2.881.58 7.404 7.404 0 01-7.407-7.406 7.37 7.37 0 011.482-4.444" fill="#E6D6FF"/><path d="M88.439 183.702a6.524 6.524 0 00-6.518 6.518 6.522 6.522 0 006.518 6.515 6.522 6.522 0 006.517-6.515 6.524 6.524 0 00-6.517-6.518m0 14.813c-4.575 0-8.295-3.723-8.295-8.295 0-4.575 3.72-8.298 8.295-8.298 4.574 0 8.295 3.723 8.295 8.298 0 4.572-3.72 8.295-8.295 8.295m7.406 4.937a6.524 6.524 0 00-6.518 6.518 6.522 6.522 0 006.518 6.515 6.522 6.522 0 006.517-6.515 6.524 6.524 0 00-6.517-6.518m0 14.813c-4.575 0-8.295-3.723-8.295-8.295 0-4.575 3.72-8.298 8.295-8.298 4.575 0 8.295 3.723 8.295 8.298 0 4.572-3.72 8.295-8.295 8.295m-48.141-42.859c0 .68-.553 1.235-1.234 1.235a1.235 1.235 0 111.234-1.234m14.813 4.937a1.235 1.235 0 11-2.47-.001 1.235 1.235 0 012.47 0m-7.407 4.938c0 .68-.552 1.235-1.234 1.235a1.235 1.235 0 111.234-1.234m2.47 4.937c0 .679-.554 1.234-1.235 1.234a1.235 1.235 0 111.234-1.234m-7.406-2.469c0 .679-.553 1.234-1.234 1.234a1.235 1.235 0 111.234-1.234m2.469 4.938c0 .678-.553 1.234-1.235 1.234a1.235 1.235 0 111.234-1.234m-4.937 5.041c0 .679-.553 1.234-1.234 1.234a1.235 1.235 0 111.234-1.234m7.406 4.834a1.235 1.235 0 11-2.469-.001 1.235 1.235 0 012.47 0m-4.938 2.469c0 .68-.553 1.235-1.234 1.235a1.235 1.235 0 111.234-1.234" fill="#8A3FFC"/><path d="M88.439 223.892c-11.784 0-21.78-7.8-25.098-18.509a8.201 8.201 0 002.879.538c4.575 0 8.295-3.722 8.295-8.297 0-4.572-3.72-8.295-8.295-8.295-.997 0-1.963.195-2.879.533 2.536-8.176 8.967-14.65 17.114-17.251.958 3.567 4.207 6.154 7.984 6.154s7.026-2.59 7.984-6.154a26.157 26.157 0 017.1 3.542 8.207 8.207 0 00-1.16 4.19c0 4.574 3.72 8.297 8.294 8.297.79 0 1.553-.15 2.299-.368a26.097 26.097 0 011.75 9.352c0 14.487-11.783 26.268-26.267 26.268zM62.17 197.624c0-1.889.21-3.728.59-5.505a6.454 6.454 0 013.459-1.01 6.522 6.522 0 016.517 6.515 6.524 6.524 0 01-6.517 6.518 6.51 6.51 0 01-3.459-1.01c-.38-1.78-.59-3.617-.59-5.508zm32.543-25.477c-.753 2.806-3.305 4.838-6.275 4.838-2.973 0-5.525-2.034-6.276-4.838 2.017-.497 4.11-.788 6.276-.788 2.165 0 4.258.291 6.275.788zm17.55 14.489a6.49 6.49 0 01-1.607.224 6.524 6.524 0 01-6.517-6.517c0-1.109.281-2.17.805-3.123a26.385 26.385 0 017.32 9.416zm8.896 42.452l-12.302-12.3c4.715-5.02 7.626-11.753 7.626-19.164 0-3.72-.746-7.27-2.07-10.524a.829.829 0 00-.056-.282c-.027-.061-.074-.11-.113-.163-1.933-4.53-5.042-8.428-8.92-11.368-.027-.03-.025-.074-.06-.101-.061-.047-.135-.07-.204-.1a27.915 27.915 0 00-8.873-4.394.888.888 0 00-.291-.1c-.03-.008-.057.004-.089.002-2.353-.642-4.814-1.015-7.37-1.015-2.552 0-5.016.373-7.368 1.015-.033.002-.057-.01-.09-.003a.888.888 0 00-.29.101c-9.676 2.79-17.2 10.648-19.524 20.51a.863.863 0 00-.079.304 27.94 27.94 0 00-.693 6.118c0 2.143.264 4.22.72 6.224.003.012.006.022.008.037.198.851.427 1.69.699 2.515a1.207 1.207 0 00-.539-.135 1.235 1.235 0 000 2.468c.504 0 .931-.303 1.126-.733 4.133 10.337 14.233 17.671 26.03 17.671 7.412 0 14.144-2.913 19.163-7.625l12.302 12.301 1.257-1.259zM55.11 209.969c0 .679-.552 1.234-1.234 1.234a1.235 1.235 0 111.234-1.234m12.344 9.875c0 .679-.553 1.234-1.234 1.234a1.235 1.235 0 111.234-1.234m7.406 4.937c0 .68-.552 1.235-1.234 1.235a1.235 1.235 0 111.234-1.234m-14.812-2.469c0 .678-.553 1.234-1.234 1.234a1.235 1.235 0 111.234-1.234m-4.938 2.425c0 .679-.552 1.234-1.234 1.234a1.235 1.235 0 111.234-1.234m-4.937 2.512a1.235 1.235 0 11-2.47 0 1.235 1.235 0 012.47 0m7.403 4.938c0 .678-.553 1.234-1.235 1.234a1.235 1.235 0 111.234-1.234m-2.465 4.937c0 .679-.552 1.234-1.234 1.234a1.235 1.235 0 111.234-1.234m9.876-7.415a1.235 1.235 0 11-2.47-.002 1.235 1.235 0 012.47.001m7.406 4.947a1.235 1.235 0 11-2.47 0 1.235 1.235 0 012.47 0m24.688-4.937a1.235 1.235 0 11-2.47-.001 1.235 1.235 0 012.47 0m-17.282 14.813c0 .68-.553 1.235-1.234 1.235a1.235 1.235 0 111.234-1.234M57.58 171.703a1.235 1.235 0 11-2.47 0 1.235 1.235 0 012.47 0m9.874 1.257a1.235 1.235 0 11-2.47-.002 1.235 1.235 0 012.47.001" fill="#8A3FFC"/><g><path fill="#FFF" d="M165 247h79v-79h-79z"/><path d="M48.14 38.266a1.235 1.235 0 10.002 2.47 1.235 1.235 0 00-.001-2.47zm16.047-27.157a1.235 1.235 0 10.001 2.47 1.235 1.235 0 000-2.47zM30.86 12.344a1.235 1.235 0 11-2.47-.001 1.235 1.235 0 012.47 0zm6.91 1.58h15.77a10.746 10.746 0 010-3.16H37.77a8.323 8.323 0 010 3.16zm-8.144-8.098a6.524 6.524 0 00-6.517 6.518 6.524 6.524 0 006.517 6.517 6.524 6.524 0 006.517-6.517 6.524 6.524 0 00-6.517-6.518zm34.563-2.468c-4.955 0-8.987 4.031-8.987 8.986 0 4.955 4.032 8.986 8.986 8.986 4.955 0 8.987-4.031 8.987-8.986 0-4.955-4.032-8.986-8.987-8.986zM19.696 24.995a7.867 7.867 0 012.785 1.736l3.9-6.755a8.344 8.344 0 01-2.713-1.864l-3.972 6.883zm28.842 6.214a7.53 7.53 0 013.787 1.017 7.45 7.45 0 012.718 2.723l.185.319 7.11-12.32a10.792 10.792 0 01-6.727-4.105l-7.14 12.366h.067zM8.376 35.002l10.574 6.103 3.261-5.602a6.018 6.018 0 00.694-4.592 5.999 5.999 0 00-2.743-3.73c-2.854-1.73-6.584-.805-8.31 2.054l-3.476 5.767zm42.066 18.422h13.197L53.503 35.839a5.65 5.65 0 00-2.07-2.074 5.744 5.744 0 00-5.739-.025 5.732 5.732 0 00-2.086 2.094c-.992 1.708-.997 4.007-.01 5.718l6.843 11.872zM40.388 65.767h30.316V55.204H40.389v10.563zm-36.39 9.876h71.644v-8.098H8.672l-4.674 8.097zM76.53 77.42H2.47a.888.888 0 01-.889-.889c0-.155.042-.326.118-.461l5.691-9.858a.896.896 0 01.77-.445h30.452V54.313a.89.89 0 01.889-.89h8.89l-6.332-10.985c-1.314-2.276-1.309-5.222.012-7.498a7.468 7.468 0 014.138-3.362l8.339-14.447c-.227-.46-.425-.936-.588-1.43H37.21c-1.291 2.906-4.204 4.938-7.584 4.938-.511 0-1.01-.047-1.496-.134l-4.451 7.71c.427.692.75 1.454.953 2.27a7.77 7.77 0 01-.892 5.924l-3.698 6.355a.88.88 0 01-1.212.323l-5.256-3.034-1.997 3.459a5.645 5.645 0 011.84 2.78 5.645 5.645 0 01-.448 4.327l-1.286 2.37c-.113.15-.348.378-.53.432L7.29 54.564l-.503-1.703 3.518-1.044 1.103-2.047a3.879 3.879 0 00.304-2.972 3.88 3.88 0 00-1.879-2.323 3.878 3.878 0 00-2.972-.307 3.884 3.884 0 00-2.326 1.88l-1.108 2.046 1.036 3.503-1.703.506-1.143-3.856a.885.885 0 01.072-.677l1.286-2.37a5.645 5.645 0 013.38-2.735 5.596 5.596 0 013.685.15l1.993-3.45-5.33-3.08a.889.889 0 01-.316-1.226l3.945-6.542a7.84 7.84 0 017.552-3.738l4.614-7.994a8.258 8.258 0 01-1.168-4.241c0-4.575 3.72-8.295 8.295-8.295 3.38 0 6.293 2.032 7.584 4.937h16.75c1.415-4.298 5.466-7.406 10.228-7.406 5.935 0 10.764 4.829 10.764 10.764 0 5.898-4.767 10.702-10.652 10.761l-8.046 13.944 9.438 16.375h5.903c.491 0 .889.397.889.889v11.454h4.048c.492 0 .889.398.889.89v9.874a.888.888 0 01-.889.889z" fill="url(#a)" transform="translate(165 168)"/></g></g></svg>