<svg xmlns="http://www.w3.org/2000/svg" xmlns:xlink="http://www.w3.org/1999/xlink" viewBox="0 0 288 288"><defs><linearGradient x1="6.957%" y1="109.639%" x2="93.043%" y2="-9.639%" id="a"><stop stop-color="#FFCFE1" offset="0%"/><stop stop-color="#C9DEFF" offset="100%"/></linearGradient><linearGradient x1="5.09%" y1="83.657%" x2="94.91%" y2="23.078%" id="c"><stop stop-color="#0062FF" offset="0%"/><stop stop-color="#BB8EFF" offset="100%"/></linearGradient><path d="M29.338 31.408V66.77C12.139 77.23.588 96.095.588 117.658c0 32.844 26.726 59.57 59.57 59.57s59.57-26.726 59.57-59.57c0-21.563-11.552-40.429-28.75-50.888V31.408c0-16.992-13.823-30.826-30.82-30.826-16.992 0-30.82 13.834-30.82 30.826zm4.14 0c0-14.715 11.965-26.68 26.68-26.68 14.714 0 26.68 11.965 26.68 26.68V64.47c-8.039-4.048-17.084-6.388-26.68-6.388-9.597 0-18.642 2.34-26.68 6.388V31.408zm-28.75 86.25c0-30.562 24.868-55.43 55.43-55.43 30.567 0 55.43 24.868 55.43 55.43 0 30.567-24.863 55.424-55.43 55.424-30.562 0-55.43-24.857-55.43-55.424zm46.805-2.875c0 4.042 2.794 7.417 6.555 8.343v11.782c0 1.144.925 2.075 2.07 2.075 1.144 0 2.07-.931 2.07-2.075v-11.782c3.76-.926 6.555-4.301 6.555-8.343a8.628 8.628 0 00-8.625-8.625 8.628 8.628 0 00-8.625 8.625z" id="b"/></defs><g fill="none" fill-rule="evenodd"><path fill="#FFF" d="M0 0h288v288H0z"/><path fill="url(#a)" d="M0 288h288V0H0z"/><path d="M52 236h184V52H52z"/><g transform="translate(83.842 55.092)"><mask id="d" fill="#fff"><use xlink:href="#b"/></mask><path d="M29.338 31.408V66.77C12.139 77.23.588 96.095.588 117.658c0 32.844 26.726 59.57 59.57 59.57s59.57-26.726 59.57-59.57c0-21.563-11.552-40.429-28.75-50.888V31.408c0-16.992-13.823-30.826-30.82-30.826-16.992 0-30.82 13.834-30.82 30.826zm4.14 0c0-14.715 11.965-26.68 26.68-26.68 14.714 0 26.68 11.965 26.68 26.68V64.47c-8.039-4.048-17.084-6.388-26.68-6.388-9.597 0-18.642 2.34-26.68 6.388V31.408zm-28.75 86.25c0-30.562 24.868-55.43 55.43-55.43 30.567 0 55.43 24.868 55.43 55.43 0 30.567-24.863 55.424-55.43 55.424-30.562 0-55.43-24.857-55.43-55.424zm46.805-2.875c0 4.042 2.794 7.417 6.555 8.343v11.782c0 1.144.925 2.075 2.07 2.075 1.144 0 2.07-.931 2.07-2.075v-11.782c3.76-.926 6.555-4.301 6.555-8.343a8.628 8.628 0 00-8.625-8.625 8.628 8.628 0 00-8.625 8.625z" fill="url(#c)" mask="url(#d)"/></g></g></svg>