<svg xmlns="http://www.w3.org/2000/svg" xmlns:xlink="http://www.w3.org/1999/xlink" viewBox="0 0 288 288"><defs><linearGradient x1="15.747%" y1="89.374%" x2="84.255%" y2="10.62%" id="b"><stop stop-color="#FF518D" offset="0%"/><stop stop-color="#008BFF" offset="100%"/></linearGradient><path d="M125.045 4.169c-4.237 1.138-7.791 3.852-9.982 7.665-4.537 7.848-1.834 17.928 6.015 22.459a16.39 16.39 0 008.2 2.214c1.425 0 2.869-.19 4.277-.57a16.29 16.29 0 009.988-7.664 16.353 16.353 0 001.644-12.478 16.346 16.346 0 00-7.664-9.982 16.274 16.274 0 00-8.188-2.213c-1.432 0-2.87.19-4.29.569m-1.897 26.542c-5.871-3.398-7.89-10.937-4.502-16.813 3.392-5.877 10.936-7.9 16.807-4.502a12.221 12.221 0 015.732 7.469 12.21 12.21 0 01-1.23 9.344 12.199 12.199 0 01-7.464 5.732c-1.063.282-2.139.42-3.208.42-2.133 0-4.238-.558-6.135-1.65M46.328 5.813a16.358 16.358 0 00-7.66 9.982 16.326 16.326 0 001.64 12.478c2.202 3.806 5.744 6.532 9.993 7.665 1.414.379 2.852.569 4.272.569 2.852 0 5.67-.753 8.206-2.214 7.842-4.531 10.545-14.61 6.02-22.46A16.337 16.337 0 0058.81 4.17a16.618 16.618 0 00-4.29-.564 16.32 16.32 0 00-8.193 2.208m2.075 3.583a12.168 12.168 0 016.13-1.65c1.07 0 2.145.137 3.203.419a12.23 12.23 0 017.469 5.733c3.392 5.876 1.374 13.42-4.502 16.813-2.847 1.644-6.164 2.064-9.338 1.23A12.215 12.215 0 0143.9 26.21h-.006c-3.392-5.877-1.374-13.421 4.508-16.814m98.958 71.03c0 9.074 7.371 16.445 16.445 16.445 9.062 0 16.44-7.371 16.44-16.445 0-9.067-7.378-16.445-16.44-16.445-9.074 0-16.445 7.378-16.445 16.445m4.14 0c0-6.785 5.514-12.299 12.305-12.299 6.785 0 12.3 5.514 12.3 12.3 0 6.784-5.515 12.304-12.3 12.304-6.79 0-12.305-5.52-12.305-12.305m-76.02 0c0 9.074 7.377 16.445 16.45 16.445 9.062 0 16.44-7.371 16.44-16.445 0-9.067-7.378-16.445-16.44-16.445-9.073 0-16.45 7.378-16.45 16.445m4.14 0c0-6.785 5.52-12.299 12.31-12.299 6.78 0 12.305 5.514 12.305 12.3 0 6.784-5.526 12.304-12.305 12.304-6.79 0-12.31-5.52-12.31-12.305m-76.016 0c0 9.074 7.377 16.445 16.451 16.445 9.062 0 16.44-7.371 16.44-16.445 0-9.067-7.378-16.445-16.44-16.445-9.074 0-16.45 7.378-16.45 16.445m4.14 0c0-6.785 5.52-12.299 12.31-12.299 6.78 0 12.305 5.514 12.305 12.3 0 6.784-5.526 12.304-12.305 12.304-6.79 0-12.31-5.52-12.31-12.305m42.55 44.494a16.342 16.342 0 00-9.983 7.659h-.006c-4.525 7.854-1.834 17.934 6.02 22.465a16.331 16.331 0 0012.484 1.644c4.243-1.132 7.786-3.858 9.982-7.664a16.321 16.321 0 001.644-12.478 16.342 16.342 0 00-7.658-9.982 16.331 16.331 0 00-8.2-2.213c-1.426.005-2.864.19-4.284.569m-1.892 26.542c-5.882-3.399-7.9-10.931-4.502-16.813 3.387-5.871 10.931-7.9 16.802-4.508 2.846 1.65 4.887 4.3 5.733 7.48a12.22 12.22 0 01-1.231 9.338c-1.633 2.847-4.29 4.876-7.47 5.733-1.057.282-2.133.42-3.196.42-2.14 0-4.244-.558-6.136-1.65m72.675-24.898a16.342 16.342 0 00-7.66 9.982c-1.138 4.25-.557 8.677 1.645 12.478a16.306 16.306 0 009.988 7.665 16.31 16.31 0 0012.472-1.644c7.854-4.532 10.557-14.612 6.02-22.466a16.322 16.322 0 00-9.988-7.66 16.457 16.457 0 00-4.272-.563c-2.852 0-5.67.742-8.205 2.208m2.07 3.577a12.322 12.322 0 016.135-1.65c1.064 0 2.145.143 3.209.425a12.256 12.256 0 017.463 5.733c3.392 5.882 1.374 13.42-4.502 16.813a12.261 12.261 0 01-9.332 1.23 12.242 12.242 0 01-7.475-5.733h-.006c-3.387-5.876-1.363-13.414 4.508-16.818" id="a"/></defs><g fill="none" fill-rule="evenodd"><path fill="#171717" d="M0 0h288v288H0z"/><path d="M52 236h184V52H52z"/><g transform="translate(52 63.5)"><mask id="c" fill="#fff"><use xlink:href="#a"/></mask><path d="M125.045 4.169c-4.237 1.138-7.791 3.852-9.982 7.665-4.537 7.848-1.834 17.928 6.015 22.459a16.39 16.39 0 008.2 2.214c1.425 0 2.869-.19 4.277-.57a16.29 16.29 0 009.988-7.664 16.353 16.353 0 001.644-12.478 16.346 16.346 0 00-7.664-9.982 16.274 16.274 0 00-8.188-2.213c-1.432 0-2.87.19-4.29.569m-1.897 26.542c-5.871-3.398-7.89-10.937-4.502-16.813 3.392-5.877 10.936-7.9 16.807-4.502a12.221 12.221 0 015.732 7.469 12.21 12.21 0 01-1.23 9.344 12.199 12.199 0 01-7.464 5.732c-1.063.282-2.139.42-3.208.42-2.133 0-4.238-.558-6.135-1.65M46.328 5.813a16.358 16.358 0 00-7.66 9.982 16.326 16.326 0 001.64 12.478c2.202 3.806 5.744 6.532 9.993 7.665 1.414.379 2.852.569 4.272.569 2.852 0 5.67-.753 8.206-2.214 7.842-4.531 10.545-14.61 6.02-22.46A16.337 16.337 0 0058.81 4.17a16.618 16.618 0 00-4.29-.564 16.32 16.32 0 00-8.193 2.208m2.075 3.583a12.168 12.168 0 016.13-1.65c1.07 0 2.145.137 3.203.419a12.23 12.23 0 017.469 5.733c3.392 5.876 1.374 13.42-4.502 16.813-2.847 1.644-6.164 2.064-9.338 1.23A12.215 12.215 0 0143.9 26.21h-.006c-3.392-5.877-1.374-13.421 4.508-16.814m98.958 71.03c0 9.074 7.371 16.445 16.445 16.445 9.062 0 16.44-7.371 16.44-16.445 0-9.067-7.378-16.445-16.44-16.445-9.074 0-16.445 7.378-16.445 16.445m4.14 0c0-6.785 5.514-12.299 12.305-12.299 6.785 0 12.3 5.514 12.3 12.3 0 6.784-5.515 12.304-12.3 12.304-6.79 0-12.305-5.52-12.305-12.305m-76.02 0c0 9.074 7.377 16.445 16.45 16.445 9.062 0 16.44-7.371 16.44-16.445 0-9.067-7.378-16.445-16.44-16.445-9.073 0-16.45 7.378-16.45 16.445m4.14 0c0-6.785 5.52-12.299 12.31-12.299 6.78 0 12.305 5.514 12.305 12.3 0 6.784-5.526 12.304-12.305 12.304-6.79 0-12.31-5.52-12.31-12.305m-76.016 0c0 9.074 7.377 16.445 16.451 16.445 9.062 0 16.44-7.371 16.44-16.445 0-9.067-7.378-16.445-16.44-16.445-9.074 0-16.45 7.378-16.45 16.445m4.14 0c0-6.785 5.52-12.299 12.31-12.299 6.78 0 12.305 5.514 12.305 12.3 0 6.784-5.526 12.304-12.305 12.304-6.79 0-12.31-5.52-12.31-12.305m42.55 44.494a16.342 16.342 0 00-9.983 7.659h-.006c-4.525 7.854-1.834 17.934 6.02 22.465a16.331 16.331 0 0012.484 1.644c4.243-1.132 7.786-3.858 9.982-7.664a16.321 16.321 0 001.644-12.478 16.342 16.342 0 00-7.658-9.982 16.331 16.331 0 00-8.2-2.213c-1.426.005-2.864.19-4.284.569m-1.892 26.542c-5.882-3.399-7.9-10.931-4.502-16.813 3.387-5.871 10.931-7.9 16.802-4.508 2.846 1.65 4.887 4.3 5.733 7.48a12.22 12.22 0 01-1.231 9.338c-1.633 2.847-4.29 4.876-7.47 5.733-1.057.282-2.133.42-3.196.42-2.14 0-4.244-.558-6.136-1.65m72.675-24.898a16.342 16.342 0 00-7.66 9.982c-1.138 4.25-.557 8.677 1.645 12.478a16.306 16.306 0 009.988 7.665 16.31 16.31 0 0012.472-1.644c7.854-4.532 10.557-14.612 6.02-22.466a16.322 16.322 0 00-9.988-7.66 16.457 16.457 0 00-4.272-.563c-2.852 0-5.67.742-8.205 2.208m2.07 3.577a12.322 12.322 0 016.135-1.65c1.064 0 2.145.143 3.209.425a12.256 12.256 0 017.463 5.733c3.392 5.882 1.374 13.42-4.502 16.813a12.261 12.261 0 01-9.332 1.23 12.242 12.242 0 01-7.475-5.733h-.006c-3.387-5.876-1.363-13.414 4.508-16.818" fill="url(#b)" mask="url(#c)"/></g></g></svg>