<svg xmlns="http://www.w3.org/2000/svg" viewBox="0 0 288 288"><g fill="none" fill-rule="evenodd"><path fill="#FFF" d="M0 0h288v288H0z"/><path fill="#0530AD" d="M0 0h288v288H0z"/><path d="M52 236h184V52H52z"/><path d="M59.82 144h-4.14c0-48.703 39.617-88.32 88.32-88.32 26.041 0 50.116 11.109 66.93 30.694V57.75h4.14v36.57H178.5v-4.14h30.227C192.667 70.831 169.311 59.82 144 59.82c-46.42 0-84.18 37.766-84.18 84.18M144 232.32c-26.047 0-50.122-11.109-66.93-30.694v28.624h-4.14v-36.57h36.57v4.14H79.272c16.054 19.349 39.416 30.36 64.727 30.36 46.42 0 84.18-37.766 84.18-84.18h4.14c0 48.702-39.617 88.32-88.32 88.32" fill="#0062FF"/></g></svg>