<svg xmlns="http://www.w3.org/2000/svg" xmlns:xlink="http://www.w3.org/1999/xlink" viewBox="0 0 288 288"><defs><linearGradient x1="6.957%" y1="109.639%" x2="93.043%" y2="-9.639%" id="a"><stop stop-color="#FF4A51" offset="0%"/><stop stop-color="#FFA1C4" offset="100%"/></linearGradient><linearGradient x1="1.237%" y1="100.477%" x2="98.76%" y2="8.219%" id="d"><stop stop-color="#97C1FF" offset="0%"/><stop stop-color="#D0B0FF" offset="100%"/></linearGradient><path id="b" d="M0 288h288V0H0z"/><path d="M127.082 0v15.174H85.228V0h-4.146v15.174h-41.86V0h-4.146v15.174H2.658c-1.145 0-2.07.932-2.07 2.076V172.5c0 1.144.925 2.07 2.07 2.07h161a2.074 2.074 0 002.075-2.07V17.25a2.079 2.079 0 00-2.075-2.076h-32.436V0h-4.14zm4.14 34.5V19.32h30.366v151.104H4.728V19.32h30.348V34.5h4.146V19.32h41.86V34.5h4.146V19.32h41.854V34.5h4.14zm-7.82 20.924c-1.144 0-2.07.932-2.07 2.076V69c0 1.144.926 2.07 2.07 2.07h11.494a2.074 2.074 0 002.076-2.07V57.5a2.079 2.079 0 00-2.076-2.076h-11.494zm2.07 11.5h7.36V59.57h-7.36v7.354zm-48.07-11.5a2.072 2.072 0 00-2.064 2.076V69c0 1.144.925 2.07 2.064 2.07h11.506c1.138 0 2.07-.926 2.07-2.07V57.5a2.077 2.077 0 00-2.07-2.076H77.402zm2.076 11.5h7.36V59.57h-7.36v7.354zm-48.07-11.5c-1.145 0-2.07.932-2.07 2.076V69c0 1.144.925 2.07 2.07 2.07h11.5c1.144 0 2.07-.926 2.07-2.07V57.5a2.074 2.074 0 00-2.07-2.076h-11.5zm2.07 11.5h7.36V59.57h-7.36v7.354zm89.924 28.756c-1.144 0-2.07.926-2.07 2.07v11.5c0 1.144.926 2.07 2.07 2.07h11.494a2.074 2.074 0 002.076-2.07v-11.5c0-1.144-.932-2.07-2.076-2.07h-11.494zm2.07 11.5h7.36v-7.354h-7.36v7.354zm-48.07-11.5a2.067 2.067 0 00-2.064 2.07v11.5c0 1.144.925 2.07 2.064 2.07h11.506c1.138 0 2.07-.926 2.07-2.07v-11.5c0-1.144-.932-2.07-2.07-2.07H77.402zm2.076 11.5h7.36v-7.354h-7.36v7.354zm-48.07-11.5c-1.145 0-2.07.926-2.07 2.07v11.5c0 1.144.925 2.07 2.07 2.07h11.5c1.144 0 2.07-.926 2.07-2.07v-11.5c0-1.144-.926-2.07-2.07-2.07h-11.5zm2.07 11.5h7.36v-7.354h-7.36v7.354zm89.924 28.75c-1.144 0-2.07.926-2.07 2.07v11.5c0 1.144.926 2.076 2.07 2.076h11.494a2.079 2.079 0 002.076-2.076V138c0-1.144-.932-2.07-2.076-2.07h-11.494zm2.07 11.5h7.36v-7.354h-7.36v7.354zm-48.07-11.5a2.067 2.067 0 00-2.064 2.07v11.5c0 1.144.925 2.076 2.064 2.076h11.506c1.138 0 2.07-.932 2.07-2.076V138c0-1.144-.932-2.07-2.07-2.07H77.402zm2.076 11.5h7.36v-7.354h-7.36v7.354zm-48.07-11.5c-1.145 0-2.07.926-2.07 2.07v11.5c0 1.144.925 2.076 2.07 2.076h11.5c1.144 0 2.07-.932 2.07-2.076V138c0-1.144-.926-2.07-2.07-2.07h-11.5zm2.07 11.5h7.36v-7.354h-7.36v7.354z" id="c"/></defs><g fill="none" fill-rule="evenodd"><path fill="#FFF" d="M0 0h288v288H0z"/><use fill="url(#a)" xlink:href="#b"/><use fill="#8A3FFC" xlink:href="#b"/><path d="M52 236h183.994V52H52z"/><g transform="translate(60.842 57.75)"><mask id="e" fill="#fff"><use xlink:href="#c"/></mask><path d="M127.082 0v15.174H85.228V0h-4.146v15.174h-41.86V0h-4.146v15.174H2.658c-1.145 0-2.07.932-2.07 2.076V172.5c0 1.144.925 2.07 2.07 2.07h161a2.074 2.074 0 002.075-2.07V17.25a2.079 2.079 0 00-2.075-2.076h-32.436V0h-4.14zm4.14 34.5V19.32h30.366v151.104H4.728V19.32h30.348V34.5h4.146V19.32h41.86V34.5h4.146V19.32h41.854V34.5h4.14zm-7.82 20.924c-1.144 0-2.07.932-2.07 2.076V69c0 1.144.926 2.07 2.07 2.07h11.494a2.074 2.074 0 002.076-2.07V57.5a2.079 2.079 0 00-2.076-2.076h-11.494zm2.07 11.5h7.36V59.57h-7.36v7.354zm-48.07-11.5a2.072 2.072 0 00-2.064 2.076V69c0 1.144.925 2.07 2.064 2.07h11.506c1.138 0 2.07-.926 2.07-2.07V57.5a2.077 2.077 0 00-2.07-2.076H77.402zm2.076 11.5h7.36V59.57h-7.36v7.354zm-48.07-11.5c-1.145 0-2.07.932-2.07 2.076V69c0 1.144.925 2.07 2.07 2.07h11.5c1.144 0 2.07-.926 2.07-2.07V57.5a2.074 2.074 0 00-2.07-2.076h-11.5zm2.07 11.5h7.36V59.57h-7.36v7.354zm89.924 28.756c-1.144 0-2.07.926-2.07 2.07v11.5c0 1.144.926 2.07 2.07 2.07h11.494a2.074 2.074 0 002.076-2.07v-11.5c0-1.144-.932-2.07-2.076-2.07h-11.494zm2.07 11.5h7.36v-7.354h-7.36v7.354zm-48.07-11.5a2.067 2.067 0 00-2.064 2.07v11.5c0 1.144.925 2.07 2.064 2.07h11.506c1.138 0 2.07-.926 2.07-2.07v-11.5c0-1.144-.932-2.07-2.07-2.07H77.402zm2.076 11.5h7.36v-7.354h-7.36v7.354zm-48.07-11.5c-1.145 0-2.07.926-2.07 2.07v11.5c0 1.144.925 2.07 2.07 2.07h11.5c1.144 0 2.07-.926 2.07-2.07v-11.5c0-1.144-.926-2.07-2.07-2.07h-11.5zm2.07 11.5h7.36v-7.354h-7.36v7.354zm89.924 28.75c-1.144 0-2.07.926-2.07 2.07v11.5c0 1.144.926 2.076 2.07 2.076h11.494a2.079 2.079 0 002.076-2.076V138c0-1.144-.932-2.07-2.076-2.07h-11.494zm2.07 11.5h7.36v-7.354h-7.36v7.354zm-48.07-11.5a2.067 2.067 0 00-2.064 2.07v11.5c0 1.144.925 2.076 2.064 2.076h11.506c1.138 0 2.07-.932 2.07-2.076V138c0-1.144-.932-2.07-2.07-2.07H77.402zm2.076 11.5h7.36v-7.354h-7.36v7.354zm-48.07-11.5c-1.145 0-2.07.926-2.07 2.07v11.5c0 1.144.925 2.076 2.07 2.076h11.5c1.144 0 2.07-.932 2.07-2.076V138c0-1.144-.926-2.07-2.07-2.07h-11.5zm2.07 11.5h7.36v-7.354h-7.36v7.354z" fill="url(#d)" mask="url(#e)"/></g></g></svg>