<svg id="e0c49ecf-97ce-4d09-8f83-84e727443608" data-name="Layer 1" xmlns="http://www.w3.org/2000/svg" xmlns:xlink="http://www.w3.org/1999/xlink" viewBox="0 0 288 432">
  <defs>
    <linearGradient id="b3b0fdf6-59a8-451f-8f73-9b946433404d" x1="34.5857" y1="90.6652" x2="55.7198" y2="90.6652" gradientUnits="userSpaceOnUse">
      <stop offset="0.1" stop-color="#fff"/>
      <stop offset="0.85"/>
    </linearGradient>
    <linearGradient id="b589d0cf-1e90-49a2-9a4a-1d2283e97e6f" x1="43.8106" y1="69.3418" x2="76.7488" y2="102.28" gradientUnits="userSpaceOnUse">
      <stop offset="0" stop-color="#161616"/>
      <stop offset="0.9" stop-color="#fff"/>
    </linearGradient>
    <linearGradient id="a893333a-5ea0-4b59-9337-0be37255d944" x1="30.0857" y1="103.7902" x2="66.025" y2="103.7902" gradientUnits="userSpaceOnUse">
      <stop offset="0.1" stop-color="#fff"/>
      <stop offset="1"/>
    </linearGradient>
    <linearGradient id="ae38c62d-5283-40b5-9b1d-11cbceee74b1" x1="107.7322" y1="90.3315" x2="134.1497" y2="90.3315" xlink:href="#b3b0fdf6-59a8-451f-8f73-9b946433404d"/>
    <linearGradient id="ab2322d4-6491-4fb7-95a1-771acf13ebb8" x1="119.2633" y1="63.6772" x2="160.436" y2="104.85" xlink:href="#b589d0cf-1e90-49a2-9a4a-1d2283e97e6f"/>
    <linearGradient id="e9c3ef7a-167e-4a3e-b6c6-83e15ebdd44c" x1="102.1072" y1="106.7377" x2="147.0312" y2="106.7377" xlink:href="#a893333a-5ea0-4b59-9337-0be37255d944"/>
    <linearGradient id="e766ec6f-99a1-4927-81c0-6a75a303aa24" x1="192.8786" y1="89.9977" x2="224.5797" y2="89.9977" xlink:href="#b3b0fdf6-59a8-451f-8f73-9b946433404d"/>
    <linearGradient id="bbc43d0a-baf2-4f3e-abd1-843d898a375a" x1="206.7159" y1="58.0127" x2="256.1232" y2="107.42" xlink:href="#b589d0cf-1e90-49a2-9a4a-1d2283e97e6f"/>
    <linearGradient id="ac245816-0fdf-4592-9054-fdef1374247f" x1="186.1286" y1="109.6852" x2="240.0374" y2="109.6852" xlink:href="#a893333a-5ea0-4b59-9337-0be37255d944"/>
    <linearGradient id="fded1ab3-e7a5-4bab-a0a1-41d1ecaa2e77" x1="39.1715" y1="281.3303" x2="81.4396" y2="281.3303" xlink:href="#b3b0fdf6-59a8-451f-8f73-9b946433404d"/>
    <linearGradient id="a22688dc-5b80-4390-ad2b-4cce968788b9" x1="57.6212" y1="238.6836" x2="123.4976" y2="304.56" xlink:href="#b589d0cf-1e90-49a2-9a4a-1d2283e97e6f"/>
    <linearGradient id="a7f9a559-7491-4548-b69c-011e6ba566ea" x1="30.1715" y1="307.5803" x2="102.0499" y2="307.5803" xlink:href="#a893333a-5ea0-4b59-9337-0be37255d944"/>
    <linearGradient id="b679bd9d-cdc2-42bf-a71f-e47a6f096013" x1="149.4644" y1="280.6629" x2="202.2995" y2="280.6629" xlink:href="#b3b0fdf6-59a8-451f-8f73-9b946433404d"/>
    <linearGradient id="f14367db-2bef-4044-8acd-cc161653c78d" x1="172.5265" y1="227.3545" x2="254.872" y2="309.6999" xlink:href="#b589d0cf-1e90-49a2-9a4a-1d2283e97e6f"/>
    <linearGradient id="e5658190-f9db-4562-94c4-1f9909c92dad" x1="138.2144" y1="313.4754" x2="228.0624" y2="313.4754" xlink:href="#a893333a-5ea0-4b59-9337-0be37255d944"/>
    <mask id="f5f2c628-e83d-439e-bfa4-c8f24fa5f7ca" x="30" y="68" width="48" height="48" maskUnits="userSpaceOnUse">
      <g>
        <path d="M48.4161,97.58a13.8461,13.8461,0,0,1-13.83-13.83h2.1607a11.672,11.672,0,0,0,17.8308,9.9126l1.1426,1.834A13.8,13.8,0,0,1,48.4161,97.58Z" fill="url(#b3b0fdf6-59a8-451f-8f73-9b946433404d)"/>
        <path d="M66.025,112.0852l-1.1338-1.8384a21.4232,21.4232,0,1,0-22.618-36.39l-1.15-1.8281A23.583,23.583,0,1,1,66.025,112.0852Z" fill="url(#b589d0cf-1e90-49a2-9a4a-1d2283e97e6f)"/>
        <path d="M53.6661,115.58A23.6074,23.6074,0,0,1,30.0857,92h2.1607a21.4247,21.4247,0,0,0,32.6448,18.2468l1.1338,1.8384A23.52,23.52,0,0,1,53.6661,115.58Z" fill="url(#a893333a-5ea0-4b59-9337-0be37255d944)"/>
        <path d="M65.4588,112.2463a1.0781,1.0781,0,0,1-.9177-.5105l-10.31-16.5864a1.08,1.08,0,0,1,.3457-1.4868A11.67,11.67,0,1,0,36.7464,83.75a1.08,1.08,0,0,1-2.1607,0A13.83,13.83,0,1,1,56.6133,94.8909l9.7618,15.7053a1.0806,1.0806,0,0,1-.9163,1.65Z" fill="#fff"/>
        <path d="M38.0841,77.2894A21.3068,21.3068,0,0,0,32.2464,92a1.08,1.08,0,0,1-2.1607,0A23.4771,23.4771,0,0,1,41.1233,72.0291a1.0786,1.0786,0,0,1,1.4891.3391Z" fill="#fff"/>
      </g>
    </mask>
    <linearGradient id="bbc062e7-09ce-4688-b191-9c55bd6b9321" x1="30" y1="116" x2="78" y2="68" gradientUnits="userSpaceOnUse">
      <stop offset="0.1" stop-color="#3ddbd9"/>
      <stop offset="0.9" stop-color="#4589ff"/>
    </linearGradient>
    <mask id="f4e9efa8-dbea-4faa-af26-4aca957204d5" x="102" y="62" width="60" height="60" maskUnits="userSpaceOnUse">
      <g>
        <path d="M125.02,98.9754a17.3076,17.3076,0,0,1-17.2879-17.2879h2.7008a14.59,14.59,0,0,0,22.2885,12.3907l1.4282,2.2925A17.2494,17.2494,0,0,1,125.02,98.9754Z" fill="url(#ae38c62d-5283-40b5-9b1d-11cbceee74b1)"/>
        <path d="M147.0312,117.1065l-1.4172-2.298a26.7789,26.7789,0,1,0-28.2724-45.487l-1.4374-2.2852a29.4787,29.4787,0,1,1,31.127,50.07Z" fill="url(#ab2322d4-6491-4fb7-95a1-771acf13ebb8)"/>
        <path d="M131.5826,121.4754A29.5092,29.5092,0,0,1,102.1072,92h2.7008a26.781,26.781,0,0,0,40.806,22.8085l1.4172,2.298A29.4,29.4,0,0,1,131.5826,121.4754Z" fill="url(#e9c3ef7a-167e-4a3e-b6c6-83e15ebdd44c)"/>
        <path d="M146.3235,117.3079a1.348,1.348,0,0,1-1.1472-.6381l-12.8869-20.733a1.35,1.35,0,0,1,.4321-1.8586A14.5879,14.5879,0,1,0,110.433,81.6875a1.35,1.35,0,0,1-2.7008,0,17.2879,17.2879,0,1,1,27.5345,13.9261l12.2021,19.6316a1.3507,1.3507,0,0,1-1.1453,2.0627Z" fill="#fff"/>
        <path d="M112.1051,73.6117A26.6337,26.6337,0,0,0,104.808,92a1.35,1.35,0,0,1-2.7008,0,29.3465,29.3465,0,0,1,13.797-24.9637,1.3481,1.3481,0,0,1,1.8612.4239Z" fill="#fff"/>
      </g>
    </mask>
    <linearGradient id="a3ebf3d8-99c9-4e02-a62f-0277890fa573" x1="102" y1="122" x2="162" y2="62" xlink:href="#bbc062e7-09ce-4688-b191-9c55bd6b9321"/>
    <mask id="a6e3c251-50be-4540-8dde-2db0d8381107" x="186" y="56" width="72" height="72" maskUnits="userSpaceOnUse">
      <g>
        <path d="M213.6241,100.3705A20.7691,20.7691,0,0,1,192.8786,79.625h3.241a17.5081,17.5081,0,0,0,26.7462,14.8689l1.7139,2.751A20.7,20.7,0,0,1,213.6241,100.3705Z" fill="url(#e766ec6f-99a1-4927-81c0-6a75a303aa24)"/>
        <path d="M240.0374,122.1278l-1.7006-2.7576A32.1347,32.1347,0,1,0,204.41,64.7858l-1.7249-2.7422a35.3745,35.3745,0,1,1,37.3524,60.0842Z" fill="url(#bbc43d0a-baf2-4f3e-abd1-843d898a375a)"/>
        <path d="M221.4991,127.3705A35.4112,35.4112,0,0,1,186.1286,92h3.241a32.1372,32.1372,0,0,0,48.9672,27.37l1.7006,2.7576A35.28,35.28,0,0,1,221.4991,127.3705Z" fill="url(#ac245816-0fdf-4592-9054-fdef1374247f)"/>
        <path d="M239.1882,122.37a1.6176,1.6176,0,0,1-1.3766-.7657l-15.4644-24.88a1.62,1.62,0,0,1,.5186-2.23A17.5055,17.5055,0,1,0,196.12,79.625a1.6205,1.6205,0,0,1-3.241,0A20.7455,20.7455,0,1,1,225.92,96.3363l14.6426,23.558a1.621,1.621,0,0,1-1.3744,2.4752Z" fill="#fff"/>
        <path d="M198.1262,69.934A31.96,31.96,0,0,0,189.37,92a1.6205,1.6205,0,0,1-3.241,0A35.2158,35.2158,0,0,1,202.685,62.0436a1.6178,1.6178,0,0,1,2.2335.5086Z" fill="#fff"/>
      </g>
    </mask>
    <linearGradient id="bb11a866-f236-4a07-b3f9-c4aeeaa57e58" x1="186" y1="128" x2="258" y2="56" xlink:href="#bbc062e7-09ce-4688-b191-9c55bd6b9321"/>
    <mask id="b9f5de30-5d31-4e44-9c86-a9997de9289a" x="30" y="236" width="96" height="96" maskUnits="userSpaceOnUse">
      <g>
        <path d="M66.8321,295.1606A27.6921,27.6921,0,0,1,39.1715,267.5h4.3213a23.3441,23.3441,0,0,0,35.6616,19.8252l2.2852,3.668A27.6,27.6,0,0,1,66.8321,295.1606Z" fill="url(#fded1ab3-e7a5-4bab-a0a1-41d1ecaa2e77)"/>
        <path d="M102.05,324.17l-2.2676-3.6767a42.8464,42.8464,0,1,0-45.2358-72.7793l-2.3-3.6563A47.166,47.166,0,1,1,102.05,324.17Z" fill="url(#a22688dc-5b80-4390-ad2b-4cce968788b9)"/>
        <path d="M77.3321,331.1606A47.2147,47.2147,0,0,1,30.1715,284h4.3213a42.85,42.85,0,0,0,65.29,36.4937L102.05,324.17A47.04,47.04,0,0,1,77.3321,331.1606Z" fill="url(#a7f9a559-7491-4548-b69c-011e6ba566ea)"/>
        <path d="M100.9176,324.4927a2.1566,2.1566,0,0,1-1.8355-1.021L78.463,290.2988a2.16,2.16,0,0,1,.6914-2.9736A23.3407,23.3407,0,1,0,43.4928,267.5a2.1607,2.1607,0,0,1-4.3213,0,27.6607,27.6607,0,1,1,44.0552,22.2817L102.75,321.1924a2.1613,2.1613,0,0,1-1.8325,3.3Z" fill="#fff"/>
        <path d="M46.1682,254.5787A42.6142,42.6142,0,0,0,34.4928,284a2.1607,2.1607,0,0,1-4.3213,0,46.9544,46.9544,0,0,1,22.0752-39.9419,2.1571,2.1571,0,0,1,2.978.6782Z" fill="#fff"/>
      </g>
    </mask>
    <linearGradient id="fbed3640-775a-4977-b754-f2854aca76fb" x1="30" y1="332" x2="126" y2="236" xlink:href="#bbc062e7-09ce-4688-b191-9c55bd6b9321"/>
    <mask id="b9f25109-9142-44e9-964a-06f1bffa287a" x="138" y="224" width="120" height="120" maskUnits="userSpaceOnUse">
      <g>
        <path d="M184.04,297.9508a34.6152,34.6152,0,0,1-34.5758-34.5758h5.4016a29.18,29.18,0,0,0,44.577,24.7815l2.8565,4.585A34.5,34.5,0,0,1,184.04,297.9508Z" fill="url(#b679bd9d-cdc2-42bf-a71f-e47a6f096013)"/>
        <path d="M228.0624,334.213l-2.8345-4.5959a53.558,53.558,0,1,0-56.5448-90.9742l-2.8747-4.57a58.9575,58.9575,0,1,1,62.254,100.14Z" fill="url(#f14367db-2bef-4044-8acd-cc161653c78d)"/>
        <path d="M197.1652,342.9508A59.0184,59.0184,0,0,1,138.2144,284h5.4016a53.562,53.562,0,0,0,81.6119,45.6171l2.8345,4.5959A58.8,58.8,0,0,1,197.1652,342.9508Z" fill="url(#e5658190-f9db-4562-94c4-1f9909c92dad)"/>
        <path d="M226.647,334.6158a2.6954,2.6954,0,0,1-2.2943-1.2762l-25.774-41.4661a2.7006,2.7006,0,0,1,.8643-3.717,29.1759,29.1759,0,1,0-44.577-24.7815,2.7008,2.7008,0,0,1-5.4016,0,34.5758,34.5758,0,1,1,55.0689,27.8522l24.4043,39.2633a2.7016,2.7016,0,0,1-2.2906,4.1253Z" fill="#fff"/>
        <path d="M158.21,247.2234A53.2673,53.2673,0,0,0,143.616,284a2.7008,2.7008,0,0,1-5.4016,0,58.693,58.693,0,0,1,27.594-49.9274,2.6964,2.6964,0,0,1,3.7225.8478Z" fill="#fff"/>
      </g>
    </mask>
    <linearGradient id="b9ccb762-d87f-48f5-aa80-3a2be62d57ad" x1="138" y1="344" x2="258" y2="224" xlink:href="#bbc062e7-09ce-4688-b191-9c55bd6b9321"/>
  </defs>
  <path d="M0,0H288V432H0Z" fill-rule="evenodd"/>
  <g>
    <path d="M42.2893,177.312a3.4591,3.4591,0,0,1-1.365-.2588,2.8593,2.8593,0,0,1-1.0361-.7422,3.25,3.25,0,0,1-.6509-1.1831,5.1262,5.1262,0,0,1-.2241-1.5678,6.3959,6.3959,0,0,1,.322-2.0508,7.7448,7.7448,0,0,1,.833-1.75,8.2583,8.2583,0,0,1,1.127-1.4,7.527,7.527,0,0,1,1.2041-.9868h1.5119q-.7844.5727-1.4,1.1172a8.4835,8.4835,0,0,0-1.0779,1.1381,6.85,6.85,0,0,0-.7839,1.27,7.4328,7.4328,0,0,0-.5181,1.5293l.07.0279a3.2035,3.2035,0,0,1,.9028-1.0015,2.4205,2.4205,0,0,1,1.449-.3994,3.126,3.126,0,0,1,1.1621.21,2.5448,2.5448,0,0,1,.91.6031,2.8341,2.8341,0,0,1,.5952.9541,3.443,3.443,0,0,1,.2168,1.249,3.6027,3.6027,0,0,1-.2309,1.312,2.9318,2.9318,0,0,1-.658,1.0244,2.9947,2.9947,0,0,1-1.0291.6665A3.5868,3.5868,0,0,1,42.2893,177.312Zm-.0142-1.0361a1.8636,1.8636,0,0,0,2.044-2.0576v-.1123a2.0485,2.0485,0,1,0-4.0879,0v.1123a1.8639,1.8639,0,0,0,2.0439,2.0576Z" fill="#c6c6c6"/>
    <path d="M51.7251,177.144v-1.9179h-4.718V174.19l4.0881-6.8178h1.75v6.874H54.259v.98H52.8452v1.9179Zm-3.6121-2.8979h3.6121v-5.9639h-.07Z" fill="#c6c6c6"/>
    <path d="M56.0649,169.92h1.12v1.1626h.0559a2.0315,2.0315,0,0,1,.8191-1.0049,2.46,2.46,0,0,1,1.2949-.3256,2.7446,2.7446,0,0,1,1.218.2661,2.6453,2.6453,0,0,1,.9309.7558,3.4773,3.4773,0,0,1,.5881,1.19,6.1609,6.1609,0,0,1,0,3.1362,3.4669,3.4669,0,0,1-.5881,1.19,2.6445,2.6445,0,0,1-.9309.7559,2.7459,2.7459,0,0,1-1.218.2661,2.1873,2.1873,0,0,1-2.114-1.3306h-.0559v3.9624h-1.12Zm2.9822,6.398a1.9273,1.9273,0,0,0,1.4978-.5977,2.2359,2.2359,0,0,0,.5462-1.5693v-1.2378a2.2357,2.2357,0,0,0-.5462-1.5689,1.9262,1.9262,0,0,0-1.4978-.5981,2.4376,2.4376,0,0,0-.7212.1055,2.018,2.018,0,0,0-.5949.2885,1.3878,1.3878,0,0,0-.399.4429,1.1141,1.1141,0,0,0-.1469.5562v2.7016a1.3027,1.3027,0,0,0,.1469.626,1.4044,1.4044,0,0,0,.399.4644,1.813,1.813,0,0,0,.5949.2885A2.6069,2.6069,0,0,0,59.0471,176.3179Z" fill="#c6c6c6"/>
    <path d="M63.1208,177.144l2.6741-3.64-2.562-3.584h1.3159l1.834,2.688h.042l1.9041-2.688H69.575l-2.5481,3.5,2.604,3.7241h-1.316l-1.8759-2.8281h-.042l-2.03,2.8281Z" fill="#c6c6c6"/>
  </g>
  <g>
    <path d="M120.2751,177.312a4.5186,4.5186,0,0,1-1.47-.2168,3.0873,3.0873,0,0,1-1.0569-.5952,2.443,2.443,0,0,1-.6441-.896,2.8684,2.8684,0,0,1-.217-1.12,2.2526,2.2526,0,0,1,.5459-1.5957,2.9435,2.9435,0,0,1,1.428-.8262V171.95a2.5434,2.5434,0,0,1-1.2249-.8613,2.2923,2.2923,0,0,1-.455-1.4351,2.1879,2.1879,0,0,1,.812-1.7847,4.2478,4.2478,0,0,1,4.5639,0,2.1879,2.1879,0,0,1,.812,1.7847,2.2946,2.2946,0,0,1-.4548,1.4351,2.5449,2.5449,0,0,1-1.2251.8613v.1118a2.9435,2.9435,0,0,1,1.428.8262,2.2526,2.2526,0,0,1,.5459,1.5957,2.8719,2.8719,0,0,1-.2168,1.12,2.4522,2.4522,0,0,1-.6441.896,3.09,3.09,0,0,1-1.0571.5952A4.5188,4.5188,0,0,1,120.2751,177.312Zm0-1.0361a2.4546,2.4546,0,0,0,1.5821-.4531,1.5652,1.5652,0,0,0,.56-1.29v-.2934a1.564,1.564,0,0,0-.56-1.29,2.9857,2.9857,0,0,0-3.1641,0,1.5639,1.5639,0,0,0-.56,1.29v.2934a1.565,1.565,0,0,0,.56,1.29A2.4541,2.4541,0,0,0,120.2751,176.2759Zm0-4.76a2.1656,2.1656,0,0,0,1.4-.39,1.394,1.394,0,0,0,.4758-1.1436v-.209a1.3928,1.3928,0,0,0-.4758-1.143,2.7068,2.7068,0,0,0-2.8,0,1.3923,1.3923,0,0,0-.476,1.143v.209a1.3936,1.3936,0,0,0,.476,1.1436A2.1645,2.1645,0,0,0,120.2751,171.5161Z" fill="#c6c6c6"/>
    <path d="M128.675,177.312a2.7652,2.7652,0,0,1-2.5549-1.33,9.0166,9.0166,0,0,1,0-7.4477,3.1189,3.1189,0,0,1,5.11,0,9.0135,9.0135,0,0,1,0,7.4477A2.7653,2.7653,0,0,1,128.675,177.312Zm0-1.0361a1.91,1.91,0,0,0,.98-.2368,1.815,1.815,0,0,0,.658-.67,3.3143,3.3143,0,0,0,.3711-1.0185,6.5494,6.5494,0,0,0,.1189-1.2974v-1.59a6.5538,6.5538,0,0,0-.1189-1.2974,3.32,3.32,0,0,0-.3711-1.0185,1.8185,1.8185,0,0,0-.658-.67,2.1453,2.1453,0,0,0-1.96,0,1.8185,1.8185,0,0,0-.658.67,3.3253,3.3253,0,0,0-.3711,1.0185,6.5388,6.5388,0,0,0-.1189,1.2974v1.59a6.5344,6.5344,0,0,0,.1189,1.2974,3.32,3.32,0,0,0,.3711,1.0185,1.815,1.815,0,0,0,.658.67A1.909,1.909,0,0,0,128.675,176.2759Z" fill="#c6c6c6"/>
    <path d="M134.0649,169.92h1.12v1.1626h.0559a2.0315,2.0315,0,0,1,.8191-1.0049,2.46,2.46,0,0,1,1.2949-.3256,2.7446,2.7446,0,0,1,1.218.2661,2.6453,2.6453,0,0,1,.9309.7558,3.4773,3.4773,0,0,1,.5881,1.19,6.1609,6.1609,0,0,1,0,3.1362,3.4669,3.4669,0,0,1-.5881,1.19,2.6445,2.6445,0,0,1-.9309.7559,2.7459,2.7459,0,0,1-1.218.2661,2.1873,2.1873,0,0,1-2.114-1.3306h-.0559v3.9624h-1.12Zm2.9822,6.398a1.9273,1.9273,0,0,0,1.4978-.5977,2.2359,2.2359,0,0,0,.5462-1.5693v-1.2378a2.2357,2.2357,0,0,0-.5462-1.5689,1.9262,1.9262,0,0,0-1.4978-.5981,2.4376,2.4376,0,0,0-.7212.1055,2.018,2.018,0,0,0-.5949.2885,1.3878,1.3878,0,0,0-.399.4429,1.1141,1.1141,0,0,0-.1469.5562v2.7016a1.3027,1.3027,0,0,0,.1469.626,1.4044,1.4044,0,0,0,.399.4644,1.813,1.813,0,0,0,.5949.2885A2.6069,2.6069,0,0,0,137.0471,176.3179Z" fill="#c6c6c6"/>
    <path d="M141.1208,177.144l2.6741-3.64-2.562-3.584h1.3159l1.834,2.688h.042l1.9041-2.688h1.2461l-2.5481,3.5,2.604,3.7241h-1.316l-1.8759-2.8281h-.042l-2.03,2.8281Z" fill="#c6c6c6"/>
  </g>
  <g>
    <path d="M213.5371,170.9561a6.4013,6.4013,0,0,1-.322,2.0507,7.7345,7.7345,0,0,1-.833,1.75,8.2484,8.2484,0,0,1-1.127,1.4,7.539,7.539,0,0,1-1.2038.9868h-1.512q.7838-.572,1.4-1.1171a8.4476,8.4476,0,0,0,1.0779-1.1382,6.8679,6.8679,0,0,0,.7842-1.27,7.4508,7.4508,0,0,0,.5178-1.5293l-.07-.0279a3.2166,3.2166,0,0,1-.9031,1.002,2.4209,2.4209,0,0,1-1.449.3989,3.1264,3.1264,0,0,1-1.1621-.21,2.5409,2.5409,0,0,1-.91-.6031,2.843,2.843,0,0,1-.595-.9472,3.421,3.421,0,0,1-.217-1.2559,3.605,3.605,0,0,1,.2309-1.312,2.9251,2.9251,0,0,1,.658-1.0239,2.9976,2.9976,0,0,1,1.0222-.6665,3.5607,3.5607,0,0,1,1.3369-.2388,3.46,3.46,0,0,1,1.365.2588,2.8527,2.8527,0,0,1,1.0359.7422,3.2574,3.2574,0,0,1,.6511,1.1831A5.135,5.135,0,0,1,213.5371,170.9561Zm-3.262,1.5122a1.8642,1.8642,0,0,0,2.044-2.0581v-.1123a2.0485,2.0485,0,1,0-4.0879,0v.1123a1.8646,1.8646,0,0,0,2.0439,2.0581Z" fill="#c6c6c6"/>
    <path d="M218.6892,177.312a3.4591,3.4591,0,0,1-1.365-.2588,2.8593,2.8593,0,0,1-1.0361-.7422,3.25,3.25,0,0,1-.6509-1.1831,5.1262,5.1262,0,0,1-.2241-1.5678,6.3959,6.3959,0,0,1,.322-2.0508,7.7448,7.7448,0,0,1,.833-1.75,8.2583,8.2583,0,0,1,1.127-1.4,7.527,7.527,0,0,1,1.2041-.9868h1.5119q-.7843.5727-1.4,1.1172a8.4835,8.4835,0,0,0-1.0779,1.1381,6.85,6.85,0,0,0-.7839,1.27,7.4328,7.4328,0,0,0-.5181,1.5293l.07.0279a3.2047,3.2047,0,0,1,.9028-1.0015,2.4205,2.4205,0,0,1,1.449-.3994,3.1256,3.1256,0,0,1,1.1621.21,2.5448,2.5448,0,0,1,.91.6031,2.8341,2.8341,0,0,1,.5952.9541,3.443,3.443,0,0,1,.2168,1.249,3.6027,3.6027,0,0,1-.2309,1.312,2.9318,2.9318,0,0,1-.658,1.0244,2.9947,2.9947,0,0,1-1.0291.6665A3.5868,3.5868,0,0,1,218.6892,177.312Zm-.0142-1.0361a1.8636,1.8636,0,0,0,2.044-2.0576v-.1123a2.0485,2.0485,0,1,0-4.0879,0v.1123a1.8639,1.8639,0,0,0,2.0439,2.0576Z" fill="#c6c6c6"/>
    <path d="M224.0649,169.92h1.12v1.1626h.0559a2.0315,2.0315,0,0,1,.8191-1.0049,2.46,2.46,0,0,1,1.2949-.3256,2.7446,2.7446,0,0,1,1.218.2661,2.6453,2.6453,0,0,1,.9309.7558,3.4773,3.4773,0,0,1,.5881,1.19,6.1609,6.1609,0,0,1,0,3.1362,3.4669,3.4669,0,0,1-.5881,1.19,2.6445,2.6445,0,0,1-.9309.7559,2.7459,2.7459,0,0,1-1.218.2661,2.1873,2.1873,0,0,1-2.114-1.3306h-.0559v3.9624h-1.12Zm2.9822,6.398a1.9273,1.9273,0,0,0,1.4978-.5977,2.2359,2.2359,0,0,0,.5462-1.5693v-1.2378a2.2357,2.2357,0,0,0-.5462-1.5689,1.9262,1.9262,0,0,0-1.4978-.5981,2.4376,2.4376,0,0,0-.7212.1055,2.018,2.018,0,0,0-.5949.2885,1.3878,1.3878,0,0,0-.399.4429,1.1141,1.1141,0,0,0-.1469.5562v2.7016a1.3027,1.3027,0,0,0,.1469.626,1.4044,1.4044,0,0,0,.399.4644,1.813,1.813,0,0,0,.5949.2885A2.6069,2.6069,0,0,0,227.0471,176.3179Z" fill="#c6c6c6"/>
    <path d="M231.1208,177.144l2.6741-3.64-2.562-3.584h1.3159l1.834,2.688h.042l1.9041-2.688h1.2461l-2.5481,3.5,2.604,3.7241h-1.316l-1.8759-2.8281h-.042l-2.03,2.8281Z" fill="#c6c6c6"/>
  </g>
  <g>
    <path d="M59.1072,377v-1.0361h2.73v-7.8677h-.0979l-2.4642,2.2959-.6857-.7422,2.59-2.4219h1.834v8.7359h2.52V377Z" fill="#c6c6c6"/>
    <path d="M73.7371,377H67.3252v-1.2041l3.1919-2.94a7.0762,7.0762,0,0,0,1.1479-1.3409,2.59,2.59,0,0,0,.4622-1.4253v-.1684a1.9159,1.9159,0,0,0-.448-1.32,1.7217,1.7217,0,0,0-1.3582-.5054,2.2274,2.2274,0,0,0-.7839.126,1.78,1.78,0,0,0-.581.35,1.9523,1.9523,0,0,0-.4061.5254,3.19,3.19,0,0,0-.2587.6508l-1.05-.4062a4.1356,4.1356,0,0,1,.385-.8467,2.8393,2.8393,0,0,1,1.512-1.2417,4.0177,4.0177,0,0,1,2.5129.0166,2.515,2.515,0,0,1,1.5191,1.4829,3.1192,3.1192,0,0,1,.2028,1.147,3.39,3.39,0,0,1-.1608,1.063,4.1381,4.1381,0,0,1-.441.93,5.658,5.658,0,0,1-.6792.86q-.3987.42-.8608.8394l-2.6321,2.3711h5.138Z" fill="#c6c6c6"/>
    <path d="M78.875,377.168a4.5192,4.5192,0,0,1-1.47-.2168,3.0916,3.0916,0,0,1-1.0569-.5952,2.4415,2.4415,0,0,1-.644-.896,2.8674,2.8674,0,0,1-.217-1.12,2.2523,2.2523,0,0,1,.5459-1.5957,2.9438,2.9438,0,0,1,1.4279-.8261v-.1118a2.5426,2.5426,0,0,1-1.2248-.8614,2.2916,2.2916,0,0,1-.4551-1.435,2.1882,2.1882,0,0,1,.812-1.7847,4.2479,4.2479,0,0,1,4.564,0,2.1882,2.1882,0,0,1,.812,1.7847,2.2951,2.2951,0,0,1-.4548,1.435,2.5449,2.5449,0,0,1-1.2251.8614v.1118a2.9438,2.9438,0,0,1,1.4279.8261,2.2523,2.2523,0,0,1,.5459,1.5957,2.8709,2.8709,0,0,1-.2168,1.12,2.4531,2.4531,0,0,1-.644.896,3.0944,3.0944,0,0,1-1.0571.5952A4.5192,4.5192,0,0,1,78.875,377.168Zm0-1.0362a2.4537,2.4537,0,0,0,1.582-.4531,1.5649,1.5649,0,0,0,.56-1.29v-.2935a1.5639,1.5639,0,0,0-.56-1.2895,2.9855,2.9855,0,0,0-3.164,0,1.5637,1.5637,0,0,0-.56,1.2895v.2935a1.5647,1.5647,0,0,0,.56,1.29A2.4533,2.4533,0,0,0,78.875,376.1318Zm0-4.76a2.1646,2.1646,0,0,0,1.4-.39,1.3936,1.3936,0,0,0,.4759-1.1435v-.209a1.3928,1.3928,0,0,0-.4759-1.1431,2.7072,2.7072,0,0,0-2.8,0,1.3923,1.3923,0,0,0-.4761,1.1431v.209a1.3931,1.3931,0,0,0,.4761,1.1435A2.1636,2.1636,0,0,0,78.875,371.3721Z" fill="#c6c6c6"/>
    <path d="M84.2649,369.7759h1.12v1.1626h.0559a2.0311,2.0311,0,0,1,.8191-1.0049,2.46,2.46,0,0,1,1.2949-.3257,2.7459,2.7459,0,0,1,1.218.2661,2.646,2.646,0,0,1,.931.7559,3.4777,3.4777,0,0,1,.5881,1.19,6.1613,6.1613,0,0,1,0,3.1363,3.47,3.47,0,0,1-.5881,1.19,2.646,2.646,0,0,1-.931.7559,2.7459,2.7459,0,0,1-1.218.2661,2.1876,2.1876,0,0,1-2.114-1.3306H85.385V379.8h-1.12Zm2.9822,6.3979a1.9276,1.9276,0,0,0,1.4978-.5976,2.2361,2.2361,0,0,0,.5461-1.5694V372.769a2.2354,2.2354,0,0,0-.5461-1.5688,1.9262,1.9262,0,0,0-1.4978-.5981,2.44,2.44,0,0,0-.7212.1054,2.0163,2.0163,0,0,0-.595.2886,1.3864,1.3864,0,0,0-.3989.4429,1.1128,1.1128,0,0,0-.147.5561v2.7017a1.3019,1.3019,0,0,0,.147.626,1.4038,1.4038,0,0,0,.3989.4643,1.8117,1.8117,0,0,0,.595.2886A2.61,2.61,0,0,0,87.2471,376.1738Z" fill="#c6c6c6"/>
    <path d="M91.3208,377l2.6741-3.64-2.562-3.584h1.3159l1.834,2.688h.042l1.904-2.688h1.2461l-2.5481,3.5L97.8308,377H96.5149l-1.876-2.8281h-.042L92.5669,377Z" fill="#c6c6c6"/>
  </g>
  <g>
    <path d="M179.1072,377v-1.0361h2.73v-7.8677h-.0979l-2.4642,2.2959-.6857-.7422,2.59-2.4219h1.834v8.7359h2.52V377Z" fill="#c6c6c6"/>
    <path d="M190.4893,377.168a3.46,3.46,0,0,1-1.365-.2588,2.8609,2.8609,0,0,1-1.0362-.7422,3.25,3.25,0,0,1-.6508-1.1831,5.1237,5.1237,0,0,1-.2242-1.5679,6.3941,6.3941,0,0,1,.3221-2.0508,7.7446,7.7446,0,0,1,.833-1.75,8.2609,8.2609,0,0,1,1.1269-1.4,7.5423,7.5423,0,0,1,1.2041-.9868h1.512q-.7845.5728-1.4,1.1172a8.4956,8.4956,0,0,0-1.0778,1.1382,6.8423,6.8423,0,0,0-.784,1.27,7.4368,7.4368,0,0,0-.518,1.5293l.07.0278a3.2058,3.2058,0,0,1,.9029-1.0014,2.42,2.42,0,0,1,1.4489-.3994,3.1252,3.1252,0,0,1,1.1621.21,2.5424,2.5424,0,0,1,.91.603,2.8359,2.8359,0,0,1,.5953.9541,3.4436,3.4436,0,0,1,.2168,1.2491,3.6014,3.6014,0,0,1-.231,1.312,2.9322,2.9322,0,0,1-.658,1.0244,2.9981,2.9981,0,0,1-1.029.6665A3.5872,3.5872,0,0,1,190.4893,377.168Zm-.0142-1.0362a1.8634,1.8634,0,0,0,2.0439-2.0576v-.1123a2.0484,2.0484,0,1,0-4.0878,0v.1123a1.8637,1.8637,0,0,0,2.0439,2.0576Z" fill="#c6c6c6"/>
    <path d="M198.875,377.168a2.7654,2.7654,0,0,1-2.5549-1.33,9.0158,9.0158,0,0,1,0-7.4478,3.119,3.119,0,0,1,5.11,0,9.0138,9.0138,0,0,1,0,7.4478A2.7654,2.7654,0,0,1,198.875,377.168Zm0-1.0362a1.9106,1.9106,0,0,0,.98-.2368,1.8145,1.8145,0,0,0,.6579-.67,3.31,3.31,0,0,0,.3711-1.0186,6.5484,6.5484,0,0,0,.1189-1.2973v-1.59a6.552,6.552,0,0,0-.1189-1.2973,3.3156,3.3156,0,0,0-.3711-1.0186,1.8182,1.8182,0,0,0-.6579-.67,2.1463,2.1463,0,0,0-1.96,0,1.8182,1.8182,0,0,0-.6579.67,3.3234,3.3234,0,0,0-.3711,1.0186,6.53,6.53,0,0,0-.1189,1.2973v1.59a6.5259,6.5259,0,0,0,.1189,1.2973,3.3176,3.3176,0,0,0,.3711,1.0186,1.8145,1.8145,0,0,0,.6579.67A1.9094,1.9094,0,0,0,198.875,376.1318Z" fill="#c6c6c6"/>
    <path d="M204.2649,369.7759h1.12v1.1626h.0559a2.0311,2.0311,0,0,1,.8191-1.0049,2.46,2.46,0,0,1,1.2949-.3257,2.7459,2.7459,0,0,1,1.218.2661,2.646,2.646,0,0,1,.931.7559,3.4777,3.4777,0,0,1,.5881,1.19,6.1613,6.1613,0,0,1,0,3.1363,3.47,3.47,0,0,1-.5881,1.19,2.646,2.646,0,0,1-.931.7559,2.7459,2.7459,0,0,1-1.218.2661,2.1876,2.1876,0,0,1-2.114-1.3306h-.0559V379.8h-1.12Zm2.9822,6.3979a1.9276,1.9276,0,0,0,1.4978-.5976,2.2361,2.2361,0,0,0,.5461-1.5694V372.769a2.2354,2.2354,0,0,0-.5461-1.5688,1.9262,1.9262,0,0,0-1.4978-.5981,2.44,2.44,0,0,0-.7212.1054,2.0163,2.0163,0,0,0-.595.2886,1.3864,1.3864,0,0,0-.3989.4429,1.1128,1.1128,0,0,0-.147.5561v2.7017a1.3019,1.3019,0,0,0,.147.626,1.4038,1.4038,0,0,0,.3989.4643,1.8117,1.8117,0,0,0,.595.2886A2.61,2.61,0,0,0,207.2471,376.1738Z" fill="#c6c6c6"/>
    <path d="M211.3208,377l2.6741-3.64-2.562-3.584h1.3159l1.834,2.688h.042l1.904-2.688h1.2461l-2.5481,3.5L217.8308,377h-1.3159l-1.876-2.8281h-.042L212.5669,377Z" fill="#c6c6c6"/>
  </g>
  <g>
    <g mask="url(#f5f2c628-e83d-439e-bfa4-c8f24fa5f7ca)">
      <rect x="30" y="68" width="48" height="48" fill="url(#bbc062e7-09ce-4688-b191-9c55bd6b9321)"/>
    </g>
    <rect x="44.6683" y="79.6037" width="20.9985" height="1.08" fill="#fff"/>
    <rect x="41.6683" y="84.1037" width="19.4985" height="1.08" fill="#fff"/>
    <rect x="44.6683" y="88.6037" width="20.9985" height="1.08" fill="#fff"/>
  </g>
  <g>
    <g mask="url(#f4e9efa8-dbea-4faa-af26-4aca957204d5)">
      <rect x="102" y="62" width="60" height="60" fill="url(#a3ebf3d8-99c9-4e02-a62f-0277890fa573)"/>
    </g>
    <rect x="120.3353" y="76.5046" width="26.2482" height="1.3499" fill="#fff"/>
    <rect x="116.5853" y="82.1296" width="24.3732" height="1.3499" fill="#fff"/>
    <rect x="120.3353" y="87.7546" width="26.2482" height="1.3499" fill="#fff"/>
  </g>
  <g>
    <g mask="url(#a6e3c251-50be-4540-8dde-2db0d8381107)">
      <rect x="186" y="56" width="72" height="72" fill="url(#bb11a866-f236-4a07-b3f9-c4aeeaa57e58)"/>
    </g>
    <rect x="208.0024" y="73.4055" width="31.4978" height="1.6199" fill="#fff"/>
    <rect x="203.5024" y="80.1555" width="29.2478" height="1.6199" fill="#fff"/>
    <rect x="208.0024" y="86.9055" width="31.4978" height="1.6199" fill="#fff"/>
  </g>
  <g>
    <g mask="url(#b9f5de30-5d31-4e44-9c86-a9997de9289a)">
      <rect x="30" y="236" width="96" height="96" fill="url(#fbed3640-775a-4977-b754-f2854aca76fb)"/>
    </g>
    <rect x="59.3365" y="259.2073" width="41.9971" height="2.1599" fill="#fff"/>
    <rect x="53.3365" y="268.2073" width="38.9971" height="2.1599" fill="#fff"/>
    <rect x="59.3365" y="277.2073" width="41.9971" height="2.1599" fill="#fff"/>
  </g>
  <g>
    <g mask="url(#b9f25109-9142-44e9-964a-06f1bffa287a)">
      <rect x="138" y="224" width="120" height="120" fill="url(#b9ccb762-d87f-48f5-aa80-3a2be62d57ad)"/>
    </g>
    <rect x="174.6707" y="253.0092" width="52.4963" height="2.6999" fill="#fff"/>
    <rect x="167.1707" y="264.2592" width="48.7463" height="2.6999" fill="#fff"/>
    <rect x="174.6707" y="275.5092" width="52.4963" height="2.6999" fill="#fff"/>
  </g>
</svg>
