<?xml version="1.0" encoding="UTF-8"?>
<svg width="288px" height="432px" viewBox="0 0 288 432" version="1.1" xmlns="http://www.w3.org/2000/svg" xmlns:xlink="http://www.w3.org/1999/xlink">
    <!-- Generator: Sketch 58 (84663) - https://sketch.com -->
    <title>Artboard Copy 92</title>
    <desc>Created with Sketch.</desc>
    <g id="Artboard-Copy-92" stroke="none" stroke-width="1" fill="none" fill-rule="evenodd">
        <rect id="Rectangle-3-Copy-77" fill="#FFFFFF" x="0" y="0" width="288" height="432"></rect>
        <g id="Group-4-Copy-29" transform="translate(24.000000, 68.000000)">
            <polygon id="Fill-1" fill="#FFFFFF" points="0 48 48 48 48 0 0 0"></polygon>
            <path d="M36.54,28.698 L45.96,28.698 L45.96,19.2795 L36.54,19.2795 L36.54,28.698 Z M40.71,36.75 C40.71,39.7605 38.2605,42.21 35.25,42.21 L29.79,42.21 L29.79,36 C29.79,35.7015 29.5485,35.46 29.25,35.46 L24.5535,35.46 L24.5535,29.721 C27.297,29.451 29.4645,27.276 29.724,24.5295 L35.46,24.5295 L35.46,29.238 C35.46,29.5365 35.7015,29.7795 36,29.7795 L40.71,29.7795 L40.71,36.75 Z M19.29,45.96 L28.71,45.96 L28.71,36.5415 L19.29,36.5415 L19.29,45.96 Z M6.75,45.96 C4.1535,45.96 2.04,43.8465 2.04,41.25 C2.04,38.6535 4.1535,36.54 6.75,36.54 C9.3465,36.54 11.46,38.6535 11.46,41.25 C11.46,43.8465 9.3465,45.96 6.75,45.96 L6.75,45.96 Z M23.9895,19.2795 C26.586,19.2795 28.6995,21.3915 28.6995,23.988 C28.6995,26.586 26.586,28.698 23.9895,28.698 C21.3915,28.698 19.2795,26.586 19.2795,23.988 C19.2795,21.3915 21.3915,19.2795 23.9895,19.2795 L23.9895,19.2795 Z M2.0535,11.472 L11.4735,11.472 L11.4735,2.0535 L2.0535,2.0535 L2.0535,11.472 Z M21.54,2.4345 L28.92,6.696 L21.54,10.9575 L21.54,2.4345 Z M36.54,6.75 C36.54,4.1535 38.6535,2.04 41.25,2.04 C43.8465,2.04 45.96,4.1535 45.96,6.75 C45.96,9.3465 43.8465,11.46 41.25,11.46 C38.6535,11.46 36.54,9.3465 36.54,6.75 L36.54,6.75 Z M46.5,18.198 L41.79,18.198 L41.79,12.486 C44.7255,12.2085 47.04,9.7575 47.04,6.75 C47.04,3.558 44.442,0.96 41.25,0.96 C38.058,0.96 35.46,3.558 35.46,6.75 C35.46,9.7575 37.7745,12.2085 40.71,12.486 L40.71,18.198 L36,18.198 C35.7015,18.198 35.46,18.4395 35.46,18.738 L35.46,23.448 L29.724,23.448 C29.4465,20.5125 26.997,18.198 23.9895,18.198 C20.9775,18.198 18.525,20.5185 18.252,23.46 L12.75,23.46 C9.7395,23.46 7.29,21.0105 7.29,18 L7.29,12.5535 L12.0135,12.5535 C12.312,12.5535 12.5535,12.312 12.5535,12.0135 L12.5535,7.3035 L20.46,7.3035 L20.46,11.892 C20.46,12.0855 20.562,12.2625 20.73,12.3585 C20.8125,12.4065 20.907,12.432 21,12.432 C21.093,12.432 21.1875,12.4065 21.27,12.3585 L30.27,7.1625 C30.438,7.0665 30.54,6.8895 30.54,6.696 C30.54,6.5025 30.438,6.3255 30.27,6.228 L21.27,1.032 C21.1035,0.936 20.8965,0.936 20.73,1.032 C20.562,1.1295 20.46,1.3065 20.46,1.5 L20.46,6.222 L12.5535,6.222 L12.5535,1.5135 C12.5535,1.215 12.312,0.972 12.0135,0.972 L1.5135,0.972 C1.215,0.972 0.9735,1.215 0.9735,1.5135 L0.9735,12.0135 C0.9735,12.312 1.215,12.5535 1.5135,12.5535 L6.21,12.5535 L6.21,18 C6.21,21.606 9.144,24.54 12.75,24.54 L18.255,24.54 C18.3705,25.728 18.837,26.805 19.5615,27.6735 L10.4235,36.813 C9.4215,35.9805 8.1525,35.46 6.75,35.46 C3.558,35.46 0.96,38.058 0.96,41.25 C0.96,44.442 3.558,47.04 6.75,47.04 C9.942,47.04 12.54,44.442 12.54,41.25 C12.54,39.849 12.0195,38.58 11.187,37.5765 L20.328,28.4355 C21.2025,29.157 22.281,29.619 23.4735,29.7255 L23.4735,35.46 L18.75,35.46 C18.4515,35.46 18.21,35.7015 18.21,36 L18.21,46.5 C18.21,46.7985 18.4515,47.04 18.75,47.04 L29.25,47.04 C29.5485,47.04 29.79,46.7985 29.79,46.5 L29.79,43.29 L35.25,43.29 C38.856,43.29 41.79,40.356 41.79,36.75 L41.79,29.7795 L46.5,29.7795 C46.7985,29.7795 47.04,29.5365 47.04,29.238 L47.04,18.738 C47.04,18.4395 46.7985,18.198 46.5,18.198 L46.5,18.198 Z" id="Fill-2" fill="#000000"></path>
        </g>
        <path d="M39.67,177 L39.67,175.356 L40.882,175.356 L40.882,174.516 L39.67,174.516 L39.67,168.624 L38.17,168.624 L34.666,174.468 L34.666,175.356 L38.71,175.356 L38.71,177 L39.67,177 Z M38.65,169.404 L38.71,169.404 L38.71,174.516 L35.614,174.516 L38.65,169.404 Z M45.33,177.144 C47.238,177.144 48.234,176.1 48.234,174.72 C48.234,173.58 47.55,172.92 46.542,172.644 L46.542,172.548 C47.418,172.248 47.982,171.54 47.982,170.58 C47.982,169.308 46.998,168.48 45.33,168.48 C43.662,168.48 42.678,169.308 42.678,170.58 C42.678,171.54 43.242,172.248 44.118,172.548 L44.118,172.644 C43.11,172.92 42.426,173.58 42.426,174.72 C42.426,176.1 43.422,177.144 45.33,177.144 Z M45.33,176.268 C44.166,176.268 43.494,175.716 43.494,174.768 L43.494,174.516 C43.494,173.568 44.166,173.016 45.33,173.016 C46.494,173.016 47.166,173.568 47.166,174.516 L47.166,174.768 C47.166,175.716 46.494,176.268 45.33,176.268 Z M45.33,172.176 C44.286,172.176 43.722,171.708 43.722,170.856 L43.722,170.676 C43.722,169.824 44.286,169.356 45.33,169.356 C46.374,169.356 46.938,169.824 46.938,170.676 L46.938,170.856 C46.938,171.708 46.374,172.176 45.33,172.176 Z M50.27,179.4 L51.23,179.4 L51.23,175.992 L51.278,175.992 C51.65,176.76 52.238,177.144 53.09,177.144 C54.638,177.144 55.61,175.884 55.61,173.904 C55.61,171.924 54.638,170.664 53.09,170.664 C52.238,170.664 51.602,171.036 51.278,171.816 L51.23,171.816 L51.23,170.808 L50.27,170.808 L50.27,179.4 Z M52.826,176.28 C51.95,176.28 51.23,175.824 51.23,175.02 L51.23,172.716 C51.23,172.032 51.95,171.528 52.826,171.528 C53.906,171.528 54.578,172.272 54.578,173.376 L54.578,174.432 C54.578,175.536 53.906,176.28 52.826,176.28 Z M56.638,177 L58.93,173.88 L56.734,170.808 L57.862,170.808 L59.434,173.112 L59.47,173.112 L61.102,170.808 L62.17,170.808 L59.986,173.808 L62.218,177 L61.09,177 L59.482,174.576 L59.446,174.576 L57.706,177 L56.638,177 Z" id="48px" fill="#6F6F6F" fill-rule="nonzero"></path>
        <g id="Group-4-Copy-33" transform="translate(96.000000, 60.000000)">
            <polygon id="Fill-1" fill="#FFFFFF" points="0 64 64 64 64 0 0 0"></polygon>
            <path d="M48.72,38.264 L61.28,38.264 L61.28,25.706 L48.72,25.706 L48.72,38.264 Z M54.28,49 C54.28,53.014 51.014,56.28 47,56.28 L39.72,56.28 L39.72,48 C39.72,47.602 39.398,47.28 39,47.28 L32.738,47.28 L32.738,39.628 C36.396,39.268 39.286,36.368 39.632,32.706 L47.28,32.706 L47.28,38.984 C47.28,39.382 47.602,39.706 48,39.706 L54.28,39.706 L54.28,49 Z M25.72,61.28 L38.28,61.28 L38.28,48.722 L25.72,48.722 L25.72,61.28 Z M9,61.28 C5.538,61.28 2.72,58.462 2.72,55 C2.72,51.538 5.538,48.72 9,48.72 C12.462,48.72 15.28,51.538 15.28,55 C15.28,58.462 12.462,61.28 9,61.28 L9,61.28 Z M31.986,25.706 C35.448,25.706 38.266,28.522 38.266,31.984 C38.266,35.448 35.448,38.264 31.986,38.264 C28.522,38.264 25.706,35.448 25.706,31.984 C25.706,28.522 28.522,25.706 31.986,25.706 L31.986,25.706 Z M2.738,15.296 L15.298,15.296 L15.298,2.738 L2.738,2.738 L2.738,15.296 Z M28.72,3.246 L38.56,8.928 L28.72,14.61 L28.72,3.246 Z M48.72,9 C48.72,5.538 51.538,2.72 55,2.72 C58.462,2.72 61.28,5.538 61.28,9 C61.28,12.462 58.462,15.28 55,15.28 C51.538,15.28 48.72,12.462 48.72,9 L48.72,9 Z M62,24.264 L55.72,24.264 L55.72,16.648 C59.634,16.278 62.72,13.01 62.72,9 C62.72,4.744 59.256,1.28 55,1.28 C50.744,1.28 47.28,4.744 47.28,9 C47.28,13.01 50.366,16.278 54.28,16.648 L54.28,24.264 L48,24.264 C47.602,24.264 47.28,24.586 47.28,24.984 L47.28,31.264 L39.632,31.264 C39.262,27.35 35.996,24.264 31.986,24.264 C27.97,24.264 24.7,27.358 24.336,31.28 L17,31.28 C12.986,31.28 9.72,28.014 9.72,24 L9.72,16.738 L16.018,16.738 C16.416,16.738 16.738,16.416 16.738,16.018 L16.738,9.738 L27.28,9.738 L27.28,15.856 C27.28,16.114 27.416,16.35 27.64,16.478 C27.75,16.542 27.876,16.576 28,16.576 C28.124,16.576 28.25,16.542 28.36,16.478 L40.36,9.55 C40.584,9.422 40.72,9.186 40.72,8.928 C40.72,8.67 40.584,8.434 40.36,8.304 L28.36,1.376 C28.138,1.248 27.862,1.248 27.64,1.376 C27.416,1.506 27.28,1.742 27.28,2 L27.28,8.296 L16.738,8.296 L16.738,2.018 C16.738,1.62 16.416,1.296 16.018,1.296 L2.018,1.296 C1.62,1.296 1.298,1.62 1.298,2.018 L1.298,16.018 C1.298,16.416 1.62,16.738 2.018,16.738 L8.28,16.738 L8.28,24 C8.28,28.808 12.192,32.72 17,32.72 L24.34,32.72 C24.494,34.304 25.116,35.74 26.082,36.898 L13.898,49.084 C12.562,47.974 10.87,47.28 9,47.28 C4.744,47.28 1.28,50.744 1.28,55 C1.28,59.256 4.744,62.72 9,62.72 C13.256,62.72 16.72,59.256 16.72,55 C16.72,53.132 16.026,51.44 14.916,50.102 L27.104,37.914 C28.27,38.876 29.708,39.492 31.298,39.634 L31.298,47.28 L25,47.28 C24.602,47.28 24.28,47.602 24.28,48 L24.28,62 C24.28,62.398 24.602,62.72 25,62.72 L39,62.72 C39.398,62.72 39.72,62.398 39.72,62 L39.72,57.72 L47,57.72 C51.808,57.72 55.72,53.808 55.72,49 L55.72,39.706 L62,39.706 C62.398,39.706 62.72,39.382 62.72,38.984 L62.72,24.984 C62.72,24.586 62.398,24.264 62,24.264 L62,24.264 Z" id="Fill-2" fill="#000000"></path>
        </g>
        <path d="M117.822,177.144 C119.502,177.144 120.606,176.016 120.606,174.372 C120.606,172.788 119.574,171.792 118.134,171.792 C117.114,171.792 116.514,172.308 116.118,172.992 L116.058,172.968 C116.514,171.024 117.51,169.932 119.298,168.624 L118.002,168.624 C116.658,169.5 115.014,171.444 115.014,173.928 C115.014,175.92 116.082,177.144 117.822,177.144 Z M117.81,176.268 C116.706,176.268 116.058,175.632 116.058,174.504 L116.058,174.408 C116.058,173.28 116.706,172.644 117.81,172.644 C118.914,172.644 119.562,173.28 119.562,174.408 L119.562,174.504 C119.562,175.632 118.914,176.268 117.81,176.268 Z M127.19,177 L127.19,175.356 L128.402,175.356 L128.402,174.516 L127.19,174.516 L127.19,168.624 L125.69,168.624 L122.186,174.468 L122.186,175.356 L126.23,175.356 L126.23,177 L127.19,177 Z M126.17,169.404 L126.23,169.404 L126.23,174.516 L123.134,174.516 L126.17,169.404 Z M130.27,179.4 L131.23,179.4 L131.23,175.992 L131.278,175.992 C131.65,176.76 132.238,177.144 133.09,177.144 C134.638,177.144 135.61,175.884 135.61,173.904 C135.61,171.924 134.638,170.664 133.09,170.664 C132.238,170.664 131.602,171.036 131.278,171.816 L131.23,171.816 L131.23,170.808 L130.27,170.808 L130.27,179.4 Z M132.826,176.28 C131.95,176.28 131.23,175.824 131.23,175.02 L131.23,172.716 C131.23,172.032 131.95,171.528 132.826,171.528 C133.906,171.528 134.578,172.272 134.578,173.376 L134.578,174.432 C134.578,175.536 133.906,176.28 132.826,176.28 Z M136.638,177 L138.93,173.88 L136.734,170.808 L137.862,170.808 L139.434,173.112 L139.47,173.112 L141.102,170.808 L142.17,170.808 L139.986,173.808 L142.218,177 L141.09,177 L139.482,174.576 L139.446,174.576 L137.706,177 L136.638,177 Z" id="64px" fill="#6F6F6F" fill-rule="nonzero"></path>
        <g id="Group-4-Copy-34" transform="translate(184.000000, 52.000000)">
            <polygon id="Fill-1" fill="#FFFFFF" points="0 80 80 80 80 0 0 0"></polygon>
            <path d="M60.9,47.83 L76.6,47.83 L76.6,32.1325 L60.9,32.1325 L60.9,47.83 Z M67.85,61.25 C67.85,66.2675 63.7675,70.35 58.75,70.35 L49.65,70.35 L49.65,60 C49.65,59.5025 49.2475,59.1 48.75,59.1 L40.9225,59.1 L40.9225,49.535 C45.495,49.085 49.1075,45.46 49.54,40.8825 L59.1,40.8825 L59.1,48.73 C59.1,49.2275 59.5025,49.6325 60,49.6325 L67.85,49.6325 L67.85,61.25 Z M32.15,76.6 L47.85,76.6 L47.85,60.9025 L32.15,60.9025 L32.15,76.6 Z M11.25,76.6 C6.9225,76.6 3.4,73.0775 3.4,68.75 C3.4,64.4225 6.9225,60.9 11.25,60.9 C15.5775,60.9 19.1,64.4225 19.1,68.75 C19.1,73.0775 15.5775,76.6 11.25,76.6 L11.25,76.6 Z M39.9825,32.1325 C44.31,32.1325 47.8325,35.6525 47.8325,39.98 C47.8325,44.31 44.31,47.83 39.9825,47.83 C35.6525,47.83 32.1325,44.31 32.1325,39.98 C32.1325,35.6525 35.6525,32.1325 39.9825,32.1325 L39.9825,32.1325 Z M3.4225,19.12 L19.1225,19.12 L19.1225,3.4225 L3.4225,3.4225 L3.4225,19.12 Z M35.9,4.0575 L48.2,11.16 L35.9,18.2625 L35.9,4.0575 Z M60.9,11.25 C60.9,6.9225 64.4225,3.4 68.75,3.4 C73.0775,3.4 76.6,6.9225 76.6,11.25 C76.6,15.5775 73.0775,19.1 68.75,19.1 C64.4225,19.1 60.9,15.5775 60.9,11.25 L60.9,11.25 Z M77.5,30.33 L69.65,30.33 L69.65,20.81 C74.5425,20.3475 78.4,16.2625 78.4,11.25 C78.4,5.93 74.07,1.6 68.75,1.6 C63.43,1.6 59.1,5.93 59.1,11.25 C59.1,16.2625 62.9575,20.3475 67.85,20.81 L67.85,30.33 L60,30.33 C59.5025,30.33 59.1,30.7325 59.1,31.23 L59.1,39.08 L49.54,39.08 C49.0775,34.1875 44.995,30.33 39.9825,30.33 C34.9625,30.33 30.875,34.1975 30.42,39.1 L21.25,39.1 C16.2325,39.1 12.15,35.0175 12.15,30 L12.15,20.9225 L20.0225,20.9225 C20.52,20.9225 20.9225,20.52 20.9225,20.0225 L20.9225,12.1725 L34.1,12.1725 L34.1,19.82 C34.1,20.1425 34.27,20.4375 34.55,20.5975 C34.6875,20.6775 34.845,20.72 35,20.72 C35.155,20.72 35.3125,20.6775 35.45,20.5975 L50.45,11.9375 C50.73,11.7775 50.9,11.4825 50.9,11.16 C50.9,10.8375 50.73,10.5425 50.45,10.38 L35.45,1.72 C35.1725,1.56 34.8275,1.56 34.55,1.72 C34.27,1.8825 34.1,2.1775 34.1,2.5 L34.1,10.37 L20.9225,10.37 L20.9225,2.5225 C20.9225,2.025 20.52,1.62 20.0225,1.62 L2.5225,1.62 C2.025,1.62 1.6225,2.025 1.6225,2.5225 L1.6225,20.0225 C1.6225,20.52 2.025,20.9225 2.5225,20.9225 L10.35,20.9225 L10.35,30 C10.35,36.01 15.24,40.9 21.25,40.9 L30.425,40.9 C30.6175,42.88 31.395,44.675 32.6025,46.1225 L17.3725,61.355 C15.7025,59.9675 13.5875,59.1 11.25,59.1 C5.93,59.1 1.6,63.43 1.6,68.75 C1.6,74.07 5.93,78.4 11.25,78.4 C16.57,78.4 20.9,74.07 20.9,68.75 C20.9,66.415 20.0325,64.3 18.645,62.6275 L33.88,47.3925 C35.3375,48.595 37.135,49.365 39.1225,49.5425 L39.1225,59.1 L31.25,59.1 C30.7525,59.1 30.35,59.5025 30.35,60 L30.35,77.5 C30.35,77.9975 30.7525,78.4 31.25,78.4 L48.75,78.4 C49.2475,78.4 49.65,77.9975 49.65,77.5 L49.65,72.15 L58.75,72.15 C64.76,72.15 69.65,67.26 69.65,61.25 L69.65,49.6325 L77.5,49.6325 C77.9975,49.6325 78.4,49.2275 78.4,48.73 L78.4,31.23 C78.4,30.7325 77.9975,30.33 77.5,30.33 L77.5,30.33 Z" id="Fill-2" fill="#000000"></path>
        </g>
        <path d="M213.81,177.144 C215.718,177.144 216.714,176.1 216.714,174.72 C216.714,173.58 216.03,172.92 215.022,172.644 L215.022,172.548 C215.898,172.248 216.462,171.54 216.462,170.58 C216.462,169.308 215.478,168.48 213.81,168.48 C212.142,168.48 211.158,169.308 211.158,170.58 C211.158,171.54 211.722,172.248 212.598,172.548 L212.598,172.644 C211.59,172.92 210.906,173.58 210.906,174.72 C210.906,176.1 211.902,177.144 213.81,177.144 Z M213.81,176.268 C212.646,176.268 211.974,175.716 211.974,174.768 L211.974,174.516 C211.974,173.568 212.646,173.016 213.81,173.016 C214.974,173.016 215.646,173.568 215.646,174.516 L215.646,174.768 C215.646,175.716 214.974,176.268 213.81,176.268 Z M213.81,172.176 C212.766,172.176 212.202,171.708 212.202,170.856 L212.202,170.676 C212.202,169.824 212.766,169.356 213.81,169.356 C214.854,169.356 215.418,169.824 215.418,170.676 L215.418,170.856 C215.418,171.708 214.854,172.176 213.81,172.176 Z M221.33,177.144 C223.334,177.144 224.21,175.548 224.21,172.812 C224.21,170.076 223.334,168.48 221.33,168.48 C219.326,168.48 218.45,170.076 218.45,172.812 C218.45,175.548 219.326,177.144 221.33,177.144 Z M221.33,176.268 C220.022,176.268 219.506,175.116 219.506,173.496 L219.506,172.128 C219.506,170.508 220.022,169.356 221.33,169.356 C222.638,169.356 223.154,170.508 223.154,172.128 L223.154,173.496 C223.154,175.116 222.638,176.268 221.33,176.268 Z M226.27,179.4 L227.23,179.4 L227.23,175.992 L227.278,175.992 C227.65,176.76 228.238,177.144 229.09,177.144 C230.638,177.144 231.61,175.884 231.61,173.904 C231.61,171.924 230.638,170.664 229.09,170.664 C228.238,170.664 227.602,171.036 227.278,171.816 L227.23,171.816 L227.23,170.808 L226.27,170.808 L226.27,179.4 Z M228.826,176.28 C227.95,176.28 227.23,175.824 227.23,175.02 L227.23,172.716 C227.23,172.032 227.95,171.528 228.826,171.528 C229.906,171.528 230.578,172.272 230.578,173.376 L230.578,174.432 C230.578,175.536 229.906,176.28 228.826,176.28 Z M232.638,177 L234.93,173.88 L232.734,170.808 L233.862,170.808 L235.434,173.112 L235.47,173.112 L237.102,170.808 L238.17,170.808 L235.986,173.808 L238.218,177 L237.09,177 L235.482,174.576 L235.446,174.576 L233.706,177 L232.638,177 Z" id="80px" fill="#6F6F6F" fill-rule="nonzero"></path>
        <g id="Group-4-Copy-35" transform="translate(24.000000, 236.000000)">
            <polygon id="Fill-1" fill="#FFFFFF" points="0 96 96 96 96 0 0 0"></polygon>
            <path d="M73.08,57.396 L91.92,57.396 L91.92,38.559 L73.08,38.559 L73.08,57.396 Z M81.42,73.5 C81.42,79.521 76.521,84.42 70.5,84.42 L59.58,84.42 L59.58,72 C59.58,71.403 59.097,70.92 58.5,70.92 L49.107,70.92 L49.107,59.442 C54.594,58.902 58.929,54.552 59.448,49.059 L70.92,49.059 L70.92,58.476 C70.92,59.073 71.403,59.559 72,59.559 L81.42,59.559 L81.42,73.5 Z M38.58,91.92 L57.42,91.92 L57.42,73.083 L38.58,73.083 L38.58,91.92 Z M13.5,91.92 C8.307,91.92 4.08,87.693 4.08,82.5 C4.08,77.307 8.307,73.08 13.5,73.08 C18.693,73.08 22.92,77.307 22.92,82.5 C22.92,87.693 18.693,91.92 13.5,91.92 L13.5,91.92 Z M47.979,38.559 C53.172,38.559 57.399,42.783 57.399,47.976 C57.399,53.172 53.172,57.396 47.979,57.396 C42.783,57.396 38.559,53.172 38.559,47.976 C38.559,42.783 42.783,38.559 47.979,38.559 L47.979,38.559 Z M4.107,22.944 L22.947,22.944 L22.947,4.107 L4.107,4.107 L4.107,22.944 Z M43.08,4.869 L57.84,13.392 L43.08,21.915 L43.08,4.869 Z M73.08,13.5 C73.08,8.307 77.307,4.08 82.5,4.08 C87.693,4.08 91.92,8.307 91.92,13.5 C91.92,18.693 87.693,22.92 82.5,22.92 C77.307,22.92 73.08,18.693 73.08,13.5 L73.08,13.5 Z M93,36.396 L83.58,36.396 L83.58,24.972 C89.451,24.417 94.08,19.515 94.08,13.5 C94.08,7.116 88.884,1.92 82.5,1.92 C76.116,1.92 70.92,7.116 70.92,13.5 C70.92,19.515 75.549,24.417 81.42,24.972 L81.42,36.396 L72,36.396 C71.403,36.396 70.92,36.879 70.92,37.476 L70.92,46.896 L59.448,46.896 C58.893,41.025 53.994,36.396 47.979,36.396 C41.955,36.396 37.05,41.037 36.504,46.92 L25.5,46.92 C19.479,46.92 14.58,42.021 14.58,36 L14.58,25.107 L24.027,25.107 C24.624,25.107 25.107,24.624 25.107,24.027 L25.107,14.607 L40.92,14.607 L40.92,23.784 C40.92,24.171 41.124,24.525 41.46,24.717 C41.625,24.813 41.814,24.864 42,24.864 C42.186,24.864 42.375,24.813 42.54,24.717 L60.54,14.325 C60.876,14.133 61.08,13.779 61.08,13.392 C61.08,13.005 60.876,12.651 60.54,12.456 L42.54,2.064 C42.207,1.872 41.793,1.872 41.46,2.064 C41.124,2.259 40.92,2.613 40.92,3 L40.92,12.444 L25.107,12.444 L25.107,3.027 C25.107,2.43 24.624,1.944 24.027,1.944 L3.027,1.944 C2.43,1.944 1.947,2.43 1.947,3.027 L1.947,24.027 C1.947,24.624 2.43,25.107 3.027,25.107 L12.42,25.107 L12.42,36 C12.42,43.212 18.288,49.08 25.5,49.08 L36.51,49.08 C36.741,51.456 37.674,53.61 39.123,55.347 L20.847,73.626 C18.843,71.961 16.305,70.92 13.5,70.92 C7.116,70.92 1.92,76.116 1.92,82.5 C1.92,88.884 7.116,94.08 13.5,94.08 C19.884,94.08 25.08,88.884 25.08,82.5 C25.08,79.698 24.039,77.16 22.374,75.153 L40.656,56.871 C42.405,58.314 44.562,59.238 46.947,59.451 L46.947,70.92 L37.5,70.92 C36.903,70.92 36.42,71.403 36.42,72 L36.42,93 C36.42,93.597 36.903,94.08 37.5,94.08 L58.5,94.08 C59.097,94.08 59.58,93.597 59.58,93 L59.58,86.58 L70.5,86.58 C77.712,86.58 83.58,80.712 83.58,73.5 L83.58,59.559 L93,59.559 C93.597,59.559 94.08,59.073 94.08,58.476 L94.08,37.476 C94.08,36.879 93.597,36.396 93,36.396 L93,36.396 Z" id="Fill-2" fill="#000000"></path>
        </g>
        <path d="M64.606,371.696 C64.606,369.704 63.538,368.48 61.798,368.48 C60.118,368.48 59.014,369.608 59.014,371.252 C59.014,372.836 60.046,373.832 61.486,373.832 C62.506,373.832 63.106,373.316 63.502,372.632 L63.562,372.656 C63.106,374.6 62.11,375.692 60.322,377 L61.618,377 C62.962,376.124 64.606,374.18 64.606,371.696 Z M61.81,372.98 C60.706,372.98 60.058,372.344 60.058,371.216 L60.058,371.12 C60.058,369.992 60.706,369.356 61.81,369.356 C62.914,369.356 63.562,369.992 63.562,371.12 L63.562,371.216 C63.562,372.344 62.914,372.98 61.81,372.98 Z M69.342,377.144 C71.022,377.144 72.126,376.016 72.126,374.372 C72.126,372.788 71.094,371.792 69.654,371.792 C68.634,371.792 68.034,372.308 67.638,372.992 L67.578,372.968 C68.034,371.024 69.03,369.932 70.818,368.624 L69.522,368.624 C68.178,369.5 66.534,371.444 66.534,373.928 C66.534,375.92 67.602,377.144 69.342,377.144 Z M69.33,376.268 C68.226,376.268 67.578,375.632 67.578,374.504 L67.578,374.408 C67.578,373.28 68.226,372.644 69.33,372.644 C70.434,372.644 71.082,373.28 71.082,374.408 L71.082,374.504 C71.082,375.632 70.434,376.268 69.33,376.268 Z M74.27,379.4 L75.23,379.4 L75.23,375.992 L75.278,375.992 C75.65,376.76 76.238,377.144 77.09,377.144 C78.638,377.144 79.61,375.884 79.61,373.904 C79.61,371.924 78.638,370.664 77.09,370.664 C76.238,370.664 75.602,371.036 75.278,371.816 L75.23,371.816 L75.23,370.808 L74.27,370.808 L74.27,379.4 Z M76.826,376.28 C75.95,376.28 75.23,375.824 75.23,375.02 L75.23,372.716 C75.23,372.032 75.95,371.528 76.826,371.528 C77.906,371.528 78.578,372.272 78.578,373.376 L78.578,374.432 C78.578,375.536 77.906,376.28 76.826,376.28 Z M80.638,377 L82.93,373.88 L80.734,370.808 L81.862,370.808 L83.434,373.112 L83.47,373.112 L85.102,370.808 L86.17,370.808 L83.986,373.808 L86.218,377 L85.09,377 L83.482,374.576 L83.446,374.576 L81.706,377 L80.638,377 Z" id="96px-copy" fill="#6F6F6F" fill-rule="nonzero"></path>
        <g id="Group-4-Copy-36" transform="translate(152.000000, 228.000000)">
            <polygon id="Fill-1" fill="#FFFFFF" points="0 112 112 112 112 0 0 0"></polygon>
            <path d="M85.26,66.962 L107.24,66.962 L107.24,44.9855 L85.26,44.9855 L85.26,66.962 Z M94.99,85.75 C94.99,92.7745 89.2745,98.49 82.25,98.49 L69.51,98.49 L69.51,84 C69.51,83.3035 68.9465,82.74 68.25,82.74 L57.2915,82.74 L57.2915,69.349 C63.693,68.719 68.7505,63.644 69.356,57.2355 L82.74,57.2355 L82.74,68.222 C82.74,68.9185 83.3035,69.4855 84,69.4855 L94.99,69.4855 L94.99,85.75 Z M45.01,107.24 L66.99,107.24 L66.99,85.2635 L45.01,85.2635 L45.01,107.24 Z M15.75,107.24 C9.6915,107.24 4.76,102.3085 4.76,96.25 C4.76,90.1915 9.6915,85.26 15.75,85.26 C21.8085,85.26 26.74,90.1915 26.74,96.25 C26.74,102.3085 21.8085,107.24 15.75,107.24 L15.75,107.24 Z M55.9755,44.9855 C62.034,44.9855 66.9655,49.9135 66.9655,55.972 C66.9655,62.034 62.034,66.962 55.9755,66.962 C49.9135,66.962 44.9855,62.034 44.9855,55.972 C44.9855,49.9135 49.9135,44.9855 55.9755,44.9855 L55.9755,44.9855 Z M4.7915,26.768 L26.7715,26.768 L26.7715,4.7915 L4.7915,4.7915 L4.7915,26.768 Z M50.26,5.6805 L67.48,15.624 L50.26,25.5675 L50.26,5.6805 Z M85.26,15.75 C85.26,9.6915 90.1915,4.76 96.25,4.76 C102.3085,4.76 107.24,9.6915 107.24,15.75 C107.24,21.8085 102.3085,26.74 96.25,26.74 C90.1915,26.74 85.26,21.8085 85.26,15.75 L85.26,15.75 Z M108.5,42.462 L97.51,42.462 L97.51,29.134 C104.3595,28.4865 109.76,22.7675 109.76,15.75 C109.76,8.302 103.698,2.24 96.25,2.24 C88.802,2.24 82.74,8.302 82.74,15.75 C82.74,22.7675 88.1405,28.4865 94.99,29.134 L94.99,42.462 L84,42.462 C83.3035,42.462 82.74,43.0255 82.74,43.722 L82.74,54.712 L69.356,54.712 C68.7085,47.8625 62.993,42.462 55.9755,42.462 C48.9475,42.462 43.225,47.8765 42.588,54.74 L29.75,54.74 C22.7255,54.74 17.01,49.0245 17.01,42 L17.01,29.2915 L28.0315,29.2915 C28.728,29.2915 29.2915,28.728 29.2915,28.0315 L29.2915,17.0415 L47.74,17.0415 L47.74,27.748 C47.74,28.1995 47.978,28.6125 48.37,28.8365 C48.5625,28.9485 48.783,29.008 49,29.008 C49.217,29.008 49.4375,28.9485 49.63,28.8365 L70.63,16.7125 C71.022,16.4885 71.26,16.0755 71.26,15.624 C71.26,15.1725 71.022,14.7595 70.63,14.532 L49.63,2.408 C49.2415,2.184 48.7585,2.184 48.37,2.408 C47.978,2.6355 47.74,3.0485 47.74,3.5 L47.74,14.518 L29.2915,14.518 L29.2915,3.5315 C29.2915,2.835 28.728,2.268 28.0315,2.268 L3.5315,2.268 C2.835,2.268 2.2715,2.835 2.2715,3.5315 L2.2715,28.0315 C2.2715,28.728 2.835,29.2915 3.5315,29.2915 L14.49,29.2915 L14.49,42 C14.49,50.414 21.336,57.26 29.75,57.26 L42.595,57.26 C42.8645,60.032 43.953,62.545 45.6435,64.5715 L24.3215,85.897 C21.9835,83.9545 19.0225,82.74 15.75,82.74 C8.302,82.74 2.24,88.802 2.24,96.25 C2.24,103.698 8.302,109.76 15.75,109.76 C23.198,109.76 29.26,103.698 29.26,96.25 C29.26,92.981 28.0455,90.02 26.103,87.6785 L47.432,66.3495 C49.4725,68.033 51.989,69.111 54.7715,69.3595 L54.7715,82.74 L43.75,82.74 C43.0535,82.74 42.49,83.3035 42.49,84 L42.49,108.5 C42.49,109.1965 43.0535,109.76 43.75,109.76 L68.25,109.76 C68.9465,109.76 69.51,109.1965 69.51,108.5 L69.51,101.01 L82.25,101.01 C90.664,101.01 97.51,94.164 97.51,85.75 L97.51,69.4855 L108.5,69.4855 C109.1965,69.4855 109.76,68.9185 109.76,68.222 L109.76,43.722 C109.76,43.0255 109.1965,42.462 108.5,42.462 L108.5,42.462 Z" id="Fill-2" fill="#000000"></path>
        </g>
        <path d="M197.014,377 L197.014,376.112 L194.854,376.112 L194.854,368.624 L193.282,368.624 L191.062,370.7 L191.65,371.336 L193.762,369.368 L193.846,369.368 L193.846,376.112 L191.506,376.112 L191.506,377 L197.014,377 Z M204.534,377 L204.534,376.112 L202.374,376.112 L202.374,368.624 L200.802,368.624 L198.582,370.7 L199.17,371.336 L201.282,369.368 L201.366,369.368 L201.366,376.112 L199.026,376.112 L199.026,377 L204.534,377 Z M211.886,376.112 L207.482,376.112 L209.738,374.084 C210.806,373.124 211.574,372.212 211.574,370.916 C211.574,369.488 210.638,368.48 209.006,368.48 C207.386,368.48 206.642,369.464 206.318,370.448 L207.218,370.796 C207.446,370.004 207.926,369.38 208.958,369.38 C209.99,369.38 210.506,370.016 210.506,370.94 L210.506,371.084 C210.506,371.888 209.906,372.728 209.126,373.448 L206.39,375.968 L206.39,377 L211.886,377 L211.886,376.112 Z M214.03,379.4 L214.99,379.4 L214.99,375.992 L215.038,375.992 C215.41,376.76 215.998,377.144 216.85,377.144 C218.398,377.144 219.37,375.884 219.37,373.904 C219.37,371.924 218.398,370.664 216.85,370.664 C215.998,370.664 215.362,371.036 215.038,371.816 L214.99,371.816 L214.99,370.808 L214.03,370.808 L214.03,379.4 Z M216.586,376.28 C215.71,376.28 214.99,375.824 214.99,375.02 L214.99,372.716 C214.99,372.032 215.71,371.528 216.586,371.528 C217.666,371.528 218.338,372.272 218.338,373.376 L218.338,374.432 C218.338,375.536 217.666,376.28 216.586,376.28 Z M220.398,377 L222.69,373.88 L220.494,370.808 L221.622,370.808 L223.194,373.112 L223.23,373.112 L224.862,370.808 L225.93,370.808 L223.746,373.808 L225.978,377 L224.85,377 L223.242,374.576 L223.206,374.576 L221.466,377 L220.398,377 Z" id="112px-copy" fill="#6F6F6F" fill-rule="nonzero"></path>
    </g>
</svg>