<?xml version="1.0" encoding="utf-8"?>
<!-- Generator: Adobe Illustrator 23.0.4, SVG Export Plug-In . SVG Version: 6.00 Build 0)  -->
<svg version="1.1" id="Layer_1" xmlns="http://www.w3.org/2000/svg" xmlns:xlink="http://www.w3.org/1999/xlink" x="0px" y="0px"
	 viewBox="0 0 288 432" style="enable-background:new 0 0 288 432;" xml:space="preserve">
<style type="text/css">
	.st0{fill-rule:evenodd;clip-rule:evenodd;fill:#FFFFFF;}
	.st1{fill-rule:evenodd;clip-rule:evenodd;fill:#6F6F6F;}
	.st2{fill-rule:evenodd;clip-rule:evenodd;}
</style>
<title>Artboard Copy 62</title>
<desc>Created with Sketch.</desc>
<rect class="st0" width="288" height="432"/>
<path class="st1" d="M211.44299,176.62001c-0.43201,0-0.82199-0.07401-1.17-0.222c-0.34801-0.14801-0.644-0.36-0.888-0.636
	s-0.42999-0.614-0.558-1.01401c-0.12801-0.39999-0.192-0.84799-0.192-1.34399c0-0.62401,0.092-1.20999,0.276-1.758
	s0.422-1.048,0.714-1.5c0.29199-0.45201,0.614-0.85201,0.96599-1.20001c0.35201-0.34799,0.696-0.62999,1.03201-0.84599h1.29599
	c-0.448,0.328-0.84799,0.64799-1.2,0.96001c-0.35201,0.312-0.66,0.63799-0.924,0.978c-0.26401,0.34-0.48801,0.70399-0.672,1.092
	c-0.18401,0.388-0.332,0.826-0.444,1.314l0.06,0.024c0.2-0.34399,0.45799-0.62999,0.774-0.858
	c0.31599-0.228,0.73-0.342,1.24199-0.342c0.36,0,0.692,0.06,0.996,0.18001c0.304,0.12,0.564,0.29199,0.78,0.51599
	s0.386,0.496,0.51001,0.81599c0.12399,0.32001,0.18599,0.67601,0.18599,1.06801c0,0.408-0.06599,0.782-0.198,1.12199
	c-0.132,0.34001-0.31999,0.632-0.564,0.87601s-0.53799,0.43399-0.882,0.56999
	C212.239,176.552,211.85899,176.62001,211.44299,176.62001z M211.431,175.744c0.552,0,0.98199-0.15199,1.28999-0.45599
	s0.46201-0.74001,0.46201-1.308V173.884c0-0.56799-0.15401-1.004-0.46201-1.308s-0.73799-0.45599-1.28999-0.45599
	s-0.98201,0.15199-1.29001,0.45599s-0.46199,0.74001-0.46199,1.308v0.09601c0,0.56799,0.15399,1.004,0.46199,1.308
	S210.879,175.744,211.431,175.744z M219.53099,176.47601V174.832H215.487v-0.888l3.504-5.84399h1.5v5.892h1.21199v0.84H220.491
	v1.64401H219.53099z M216.435,173.992h3.09599v-5.112h-0.06L216.435,173.992z M223.25099,170.28401h0.96001v1.008h0.04799
	c0.16-0.392,0.39401-0.68201,0.70201-0.87c0.308-0.188,0.67799-0.28201,1.11-0.28201c0.384,0,0.73199,0.076,1.04399,0.22801
	c0.31201,0.15199,0.578,0.368,0.798,0.64799s0.388,0.62,0.504,1.02c0.116,0.39999,0.174,0.84799,0.174,1.34399
	s-0.058,0.944-0.174,1.34399c-0.116,0.40001-0.284,0.74001-0.504,1.02s-0.48599,0.496-0.798,0.64801
	c-0.312,0.15199-0.65999,0.228-1.04399,0.228c-0.84001,0-1.444-0.384-1.81201-1.15201H224.211v3.408h-0.96001V170.28401z
	 M225.80699,175.75601c0.54401,0,0.972-0.17,1.284-0.51001c0.31201-0.34,0.468-0.786,0.468-1.338v-1.056
	c0-0.552-0.15599-0.998-0.468-1.338c-0.312-0.34-0.73999-0.50999-1.284-0.50999c-0.216,0-0.422,0.03-0.618,0.09
	s-0.366,0.142-0.50999,0.246c-0.14401,0.10399-0.25801,0.23-0.34201,0.37799c-0.084,0.14801-0.12599,0.306-0.12599,0.474v2.304
	c0,0.20001,0.04199,0.37801,0.12599,0.534c0.084,0.15601,0.198,0.28801,0.34201,0.39601c0.144,0.108,0.314,0.19,0.50999,0.246
	S225.59099,175.75601,225.80699,175.75601z M229.299,176.47601l2.29199-3.12001l-2.196-3.07199h1.12801l1.57201,2.304h0.036
	l1.632-2.304h1.06799l-2.18401,3l2.23201,3.192h-1.09201l-1.644-2.48401h-0.036l-1.776,2.48401H229.299z"/>
<g id="Group-4-Copy-12" transform="translate(190.000000, 89.000000)">
	<polygon id="Fill-1" class="st0" points="-0.365,43.1 63.635,43.1 63.635,-20.9 -0.365,-20.9 	"/>
	<path id="Fill-2" class="st2" d="M48.355,17.364h12.56V4.806h-12.56V17.364z M53.915,28.1c0,4.014-3.266,7.28-7.28,7.28h-7.28V27.1
		c0-0.398-0.32201-0.72-0.72-0.72h-6.262v-7.652c3.658-0.36,6.548-3.26,6.894-6.922h7.648v6.278c0,0.398,0.322,0.722,0.72,0.722
		h6.28V28.1z M25.355,40.38h12.56V27.822h-12.56V40.38z M8.635,40.38c-3.462,0-6.28-2.81799-6.28-6.28c0-3.462,2.818-6.28,6.28-6.28
		s6.28,2.818,6.28,6.28C14.915,37.562,12.097,40.38,8.635,40.38z M31.621,4.806c3.462,0,6.28,2.816,6.28,6.278
		c0,3.464-2.818,6.28-6.28,6.28c-3.464,0-6.28-2.816-6.28-6.28C25.341,7.622,28.157,4.806,31.621,4.806z M2.373-5.604h12.56v-12.558
		H2.373V-5.604z M28.355-17.654l9.84,5.682l-9.84,5.682V-17.654z M48.355-11.9c0-3.462,2.81799-6.28,6.28-6.28
		c3.462,0,6.28,2.818,6.28,6.28s-2.818,6.28-6.28,6.28C51.173-5.62,48.355-8.438,48.355-11.9z M61.635,3.364h-6.28v-7.616
		c3.91399-0.37,7-3.638,7-7.648c0-4.256-3.464-7.72-7.72-7.72c-4.256,0-7.72,3.464-7.72,7.72c0,4.01,3.086,7.278,7,7.648v7.616
		h-6.28c-0.398,0-0.72,0.322-0.72,0.72v6.28h-7.648c-0.37-3.914-3.636-7-7.646-7c-4.016,0-7.286,3.094-7.65,7.016h-7.336
		c-4.014,0-7.28-3.266-7.28-7.28v-7.262h6.298c0.398,0,0.72-0.322,0.72-0.72v-6.28h10.542v6.118c0,0.258,0.136,0.494,0.36,0.622
		c0.11,0.064,0.236,0.098,0.36,0.098s0.25-0.034,0.36-0.098l12-6.928c0.224-0.128,0.36-0.364,0.36-0.622
		c0-0.258-0.136-0.494-0.36-0.624l-12-6.928c-0.222-0.128-0.498-0.128-0.72,0c-0.224,0.13-0.36,0.366-0.36,0.624v6.296H16.373
		v-6.278c0-0.398-0.322-0.722-0.72-0.722h-14c-0.398,0-0.72,0.324-0.72,0.722v14c0,0.398,0.322,0.72,0.72,0.72h6.262V3.1
		c0,4.808,3.912,8.72,8.72,8.72h7.34c0.154,1.584,0.776,3.02,1.742,4.178L13.533,28.184c-1.336-1.11-3.028-1.804-4.898-1.804
		c-4.256,0-7.72,3.464-7.72,7.72c0,4.256,3.464,7.72,7.72,7.72s7.72-3.464,7.72-7.72c0-1.868-0.694-3.56-1.804-4.898l12.188-12.188
		c1.166,0.962,2.604,1.578,4.194,1.72v7.646h-6.298c-0.398,0-0.72,0.322-0.72,0.72v14c0,0.398,0.322,0.72,0.72,0.72h14
		c0.39799,0,0.72-0.322,0.72-0.72v-4.28h7.28c4.808,0,8.72-3.912,8.72-8.72v-9.294h6.28c0.39799,0,0.72-0.324,0.72-0.722v-14
		C62.355,3.686,62.033,3.364,61.635,3.364z"/>
</g>
<path class="st1" d="M118.679,176.62001v-1.644h-4.044v-0.888l3.504-5.84401h1.5v5.892h1.21201v0.84001H119.639v1.644H118.679z
	 M115.583,174.136h3.096v-5.112h-0.06L115.583,174.136z M124.979,176.76401c-0.48,0-0.9-0.062-1.26-0.186
	c-0.36-0.12399-0.66199-0.29399-0.906-0.50999s-0.428-0.472-0.552-0.76801s-0.186-0.616-0.186-0.95999
	c0-0.576,0.156-1.032,0.46799-1.36801c0.312-0.336,0.72-0.57199,1.22401-0.70799V172.168c-0.44-0.15199-0.79-0.39799-1.05-0.73799
	s-0.39-0.75-0.39-1.23c0-0.64001,0.23199-1.15001,0.696-1.53c0.464-0.38,1.116-0.57001,1.956-0.57001s1.492,0.19,1.956,0.57001
	c0.464,0.37999,0.696,0.88998,0.696,1.53c0,0.48-0.13,0.89-0.39,1.23c-0.26,0.34-0.61,0.586-1.05,0.73799v0.09601
	c0.50401,0.136,0.91199,0.37199,1.224,0.70799c0.312,0.33601,0.468,0.79201,0.468,1.36801c0,0.34399-0.062,0.66399-0.186,0.95999
	c-0.124,0.29601-0.308,0.552-0.55199,0.76801c-0.244,0.216-0.546,0.386-0.90601,0.50999
	C125.879,176.70201,125.45901,176.76401,124.979,176.76401z M124.979,175.888c0.584,0,1.036-0.12999,1.356-0.39
	c0.32001-0.25999,0.48-0.62999,0.48-1.11v-0.252c0-0.48-0.16-0.84999-0.48-1.11c-0.32-0.25999-0.772-0.39-1.356-0.39
	c-0.58401,0-1.036,0.13-1.356,0.39c-0.32,0.26001-0.48,0.63-0.48,1.11v0.252c0,0.48001,0.16,0.85001,0.48,1.11
	C123.943,175.75801,124.395,175.888,124.979,175.888z M124.979,171.79601c0.528,0,0.92799-0.112,1.2-0.336
	s0.408-0.552,0.408-0.98399v-0.18001c0-0.43201-0.136-0.75999-0.408-0.98399s-0.672-0.336-1.2-0.336
	c-0.52801,0-0.928,0.112-1.2,0.336c-0.272,0.224-0.408,0.55199-0.408,0.98399v0.18001c0,0.43199,0.136,0.75999,0.408,0.98399
	C124.051,171.68401,124.451,171.79601,124.979,171.79601z M129.599,170.42801h0.95999v1.008h0.048
	c0.16-0.392,0.394-0.68199,0.702-0.87s0.67801-0.282,1.11-0.282c0.384,0,0.73199,0.07599,1.04401,0.228
	c0.312,0.15199,0.578,0.368,0.798,0.64799s0.38799,0.62,0.504,1.02c0.116,0.39999,0.174,0.84799,0.174,1.34399
	s-0.058,0.944-0.174,1.34401c-0.11601,0.39999-0.284,0.73999-0.504,1.01999c-0.22,0.28001-0.48601,0.496-0.798,0.64801
	c-0.31201,0.15199-0.66,0.228-1.04401,0.228c-0.84,0-1.444-0.384-1.812-1.15201h-0.048v3.408H129.599V170.42801z M132.155,175.90001
	c0.54401,0,0.972-0.17,1.284-0.51001c0.312-0.34,0.468-0.786,0.468-1.338v-1.056c0-0.552-0.15601-0.998-0.468-1.338
	s-0.73999-0.50999-1.284-0.50999c-0.216,0-0.422,0.03-0.61801,0.09c-0.196,0.06-0.366,0.142-0.50999,0.246
	s-0.258,0.23-0.342,0.37799c-0.084,0.14801-0.12601,0.306-0.12601,0.474v2.304c0,0.20001,0.04201,0.37801,0.12601,0.53401
	c0.084,0.15599,0.198,0.28799,0.342,0.396s0.314,0.19,0.50999,0.246C131.733,175.87201,131.939,175.90001,132.155,175.90001z
	 M135.64699,176.62001L137.939,173.5l-2.196-3.07199h1.12799l1.57201,2.304h0.036l1.632-2.304h1.06801l-2.18401,3l2.23199,3.192
	h-1.092l-1.644-2.48401h-0.036l-1.776,2.48401H135.64699z"/>
<g id="Group-4-Copy-13" transform="translate(104.000000, 97.000000)">
	<polygon class="st0" points="-0.365,27.1 47.635,27.1 47.635,-20.9 -0.365,-20.9 	"/>
	<path class="st2" d="M36.175,7.798h9.42v-9.4185h-9.42V7.798z M40.345,15.85c0,3.0105-2.4495,5.46-5.46,5.46h-5.46V15.1
		c0-0.2985-0.2415-0.54-0.54-0.54h-4.6965V8.821c2.7435-0.27,4.911-2.445,5.1705-5.1915h5.736V8.338
		c0,0.2985,0.2415,0.5415,0.54,0.5415h4.71V15.85z M18.925,25.06h9.42v-9.4185h-9.42V25.06z M6.385,25.06
		c-2.5965,0-4.71-2.1135-4.71-4.71s2.1135-4.71,4.71-4.71s4.71,2.1135,4.71,4.71S8.9815,25.06,6.385,25.06z M23.6245-1.6205
		c2.5965,0,4.71,2.112,4.71,4.7085c0,2.598-2.1135,4.71-4.71,4.71c-2.598,0-4.71-2.112-4.71-4.71
		C18.9145,0.4915,21.0265-1.6205,23.6245-1.6205z M1.6885-9.428h9.42v-9.4185h-9.42V-9.428z M21.175-18.4655l7.38,4.2615
		l-7.38,4.2615V-18.4655z M36.175-14.15c0-2.5965,2.11349-4.71,4.71-4.71c2.5965,0,4.71,2.1135,4.71,4.71s-2.1135,4.71-4.71,4.71
		C38.2885-9.44,36.175-11.5535,36.175-14.15z M46.135-2.702h-4.71v-5.712c2.93549-0.2775,5.25-2.7285,5.25-5.736
		c0-3.192-2.598-5.79-5.79-5.79s-5.79,2.598-5.79,5.79c0,3.0075,2.3145,5.4585,5.25,5.736v5.712h-4.71
		c-0.2985,0-0.54,0.2415-0.54,0.54v4.71h-5.736c-0.2775-2.9355-2.727-5.25-5.7345-5.25c-3.012,0-5.4645,2.3205-5.7375,5.262h-5.502
		c-3.0105,0-5.46-2.4495-5.46-5.46v-5.4465h4.7235c0.2985,0,0.54-0.2415,0.54-0.54v-4.71h7.9065v4.5885
		c0,0.1935,0.102,0.3705,0.27,0.4665c0.0825,0.048,0.177,0.0735,0.27,0.0735s0.1875-0.0255,0.27-0.0735l9-5.196
		c0.168-0.096,0.27-0.273,0.27-0.4665s-0.102-0.3705-0.27-0.468l-9-5.196c-0.1665-0.096-0.3735-0.096-0.54,0
		c-0.168,0.0975-0.27,0.2745-0.27,0.468v4.722h-7.9065v-4.7085c0-0.2985-0.2415-0.5415-0.54-0.5415h-10.5
		c-0.2985,0-0.54,0.243-0.54,0.5415v10.5c0,0.2985,0.2415,0.54,0.54,0.54H5.845V-2.9c0,3.606,2.934,6.54,6.54,6.54h5.505
		c0.1155,1.188,0.582,2.265,1.3065,3.1335l-9.138,9.1395c-1.002-0.8325-2.271-1.353-3.6735-1.353c-3.192,0-5.79,2.598-5.79,5.79
		s2.598,5.79,5.79,5.79s5.79-2.598,5.79-5.79c0-1.401-0.5205-2.67-1.353-3.6735l9.141-9.141c0.8745,0.7215,1.953,1.1835,3.1455,1.29
		V14.56H18.385c-0.2985,0-0.54,0.2415-0.54,0.54v10.5c0,0.2985,0.2415,0.54,0.54,0.54h10.5c0.2985,0,0.54-0.2415,0.54-0.54v-3.21
		h5.46c3.606,0,6.54-2.934,6.54-6.54V8.8795h4.71c0.2985,0,0.54-0.243,0.54-0.5415v-10.5C46.675-2.4605,46.4335-2.702,46.135-2.702z
		"/>
</g>
<path class="st1" d="M39.263,171.79601c0.568,0,0.994-0.13,1.278-0.39s0.426-0.59399,0.426-1.002v-0.084
	c0-0.44-0.138-0.77-0.414-0.99001S39.915,169,39.467,169c-0.43201,0-0.784,0.09401-1.056,0.28201
	c-0.272,0.18799-0.496,0.44199-0.672,0.76199l-0.744-0.576c0.104-0.168,0.23-0.334,0.378-0.498s0.322-0.31,0.522-0.43799
	c0.2-0.12801,0.432-0.23201,0.69601-0.31201c0.264-0.08,0.564-0.12,0.89999-0.12c0.35201,0,0.684,0.04601,0.996,0.138
	s0.582,0.228,0.81,0.408c0.228,0.17999,0.408,0.40199,0.54,0.666c0.132,0.26399,0.19801,0.564,0.19801,0.89999
	c0,0.272-0.042,0.51601-0.12601,0.73199c-0.084,0.216-0.198,0.40401-0.342,0.56401c-0.144,0.16-0.314,0.29599-0.51,0.40799
	s-0.406,0.196-0.63,0.252v0.048c0.224,0.048,0.44199,0.12601,0.654,0.23401c0.212,0.108,0.4,0.24799,0.564,0.42
	c0.164,0.172,0.29601,0.37999,0.396,0.62399s0.15,0.522,0.15,0.834c0,0.36-0.068,0.69-0.204,0.99001s-0.328,0.556-0.576,0.76799
	c-0.248,0.21201-0.548,0.37801-0.9,0.498c-0.35201,0.12001-0.74,0.18001-1.164,0.18001c-0.36,0-0.68-0.04001-0.96-0.12
	c-0.28-0.08-0.528-0.188-0.744-0.32401c-0.216-0.136-0.406-0.28799-0.57-0.45599c-0.164-0.16801-0.31-0.34401-0.438-0.52802
	l0.756-0.57599c0.104,0.168,0.218,0.31999,0.342,0.45599s0.262,0.252,0.414,0.34801c0.152,0.09599,0.324,0.17,0.516,0.222
	s0.416,0.078,0.672,0.078c0.592,0,1.04-0.134,1.344-0.40201s0.456-0.64999,0.456-1.146V174.22c0-0.496-0.152-0.87799-0.456-1.146
	s-0.752-0.40199-1.344-0.40199h-0.984v-0.87601H39.263z M49.727,176.62001H44.231v-1.032l2.736-2.52
	c0.392-0.36,0.71999-0.742,0.984-1.146c0.264-0.40401,0.396-0.81,0.396-1.218v-0.144c0-0.464-0.128-0.84001-0.384-1.12801
	C47.707,169.14401,47.319,169,46.799,169c-0.256,0-0.48,0.03601-0.672,0.108c-0.192,0.07201-0.358,0.172-0.498,0.3
	s-0.256,0.278-0.348,0.45c-0.092,0.17201-0.166,0.358-0.222,0.558l-0.9-0.34799c0.08-0.248,0.19-0.49001,0.33-0.726
	c0.14-0.23601,0.316-0.446,0.528-0.63c0.21201-0.18401,0.468-0.332,0.76801-0.444c0.3-0.112,0.65399-0.168,1.062-0.168
	s0.772,0.06,1.092,0.17999c0.32,0.12001,0.588,0.28801,0.804,0.50401c0.216,0.21599,0.382,0.472,0.49799,0.76799
	c0.116,0.29601,0.174,0.62401,0.174,0.98401c0,0.328-0.046,0.63199-0.138,0.912c-0.092,0.28-0.218,0.54599-0.378,0.79799
	c-0.16,0.252-0.354,0.498-0.582,0.73801c-0.228,0.24001-0.474,0.48-0.738,0.72l-2.256,2.028h4.404V176.62001z M51.551,170.42801
	h0.96v1.008h0.048c0.16-0.392,0.394-0.68199,0.702-0.87c0.308-0.188,0.67799-0.282,1.11-0.282c0.384,0,0.73199,0.07599,1.044,0.228
	c0.312,0.15199,0.578,0.368,0.798,0.64799s0.388,0.62,0.50401,1.02c0.116,0.39999,0.174,0.84799,0.174,1.34399
	s-0.058,0.944-0.174,1.34401c-0.116,0.39999-0.284,0.73999-0.50401,1.01999c-0.22,0.28001-0.48599,0.496-0.798,0.64801
	c-0.312,0.15199-0.66,0.228-1.044,0.228c-0.84,0-1.444-0.384-1.812-1.15201h-0.048v3.408h-0.96V170.42801z M54.107,175.90001
	c0.544,0,0.972-0.17,1.284-0.51001c0.312-0.34,0.468-0.786,0.468-1.338v-1.056c0-0.552-0.156-0.998-0.468-1.338
	c-0.312-0.34-0.74-0.50999-1.284-0.50999c-0.216,0-0.422,0.03-0.618,0.09s-0.366,0.142-0.50999,0.246
	c-0.144,0.104-0.258,0.23-0.342,0.37799c-0.084,0.14801-0.126,0.306-0.126,0.474v2.304c0,0.20001,0.042,0.37801,0.126,0.53401
	c0.084,0.15599,0.198,0.28799,0.342,0.396c0.144,0.108,0.314,0.19,0.50999,0.246S53.891,175.90001,54.107,175.90001z
	 M57.599,176.62001L59.891,173.5l-2.196-3.07199h1.128l1.572,2.304h0.036l1.632-2.304H63.131l-2.184,3l2.232,3.192h-1.092
	l-1.644-2.48401h-0.036l-1.776,2.48401H57.599z"/>
<g id="Group-4-Copy-3" transform="translate(34.000000, 105.000000)">
	<polygon class="st0" points="-0.365,11.1 31.635,11.1 31.635,-20.9 -0.365,-20.9 	"/>
	<path class="st2" d="M23.995-1.768h6.28v-6.279h-6.28V-1.768z M26.775,3.6c0,2.007-1.633,3.64-3.64,3.64h-3.64V3.1
		c0-0.199-0.161-0.36-0.36-0.36h-3.131v-3.826c1.829-0.18,3.274-1.63,3.447-3.461h3.824v3.139c0,0.199,0.161,0.361,0.36,0.361h3.14
		V3.6z M12.495,9.74h6.28V3.461h-6.28V9.74z M4.135,9.74c-1.731,0-3.14-1.409-3.14-3.14s1.409-3.14,3.14-3.14s3.14,1.409,3.14,3.14
		S5.866,9.74,4.135,9.74z M15.628-8.047c1.731,0,3.14,1.408,3.14,3.139c0,1.732-1.409,3.14-3.14,3.14c-1.732,0-3.14-1.408-3.14-3.14
		C12.488-6.639,13.896-8.047,15.628-8.047z M1.004-13.252h6.28v-6.279h-6.28V-13.252z M13.995-19.277l4.92,2.841l-4.92,2.841
		V-19.277z M23.995-16.4c0-1.731,1.409-3.14,3.14-3.14s3.14,1.409,3.14,3.14s-1.409,3.14-3.14,3.14S23.995-14.669,23.995-16.4z
		 M30.635-8.768h-3.14v-3.808c1.957-0.185,3.5-1.819,3.5-3.824c0-2.128-1.732-3.86-3.86-3.86s-3.86,1.732-3.86,3.86
		c0,2.005,1.543,3.639,3.5,3.824v3.808h-3.14c-0.199,0-0.36,0.161-0.36,0.36v3.14h-3.824c-0.185-1.957-1.818-3.5-3.823-3.5
		c-2.008,0-3.643,1.547-3.825,3.508H8.135c-2.007,0-3.64-1.633-3.64-3.64v-3.631h3.149c0.199,0,0.36-0.161,0.36-0.36v-3.14h5.271
		v3.059c0,0.129,0.068,0.247,0.18,0.311c0.055,0.032,0.118,0.049,0.18,0.049s0.125-0.017,0.18-0.049l6-3.464
		c0.112-0.064,0.18-0.182,0.18-0.311s-0.068-0.247-0.18-0.312l-6-3.464c-0.111-0.064-0.249-0.064-0.36,0
		c-0.112,0.065-0.18,0.183-0.18,0.312v3.148H8.004v-3.139c0-0.199-0.161-0.361-0.36-0.361h-7c-0.199,0-0.36,0.162-0.36,0.361v7
		c0,0.199,0.161,0.36,0.36,0.36h3.131V-8.9c0,2.404,1.956,4.36,4.36,4.36h3.67c0.077,0.792,0.388,1.51,0.871,2.089L6.584,3.642
		C5.916,3.087,5.07,2.74,4.135,2.74c-2.128,0-3.86,1.732-3.86,3.86s1.732,3.86,3.86,3.86s3.86-1.732,3.86-3.86
		c0-0.934-0.347-1.78-0.902-2.449l6.094-6.094c0.583,0.481,1.302,0.789,2.097,0.86V2.74h-3.149c-0.199,0-0.36,0.161-0.36,0.36v7
		c0,0.199,0.161,0.36,0.36,0.36h7c0.199,0,0.36-0.161,0.36-0.36V7.96h3.64c2.404,0,4.36-1.956,4.36-4.36v-4.647h3.14
		c0.199,0,0.36-0.162,0.36-0.361v-7C30.995-8.607,30.834-8.768,30.635-8.768z"/>
</g>
<g id="Artboard-Copy-62">
	<path class="st1" d="M63.57899,364.19202c-0.48,0-0.89999-0.06201-1.25999-0.18604c-0.36001-0.12396-0.662-0.29398-0.90601-0.50998
		c-0.244-0.216-0.42799-0.47202-0.55199-0.76801s-0.186-0.616-0.186-0.95999c0-0.57599,0.156-1.03198,0.468-1.36801
		c0.312-0.336,0.71999-0.57199,1.224-0.70798v-0.09601c-0.44-0.15201-0.79-0.39801-1.05-0.73801
		c-0.25999-0.34-0.39-0.75-0.39-1.23001c0-0.64001,0.232-1.14999,0.69601-1.52997c0.464-0.38,1.11599-0.57001,1.95599-0.57001
		s1.492,0.19,1.956,0.57001c0.464,0.37997,0.696,0.88995,0.696,1.52997c0,0.48001-0.13,0.89001-0.39,1.23001
		s-0.61,0.586-1.05,0.73801v0.09601c0.50401,0.13599,0.912,0.37198,1.224,0.70798c0.312,0.33603,0.468,0.79202,0.468,1.36801
		c0,0.34399-0.062,0.664-0.186,0.95999s-0.308,0.552-0.552,0.76801s-0.546,0.38602-0.906,0.50998
		C64.479,364.13,64.059,364.19202,63.57899,364.19202z M63.57899,363.31598c0.58401,0,1.036-0.12997,1.356-0.38998
		c0.32-0.25998,0.48-0.62997,0.48-1.11002V361.564c0-0.48001-0.16-0.85001-0.48-1.11002
		c-0.32001-0.25998-0.772-0.38998-1.356-0.38998c-0.584,0-1.036,0.13-1.356,0.38998c-0.32001,0.26001-0.48,0.63-0.48,1.11002
		v0.25198c0,0.48004,0.16,0.85004,0.48,1.11002C62.543,363.186,62.995,363.31598,63.57899,363.31598z M63.57899,359.224
		c0.528,0,0.928-0.112,1.2-0.336c0.272-0.224,0.408-0.552,0.408-0.98401V357.724c0-0.43201-0.136-0.76001-0.408-0.98401
		c-0.272-0.224-0.672-0.336-1.2-0.336s-0.92799,0.112-1.2,0.336s-0.408,0.552-0.408,0.98401v0.17999
		c0,0.43201,0.13599,0.76001,0.408,0.98401S63.05099,359.224,63.57899,359.224z M70.77899,364.19202c-1,0-1.73-0.38-2.18999-1.14001
		c-0.46001-0.76001-0.69-1.82397-0.69-3.19202c0-1.36798,0.23-2.43198,0.69-3.19199c0.46-0.76001,1.18999-1.13998,2.18999-1.13998
		c1.00001,0,1.73,0.37997,2.19,1.13998c0.46001,0.76001,0.69,1.82401,0.69,3.19199c0,1.36804-0.23,2.43201-0.69,3.19202
		C72.509,363.81201,71.779,364.19202,70.77899,364.19202z M70.77899,363.31598c0.328,0,0.608-0.06799,0.84-0.20398
		s0.42-0.328,0.564-0.57599c0.144-0.24802,0.25-0.54001,0.31799-0.87601c0.068-0.336,0.10201-0.70801,0.10201-1.116v-1.36801
		c0-0.40799-0.034-0.78-0.10201-1.116c-0.06799-0.336-0.174-0.62799-0.31799-0.87598c-0.144-0.24802-0.332-0.44-0.564-0.57602
		s-0.512-0.20401-0.84-0.20401c-0.328,0-0.60799,0.06799-0.84,0.20401s-0.42,0.328-0.564,0.57602
		c-0.144,0.24799-0.25,0.53998-0.31799,0.87598c-0.068,0.336-0.10201,0.70801-0.10201,1.116v1.36801
		c0,0.40799,0.034,0.78,0.10201,1.116c0.06799,0.336,0.174,0.62799,0.31799,0.87601c0.144,0.24799,0.332,0.44,0.564,0.57599
		S70.451,363.31598,70.77899,363.31598z M75.39899,357.85602h0.96v1.008h0.048c0.16-0.39203,0.394-0.68201,0.702-0.87
		c0.30801-0.18802,0.678-0.28201,1.11-0.28201c0.384,0,0.732,0.07599,1.044,0.228c0.312,0.15198,0.578,0.36798,0.798,0.64801
		c0.22,0.27997,0.388,0.62,0.504,1.01999c0.116,0.39999,0.174,0.84799,0.174,1.34399s-0.058,0.944-0.174,1.34402
		c-0.116,0.39996-0.284,0.73999-0.504,1.01996c-0.22,0.28003-0.486,0.49603-0.798,0.64801
		c-0.312,0.15201-0.66,0.22803-1.044,0.22803c-0.84,0-1.444-0.38403-1.812-1.15204h-0.048v3.40802h-0.96V357.85602z
		 M77.95499,363.328c0.54401,0,0.972-0.16998,1.284-0.51001c0.312-0.34,0.46799-0.78601,0.46799-1.33801v-1.05597
		c0-0.552-0.156-0.99802-0.46799-1.33801c-0.312-0.34-0.74-0.51001-1.284-0.51001c-0.216,0-0.422,0.03003-0.618,0.09003
		c-0.19601,0.06-0.366,0.14197-0.51,0.24597c-0.144,0.104-0.258,0.23001-0.342,0.37799c-0.084,0.14801-0.126,0.30603-0.126,0.474
		v2.30402c0,0.20001,0.042,0.37799,0.126,0.534s0.198,0.28802,0.342,0.396c0.144,0.10803,0.314,0.19,0.51,0.24603
		C77.533,363.29999,77.73899,363.328,77.95499,363.328z M81.447,364.048l2.292-3.12003l-2.19601-3.07196H82.671l1.572,2.30399h0.036
		l1.632-2.30399h1.068l-2.184,3l2.23199,3.19199h-1.092l-1.644-2.48401h-0.036l-1.776,2.48401H81.447z"/>
	<g id="Group-4-Copy-12_1_" transform="translate(34.000000, 89.000000)">
		<polygon id="Fill-1_1_" class="st0" points="-0.325,238.528 79.675,238.528 79.675,158.528 -0.325,158.528 		"/>
		<path id="Fill-2_1_" class="st2" d="M60.575,206.358h15.7v-15.69751h-15.7V206.358z M67.52499,219.778
			c0,5.0175-4.0825,9.09999-9.1,9.09999h-9.1V218.528c0-0.4975-0.4025-0.90001-0.9-0.90001h-7.8275V208.063
			c4.5725-0.45,8.185-4.075,8.6175-8.65251h9.56v7.8475c0,0.4975,0.4025,0.9025,0.9,0.9025h7.85V219.778z M31.825,235.12799h15.7
			V219.4305h-15.7V235.12799z M10.925,235.12799c-4.3275,0-7.85-3.52249-7.85-7.84999s3.5225-7.84999,7.85-7.84999
			s7.85,3.52249,7.85,7.84999S15.2525,235.12799,10.925,235.12799z M39.65749,190.66049c4.32751,0,7.85001,3.52,7.85001,7.8475
			c0,4.33-3.5225,7.85001-7.85001,7.85001c-4.32999,0-7.85-3.52-7.85-7.85001
			C31.8075,194.1805,35.3275,190.66049,39.65749,190.66049z M3.0975,177.64799h15.7V161.9505h-15.7V177.64799z M35.575,162.58549
			l12.3,7.10251l-12.3,7.10249V162.58549z M60.575,169.778c0-4.3275,3.5225-7.85001,7.85-7.85001s7.85,3.52251,7.85,7.85001
			s-3.5225,7.85001-7.85,7.85001S60.575,174.1055,60.575,169.778z M77.175,188.858h-7.85v-9.52
			c4.8925-0.46249,8.75-4.5475,8.75-9.56c0-5.32001-4.33-9.64999-9.65-9.64999s-9.65,4.32999-9.65,9.64999
			c0,5.0125,3.85751,9.0975,8.75,9.56v9.52h-7.85c-0.4975,0-0.9,0.4025-0.9,0.89999v7.85001h-9.56
			c-0.4625-4.8925-4.545-8.75-9.5575-8.75c-5.02,0-9.1075,3.86749-9.5625,8.76999h-9.17c-5.0175,0-9.1-4.08249-9.1-9.09999v-9.0775
			h7.8725c0.4975,0,0.9-0.4025,0.9-0.89999v-7.85001h13.1775v7.64749c0,0.32251,0.17001,0.61751,0.45,0.77751
			c0.1375,0.08,0.295,0.1225,0.45,0.1225s0.3125-0.0425,0.45-0.1225l15-8.66c0.28-0.16,0.45-0.455,0.45-0.7775
			c0-0.32251-0.17-0.61751-0.45-0.78l-15-8.66c-0.2775-0.16-0.62251-0.16-0.9,0c-0.28,0.16251-0.45,0.4575-0.45,0.78v7.87H20.5975
			v-7.84749c0-0.49751-0.4025-0.90251-0.9-0.90251h-17.5c-0.4975,0-0.9,0.405-0.9,0.90251v17.5c0,0.4975,0.4025,0.89999,0.9,0.89999
			h7.8275v9.0775c0,6.00999,4.89,10.90001,10.9,10.90001H30.1c0.1925,1.98,0.97,3.77499,2.1775,5.22249l-15.23,15.2325
			c-1.67-1.3875-3.785-2.255-6.1225-2.255c-5.32,0-9.65,4.33002-9.65,9.65001s4.33,9.65001,9.65,9.65001s9.65-4.33002,9.65-9.65001
			c0-2.33501-0.8675-4.45-2.255-6.1225l15.235-15.235c1.4575,1.2025,3.255,1.9725,5.2425,2.14999v9.5575H30.925
			c-0.4975,0-0.9,0.40251-0.9,0.90001v17.5c0,0.4975,0.4025,0.90001,0.9,0.90001h17.5c0.49751,0,0.9-0.40251,0.9-0.90001v-5.34999
			h9.1c6.01,0,10.9-4.89001,10.9-10.90001v-11.61751h7.85c0.4975,0,0.9-0.405,0.9-0.9025v-17.5
			C78.075,189.2605,77.67249,188.858,77.175,188.858z"/>
	</g>
	<path class="st1" d="M198.267,358.74402c0,0.62396-0.092,1.20996-0.276,1.758c-0.18399,0.54797-0.422,1.04797-0.71399,1.5
		c-0.29201,0.45197-0.614,0.85199-0.966,1.19998s-0.696,0.63-1.032,0.84601H193.983c0.448-0.328,0.84799-0.64798,1.2-0.95999
		s0.66-0.638,0.92401-0.97803c0.26399-0.33997,0.48799-0.70398,0.672-1.09198c0.18399-0.388,0.332-0.82599,0.444-1.31403
		l-0.06-0.02399c-0.20001,0.34399-0.45801,0.63-0.774,0.858c-0.31601,0.228-0.73,0.34201-1.242,0.34201
		c-0.36,0-0.692-0.06-0.996-0.17999s-0.564-0.29199-0.78-0.51599c-0.216-0.22403-0.386-0.49402-0.50999-0.81003
		c-0.12401-0.31601-0.186-0.67398-0.186-1.07401c0-0.40799,0.06599-0.78198,0.198-1.12201
		c0.132-0.33997,0.32001-0.63196,0.564-0.87598c0.244-0.24402,0.53601-0.43402,0.87601-0.57001s0.722-0.20398,1.146-0.20398
		c0.43201,0,0.82201,0.07397,1.17,0.22198c0.34801,0.14801,0.644,0.35999,0.888,0.63599s0.43001,0.61401,0.558,1.01401
		C198.203,357.79999,198.267,358.24799,198.267,358.74402z M195.47101,360.02802c0.552,0,0.98199-0.15201,1.28999-0.45599
		c0.308-0.30402,0.46201-0.74002,0.46201-1.30804V358.168c0-0.56802-0.15401-1.004-0.46201-1.30801
		c-0.308-0.30399-0.73799-0.45599-1.28999-0.45599s-0.98201,0.15201-1.29001,0.45599
		c-0.308,0.30402-0.46199,0.73999-0.46199,1.30801v0.09598c0,0.56802,0.15399,1.00403,0.46199,1.30804
		C194.489,359.87601,194.91901,360.02802,195.47101,360.02802z M202.683,364.19202c-0.43199,0-0.82199-0.07404-1.17-0.22202
		c-0.34799-0.14798-0.644-0.36002-0.888-0.63602s-0.42999-0.61398-0.558-1.01398c-0.12801-0.40002-0.192-0.84802-0.192-1.34399
		c0-0.62402,0.092-1.21002,0.276-1.758c0.18401-0.54803,0.422-1.04803,0.714-1.5c0.29199-0.45203,0.614-0.85202,0.966-1.20001
		c0.35199-0.34802,0.696-0.63,1.032-0.84601h1.29599c-0.448,0.328-0.84799,0.64801-1.2,0.96002
		c-0.35201,0.31198-0.65999,0.638-0.924,0.97797c-0.26401,0.34003-0.48801,0.70401-0.672,1.09201
		c-0.18401,0.388-0.332,0.82602-0.444,1.314l0.06,0.02399c0.2-0.34399,0.45799-0.62997,0.774-0.85797
		c0.31599-0.22803,0.73-0.34201,1.242-0.34201c0.36,0,0.69199,0.06,0.99599,0.18002c0.304,0.12,0.56401,0.29199,0.78,0.51599
		c0.216,0.224,0.386,0.49597,0.51001,0.81598c0.12399,0.32001,0.186,0.67603,0.186,1.06799
		c0,0.40802-0.06601,0.78201-0.19801,1.12201c-0.13199,0.34003-0.31999,0.63202-0.564,0.87601s-0.53799,0.43399-0.882,0.57001
		C203.479,364.12402,203.099,364.19202,202.683,364.19202z M202.67101,363.31598c0.552,0,0.98199-0.15198,1.28999-0.45599
		c0.30801-0.30399,0.46201-0.73999,0.46201-1.30798v-0.09601c0-0.56799-0.15399-1.004-0.46201-1.30798
		c-0.308-0.30402-0.73799-0.45599-1.28999-0.45599s-0.98199,0.15198-1.29001,0.45599
		c-0.308,0.30399-0.46199,0.73999-0.46199,1.30798v0.09601c0,0.56799,0.15399,1.004,0.46199,1.30798
		C201.68901,363.164,202.119,363.31598,202.67101,363.31598z M207.291,357.85602h0.96001v1.008h0.04799
		c0.16-0.39203,0.39401-0.68201,0.70201-0.87c0.308-0.18802,0.67799-0.28201,1.11-0.28201c0.384,0,0.73199,0.07599,1.04399,0.228
		c0.31201,0.15198,0.578,0.36798,0.798,0.64801c0.22,0.27997,0.388,0.62,0.504,1.01999s0.174,0.84799,0.174,1.34399
		s-0.058,0.944-0.174,1.34402c-0.116,0.39996-0.284,0.73999-0.504,1.01996c-0.22,0.28003-0.48599,0.49603-0.798,0.64801
		c-0.312,0.15201-0.65999,0.22803-1.04399,0.22803c-0.84001,0-1.444-0.38403-1.81201-1.15204h-0.04799v3.40802H207.291V357.85602z
		 M209.847,363.328c0.54401,0,0.972-0.16998,1.284-0.51001c0.31201-0.34,0.468-0.78601,0.468-1.33801v-1.05597
		c0-0.552-0.15599-0.99802-0.468-1.33801c-0.312-0.34-0.73999-0.51001-1.284-0.51001c-0.216,0-0.422,0.03003-0.618,0.09003
		s-0.366,0.14197-0.50999,0.24597c-0.14401,0.104-0.25801,0.23001-0.34201,0.37799c-0.084,0.14801-0.12599,0.30603-0.12599,0.474
		v2.30402c0,0.20001,0.04199,0.37799,0.12599,0.534s0.198,0.28802,0.34201,0.396c0.144,0.10803,0.314,0.19,0.50999,0.24603
		C209.425,363.29999,209.631,363.328,209.847,363.328z M213.339,364.048l2.29199-3.12003l-2.196-3.07196h1.12801l1.57201,2.30399
		h0.036l1.632-2.30399h1.06799l-2.18401,3l2.23201,3.19199H217.827l-1.644-2.48401h-0.036l-1.776,2.48401H213.339z"/>
	<g id="Group-4-Copy-13_1_" transform="translate(158.000000, 81.000000)">
		<polygon class="st0" points="-0.325,254.528 95.675,254.528 95.675,158.528 -0.325,158.528 		"/>
		<path class="st2" d="M72.755,215.924h18.84v-18.83699h-18.84V215.924z M81.09499,232.028c0,6.02101-4.89899,10.92-10.92,10.92
			h-10.92v-12.42c0-0.597-0.483-1.08-1.08-1.08h-9.393V217.97c5.487-0.54001,9.822-4.89,10.341-10.383h11.47199v9.41699
			c0,0.597,0.483,1.08301,1.08,1.08301h9.42V232.028z M38.255,250.448h18.84v-18.83701h-18.84V250.448z M13.175,250.448
			c-5.193,0-9.42-4.22699-9.42-9.42s4.227-9.42,9.42-9.42s9.42,4.22699,9.42,9.42S18.368,250.448,13.175,250.448z M47.654,197.08701
			c5.193,0,9.42,4.224,9.42,9.41699c0,5.196-4.227,9.42-9.42,9.42c-5.196,0-9.42001-4.224-9.42001-9.42
			C38.23399,201.311,42.458,197.08701,47.654,197.08701z M3.782,181.472h18.84v-18.83701H3.782V181.472z M42.755,163.397
			l14.76,8.52299l-14.76,8.52299V163.397z M72.755,172.028c0-5.19299,4.227-9.42,9.42-9.42s9.42,4.22701,9.42,9.42
			c0,5.19301-4.227,9.42-9.42,9.42S72.755,177.22101,72.755,172.028z M92.675,194.924h-9.42V183.5
			c5.87099-0.55499,10.5-5.457,10.5-11.472c0-6.384-5.196-11.58-11.58-11.58s-11.58,5.196-11.58,11.58
			c0,6.015,4.62901,10.91701,10.5,11.472v11.424h-9.42c-0.597,0-1.08,0.483-1.08,1.08v9.42H59.123
			c-0.555-5.87099-5.454-10.5-11.469-10.5c-6.024,0-10.929,4.64101-11.475,10.524H25.175c-6.021,0-10.92-4.899-10.92-10.92
			v-10.89301h9.447c0.597,0,1.08-0.48299,1.08-1.08v-9.42h15.813v9.177c0,0.38701,0.204,0.741,0.54,0.933
			c0.165,0.09601,0.354,0.147,0.54,0.147c0.186,0,0.375-0.05099,0.54-0.147l18-10.392c0.336-0.192,0.54-0.54599,0.54-0.933
			c0-0.38699-0.204-0.741-0.54-0.936l-18-10.392c-0.333-0.192-0.747-0.192-1.08,0c-0.336,0.19501-0.54,0.54901-0.54,0.936v9.444
			H24.782v-9.41701c0-0.597-0.483-1.08299-1.08-1.08299h-21c-0.597,0-1.08,0.48599-1.08,1.08299v21c0,0.59702,0.483,1.08,1.08,1.08
			h9.393V194.528c0,7.21201,5.868,13.08,13.08,13.08h11.01c0.231,2.37601,1.164,4.53,2.613,6.267l-18.276,18.27899
			c-2.004-1.66499-4.542-2.70599-7.347-2.70599c-6.384,0-11.58,5.196-11.58,11.58s5.196,11.58,11.58,11.58s11.58-5.196,11.58-11.58
			c0-2.802-1.041-5.34-2.706-7.347l18.282-18.282c1.749,1.44299,3.90601,2.36699,6.291,2.58V229.448h-9.447
			c-0.597,0-1.08,0.483-1.08,1.08v21c0,0.597,0.483,1.08,1.08,1.08h21c0.597,0,1.08-0.483,1.08-1.08v-6.42h10.92
			c7.212,0,13.08-5.86801,13.08-13.08v-13.94099h9.42c0.597,0,1.08-0.48601,1.08-1.08301v-21
			C93.755,195.407,93.272,194.924,92.675,194.924z"/>
	</g>
</g>
</svg>
