<svg xmlns="http://www.w3.org/2000/svg" viewBox="0 0 928 522"><g fill="none" fill-rule="evenodd"><path fill="#FFF" d="M0 0h928v522H0z"/><path fill="#FFF" d="M104 264h48v-48h-48z"/><path d="M140.54 244.698h9.42v-9.419h-9.42v9.419zm4.17 8.052c0 3.01-2.45 5.46-5.46 5.46h-5.46V252a.54.54 0 00-.54-.54h-4.697v-5.739a5.76 5.76 0 005.171-5.192h5.736v4.709a.54.54 0 00.54.541h4.71v6.971zm-21.42 9.21h9.42v-9.419h-9.42v9.419zm-12.54 0a4.716 4.716 0 01-4.71-4.71 4.716 4.716 0 014.71-4.71 4.716 4.716 0 014.71 4.71 4.716 4.716 0 01-4.71 4.71zm17.24-26.68a4.715 4.715 0 014.71 4.708 4.715 4.715 0 01-4.71 4.71 4.714 4.714 0 01-4.71-4.71 4.714 4.714 0 014.71-4.709zm-21.937-7.808h9.42v-9.419h-9.42v9.419zm19.487-9.038l7.38 4.262-7.38 4.261v-8.522zm15 4.316a4.716 4.716 0 014.71-4.71 4.716 4.716 0 014.71 4.71 4.716 4.716 0 01-4.71 4.71 4.716 4.716 0 01-4.71-4.71zm9.96 11.448h-4.71v-5.712c2.935-.277 5.25-2.728 5.25-5.736a5.797 5.797 0 00-5.79-5.79 5.797 5.797 0 00-5.79 5.79c0 3.008 2.314 5.459 5.25 5.736v5.712H140a.54.54 0 00-.54.54v4.71h-5.736c-.277-2.936-2.727-5.25-5.735-5.25-3.012 0-5.464 2.32-5.737 5.262h-5.502c-3.01 0-5.46-2.45-5.46-5.46v-5.447h4.724a.54.54 0 00.54-.54v-4.71h7.906v4.589a.541.541 0 00.81.466l9-5.196a.54.54 0 000-.934l-9-5.196a.542.542 0 00-.81.468v4.722h-7.907v-4.709a.54.54 0 00-.54-.541h-10.5a.54.54 0 00-.54.542v10.5c0 .298.242.54.54.54h4.697V234a6.548 6.548 0 006.54 6.54h5.505a5.736 5.736 0 001.306 3.134l-9.138 9.139c-1.002-.833-2.27-1.353-3.673-1.353a5.797 5.797 0 00-5.79 5.79 5.797 5.797 0 005.79 5.79 5.797 5.797 0 005.79-5.79c0-1.401-.52-2.67-1.353-3.673l9.141-9.141a5.715 5.715 0 003.146 1.29v5.734h-4.724a.54.54 0 00-.54.54v10.5c0 .298.242.54.54.54h10.5a.54.54 0 00.54-.54v-3.21h5.46a6.548 6.548 0 006.54-6.54v-6.97h4.71a.54.54 0 00.54-.542v-10.5a.54.54 0 00-.54-.54z" fill="#000"/><path fill="#FFF" d="M232 272h64v-64h-64z"/><path d="M280.72 246.264h12.56v-12.558h-12.56v12.558zM286.28 257c0 4.014-3.266 7.28-7.28 7.28h-7.28V256a.72.72 0 00-.72-.72h-6.262v-7.652a7.68 7.68 0 006.894-6.922h7.648v6.278c0 .398.322.722.72.722h6.28V257zm-28.56 12.28h12.56v-12.558h-12.56v12.558zm-16.72 0a6.288 6.288 0 01-6.28-6.28 6.288 6.288 0 016.28-6.28 6.288 6.288 0 016.28 6.28 6.288 6.288 0 01-6.28 6.28zm22.986-35.574a6.286 6.286 0 016.28 6.278 6.287 6.287 0 01-6.28 6.28 6.286 6.286 0 01-6.28-6.28 6.285 6.285 0 016.28-6.278zm-29.248-10.41h12.56v-12.558h-12.56v12.558zm25.982-12.05l9.84 5.682-9.84 5.682v-11.364zm20 5.754a6.288 6.288 0 016.28-6.28 6.288 6.288 0 016.28 6.28 6.288 6.288 0 01-6.28 6.28 6.288 6.288 0 01-6.28-6.28zM294 232.264h-6.28v-7.616c3.914-.37 7-3.638 7-7.648 0-4.256-3.464-7.72-7.72-7.72s-7.72 3.464-7.72 7.72c0 4.01 3.086 7.278 7 7.648v7.616H280a.72.72 0 00-.72.72v6.28h-7.648c-.37-3.914-3.636-7-7.646-7-4.016 0-7.286 3.094-7.65 7.016H249c-4.014 0-7.28-3.266-7.28-7.28v-7.262h6.298a.72.72 0 00.72-.72v-6.28h10.542v6.118a.721.721 0 00.72.72c.124 0 .25-.034.36-.098l12-6.928a.719.719 0 000-1.246l-12-6.928a.719.719 0 00-1.08.624v6.296h-10.542v-6.278a.721.721 0 00-.72-.722h-14a.721.721 0 00-.72.722v14c0 .398.322.72.72.72h6.262V232c0 4.808 3.912 8.72 8.72 8.72h7.34a7.648 7.648 0 001.742 4.178l-12.184 12.186c-1.336-1.11-3.028-1.804-4.898-1.804-4.256 0-7.72 3.464-7.72 7.72s3.464 7.72 7.72 7.72 7.72-3.464 7.72-7.72c0-1.868-.694-3.56-1.804-4.898l12.188-12.188a7.62 7.62 0 004.194 1.72v7.646H257a.72.72 0 00-.72.72v14c0 .398.322.72.72.72h14a.72.72 0 00.72-.72v-4.28H279c4.808 0 8.72-3.912 8.72-8.72v-9.294H294c.398 0 .72-.324.72-.722v-14a.72.72 0 00-.72-.72z" fill="#000"/><path fill="#FFF" d="M376 280h80v-80h-80z"/><path d="M436.9 247.83h15.7v-15.698h-15.7v15.698zm6.95 13.42c0 5.017-4.083 9.1-9.1 9.1h-9.1V260a.9.9 0 00-.9-.9h-7.828v-9.565a9.6 9.6 0 008.618-8.652h9.56v7.847c0 .498.402.903.9.903h7.85v11.617zm-35.7 15.35h15.7v-15.697h-15.7V276.6zm-20.9 0c-4.327 0-7.85-3.522-7.85-7.85 0-4.328 3.522-7.85 7.85-7.85 4.328 0 7.85 3.523 7.85 7.85 0 4.328-3.523 7.85-7.85 7.85zm28.733-44.467c4.327 0 7.85 3.52 7.85 7.847 0 4.33-3.523 7.85-7.85 7.85-4.33 0-7.85-3.52-7.85-7.85 0-4.327 3.52-7.847 7.85-7.847zm-36.56-13.013h15.7v-15.697h-15.7v15.697zm32.477-15.062l12.3 7.102-12.3 7.103v-14.205zm25 7.192c0-4.327 3.523-7.85 7.85-7.85 4.328 0 7.85 3.523 7.85 7.85 0 4.328-3.522 7.85-7.85 7.85-4.328 0-7.85-3.522-7.85-7.85zm16.6 19.08h-7.85v-9.52c4.893-.462 8.75-4.547 8.75-9.56 0-5.32-4.33-9.65-9.65-9.65s-9.65 4.33-9.65 9.65c0 5.013 3.858 9.098 8.75 9.56v9.52H436a.9.9 0 00-.9.9v7.85h-9.56c-.462-4.892-4.545-8.75-9.557-8.75-5.02 0-9.108 3.868-9.563 8.77h-9.17c-5.017 0-9.1-4.082-9.1-9.1v-9.077h7.873a.9.9 0 00.9-.9v-7.85H410.1v7.647a.903.903 0 00.9.9.902.902 0 00.45-.122l15-8.66a.899.899 0 000-1.558l-15-8.66a.899.899 0 00-1.35.78v7.87h-13.177v-7.847a.902.902 0 00-.9-.903h-17.5c-.498 0-.9.405-.9.903v17.5a.9.9 0 00.9.9h7.827V230c0 6.01 4.89 10.9 10.9 10.9h9.175a9.56 9.56 0 002.178 5.223l-15.23 15.232c-1.67-1.387-3.785-2.255-6.123-2.255-5.32 0-9.65 4.33-9.65 9.65s4.33 9.65 9.65 9.65 9.65-4.33 9.65-9.65c0-2.335-.867-4.45-2.255-6.122l15.235-15.235a9.525 9.525 0 005.243 2.15v9.557h-7.873a.9.9 0 00-.9.9v17.5a.9.9 0 00.9.9h17.5a.9.9 0 00.9-.9v-5.35h9.1c6.01 0 10.9-4.89 10.9-10.9v-11.617h7.85c.498 0 .9-.405.9-.903v-17.5a.9.9 0 00-.9-.9z" fill="#000"/><path fill="#FFF" d="M536 288h96v-96h-96z"/><path d="M609.08 249.396h18.84v-18.837h-18.84v18.837zm8.34 16.104c0 6.021-4.899 10.92-10.92 10.92h-10.92V264a1.08 1.08 0 00-1.08-1.08h-9.393v-11.478a11.519 11.519 0 0010.341-10.383h11.472v9.417c0 .597.483 1.083 1.08 1.083h9.42V265.5zm-42.84 18.42h18.84v-18.837h-18.84v18.837zm-25.08 0c-5.193 0-9.42-4.227-9.42-9.42s4.227-9.42 9.42-9.42 9.42 4.227 9.42 9.42-4.227 9.42-9.42 9.42zm34.479-53.361c5.193 0 9.42 4.224 9.42 9.417 0 5.196-4.227 9.42-9.42 9.42-5.196 0-9.42-4.224-9.42-9.42 0-5.193 4.224-9.417 9.42-9.417zm-43.872-15.615h18.84v-18.837h-18.84v18.837zm38.973-18.075l14.76 8.523-14.76 8.523v-17.046zm30 8.631c0-5.193 4.227-9.42 9.42-9.42s9.42 4.227 9.42 9.42-4.227 9.42-9.42 9.42-9.42-4.227-9.42-9.42zM629 228.396h-9.42v-11.424c5.871-.555 10.5-5.457 10.5-11.472 0-6.384-5.196-11.58-11.58-11.58s-11.58 5.196-11.58 11.58c0 6.015 4.629 10.917 10.5 11.472v11.424H608a1.08 1.08 0 00-1.08 1.08v9.42h-11.472c-.555-5.871-5.454-10.5-11.469-10.5-6.024 0-10.929 4.641-11.475 10.524H561.5c-6.021 0-10.92-4.899-10.92-10.92v-10.893h9.447a1.08 1.08 0 001.08-1.08v-9.42h15.813v9.177c0 .387.204.741.54.933.165.096.354.147.54.147.186 0 .375-.051.54-.147l18-10.392a1.078 1.078 0 000-1.869l-18-10.392a1.078 1.078 0 00-1.62.936v9.444h-15.813v-9.417c0-.597-.483-1.083-1.08-1.083h-21c-.597 0-1.08.486-1.08 1.083v21c0 .597.483 1.08 1.08 1.08h9.393V228c0 7.212 5.868 13.08 13.08 13.08h11.01a11.471 11.471 0 002.613 6.267l-18.276 18.279c-2.004-1.665-4.542-2.706-7.347-2.706-6.384 0-11.58 5.196-11.58 11.58s5.196 11.58 11.58 11.58 11.58-5.196 11.58-11.58c0-2.802-1.041-5.34-2.706-7.347l18.282-18.282a11.43 11.43 0 006.291 2.58v11.469H573.5a1.08 1.08 0 00-1.08 1.08v21c0 .597.483 1.08 1.08 1.08h21a1.08 1.08 0 001.08-1.08v-6.42h10.92c7.212 0 13.08-5.868 13.08-13.08v-13.941H629c.597 0 1.08-.486 1.08-1.083v-21a1.08 1.08 0 00-1.08-1.08z" fill="#000"/><path fill="#FFF" d="M712 296h112V184H712z"/><path d="M797.26 250.962h21.98v-21.977h-21.98v21.977zm9.73 18.788c0 7.025-5.715 12.74-12.74 12.74h-12.74V268a1.26 1.26 0 00-1.26-1.26h-10.959v-13.391a13.439 13.439 0 0012.065-12.113h13.384v10.986c0 .696.564 1.263 1.26 1.263h10.99v16.265zm-49.98 21.49h21.98v-21.977h-21.98v21.977zm-29.26 0c-6.059 0-10.99-4.931-10.99-10.99 0-6.058 4.931-10.99 10.99-10.99 6.058 0 10.99 4.931 10.99 10.99 0 6.058-4.931 10.99-10.99 10.99zm40.225-62.254c6.059 0 10.99 4.928 10.99 10.986 0 6.062-4.931 10.99-10.99 10.99-6.062 0-10.99-4.928-10.99-10.99 0-6.059 4.928-10.986 10.99-10.986zm-51.184-18.218h21.98v-21.977h-21.98v21.977zm45.469-21.087l17.22 9.943-17.22 9.943V189.68zm35 10.069c0-6.059 4.931-10.99 10.99-10.99 6.058 0 10.99 4.931 10.99 10.99 0 6.058-4.931 10.99-10.99 10.99-6.058 0-10.99-4.931-10.99-10.99zm23.24 26.712h-10.99v-13.328c6.85-.648 12.25-6.367 12.25-13.384 0-7.448-6.062-13.51-13.51-13.51-7.448 0-13.51 6.062-13.51 13.51 0 7.017 5.4 12.736 12.25 13.384v13.328H796a1.26 1.26 0 00-1.26 1.26v10.99h-13.384c-.647-6.85-6.363-12.25-13.38-12.25-7.028 0-12.751 5.415-13.388 12.278H741.75c-7.024 0-12.74-5.715-12.74-12.74v-12.709h11.021a1.26 1.26 0 001.26-1.26v-10.99h18.449v10.707c0 .451.238.864.63 1.088.192.112.413.172.63.172.217 0 .437-.06.63-.171l21-12.124a1.258 1.258 0 000-2.18l-21-12.125a1.258 1.258 0 00-1.89 1.092v11.018h-18.449v-10.987c0-.696-.563-1.263-1.26-1.263h-24.5c-.696 0-1.26.567-1.26 1.264v24.5c0 .696.564 1.26 1.26 1.26h10.959V226c0 8.414 6.846 15.26 15.26 15.26h12.845a13.383 13.383 0 003.048 7.312l-21.322 21.325c-2.338-1.943-5.299-3.157-8.571-3.157-7.448 0-13.51 6.062-13.51 13.51 0 7.448 6.062 13.51 13.51 13.51 7.448 0 13.51-6.062 13.51-13.51 0-3.269-1.215-6.23-3.157-8.572l21.329-21.329a13.334 13.334 0 007.34 3.01v13.381H755.75a1.26 1.26 0 00-1.26 1.26v24.5c0 .696.563 1.26 1.26 1.26h24.5a1.26 1.26 0 001.26-1.26v-7.49h12.74c8.414 0 15.26-6.846 15.26-15.26v-16.265h10.99c.696 0 1.26-.567 1.26-1.263v-24.5a1.26 1.26 0 00-1.26-1.26z" fill="#000"/><path d="M404.455 335.168c2.226 0 3.388-1.218 3.388-2.828 0-1.33-.798-2.1-1.974-2.422v-.112c1.022-.35 1.68-1.176 1.68-2.296 0-1.484-1.148-2.45-3.094-2.45s-3.094.966-3.094 2.45c0 1.12.658 1.946 1.68 2.296v.112c-1.176.322-1.974 1.092-1.974 2.422 0 1.61 1.162 2.828 3.388 2.828zm0-1.022c-1.358 0-2.142-.644-2.142-1.75v-.294c0-1.106.784-1.75 2.142-1.75 1.358 0 2.142.644 2.142 1.75v.294c0 1.106-.784 1.75-2.142 1.75zm0-4.774c-1.218 0-1.876-.546-1.876-1.54v-.21c0-.994.658-1.54 1.876-1.54s1.876.546 1.876 1.54v.21c0 .994-.658 1.54-1.876 1.54zm8.56 5.796c2.338 0 3.36-1.862 3.36-5.054s-1.022-5.054-3.36-5.054-3.36 1.862-3.36 5.054 1.022 5.054 3.36 5.054zm0-1.022c-1.526 0-2.128-1.344-2.128-3.234v-1.596c0-1.89.602-3.234 2.128-3.234 1.526 0 2.128 1.344 2.128 3.234v1.596c0 1.89-.602 3.234-2.128 3.234zm5.55 3.654h1.12v-3.976h.056c.434.896 1.12 1.344 2.114 1.344 1.806 0 2.94-1.47 2.94-3.78 0-2.31-1.134-3.78-2.94-3.78-.994 0-1.736.434-2.114 1.344h-.056v-1.176h-1.12V337.8zm2.982-3.64c-1.022 0-1.862-.532-1.862-1.47v-2.688c0-.798.84-1.386 1.862-1.386 1.26 0 2.044.868 2.044 2.156v1.232c0 1.288-.784 2.156-2.044 2.156zm4.234.84l2.674-3.64-2.562-3.584h1.316l1.834 2.688h.042l1.904-2.688h1.246l-2.548 3.5 2.604 3.724h-1.316l-1.876-2.828h-.042l-2.03 2.828h-1.246zm149.936-6.188c0-2.324-1.246-3.752-3.276-3.752-1.96 0-3.248 1.316-3.248 3.234 0 1.848 1.204 3.01 2.884 3.01 1.19 0 1.89-.602 2.352-1.4l.07.028c-.532 2.268-1.694 3.542-3.78 5.068h1.512c1.568-1.022 3.486-3.29 3.486-6.188zm-3.262 1.498c-1.288 0-2.044-.742-2.044-2.058v-.112c0-1.316.756-2.058 2.044-2.058s2.044.742 2.044 2.058v.112c0 1.316-.756 2.058-2.044 2.058zm8.574 4.858c1.96 0 3.248-1.316 3.248-3.234 0-1.848-1.204-3.01-2.884-3.01-1.19 0-1.89.602-2.352 1.4l-.07-.028c.532-2.268 1.694-3.542 3.78-5.068h-1.512c-1.568 1.022-3.486 3.29-3.486 6.188 0 2.324 1.246 3.752 3.276 3.752zm-.014-1.022c-1.288 0-2.044-.742-2.044-2.058v-.112c0-1.316.756-2.058 2.044-2.058s2.044.742 2.044 2.058v.112c0 1.316-.756 2.058-2.044 2.058zm5.55 3.654h1.12v-3.976h.056c.434.896 1.12 1.344 2.114 1.344 1.806 0 2.94-1.47 2.94-3.78 0-2.31-1.134-3.78-2.94-3.78-.994 0-1.736.434-2.114 1.344h-.056v-1.176h-1.12V337.8zm2.982-3.64c-1.022 0-1.862-.532-1.862-1.47v-2.688c0-.798.84-1.386 1.862-1.386 1.26 0 2.044.868 2.044 2.156v1.232c0 1.288-.784 2.156-2.044 2.156zm4.234.84l2.674-3.64-2.562-3.584h1.316l1.834 2.688h.042l1.904-2.688h1.246l-2.548 3.5 2.604 3.724h-1.316l-1.876-2.828h-.042l-2.03 2.828h-1.246zm160.12 0v-1.036h-2.52v-8.736h-1.834l-2.59 2.422.686.742 2.464-2.296h.098v7.868h-2.73V335h6.426zm8.56 0v-1.036h-2.52v-8.736h-1.834l-2.59 2.422.686.742 2.464-2.296h.098v7.868h-2.73V335h6.426zm8.364-1.036h-5.138l2.632-2.366.381-.352c1.044-.997 1.761-1.991 1.761-3.344 0-1.666-1.092-2.842-2.996-2.842-1.89 0-2.758 1.148-3.136 2.296l1.05.406c.266-.924.826-1.652 2.03-1.652 1.204 0 1.806.742 1.806 1.82v.168c0 .938-.7 1.918-1.61 2.758l-3.192 2.94V335h6.412v-1.036zm5.752 3.836h1.12v-3.976h.056c.434.896 1.12 1.344 2.114 1.344 1.806 0 2.94-1.47 2.94-3.78 0-2.31-1.134-3.78-2.94-3.78-.994 0-1.736.434-2.114 1.344h-.056v-1.176h-1.12V337.8zm2.982-3.64c-1.022 0-1.862-.532-1.862-1.47v-2.688c0-.798.84-1.386 1.862-1.386 1.26 0 2.044.868 2.044 2.156v1.232c0 1.288-.784 2.156-2.044 2.156zm4.234.84l2.674-3.64-2.562-3.584h1.316l1.834 2.688h.042l1.904-2.688h1.246l-2.548 3.5 2.604 3.724h-1.316l-1.876-2.828h-.042l-2.03 2.828h-1.246zm-531.324.168c1.96 0 3.248-1.316 3.248-3.234 0-1.848-1.204-3.01-2.884-3.01-1.19 0-1.89.602-2.352 1.4l-.07-.028c.532-2.268 1.694-3.542 3.78-5.068h-1.512c-1.568 1.022-3.486 3.29-3.486 6.188 0 2.324 1.246 3.752 3.276 3.752zm-.014-1.022c-1.288 0-2.044-.742-2.044-2.058v-.112c0-1.316.756-2.058 2.044-2.058s2.044.742 2.044 2.058v.112c0 1.316-.756 2.058-2.044 2.058zm10.73.854v-1.918h1.414v-.98h-1.414v-6.874h-1.75l-4.088 6.818v1.036h4.718V335h1.12zm-1.19-8.862h.07v5.964h-3.612l3.542-5.964zm4.57 11.662h1.12v-3.976h.056c.434.896 1.12 1.344 2.114 1.344 1.806 0 2.94-1.47 2.94-3.78 0-2.31-1.134-3.78-2.94-3.78-.994 0-1.736.434-2.114 1.344h-.056v-1.176h-1.12V337.8zm2.982-3.64c-1.022 0-1.862-.532-1.862-1.47v-2.688c0-.798.84-1.386 1.862-1.386 1.26 0 2.044.868 2.044 2.156v1.232c0 1.288-.784 2.156-2.044 2.156zm4.234.84l2.674-3.64-2.562-3.584h1.316l1.834 2.688h.042l1.904-2.688h1.246l-2.548 3.5 2.604 3.724h-1.316l-1.876-2.828h-.042l-2.03 2.828h-1.246zm-155.156 0v-1.918h1.414v-.98h-1.414v-6.874h-1.75l-4.088 6.818v1.036h4.718V335h1.12zm-1.19-8.862h.07v5.964h-3.612l3.542-5.964zm7.58 9.03c2.226 0 3.388-1.218 3.388-2.828 0-1.33-.798-2.1-1.974-2.422v-.112c1.022-.35 1.68-1.176 1.68-2.296 0-1.484-1.148-2.45-3.094-2.45s-3.094.966-3.094 2.45c0 1.12.658 1.946 1.68 2.296v.112c-1.176.322-1.974 1.092-1.974 2.422 0 1.61 1.162 2.828 3.388 2.828zm0-1.022c-1.358 0-2.142-.644-2.142-1.75v-.294c0-1.106.784-1.75 2.142-1.75 1.358 0 2.142.644 2.142 1.75v.294c0 1.106-.784 1.75-2.142 1.75zm0-4.774c-1.218 0-1.876-.546-1.876-1.54v-.21c0-.994.658-1.54 1.876-1.54s1.876.546 1.876 1.54v.21c0 .994-.658 1.54-1.876 1.54zm5.55 8.428h1.12v-3.976h.056c.434.896 1.12 1.344 2.114 1.344 1.806 0 2.94-1.47 2.94-3.78 0-2.31-1.134-3.78-2.94-3.78-.994 0-1.736.434-2.114 1.344h-.056v-1.176h-1.12V337.8zm2.982-3.64c-1.022 0-1.862-.532-1.862-1.47v-2.688c0-.798.84-1.386 1.862-1.386 1.26 0 2.044.868 2.044 2.156v1.232c0 1.288-.784 2.156-2.044 2.156zm4.234.84l2.674-3.64-2.562-3.584h1.316l1.834 2.688h.042l1.904-2.688h1.246l-2.548 3.5 2.604 3.724h-1.316l-1.876-2.828h-.042l-2.03 2.828h-1.246z" fill="#6F6F6F" fill-rule="nonzero"/></g></svg>