<svg xmlns="http://www.w3.org/2000/svg" xmlns:xlink="http://www.w3.org/1999/xlink" viewBox="0 0 288 288"><defs><path id="a" d="M0 91.348h91.348V0H0z"/><path id="c" d="M0 91.348h91.348V0H0z"/></defs><g fill="none" fill-rule="evenodd"><path fill="#FFF" d="M0 0h288v288H0z"/><g transform="translate(39 43)"><path fill="#DCDCDC" fill-rule="nonzero" d="M6.525 6.525h78.298v78.298H6.525z"/><path d="M57.68 64.602v-5.539l6.981-4.031v2.06c0 3.973-3.086 7.204-6.982 7.51zm-8.157-7.51v-2.06l6.982 4.031v5.539c-3.895-.306-6.982-3.537-6.982-7.51zm6.982-22.455v6.757l-6.982-4.031v-6.756l6.982 4.03zm8.156-4.03v6.756l-6.982 4.03v-6.756l6.982-4.03zm0 15.042l-6.982 4.03v-6.928l6.982-4.031v6.929zm-15.138 1.357l6.982 4.03v6.67l-6.982-4.031v-6.669zm6.982 2.673l-6.982-4.03v-6.93l6.982 4.032v6.928zm8.156 3.996l-6.982 4.03v-6.668l6.982-4.031v6.669zm0-29.207v4.781l-2.904 1.677v-8.09h-1.174v8.768L57.68 33.28V21.206h-1.174V33.28l-2.904-1.676v-8.767h-1.174v8.089l-2.904-1.677v-4.781H48.35v32.624c0 4.62 3.613 8.375 8.156 8.684v4.366h1.174v-4.366c4.543-.309 8.156-4.064 8.156-8.684V24.468h-1.174zM34.842 64.602v-5.539l6.982-4.031v2.06c0 3.973-3.086 7.204-6.982 7.51zm-8.156-7.51v-2.06l6.982 4.031v5.539c-3.895-.306-6.982-3.537-6.982-7.51zm6.982-22.455v6.757l-6.982-4.031v-6.756l6.982 4.03zm8.156-4.03v6.756l-6.982 4.03v-6.756l6.982-4.03zm0 15.042l-6.982 4.03v-6.928l6.982-4.031v6.929zm-15.138 1.357l6.982 4.03v6.67l-6.982-4.031v-6.669zm6.982 2.673l-6.982-4.03v-6.93l6.982 4.032v6.928zm8.156 3.996l-6.982 4.03v-6.668l6.982-4.031v6.669zm0-29.207v4.781l-2.904 1.677v-8.09h-1.174v8.768l-2.904 1.676V21.206h-1.174V33.28l-2.904-1.676v-8.767H29.59v8.089l-2.904-1.677v-4.781h-1.174v32.624c0 4.62 3.613 8.375 8.156 8.684v4.366h1.174v-4.366c4.543-.309 8.156-4.064 8.156-8.684V24.468h-1.174z" fill="#000"/><mask id="b" fill="#fff"><use xlink:href="#a"/></mask><path stroke="#0062FF" mask="url(#b)" d="M19.574 71.773h52.199V19.574H19.574z"/><path stroke="#0062FF" mask="url(#b)" d="M6.525 84.823h78.298V6.525H6.525z"/><path fill="#FFF" mask="url(#b)" d="M71.773 19.574h13.05V6.524h-13.05z"/><path stroke="#0062FF" mask="url(#b)" d="M71.773 19.574h13.05V6.524h-13.05z"/><path fill="#FFF" mask="url(#b)" d="M6.525 19.574h13.05V6.524H6.524z"/><path stroke="#0062FF" mask="url(#b)" d="M6.525 19.574h13.05V6.524H6.524z"/><path fill="#FFF" mask="url(#b)" d="M71.773 84.823h13.05v-13.05h-13.05z"/><path stroke="#0062FF" mask="url(#b)" d="M71.773 84.823h13.05v-13.05h-13.05z"/><path fill="#FFF" mask="url(#b)" d="M6.525 84.823h13.05v-13.05H6.524z"/><path stroke="#0062FF" mask="url(#b)" d="M6.525 84.823h13.05v-13.05H6.524z"/></g><path fill="#000" fill-rule="nonzero" d="M45.525 160.234h78.298v78.298H45.525z"/><path d="M96.68 218.31v-5.537l6.981-4.032v2.06c0 3.973-3.086 7.205-6.982 7.51zm-8.157-7.509v-2.06l6.982 4.032v5.538c-3.895-.305-6.982-3.537-6.982-7.51zm6.982-22.455v6.757l-6.982-4.031v-6.756l6.982 4.03zm8.156-4.03v6.756l-6.982 4.031v-6.757l6.982-4.03zm0 15.042l-6.982 4.03v-6.927l6.982-4.032v6.93zm-15.138 1.357l6.982 4.03v6.67l-6.982-4.031v-6.669zm6.982 2.674l-6.982-4.03v-6.93l6.982 4.032v6.928zm8.156 3.995l-6.982 4.031v-6.67l6.982-4.03v6.669zm0-29.207v4.782l-2.904 1.676v-8.089h-1.174v8.767l-2.904 1.676v-12.074h-1.174v12.074l-2.904-1.676v-8.767h-1.174v8.089l-2.904-1.676v-4.782H87.35v32.624c0 4.62 3.613 8.376 8.156 8.684v4.366h1.174v-4.366c4.543-.308 8.156-4.064 8.156-8.684v-32.624h-1.174zM73.842 218.31v-5.537l6.982-4.032v2.06c0 3.973-3.086 7.205-6.982 7.51zm-8.156-7.509v-2.06l6.982 4.032v5.538c-3.895-.305-6.982-3.537-6.982-7.51zm6.982-22.455v6.757l-6.982-4.031v-6.756l6.982 4.03zm8.156-4.03v6.756l-6.982 4.031v-6.757l6.982-4.03zm0 15.042l-6.982 4.03v-6.927l6.982-4.032v6.93zm-15.138 1.357l6.982 4.03v6.67l-6.982-4.031v-6.669zm6.982 2.674l-6.982-4.03v-6.93l6.982 4.032v6.928zm8.156 3.995l-6.982 4.031v-6.67l6.982-4.03v6.669zm0-29.207v4.782l-2.904 1.676v-8.089h-1.174v8.767l-2.904 1.676v-12.074h-1.174v12.074l-2.904-1.676v-8.767H68.59v8.089l-2.904-1.676v-4.782h-1.174v32.624c0 4.62 3.613 8.376 8.156 8.684v4.366h1.174v-4.366c4.543-.308 8.156-4.064 8.156-8.684v-32.624h-1.174z" fill="#FFF"/><g transform="translate(157.652 43)"><path d="M91.348 45.674c0 25.225-20.45 45.674-45.674 45.674C20.449 91.348 0 70.898 0 45.674 0 20.449 20.449 0 45.674 0c25.225 0 45.674 20.449 45.674 45.674" fill="#DDD"/><path d="M57.68 64.602v-5.539l6.981-4.031v2.06c0 3.973-3.086 7.204-6.982 7.51zm-8.157-7.51v-2.06l6.982 4.031v5.539c-3.895-.306-6.982-3.537-6.982-7.51zm6.982-22.455v6.757l-6.982-4.031v-6.756l6.982 4.03zm8.156-4.03v6.756l-6.982 4.03v-6.756l6.982-4.03zm0 15.042l-6.982 4.03v-6.928l6.982-4.031v6.929zm-15.138 1.357l6.982 4.03v6.67l-6.982-4.031v-6.669zm6.982 2.673l-6.982-4.03v-6.93l6.982 4.032v6.928zm8.156 3.996l-6.982 4.03v-6.668l6.982-4.031v6.669zm0-29.207v4.781l-2.904 1.677v-8.09h-1.174v8.768L57.68 33.28V21.206h-1.174V33.28l-2.904-1.676v-8.767h-1.174v8.089l-2.904-1.677v-4.781H48.35v32.624c0 4.62 3.613 8.375 8.156 8.684v4.366h1.174v-4.366c4.543-.309 8.156-4.064 8.156-8.684V24.468h-1.174zM34.842 64.602v-5.539l6.982-4.031v2.06c0 3.973-3.086 7.204-6.982 7.51zm-8.156-7.51v-2.06l6.982 4.031v5.539c-3.895-.306-6.982-3.537-6.982-7.51zm6.982-22.455v6.757l-6.982-4.031v-6.756l6.982 4.03zm8.156-4.03v6.756l-6.982 4.03v-6.756l6.982-4.03zm0 15.042l-6.982 4.03v-6.928l6.982-4.031v6.929zm-15.138 1.357l6.982 4.03v6.67l-6.982-4.031v-6.669zm6.982 2.673l-6.982-4.03v-6.93l6.982 4.032v6.928zm8.156 3.996l-6.982 4.03v-6.668l6.982-4.031v6.669zm0-29.207v4.781l-2.904 1.677v-8.09h-1.174v8.768l-2.904 1.676V21.206h-1.174V33.28l-2.904-1.676v-8.767H29.59v8.089l-2.904-1.677v-4.781h-1.174v32.624c0 4.62 3.613 8.375 8.156 8.684v4.366h1.174v-4.366c4.543-.309 8.156-4.064 8.156-8.684V24.468h-1.174z" fill="#000"/><mask id="d" fill="#fff"><use xlink:href="#c"/></mask><path stroke="#0062FF" mask="url(#d)" d="M19.574 71.773h52.199V19.574H19.574z"/><path stroke="#0062FF" mask="url(#d)" d="M6.525 84.823h78.298V6.525H6.525z"/><path fill="#FFF" mask="url(#d)" d="M71.773 19.574h13.05V6.524h-13.05z"/><path stroke="#0062FF" mask="url(#d)" d="M71.773 19.574h13.05V6.524h-13.05z"/><path fill="#FFF" mask="url(#d)" d="M6.525 19.574h13.05V6.524H6.524z"/><path stroke="#0062FF" mask="url(#d)" d="M6.525 19.574h13.05V6.524H6.524z"/><path fill="#FFF" mask="url(#d)" d="M71.773 84.823h13.05v-13.05h-13.05z"/><path stroke="#0062FF" mask="url(#d)" d="M71.773 84.823h13.05v-13.05h-13.05z"/><path fill="#FFF" mask="url(#d)" d="M6.525 84.823h13.05v-13.05H6.524z"/><path stroke="#0062FF" mask="url(#d)" d="M6.525 84.823h13.05v-13.05H6.524z"/></g><path d="M249 199.383c0 25.225-20.449 45.674-45.674 45.674-25.225 0-45.674-20.45-45.674-45.674 0-25.225 20.45-45.674 45.674-45.674 25.225 0 45.674 20.449 45.674 45.674" fill="#000"/><path d="M215.332 218.31v-5.537l6.982-4.032v2.06c0 3.973-3.087 7.205-6.982 7.51zm-8.156-7.509v-2.06l6.982 4.032v5.538c-3.896-.305-6.982-3.537-6.982-7.51zm6.982-22.455v6.757l-6.982-4.031v-6.756l6.982 4.03zm8.156-4.03v6.756l-6.982 4.031v-6.757l6.982-4.03zm0 15.042l-6.982 4.03v-6.927l6.982-4.032v6.93zm-15.138 1.357l6.982 4.03v6.67l-6.982-4.031v-6.669zm6.982 2.674l-6.982-4.03v-6.93l6.982 4.032v6.928zm8.156 3.995l-6.982 4.031v-6.67l6.982-4.03v6.669zm0-29.207v4.782l-2.904 1.676v-8.089h-1.174v8.767l-2.904 1.676v-12.074h-1.174v12.074l-2.904-1.676v-8.767h-1.174v8.089l-2.904-1.676v-4.782h-1.174v32.624c0 4.62 3.612 8.376 8.156 8.684v4.366h1.174v-4.366c4.543-.308 8.156-4.064 8.156-8.684v-32.624h-1.174zm-29.819 40.133v-5.537l6.982-4.032v2.06c0 3.973-3.087 7.205-6.982 7.51zm-8.156-7.509v-2.06l6.982 4.032v5.538c-3.895-.305-6.982-3.537-6.982-7.51zm6.982-22.455v6.757l-6.982-4.031v-6.756l6.982 4.03zm8.156-4.03v6.756l-6.982 4.031v-6.757l6.982-4.03zm0 15.042l-6.982 4.03v-6.927l6.982-4.032v6.93zm-15.138 1.357l6.982 4.03v6.67l-6.982-4.031v-6.669zm6.982 2.674l-6.982-4.03v-6.93l6.982 4.032v6.928zm8.156 3.995l-6.982 4.031v-6.67l6.982-4.03v6.669zm0-29.207v4.782l-2.904 1.676v-8.089h-1.174v8.767l-2.904 1.676v-12.074h-1.174v12.074l-2.904-1.676v-8.767h-1.174v8.089l-2.904-1.676v-4.782h-1.174v32.624c0 4.62 3.612 8.376 8.156 8.684v4.366h1.174v-4.366c4.543-.308 8.156-4.064 8.156-8.684v-32.624h-1.174z" fill="#FFF"/></g></svg>