<svg xmlns="http://www.w3.org/2000/svg" xmlns:xlink="http://www.w3.org/1999/xlink" viewBox="0 0 928 522"><defs><path id="a" d="M0 337h337V0H0z"/></defs><g fill="none" fill-rule="evenodd"><path fill="#FFF" d="M0 0h928v522H0z"/><path d="M644.232 266v-1.036h2.73v-7.672l-2.758 1.638-.462-.896 3.108-1.806h1.288v8.736h2.52V266h-6.426zm14.63 0h-6.412v-1.204l3.192-2.94a7.1 7.1 0 001.148-1.337c.308-.471.462-.945.462-1.421v-.168c0-.541-.15-.98-.448-1.316-.299-.336-.751-.504-1.358-.504-.299 0-.56.042-.784.126-.224.084-.418.2-.581.35-.163.15-.299.324-.406.525a3.21 3.21 0 00-.259.651l-1.05-.406c.093-.29.222-.572.385-.847s.369-.52.616-.735c.247-.215.546-.387.896-.518.35-.13.763-.196 1.239-.196.476 0 .9.07 1.274.21.373.14.686.336.938.588.252.252.446.55.581.896.135.345.203.728.203 1.148a3.4 3.4 0 01-.161 1.064 4.145 4.145 0 01-.441.931 5.657 5.657 0 01-.679.861c-.266.28-.553.56-.861.84l-2.632 2.366h5.138V266zm9.184 0h-1.414l-2.562-4.102h-.028L661.41 266h-1.274l3.22-4.928-3.136-4.844h1.414l2.45 3.892h.028l2.506-3.892h1.344l-3.136 4.76 3.22 5.012z" fill="#6F6F6F"/><path d="M368.5 357.5h192v-192h-192v192zm6-6h180v-180h-180v180z" fill="#DBDBDB"/><g transform="translate(296 93)"><path d="M156.47 92.832c-38.94 2.941-69.846 35.871-69.846 75.621 0 41.83 34.034 75.856 75.865 75.856 19.599 0 37.895-7.336 52.04-20.766-42.205-2.262-75.844-37.313-75.844-80.068 0-18.715 6.28-36.51 17.786-50.643m6.018 155.801c-44.212 0-80.183-35.971-80.183-80.18 0-43.775 35.47-79.728 79.066-80.15.794-.17 1.647.498 1.995 1.289a2.158 2.158 0 01-.392 2.344c-12.88 13.875-19.972 32.179-19.972 51.539 0 41.83 34.034 75.861 75.864 75.861.859 0 2.013.492 2.356 1.283.346.785.565 1.682-.021 2.315-15.161 16.33-36.562 25.699-58.713 25.699M228.5 106.338h-9.841V96.5a2.16 2.16 0 10-4.318 0v9.838H204.5a2.16 2.16 0 00-2.159 2.162 2.16 2.16 0 002.159 2.162h9.841v9.838a2.16 2.16 0 104.318 0v-9.838h9.841a2.16 2.16 0 002.159-2.162 2.16 2.16 0 00-2.159-2.162" fill="#000"/><path d="M192.5 130.338h-9.841V120.5a2.16 2.16 0 10-4.318 0v9.838H168.5a2.16 2.16 0 00-2.159 2.162 2.16 2.16 0 002.159 2.162h9.841v9.838a2.16 2.16 0 104.318 0v-9.838h9.841a2.16 2.16 0 002.159-2.162 2.16 2.16 0 00-2.159-2.162m60 54h-9.841V174.5a2.16 2.16 0 10-4.318 0v9.838H228.5a2.16 2.16 0 00-2.159 2.162 2.16 2.16 0 002.159 2.162h9.841v9.838a2.16 2.16 0 104.318 0v-9.838h9.841a2.16 2.16 0 002.159-2.162 2.16 2.16 0 00-2.159-2.162" fill="#000"/><mask id="b" fill="#fff"><use xlink:href="#a"/></mask><path fill="#F975A5" mask="url(#b)" d="M258.5 78.5h6v-6h-6z"/><path fill="#FFD0E2" mask="url(#b)" d="M264.5 84.5h48v-12h-48z"/><path fill="#F975A5" mask="url(#b)" d="M258.5 168.5h6v-6h-6z"/><path fill="#FFD0E2" mask="url(#b)" d="M264.5 174.5h72v-12h-72z"/><path d="M25 312h47v-47H25v47zm0-48h47V73H25v191zm0-192h47V25H25v47zm48 240h191v-47H73v47zm0-48h191V73H73v191zm0-192h191V25H73v47zm192 0h47V25h-47v47zm36 192h11V73h-11v191zm-24 0h11V73h-11v191zm12 0h11V73h-11v191zm-24 0h11V73h-11v191zm0 48h47v-47h-47v47zm-241 1h289V24H24v289zm300-82.5h1v-124h-1z" fill="#95C0FF" mask="url(#b)"/><path d="M168.5 1C76.14 1 1 76.141 1 168.5S76.14 336 168.5 336 336 260.859 336 168.5 260.86 1 168.5 1m0 336C75.589 337 0 261.411 0 168.5S75.589 0 168.5 0 337 75.589 337 168.5 261.411 337 168.5 337" fill="#006AFE" mask="url(#b)"/><path fill="#0062FF" mask="url(#b)" d="M264.5 84.5h6v-6h-6zm0 90h6v-6h-6zm6-95.681h6v-6h-6zm0 89.681h6v-6h-6zm6-84h6v-6h-6zm0 90h6v-6h-6zm6-95.681h6v-6h-6zm0 89.681h6v-6h-6zm6-84h6v-6h-6zm0 90h6v-6h-6zm6-95.681h6v-6h-6zm0 89.681h6v-6h-6zm6-84h6v-6h-6zm0 90h6v-6h-6zm6-95.681h6v-6h-6zm0 89.681h6v-6h-6zm6 6h6v-6h-6zm6-6h6v-6h-6zm6 6h6v-6h-6zm6-6h6v-6h-6z"/><path fill="#006AFE" mask="url(#b)" d="M173.5 167.815H169v-4.5h-1v4.5h-4.5v1h4.5v4.5h1v-4.5h4.5z"/></g><path d="M625.2 147.168c-.56 0-1.05-.072-1.47-.217a3.092 3.092 0 01-1.057-.595c-.285-.252-.5-.55-.644-.896a2.87 2.87 0 01-.217-1.12c0-.672.182-1.204.546-1.596.364-.392.84-.667 1.428-.826v-.112a2.544 2.544 0 01-1.225-.861c-.303-.397-.455-.875-.455-1.435 0-.747.27-1.342.812-1.785.541-.443 1.302-.665 2.282-.665s1.74.222 2.282.665c.541.443.812 1.038.812 1.785 0 .56-.152 1.038-.455 1.435a2.544 2.544 0 01-1.225.861v.112c.588.159 1.064.434 1.428.826.364.392.546.924.546 1.596 0 .401-.072.775-.217 1.12a2.46 2.46 0 01-.644.896 3.1 3.1 0 01-1.057.595c-.42.145-.91.217-1.47.217zm0-1.022c.681 0 1.209-.152 1.582-.455.373-.303.56-.735.56-1.295v-.294c0-.56-.187-.992-.56-1.295-.373-.303-.9-.455-1.582-.455-.681 0-1.209.152-1.582.455-.373.303-.56.735-.56 1.295v.294c0 .56.187.992.56 1.295.373.303.9.455 1.582.455zm0-4.774c.616 0 1.083-.13 1.4-.392.317-.261.476-.644.476-1.148v-.21c0-.504-.159-.887-.476-1.148-.317-.261-.784-.392-1.4-.392-.616 0-1.083.13-1.4.392-.317.261-.476.644-.476 1.148v.21c0 .504.159.887.476 1.148.317.261.784.392 1.4.392zM637.646 147h-1.414l-2.562-4.102h-.028L631.01 147h-1.274l3.22-4.928-3.136-4.844h1.414l2.45 3.892h.028l2.506-3.892h1.344l-3.136 4.76 3.22 5.012z" fill="#6F6F6F"/></g></svg>