<?xml version="1.0" encoding="UTF-8"?>
<svg width="288px" height="288px" viewBox="0 0 288 288" version="1.1" xmlns="http://www.w3.org/2000/svg" xmlns:xlink="http://www.w3.org/1999/xlink">
    <!-- Generator: Sketch 52.4 (67378) - http://www.bohemiancoding.com/sketch -->
    <title>Artboard</title>
    <desc>Created with Sketch.</desc>
    <g id="Artboard" stroke="none" stroke-width="1" fill="none" fill-rule="evenodd">
        <rect id="Rectangle-3-Copy-45" fill="#FFFFFF" x="0" y="0" width="288" height="288"></rect>
        <g id="Group-5-Copy" transform="translate(52.000000, 52.000000)">
            <path d="M184,92 C184,142.810286 142.810286,184 92,184 C41.1897143,184 0,142.810286 0,92 C0,41.1897143 41.1897143,0 92,0 C142.810286,0 184,41.1897143 184,92" id="Fill-1" fill="#000000"></path>
            <path d="M140.103186,113.815829 L117.875329,113.815829 L117.875329,55.8558286 C117.875329,55.2019714 117.346329,54.6729714 116.692471,54.6729714 L93.1831857,54.6729714 L93.1831857,43.8991143 L140.103186,43.8991143 L140.103186,113.815829 Z M115.509614,126.958686 L93.1831857,126.958686 L93.1831857,68.9986857 C93.1831857,68.3448286 92.6541857,67.8158286 92.0003286,67.8158286 L68.5896143,67.8158286 L68.5896143,57.0419714 L115.509614,57.0419714 L115.509614,126.958686 Z M43.8974714,140.101543 L90.8174714,140.101543 L90.8174714,70.1848286 L43.8974714,70.1848286 L43.8974714,140.101543 Z M141.286043,41.5301143 L92.0003286,41.5301143 C91.3464714,41.5301143 90.8174714,42.0591143 90.8174714,42.7129714 L90.8174714,54.6729714 L67.4067571,54.6729714 C66.7529,54.6729714 66.2239,55.2019714 66.2239,55.8558286 L66.2239,67.8158286 L42.7146143,67.8158286 C42.0607571,67.8158286 41.5317571,68.3448286 41.5317571,68.9986857 L41.5317571,141.2844 C41.5317571,141.941543 42.0607571,142.470543 42.7146143,142.470543 L92.0003286,142.470543 C92.6541857,142.470543 93.1831857,141.941543 93.1831857,141.2844 L93.1831857,129.327686 L116.692471,129.327686 C117.346329,129.327686 117.875329,128.798686 117.875329,128.141543 L117.875329,116.184829 L141.286043,116.184829 C141.9399,116.184829 142.4689,115.655829 142.4689,114.998686 L142.4689,42.7129714 C142.4689,42.0591143 141.9399,41.5301143 141.286043,41.5301143 Z" id="Fill-3" fill="#FFFFFF"></path>
        </g>
    </g>
</svg>