<svg xmlns="http://www.w3.org/2000/svg" viewBox="0 0 288 288"><g fill="none" fill-rule="evenodd"><path fill="#FFF" d="M0 0h288v288H0z"/><path fill="#000" d="M144 43L57 93.257v100.514l87 50.258 87-50.258V93.257z"/><path d="M117.558 188.048l20.516-32.933c1.535-2.11 2.866-3.253 5.494-3.253 2.635 0 3.996 1.187 5.408 3.168l20.24 33.048a6.5 6.5 0 00.621.85h-52.926c.233-.275.457-.561.647-.88zm-9.223-5.467l24.752-41.279c.108-.18.167-.39.167-.608v-19.586c0-.65-.529-1.18-1.183-1.18h-26.285a3.753 3.753 0 01-3.746-3.748 3.752 3.752 0 013.746-3.746h32.338c.654 0 1.183-.53 1.183-1.183 0-.41-.224-.752-.54-.966l.01-.016a8.671 8.671 0 01-3.88-7.232c0-4.781 3.89-8.675 8.674-8.675 4.784 0 8.675 3.894 8.675 8.675a8.663 8.663 0 01-3.88 7.232l.012.016c-.318.21-.542.555-.542.966 0 .654.53 1.183 1.183 1.183h32.338a3.752 3.752 0 013.746 3.746 3.753 3.753 0 01-3.746 3.749h-26.286c-.653 0-1.182.529-1.182 1.18l.003 19.641c0 .21.056.42.16.601l24.397 41.282a4.179 4.179 0 01-1.475 5.717 4.186 4.186 0 01-5.73-1.491l-20.293-33.134c-1.564-2.194-3.542-4.225-7.383-4.225-3.999 0-5.917 2.178-7.455 4.294l-20.579 33.025a4.182 4.182 0 01-5.717 1.479c-1.984-1.173-2.648-3.74-1.482-5.717zm87.808 6.348h-16.287c1.718-2.067 2.07-5.057.63-7.502l-24.232-41.002-.003-18.134h25.106a6.119 6.119 0 006.112-6.111c0-3.368-2.744-6.109-6.112-6.109h-29.335c1.63-1.958 2.59-4.416 2.59-7.034 0-6.085-4.952-11.037-11.04-11.037-6.089 0-11.04 4.952-11.04 11.037 0 2.618.959 5.076 2.589 7.034h-29.335c-3.368 0-6.112 2.74-6.112 6.109a6.119 6.119 0 006.112 6.111h25.103v18.078l-24.587 41.002c-1.456 2.468-1.078 5.488.68 7.558H91v2.362h83.848c.01 0 .017.003.026.003l.023-.003h21.246v-2.362z" fill="#FFF"/></g></svg>