<?xml version="1.0" encoding="UTF-8"?>
<svg width="928px" height="522px" viewBox="0 0 928 522" version="1.1" xmlns="http://www.w3.org/2000/svg" xmlns:xlink="http://www.w3.org/1999/xlink">
    <!-- Generator: Sketch 52.5 (67469) - http://www.bohemiancoding.com/sketch -->
    <title>Artboard Copy 12</title>
    <desc>Created with Sketch.</desc>
    <defs>
        <polygon id="path-1" points="0 184 184 184 184 0 0 0"></polygon>
        <polygon id="path-3" points="0 184 184 184 184 0 0 0"></polygon>
        <polygon id="path-5" points="0 184 184 184 184 0 0 0"></polygon>
        <polygon id="path-7" points="0 184 184 184 184 0 0 0"></polygon>
    </defs>
    <g id="Artboard-Copy-12" stroke="none" stroke-width="1" fill="none" fill-rule="evenodd">
        <polygon id="Fill-1-Copy-6" fill="#FFFFFF" points="0 522 928 522 928 0 0 0"></polygon>
        <g id="Group-27-Copy" transform="translate(253.000000, 58.000000)">
            <g id="Group-39">
                <rect id="Rectangle" fill="#DCDCDC" fill-rule="nonzero" x="13.1428571" y="13.1428571" width="157.714286" height="157.714286"></rect>
                <path d="M116.182507,130.12629 L116.182507,118.970632 L130.24624,110.850099 L130.24624,114.999737 C130.24624,123.001985 124.028792,129.511204 116.182507,130.12629 Z M99.7539352,114.999737 L99.7539352,110.850099 L113.817669,118.970632 L113.817669,130.12629 C105.971383,129.511204 99.7539352,123.001985 99.7539352,114.999737 Z M113.817669,69.7690324 L113.817669,83.378899 L99.7539352,75.2592419 L99.7539352,61.6502514 L113.817669,69.7690324 Z M130.24624,61.6502514 L130.24624,75.2592419 L116.182507,83.378899 L116.182507,69.7690324 L130.24624,61.6502514 Z M130.24624,91.9497943 L116.182507,100.068575 L116.182507,86.1134895 L130.24624,77.9929562 L130.24624,91.9497943 Z M99.7539352,94.6835086 L113.817669,102.80229 L113.817669,116.236042 L99.7539352,108.116385 L99.7539352,94.6835086 Z M113.817669,100.068575 L99.7539352,91.9497943 L99.7539352,77.9929562 L113.817669,86.1134895 L113.817669,100.068575 Z M130.24624,108.116385 L116.182507,116.236042 L116.182507,102.80229 L130.24624,94.6835086 L130.24624,108.116385 Z M130.24624,49.2854514 L130.24624,58.9165371 L124.396792,62.2933752 L124.396792,45.9997371 L122.031954,45.9997371 L122.031954,63.65848 L116.182507,67.0353181 L116.182507,42.7140229 L113.817669,42.7140229 L113.817669,67.0353181 L107.968221,63.65848 L107.968221,45.9997371 L105.603383,45.9997371 L105.603383,62.2933752 L99.7539352,58.9165371 L99.7539352,49.2854514 L97.3890971,49.2854514 L97.3890971,114.999737 C97.3890971,124.305756 104.665859,131.869909 113.817669,132.491128 L113.817669,141.285451 L116.182507,141.285451 L116.182507,132.491128 C125.33344,131.869909 132.611078,124.305756 132.611078,114.999737 L132.611078,49.2854514 L130.24624,49.2854514 Z" id="Fill-3" fill="#000000"></path>
                <path d="M70.1825067,130.12629 L70.1825067,118.970632 L84.24624,110.850099 L84.24624,114.999737 C84.24624,123.001985 78.0287924,129.511204 70.1825067,130.12629 Z M53.7539352,114.999737 L53.7539352,110.850099 L67.8176686,118.970632 L67.8176686,130.12629 C59.9713829,129.511204 53.7539352,123.001985 53.7539352,114.999737 Z M67.8176686,69.7690324 L67.8176686,83.378899 L53.7539352,75.2592419 L53.7539352,61.6502514 L67.8176686,69.7690324 Z M84.24624,61.6502514 L84.24624,75.2592419 L70.1825067,83.378899 L70.1825067,69.7690324 L84.24624,61.6502514 Z M84.24624,91.9497943 L70.1825067,100.068575 L70.1825067,86.1134895 L84.24624,77.9929562 L84.24624,91.9497943 Z M53.7539352,94.6835086 L67.8176686,102.80229 L67.8176686,116.236042 L53.7539352,108.116385 L53.7539352,94.6835086 Z M67.8176686,100.068575 L53.7539352,91.9497943 L53.7539352,77.9929562 L67.8176686,86.1134895 L67.8176686,100.068575 Z M84.24624,108.116385 L70.1825067,116.236042 L70.1825067,102.80229 L84.24624,94.6835086 L84.24624,108.116385 Z M84.24624,49.2854514 L84.24624,58.9165371 L78.3967924,62.2933752 L78.3967924,45.9997371 L76.0319543,45.9997371 L76.0319543,63.65848 L70.1825067,67.0353181 L70.1825067,42.7140229 L67.8176686,42.7140229 L67.8176686,67.0353181 L61.968221,63.65848 L61.968221,45.9997371 L59.6033829,45.9997371 L59.6033829,62.2933752 L53.7539352,58.9165371 L53.7539352,49.2854514 L51.3890971,49.2854514 L51.3890971,114.999737 C51.3890971,124.305756 58.665859,131.869909 67.8176686,132.491128 L67.8176686,141.285451 L70.1825067,141.285451 L70.1825067,132.491128 C79.33344,131.869909 86.6110781,124.305756 86.6110781,114.999737 L86.6110781,49.2854514 L84.24624,49.2854514 Z" id="Fill-5" fill="#000000"></path>
                <mask id="mask-2" fill="white">
                    <use xlink:href="#path-1"></use>
                </mask>
                <g id="Clip-8"></g>
                <polygon id="Stroke-7" stroke="#0062FF" mask="url(#mask-2)" points="39.4285714 144.571429 144.571429 144.571429 144.571429 39.4285714 39.4285714 39.4285714"></polygon>
                <polygon id="Stroke-9" stroke="#0062FF" mask="url(#mask-2)" points="13.1428571 170.857143 170.857143 170.857143 170.857143 13.1428571 13.1428571 13.1428571"></polygon>
                <polygon id="Fill-10" fill="#FFFFFF" mask="url(#mask-2)" points="144.571429 39.4285714 170.857143 39.4285714 170.857143 13.1428571 144.571429 13.1428571"></polygon>
                <polygon id="Stroke-11" stroke="#0062FF" mask="url(#mask-2)" points="144.571429 39.4285714 170.857143 39.4285714 170.857143 13.1428571 144.571429 13.1428571"></polygon>
                <polygon id="Fill-12" fill="#FFFFFF" mask="url(#mask-2)" points="13.1428571 39.4285714 39.4285714 39.4285714 39.4285714 13.1428571 13.1428571 13.1428571"></polygon>
                <polygon id="Stroke-13" stroke="#0062FF" mask="url(#mask-2)" points="13.1428571 39.4285714 39.4285714 39.4285714 39.4285714 13.1428571 13.1428571 13.1428571"></polygon>
                <polygon id="Fill-14" fill="#FFFFFF" mask="url(#mask-2)" points="144.571429 170.857143 170.857143 170.857143 170.857143 144.571429 144.571429 144.571429"></polygon>
                <polygon id="Stroke-15" stroke="#0062FF" mask="url(#mask-2)" points="144.571429 170.857143 170.857143 170.857143 170.857143 144.571429 144.571429 144.571429"></polygon>
                <polygon id="Fill-16" fill="#FFFFFF" mask="url(#mask-2)" points="13.1428571 170.857143 39.4285714 170.857143 39.4285714 144.571429 13.1428571 144.571429"></polygon>
                <polygon id="Stroke-17" stroke="#0062FF" mask="url(#mask-2)" points="13.1428571 170.857143 39.4285714 170.857143 39.4285714 144.571429 13.1428571 144.571429"></polygon>
            </g>
            <g id="Group-39-Copy" transform="translate(0.000000, 223.000000)">
                <rect id="Rectangle" fill="#000000" fill-rule="nonzero" x="13.1428571" y="13.1428571" width="157.714286" height="157.714286"></rect>
                <path d="M116.182507,130.12629 L116.182507,118.970632 L130.24624,110.850099 L130.24624,114.999737 C130.24624,123.001985 124.028792,129.511204 116.182507,130.12629 Z M99.7539352,114.999737 L99.7539352,110.850099 L113.817669,118.970632 L113.817669,130.12629 C105.971383,129.511204 99.7539352,123.001985 99.7539352,114.999737 Z M113.817669,69.7690324 L113.817669,83.378899 L99.7539352,75.2592419 L99.7539352,61.6502514 L113.817669,69.7690324 Z M130.24624,61.6502514 L130.24624,75.2592419 L116.182507,83.378899 L116.182507,69.7690324 L130.24624,61.6502514 Z M130.24624,91.9497943 L116.182507,100.068575 L116.182507,86.1134895 L130.24624,77.9929562 L130.24624,91.9497943 Z M99.7539352,94.6835086 L113.817669,102.80229 L113.817669,116.236042 L99.7539352,108.116385 L99.7539352,94.6835086 Z M113.817669,100.068575 L99.7539352,91.9497943 L99.7539352,77.9929562 L113.817669,86.1134895 L113.817669,100.068575 Z M130.24624,108.116385 L116.182507,116.236042 L116.182507,102.80229 L130.24624,94.6835086 L130.24624,108.116385 Z M130.24624,49.2854514 L130.24624,58.9165371 L124.396792,62.2933752 L124.396792,45.9997371 L122.031954,45.9997371 L122.031954,63.65848 L116.182507,67.0353181 L116.182507,42.7140229 L113.817669,42.7140229 L113.817669,67.0353181 L107.968221,63.65848 L107.968221,45.9997371 L105.603383,45.9997371 L105.603383,62.2933752 L99.7539352,58.9165371 L99.7539352,49.2854514 L97.3890971,49.2854514 L97.3890971,114.999737 C97.3890971,124.305756 104.665859,131.869909 113.817669,132.491128 L113.817669,141.285451 L116.182507,141.285451 L116.182507,132.491128 C125.33344,131.869909 132.611078,124.305756 132.611078,114.999737 L132.611078,49.2854514 L130.24624,49.2854514 Z" id="Fill-3" fill="#FFFFFF"></path>
                <path d="M70.1825067,130.12629 L70.1825067,118.970632 L84.24624,110.850099 L84.24624,114.999737 C84.24624,123.001985 78.0287924,129.511204 70.1825067,130.12629 Z M53.7539352,114.999737 L53.7539352,110.850099 L67.8176686,118.970632 L67.8176686,130.12629 C59.9713829,129.511204 53.7539352,123.001985 53.7539352,114.999737 Z M67.8176686,69.7690324 L67.8176686,83.378899 L53.7539352,75.2592419 L53.7539352,61.6502514 L67.8176686,69.7690324 Z M84.24624,61.6502514 L84.24624,75.2592419 L70.1825067,83.378899 L70.1825067,69.7690324 L84.24624,61.6502514 Z M84.24624,91.9497943 L70.1825067,100.068575 L70.1825067,86.1134895 L84.24624,77.9929562 L84.24624,91.9497943 Z M53.7539352,94.6835086 L67.8176686,102.80229 L67.8176686,116.236042 L53.7539352,108.116385 L53.7539352,94.6835086 Z M67.8176686,100.068575 L53.7539352,91.9497943 L53.7539352,77.9929562 L67.8176686,86.1134895 L67.8176686,100.068575 Z M84.24624,108.116385 L70.1825067,116.236042 L70.1825067,102.80229 L84.24624,94.6835086 L84.24624,108.116385 Z M84.24624,49.2854514 L84.24624,58.9165371 L78.3967924,62.2933752 L78.3967924,45.9997371 L76.0319543,45.9997371 L76.0319543,63.65848 L70.1825067,67.0353181 L70.1825067,42.7140229 L67.8176686,42.7140229 L67.8176686,67.0353181 L61.968221,63.65848 L61.968221,45.9997371 L59.6033829,45.9997371 L59.6033829,62.2933752 L53.7539352,58.9165371 L53.7539352,49.2854514 L51.3890971,49.2854514 L51.3890971,114.999737 C51.3890971,124.305756 58.665859,131.869909 67.8176686,132.491128 L67.8176686,141.285451 L70.1825067,141.285451 L70.1825067,132.491128 C79.33344,131.869909 86.6110781,124.305756 86.6110781,114.999737 L86.6110781,49.2854514 L84.24624,49.2854514 Z" id="Fill-5" fill="#FFFFFF"></path>
                <mask id="mask-4" fill="white">
                    <use xlink:href="#path-3"></use>
                </mask>
                <g id="Clip-8"></g>
            </g>
            <g id="Group-18-Copy-2" transform="translate(239.000000, 0.000000)">
                <path d="M184,92 C184,142.810286 142.810286,184 92,184 C41.1897143,184 0,142.810286 0,92 C0,41.1897143 41.1897143,0 92,0 C142.810286,0 184,41.1897143 184,92" id="Fill-1" fill="#DDDDDD"></path>
                <path d="M116.182507,130.12629 L116.182507,118.970632 L130.24624,110.850099 L130.24624,114.999737 C130.24624,123.001985 124.028792,129.511204 116.182507,130.12629 Z M99.7539352,114.999737 L99.7539352,110.850099 L113.817669,118.970632 L113.817669,130.12629 C105.971383,129.511204 99.7539352,123.001985 99.7539352,114.999737 Z M113.817669,69.7690324 L113.817669,83.378899 L99.7539352,75.2592419 L99.7539352,61.6502514 L113.817669,69.7690324 Z M130.24624,61.6502514 L130.24624,75.2592419 L116.182507,83.378899 L116.182507,69.7690324 L130.24624,61.6502514 Z M130.24624,91.9497943 L116.182507,100.068575 L116.182507,86.1134895 L130.24624,77.9929562 L130.24624,91.9497943 Z M99.7539352,94.6835086 L113.817669,102.80229 L113.817669,116.236042 L99.7539352,108.116385 L99.7539352,94.6835086 Z M113.817669,100.068575 L99.7539352,91.9497943 L99.7539352,77.9929562 L113.817669,86.1134895 L113.817669,100.068575 Z M130.24624,108.116385 L116.182507,116.236042 L116.182507,102.80229 L130.24624,94.6835086 L130.24624,108.116385 Z M130.24624,49.2854514 L130.24624,58.9165371 L124.396792,62.2933752 L124.396792,45.9997371 L122.031954,45.9997371 L122.031954,63.65848 L116.182507,67.0353181 L116.182507,42.7140229 L113.817669,42.7140229 L113.817669,67.0353181 L107.968221,63.65848 L107.968221,45.9997371 L105.603383,45.9997371 L105.603383,62.2933752 L99.7539352,58.9165371 L99.7539352,49.2854514 L97.3890971,49.2854514 L97.3890971,114.999737 C97.3890971,124.305756 104.665859,131.869909 113.817669,132.491128 L113.817669,141.285451 L116.182507,141.285451 L116.182507,132.491128 C125.33344,131.869909 132.611078,124.305756 132.611078,114.999737 L132.611078,49.2854514 L130.24624,49.2854514 Z" id="Fill-3" fill="#000000"></path>
                <path d="M70.1825067,130.12629 L70.1825067,118.970632 L84.24624,110.850099 L84.24624,114.999737 C84.24624,123.001985 78.0287924,129.511204 70.1825067,130.12629 Z M53.7539352,114.999737 L53.7539352,110.850099 L67.8176686,118.970632 L67.8176686,130.12629 C59.9713829,129.511204 53.7539352,123.001985 53.7539352,114.999737 Z M67.8176686,69.7690324 L67.8176686,83.378899 L53.7539352,75.2592419 L53.7539352,61.6502514 L67.8176686,69.7690324 Z M84.24624,61.6502514 L84.24624,75.2592419 L70.1825067,83.378899 L70.1825067,69.7690324 L84.24624,61.6502514 Z M84.24624,91.9497943 L70.1825067,100.068575 L70.1825067,86.1134895 L84.24624,77.9929562 L84.24624,91.9497943 Z M53.7539352,94.6835086 L67.8176686,102.80229 L67.8176686,116.236042 L53.7539352,108.116385 L53.7539352,94.6835086 Z M67.8176686,100.068575 L53.7539352,91.9497943 L53.7539352,77.9929562 L67.8176686,86.1134895 L67.8176686,100.068575 Z M84.24624,108.116385 L70.1825067,116.236042 L70.1825067,102.80229 L84.24624,94.6835086 L84.24624,108.116385 Z M84.24624,49.2854514 L84.24624,58.9165371 L78.3967924,62.2933752 L78.3967924,45.9997371 L76.0319543,45.9997371 L76.0319543,63.65848 L70.1825067,67.0353181 L70.1825067,42.7140229 L67.8176686,42.7140229 L67.8176686,67.0353181 L61.968221,63.65848 L61.968221,45.9997371 L59.6033829,45.9997371 L59.6033829,62.2933752 L53.7539352,58.9165371 L53.7539352,49.2854514 L51.3890971,49.2854514 L51.3890971,114.999737 C51.3890971,124.305756 58.665859,131.869909 67.8176686,132.491128 L67.8176686,141.285451 L70.1825067,141.285451 L70.1825067,132.491128 C79.33344,131.869909 86.6110781,124.305756 86.6110781,114.999737 L86.6110781,49.2854514 L84.24624,49.2854514 Z" id="Fill-5" fill="#000000"></path>
                <mask id="mask-6" fill="white">
                    <use xlink:href="#path-5"></use>
                </mask>
                <g id="Clip-8"></g>
                <polygon id="Stroke-7" stroke="#0062FF" mask="url(#mask-6)" points="39.4285714 144.571429 144.571429 144.571429 144.571429 39.4285714 39.4285714 39.4285714"></polygon>
                <polygon id="Stroke-9" stroke="#0062FF" mask="url(#mask-6)" points="13.1428571 170.857143 170.857143 170.857143 170.857143 13.1428571 13.1428571 13.1428571"></polygon>
                <polygon id="Fill-10" fill="#FFFFFF" mask="url(#mask-6)" points="144.571429 39.4285714 170.857143 39.4285714 170.857143 13.1428571 144.571429 13.1428571"></polygon>
                <polygon id="Stroke-11" stroke="#0062FF" mask="url(#mask-6)" points="144.571429 39.4285714 170.857143 39.4285714 170.857143 13.1428571 144.571429 13.1428571"></polygon>
                <polygon id="Fill-12" fill="#FFFFFF" mask="url(#mask-6)" points="13.1428571 39.4285714 39.4285714 39.4285714 39.4285714 13.1428571 13.1428571 13.1428571"></polygon>
                <polygon id="Stroke-13" stroke="#0062FF" mask="url(#mask-6)" points="13.1428571 39.4285714 39.4285714 39.4285714 39.4285714 13.1428571 13.1428571 13.1428571"></polygon>
                <polygon id="Fill-14" fill="#FFFFFF" mask="url(#mask-6)" points="144.571429 170.857143 170.857143 170.857143 170.857143 144.571429 144.571429 144.571429"></polygon>
                <polygon id="Stroke-15" stroke="#0062FF" mask="url(#mask-6)" points="144.571429 170.857143 170.857143 170.857143 170.857143 144.571429 144.571429 144.571429"></polygon>
                <polygon id="Fill-16" fill="#FFFFFF" mask="url(#mask-6)" points="13.1428571 170.857143 39.4285714 170.857143 39.4285714 144.571429 13.1428571 144.571429"></polygon>
                <polygon id="Stroke-17" stroke="#0062FF" mask="url(#mask-6)" points="13.1428571 170.857143 39.4285714 170.857143 39.4285714 144.571429 13.1428571 144.571429"></polygon>
            </g>
            <g id="Group-18-Copy-4" transform="translate(239.000000, 223.000000)">
                <path d="M184,92 C184,142.810286 142.810286,184 92,184 C41.1897143,184 0,142.810286 0,92 C0,41.1897143 41.1897143,0 92,0 C142.810286,0 184,41.1897143 184,92" id="Fill-1" fill="#000000"></path>
                <path d="M116.182507,130.12629 L116.182507,118.970632 L130.24624,110.850099 L130.24624,114.999737 C130.24624,123.001985 124.028792,129.511204 116.182507,130.12629 Z M99.7539352,114.999737 L99.7539352,110.850099 L113.817669,118.970632 L113.817669,130.12629 C105.971383,129.511204 99.7539352,123.001985 99.7539352,114.999737 Z M113.817669,69.7690324 L113.817669,83.378899 L99.7539352,75.2592419 L99.7539352,61.6502514 L113.817669,69.7690324 Z M130.24624,61.6502514 L130.24624,75.2592419 L116.182507,83.378899 L116.182507,69.7690324 L130.24624,61.6502514 Z M130.24624,91.9497943 L116.182507,100.068575 L116.182507,86.1134895 L130.24624,77.9929562 L130.24624,91.9497943 Z M99.7539352,94.6835086 L113.817669,102.80229 L113.817669,116.236042 L99.7539352,108.116385 L99.7539352,94.6835086 Z M113.817669,100.068575 L99.7539352,91.9497943 L99.7539352,77.9929562 L113.817669,86.1134895 L113.817669,100.068575 Z M130.24624,108.116385 L116.182507,116.236042 L116.182507,102.80229 L130.24624,94.6835086 L130.24624,108.116385 Z M130.24624,49.2854514 L130.24624,58.9165371 L124.396792,62.2933752 L124.396792,45.9997371 L122.031954,45.9997371 L122.031954,63.65848 L116.182507,67.0353181 L116.182507,42.7140229 L113.817669,42.7140229 L113.817669,67.0353181 L107.968221,63.65848 L107.968221,45.9997371 L105.603383,45.9997371 L105.603383,62.2933752 L99.7539352,58.9165371 L99.7539352,49.2854514 L97.3890971,49.2854514 L97.3890971,114.999737 C97.3890971,124.305756 104.665859,131.869909 113.817669,132.491128 L113.817669,141.285451 L116.182507,141.285451 L116.182507,132.491128 C125.33344,131.869909 132.611078,124.305756 132.611078,114.999737 L132.611078,49.2854514 L130.24624,49.2854514 Z" id="Fill-3" fill="#FFFFFF"></path>
                <path d="M70.1825067,130.12629 L70.1825067,118.970632 L84.24624,110.850099 L84.24624,114.999737 C84.24624,123.001985 78.0287924,129.511204 70.1825067,130.12629 Z M53.7539352,114.999737 L53.7539352,110.850099 L67.8176686,118.970632 L67.8176686,130.12629 C59.9713829,129.511204 53.7539352,123.001985 53.7539352,114.999737 Z M67.8176686,69.7690324 L67.8176686,83.378899 L53.7539352,75.2592419 L53.7539352,61.6502514 L67.8176686,69.7690324 Z M84.24624,61.6502514 L84.24624,75.2592419 L70.1825067,83.378899 L70.1825067,69.7690324 L84.24624,61.6502514 Z M84.24624,91.9497943 L70.1825067,100.068575 L70.1825067,86.1134895 L84.24624,77.9929562 L84.24624,91.9497943 Z M53.7539352,94.6835086 L67.8176686,102.80229 L67.8176686,116.236042 L53.7539352,108.116385 L53.7539352,94.6835086 Z M67.8176686,100.068575 L53.7539352,91.9497943 L53.7539352,77.9929562 L67.8176686,86.1134895 L67.8176686,100.068575 Z M84.24624,108.116385 L70.1825067,116.236042 L70.1825067,102.80229 L84.24624,94.6835086 L84.24624,108.116385 Z M84.24624,49.2854514 L84.24624,58.9165371 L78.3967924,62.2933752 L78.3967924,45.9997371 L76.0319543,45.9997371 L76.0319543,63.65848 L70.1825067,67.0353181 L70.1825067,42.7140229 L67.8176686,42.7140229 L67.8176686,67.0353181 L61.968221,63.65848 L61.968221,45.9997371 L59.6033829,45.9997371 L59.6033829,62.2933752 L53.7539352,58.9165371 L53.7539352,49.2854514 L51.3890971,49.2854514 L51.3890971,114.999737 C51.3890971,124.305756 58.665859,131.869909 67.8176686,132.491128 L67.8176686,141.285451 L70.1825067,141.285451 L70.1825067,132.491128 C79.33344,131.869909 86.6110781,124.305756 86.6110781,114.999737 L86.6110781,49.2854514 L84.24624,49.2854514 Z" id="Fill-5" fill="#FFFFFF"></path>
                <mask id="mask-8" fill="white">
                    <use xlink:href="#path-7"></use>
                </mask>
                <g id="Clip-8"></g>
            </g>
        </g>
    </g>
</svg>