<?xml version="1.0" encoding="UTF-8"?>
<svg width="288px" height="288px" viewBox="0 0 288 288" version="1.1" xmlns="http://www.w3.org/2000/svg" xmlns:xlink="http://www.w3.org/1999/xlink">
    <!-- Generator: Sketch 52.5 (67469) - http://www.bohemiancoding.com/sketch -->
    <title>Artboard Copy 30</title>
    <desc>Created with Sketch.</desc>
    <g id="Artboard-Copy-30" stroke="none" stroke-width="1" fill="none" fill-rule="evenodd">
        <rect id="Rectangle-3-Copy-45" fill="#FFFFFF" x="0" y="0" width="288" height="288"></rect>
        <g id="Group-38-Copy" transform="translate(57.000000, 43.000000)">
            <polygon id="Fill-1" fill="#000000" points="86.9996171 1.76214598e-12 0 50.2574218 0 150.771499 86.9996171 201.028921 174 150.771499 174 50.2574218"></polygon>
            <path d="M60.5584286,145.048 L81.0744286,112.115286 C82.6088571,110.005857 83.9395714,108.862429 86.5681429,108.862429 C89.2032857,108.862429 90.5635714,110.048571 91.9764286,112.029857 L112.216429,145.077571 C112.397143,145.386429 112.614,145.659143 112.837429,145.928571 L59.9111429,145.928571 C60.1444286,145.652571 60.3678571,145.366714 60.5584286,145.048 Z M51.3354286,139.580571 L76.0867143,98.3021429 C76.1951429,98.1214286 76.2542857,97.9111429 76.2542857,97.6942857 L76.2542857,78.1081429 C76.2542857,77.4575714 75.7252857,76.9285714 75.0714286,76.9285714 L48.7857143,76.9285714 C46.7222857,76.9285714 45.04,75.2462857 45.04,73.1795714 C45.04,71.1161429 46.7222857,69.4338571 48.7857143,69.4338571 L81.1237143,69.4338571 C81.7775714,69.4338571 82.3065714,68.9048571 82.3065714,68.251 C82.3065714,67.8402857 82.0831429,67.4985714 81.7677143,67.285 L81.7775714,67.2685714 C79.3494286,65.652 77.8971429,62.9511429 77.8971429,60.0367143 C77.8971429,55.256 81.7874286,51.3624286 86.5714286,51.3624286 C91.3554286,51.3624286 95.2457143,55.256 95.2457143,60.0367143 C95.2457143,62.9511429 93.7967143,65.652 91.3652857,67.2685714 L91.3784286,67.285 C91.0597143,67.4952857 90.8362857,67.8402857 90.8362857,68.251 C90.8362857,68.9048571 91.3652857,69.4338571 92.0191429,69.4338571 L124.357143,69.4338571 C126.420571,69.4338571 128.102857,71.1161429 128.102857,73.1795714 C128.102857,75.2462857 126.420571,76.9285714 124.357143,76.9285714 L98.0714286,76.9285714 C97.4175714,76.9285714 96.8885714,77.4575714 96.8885714,78.1081429 L96.8918571,97.7501429 C96.8918571,97.9604286 96.9477143,98.1707143 97.0528571,98.3514286 L121.449286,139.633143 C122.619,141.614429 121.958571,144.180571 119.974,145.350286 C117.989429,146.52 115.423286,145.859571 114.243714,143.858571 L93.9511429,110.725429 C92.3871429,108.530571 90.4091429,106.5 86.5681429,106.5 C82.5694286,106.5 80.6505714,108.678429 79.1128571,110.794429 L58.5344286,143.819143 C57.3647143,145.803714 54.7985714,146.464143 52.8172857,145.297714 C50.8327143,144.124714 50.169,141.558571 51.3354286,139.580571 Z M139.142857,145.928571 L122.855571,145.928571 C124.574,143.861857 124.925571,140.871857 123.486429,138.427286 L99.2542857,97.4248571 L99.251,79.291 L124.357143,79.291 C127.725,79.291 130.468571,76.5507143 130.468571,73.1795714 C130.468571,69.8117143 127.725,67.0714286 124.357143,67.0714286 L95.0222857,67.0714286 C96.652,65.1131429 97.6114286,62.6554286 97.6114286,60.0367143 C97.6114286,53.9515714 92.6598571,49 86.5714286,49 C80.483,49 75.5314286,53.9515714 75.5314286,60.0367143 C75.5314286,62.6554286 76.4908571,65.1131429 78.1205714,67.0714286 L48.7857143,67.0714286 C45.4178571,67.0714286 42.6742857,69.8117143 42.6742857,73.1795714 C42.6742857,76.5507143 45.4178571,79.291 48.7857143,79.291 L73.8885714,79.291 L73.8885714,97.369 L49.3015714,138.371429 C47.846,140.839 48.2238571,143.858571 49.9817143,145.928571 L34,145.928571 L34,148.291 L117.848143,148.291 C117.858,148.291 117.864571,148.294286 117.874429,148.294286 C117.881,148.294286 117.890857,148.291 117.897429,148.291 L139.142857,148.291 L139.142857,145.928571 Z" id="Fill-2" fill="#FFFFFF"></path>
        </g>
    </g>
</svg>