<?xml version="1.0" encoding="UTF-8"?>
<svg width="288px" height="288px" viewBox="0 0 288 288" version="1.1" xmlns="http://www.w3.org/2000/svg" xmlns:xlink="http://www.w3.org/1999/xlink">
    <!-- Generator: Sketch 52.5 (67469) - http://www.bohemiancoding.com/sketch -->
    <title>Artboard Copy 31</title>
    <desc>Created with Sketch.</desc>
    <g id="Artboard-Copy-31" stroke="none" stroke-width="1" fill="none" fill-rule="evenodd">
        <rect id="Rectangle-3-Copy-45" fill="#FFFFFF" x="0" y="0" width="288" height="288"></rect>
        <g id="Group-5-Copy" transform="translate(52.000000, 52.000000)">
            <path d="M184,92 C184,142.810286 142.810286,184 92,184 C41.1897143,184 0,142.810286 0,92 C0,41.1897143 41.1897143,0 92,0 C142.810286,0 184,41.1897143 184,92" id="Fill-1" fill="#000000"></path>
            <path d="M65.987,135.938543 L86.503,103.005829 C88.0374286,100.8964 89.3681429,99.7529714 91.9967143,99.7529714 C94.6318571,99.7529714 95.9921429,100.939114 97.405,102.9204 L117.645,135.968114 C117.825714,136.276971 118.042571,136.549686 118.266,136.819114 L65.3397143,136.819114 C65.573,136.543114 65.7964286,136.260543 65.987,135.938543 Z M56.764,130.471114 L81.5152857,89.1926857 C81.6237143,89.0119714 81.6828571,88.8016857 81.6828571,88.5848286 L81.6828571,68.9986857 C81.6828571,68.3481143 81.1538571,67.8191143 80.5,67.8191143 L54.2142857,67.8191143 C52.1508571,67.8191143 50.4685714,66.1368286 50.4685714,64.0701143 C50.4685714,62.0066857 52.1508571,60.3244 54.2142857,60.3244 L86.5522857,60.3244 C87.2061429,60.3244 87.7351429,59.7954 87.7351429,59.1415429 C87.7351429,58.7308286 87.5117143,58.3891143 87.1962857,58.1755429 L87.2061429,58.1591143 C84.778,56.5425429 83.3257143,53.8416857 83.3257143,50.9272571 C83.3257143,46.1465429 87.216,42.2529714 92,42.2529714 C96.784,42.2529714 100.674286,46.1465429 100.674286,50.9272571 C100.674286,53.8416857 99.2252857,56.5425429 96.7938571,58.1591143 L96.807,58.1755429 C96.4882857,58.3858286 96.2648571,58.7308286 96.2648571,59.1415429 C96.2648571,59.7954 96.7938571,60.3244 97.4477143,60.3244 L129.785714,60.3244 C131.849143,60.3244 133.531429,62.0066857 133.531429,64.0701143 C133.531429,66.1368286 131.849143,67.8191143 129.785714,67.8191143 L103.5,67.8191143 C102.846143,67.8191143 102.317143,68.3481143 102.317143,68.9986857 L102.320429,88.6406857 C102.320429,88.8509714 102.376286,89.0612571 102.481429,89.2419714 L126.877857,130.523686 C128.047571,132.504971 127.387143,135.071114 125.402571,136.240829 C123.418,137.410543 120.851857,136.750114 119.672286,134.749114 L99.3797143,101.615971 C97.8157143,99.4211143 95.8377143,97.3905429 91.9967143,97.3905429 C87.998,97.3905429 86.0791429,99.5689714 84.5414286,101.684971 L63.963,134.709686 C62.7932857,136.694257 60.2271429,137.354686 58.2458571,136.188257 C56.2612857,135.015257 55.5975714,132.449114 56.764,130.471114 Z M144.571429,136.819114 L128.284143,136.819114 C130.002571,134.7524 130.354143,131.7624 128.915,129.317829 L104.682857,88.3154 L104.679571,70.1815429 L129.785714,70.1815429 C133.153571,70.1815429 135.897143,67.4412571 135.897143,64.0701143 C135.897143,60.7022571 133.153571,57.9619714 129.785714,57.9619714 L100.450857,57.9619714 C102.080571,56.0036857 103.04,53.5459714 103.04,50.9272571 C103.04,44.8421143 98.0884286,39.8905429 92,39.8905429 C85.9115714,39.8905429 80.96,44.8421143 80.96,50.9272571 C80.96,53.5459714 81.9194286,56.0036857 83.5491429,57.9619714 L54.2142857,57.9619714 C50.8464286,57.9619714 48.1028571,60.7022571 48.1028571,64.0701143 C48.1028571,67.4412571 50.8464286,70.1815429 54.2142857,70.1815429 L79.3171429,70.1815429 L79.3171429,88.2595429 L54.7301429,129.261971 C53.2745714,131.729543 53.6524286,134.7524 55.4102857,136.819114 L39.4285714,136.819114 L39.4285714,139.181543 L123.276714,139.181543 C123.286571,139.181543 123.293143,139.184829 123.303,139.184829 C123.309571,139.184829 123.319429,139.181543 123.326,139.181543 L144.571429,139.181543 L144.571429,136.819114 Z" id="Fill-3" fill="#FFFFFF"></path>
        </g>
    </g>
</svg>