<svg xmlns="http://www.w3.org/2000/svg" viewBox="0 0 288 288"><g fill="none" fill-rule="evenodd"><path fill="#FFF" d="M0 0h288v288H0z"/><path d="M236 144c0 50.81-41.19 92-92 92s-92-41.19-92-92 41.19-92 92-92 92 41.19 92 92" fill="#000"/><path d="M117.987 187.939l20.516-32.933c1.534-2.11 2.865-3.253 5.494-3.253 2.635 0 3.995 1.186 5.408 3.167l20.24 33.048c.18.309.398.582.621.851H117.34a6.52 6.52 0 00.647-.88zm-9.223-5.468l24.751-41.278c.109-.181.168-.391.168-.608v-19.586c0-.65-.53-1.18-1.183-1.18h-26.286a3.753 3.753 0 01-3.745-3.749 3.752 3.752 0 013.745-3.746h32.338c.654 0 1.183-.529 1.183-1.182 0-.411-.223-.753-.539-.966l.01-.017a8.671 8.671 0 01-3.88-7.232c0-4.78 3.89-8.674 8.674-8.674 4.784 0 8.674 3.894 8.674 8.674a8.663 8.663 0 01-3.88 7.232l.013.017c-.319.21-.542.555-.542.966 0 .653.529 1.182 1.183 1.182h32.338a3.752 3.752 0 013.745 3.746 3.753 3.753 0 01-3.745 3.75H155.5a1.18 1.18 0 00-1.183 1.179l.003 19.642c0 .21.056.42.161.601l24.397 41.282a4.179 4.179 0 01-1.475 5.717 4.186 4.186 0 01-5.73-1.492l-20.293-33.133c-1.564-2.195-3.542-4.225-7.383-4.225-3.999 0-5.918 2.178-7.456 4.294l-20.578 33.025a4.182 4.182 0 01-5.717 1.478c-1.985-1.173-2.648-3.739-1.482-5.717zm87.807 6.348h-16.287c1.719-2.067 2.07-5.057.631-7.501l-24.232-41.003-.003-18.133h25.106a6.119 6.119 0 006.111-6.112 6.117 6.117 0 00-6.111-6.108H152.45c1.63-1.958 2.589-4.416 2.589-7.035 0-6.085-4.952-11.036-11.04-11.036-6.088 0-11.04 4.951-11.04 11.036 0 2.619.96 5.077 2.59 7.035h-29.336a6.117 6.117 0 00-6.111 6.108 6.119 6.119 0 006.111 6.112h25.103v18.078l-24.587 41.002c-1.455 2.468-1.078 5.49.68 7.557H91.43v2.363h83.848c.01 0 .016.003.026.003l.023-.003h21.245v-2.363z" fill="#FFF"/></g></svg>