<svg xmlns="http://www.w3.org/2000/svg" xmlns:xlink="http://www.w3.org/1999/xlink" viewBox="0 0 928 522"><defs><path id="a" d="M0 184h184V0H0z"/><path id="c" d="M0 184h184V0H0z"/></defs><g fill="none" fill-rule="evenodd"><path fill="#FFF" d="M0 522h928V0H0z"/><g transform="translate(253 58)"><path fill="#DCDCDC" fill-rule="nonzero" d="M13.143 13.143h157.714v157.714H13.143z"/><path d="M116.183 130.126v-11.155l14.063-8.12V115c0 8.002-6.217 14.511-14.063 15.126zM99.753 115v-4.15l14.065 8.12v11.156c-7.847-.615-14.064-7.124-14.064-15.126zm14.065-45.231v13.61l-14.064-8.12V61.65l14.064 8.119zm16.428-8.119v13.61l-14.063 8.119v-13.61l14.063-8.119zm0 30.3l-14.063 8.119V86.113l14.063-8.12V91.95zm-30.492 2.734l14.064 8.118v13.434l-14.064-8.12V94.684zm14.064 5.385l-14.064-8.12V77.994l14.064 8.12v13.956zm16.428 8.047l-14.063 8.12v-13.434l14.063-8.118v13.432zm0-58.83v9.63l-5.85 3.377V46h-2.364v17.658l-5.85 3.377V42.714h-2.364v24.321l-5.85-3.377V46h-2.365v16.293l-5.85-3.376v-9.632H97.39V115c0 9.306 7.277 16.87 16.429 17.491v8.794h2.365v-8.794c9.15-.621 16.428-8.185 16.428-17.491V49.285h-2.365zm-60.063 80.84v-11.155l14.063-8.12V115c0 8.002-6.217 14.511-14.063 15.126zM53.753 115v-4.15l14.065 8.12v11.156c-7.847-.615-14.064-7.124-14.064-15.126zm14.065-45.231v13.61l-14.064-8.12V61.65l14.064 8.119zm16.428-8.119v13.61l-14.063 8.119v-13.61l14.063-8.119zm0 30.3l-14.063 8.119V86.113l14.063-8.12V91.95zm-30.492 2.734l14.064 8.118v13.434l-14.064-8.12V94.684zm14.064 5.385l-14.064-8.12V77.994l14.064 8.12v13.956zm16.428 8.047l-14.063 8.12v-13.434l14.063-8.118v13.432zm0-58.83v9.63l-5.85 3.377V46h-2.364v17.658l-5.85 3.377V42.714h-2.364v24.321l-5.85-3.377V46h-2.365v16.293l-5.85-3.376v-9.632H51.39V115c0 9.306 7.277 16.87 16.429 17.491v8.794h2.365v-8.794c9.15-.621 16.428-8.185 16.428-17.491V49.285h-2.365z" fill="#000"/><mask id="b" fill="#fff"><use xlink:href="#a"/></mask><path stroke="#0062FF" mask="url(#b)" d="M39.429 144.571H144.57V39.43H39.43z"/><path stroke="#0062FF" mask="url(#b)" d="M13.143 170.857h157.714V13.143H13.143z"/><path fill="#FFF" mask="url(#b)" d="M144.571 39.429h26.286V13.143h-26.286z"/><path stroke="#0062FF" mask="url(#b)" d="M144.571 39.429h26.286V13.143h-26.286z"/><path fill="#FFF" mask="url(#b)" d="M13.143 39.429h26.286V13.143H13.143z"/><path stroke="#0062FF" mask="url(#b)" d="M13.143 39.429h26.286V13.143H13.143z"/><path fill="#FFF" mask="url(#b)" d="M144.571 170.857h26.286v-26.286h-26.286z"/><path stroke="#0062FF" mask="url(#b)" d="M144.571 170.857h26.286v-26.286h-26.286z"/><path fill="#FFF" mask="url(#b)" d="M13.143 170.857h26.286v-26.286H13.143z"/><path stroke="#0062FF" mask="url(#b)" d="M13.143 170.857h26.286v-26.286H13.143z"/></g><path fill="#000" fill-rule="nonzero" d="M266.143 294.143h157.714v157.714H266.143z"/><path d="M369.183 411.126v-11.155l14.063-8.12V396c0 8.002-6.217 14.511-14.063 15.126zM352.753 396v-4.15l14.065 8.12v11.156c-7.847-.615-14.064-7.124-14.064-15.126zm14.065-45.231v13.61l-14.064-8.12V342.65l14.064 8.119zm16.428-8.119v13.61l-14.063 8.119v-13.61l14.063-8.119zm0 30.3l-14.063 8.119v-13.956l14.063-8.12v13.957zm-30.492 2.734l14.064 8.118v13.434l-14.064-8.12v-13.432zm14.064 5.385l-14.064-8.12v-13.956l14.064 8.12v13.956zm16.428 8.047l-14.063 8.12v-13.434l14.063-8.118v13.432zm0-58.83v9.63l-5.85 3.377V327h-2.364v17.658l-5.85 3.377v-24.321h-2.364v24.321l-5.85-3.377V327h-2.365v16.293l-5.85-3.376v-9.632h-2.364V396c0 9.306 7.277 16.87 16.429 17.491v8.794h2.365v-8.794c9.15-.621 16.428-8.185 16.428-17.491v-65.715h-2.365zm-60.063 80.84v-11.155l14.063-8.12V396c0 8.002-6.217 14.511-14.063 15.126zM306.753 396v-4.15l14.065 8.12v11.156c-7.847-.615-14.064-7.124-14.064-15.126zm14.065-45.231v13.61l-14.064-8.12V342.65l14.064 8.119zm16.428-8.119v13.61l-14.063 8.119v-13.61l14.063-8.119zm0 30.3l-14.063 8.119v-13.956l14.063-8.12v13.957zm-30.492 2.734l14.064 8.118v13.434l-14.064-8.12v-13.432zm14.064 5.385l-14.064-8.12v-13.956l14.064 8.12v13.956zm16.428 8.047l-14.063 8.12v-13.434l14.063-8.118v13.432zm0-58.83v9.63l-5.85 3.377V327h-2.364v17.658l-5.85 3.377v-24.321h-2.364v24.321l-5.85-3.377V327h-2.365v16.293l-5.85-3.376v-9.632h-2.364V396c0 9.306 7.277 16.87 16.429 17.491v8.794h2.365v-8.794c9.15-.621 16.428-8.185 16.428-17.491v-65.715h-2.365z" fill="#FFF"/><g transform="translate(492 58)"><path d="M184 92c0 50.81-41.19 92-92 92S0 142.81 0 92 41.19 0 92 0s92 41.19 92 92" fill="#DDD"/><path d="M116.183 130.126v-11.155l14.063-8.12V115c0 8.002-6.217 14.511-14.063 15.126zM99.753 115v-4.15l14.065 8.12v11.156c-7.847-.615-14.064-7.124-14.064-15.126zm14.065-45.231v13.61l-14.064-8.12V61.65l14.064 8.119zm16.428-8.119v13.61l-14.063 8.119v-13.61l14.063-8.119zm0 30.3l-14.063 8.119V86.113l14.063-8.12V91.95zm-30.492 2.734l14.064 8.118v13.434l-14.064-8.12V94.684zm14.064 5.385l-14.064-8.12V77.994l14.064 8.12v13.956zm16.428 8.047l-14.063 8.12v-13.434l14.063-8.118v13.432zm0-58.83v9.63l-5.85 3.377V46h-2.364v17.658l-5.85 3.377V42.714h-2.364v24.321l-5.85-3.377V46h-2.365v16.293l-5.85-3.376v-9.632H97.39V115c0 9.306 7.277 16.87 16.429 17.491v8.794h2.365v-8.794c9.15-.621 16.428-8.185 16.428-17.491V49.285h-2.365zm-60.063 80.84v-11.155l14.063-8.12V115c0 8.002-6.217 14.511-14.063 15.126zM53.753 115v-4.15l14.065 8.12v11.156c-7.847-.615-14.064-7.124-14.064-15.126zm14.065-45.231v13.61l-14.064-8.12V61.65l14.064 8.119zm16.428-8.119v13.61l-14.063 8.119v-13.61l14.063-8.119zm0 30.3l-14.063 8.119V86.113l14.063-8.12V91.95zm-30.492 2.734l14.064 8.118v13.434l-14.064-8.12V94.684zm14.064 5.385l-14.064-8.12V77.994l14.064 8.12v13.956zm16.428 8.047l-14.063 8.12v-13.434l14.063-8.118v13.432zm0-58.83v9.63l-5.85 3.377V46h-2.364v17.658l-5.85 3.377V42.714h-2.364v24.321l-5.85-3.377V46h-2.365v16.293l-5.85-3.376v-9.632H51.39V115c0 9.306 7.277 16.87 16.429 17.491v8.794h2.365v-8.794c9.15-.621 16.428-8.185 16.428-17.491V49.285h-2.365z" fill="#000"/><mask id="d" fill="#fff"><use xlink:href="#c"/></mask><path stroke="#0062FF" mask="url(#d)" d="M39.429 144.571H144.57V39.43H39.43z"/><path stroke="#0062FF" mask="url(#d)" d="M13.143 170.857h157.714V13.143H13.143z"/><path fill="#FFF" mask="url(#d)" d="M144.571 39.429h26.286V13.143h-26.286z"/><path stroke="#0062FF" mask="url(#d)" d="M144.571 39.429h26.286V13.143h-26.286z"/><path fill="#FFF" mask="url(#d)" d="M13.143 39.429h26.286V13.143H13.143z"/><path stroke="#0062FF" mask="url(#d)" d="M13.143 39.429h26.286V13.143H13.143z"/><path fill="#FFF" mask="url(#d)" d="M144.571 170.857h26.286v-26.286h-26.286z"/><path stroke="#0062FF" mask="url(#d)" d="M144.571 170.857h26.286v-26.286h-26.286z"/><path fill="#FFF" mask="url(#d)" d="M13.143 170.857h26.286v-26.286H13.143z"/><path stroke="#0062FF" mask="url(#d)" d="M13.143 170.857h26.286v-26.286H13.143z"/></g><path d="M676 373c0 50.81-41.19 92-92 92s-92-41.19-92-92 41.19-92 92-92 92 41.19 92 92" fill="#000"/><path d="M608.183 411.126v-11.155l14.063-8.12V396c0 8.002-6.217 14.511-14.063 15.126zM591.753 396v-4.15l14.065 8.12v11.156c-7.847-.615-14.064-7.124-14.064-15.126zm14.065-45.231v13.61l-14.064-8.12V342.65l14.064 8.119zm16.428-8.119v13.61l-14.063 8.119v-13.61l14.063-8.119zm0 30.3l-14.063 8.119v-13.956l14.063-8.12v13.957zm-30.492 2.734l14.064 8.118v13.434l-14.064-8.12v-13.432zm14.064 5.385l-14.064-8.12v-13.956l14.064 8.12v13.956zm16.428 8.047l-14.063 8.12v-13.434l14.063-8.118v13.432zm0-58.83v9.63l-5.85 3.377V327h-2.364v17.658l-5.85 3.377v-24.321h-2.364v24.321l-5.85-3.377V327h-2.365v16.293l-5.85-3.376v-9.632h-2.364V396c0 9.306 7.277 16.87 16.429 17.491v8.794h2.365v-8.794c9.15-.621 16.428-8.185 16.428-17.491v-65.715h-2.365zm-60.063 80.84v-11.155l14.063-8.12V396c0 8.002-6.217 14.511-14.063 15.126zM545.753 396v-4.15l14.065 8.12v11.156c-7.847-.615-14.064-7.124-14.064-15.126zm14.065-45.231v13.61l-14.064-8.12V342.65l14.064 8.119zm16.428-8.119v13.61l-14.063 8.119v-13.61l14.063-8.119zm0 30.3l-14.063 8.119v-13.956l14.063-8.12v13.957zm-30.492 2.734l14.064 8.118v13.434l-14.064-8.12v-13.432zm14.064 5.385l-14.064-8.12v-13.956l14.064 8.12v13.956zm16.428 8.047l-14.063 8.12v-13.434l14.063-8.118v13.432zm0-58.83v9.63l-5.85 3.377V327h-2.364v17.658l-5.85 3.377v-24.321h-2.364v24.321l-5.85-3.377V327h-2.365v16.293l-5.85-3.376v-9.632h-2.364V396c0 9.306 7.277 16.87 16.429 17.491v8.794h2.365v-8.794c9.15-.621 16.428-8.185 16.428-17.491v-65.715h-2.365z" fill="#FFF"/></g></svg>