<?xml version="1.0" encoding="UTF-8"?>
<svg width="288px" height="288px" viewBox="0 0 288 288" version="1.1" xmlns="http://www.w3.org/2000/svg" xmlns:xlink="http://www.w3.org/1999/xlink">
    <!-- Generator: Sketch 52.5 (67469) - http://www.bohemiancoding.com/sketch -->
    <title>Artboard Copy 67</title>
    <desc>Created with Sketch.</desc>
    <defs>
        <polygon id="path-1" points="0 128 256 128 256 0 0 0"></polygon>
    </defs>
    <g id="Artboard-Copy-67" stroke="none" stroke-width="1" fill="none" fill-rule="evenodd">
        <rect id="Rectangle-3-Copy-54" fill="#FFFFFF" x="0" y="0" width="288" height="288"></rect>
        <path d="M17.5084746,218.25 L17.5084746,220 L17,220 L17,216 L17.5084746,216 L17.5084746,217.75 L31.4915254,217.75 L31.4915254,216 L32,216 L32,220 L31.4915254,220 L31.4915254,218.25 L17.5084746,218.25 Z" id="Combined-Shape-Copy-10" fill="#97C1FF" fill-rule="nonzero"></path>
        <g id="Group-34-Copy-3" transform="translate(17.000000, 80.000000)">
            <polygon id="Fill-1" fill="#FFFFFF" points="0 128 256 128 256 0 0 0"></polygon>
            <g id="Group-33">
                <path d="M113.777778,64 C113.777778,91.4915556 91.4915556,113.777778 64,113.777778 C36.5084444,113.777778 14.2222222,91.4915556 14.2222222,64 C14.2222222,36.5084444 36.5084444,14.2222222 64,14.2222222 C91.4915556,14.2222222 113.777778,36.5084444 113.777778,64" id="Fill-2" fill="#000000"></path>
                <path d="M67.5747556,37.9681778 C67.3187556,37.9681778 67.0627556,38.0037333 66.8085333,38.0695111 C66.0529778,38.2721778 65.4236444,38.7539556 65.0360889,39.4259556 L59.7045333,48.6632889 C58.9009778,50.0552889 59.3792,51.8419556 60.7712,52.6455111 C62.1649778,53.4508444 63.9498667,52.9708444 64.7534222,51.5788444 L70.0867556,42.3397333 C70.4743111,41.6695111 70.5756444,40.8837333 70.3747556,40.1281778 C70.1720889,39.3744 69.6903111,38.7468444 69.0200889,38.3575111 C68.5738667,38.1015111 68.0778667,37.9681778 67.5747556,37.9681778 Z M62.2218667,54.3166222 C61.5107556,54.3166222 60.7889778,54.1352889 60.1312,53.7530667 C58.1276444,52.5975111 57.4378667,50.0286222 58.5952,48.0232889 L63.9285333,38.7841778 C64.4867556,37.8170667 65.3916444,37.1255111 66.4778667,36.8339556 C67.5623111,36.5441778 68.6929778,36.6917333 69.6600889,37.2499556 C70.6272,37.8081778 71.3205333,38.7112889 71.6103111,39.7992889 C71.9000889,40.8819556 71.7543111,42.0144 71.1960889,42.9815111 L65.8627556,52.2188444 C65.0858667,53.5628444 63.6725333,54.3166222 62.2218667,54.3166222 Z" id="Fill-4" fill="#FFFFFF"></path>
                <path d="M75.0373333,79.6545778 C74.5306667,79.6545778 74.0311111,79.7879111 73.5795556,80.0492444 C72.9022222,80.4385778 72.4186667,81.0661333 72.2195556,81.8163556 C72.0186667,82.5630222 72.1235556,83.3470222 72.5146667,84.0243556 C72.904,84.7016889 73.5315556,85.1852444 74.28,85.3861333 L84.584,88.1452444 C85.3324444,88.3496889 86.1164444,88.2430222 86.7937778,87.8501333 C87.4711111,87.4625778 87.9546667,86.8332444 88.1537778,86.0848 C88.5697778,84.5310222 87.6453333,82.9310222 86.0933333,82.5132444 L75.7893333,79.7541333 C75.5404444,79.6883556 75.288,79.6545778 75.0373333,79.6545778 M85.336,89.5265778 C84.9786667,89.5265778 84.6142222,89.4785778 84.2515556,89.3825778 L73.9493333,86.6216889 C72.8702222,86.3336889 71.9671111,85.6385778 71.4053333,84.6643556 C70.8435556,83.6919111 70.6942222,82.5630222 70.9822222,81.4821333 C71.272,80.4065778 71.9653333,79.5016889 72.9395556,78.9416889 C73.9137778,78.3781333 75.0444444,78.2270222 76.12,78.5168 L86.424,81.2776889 C87.5031111,81.5656889 88.4062222,82.2625778 88.968,83.2368 C89.5297778,84.2092444 89.6791111,85.3363556 89.3911111,86.4172444 C88.8897778,88.2874667 87.1884444,89.5265778 85.336,89.5265778" id="Fill-6" fill="#FFFFFF"></path>
                <path d="M46.2273778,66.0688 C45.2193778,66.0688 44.2362667,66.5914667 43.6976,67.5283556 L38.3642667,76.7639111 C37.9767111,77.4341333 37.8736,78.2181333 38.0762667,78.9754667 C38.2789333,79.7292444 38.7607111,80.3585778 39.4309333,80.7461333 C40.8247111,81.5496889 42.6113778,81.0732444 43.4131556,79.6794667 L48.7464889,70.4403556 C49.5500444,69.0483556 49.0718222,67.2634667 47.6798222,66.4581333 C47.2229333,66.1950222 46.7216,66.0688 46.2273778,66.0688 Z M40.8816,82.4172444 C40.1704889,82.4172444 39.4504889,82.2359111 38.7909333,81.8554667 C37.8238222,81.2972444 37.1304889,80.3923556 36.8407111,79.3061333 C36.5491556,78.2199111 36.6967111,77.0910222 37.2567111,76.1239111 L42.5900444,66.8848 C43.7456,64.8812444 46.3144889,64.1914667 48.3198222,65.3505778 C50.3233778,66.5061333 51.0113778,69.0803556 49.8558222,71.0839111 L44.5224889,80.3194667 C43.7456,81.6634667 42.3322667,82.4172444 40.8816,82.4172444 Z" id="Fill-8" fill="#FFFFFF"></path>
                <path d="M79.9895111,57.5242667 C79.4864,57.5242667 78.9904,57.6558222 78.5441778,57.9136 C77.8721778,58.3011556 77.3921778,58.9304889 77.1895111,59.6842667 C76.9868444,60.4416 77.0899556,61.2256 77.4757333,61.8958222 L82.8108444,71.1331556 C83.1984,71.8051556 83.8259556,72.2851556 84.5815111,72.4878222 C85.3335111,72.6869333 86.1192889,72.5891556 86.7930667,72.2016 C87.4650667,71.8122667 87.9450667,71.1847111 88.1477333,70.4309333 C88.3504,69.6736 88.2472889,68.8896 87.8597333,68.2193778 L82.5264,58.9802667 C82.1388444,58.3082667 81.5095111,57.8282667 80.7557333,57.6256 C80.5015111,57.5598222 80.2455111,57.5242667 79.9895111,57.5242667 M85.3495111,73.8691556 C84.9832889,73.8691556 84.6135111,73.8229333 84.2490667,73.7251556 C83.1646222,73.4336 82.2597333,72.7420444 81.7015111,71.7749333 L76.3681778,62.5358222 C75.8099556,61.5687111 75.6624,60.4398222 75.9521778,59.3536 C76.2437333,58.2673778 76.9370667,57.3642667 77.9041778,56.8060444 C78.8712889,56.2460444 80.0019556,56.0984889 81.0864,56.3882667 C82.1726222,56.6798222 83.0757333,57.3731556 83.6357333,58.3402667 L88.9672889,67.5776 C89.5272889,68.5447111 89.6748444,69.6753778 89.3832889,70.7598222 C89.0935111,71.8478222 88.4001778,72.7491556 87.4330667,73.3091556 C86.7895111,73.6807111 86.0748444,73.8691556 85.3495111,73.8691556" id="Fill-10" fill="#FFFFFF"></path>
                <path d="M51.8940444,43.3020444 C51.3891556,43.3020444 50.8949333,43.4336 50.4487111,43.6913778 L41.2113778,49.0247111 C40.5393778,49.4140444 40.0576,50.0416 39.8567111,50.7953778 C39.6540444,51.5527111 39.7553778,52.3367111 40.1429333,53.0069333 C40.5304889,53.6789333 41.1598222,54.1589333 41.9153778,54.3616 C42.6673778,54.5624889 43.4531556,54.4611556 44.1251556,54.0753778 L53.3642667,48.7402667 C54.0344889,48.3544889 54.5162667,47.7251556 54.7171556,46.9696 C54.9198222,46.2158222 54.8184889,45.4300444 54.4309333,44.7580444 C54.0433778,44.0860444 53.4140444,43.6060444 52.6602667,43.4033778 C52.4060444,43.3376 52.1500444,43.3020444 51.8940444,43.3020444 M42.6816,55.7429333 C42.3153778,55.7429333 41.9473778,55.6949333 41.5829333,55.5971556 C40.4984889,55.3073778 39.5936,54.6140444 39.0353778,53.6469333 C38.4771556,52.6798222 38.3296,51.5509333 38.6193778,50.4647111 C38.9109333,49.3784889 39.6024889,48.4753778 40.5696,47.9171556 L49.8087111,42.5838222 C50.7740444,42.0238222 51.9029333,41.8744889 52.9909333,42.1660444 C54.0753778,42.4576 54.9802667,43.1509333 55.5384889,44.1180444 C56.0984889,45.0869333 56.2442667,46.2158222 55.9544889,47.3020444 C55.6647111,48.3847111 54.9713778,49.2913778 54.0042667,49.8513778 L44.7669333,55.1829333 C44.1233778,55.5544889 43.4087111,55.7429333 42.6816,55.7429333" id="Fill-12" fill="#FFFFFF"></path>
                <path d="M59.0026667,78.8629333 C58.4995556,78.8629333 58.0035556,78.9944889 57.5573333,79.2522667 L48.32,84.5873778 C47.648,84.9731556 47.168,85.6007111 46.9653333,86.3580444 C46.7626667,87.1118222 46.864,87.8958222 47.2533333,88.5678222 C47.6391111,89.2398222 48.2684444,89.7198222 49.024,89.9242667 C49.7795556,90.1251556 50.5635556,90.0238222 51.2337778,89.6362667 L60.4728889,84.3029333 C61.1448889,83.9136 61.6248889,83.2842667 61.8275556,82.5304889 C62.0302222,81.7749333 61.9271111,80.9891556 61.5395556,80.3189333 C61.152,79.6469333 60.5226667,79.1669333 59.7688889,78.9660444 C59.5146667,78.8967111 59.2586667,78.8629333 59.0026667,78.8629333 M49.7831111,91.3056 C48.3342222,91.3056 46.9208889,90.5518222 46.144,89.2078222 C45.5857778,88.2389333 45.4382222,87.1118222 45.728,86.0238222 C46.0195556,84.9411556 46.7111111,84.0344889 47.6782222,83.4762667 L56.9173333,78.1447111 C57.8862222,77.5829333 59.0168889,77.4389333 60.0995556,77.7287111 C61.1857778,78.0184889 62.0888889,78.7118222 62.6488889,79.6789333 C63.2071111,80.6460444 63.3546667,81.7767111 63.0631111,82.8611556 C62.7733333,83.9473778 62.08,84.8504889 61.1128889,85.4104889 L51.8755556,90.7438222 C51.216,91.1242667 50.496,91.3056 49.7831111,91.3056" id="Fill-14" fill="#FFFFFF"></path>
                <path d="M77.8924444,41.5242667 C77.6364444,41.5242667 77.3804444,41.5598222 77.1262222,41.6256 C76.3724444,41.8282667 75.7431111,42.3082667 75.3555556,42.9802667 C74.968,43.6522667 74.8666667,44.4380444 75.0693333,45.1918222 C75.2702222,45.9473778 75.752,46.5767111 76.4222222,46.9624889 L85.6613333,52.2958222 C86.3315556,52.6833778 87.1173333,52.7847111 87.8711111,52.5838222 C88.6266667,52.3811556 89.256,51.9011556 89.6417778,51.2291556 C90.0311111,50.5589333 90.1324444,49.7749333 89.9297778,49.0176 C89.7288889,48.2638222 89.2471111,47.6362667 88.5751111,47.2469333 L79.3377778,41.9136 C78.8915556,41.6558222 78.3955556,41.5242667 77.8924444,41.5242667 M87.1048889,53.9651556 C86.3777778,53.9651556 85.6631111,53.7767111 85.0195556,53.4051556 L75.7822222,48.0718222 C74.8151111,47.5136 74.1217778,46.6069333 73.832,45.5242667 C73.5422222,44.4380444 73.688,43.3091556 74.2462222,42.3402667 C74.8062222,41.3731556 75.7111111,40.6798222 76.7955556,40.3882667 C77.8835556,40.1002667 79.0106667,40.2478222 79.9777778,40.8060444 L89.2168889,46.1393778 C90.184,46.6976 90.8755556,47.6007111 91.1671111,48.6869333 C91.4568889,49.7731556 91.3093333,50.9020444 90.7511111,51.8691556 C90.1928889,52.8362667 89.288,53.5296 88.2035556,53.8193778 C87.8391111,53.9171556 87.4711111,53.9651556 87.1048889,53.9651556" id="Fill-16" fill="#FFFFFF"></path>
                <path d="M58.3297778,61.0851556 C57.3217778,61.0851556 56.3386667,61.6078222 55.8,62.5411556 C54.9964444,63.9349333 55.4746667,65.7198222 56.8666667,66.5251556 L66.1057778,71.8584889 C66.776,72.2442667 67.5617778,72.3438222 68.3155556,72.1464889 C69.0711111,71.9420444 69.7004444,71.4620444 70.0862222,70.7900444 C70.4755556,70.1180444 70.5768889,69.3340444 70.3742222,68.5802667 C70.1733333,67.8247111 69.6915556,67.1953778 69.0195556,66.8078222 L59.7822222,61.4762667 C59.3253333,61.2096 58.824,61.0851556 58.3297778,61.0851556 M67.5546667,73.5278222 C66.8435556,73.5278222 66.1235556,73.3464889 65.464,72.9678222 L56.2266667,67.6327111 C54.2231111,66.4753778 53.5351111,63.9047111 54.6906667,61.9011556 C55.848,59.8993778 58.4186667,59.2096 60.4222222,60.3651556 L69.6613333,65.6984889 C70.6266667,66.2567111 71.32,67.1633778 71.6115556,68.2478222 C71.9013333,69.3340444 71.7537778,70.4629333 71.1955556,71.4300444 C70.4186667,72.7740444 69.0053333,73.5278222 67.5546667,73.5278222" id="Fill-18" fill="#FFFFFF"></path>
                <mask id="mask-2" fill="white">
                    <use xlink:href="#path-1"></use>
                </mask>
                <g id="Clip-21"></g>
                <path d="M14.2222222,113.777778 L113.777778,113.777778 L113.777778,14.2222222 L14.2222222,14.2222222 L14.2222222,113.777778 Z M0,0 L0,4.44444444 L0,14.2222222 L0,113.777778 L0,123.555556 L0,128 L128,128 L128,123.555556 L128,113.777778 L128,14.2222222 L128,4.44444444 L128,0 L0,0 Z" id="Fill-20" fill="#C9DEFF" mask="url(#mask-2)"></path>
                <path d="M142.222222,113.777778 L241.777778,113.777778 L241.777778,14.2222222 L142.222222,14.2222222 L142.222222,113.777778 Z M128,0 L128,4.44444444 L128,14.2222222 L128,113.777778 L128,123.555556 L128,128 L256,128 L256,123.555556 L256,113.777778 L256,14.2222222 L256,4.44444444 L256,0 L128,0 Z" id="Fill-22" fill="#F3F3F3" mask="url(#mask-2)"></path>
                <path d="M192,113.777778 C164.552889,113.777778 142.222222,91.4453333 142.222222,64 C142.222222,36.5546667 164.552889,14.2222222 192,14.2222222 C219.447111,14.2222222 241.777778,36.5546667 241.777778,64 C241.777778,91.4453333 219.447111,113.777778 192,113.777778" id="Fill-23" fill="#000000" mask="url(#mask-2)"></path>
                <path d="M195.113778,78.0104889 L195.330667,77.9216 C196.918222,77.2762667 197.944,75.7509333 197.944,74.0389333 L197.947556,70.0176 C197.951111,66.7411556 195.428444,63.9429333 192.324444,63.7793778 C190.660444,63.7011556 189.106667,64.2700444 187.913778,65.4007111 C186.717333,66.5349333 186.059556,68.0656 186.059556,69.7136 L186.057778,74.0300444 C186.056,75.7491556 187.085333,77.2762667 188.68,77.9216 L188.895111,78.0104889 L188.895111,87.0949333 L190.175111,87.0949333 L190.175111,77.5838222 C190.175111,77.3224889 189.952889,77.0540444 189.709333,76.9562667 L189.158222,76.7340444 C188.050667,76.2860444 187.336,75.2264889 187.336,74.0300444 L187.339556,69.7136 C187.339556,68.4211556 187.855111,67.2211556 188.793778,66.3304889 C189.732444,65.4416 190.975111,65.0256 192.256889,65.0576 C194.690667,65.1856 196.669333,67.4096 196.667556,70.0176 L196.665778,74.0389333 C196.664,75.2300444 195.951111,76.2878222 194.848889,76.7358222 L194.233778,76.9864889 C193.992,77.0842667 193.833778,77.3189333 193.833778,77.5802667 L193.833778,87.0949333 L195.113778,87.0949333 L195.113778,78.0104889 Z M174.861333,90.0247111 L209.136889,90.0247111 L209.136889,50.4176 L174.861333,50.4176 L174.861333,90.0247111 Z M210.416889,90.6664889 L210.416889,49.7776 C210.416889,49.4238222 210.130667,49.1376 209.778667,49.1376 L174.223111,49.1376 C173.869333,49.1376 173.583111,49.4238222 173.583111,49.7776 L173.583111,90.6664889 C173.583111,91.0202667 173.869333,91.3064889 174.223111,91.3064889 L209.778667,91.3064889 C210.130667,91.3064889 210.416889,91.0202667 210.416889,90.6664889 Z M194.027556,57.7776 C194.027556,58.8958222 193.117333,59.8042667 192.000889,59.8042667 C190.882667,59.8042667 189.972444,58.8958222 189.972444,57.7776 C189.972444,56.6593778 190.882667,55.7509333 192.000889,55.7509333 C193.117333,55.7509333 194.027556,56.6593778 194.027556,57.7776 Z M195.305778,57.7776 C195.305778,55.9553778 193.823111,54.4709333 192.000889,54.4709333 C190.176889,54.4709333 188.694222,55.9553778 188.694222,57.7776 C188.694222,59.6016 190.176889,61.0842667 192.000889,61.0842667 C193.823111,61.0842667 195.305778,59.6016 195.305778,57.7776 Z M190.683556,43.9998222 L184.889778,38.2060444 L179.165333,43.9304889 L180.070222,44.8371556 L184.889778,40.0158222 L189.778667,44.9064889 L190.683556,43.9998222 Z M204.959111,39.5038222 L204.054222,38.5971556 L199.112,43.5393778 L194.239111,38.6664889 L193.334222,39.5731556 L199.112,45.3491556 L204.959111,39.5038222 Z M218.025778,90.6664889 L219.305778,90.6664889 L219.305778,37.3331556 L218.025778,37.3331556 L218.025778,90.6664889 Z M164.692444,90.6664889 L165.972444,90.6664889 L165.972444,37.3331556 L164.692444,37.3331556 L164.692444,90.6664889 Z" id="Fill-24" fill="#FFFFFF" mask="url(#mask-2)"></path>
            </g>
        </g>
        <path d="M18.056,236 L18.056,235.112 L20.396,235.112 L20.396,228.536 L18.032,229.94 L17.636,229.172 L20.3,227.624 L21.404,227.624 L21.404,235.112 L23.564,235.112 L23.564,236 L18.056,236 Z M24.308,237.812 L27.44,227.12 L28.304,227.12 L25.172,237.812 L24.308,237.812 Z M33.296,236 L33.296,234.356 L29.252,234.356 L29.252,233.468 L32.756,227.624 L34.256,227.624 L34.256,233.516 L35.468,233.516 L35.468,234.356 L34.256,234.356 L34.256,236 L33.296,236 Z M30.2,233.516 L33.296,233.516 L33.296,228.404 L33.236,228.404 L30.2,233.516 Z M45.068,236.684 C45.068,237.324003 44.8180025,237.793998 44.318,238.094 C43.8179975,238.394002 43.068005,238.544 42.068,238.544 C41.0999952,238.544 40.4040021,238.412001 39.98,238.148 C39.5559979,237.883999 39.344,237.508002 39.344,237.02 C39.344,236.683998 39.4319991,236.422001 39.608,236.234 C39.7840009,236.045999 40.0239985,235.908 40.328,235.82 L40.328,235.688 C39.9599982,235.511999 39.776,235.224002 39.776,234.824 C39.776,234.511998 39.875999,234.274001 40.076,234.11 C40.276001,233.945999 40.5319984,233.824 40.844,233.744 L40.844,233.696 C40.4759982,233.519999 40.190001,233.268002 39.986,232.94 C39.781999,232.611998 39.68,232.232002 39.68,231.8 C39.68,231.487998 39.7359994,231.200001 39.848,230.936 C39.9600006,230.671999 40.117999,230.446001 40.322,230.258 C40.526001,230.069999 40.7699986,229.924001 41.054,229.82 C41.3380014,229.715999 41.6559982,229.664 42.008,229.664 C42.4480022,229.664 42.8399983,229.743999 43.184,229.904 L43.184,229.796 C43.184,229.555999 43.2399994,229.356001 43.352,229.196 C43.4640006,229.035999 43.6479987,228.96 43.904,228.968 L44.828,228.968 L44.828,229.808 L43.652,229.808 L43.652,230.204 C43.8760011,230.396001 44.0499994,230.625999 44.174,230.894 C44.2980006,231.162001 44.36,231.463998 44.36,231.8 C44.36,232.112002 44.3040006,232.399999 44.192,232.664 C44.0799994,232.928001 43.922001,233.153999 43.718,233.342 C43.513999,233.530001 43.2680014,233.675999 42.98,233.78 C42.6919986,233.884001 42.3720018,233.936 42.02,233.936 C41.819999,233.936 41.620001,233.916 41.42,233.876 C41.211999,233.932 41.0240008,234.013999 40.856,234.122 C40.6879992,234.230001 40.604,234.379999 40.604,234.572 C40.604,234.756001 40.6919991,234.88 40.868,234.944 C41.0440009,235.008 41.2719986,235.04 41.552,235.04 L42.872,235.04 C43.6400038,235.04 44.1979983,235.185999 44.546,235.478 C44.8940017,235.770001 45.068,236.171997 45.068,236.684 Z M44.168,236.756 C44.168,236.507999 44.0740009,236.310001 43.886,236.162 C43.6979991,236.013999 43.3640024,235.94 42.884,235.94 L40.82,235.94 C40.4359981,236.116001 40.244,236.395998 40.244,236.78 C40.244,237.052001 40.345999,237.283999 40.55,237.476 C40.754001,237.668001 41.0999976,237.764 41.588,237.764 L42.476,237.764 C43.0120027,237.764 43.4279985,237.680001 43.724,237.512 C44.0200015,237.343999 44.168,237.092002 44.168,236.756 Z M42.02,233.168 C42.428002,233.168 42.7519988,233.070001 42.992,232.874 C43.2320012,232.677999 43.352,232.376002 43.352,231.968 L43.352,231.632 C43.352,231.223998 43.2320012,230.922001 42.992,230.726 C42.7519988,230.529999 42.428002,230.432 42.02,230.432 C41.611998,230.432 41.2880012,230.529999 41.048,230.726 C40.8079988,230.922001 40.688,231.223998 40.688,231.632 L40.688,231.968 C40.688,232.376002 40.8079988,232.677999 41.048,232.874 C41.2880012,233.070001 41.611998,233.168 42.02,233.168 Z M46.184,236 L46.184,229.808 L47.144,229.808 L47.144,230.948 L47.204,230.948 C47.3160006,230.651999 47.5159986,230.388001 47.804,230.156 C48.0920014,229.923999 48.4879975,229.808 48.992,229.808 L49.364,229.808 L49.364,230.768 L48.8,230.768 C48.2799974,230.768 47.8740015,230.865999 47.582,231.062 C47.2899985,231.258001 47.144,231.503999 47.144,231.8 L47.144,236 L46.184,236 Z M51.068,228.356 C50.859999,228.356 50.7100005,228.306001 50.618,228.206 C50.5259995,228.105999 50.48,227.976001 50.48,227.816 L50.48,227.66 C50.48,227.499999 50.5259995,227.370001 50.618,227.27 C50.7100005,227.169999 50.859999,227.12 51.068,227.12 C51.276001,227.12 51.4259995,227.169999 51.518,227.27 C51.6100005,227.370001 51.656,227.499999 51.656,227.66 L51.656,227.816 C51.656,227.976001 51.6100005,228.105999 51.518,228.206 C51.4259995,228.306001 51.276001,228.356 51.068,228.356 Z M50.588,229.808 L51.548,229.808 L51.548,236 L50.588,236 L50.588,229.808 Z M57.548,234.992 L57.5,234.992 C57.1239981,235.760004 56.5200042,236.144 55.688,236.144 C55.3039981,236.144 54.9560016,236.068001 54.644,235.916 C54.3319984,235.763999 54.0660011,235.548001 53.846,235.268 C53.6259989,234.987999 53.4580006,234.648002 53.342,234.248 C53.2259994,233.847998 53.168,233.400002 53.168,232.904 C53.168,232.407998 53.2259994,231.960002 53.342,231.56 C53.4580006,231.159998 53.6259989,230.820001 53.846,230.54 C54.0660011,230.259999 54.3319984,230.044001 54.644,229.892 C54.9560016,229.739999 55.3039981,229.664 55.688,229.664 C56.1200022,229.664 56.4899985,229.757999 56.798,229.946 C57.1060015,230.134001 57.3399992,230.423998 57.5,230.816 L57.548,230.816 L57.548,227.12 L58.508,227.12 L58.508,236 L57.548,236 L57.548,234.992 Z M55.952,235.28 C56.1680011,235.28 56.373999,235.252 56.57,235.196 C56.766001,235.14 56.9359993,235.058001 57.08,234.95 C57.2240007,234.841999 57.3379996,234.710001 57.422,234.554 C57.5060004,234.397999 57.548,234.220001 57.548,234.02 L57.548,231.716 C57.548,231.547999 57.5060004,231.390001 57.422,231.242 C57.3379996,231.093999 57.2240007,230.968001 57.08,230.864 C56.9359993,230.759999 56.766001,230.678 56.57,230.618 C56.373999,230.558 56.1680011,230.528 55.952,230.528 C55.4079973,230.528 54.9800016,230.697998 54.668,231.038 C54.3559984,231.378002 54.2,231.823997 54.2,232.376 L54.2,233.432 C54.2,233.984003 54.3559984,234.429998 54.668,234.77 C54.9800016,235.110002 55.4079973,235.28 55.952,235.28 Z M62.732,229.808 L63.668,229.808 L64.328,232.484 L64.988,235.196 L65.012,235.196 L65.768,232.484 L66.548,229.808 L67.4,229.808 L68.204,232.484 L68.972,235.196 L68.996,235.196 L69.632,232.484 L70.304,229.808 L71.204,229.808 L69.56,236 L68.372,236 L67.508,233.024 L66.968,231.14 L66.944,231.14 L66.416,233.024 L65.552,236 L64.388,236 L62.732,229.808 Z M73.076,228.356 C72.867999,228.356 72.7180005,228.306001 72.626,228.206 C72.5339995,228.105999 72.488,227.976001 72.488,227.816 L72.488,227.66 C72.488,227.499999 72.5339995,227.370001 72.626,227.27 C72.7180005,227.169999 72.867999,227.12 73.076,227.12 C73.284001,227.12 73.4339995,227.169999 73.526,227.27 C73.6180005,227.370001 73.664,227.499999 73.664,227.66 L73.664,227.816 C73.664,227.976001 73.6180005,228.105999 73.526,228.206 C73.4339995,228.306001 73.284001,228.356 73.076,228.356 Z M72.596,229.808 L73.556,229.808 L73.556,236 L72.596,236 L72.596,229.808 Z M79.556,234.992 L79.508,234.992 C79.1319981,235.760004 78.5280042,236.144 77.696,236.144 C77.3119981,236.144 76.9640016,236.068001 76.652,235.916 C76.3399984,235.763999 76.0740011,235.548001 75.854,235.268 C75.6339989,234.987999 75.4660006,234.648002 75.35,234.248 C75.2339994,233.847998 75.176,233.400002 75.176,232.904 C75.176,232.407998 75.2339994,231.960002 75.35,231.56 C75.4660006,231.159998 75.6339989,230.820001 75.854,230.54 C76.0740011,230.259999 76.3399984,230.044001 76.652,229.892 C76.9640016,229.739999 77.3119981,229.664 77.696,229.664 C78.1280022,229.664 78.4979985,229.757999 78.806,229.946 C79.1140015,230.134001 79.3479992,230.423998 79.508,230.816 L79.556,230.816 L79.556,227.12 L80.516,227.12 L80.516,236 L79.556,236 L79.556,234.992 Z M77.96,235.28 C78.1760011,235.28 78.381999,235.252 78.578,235.196 C78.774001,235.14 78.9439993,235.058001 79.088,234.95 C79.2320007,234.841999 79.3459996,234.710001 79.43,234.554 C79.5140004,234.397999 79.556,234.220001 79.556,234.02 L79.556,231.716 C79.556,231.547999 79.5140004,231.390001 79.43,231.242 C79.3459996,231.093999 79.2320007,230.968001 79.088,230.864 C78.9439993,230.759999 78.774001,230.678 78.578,230.618 C78.381999,230.558 78.1760011,230.528 77.96,230.528 C77.4159973,230.528 76.9880016,230.697998 76.676,231.038 C76.3639984,231.378002 76.208,231.823997 76.208,232.376 L76.208,233.432 C76.208,233.984003 76.3639984,234.429998 76.676,234.77 C76.9880016,235.110002 77.4159973,235.28 77.96,235.28 Z M83.924,236 C83.5879983,236 83.3340009,235.906001 83.162,235.718 C82.9899991,235.529999 82.904,235.284002 82.904,234.98 L82.904,230.648 L81.884,230.648 L81.884,229.808 L82.46,229.808 C82.668001,229.808 82.8099996,229.766 82.886,229.682 C82.9620004,229.598 83,229.452001 83,229.244 L83,228.092 L83.864,228.092 L83.864,229.808 L85.22,229.808 L85.22,230.648 L83.864,230.648 L83.864,235.16 L85.124,235.16 L85.124,236 L83.924,236 Z M86.768,227.12 L87.728,227.12 L87.728,230.816 L87.776,230.816 C87.9280008,230.463998 88.1419986,230.184001 88.418,229.976 C88.6940014,229.767999 89.0639977,229.664 89.528,229.664 C90.1680032,229.664 90.6739981,229.869998 91.046,230.282 C91.4180019,230.694002 91.604,231.275996 91.604,232.028 L91.604,236 L90.644,236 L90.644,232.196 C90.644,231.083994 90.1760047,230.528 89.24,230.528 C89.047999,230.528 88.8620009,230.552 88.682,230.6 C88.5019991,230.648 88.3400007,230.72 88.196,230.816 C88.0519993,230.912 87.9380004,231.033999 87.854,231.182 C87.7699996,231.330001 87.728,231.503999 87.728,231.704 L87.728,236 L86.768,236 L86.768,227.12 Z" id="1/4-grid-width-copy" fill="#6F6F6F"></path>
    </g>
</svg>