<svg xmlns="http://www.w3.org/2000/svg" xmlns:xlink="http://www.w3.org/1999/xlink" viewBox="0 0 928 522"><defs><path id="a" d="M0 250h500V0H0z"/></defs><g fill="none" fill-rule="evenodd"><path fill="#FFF" d="M0 0h928v522H0z"/><path fill="#FFF" d="M214 386h500V136H214z"/><path fill="#C9DEFF" d="M241.778 372.111H464V149.89H241.778z"/><path fill="#F3F3F3" d="M464 372.111h222.222V149.89H464z"/><path fill="#000" d="M491.778 344.333h166.666V177.667H491.778z"/><g transform="translate(214 136)"><path d="M411.945 114.583a5.702 5.702 0 01-5.695 5.695 5.702 5.702 0 01-5.694-5.695V93.75a1.25 1.25 0 10-2.5 0v20.833a5.702 5.702 0 01-5.695 5.695 5.702 5.702 0 01-5.694-5.695V93.75a1.25 1.25 0 10-2.5 0v20.833a5.702 5.702 0 01-5.694 5.695 5.702 5.702 0 01-5.695-5.695V93.75a1.25 1.25 0 10-2.5 0v41.667a5.702 5.702 0 01-5.694 5.694 5.702 5.702 0 01-5.695-5.694V83.472c0-5.132 4.212-9.305 9.386-9.305h34.28c5.178 0 9.39 4.173 9.39 9.305v31.111zm-55.556-4.875l-.288.532c-1.694 2.902-5.451 3.906-8.382 2.229a6.062 6.062 0 01-2.858-3.698 6.001 6.001 0 01.612-4.597l10.916-18.855v24.39zm46.167-38.041h-34.281c-4.361 0-8.143 2.371-10.212 5.86-.052.063-.118.108-.16.185L343.31 102.92a8.464 8.464 0 00-.86 6.5 8.536 8.536 0 004.03 5.219 8.623 8.623 0 004.285 1.139c2.052 0 4.038-.778 5.625-2.132v21.844c0 .027.014.048.014.076.083 4.448 3.712 8.045 8.18 8.045 4.518 0 8.195-3.673 8.195-8.194v-14.962a8.144 8.144 0 005.695 2.323c2.937 0 5.496-1.566 6.944-3.896 1.444 2.33 4.007 3.896 6.944 3.896 2.938 0 5.497-1.566 6.945-3.896 1.444 2.33 4.007 3.896 6.944 3.896 4.518 0 8.195-3.674 8.195-8.195v-31.11c0-6.511-5.334-11.806-11.89-11.806zm-68.209 93.158h-15.916l-7.959-13.784 7.959-13.782h14.472l-4.993 8.65 2.166 1.246 4.993-8.646 7.237 12.532-7.959 13.784zm2.167-28.82l5.715-9.898-2.166-1.25-5.716 9.899h-16.639c-.444 0-.86.24-1.083.628l-8.68 15.035a1.249 1.249 0 000 1.247l8.319 14.41-4.847 8.395 2.166 1.25 4.844-8.392h16.642c.445 0 .862-.243 1.084-.629l8.68-15.034a1.249 1.249 0 000-1.247l-8.32-14.413z" fill="#FFF"/><mask id="b" fill="#fff"><use xlink:href="#a"/></mask><path fill="#000" mask="url(#b)" d="M55.556 208.333h166.666V41.667H55.556z"/><path d="M189.724 120.33h-23.51l23.51-23.51v23.51zm0 27.779h-23.51l23.51-23.51v23.51zm0 27.777h-23.51l23.51-23.51v23.51zm-25.277-25.274h23.506l-23.506 23.507v-23.507zm0-27.778h23.506l-23.506 23.507v-23.507zm-2.5 25.275h-23.51l23.51-23.51v23.51zm0 27.777h-23.51l23.51-23.51v23.51zm-25.278-25.274h23.507l-23.507 23.507v-23.507zm-2.5 25.274h-23.51l23.51-23.51v23.51zm57.284-83.24a1.284 1.284 0 00-1.364.272l-27.778 27.777-27.778 27.778-27.777 27.778a1.259 1.259 0 00-.271 1.365c.194.468.649.774 1.156.774h83.333a1.25 1.25 0 001.25-1.254V93.803c0-.503-.305-.962-.77-1.156zm-99.841 21.368c-.274-.476-.5-.966-.743-1.452l14.82 8.556 1.253-2.163-17.628-10.178c-2.455-7.722-1.174-16.066 3.184-22.663v17.097h2.5V82.864a26.542 26.542 0 016.322-5.09 26.342 26.342 0 0114.917-3.48l-14.847 8.57 1.25 2.163 17.587-10.149c7.045 1.535 13.451 5.886 17.33 12.604.277.48.507.973.753 1.459l-14.816-8.552-1.25 2.163 17.618 10.173a26.346 26.346 0 01.347 14.89 26.5 26.5 0 01-3.534 7.801V98.302h-2.5v20.337a26.814 26.814 0 01-6.327 5.086c-4.6 2.66-9.774 3.855-14.962 3.51l14.896-8.6-1.25-2.163-17.604 10.163c-.403-.09-.809-.153-1.208-.26-6.844-1.837-12.566-6.223-16.108-12.361m23.021 15.777c5.031 0 9.993-1.32 14.465-3.902 6.716-3.875 11.521-10.136 13.525-17.625 2.01-7.49.979-15.313-2.9-22.028C131.72 72.375 113.935 67.6 100.07 75.61c-6.715 3.878-11.517 10.135-13.524 17.628-2.007 7.486-.976 15.31 2.9 22.021 3.878 6.719 10.138 11.524 17.628 13.528a29.18 29.18 0 007.559 1.003" fill="#FFF" mask="url(#b)"/></g><path d="M243.017 393.5v3.5H242v-8h1.017v3.5h27.966V389H272v8h-1.017v-3.5h-27.966z" fill="#97C1FF" fill-rule="nonzero"/><path d="M243.653 416v-1.036h2.73v-7.672l-2.758 1.638-.462-.896 3.108-1.806h1.288v8.736h2.52V416h-6.426zm7.294 2.114l3.654-12.474h1.008l-3.654 12.474h-1.008zM261.433 416v-1.918h-4.718v-1.036l4.088-6.818h1.75v6.874h1.414v.98h-1.414V416h-1.12zm-3.612-2.898h3.612v-5.964h-.07l-3.542 5.964zm17.346 3.696c0 .747-.292 1.295-.875 1.645-.583.35-1.458.525-2.625.525-1.13 0-1.941-.154-2.436-.462-.495-.308-.742-.747-.742-1.316 0-.392.103-.698.308-.917.205-.22.485-.38.84-.483v-.154c-.43-.205-.644-.541-.644-1.008 0-.364.117-.642.35-.833a2.29 2.29 0 01.896-.427v-.056c-.43-.205-.763-.5-1.001-.882-.238-.383-.357-.826-.357-1.33 0-.364.065-.7.196-1.008.13-.308.315-.572.553-.791.238-.22.523-.39.854-.511a3.219 3.219 0 011.113-.182c.513 0 .97.093 1.372.28v-.126c0-.28.065-.513.196-.7.13-.187.345-.275.644-.266h1.078v.98h-1.372v.462c.261.224.464.492.609.805.145.313.217.665.217 1.057 0 .364-.065.7-.196 1.008-.13.308-.315.572-.553.791-.238.22-.525.39-.861.511a3.29 3.29 0 01-1.12.182c-.233 0-.467-.023-.7-.07a2.326 2.326 0 00-.658.287.592.592 0 00-.294.525c0 .215.103.36.308.434.205.075.471.112.798.112h1.54c.896 0 1.547.17 1.953.511.406.34.609.81.609 1.407zm-1.05.084c0-.29-.11-.52-.329-.693-.22-.173-.609-.259-1.169-.259h-2.408c-.448.205-.672.532-.672.98 0 .317.119.588.357.812.238.224.642.336 1.211.336h1.036c.625 0 1.11-.098 1.456-.294.345-.196.518-.49.518-.882zm-2.506-4.186c.476 0 .854-.114 1.134-.343.28-.229.42-.581.42-1.057v-.392c0-.476-.14-.828-.42-1.057-.28-.229-.658-.343-1.134-.343-.476 0-.854.114-1.134.343-.28.229-.42.581-.42 1.057v.392c0 .476.14.828.42 1.057.28.229.658.343 1.134.343zm4.858 3.304v-7.224h1.12v1.33h.07c.13-.345.364-.653.7-.924.336-.27.798-.406 1.386-.406h.434v1.12h-.658c-.607 0-1.08.114-1.421.343-.34.229-.511.516-.511.861v4.9h-1.12zm5.698-8.918c-.243 0-.418-.058-.525-.175a.646.646 0 01-.161-.455v-.182c0-.187.054-.338.161-.455.107-.117.282-.175.525-.175.243 0 .418.058.525.175a.646.646 0 01.161.455v.182a.646.646 0 01-.161.455c-.107.117-.282.175-.525.175zm-.56 1.694h1.12V416h-1.12v-7.224zm8.12 6.048h-.056c-.439.896-1.143 1.344-2.114 1.344-.448 0-.854-.089-1.218-.266a2.646 2.646 0 01-.931-.756 3.465 3.465 0 01-.588-1.19 5.625 5.625 0 01-.203-1.568c0-.579.068-1.101.203-1.568.135-.467.331-.863.588-1.19.257-.327.567-.579.931-.756.364-.177.77-.266 1.218-.266.504 0 .936.11 1.295.329.36.22.632.558.819 1.015h.056v-4.312h1.12V416h-1.12v-1.176zm-1.862.336c.252 0 .492-.033.721-.098a1.81 1.81 0 00.595-.287c.168-.126.301-.28.399-.462.098-.182.147-.39.147-.623v-2.688c0-.196-.049-.38-.147-.553a1.381 1.381 0 00-.399-.441 2.015 2.015 0 00-.595-.287 2.45 2.45 0 00-.721-.105c-.635 0-1.134.198-1.498.595-.364.397-.546.917-.546 1.561v1.232c0 .644.182 1.164.546 1.561.364.397.863.595 1.498.595zm7.91-6.384h1.092l.77 3.122.77 3.164h.028l.882-3.164.91-3.122h.994l.938 3.122.896 3.164h.028l.742-3.164.784-3.122h1.05L303.741 416h-1.386l-1.008-3.472-.63-2.198h-.028l-.616 2.198-1.008 3.472h-1.358l-1.932-7.224zm12.068-1.694c-.243 0-.418-.058-.525-.175a.646.646 0 01-.161-.455v-.182c0-.187.054-.338.161-.455.107-.117.282-.175.525-.175.243 0 .418.058.525.175a.646.646 0 01.161.455v.182a.646.646 0 01-.161.455c-.107.117-.282.175-.525.175zm-.56 1.694h1.12V416h-1.12v-7.224zm8.12 6.048h-.056c-.439.896-1.143 1.344-2.114 1.344-.448 0-.854-.089-1.218-.266a2.646 2.646 0 01-.931-.756 3.465 3.465 0 01-.588-1.19 5.625 5.625 0 01-.203-1.568c0-.579.068-1.101.203-1.568.135-.467.331-.863.588-1.19.257-.327.567-.579.931-.756.364-.177.77-.266 1.218-.266.504 0 .936.11 1.295.329.36.22.632.558.819 1.015h.056v-4.312h1.12V416h-1.12v-1.176zm-1.862.336c.252 0 .492-.033.721-.098a1.81 1.81 0 00.595-.287c.168-.126.301-.28.399-.462.098-.182.147-.39.147-.623v-2.688c0-.196-.049-.38-.147-.553a1.381 1.381 0 00-.399-.441 2.015 2.015 0 00-.595-.287 2.45 2.45 0 00-.721-.105c-.635 0-1.134.198-1.498.595-.364.397-.546.917-.546 1.561v1.232c0 .644.182 1.164.546 1.561.364.397.863.595 1.498.595zm6.958.84c-.392 0-.688-.11-.889-.329-.2-.22-.301-.506-.301-.861v-5.054h-1.19v-.98h.672c.243 0 .408-.049.497-.147.089-.098.133-.268.133-.511v-1.344h1.008v2.002h1.582v.98h-1.582v5.264h1.47v.98h-1.4zm3.318-10.36h1.12v4.312h.056c.177-.41.427-.737.749-.98s.754-.364 1.295-.364c.747 0 1.337.24 1.771.721.434.48.651 1.16.651 2.037V416h-1.12v-4.438c0-1.297-.546-1.946-1.638-1.946-.224 0-.441.028-.651.084-.21.056-.399.14-.567.252a1.247 1.247 0 00-.399.427 1.213 1.213 0 00-.147.609V416h-1.12v-10.36z" fill="#6F6F6F"/></g></svg>