<svg xmlns="http://www.w3.org/2000/svg" xmlns:xlink="http://www.w3.org/1999/xlink" viewBox="0 0 288 288"><defs><path id="a" d="M0 128h256V0H0z"/></defs><g fill="none" fill-rule="evenodd"><path fill="#FFF" d="M0 0h288v288H0z"/><path d="M17.508 218.25V220H17v-4h.508v1.75h13.984V216H32v4h-.508v-1.75H17.508z" fill="#97C1FF" fill-rule="nonzero"/><path fill="#FFF" d="M17 208h256V80H17z"/><g transform="translate(17 80)"><path d="M113.778 64c0 27.492-22.286 49.778-49.778 49.778-27.492 0-49.778-22.286-49.778-49.778 0-27.492 22.286-49.778 49.778-49.778 27.492 0 49.778 22.286 49.778 49.778" fill="#000"/><path d="M67.575 37.968c-.256 0-.512.036-.766.102a2.896 2.896 0 00-1.773 1.356l-5.331 9.237a2.919 2.919 0 001.066 3.983 2.917 2.917 0 003.982-1.067l5.334-9.24a2.9 2.9 0 00.288-2.21 2.906 2.906 0 00-2.8-2.16zm-5.353 16.349a4.197 4.197 0 01-3.627-6.293l5.334-9.24a4.166 4.166 0 012.549-1.95 4.171 4.171 0 013.182.416 4.155 4.155 0 011.95 2.55 4.171 4.171 0 01-.414 3.182l-5.333 9.237a4.202 4.202 0 01-3.641 2.098zm12.815 25.338c-.506 0-1.006.133-1.457.394a2.879 2.879 0 00-1.36 1.767 2.887 2.887 0 00.295 2.208 2.89 2.89 0 001.765 1.362l10.304 2.76a2.867 2.867 0 002.21-.296 2.875 2.875 0 001.36-1.765 2.92 2.92 0 00-2.06-3.572l-10.305-2.759a2.943 2.943 0 00-.752-.1m10.299 9.873a4.24 4.24 0 01-1.084-.144l-10.303-2.761a4.158 4.158 0 01-2.544-1.958 4.17 4.17 0 01-.423-3.182 4.162 4.162 0 011.958-2.54 4.155 4.155 0 013.18-.425l10.304 2.76a4.16 4.16 0 012.544 1.96c.562.972.711 2.1.423 3.18a4.206 4.206 0 01-4.055 3.11M46.227 66.069a2.914 2.914 0 00-2.53 1.46l-5.333 9.235a2.891 2.891 0 00-.288 2.211 2.901 2.901 0 001.355 1.771 2.916 2.916 0 003.982-1.067l5.333-9.239a2.919 2.919 0 00-1.066-3.982 2.906 2.906 0 00-1.453-.39zm-5.345 16.348a4.173 4.173 0 01-2.091-.562 4.16 4.16 0 01-1.95-2.549 4.154 4.154 0 01.416-3.182l5.333-9.24a4.195 4.195 0 117.266 4.2l-5.334 9.235a4.202 4.202 0 01-3.64 2.098zM79.99 57.524c-.504 0-1 .132-1.446.39a2.895 2.895 0 00-1.354 1.77c-.203.758-.1 1.542.286 2.212l5.335 9.237a2.89 2.89 0 001.77 1.355 2.9 2.9 0 003.566-2.057c.203-.757.1-1.541-.287-2.212l-5.334-9.239a2.895 2.895 0 00-1.77-1.354 3.055 3.055 0 00-.766-.102m5.36 16.345c-.367 0-.736-.046-1.1-.144a4.168 4.168 0 01-2.548-1.95l-5.334-9.24a4.17 4.17 0 01-.416-3.181 4.165 4.165 0 011.952-2.548 4.164 4.164 0 013.182-.418 4.174 4.174 0 012.55 1.952l5.331 9.238c.56.967.708 2.097.416 3.182a4.16 4.16 0 01-1.95 2.55 4.154 4.154 0 01-2.083.56M51.894 43.302c-.505 0-1 .132-1.445.39l-9.238 5.333a2.893 2.893 0 00-1.354 1.77 2.89 2.89 0 00.286 2.212 2.894 2.894 0 001.772 1.355c.752.2 1.538.1 2.21-.287l9.24-5.335a2.882 2.882 0 001.352-1.77 2.894 2.894 0 00-.286-2.212 2.895 2.895 0 00-1.77-1.355 3.055 3.055 0 00-.767-.101m-9.212 12.44a4.23 4.23 0 01-1.1-.145 4.161 4.161 0 01-2.547-1.95 4.17 4.17 0 01-.416-3.182 4.163 4.163 0 011.95-2.548l9.24-5.333a4.153 4.153 0 013.182-.418 4.17 4.17 0 012.547 1.952c.56.969.706 2.098.416 3.184a4.174 4.174 0 01-1.95 2.55l-9.237 5.33a4.155 4.155 0 01-2.085.56m16.321 23.121c-.503 0-1 .131-1.446.39l-9.237 5.334a2.88 2.88 0 00-1.355 1.771 2.882 2.882 0 00.288 2.21 2.894 2.894 0 001.771 1.356c.756.201 1.54.1 2.21-.288l9.239-5.333a2.903 2.903 0 001.355-1.773c.202-.755.1-1.54-.288-2.211a2.886 2.886 0 00-1.771-1.353 2.902 2.902 0 00-.766-.103m-9.22 12.443a4.201 4.201 0 01-3.639-2.098 4.174 4.174 0 01-.416-3.184 4.172 4.172 0 011.95-2.548l9.24-5.331a4.157 4.157 0 013.182-.416 4.166 4.166 0 012.549 1.95c.558.967.706 2.098.414 3.182a4.165 4.165 0 01-1.95 2.55l-9.237 5.333c-.66.38-1.38.562-2.093.562m28.109-49.782c-.256 0-.512.036-.766.102a2.895 2.895 0 00-1.77 1.354 2.894 2.894 0 00-.287 2.212 2.882 2.882 0 001.353 1.77l9.24 5.334c.67.387 1.455.489 2.21.288a2.885 2.885 0 001.77-1.355c.39-.67.49-1.454.288-2.211a2.893 2.893 0 00-1.355-1.771l-9.237-5.333a2.882 2.882 0 00-1.446-.39m9.213 12.441a4.155 4.155 0 01-2.085-.56l-9.238-5.333a4.166 4.166 0 01-1.95-2.548 4.179 4.179 0 012.964-5.136 4.177 4.177 0 013.182.418l9.239 5.333a4.163 4.163 0 011.95 2.548 4.17 4.17 0 01-.416 3.182 4.161 4.161 0 01-2.547 1.95 4.232 4.232 0 01-1.1.146m-28.774 7.12a2.918 2.918 0 00-2.53 1.456 2.92 2.92 0 001.067 3.984l9.239 5.333a2.92 2.92 0 003.98-1.068c.39-.672.49-1.456.288-2.21a2.887 2.887 0 00-1.354-1.772l-9.238-5.332a2.872 2.872 0 00-1.452-.39m9.225 12.442a4.189 4.189 0 01-2.091-.56l-9.237-5.335A4.202 4.202 0 0154.69 61.9a4.203 4.203 0 015.731-1.536l9.24 5.333a4.177 4.177 0 011.95 2.55 4.17 4.17 0 01-.416 3.182 4.202 4.202 0 01-3.641 2.098" fill="#FFF"/><mask id="b" fill="#fff"><use xlink:href="#a"/></mask><path d="M14.222 113.778h99.556V14.222H14.222v99.556zM0 0v128h128V0H0z" fill="#C9DEFF" mask="url(#b)"/><path d="M142.222 113.778h99.556V14.222h-99.556v99.556zM128 0v128h128V0H128z" fill="#F3F3F3" mask="url(#b)"/><path d="M192 113.778c-27.447 0-49.778-22.333-49.778-49.778S164.552 14.222 192 14.222c27.447 0 49.778 22.333 49.778 49.778s-22.33 49.778-49.778 49.778" fill="#000" mask="url(#b)"/><path d="M195.114 78.01l.217-.088a4.176 4.176 0 002.613-3.883l.004-4.021c.003-3.277-2.52-6.075-5.624-6.239-1.664-.078-3.217.491-4.41 1.622a5.886 5.886 0 00-1.854 4.313l-.002 4.316a4.176 4.176 0 002.622 3.892l.215.088v9.085h1.28v-9.511c0-.262-.222-.53-.466-.628l-.55-.222a2.902 2.902 0 01-1.823-2.704l.004-4.316c0-1.293.515-2.493 1.454-3.384.938-.888 2.181-1.304 3.463-1.272 2.434.128 4.412 2.352 4.41 4.96l-.001 4.02a2.903 2.903 0 01-1.817 2.698l-.615.25a.64.64 0 00-.4.594v9.515h1.28V78.01zM174.86 90.025h34.276V50.418H174.86v39.607zm35.556.641V49.778a.64.64 0 00-.638-.64h-35.556a.64.64 0 00-.64.64v40.888c0 .354.286.64.64.64h35.556a.64.64 0 00.638-.64zm-16.39-32.888A2.03 2.03 0 01192 59.804a2.03 2.03 0 01-2.029-2.026A2.03 2.03 0 01192 55.751a2.03 2.03 0 012.027 2.027zm1.279 0A3.31 3.31 0 00192 54.47a3.31 3.31 0 00-3.307 3.307A3.31 3.31 0 00192 61.083a3.31 3.31 0 003.305-3.306zM190.684 44l-5.794-5.794-5.725 5.724.905.907 4.82-4.821 4.889 4.89.905-.906zm14.275-4.496l-.905-.907-4.942 4.942-4.873-4.873-.905.907 5.778 5.776 5.847-5.845zm13.067 51.162h1.28V37.333h-1.28v53.333zm-53.334 0h1.28V37.333h-1.28v53.333z" fill="#FFF" mask="url(#b)"/></g><path d="M18.056 236v-.888h2.34v-6.576l-2.364 1.404-.396-.768 2.664-1.548h1.104v7.488h2.16V236h-5.508zm6.252 1.812l3.132-10.692h.864l-3.132 10.692h-.864zM33.296 236v-1.644h-4.044v-.888l3.504-5.844h1.5v5.892h1.212v.84h-1.212V236h-.96zm-3.096-2.484h3.096v-5.112h-.06l-3.036 5.112zm14.868 3.168c0 .64-.25 1.11-.75 1.41-.5.3-1.25.45-2.25.45-.968 0-1.664-.132-2.088-.396-.424-.264-.636-.64-.636-1.128 0-.336.088-.598.264-.786.176-.188.416-.326.72-.414v-.132c-.368-.176-.552-.464-.552-.864 0-.312.1-.55.3-.714.2-.164.456-.286.768-.366v-.048a2 2 0 01-.858-.756 2.114 2.114 0 01-.306-1.14c0-.312.056-.6.168-.864.112-.264.27-.49.474-.678.204-.188.448-.334.732-.438.284-.104.602-.156.954-.156.44 0 .832.08 1.176.24v-.108c0-.24.056-.44.168-.6.112-.16.296-.236.552-.228h.924v.84h-1.176v.396c.224.192.398.422.522.69.124.268.186.57.186.906 0 .312-.056.6-.168.864a1.94 1.94 0 01-.474.678c-.204.188-.45.334-.738.438a3.053 3.053 0 01-1.56.096 1.994 1.994 0 00-.564.246.508.508 0 00-.252.45c0 .184.088.308.264.372.176.064.404.096.684.096h1.32c.768 0 1.326.146 1.674.438.348.292.522.694.522 1.206zm-.9.072a.717.717 0 00-.282-.594c-.188-.148-.522-.222-1.002-.222H40.82c-.384.176-.576.456-.576.84 0 .272.102.504.306.696.204.192.55.288 1.038.288h.888c.536 0 .952-.084 1.248-.252a.817.817 0 00.444-.756zm-2.148-3.588c.408 0 .732-.098.972-.294.24-.196.36-.498.36-.906v-.336c0-.408-.12-.71-.36-.906-.24-.196-.564-.294-.972-.294-.408 0-.732.098-.972.294-.24.196-.36.498-.36.906v.336c0 .408.12.71.36.906.24.196.564.294.972.294zM46.184 236v-6.192h.96v1.14h.06a1.87 1.87 0 01.6-.792c.288-.232.684-.348 1.188-.348h.372v.96H48.8c-.52 0-.926.098-1.218.294-.292.196-.438.442-.438.738v4.2h-.96zm4.884-7.644c-.208 0-.358-.05-.45-.15a.553.553 0 01-.138-.39v-.156c0-.16.046-.29.138-.39.092-.1.242-.15.45-.15.208 0 .358.05.45.15.092.1.138.23.138.39v.156c0 .16-.046.29-.138.39-.092.1-.242.15-.45.15zm-.48 1.452h.96V236h-.96v-6.192zm6.96 5.184H57.5c-.376.768-.98 1.152-1.812 1.152-.384 0-.732-.076-1.044-.228a2.268 2.268 0 01-.798-.648 2.97 2.97 0 01-.504-1.02 4.821 4.821 0 01-.174-1.344c0-.496.058-.944.174-1.344.116-.4.284-.74.504-1.02.22-.28.486-.496.798-.648.312-.152.66-.228 1.044-.228.432 0 .802.094 1.11.282.308.188.542.478.702.87h.048v-3.696h.96V236h-.96v-1.008zm-1.596.288c.216 0 .422-.028.618-.084a1.55 1.55 0 00.51-.246c.144-.108.258-.24.342-.396.084-.156.126-.334.126-.534v-2.304a.945.945 0 00-.126-.474 1.184 1.184 0 00-.342-.378 1.727 1.727 0 00-.51-.246 2.1 2.1 0 00-.618-.09c-.544 0-.972.17-1.284.51-.312.34-.468.786-.468 1.338v1.056c0 .552.156.998.468 1.338.312.34.74.51 1.284.51zm6.78-5.472h.936l.66 2.676.66 2.712h.024l.756-2.712.78-2.676h.852l.804 2.676.768 2.712h.024l.636-2.712.672-2.676h.9L69.56 236h-1.188l-.864-2.976-.54-1.884h-.024l-.528 1.884-.864 2.976h-1.164l-1.656-6.192zm10.344-1.452c-.208 0-.358-.05-.45-.15a.553.553 0 01-.138-.39v-.156c0-.16.046-.29.138-.39.092-.1.242-.15.45-.15.208 0 .358.05.45.15.092.1.138.23.138.39v.156c0 .16-.046.29-.138.39-.092.1-.242.15-.45.15zm-.48 1.452h.96V236h-.96v-6.192zm6.96 5.184h-.048c-.376.768-.98 1.152-1.812 1.152-.384 0-.732-.076-1.044-.228a2.268 2.268 0 01-.798-.648 2.97 2.97 0 01-.504-1.02 4.821 4.821 0 01-.174-1.344c0-.496.058-.944.174-1.344.116-.4.284-.74.504-1.02.22-.28.486-.496.798-.648.312-.152.66-.228 1.044-.228.432 0 .802.094 1.11.282.308.188.542.478.702.87h.048v-3.696h.96V236h-.96v-1.008zm-1.596.288c.216 0 .422-.028.618-.084a1.55 1.55 0 00.51-.246c.144-.108.258-.24.342-.396.084-.156.126-.334.126-.534v-2.304a.945.945 0 00-.126-.474 1.184 1.184 0 00-.342-.378 1.727 1.727 0 00-.51-.246 2.1 2.1 0 00-.618-.09c-.544 0-.972.17-1.284.51-.312.34-.468.786-.468 1.338v1.056c0 .552.156.998.468 1.338.312.34.74.51 1.284.51zm5.964.72c-.336 0-.59-.094-.762-.282-.172-.188-.258-.434-.258-.738v-4.332h-1.02v-.84h.576c.208 0 .35-.042.426-.126.076-.084.114-.23.114-.438v-1.152h.864v1.716h1.356v.84h-1.356v4.512h1.26v.84h-1.2zm2.844-8.88h.96v3.696h.048c.152-.352.366-.632.642-.84.276-.208.646-.312 1.11-.312.64 0 1.146.206 1.518.618.372.412.558.994.558 1.746V236h-.96v-3.804c0-1.112-.468-1.668-1.404-1.668-.192 0-.378.024-.558.072-.18.048-.342.12-.486.216a1.069 1.069 0 00-.342.366 1.04 1.04 0 00-.126.522V236h-.96v-8.88z" fill="#6F6F6F"/></g></svg>