<?xml version="1.0" encoding="UTF-8"?>
<svg width="928px" height="522px" viewBox="0 0 928 522" version="1.1" xmlns="http://www.w3.org/2000/svg" xmlns:xlink="http://www.w3.org/1999/xlink">
    <!-- Generator: Sketch 52.5 (67469) - http://www.bohemiancoding.com/sketch -->
    <title>Artboard Copy 16</title>
    <desc>Created with Sketch.</desc>
    <defs>
        <polygon id="path-1" points="0 250 500 250 500 0 0 0"></polygon>
    </defs>
    <g id="Artboard-Copy-16" stroke="none" stroke-width="1" fill="none" fill-rule="evenodd">
        <rect id="Rectangle-3-Copy-45" fill="#FFFFFF" x="0" y="0" width="928" height="522"></rect>
        <path d="M215.016949,407.5 L215.016949,411 L214,411 L214,403 L215.016949,403 L215.016949,406.5 L242.983051,406.5 L242.983051,403 L244,403 L244,411 L242.983051,411 L242.983051,407.5 L215.016949,407.5 Z" id="Combined-Shape-Copy-7" fill="#97C1FF" fill-rule="nonzero"></path>
        <path d="M214.653,430 L214.653,428.964 L217.383,428.964 L217.383,421.292 L214.625,422.93 L214.163,422.034 L217.271,420.228 L218.559,420.228 L218.559,428.964 L221.079,428.964 L221.079,430 L214.653,430 Z M221.947,432.114 L225.601,419.64 L226.609,419.64 L222.955,432.114 L221.947,432.114 Z M232.433,430 L232.433,428.082 L227.715,428.082 L227.715,427.046 L231.803,420.228 L233.553,420.228 L233.553,427.102 L234.967,427.102 L234.967,428.082 L233.553,428.082 L233.553,430 L232.433,430 Z M228.821,427.102 L232.433,427.102 L232.433,421.138 L232.363,421.138 L228.821,427.102 Z M246.167,430.798 C246.167,431.54467 245.875336,432.092998 245.292,432.443 C244.708664,432.793002 243.833673,432.968 242.667,432.968 C241.537661,432.968 240.725669,432.814002 240.231,432.506 C239.736331,432.197998 239.489,431.759336 239.489,431.19 C239.489,430.797998 239.591666,430.492334 239.797,430.273 C240.002334,430.053666 240.282332,429.892667 240.637,429.79 L240.637,429.636 C240.207665,429.430666 239.993,429.094669 239.993,428.628 C239.993,428.263998 240.109666,427.986334 240.343,427.795 C240.576335,427.603666 240.874998,427.461334 241.239,427.368 L241.239,427.312 C240.809665,427.106666 240.476001,426.812669 240.238,426.43 C239.999999,426.047331 239.881,425.604003 239.881,425.1 C239.881,424.735998 239.946333,424.400002 240.077,424.092 C240.207667,423.783998 240.391999,423.520334 240.63,423.301 C240.868001,423.081666 241.152665,422.911334 241.484,422.79 C241.815335,422.668666 242.186331,422.608 242.597,422.608 C243.110336,422.608 243.567665,422.701332 243.969,422.888 L243.969,422.762 C243.969,422.481999 244.034333,422.248668 244.165,422.062 C244.295667,421.875332 244.510332,421.786667 244.809,421.796 L245.887,421.796 L245.887,422.776 L244.515,422.776 L244.515,423.238 C244.776335,423.462001 244.979333,423.730332 245.124,424.043 C245.268667,424.355668 245.341,424.707998 245.341,425.1 C245.341,425.464002 245.275667,425.799998 245.145,426.108 C245.014333,426.416002 244.830001,426.679666 244.592,426.899 C244.353999,427.118334 244.067002,427.288666 243.731,427.41 C243.394998,427.531334 243.021669,427.592 242.611,427.592 C242.377666,427.592 242.144335,427.568667 241.911,427.522 C241.668332,427.587334 241.449001,427.682999 241.253,427.809 C241.056999,427.935001 240.959,428.109999 240.959,428.334 C240.959,428.548668 241.061666,428.693333 241.267,428.768 C241.472334,428.842667 241.738332,428.88 242.065,428.88 L243.605,428.88 C244.501004,428.88 245.151998,429.050332 245.558,429.391 C245.964002,429.731668 246.167,430.200664 246.167,430.798 Z M245.117,430.882 C245.117,430.592665 245.007334,430.361668 244.788,430.189 C244.568666,430.016332 244.179003,429.93 243.619,429.93 L241.211,429.93 C240.762998,430.135334 240.539,430.461998 240.539,430.91 C240.539,431.227335 240.657999,431.497999 240.896,431.722 C241.134001,431.946001 241.537664,432.058 242.107,432.058 L243.143,432.058 C243.768336,432.058 244.253665,431.960001 244.599,431.764 C244.944335,431.567999 245.117,431.274002 245.117,430.882 Z M242.611,426.696 C243.087002,426.696 243.464999,426.581668 243.745,426.353 C244.025001,426.124332 244.165,425.772002 244.165,425.296 L244.165,424.904 C244.165,424.427998 244.025001,424.075668 243.745,423.847 C243.464999,423.618332 243.087002,423.504 242.611,423.504 C242.134998,423.504 241.757001,423.618332 241.477,423.847 C241.196999,424.075668 241.057,424.427998 241.057,424.904 L241.057,425.296 C241.057,425.772002 241.196999,426.124332 241.477,426.353 C241.757001,426.581668 242.134998,426.696 242.611,426.696 Z M247.469,430 L247.469,422.776 L248.589,422.776 L248.589,424.106 L248.659,424.106 C248.789667,423.760665 249.022998,423.452668 249.359,423.182 C249.695002,422.911332 250.156997,422.776 250.745,422.776 L251.179,422.776 L251.179,423.896 L250.521,423.896 C249.91433,423.896 249.440668,424.010332 249.1,424.239 C248.759332,424.467668 248.589,424.754665 248.589,425.1 L248.589,430 L247.469,430 Z M253.167,421.082 C252.924332,421.082 252.749334,421.023667 252.642,420.907 C252.534666,420.790333 252.481,420.638668 252.481,420.452 L252.481,420.27 C252.481,420.083332 252.534666,419.931667 252.642,419.815 C252.749334,419.698333 252.924332,419.64 253.167,419.64 C253.409668,419.64 253.584666,419.698333 253.692,419.815 C253.799334,419.931667 253.853,420.083332 253.853,420.27 L253.853,420.452 C253.853,420.638668 253.799334,420.790333 253.692,420.907 C253.584666,421.023667 253.409668,421.082 253.167,421.082 Z M252.607,422.776 L253.727,422.776 L253.727,430 L252.607,430 L252.607,422.776 Z M260.727,428.824 L260.671,428.824 C260.232331,429.720004 259.527672,430.168 258.557,430.168 C258.108998,430.168 257.703002,430.079334 257.339,429.902 C256.974998,429.724666 256.664668,429.472668 256.408,429.146 C256.151332,428.819332 255.955334,428.422669 255.82,427.956 C255.684666,427.489331 255.617,426.96667 255.617,426.388 C255.617,425.80933 255.684666,425.286669 255.82,424.82 C255.955334,424.353331 256.151332,423.956668 256.408,423.63 C256.664668,423.303332 256.974998,423.051334 257.339,422.874 C257.703002,422.696666 258.108998,422.608 258.557,422.608 C259.061003,422.608 259.492665,422.717666 259.852,422.937 C260.211335,423.156334 260.484332,423.494664 260.671,423.952 L260.727,423.952 L260.727,419.64 L261.847,419.64 L261.847,430 L260.727,430 L260.727,428.824 Z M258.865,429.16 C259.117001,429.16 259.357332,429.127334 259.586,429.062 C259.814668,428.996666 260.012999,428.901001 260.181,428.775 C260.349001,428.648999 260.482,428.495001 260.58,428.313 C260.678,428.130999 260.727,427.923335 260.727,427.69 L260.727,425.002 C260.727,424.805999 260.678,424.621668 260.58,424.449 C260.482,424.276332 260.349001,424.129334 260.181,424.008 C260.012999,423.886666 259.814668,423.791 259.586,423.721 C259.357332,423.651 259.117001,423.616 258.865,423.616 C258.23033,423.616 257.731002,423.814331 257.367,424.211 C257.002998,424.607669 256.821,425.127997 256.821,425.772 L256.821,427.004 C256.821,427.648003 257.002998,428.168331 257.367,428.565 C257.731002,428.961669 258.23033,429.16 258.865,429.16 Z M266.775,422.776 L267.867,422.776 L268.637,425.898 L269.407,429.062 L269.435,429.062 L270.317,425.898 L271.227,422.776 L272.221,422.776 L273.159,425.898 L274.055,429.062 L274.083,429.062 L274.825,425.898 L275.609,422.776 L276.659,422.776 L274.741,430 L273.355,430 L272.347,426.528 L271.717,424.33 L271.689,424.33 L271.073,426.528 L270.065,430 L268.707,430 L266.775,422.776 Z M278.843,421.082 C278.600332,421.082 278.425334,421.023667 278.318,420.907 C278.210666,420.790333 278.157,420.638668 278.157,420.452 L278.157,420.27 C278.157,420.083332 278.210666,419.931667 278.318,419.815 C278.425334,419.698333 278.600332,419.64 278.843,419.64 C279.085668,419.64 279.260666,419.698333 279.368,419.815 C279.475334,419.931667 279.529,420.083332 279.529,420.27 L279.529,420.452 C279.529,420.638668 279.475334,420.790333 279.368,420.907 C279.260666,421.023667 279.085668,421.082 278.843,421.082 Z M278.283,422.776 L279.403,422.776 L279.403,430 L278.283,430 L278.283,422.776 Z M286.403,428.824 L286.347,428.824 C285.908331,429.720004 285.203672,430.168 284.233,430.168 C283.784998,430.168 283.379002,430.079334 283.015,429.902 C282.650998,429.724666 282.340668,429.472668 282.084,429.146 C281.827332,428.819332 281.631334,428.422669 281.496,427.956 C281.360666,427.489331 281.293,426.96667 281.293,426.388 C281.293,425.80933 281.360666,425.286669 281.496,424.82 C281.631334,424.353331 281.827332,423.956668 282.084,423.63 C282.340668,423.303332 282.650998,423.051334 283.015,422.874 C283.379002,422.696666 283.784998,422.608 284.233,422.608 C284.737003,422.608 285.168665,422.717666 285.528,422.937 C285.887335,423.156334 286.160332,423.494664 286.347,423.952 L286.403,423.952 L286.403,419.64 L287.523,419.64 L287.523,430 L286.403,430 L286.403,428.824 Z M284.541,429.16 C284.793001,429.16 285.033332,429.127334 285.262,429.062 C285.490668,428.996666 285.688999,428.901001 285.857,428.775 C286.025001,428.648999 286.158,428.495001 286.256,428.313 C286.354,428.130999 286.403,427.923335 286.403,427.69 L286.403,425.002 C286.403,424.805999 286.354,424.621668 286.256,424.449 C286.158,424.276332 286.025001,424.129334 285.857,424.008 C285.688999,423.886666 285.490668,423.791 285.262,423.721 C285.033332,423.651 284.793001,423.616 284.541,423.616 C283.90633,423.616 283.407002,423.814331 283.043,424.211 C282.678998,424.607669 282.497,425.127997 282.497,425.772 L282.497,427.004 C282.497,427.648003 282.678998,428.168331 283.043,428.565 C283.407002,428.961669 283.90633,429.16 284.541,429.16 Z M291.499,430 C291.106998,430 290.810668,429.890334 290.61,429.671 C290.409332,429.451666 290.309,429.164668 290.309,428.81 L290.309,423.756 L289.119,423.756 L289.119,422.776 L289.791,422.776 C290.033668,422.776 290.199333,422.727 290.288,422.629 C290.376667,422.531 290.421,422.360668 290.421,422.118 L290.421,420.774 L291.429,420.774 L291.429,422.776 L293.011,422.776 L293.011,423.756 L291.429,423.756 L291.429,429.02 L292.899,429.02 L292.899,430 L291.499,430 Z M294.817,419.64 L295.937,419.64 L295.937,423.952 L295.993,423.952 C296.170334,423.541331 296.419998,423.214668 296.742,422.972 C297.064002,422.729332 297.495664,422.608 298.037,422.608 C298.78367,422.608 299.373998,422.848331 299.808,423.329 C300.242002,423.809669 300.459,424.488662 300.459,425.366 L300.459,430 L299.339,430 L299.339,425.562 C299.339,424.26466 298.793005,423.616 297.701,423.616 C297.476999,423.616 297.260001,423.644 297.05,423.7 C296.839999,423.756 296.651001,423.839999 296.483,423.952 C296.314999,424.064001 296.182,424.206332 296.084,424.379 C295.986,424.551668 295.937,424.754665 295.937,424.988 L295.937,430 L294.817,430 L294.817,419.64 Z" id="1/4-grid-width-copy-3" fill="#6F6F6F"></path>
        <g id="Group-34-Copy" transform="translate(214.000000, 136.000000)">
            <polygon id="Fill-1" fill="#FFFFFF" points="0 250 500 250 500 0 0 0"></polygon>
            <g id="Group-33">
                <path d="M222.222222,125 C222.222222,178.694444 178.694444,222.222222 125,222.222222 C71.3055556,222.222222 27.7777778,178.694444 27.7777778,125 C27.7777778,71.3055556 71.3055556,27.7777778 125,27.7777778 C178.694444,27.7777778 222.222222,71.3055556 222.222222,125" id="Fill-2" fill="#000000"></path>
                <path d="M131.981944,74.1565972 C131.481944,74.1565972 130.981944,74.2260417 130.485417,74.3545139 C129.009722,74.7503472 127.780556,75.6913194 127.023611,77.0038194 L116.610417,95.0454861 C115.040972,97.7642361 115.975,101.253819 118.69375,102.823264 C121.415972,104.396181 124.902083,103.458681 126.471528,100.739931 L136.888194,82.6947917 C137.645139,81.3857639 137.843056,79.8510417 137.450694,78.3753472 C137.054861,76.903125 136.113889,75.6774306 134.804861,74.9170139 C133.933333,74.4170139 132.964583,74.1565972 131.981944,74.1565972 Z M121.527083,106.087153 C120.138194,106.087153 118.728472,105.732986 117.44375,104.986458 C113.530556,102.729514 112.183333,97.7121528 114.44375,93.7954861 L124.860417,75.7503472 C125.950694,73.8614583 127.718056,72.5107639 129.839583,71.9413194 C131.957639,71.3753472 134.165972,71.6635417 136.054861,72.7538194 C137.94375,73.8440972 139.297917,75.6079861 139.863889,77.7329861 C140.429861,79.8475694 140.145139,82.059375 139.054861,83.9482639 L128.638194,101.989931 C127.120833,104.614931 124.360417,106.087153 121.527083,106.087153 Z" id="Fill-4" fill="#FFFFFF"></path>
                <path d="M146.557292,155.575347 C145.567708,155.575347 144.592014,155.835764 143.710069,156.346181 C142.387153,157.106597 141.442708,158.332292 141.053819,159.797569 C140.661458,161.255903 140.866319,162.787153 141.630208,164.110069 C142.390625,165.432986 143.616319,166.377431 145.078125,166.769792 L165.203125,172.158681 C166.664931,172.557986 168.196181,172.349653 169.519097,171.582292 C170.842014,170.825347 171.786458,169.596181 172.175347,168.134375 C172.987847,165.099653 171.182292,161.974653 168.151042,161.158681 L148.026042,155.769792 C147.539931,155.641319 147.046875,155.575347 146.557292,155.575347 M166.671875,174.856597 C165.973958,174.856597 165.262153,174.762847 164.553819,174.575347 L144.432292,169.182986 C142.324653,168.620486 140.560764,167.262847 139.463542,165.360069 C138.366319,163.460764 138.074653,161.255903 138.637153,159.144792 C139.203125,157.044097 140.557292,155.276736 142.460069,154.182986 C144.362847,153.082292 146.571181,152.787153 148.671875,153.353125 L168.796875,158.745486 C170.904514,159.307986 172.668403,160.669097 173.765625,162.571875 C174.862847,164.471181 175.154514,166.672569 174.592014,168.783681 C173.612847,172.436458 170.289931,174.856597 166.671875,174.856597" id="Fill-6" fill="#FFFFFF"></path>
                <path d="M90.2878472,129.040625 C88.3190972,129.040625 86.3989583,130.061458 85.346875,131.891319 L74.9302083,149.929514 C74.1732639,151.238542 73.971875,152.769792 74.3677083,154.248958 C74.7635417,155.721181 75.7045139,156.950347 77.0135417,157.707292 C79.7357639,159.276736 83.2253472,158.346181 84.7913194,155.623958 L95.2079861,137.578819 C96.7774306,134.860069 95.8434028,131.373958 93.1246528,129.801042 C92.2322917,129.287153 91.253125,129.040625 90.2878472,129.040625 Z M79.846875,160.971181 C78.4579861,160.971181 77.0517361,160.617014 75.7635417,159.873958 C73.8746528,158.783681 72.5204861,157.016319 71.9545139,154.894792 C71.3850694,152.773264 71.6732639,150.568403 72.7670139,148.679514 L83.1836806,130.634375 C85.440625,126.721181 90.4579861,125.373958 94.3746528,127.637847 C98.2878472,129.894792 99.6315972,134.922569 97.3746528,138.835764 L86.9579861,156.873958 C85.440625,159.498958 82.6802083,160.971181 79.846875,160.971181 Z" id="Fill-8" fill="#FFFFFF"></path>
                <path d="M156.229514,112.352083 C155.246875,112.352083 154.278125,112.609028 153.406597,113.1125 C152.094097,113.869444 151.156597,115.098611 150.760764,116.570833 C150.364931,118.05 150.566319,119.58125 151.319792,120.890278 L161.739931,138.931944 C162.496875,140.244444 163.722569,141.181944 165.198264,141.577778 C166.667014,141.966667 168.201736,141.775694 169.517708,141.01875 C170.830208,140.258333 171.767708,139.032639 172.163542,137.560417 C172.559375,136.08125 172.357986,134.55 171.601042,133.240972 L161.184375,115.195833 C160.427431,113.883333 159.198264,112.945833 157.726042,112.55 C157.229514,112.421528 156.729514,112.352083 156.229514,112.352083 M166.698264,144.275694 C165.982986,144.275694 165.260764,144.185417 164.548958,143.994444 C162.430903,143.425 160.663542,142.074306 159.573264,140.185417 L149.156597,122.140278 C148.066319,120.251389 147.778125,118.046528 148.344097,115.925 C148.913542,113.803472 150.267708,112.039583 152.156597,110.949306 C154.045486,109.855556 156.253819,109.567361 158.371875,110.133333 C160.493403,110.702778 162.257292,112.056944 163.351042,113.945833 L173.764236,131.9875 C174.857986,133.876389 175.146181,136.084722 174.576736,138.202778 C174.010764,140.327778 172.656597,142.088194 170.767708,143.181944 C169.510764,143.907639 168.114931,144.275694 166.698264,144.275694" id="Fill-10" fill="#FFFFFF"></path>
                <path d="M101.355556,84.5743056 C100.369444,84.5743056 99.4041667,84.83125 98.5326389,85.3347222 L80.4909722,95.7513889 C79.1784722,96.5118056 78.2375,97.7375 77.8451389,99.2097222 C77.4493056,100.688889 77.6472222,102.220139 78.4041667,103.529167 C79.1611111,104.841667 80.3902778,105.779167 81.8659722,106.175 C83.3347222,106.567361 84.8694444,106.369444 86.1819444,105.615972 L104.227083,95.1958333 C105.536111,94.4423611 106.477083,93.2131944 106.869444,91.7375 C107.265278,90.2652778 107.067361,88.7305556 106.310417,87.4180556 C105.553472,86.1055556 104.324306,85.1680556 102.852083,84.7722222 C102.355556,84.64375 101.855556,84.5743056 101.355556,84.5743056 M83.3625,108.872917 C82.6472222,108.872917 81.9284722,108.779167 81.2166667,108.588194 C79.0986111,108.022222 77.33125,106.668056 76.2409722,104.779167 C75.1506944,102.890278 74.8625,100.685417 75.4284722,98.5638889 C75.9979167,96.4423611 77.3486111,94.6784722 79.2375,93.5881944 L97.2826389,83.1715278 C99.1680556,82.0777778 101.372917,81.7861111 103.497917,82.3555556 C105.615972,82.925 107.383333,84.2791667 108.473611,86.1680556 C109.567361,88.0604167 109.852083,90.2652778 109.286111,92.3868056 C108.720139,94.5013889 107.365972,96.2722222 105.477083,97.3659722 L87.4354167,107.779167 C86.1784722,108.504861 84.7826389,108.872917 83.3625,108.872917" id="Fill-12" fill="#FFFFFF"></path>
                <path d="M115.239583,154.029167 C114.256944,154.029167 113.288194,154.286111 112.416667,154.789583 L94.375,165.209722 C93.0625,165.963194 92.125,167.188889 91.7291667,168.668056 C91.3333333,170.140278 91.53125,171.671528 92.2916667,172.984028 C93.0451389,174.296528 94.2743056,175.234028 95.75,175.633333 C97.2256944,176.025694 98.7569444,175.827778 100.065972,175.070833 L118.111111,164.654167 C119.423611,163.89375 120.361111,162.664583 120.756944,161.192361 C121.152778,159.716667 120.951389,158.181944 120.194444,156.872917 C119.4375,155.560417 118.208333,154.622917 116.736111,154.230556 C116.239583,154.095139 115.739583,154.029167 115.239583,154.029167 M97.2326389,178.33125 C94.4027778,178.33125 91.6423611,176.859028 90.125,174.234028 C89.0347222,172.341667 88.7465278,170.140278 89.3125,168.015278 C89.8819444,165.900694 91.2326389,164.129861 93.1215278,163.039583 L111.166667,152.626389 C113.059028,151.529167 115.267361,151.247917 117.381944,151.813889 C119.503472,152.379861 121.267361,153.734028 122.361111,155.622917 C123.451389,157.511806 123.739583,159.720139 123.170139,161.838194 C122.604167,163.959722 121.25,165.723611 119.361111,166.817361 L101.319444,177.234028 C100.03125,177.977083 98.625,178.33125 97.2326389,178.33125" id="Fill-14" fill="#FFFFFF"></path>
                <path d="M152.133681,81.1020833 C151.633681,81.1020833 151.133681,81.1715278 150.637153,81.3 C149.164931,81.6958333 147.935764,82.6333333 147.178819,83.9458333 C146.421875,85.2583333 146.223958,86.7930556 146.619792,88.2652778 C147.012153,89.7409722 147.953125,90.9701389 149.262153,91.7236111 L167.307292,102.140278 C168.616319,102.897222 170.151042,103.095139 171.623264,102.702778 C173.098958,102.306944 174.328125,101.369444 175.081597,100.056944 C175.842014,98.7479167 176.039931,97.2166667 175.644097,95.7375 C175.251736,94.2652778 174.310764,93.0395833 172.998264,92.2791667 L154.956597,81.8625 C154.085069,81.3590278 153.116319,81.1020833 152.133681,81.1020833 M170.126736,105.400694 C168.706597,105.400694 167.310764,105.032639 166.053819,104.306944 L148.012153,93.8902778 C146.123264,92.8 144.769097,91.0291667 144.203125,88.9145833 C143.637153,86.7930556 143.921875,84.5881944 145.012153,82.6958333 C146.105903,80.8069444 147.873264,79.4527778 149.991319,78.8833333 C152.116319,78.3208333 154.317708,78.6090278 156.206597,79.6993056 L174.251736,90.1159722 C176.140625,91.20625 177.491319,92.9701389 178.060764,95.0916667 C178.626736,97.2131944 178.338542,99.4180556 177.248264,101.306944 C176.157986,103.195833 174.390625,104.55 172.272569,105.115972 C171.560764,105.306944 170.842014,105.400694 170.126736,105.400694" id="Fill-16" fill="#FFFFFF"></path>
                <path d="M113.925347,119.306944 C111.956597,119.306944 110.036458,120.327778 108.984375,122.150694 C107.414931,124.872917 108.348958,128.359028 111.067708,129.931944 L129.112847,140.348611 C130.421875,141.102083 131.956597,141.296528 133.428819,140.911111 C134.904514,140.511806 136.133681,139.574306 136.887153,138.261806 C137.647569,136.949306 137.845486,135.418056 137.449653,133.945833 C137.057292,132.470139 136.116319,131.240972 134.803819,130.484028 L116.762153,120.070833 C115.869792,119.55 114.890625,119.306944 113.925347,119.306944 M131.942708,143.609028 C130.553819,143.609028 129.147569,143.254861 127.859375,142.515278 L109.817708,132.095139 C105.904514,129.834722 104.560764,124.813889 106.817708,120.900694 C109.078125,116.990972 114.098958,115.64375 118.012153,117.900694 L136.057292,128.317361 C137.942708,129.407639 139.296875,131.178472 139.866319,133.296528 C140.432292,135.418056 140.144097,137.622917 139.053819,139.511806 C137.536458,142.136806 134.776042,143.609028 131.942708,143.609028" id="Fill-18" fill="#FFFFFF"></path>
                <mask id="mask-2" fill="white">
                    <use xlink:href="#path-1"></use>
                </mask>
                <g id="Clip-21"></g>
                <path d="M27.7777778,222.222222 L222.222222,222.222222 L222.222222,27.7777778 L27.7777778,27.7777778 L27.7777778,222.222222 Z M0,0 L0,8.68055556 L0,27.7777778 L0,222.222222 L0,241.319444 L0,250 L250,250 L250,241.319444 L250,222.222222 L250,27.7777778 L250,8.68055556 L250,0 L0,0 Z" id="Fill-20" fill="#C9DEFF" mask="url(#mask-2)"></path>
                <path d="M277.777778,222.222222 L472.222222,222.222222 L472.222222,27.7777778 L277.777778,27.7777778 L277.777778,222.222222 Z M250,0 L250,8.68055556 L250,27.7777778 L250,222.222222 L250,241.319444 L250,250 L500,250 L500,241.319444 L500,222.222222 L500,27.7777778 L500,8.68055556 L500,0 L250,0 Z" id="Fill-22" fill="#F3F3F3" mask="url(#mask-2)"></path>
                <path d="M375,222.222222 C321.392361,222.222222 277.777778,178.604167 277.777778,125 C277.777778,71.3958333 321.392361,27.7777778 375,27.7777778 C428.607639,27.7777778 472.222222,71.3958333 472.222222,125 C472.222222,178.604167 428.607639,222.222222 375,222.222222" id="Fill-23" fill="#000000" mask="url(#mask-2)"></path>
                <path d="M381.081597,152.364236 L381.505208,152.190625 C384.605903,150.930208 386.609375,147.951042 386.609375,144.607292 L386.616319,136.753125 C386.623264,130.353819 381.696181,124.888542 375.633681,124.569097 C372.383681,124.416319 369.348958,125.527431 367.019097,127.735764 C364.682292,129.951042 363.397569,132.940625 363.397569,136.159375 L363.394097,144.589931 C363.390625,147.947569 365.401042,150.930208 368.515625,152.190625 L368.935764,152.364236 L368.935764,170.107292 L371.435764,170.107292 L371.435764,151.530903 C371.435764,151.020486 371.001736,150.496181 370.526042,150.305208 L369.449653,149.871181 C367.286458,148.996181 365.890625,146.926736 365.890625,144.589931 L365.897569,136.159375 C365.897569,133.635069 366.904514,131.291319 368.737847,129.551736 C370.571181,127.815625 372.998264,127.003125 375.501736,127.065625 C380.255208,127.315625 384.119792,131.659375 384.116319,136.753125 L384.112847,144.607292 C384.109375,146.933681 382.717014,148.999653 380.564236,149.874653 L379.362847,150.364236 C378.890625,150.555208 378.581597,151.013542 378.581597,151.523958 L378.581597,170.107292 L381.081597,170.107292 L381.081597,152.364236 Z M341.526042,175.829514 L408.470486,175.829514 L408.470486,98.471875 L341.526042,98.471875 L341.526042,175.829514 Z M410.970486,177.082986 L410.970486,97.221875 C410.970486,96.5309028 410.411458,95.971875 409.723958,95.971875 L340.279514,95.971875 C339.588542,95.971875 339.029514,96.5309028 339.029514,97.221875 L339.029514,177.082986 C339.029514,177.773958 339.588542,178.332986 340.279514,178.332986 L409.723958,178.332986 C410.411458,178.332986 410.970486,177.773958 410.970486,177.082986 Z M378.960069,112.846875 C378.960069,115.030903 377.182292,116.805208 375.001736,116.805208 C372.817708,116.805208 371.039931,115.030903 371.039931,112.846875 C371.039931,110.662847 372.817708,108.888542 375.001736,108.888542 C377.182292,108.888542 378.960069,110.662847 378.960069,112.846875 Z M381.456597,112.846875 C381.456597,109.287847 378.560764,106.388542 375.001736,106.388542 C371.439236,106.388542 368.543403,109.287847 368.543403,112.846875 C368.543403,116.409375 371.439236,119.305208 375.001736,119.305208 C378.560764,119.305208 381.456597,116.409375 381.456597,112.846875 Z M372.428819,85.9371528 L361.112847,74.6211806 L349.932292,85.8017361 L351.699653,87.5725694 L361.112847,78.1559028 L370.661458,87.7079861 L372.428819,85.9371528 Z M400.310764,77.1559028 L398.543403,75.3850694 L388.890625,85.0378472 L379.373264,75.5204861 L377.605903,77.2913194 L388.890625,88.5725694 L400.310764,77.1559028 Z M425.831597,177.082986 L428.331597,177.082986 L428.331597,72.9163194 L425.831597,72.9163194 L425.831597,177.082986 Z M321.664931,177.082986 L324.164931,177.082986 L324.164931,72.9163194 L321.664931,72.9163194 L321.664931,177.082986 Z" id="Fill-24" fill="#FFFFFF" mask="url(#mask-2)"></path>
            </g>
        </g>
    </g>
</svg>