<?xml version="1.0" encoding="UTF-8"?>
<svg width="928px" height="522px" viewBox="0 0 928 522" version="1.1" xmlns="http://www.w3.org/2000/svg" xmlns:xlink="http://www.w3.org/1999/xlink">
    <!-- Generator: Sketch 52.5 (67469) - http://www.bohemiancoding.com/sketch -->
    <title>Artboard Copy 17</title>
    <desc>Created with Sketch.</desc>
    <g id="Artboard-Copy-17" stroke="none" stroke-width="1" fill="none" fill-rule="evenodd">
        <g id="Clearance-example-comp-Copy" fill="#FFFFFF">
            <rect id="Rectangle-3" x="0" y="0" width="928" height="522"></rect>
        </g>
        <g id="Group-24-Copy" transform="translate(214.000000, 136.000000)">
            <polygon id="Fill-1" fill="#FFFFFF" points="0 250 500 250 500 0 0 0"></polygon>
            <path d="M111.111111,180.555556 L222.222222,180.555556 L222.222222,69.4444444 L111.111111,69.4444444 L111.111111,180.555556 Z M83.3333333,41.6666667 L83.3333333,55.5555556 L83.3333333,69.4444444 L83.3333333,180.555556 L83.3333333,194.444444 L83.3333333,208.333333 L250,208.333333 L250,194.444444 L250,180.555556 L250,69.4444444 L250,55.5555556 L250,41.6666667 L83.3333333,41.6666667 Z" id="Fill-2" fill="#C9DEFF"></path>
            <path d="M277.777778,180.555556 L388.888889,180.555556 L388.888889,69.4444444 L277.777778,69.4444444 L277.777778,180.555556 Z M250,41.6666667 L250,55.5555556 L250,69.4444444 L250,180.555556 L250,194.444444 L250,208.333333 L416.666667,208.333333 L416.666667,194.444444 L416.666667,180.555556 L416.666667,69.4444444 L416.666667,55.5555556 L416.666667,41.6666667 L250,41.6666667 Z" id="Fill-3" fill="#C9DEFF"></path>
            <polygon id="Fill-4" fill="#FFFFFF" points="111.111111 180.559028 222.222222 180.559028 222.222222 69.4479167 111.111111 69.4479167"></polygon>
            <g id="Group-23" transform="translate(113.111111, 71.444444)">
                <path d="M60.521875,2.71666667 C58.553125,2.71666667 56.6329861,3.7375 55.5809028,5.55694444 L45.1642361,23.6020833 C43.5947917,26.3243056 44.5288194,29.8138889 47.2475694,31.3833333 C48.5600694,32.1402778 50.0947917,32.3381944 51.5670139,31.9423611 C53.0427083,31.55 54.271875,30.6055556 55.0253472,29.2965278 L65.4420139,11.2548611 C66.1989583,9.94236111 66.4003472,8.41111111 66.0045139,6.93541667 C65.6086806,5.46319444 64.6711806,4.23402778 63.3586806,3.47708333 C62.4663194,2.95972222 61.4871528,2.71666667 60.521875,2.71666667 M50.0670139,34.6402778 C48.6503472,34.6402778 47.2545139,34.2722222 45.9975694,33.5465278 C42.084375,31.2895833 40.740625,26.2652778 43.0010417,22.3520833 L53.4177083,4.31041667 C55.6746528,0.397222222 60.6954861,-0.95 64.6086806,1.31388889 C66.4975694,2.40069444 67.8517361,4.17152778 68.4177083,6.28958333 C68.9871528,8.41111111 68.6989583,10.6125 67.6086806,12.5013889 L57.1920139,30.5465278 C56.1017361,32.4388889 54.334375,33.7895833 52.2128472,34.3555556 C51.5045139,34.5465278 50.7822917,34.6402778 50.0670139,34.6402778" id="Fill-5" fill="#000000"></path>
                <path d="M75.1111111,84.1340278 C74.125,84.1340278 73.1493056,84.3909722 72.2638889,84.9048611 C70.9409722,85.6652778 70,86.8909722 69.6076389,88.3527778 C69.2152778,89.8180556 69.4201389,91.3493056 70.1840278,92.6722222 C70.9479167,93.9916667 72.1701389,94.9361111 73.6319444,95.3284722 L73.6354167,95.3284722 L93.7569444,100.717361 C95.21875,101.102778 96.7534722,100.908333 98.0729167,100.140972 C99.3958333,99.3805556 100.340278,98.1548611 100.732639,96.6930556 C101.545139,93.6618056 99.7361111,90.5333333 96.7048611,89.7173611 L76.5798611,84.3284722 C76.0972222,84.2 75.6041667,84.1340278 75.1111111,84.1340278 M95.2326389,103.415278 C94.5243056,103.415278 93.8125,103.321528 93.1111111,103.134028 L72.9861111,97.7416667 C70.8784722,97.1791667 69.1145833,95.8215278 68.0173611,93.91875 C66.9201389,92.0194444 66.6284722,89.8145833 67.1909722,87.7069444 C67.7569444,85.5993056 69.1145833,83.8354167 71.0138889,82.7381944 C72.9166667,81.6409722 75.1215278,81.3458333 77.2291667,81.9118056 L97.3506944,87.3041667 C101.715278,88.4743056 104.315972,92.9777778 103.145833,97.3388889 C102.583333,99.4465278 101.225694,101.210417 99.3263889,102.307639 C98.0555556,103.040278 96.6527778,103.415278 95.2326389,103.415278" id="Fill-7" fill="#000000"></path>
                <path d="M18.8572917,57.5996528 C18.3572917,57.5996528 17.8572917,57.6690972 17.3607639,57.8010417 C15.8850694,58.1934028 14.6559028,59.1378472 13.9024306,60.446875 L3.48576389,78.4885417 C2.72534722,79.8010417 2.52743056,81.3322917 2.92326389,82.8079861 C3.31909722,84.2802083 4.25659722,85.509375 5.56909722,86.2663194 C8.28784722,87.8357639 11.7774306,86.9017361 13.346875,84.1864583 L23.7635417,66.1413194 C25.3329861,63.4190972 24.3989583,59.9295139 21.6802083,58.3600694 C20.8086806,57.8600694 19.8399306,57.5996528 18.8572917,57.5996528 Z M8.40243056,89.5267361 C7.01354167,89.5267361 5.60381944,89.1725694 4.31909722,88.4295139 C2.43020833,87.3427083 1.07604167,85.571875 0.510069444,83.4538194 C-0.059375,81.3322917 0.228819444,79.1274306 1.31909722,77.2420139 L11.7357639,59.196875 C12.8260417,57.3045139 14.5934028,55.9538194 16.7149306,55.3878472 C18.8329861,54.821875 21.0413194,55.1065972 22.9302083,56.196875 C26.8434028,58.4538194 28.1871528,63.478125 25.9302083,67.3913194 L15.5135417,85.4329861 C13.9961806,88.0579861 11.2357639,89.5267361 8.40243056,89.5267361 Z" id="Fill-9" fill="#000000"></path>
                <path d="M84.7986111,40.9111111 C83.8333333,40.9111111 82.8541667,41.1541667 81.9618056,41.6715278 C80.6493056,42.4284722 79.7118056,43.6576389 79.3159722,45.1298611 C78.9201389,46.6055556 79.1180556,48.1368056 79.8784722,49.4493056 L90.2951389,67.4909722 C91.0486111,68.8 92.2777778,69.7444444 93.7534722,70.1368056 C95.2256944,70.5326389 96.7604167,70.3347222 98.0729167,69.5777778 C100.791667,68.0083333 101.725694,64.51875 100.15625,61.7965278 L89.7395833,43.7513889 C88.6875,41.9319444 86.7673611,40.9111111 84.7986111,40.9111111 M95.2534722,72.8347222 C94.5381944,72.8347222 93.8159722,72.7409722 93.1076389,72.55 C90.9861111,71.9840278 89.21875,70.6333333 88.1284722,68.7409722 L77.7118056,50.6958333 C76.6215278,48.8104167 76.3333333,46.6055556 76.9027778,44.4840278 C77.46875,42.3659722 78.8229167,40.5951389 80.7118056,39.5083333 C84.6215278,37.2444444 89.6458333,38.5951389 91.9027778,42.5048611 L102.319444,60.5465278 C104.579861,64.4597222 103.236111,69.4840278 99.3229167,71.7409722 C98.0659722,72.4666667 96.6701389,72.8347222 95.2534722,72.8347222" id="Fill-11" fill="#000000"></path>
                <path d="M29.9246528,13.1333333 C28.959375,13.1333333 27.9802083,13.3763889 27.0878472,13.89375 L9.04270833,24.3104167 C7.73368056,25.0673611 6.79270833,26.2965278 6.40034722,27.76875 C6.00451389,29.2444444 6.20243056,30.7756944 6.959375,32.0881944 C7.71631944,33.3972222 8.94548611,34.3381944 10.4211806,34.7340278 C11.8934028,35.1298611 13.428125,34.9319444 14.7371528,34.175 L32.7822917,23.7583333 C35.4975694,22.1854167 36.4350694,18.6993056 34.865625,15.9736111 C33.8135417,14.1541667 31.8934028,13.1333333 29.9246528,13.1333333 M11.9177083,37.4319444 C11.2024306,37.4319444 10.4836806,37.3381944 9.771875,37.1472222 C7.65381944,36.58125 5.88645833,35.2270833 4.79618056,33.3347222 C3.70243056,31.4493056 3.41770833,29.2444444 3.98368056,27.1229167 C4.553125,25.0048611 5.90729167,23.2340278 7.79270833,22.1472222 L25.8378472,11.7305556 C29.7475694,9.46666667 34.771875,10.8173611 37.0288194,14.7270833 C39.2892361,18.6402778 37.9420139,23.6611111 34.0322917,25.9215278 L15.9871528,36.3381944 C14.7336806,37.0638889 13.3378472,37.4319444 11.9177083,37.4319444" id="Fill-13" fill="#000000"></path>
                <path d="M43.8104167,82.5878472 C42.8451389,82.5878472 41.8659722,82.8309028 40.9701389,83.3482639 L22.9284722,93.7649306 C21.6194444,94.521875 20.6784722,95.7510417 20.2861111,97.2232639 C19.8902778,98.6989583 20.0881944,100.230208 20.8451389,101.542708 C21.6020833,102.851736 22.83125,103.792708 24.3034722,104.188542 C25.7791667,104.584375 27.3138889,104.382986 28.6229167,103.629514 L46.6645833,93.2128472 C49.3833333,91.6399306 50.3208333,88.1538194 48.7513889,85.428125 C47.6958333,83.6086806 45.7791667,82.5878472 43.8104167,82.5878472 M25.8034722,106.886458 C25.0881944,106.886458 24.3694444,106.792708 23.6576389,106.601736 C21.5361111,106.035764 19.76875,104.681597 18.6784722,102.789236 C17.5881944,100.900347 17.3,98.6989583 17.8694444,96.5774306 C18.4388889,94.459375 19.7930556,92.6885417 21.6784722,91.6017361 L39.7201389,81.1850694 C43.6298611,78.9246528 48.6541667,80.2684028 50.9145833,84.1815972 C53.175,88.0947917 51.8277778,93.115625 47.9145833,95.3760417 L29.8729167,105.792708 C28.6194444,106.518403 27.2236111,106.886458 25.8034722,106.886458" id="Fill-15" fill="#000000"></path>
                <path d="M80.6739583,9.66111111 C78.7052083,9.66111111 76.7885417,10.6819444 75.7329861,12.5013889 C74.1635417,15.2270833 75.1010417,18.7131944 77.8197917,20.2861111 L95.8614583,30.7027778 C97.1704861,31.45625 98.7086806,31.6576389 100.180903,31.2618056 C101.653125,30.8659722 102.882292,29.925 103.639236,28.6159722 C104.396181,27.3034722 104.597569,25.7722222 104.198264,24.2965278 C103.805903,22.8243056 102.864931,21.5951389 101.555903,20.8381944 L83.5142361,10.4215278 C82.6184028,9.90416667 81.6392361,9.66111111 80.6739583,9.66111111 M98.6809028,33.9597222 C97.2607639,33.9597222 95.8649306,33.5916667 94.6114583,32.8659722 L76.5697917,22.4493056 C72.6565972,20.1888889 71.309375,15.1680556 73.5697917,11.2548611 C75.8267361,7.34166667 80.8475694,5.99791667 84.7642361,8.25833333 L102.805903,18.675 C104.691319,19.7618056 106.048958,21.5326389 106.614931,23.6506944 C107.184375,25.7722222 106.896181,27.9770833 105.805903,29.8625 C104.715625,31.7548611 102.948264,33.1090278 100.826736,33.675 C100.114931,33.8659722 99.3961806,33.9597222 98.6809028,33.9597222" id="Fill-17" fill="#000000"></path>
                <path d="M42.4947917,47.865625 C41.9947917,47.865625 41.4947917,47.9350694 40.9982639,48.0670139 C39.5260417,48.459375 38.296875,49.4003472 37.5399306,50.709375 C36.7829861,52.021875 36.5850694,53.5565972 36.9809028,55.0288194 C37.3732639,56.5010417 38.3142361,57.7336806 39.6232639,58.490625 L57.6649306,68.9072917 C60.3871528,70.4767361 63.8767361,69.5392361 65.4461806,66.8239583 C67.015625,64.1017361 66.078125,60.6121528 63.359375,59.0427083 L45.3177083,48.6260417 C44.4461806,48.1225694 43.4809028,47.865625 42.4947917,47.865625 M60.5017361,72.1642361 C59.109375,72.1642361 57.703125,71.8100694 56.4149306,71.0704861 L38.3732639,60.6538194 C36.4878472,59.5635417 35.1336806,57.7927083 34.5642361,55.6746528 C33.9947917,53.5565972 34.2829861,51.3517361 35.3732639,49.4628472 C36.4635417,47.5704861 38.2309028,46.2163194 40.3524306,45.6503472 C42.4739583,45.084375 44.6788194,45.3690972 46.5677083,46.4628472 L64.609375,56.8795139 C68.5225694,59.1364583 69.8697917,64.1572917 67.609375,68.0704861 C66.0920139,70.6954861 63.3350694,72.1642361 60.5017361,72.1642361" id="Fill-19" fill="#000000"></path>
                <path d="M226.303819,80.9197917 L226.727431,80.7461806 C229.828125,79.4857639 231.831597,76.5065972 231.831597,73.1628472 L231.838542,65.3086806 C231.845486,58.909375 226.918403,53.4440972 220.855903,53.1246528 C217.605903,52.971875 214.571181,54.0829861 212.241319,56.2913194 C209.904514,58.5065972 208.619792,61.4961806 208.619792,64.7149306 L208.616319,73.1454861 C208.612847,76.503125 210.623264,79.4857639 213.737847,80.7461806 L214.157986,80.9197917 L214.157986,98.6628472 L216.657986,98.6628472 L216.657986,80.0864583 C216.657986,79.5760417 216.223958,79.0517361 215.748264,78.8607639 L214.671875,78.4267361 C212.508681,77.5517361 211.112847,75.4822917 211.112847,73.1454861 L211.119792,64.7149306 C211.119792,62.190625 212.126736,59.846875 213.960069,58.1072917 C215.793403,56.3711806 218.220486,55.5586806 220.723958,55.6211806 C225.477431,55.8711806 229.342014,60.2149306 229.338542,65.3086806 L229.335069,73.1628472 C229.331597,75.4892361 227.939236,77.5552083 225.786458,78.4302083 L224.585069,78.9197917 C224.112847,79.1107639 223.803819,79.5690972 223.803819,80.0795139 L223.803819,98.6628472 L226.303819,98.6628472 L226.303819,80.9197917 Z M186.748264,104.385069 L253.692708,104.385069 L253.692708,27.0274306 L186.748264,27.0274306 L186.748264,104.385069 Z M256.192708,105.638542 L256.192708,25.7774306 C256.192708,25.0864583 255.633681,24.5274306 254.946181,24.5274306 L185.501736,24.5274306 C184.810764,24.5274306 184.251736,25.0864583 184.251736,25.7774306 L184.251736,105.638542 C184.251736,106.329514 184.810764,106.888542 185.501736,106.888542 L254.946181,106.888542 C255.633681,106.888542 256.192708,106.329514 256.192708,105.638542 Z M224.182292,41.4024306 C224.182292,43.5864583 222.404514,45.3607639 220.223958,45.3607639 C218.039931,45.3607639 216.262153,43.5864583 216.262153,41.4024306 C216.262153,39.2184028 218.039931,37.4440972 220.223958,37.4440972 C222.404514,37.4440972 224.182292,39.2184028 224.182292,41.4024306 Z M226.678819,41.4024306 C226.678819,37.8434028 223.782986,34.9440972 220.223958,34.9440972 C216.661458,34.9440972 213.765625,37.8434028 213.765625,41.4024306 C213.765625,44.9649306 216.661458,47.8607639 220.223958,47.8607639 C223.782986,47.8607639 226.678819,44.9649306 226.678819,41.4024306 Z M217.651042,14.4927083 L206.335069,3.17673611 L195.154514,14.3572917 L196.921875,16.128125 L206.335069,6.71145833 L215.883681,16.2635417 L217.651042,14.4927083 Z M245.532986,5.71145833 L243.765625,3.940625 L234.112847,13.5934028 L224.595486,4.07604167 L222.828125,5.846875 L234.112847,17.128125 L245.532986,5.71145833 Z M271.053819,105.638542 L273.553819,105.638542 L273.553819,1.471875 L271.053819,1.471875 L271.053819,105.638542 Z M166.887153,105.638542 L169.387153,105.638542 L169.387153,1.471875 L166.887153,1.471875 L166.887153,105.638542 Z" id="Fill-21" fill="#171717"></path>
            </g>
        </g>
        <path d="M298.016949,365.5 L298.016949,369 L297,369 L297,361 L298.016949,361 L298.016949,364.5 L325.983051,364.5 L325.983051,361 L327,361 L327,369 L325.983051,369 L325.983051,365.5 L298.016949,365.5 Z" id="Combined-Shape-Copy-7" fill="#97C1FF" fill-rule="nonzero"></path>
        <path d="M298.653,388 L298.653,386.964 L301.383,386.964 L301.383,379.292 L298.625,380.93 L298.163,380.034 L301.271,378.228 L302.559,378.228 L302.559,386.964 L305.079,386.964 L305.079,388 L298.653,388 Z M305.947,390.114 L309.601,377.64 L310.609,377.64 L306.955,390.114 L305.947,390.114 Z M316.433,388 L316.433,386.082 L311.715,386.082 L311.715,385.046 L315.803,378.228 L317.553,378.228 L317.553,385.102 L318.967,385.102 L318.967,386.082 L317.553,386.082 L317.553,388 L316.433,388 Z M312.821,385.102 L316.433,385.102 L316.433,379.138 L316.363,379.138 L312.821,385.102 Z M330.167,388.798 C330.167,389.54467 329.875336,390.092998 329.292,390.443 C328.708664,390.793002 327.833672,390.968 326.667,390.968 C325.537661,390.968 324.725669,390.814002 324.231,390.506 C323.736331,390.197998 323.489,389.759336 323.489,389.19 C323.489,388.797998 323.591666,388.492334 323.797,388.273 C324.002334,388.053666 324.282332,387.892667 324.637,387.79 L324.637,387.636 C324.207665,387.430666 323.993,387.094669 323.993,386.628 C323.993,386.263998 324.109666,385.986334 324.343,385.795 C324.576335,385.603666 324.874998,385.461334 325.239,385.368 L325.239,385.312 C324.809665,385.106666 324.476001,384.812669 324.238,384.43 C323.999999,384.047331 323.881,383.604003 323.881,383.1 C323.881,382.735998 323.946333,382.400002 324.077,382.092 C324.207667,381.783998 324.391999,381.520334 324.63,381.301 C324.868001,381.081666 325.152665,380.911334 325.484,380.79 C325.815335,380.668666 326.186331,380.608 326.597,380.608 C327.110336,380.608 327.567665,380.701332 327.969,380.888 L327.969,380.762 C327.969,380.481999 328.034333,380.248668 328.165,380.062 C328.295667,379.875332 328.510332,379.786667 328.809,379.796 L329.887,379.796 L329.887,380.776 L328.515,380.776 L328.515,381.238 C328.776335,381.462001 328.979333,381.730332 329.124,382.043 C329.268667,382.355668 329.341,382.707998 329.341,383.1 C329.341,383.464002 329.275667,383.799998 329.145,384.108 C329.014333,384.416002 328.830001,384.679666 328.592,384.899 C328.353999,385.118334 328.067002,385.288666 327.731,385.41 C327.394998,385.531334 327.021669,385.592 326.611,385.592 C326.377665,385.592 326.144335,385.568667 325.911,385.522 C325.668332,385.587334 325.449001,385.682999 325.253,385.809 C325.056999,385.935001 324.959,386.109999 324.959,386.334 C324.959,386.548668 325.061666,386.693333 325.267,386.768 C325.472334,386.842667 325.738332,386.88 326.065,386.88 L327.605,386.88 C328.501004,386.88 329.151998,387.050332 329.558,387.391 C329.964002,387.731668 330.167,388.200664 330.167,388.798 Z M329.117,388.882 C329.117,388.592665 329.007334,388.361668 328.788,388.189 C328.568666,388.016332 328.179003,387.93 327.619,387.93 L325.211,387.93 C324.762998,388.135334 324.539,388.461998 324.539,388.91 C324.539,389.227335 324.657999,389.497999 324.896,389.722 C325.134001,389.946001 325.537664,390.058 326.107,390.058 L327.143,390.058 C327.768336,390.058 328.253665,389.960001 328.599,389.764 C328.944335,389.567999 329.117,389.274002 329.117,388.882 Z M326.611,384.696 C327.087002,384.696 327.464999,384.581668 327.745,384.353 C328.025001,384.124332 328.165,383.772002 328.165,383.296 L328.165,382.904 C328.165,382.427998 328.025001,382.075668 327.745,381.847 C327.464999,381.618332 327.087002,381.504 326.611,381.504 C326.134998,381.504 325.757001,381.618332 325.477,381.847 C325.196999,382.075668 325.057,382.427998 325.057,382.904 L325.057,383.296 C325.057,383.772002 325.196999,384.124332 325.477,384.353 C325.757001,384.581668 326.134998,384.696 326.611,384.696 Z M331.469,388 L331.469,380.776 L332.589,380.776 L332.589,382.106 L332.659,382.106 C332.789667,381.760665 333.022998,381.452668 333.359,381.182 C333.695002,380.911332 334.156997,380.776 334.745,380.776 L335.179,380.776 L335.179,381.896 L334.521,381.896 C333.91433,381.896 333.440668,382.010332 333.1,382.239 C332.759332,382.467668 332.589,382.754665 332.589,383.1 L332.589,388 L331.469,388 Z M337.167,379.082 C336.924332,379.082 336.749334,379.023667 336.642,378.907 C336.534666,378.790333 336.481,378.638668 336.481,378.452 L336.481,378.27 C336.481,378.083332 336.534666,377.931667 336.642,377.815 C336.749334,377.698333 336.924332,377.64 337.167,377.64 C337.409668,377.64 337.584666,377.698333 337.692,377.815 C337.799334,377.931667 337.853,378.083332 337.853,378.27 L337.853,378.452 C337.853,378.638668 337.799334,378.790333 337.692,378.907 C337.584666,379.023667 337.409668,379.082 337.167,379.082 Z M336.607,380.776 L337.727,380.776 L337.727,388 L336.607,388 L336.607,380.776 Z M344.727,386.824 L344.671,386.824 C344.232331,387.720004 343.527672,388.168 342.557,388.168 C342.108998,388.168 341.703002,388.079334 341.339,387.902 C340.974998,387.724666 340.664668,387.472668 340.408,387.146 C340.151332,386.819332 339.955334,386.422669 339.82,385.956 C339.684666,385.489331 339.617,384.96667 339.617,384.388 C339.617,383.80933 339.684666,383.286669 339.82,382.82 C339.955334,382.353331 340.151332,381.956668 340.408,381.63 C340.664668,381.303332 340.974998,381.051334 341.339,380.874 C341.703002,380.696666 342.108998,380.608 342.557,380.608 C343.061003,380.608 343.492665,380.717666 343.852,380.937 C344.211335,381.156334 344.484332,381.494664 344.671,381.952 L344.727,381.952 L344.727,377.64 L345.847,377.64 L345.847,388 L344.727,388 L344.727,386.824 Z M342.865,387.16 C343.117001,387.16 343.357332,387.127334 343.586,387.062 C343.814668,386.996666 344.012999,386.901001 344.181,386.775 C344.349001,386.648999 344.482,386.495001 344.58,386.313 C344.678,386.130999 344.727,385.923334 344.727,385.69 L344.727,383.002 C344.727,382.805999 344.678,382.621668 344.58,382.449 C344.482,382.276332 344.349001,382.129334 344.181,382.008 C344.012999,381.886666 343.814668,381.791 343.586,381.721 C343.357332,381.651 343.117001,381.616 342.865,381.616 C342.23033,381.616 341.731002,381.814331 341.367,382.211 C341.002998,382.607669 340.821,383.127997 340.821,383.772 L340.821,385.004 C340.821,385.648003 341.002998,386.168331 341.367,386.565 C341.731002,386.961669 342.23033,387.16 342.865,387.16 Z M350.775,380.776 L351.867,380.776 L352.637,383.898 L353.407,387.062 L353.435,387.062 L354.317,383.898 L355.227,380.776 L356.221,380.776 L357.159,383.898 L358.055,387.062 L358.083,387.062 L358.825,383.898 L359.609,380.776 L360.659,380.776 L358.741,388 L357.355,388 L356.347,384.528 L355.717,382.33 L355.689,382.33 L355.073,384.528 L354.065,388 L352.707,388 L350.775,380.776 Z M362.843,379.082 C362.600332,379.082 362.425334,379.023667 362.318,378.907 C362.210666,378.790333 362.157,378.638668 362.157,378.452 L362.157,378.27 C362.157,378.083332 362.210666,377.931667 362.318,377.815 C362.425334,377.698333 362.600332,377.64 362.843,377.64 C363.085668,377.64 363.260666,377.698333 363.368,377.815 C363.475334,377.931667 363.529,378.083332 363.529,378.27 L363.529,378.452 C363.529,378.638668 363.475334,378.790333 363.368,378.907 C363.260666,379.023667 363.085668,379.082 362.843,379.082 Z M362.283,380.776 L363.403,380.776 L363.403,388 L362.283,388 L362.283,380.776 Z M370.403,386.824 L370.347,386.824 C369.908331,387.720004 369.203672,388.168 368.233,388.168 C367.784998,388.168 367.379002,388.079334 367.015,387.902 C366.650998,387.724666 366.340668,387.472668 366.084,387.146 C365.827332,386.819332 365.631334,386.422669 365.496,385.956 C365.360666,385.489331 365.293,384.96667 365.293,384.388 C365.293,383.80933 365.360666,383.286669 365.496,382.82 C365.631334,382.353331 365.827332,381.956668 366.084,381.63 C366.340668,381.303332 366.650998,381.051334 367.015,380.874 C367.379002,380.696666 367.784998,380.608 368.233,380.608 C368.737003,380.608 369.168665,380.717666 369.528,380.937 C369.887335,381.156334 370.160332,381.494664 370.347,381.952 L370.403,381.952 L370.403,377.64 L371.523,377.64 L371.523,388 L370.403,388 L370.403,386.824 Z M368.541,387.16 C368.793001,387.16 369.033332,387.127334 369.262,387.062 C369.490668,386.996666 369.688999,386.901001 369.857,386.775 C370.025001,386.648999 370.158,386.495001 370.256,386.313 C370.354,386.130999 370.403,385.923334 370.403,385.69 L370.403,383.002 C370.403,382.805999 370.354,382.621668 370.256,382.449 C370.158,382.276332 370.025001,382.129334 369.857,382.008 C369.688999,381.886666 369.490668,381.791 369.262,381.721 C369.033332,381.651 368.793001,381.616 368.541,381.616 C367.90633,381.616 367.407002,381.814331 367.043,382.211 C366.678998,382.607669 366.497,383.127997 366.497,383.772 L366.497,385.004 C366.497,385.648003 366.678998,386.168331 367.043,386.565 C367.407002,386.961669 367.90633,387.16 368.541,387.16 Z M375.499,388 C375.106998,388 374.810668,387.890334 374.61,387.671 C374.409332,387.451666 374.309,387.164668 374.309,386.81 L374.309,381.756 L373.119,381.756 L373.119,380.776 L373.791,380.776 C374.033668,380.776 374.199333,380.727 374.288,380.629 C374.376667,380.531 374.421,380.360668 374.421,380.118 L374.421,378.774 L375.429,378.774 L375.429,380.776 L377.011,380.776 L377.011,381.756 L375.429,381.756 L375.429,387.02 L376.899,387.02 L376.899,388 L375.499,388 Z M378.817,377.64 L379.937,377.64 L379.937,381.952 L379.993,381.952 C380.170334,381.541331 380.419998,381.214668 380.742,380.972 C381.064002,380.729332 381.495664,380.608 382.037,380.608 C382.78367,380.608 383.373998,380.848331 383.808,381.329 C384.242002,381.809669 384.459,382.488662 384.459,383.366 L384.459,388 L383.339,388 L383.339,383.562 C383.339,382.26466 382.793005,381.616 381.701,381.616 C381.476999,381.616 381.260001,381.644 381.05,381.7 C380.839999,381.756 380.651001,381.839999 380.483,381.952 C380.314999,382.064001 380.182,382.206332 380.084,382.379 C379.986,382.551668 379.937,382.754665 379.937,382.988 L379.937,388 L378.817,388 L378.817,377.64 Z" id="1/4-grid-width-copy-3" fill="#6F6F6F"></path>
    </g>
</svg>