<?xml version="1.0" encoding="utf-8"?>
<!-- Generator: Adobe Illustrator 23.0.1, SVG Export Plug-In . SVG Version: 6.00 Build 0)  -->
<svg version="1.1" id="Layer_1" xmlns="http://www.w3.org/2000/svg" xmlns:xlink="http://www.w3.org/1999/xlink" x="0px" y="0px"
	 viewBox="0 0 608 456" style="enable-background:new 0 0 608 456;" xml:space="preserve">
<style type="text/css">
	.st0{fill-rule:evenodd;clip-rule:evenodd;fill:#F3F3F3;}
	.st1{fill:#FFFFFF;}
	.st2{fill:none;stroke:#6EA6FF;stroke-width:1.55;stroke-linejoin:round;}
	.st3{fill:none;stroke:#6EA6FF;stroke-width:1.55;stroke-linecap:round;stroke-linejoin:round;}
	.st4{fill:#171717;}
	.st5{fill:none;stroke:#BB8EFF;stroke-width:1.55;stroke-linejoin:round;}
	.st6{fill:none;stroke:#BB8EFF;stroke-width:1.55;stroke-linecap:round;stroke-linejoin:round;}
	.st7{fill:none;stroke:#00BAB6;stroke-width:1.55;stroke-linecap:round;stroke-linejoin:round;}
	.st8{fill:none;stroke:#00BAB6;stroke-width:1.55;}
	.st9{fill-rule:evenodd;clip-rule:evenodd;fill:#FA75A6;}
	.st10{fill:none;stroke:#FA75A6;stroke-width:1.55;stroke-linejoin:round;}
	.st11{fill:none;stroke:#FA75A6;stroke-width:1.55;}
</style>
<title>18_In-Context_7</title>
<polygon id="Rectangle-3" class="st0" points="0,0 608,0 608,456 0,456 "/>
<rect id="Rectangle-13-Copy-102" x="212" y="50" class="st1" width="160" height="160"/>
<rect id="Rectangle-13-Copy-103" x="212" y="230" class="st1" width="160" height="160"/>
<rect id="Rectangle-13-Copy-106" x="391" y="50" class="st1" width="160" height="160"/>
<rect id="Rectangle-13-Copy-107" x="391" y="230" class="st1" width="160" height="160"/>
<g id="Group-22-Copy-4">
	<g id="Group-21">
		<path id="Stroke-1" class="st2" d="M315.6,190l7.7-7.8"/>
		<path id="Stroke-2" class="st2" d="M343.8,161.5l8.2-8.3"/>
		<path id="Stroke-3" class="st3" d="M317.2,149.8c0,3-2.5,5.4-5.5,5.4c-3,0-5.4-2.5-5.4-5.5c0-3,2.5-5.4,5.5-5.4
			C314.8,144.3,317.2,146.8,317.2,149.8C317.2,149.8,317.2,149.8,317.2,149.8z"/>
		<path id="Stroke-5" class="st3" d="M317.2,193.9c0,3-2.5,5.4-5.5,5.4c-3,0-5.4-2.5-5.4-5.5c0-3,2.5-5.4,5.5-5.4
			C314.8,188.4,317.2,190.9,317.2,193.9z"/>
		<path id="Stroke-7" class="st3" d="M360.9,193.9c0,3-2.5,5.4-5.5,5.4c-3,0-5.4-2.5-5.4-5.5c0-3,2.5-5.4,5.5-5.4
			C358.4,188.4,360.9,190.9,360.9,193.9z"/>
		<path id="Stroke-9" class="st3" d="M313.5,193.9c0,1-0.8,1.8-1.8,1.8c-1,0-1.8-0.8-1.8-1.8c0-1,0.8-1.8,1.8-1.8
			C312.7,192.1,313.6,192.9,313.5,193.9z"/>
		<path id="Stroke-11" class="st3" d="M360.9,149.8c0,3-2.5,5.4-5.5,5.4c-3,0-5.4-2.5-5.4-5.5c0-3,2.5-5.4,5.5-5.4
			C358.4,144.3,360.9,146.8,360.9,149.8C360.9,149.8,360.9,149.8,360.9,149.8z"/>
		<path id="Stroke-13" class="st3" d="M357.2,149.8c0,1-0.8,1.8-1.8,1.8c-1,0-1.8-0.8-1.8-1.8s0.8-1.8,1.8-1.8c0,0,0,0,0,0
			C356.4,148,357.2,148.8,357.2,149.8z"/>
		<path id="Stroke-15" class="st3" d="M342.7,171.9c0,5-4.2,9.1-9.2,9s-9.1-4.2-9-9.2c0-5,4.1-9,9.1-9
			C338.6,162.7,342.7,166.8,342.7,171.9z"/>
		<path id="Stroke-17" class="st3" d="M339,171.9c0,3-2.5,5.4-5.5,5.4c-3,0-5.4-2.5-5.4-5.5c0-3,2.5-5.4,5.5-5.4
			C336.6,166.4,339,168.8,339,171.9z"/>
		<path id="Stroke-19" class="st3" d="M313.5,171.9c0,0,5.5,12.9,20,12.9s20-12.9,20-12.9s-5.5-12.9-20-12.9
			S313.5,171.9,313.5,171.9z"/>
	</g>
</g>
<g id="Learn-Copy">
	<g>
		<path class="st4" d="M222.9,69v-7.1h1.1V68h2.9v1H222.9z"/>
		<path class="st4" d="M230,69.1c-0.3,0-0.7-0.1-1-0.2c-0.3-0.1-0.6-0.3-0.8-0.6c-0.2-0.3-0.4-0.6-0.5-0.9c-0.2-0.7-0.2-1.5,0-2.3
			c0.1-0.3,0.3-0.6,0.5-0.9c0.2-0.2,0.5-0.4,0.8-0.5c0.3-0.1,0.7-0.2,1-0.2c0.3,0,0.7,0.1,1,0.2c0.3,0.1,0.5,0.3,0.7,0.6
			c0.2,0.3,0.3,0.5,0.4,0.8c0.1,0.3,0.2,0.7,0.1,1v0.4h-3.6v0.2c0,0.4,0.1,0.7,0.4,1c0.3,0.3,0.6,0.4,1,0.4c0.3,0,0.6-0.1,0.8-0.2
			c0.2-0.1,0.4-0.3,0.6-0.6l0.6,0.6c-0.2,0.3-0.5,0.6-0.9,0.8C230.9,69,230.4,69.1,230,69.1z M230,64.5c-0.2,0-0.4,0-0.5,0.1
			c-0.2,0.1-0.3,0.2-0.4,0.3c-0.1,0.1-0.2,0.3-0.3,0.4c-0.1,0.2-0.1,0.4-0.1,0.6v0.1h2.4v-0.1c0-0.4-0.1-0.7-0.3-1
			C230.6,64.6,230.3,64.4,230,64.5z"/>
		<path class="st4" d="M237.4,69c-0.2,0-0.5-0.1-0.7-0.2c-0.2-0.2-0.3-0.4-0.3-0.6h-0.1c-0.1,0.3-0.3,0.6-0.6,0.8
			c-0.3,0.2-0.6,0.3-1,0.2c-0.5,0-0.9-0.1-1.3-0.4c-0.3-0.3-0.5-0.7-0.4-1.2c0-0.5,0.2-0.9,0.6-1.2c0.5-0.3,1.1-0.4,1.7-0.4h1v-0.4
			c0-0.3-0.1-0.5-0.3-0.8c-0.2-0.2-0.5-0.3-0.8-0.3c-0.3,0-0.5,0.1-0.8,0.2c-0.2,0.1-0.4,0.3-0.5,0.5l-0.7-0.6
			c0.2-0.3,0.4-0.6,0.7-0.7c0.4-0.2,0.8-0.3,1.2-0.3c0.6,0,1.1,0.1,1.6,0.5c0.4,0.4,0.6,0.9,0.5,1.4v2.7h0.5V69H237.4z M235.2,68.3
			c0.3,0,0.6-0.1,0.9-0.2c0.2-0.1,0.3-0.4,0.3-0.6v-0.8h-0.9c-0.8,0-1.1,0.2-1.1,0.7v0.2c0,0.2,0.1,0.4,0.2,0.5
			C234.7,68.2,234.9,68.3,235.2,68.3L235.2,68.3z"/>
		<path class="st4" d="M239.1,69v-5.3h1.1v1h0.1c0.1-0.3,0.2-0.5,0.5-0.7c0.3-0.2,0.6-0.3,1-0.3h0.3v1.1h-0.4c-0.3,0-0.7,0.1-1,0.2
			c-0.2,0.1-0.4,0.4-0.4,0.6V69H239.1z"/>
		<path class="st4" d="M243,69v-5.3h1.1v0.9h0.1c0.1-0.3,0.3-0.5,0.5-0.7c0.3-0.2,0.6-0.3,1-0.3c0.5,0,0.9,0.2,1.3,0.5
			c0.3,0.4,0.5,1,0.4,1.5V69h-1.1v-3.2c0-0.8-0.3-1.2-1-1.2c-0.1,0-0.3,0-0.4,0.1c-0.1,0-0.3,0.1-0.4,0.2c-0.1,0.1-0.2,0.2-0.2,0.3
			c-0.1,0.1-0.1,0.3-0.1,0.4V69H243z"/>
	</g>
</g>
<g id="Supply-Copy-2">
	<g>
		<path class="st4" d="M225,250.1c-0.5,0-1-0.1-1.5-0.3c-0.4-0.2-0.8-0.5-1.1-0.9l0.8-0.7c0.2,0.3,0.5,0.5,0.8,0.7
			c0.3,0.2,0.7,0.2,1,0.2c0.4,0,0.7-0.1,1-0.3c0.2-0.2,0.4-0.5,0.4-0.8c0-0.2-0.1-0.5-0.2-0.6c-0.2-0.2-0.5-0.3-0.9-0.4l-0.6-0.1
			c-0.6-0.1-1.1-0.3-1.6-0.7c-0.4-0.4-0.5-0.8-0.5-1.3c0-0.3,0.1-0.6,0.2-0.8c0.1-0.3,0.3-0.5,0.5-0.6c0.2-0.2,0.5-0.3,0.8-0.4
			c0.3-0.1,0.7-0.1,1-0.1c0.5,0,1,0.1,1.4,0.3c0.4,0.2,0.7,0.5,1,0.8l-0.8,0.7c-0.2-0.2-0.4-0.4-0.6-0.6c-0.3-0.2-0.7-0.2-1-0.2
			c-0.3,0-0.7,0.1-0.9,0.2c-0.2,0.2-0.4,0.4-0.3,0.7c0,0.3,0.1,0.5,0.3,0.7c0.3,0.2,0.5,0.3,0.9,0.3l0.6,0.1
			c0.6,0.1,1.1,0.3,1.6,0.7c0.3,0.4,0.5,0.8,0.5,1.3c0,0.3-0.1,0.6-0.2,0.9c-0.1,0.3-0.3,0.5-0.5,0.7c-0.2,0.2-0.5,0.4-0.8,0.4
			C225.7,250,225.4,250.1,225,250.1z"/>
		<path class="st4" d="M232,249.1L232,249.1c0,0.1-0.1,0.3-0.2,0.4c-0.1,0.1-0.2,0.2-0.3,0.3c-0.1,0.1-0.3,0.2-0.4,0.2
			c-0.2,0.1-0.4,0.1-0.6,0.1c-0.5,0-1-0.2-1.3-0.5c-0.3-0.4-0.5-1-0.4-1.5v-3.4h1.1v3.2c0,0.8,0.3,1.2,1,1.2c0.1,0,0.3,0,0.4-0.1
			c0.1,0,0.3-0.1,0.4-0.2c0.1-0.1,0.2-0.2,0.3-0.3c0.1-0.1,0.1-0.3,0.1-0.4v-3.5h1.1v5.3H232V249.1z"/>
		<path class="st4" d="M234.7,244.7h1.1v0.9l0,0c0.1-0.3,0.3-0.5,0.6-0.7c0.3-0.2,0.6-0.3,0.9-0.3c0.6,0,1.2,0.2,1.6,0.7
			c0.7,1.3,0.7,2.8,0,4.1c-0.4,0.5-0.9,0.8-1.6,0.7c-0.3,0-0.6-0.1-0.9-0.3c-0.3-0.2-0.4-0.4-0.6-0.7l0,0v2.9h-1.1V244.7z
			 M237,249.2c0.3,0,0.7-0.1,0.9-0.4c0.2-0.3,0.4-0.6,0.3-1v-0.9c0-0.4-0.1-0.7-0.3-1c-0.2-0.3-0.6-0.4-0.9-0.4
			c-0.3,0-0.6,0.1-0.9,0.2c-0.2,0.1-0.4,0.4-0.4,0.6v1.8c0,0.3,0.1,0.5,0.4,0.6C236.4,249.1,236.7,249.2,237,249.2L237,249.2z"/>
		<path class="st4" d="M240.7,244.7h1.1v0.9l0,0c0.1-0.3,0.3-0.6,0.6-0.7c0.3-0.2,0.6-0.3,0.9-0.3c0.6,0,1.2,0.2,1.6,0.7
			c0.7,1.3,0.7,2.8,0,4.1c-0.4,0.5-0.9,0.8-1.6,0.7c-0.3,0-0.6-0.1-0.9-0.3c-0.3-0.2-0.5-0.4-0.6-0.7l0,0v2.9h-1.1V244.7z
			 M243,249.2c0.3,0,0.7-0.1,0.9-0.4c0.2-0.3,0.4-0.6,0.3-1v-0.9c0-0.4-0.1-0.7-0.3-1c-0.2-0.3-0.6-0.4-0.9-0.4
			c-0.3,0-0.6,0.1-0.9,0.2c-0.2,0.1-0.3,0.4-0.3,0.6v1.8c0,0.3,0.1,0.5,0.3,0.6C242.4,249.1,242.7,249.2,243,249.2L243,249.2z"/>
		<path class="st4" d="M247.9,250c-0.3,0-0.6-0.1-0.9-0.3c-0.2-0.2-0.3-0.5-0.3-0.8v-6.4h1.1v6.6h0.7v0.9H247.9z"/>
		<path class="st4" d="M252.8,244.7h1.1l-2.2,6.3c-0.1,0.2-0.1,0.3-0.2,0.5c-0.1,0.1-0.2,0.2-0.3,0.3c-0.1,0.1-0.2,0.1-0.4,0.2
			c-0.2,0-0.4,0.1-0.5,0.1h-0.6v-0.9h0.9l0.3-0.9l-1.9-5.5h1.1l1.1,3.1l0.3,1.1l0,0l0.3-1.1L252.8,244.7z"/>
	</g>
</g>
<g id="Care-Copy-2">
	<g>
		<path class="st4" d="M405.5,69.1c-0.8,0-1.6-0.3-2.2-0.9c-0.6-0.8-0.9-1.7-0.8-2.7c0-0.5,0.1-1.1,0.2-1.6c0.1-0.4,0.3-0.8,0.6-1.1
			c0.3-0.3,0.6-0.6,0.9-0.7c0.4-0.2,0.8-0.2,1.2-0.2c0.5,0,1.1,0.1,1.5,0.4c0.4,0.3,0.8,0.7,1,1.2l-1,0.5c-0.1-0.3-0.3-0.6-0.6-0.8
			c-0.3-0.2-0.6-0.3-1-0.3c-0.5,0-1,0.2-1.3,0.6c-0.3,0.4-0.5,1-0.5,1.5V66c0,0.6,0.1,1.1,0.5,1.6c0.3,0.4,0.8,0.6,1.3,0.6
			c0.4,0,0.7-0.1,1-0.3c0.3-0.2,0.5-0.5,0.6-0.8l0.9,0.6c-0.2,0.5-0.6,0.9-1,1.2C406.6,69,406.1,69.1,405.5,69.1z"/>
		<path class="st4" d="M413.1,69c-0.2,0-0.5-0.1-0.7-0.2c-0.2-0.2-0.3-0.4-0.3-0.6h0c-0.1,0.3-0.3,0.6-0.5,0.8
			c-0.3,0.2-0.6,0.3-1,0.2c-0.5,0-0.9-0.1-1.3-0.4c-0.3-0.3-0.5-0.7-0.4-1.2c0-0.5,0.2-0.9,0.6-1.2c0.5-0.3,1.1-0.4,1.7-0.4h0.9
			v-0.4c0-0.3-0.1-0.5-0.3-0.8c-0.2-0.2-0.5-0.3-0.8-0.3c-0.3,0-0.5,0.1-0.8,0.2c-0.2,0.1-0.4,0.3-0.5,0.5l-0.7-0.6
			c0.2-0.3,0.4-0.6,0.7-0.7c0.4-0.2,0.8-0.3,1.2-0.3c0.6,0,1.1,0.1,1.6,0.5c0.4,0.4,0.6,0.9,0.5,1.4v2.7h0.5V69H413.1z M410.8,68.3
			c0.3,0,0.6-0.1,0.9-0.2c0.2-0.1,0.3-0.4,0.3-0.6v-0.8h-0.9c-0.8,0-1.1,0.2-1.1,0.7v0.2c0,0.2,0.1,0.4,0.2,0.5
			C410.4,68.2,410.6,68.3,410.8,68.3L410.8,68.3z"/>
		<path class="st4" d="M414.8,69v-5.3h1.1v1h0c0.1-0.3,0.2-0.5,0.5-0.7c0.3-0.2,0.6-0.3,1-0.3h0.3v1.1h-0.4c-0.3,0-0.7,0.1-1,0.2
			c-0.2,0.1-0.4,0.4-0.4,0.6V69H414.8z"/>
		<path class="st4" d="M420.7,69.1c-0.3,0-0.7-0.1-1-0.2c-0.3-0.1-0.5-0.3-0.8-0.6c-0.2-0.3-0.4-0.6-0.5-0.9c-0.2-0.7-0.2-1.5,0-2.3
			c0.1-0.3,0.3-0.6,0.5-0.9c0.2-0.2,0.5-0.4,0.8-0.5c0.3-0.1,0.7-0.2,1-0.2c0.3,0,0.7,0.1,1,0.2c0.3,0.1,0.5,0.3,0.7,0.6
			c0.2,0.3,0.3,0.5,0.4,0.8c0.1,0.3,0.2,0.7,0.1,1v0.4h-3.6v0.2c0,0.4,0.1,0.7,0.4,1c0.3,0.3,0.6,0.4,1,0.4c0.3,0,0.6-0.1,0.8-0.2
			c0.2-0.1,0.4-0.3,0.6-0.6l0.6,0.6c-0.2,0.3-0.5,0.6-0.9,0.8C421.6,69,421.1,69.1,420.7,69.1z M420.7,64.5c-0.2,0-0.4,0-0.5,0.1
			c-0.2,0.1-0.3,0.2-0.4,0.3c-0.1,0.1-0.2,0.3-0.3,0.4c-0.1,0.2-0.1,0.4-0.1,0.6v0.1h2.5v-0.1c0-0.4-0.1-0.7-0.3-1
			C421.3,64.6,421,64.4,420.7,64.5z"/>
	</g>
</g>
<g id="Emotion-Copy-2">
	<g>
		<path class="st4" d="M402.9,250v-7.1h4.5v1H404v1.9h3.1v1H404v2.2h3.4v1H402.9z"/>
		<path class="st4" d="M408.8,250v-5.3h1.1v0.9h0.1c0-0.1,0.1-0.3,0.2-0.4c0.1-0.1,0.2-0.2,0.3-0.3c0.1-0.1,0.2-0.2,0.4-0.2
			c0.2-0.1,0.3-0.1,0.5-0.1c0.4,0,0.7,0.1,1,0.3c0.3,0.2,0.5,0.5,0.6,0.8l0,0c0.1-0.3,0.3-0.6,0.5-0.8c0.3-0.2,0.6-0.3,1-0.3
			c0.5,0,0.9,0.2,1.2,0.5c0.3,0.4,0.5,1,0.4,1.5v3.3h-1.1v-3.2c0-0.3-0.1-0.6-0.2-0.9c-0.2-0.2-0.5-0.3-0.7-0.3
			c-0.1,0-0.3,0-0.4,0.1c-0.1,0-0.2,0.1-0.3,0.2c-0.1,0.1-0.2,0.2-0.2,0.3c-0.1,0.1-0.1,0.3-0.1,0.4v3.5h-1v-3.2
			c0-0.8-0.3-1.2-1-1.2c-0.1,0-0.3,0-0.4,0.1c-0.1,0-0.2,0.1-0.4,0.2c-0.1,0.1-0.2,0.2-0.2,0.3c-0.1,0.1-0.1,0.3-0.1,0.4v3.5H408.8z
			"/>
		<path class="st4" d="M419.8,250.1c-0.3,0-0.7-0.1-1-0.2c-0.3-0.1-0.6-0.3-0.8-0.6c-0.2-0.3-0.4-0.6-0.5-0.9
			c-0.2-0.7-0.2-1.5,0-2.3c0.1-0.3,0.3-0.6,0.5-0.9c0.2-0.2,0.5-0.4,0.8-0.6c0.6-0.3,1.4-0.3,2,0c0.3,0.1,0.6,0.3,0.8,0.6
			c0.2,0.3,0.4,0.6,0.5,0.9c0.2,0.7,0.2,1.5,0,2.3c-0.1,0.3-0.3,0.6-0.5,0.9c-0.2,0.2-0.5,0.4-0.8,0.6
			C420.5,250.1,420.1,250.1,419.8,250.1z M419.8,249.2c0.3,0,0.7-0.1,0.9-0.4c0.2-0.3,0.4-0.6,0.3-1V247c0-0.4-0.1-0.7-0.3-1
			c-0.5-0.5-1.3-0.5-1.8,0c-0.2,0.3-0.4,0.6-0.3,1v0.9c0,0.4,0.1,0.7,0.3,1C419.1,249.1,419.5,249.2,419.8,249.2z"/>
		<path class="st4" d="M424.9,250c-0.3,0-0.6-0.1-0.9-0.3c-0.2-0.2-0.3-0.5-0.3-0.9v-3.2h-0.8v-0.9h0.5c0.1,0,0.3,0,0.4-0.1
			c0.1-0.1,0.1-0.3,0.1-0.4v-0.9h1v1.4h1.1v0.9h-1.1v3.5h1v0.9H424.9z"/>
		<path class="st4" d="M427.7,243.8c-0.2,0-0.4,0-0.5-0.2c-0.1-0.1-0.2-0.3-0.2-0.4V243c0-0.2,0.1-0.3,0.2-0.4
			c0.1-0.1,0.3-0.2,0.5-0.2c0.2,0,0.4,0,0.5,0.2c0.1,0.1,0.2,0.3,0.2,0.4v0.2c0,0.2-0.1,0.3-0.2,0.4
			C428,243.7,427.9,243.8,427.7,243.8z M427.1,244.7h1.1v5.3h-1.1V244.7z"/>
		<path class="st4" d="M431.9,250.1c-0.3,0-0.7-0.1-1-0.2c-0.3-0.1-0.6-0.3-0.8-0.6c-0.2-0.3-0.4-0.6-0.5-0.9
			c-0.2-0.7-0.2-1.5,0-2.3c0.1-0.3,0.3-0.6,0.5-0.9c0.2-0.2,0.5-0.4,0.8-0.6c0.6-0.3,1.4-0.3,2,0c0.3,0.1,0.6,0.3,0.8,0.6
			c0.2,0.3,0.4,0.6,0.5,0.9c0.2,0.7,0.2,1.5,0,2.3c-0.1,0.3-0.3,0.6-0.5,0.9c-0.2,0.2-0.5,0.4-0.8,0.6
			C432.6,250.1,432.2,250.1,431.9,250.1z M431.9,249.2c0.3,0,0.7-0.1,0.9-0.4c0.2-0.3,0.4-0.6,0.3-1V247c0-0.4-0.1-0.7-0.3-1
			c-0.2-0.2-0.6-0.4-0.9-0.4c-0.3,0-0.7,0.1-0.9,0.4c-0.2,0.3-0.4,0.6-0.3,1v0.9c0,0.4,0.1,0.7,0.3,1
			C431.2,249.1,431.5,249.2,431.9,249.2z"/>
		<path class="st4" d="M435.5,250v-5.3h1.1v0.9h0.1c0.1-0.3,0.3-0.5,0.5-0.7c0.3-0.2,0.6-0.3,1-0.3c0.5,0,0.9,0.2,1.3,0.5
			c0.3,0.4,0.5,1,0.5,1.5v3.3h-1.1v-3.2c0-0.8-0.3-1.2-1-1.2c-0.1,0-0.3,0-0.4,0.1c-0.1,0-0.3,0.1-0.4,0.2c-0.1,0.1-0.2,0.2-0.3,0.3
			c-0.1,0.1-0.1,0.3-0.1,0.4v3.5H435.5z"/>
	</g>
</g>
<g id="Group-22-Copy-5">
	<g id="Group-3">
		<path class="st5" d="M528.9,199.9v-11.8c0-6.8-4.7-12.7-11.3-14.2c4.2-1.9,6.2-6.9,4.3-11.1c-1.9-4.2-6.9-6.2-11.1-4.3
			s-6.2,6.9-4.3,11.1c0.8,1.9,2.4,3.4,4.3,4.3c-6.6,1.6-11.3,7.4-11.3,14.2v11.8"/>
	</g>
	<path id="Stroke-4" class="st5" d="M499.2,148.4c-4.1,1.9-5.9,6.7-4.1,10.8c0.8,1.9,2.4,3.4,4.3,4.2c-6.6,1.5-11.4,7.3-11.4,14.1
		v11.8"/>
	<path id="Stroke-6" class="st5" d="M511,158.5c0.3-0.8,0.5-1.7,0.5-2.6c-0.1-3.3-2-6.2-5.1-7.5"/>
	<path id="Stroke-8" class="st5" d="M519.7,149.7c-2,1.5-3.1,3.8-3.2,6.2c0,0.9,0.1,1.7,0.5,2.6"/>
	<path id="Stroke-10" class="st5" d="M540,189.3v-11.7c-0.1-6.8-4.8-12.6-11.4-14.1c3-1.3,5-4.2,5-7.5c0-2.5-1.1-4.8-3-6.3"/>
	<path id="Stroke-12" class="st6" d="M514.2,193v-4.3"/>
	<path id="Stroke-14" class="st6" d="M517.2,195.9c0,1.6-1.3,2.9-2.8,2.9c-1.6,0-2.9-1.3-2.9-2.8c0-1.6,1.3-2.9,2.8-2.9c0,0,0,0,0,0
		C515.9,193.1,517.2,194.3,517.2,195.9L517.2,195.9z"/>
	<path id="Stroke-16" class="st6" d="M507,147.8c0,2.1-1.7,3.8-3.8,3.8c-2.1,0-3.8-1.7-3.8-3.8c0-2.1,1.7-3.8,3.8-3.8c0,0,0,0,0,0
		C505.3,144,507,145.7,507,147.8L507,147.8z"/>
	<path id="Stroke-18" class="st6" d="M521.6,176.1v4.6c0.1,4-3,7.4-7,7.6c-4,0.1-7.4-3-7.6-7c0-0.2,0-0.4,0-0.5v-4.6"/>
	<path id="Stroke-20" class="st6" d="M521.5,151.6c1-1,2.3-1.5,3.7-1.4c2.7,0,3.6,1.4,3.6,1.4l3.7-3.8c0,0-1.8-3.8-7.3-3.8
		s-7.3,3.8-7.3,3.8L521.5,151.6z"/>
</g>
<g id="Group-18-Copy-8">
	<path class="st7" d="M336.5,328.4c0,2-1.6,3.6-3.6,3.6s-3.6-1.6-3.6-3.6c0-2,1.6-3.6,3.6-3.6c0,0,0,0,0,0
		C334.9,324.8,336.5,326.4,336.5,328.4z"/>
	<path class="st7" d="M336.5,375.4c0,2-1.6,3.6-3.6,3.6s-3.6-1.6-3.6-3.6c0-2,1.6-3.6,3.6-3.6c0,0,0,0,0,0
		C334.9,371.7,336.5,373.4,336.5,375.4z"/>
	<g>
		<polygon class="st7" points="352.7,355.5 360,355.5 360,348.2 352.7,348.2 		"/>
	</g>
	<g>
		<polygon class="st7" points="305.8,355.5 313,355.5 313,348.2 305.8,348.2 		"/>
	</g>
	<g>
		<path class="st8" d="M341.9,328.2c6.7,2.6,12,7.9,14.6,14.6"/>
	</g>
	<g>
		<path class="st8" d="M309.2,342.8c2.6-6.7,7.9-12,14.6-14.6"/>
	</g>
	<g>
		<path class="st8" d="M323.8,375.5c-6.7-2.6-12-7.9-14.6-14.6"/>
	</g>
	<g>
		<path class="st8" d="M356.5,360.9c-2.6,6.7-7.9,12-14.6,14.6"/>
	</g>
	<g>
		<polyline class="st8" points="321.3,335 323.8,328.2 317.1,325.7 		"/>
	</g>
	<g>
		<polyline class="st8" points="349.7,340.5 356.5,342.8 358.9,336 		"/>
	</g>
	<g>
		<polyline class="st8" points="343.9,368.5 341.9,375.5 348.9,377.5 		"/>
	</g>
	<g>
		<polyline class="st8" points="316,363.4 309.2,360.9 306.7,367.7 		"/>
	</g>
	<g>
		<polyline class="st7" points="325,359.4 327.4,354.6 330.1,354.6 332.9,346.5 336.9,350.5 341.8,345.7 		"/>
	</g>
	<g>
		<path class="st7" d="M343.7,351.9c0,6-4.9,10.8-10.9,10.8c-6,0-10.8-4.9-10.8-10.9c0-6,4.9-10.8,10.9-10.8l0,0
			C338.9,341,343.7,345.9,343.7,351.9C343.7,351.8,343.7,351.9,343.7,351.9z"/>
	</g>
</g>
<g id="Group-19-Copy-11">
	<path id="Fill-3" class="st9" d="M509.6,351.5c0,0.5-0.4,0.9-0.9,0.9s-0.9-0.4-0.9-0.9c0-0.5,0.4-0.9,0.9-0.9
		C509.2,350.5,509.6,350.9,509.6,351.5C509.6,351.4,509.6,351.5,509.6,351.5"/>
	<path id="Fill-5" class="st9" d="M496.9,351.5c0,0.5-0.4,0.9-0.9,0.9s-0.9-0.4-0.9-0.9c0-0.5,0.4-0.9,0.9-0.9
		C496.5,350.5,496.9,350.9,496.9,351.5C496.9,351.4,496.9,351.5,496.9,351.5"/>
	<path id="Fill-7" class="st9" d="M531.4,332.4c0,0.5-0.4,0.9-0.9,0.9c-0.5,0-0.9-0.4-0.9-0.9c0-0.5,0.4-0.9,0.9-0.9l0,0
		C531,331.5,531.4,331.9,531.4,332.4"/>
	<path id="Fill-9" class="st9" d="M520.5,332.4c0,0.5-0.4,0.9-0.9,0.9c-0.5,0-0.9-0.4-0.9-0.9c0-0.5,0.4-0.9,0.9-0.9l0,0
		C520.1,331.5,520.5,331.9,520.5,332.4"/>
	<path class="st10" d="M503.3,368.7H516c2,0,3.6-1.6,3.6-3.6v-18.2c0-2-1.6-3.6-3.6-3.6h-27.2c-2,0-3.6,1.6-3.6,3.6v18.2
		c0,2,1.6,3.6,3.6,3.6h7.2l7.3,10.9"/>
	<path class="st10" d="M510.5,343.3v-14.5c0-2,1.6-3.6,3.6-3.6H536c2,0,3.6,1.6,3.6,3.6v14.5c0,2-1.6,3.6-3.6,3.6h-5.5l-3.6,7.3"/>
	<path class="st11" d="M525.1,346.9h-5.5"/>
	<path class="st11" d="M508.7,355.1c-0.1,3.5-3.1,6.2-6.6,6.1c-3.3-0.1-6-2.8-6.1-6.1"/>
	<path class="st11" d="M519.6,341.5c-0.1-3,2.2-5.5,5.2-5.7c3-0.1,5.5,2.2,5.7,5.2c0,0.2,0,0.3,0,0.5"/>
</g>
</svg>
