<svg id="Layer_1" data-name="Layer 1" xmlns="http://www.w3.org/2000/svg" xmlns:xlink="http://www.w3.org/1999/xlink" width="608" height="456" viewBox="0 0 608 456">
  <defs>
    <style>
      .cls-1 {
        fill: #fff;
      }

      .cls-1, .cls-10 {
        fill-rule: evenodd;
      }

      .cls-2 {
        fill: #f3f3f3;
      }

      .cls-3 {
        fill: #6ea6ff;
      }

      .cls-4 {
        isolation: isolate;
      }

      .cls-5 {
        fill: #171717;
      }

      .cls-6 {
        fill: #bb8eff;
      }

      .cls-7 {
        fill: #00bab6;
      }

      .cls-8 {
        mask: url(#mask);
      }

      .cls-9 {
        mask: url(#mask-2-2);
      }

      .cls-10, .cls-11 {
        fill: #fa75a6;
      }
    </style>
    <mask id="mask" x="305" y="324" width="55.7373" height="55.729" maskUnits="userSpaceOnUse">
      <g id="mask-2">
        <polygon id="path-1" class="cls-1" points="305 379.729 360.729 379.729 360.729 324 305 324 305 379.729"/>
      </g>
    </mask>
    <mask id="mask-2-2" x="304.9917" y="324" width="55.7373" height="55.729" maskUnits="userSpaceOnUse">
      <g id="mask-2-3" data-name="mask-2">
        <polygon id="path-1-2" data-name="path-1" class="cls-1" points="305 379.729 360.729 379.729 360.729 324 305 324 305 379.729"/>
      </g>
    </mask>
  </defs>
  <g id="_32x32-base-grid-comp-copy-13" data-name="32x32-base-grid-comp-copy-13">
    <polygon id="Rectangle-3" class="cls-1" points="0 0 608 0 608 456 0 456 0 0"/>
  </g>
  <rect id="Rectangle-13-Copy-102" class="cls-2" x="212" y="50" width="160" height="160"/>
  <rect id="Rectangle-13-Copy-103" class="cls-2" x="212" y="230" width="160" height="160"/>
  <rect id="Rectangle-13-Copy-106" class="cls-2" x="391" y="50" width="160" height="160"/>
  <rect id="Rectangle-13-Copy-107" class="cls-2" x="391" y="230" width="160" height="160"/>
  <g id="Group-22-Copy-4">
    <g id="Group-21">
      <path class="cls-3" d="M311.7285,156.084a6.2935,6.2935,0,1,1,6.2344-6.293A6.2714,6.2714,0,0,1,311.7285,156.084Zm0-11.0357a4.7428,4.7428,0,1,0,4.6836,4.7427A4.7193,4.7193,0,0,0,311.7285,145.0483Z"/>
      <path class="cls-3" d="M355.4023,200.2271a6.2935,6.2935,0,1,1,6.2354-6.293A6.2712,6.2712,0,0,1,355.4023,200.2271Zm0-11.0357a4.7428,4.7428,0,1,0,4.6846,4.7427A4.7183,4.7183,0,0,0,355.4023,189.1914Z"/>
      <path class="cls-3" d="M311.7285,196.55a2.6148,2.6148,0,1,1,2.5947-2.6147A2.6079,2.6079,0,0,1,311.7285,196.55Zm0-3.6787a1.0641,1.0641,0,1,0,1.044,1.064A1.0556,1.0556,0,0,0,311.7285,192.8711Z"/>
      <path class="cls-3" d="M355.4023,152.4062a2.6146,2.6146,0,1,1,2.5957-2.6142A2.6076,2.6076,0,0,1,355.4023,152.4062Zm0-3.6782a1.0639,1.0639,0,1,0,1.045,1.064A1.0548,1.0548,0,0,0,355.4023,148.728Z"/>
      <path class="cls-3" d="M333.5664,181.8335a9.9724,9.9724,0,1,1,9.874-9.9722A9.9351,9.9351,0,0,1,333.5664,181.8335Zm0-18.3931a8.4217,8.4217,0,1,0,8.3232,8.4209A8.3824,8.3824,0,0,0,333.5664,163.44Z"/>
      <path class="cls-3" d="M333.5664,178.1567a6.2937,6.2937,0,1,1,6.2344-6.2934A6.2714,6.2714,0,0,1,333.5664,178.1567Zm0-11.0361a4.7431,4.7431,0,1,0,4.6836,4.7427A4.7192,4.7192,0,0,0,333.5664,167.1206Z"/>
      <path class="cls-3" d="M355.4023,143.4976a6.2952,6.2952,0,0,0-4.91,10.1576l-6.84,6.911a21.9808,21.9808,0,0,0-10.0861-2.3523c-14.8994,0-20.6758,13.2143-20.7324,13.3476a.7759.7759,0,0,0,0,.6055,24.7913,24.7913,0,0,0,9.2327,10.2156l-6.5187,6.5883a6.16,6.16,0,0,0-3.82-1.33,6.29,6.29,0,1,0,4.9115,2.4309l6.8374-6.91a21.9813,21.9813,0,0,0,10.089,2.3536c14.8994,0,20.6748-13.2143,20.7315-13.3476a.7759.7759,0,0,0,0-.6055,24.7889,24.7889,0,0,0-9.2345-10.2171l6.5214-6.5892a6.16,6.16,0,0,0,3.8175,1.3288,6.2935,6.2935,0,0,0,0-12.5864Zm-43.6738,55.1787a4.7428,4.7428,0,1,1,4.6836-4.7422A4.7192,4.7192,0,0,1,311.7285,198.6763Zm41.0039-26.812c-.9248,1.9453-6.3662,12.1-19.166,12.1s-18.2422-10.1543-19.167-12.1c.9248-1.9454,6.3672-12.1,19.167-12.1S351.8076,169.9189,352.7324,171.8643Zm2.67-17.3311a4.7428,4.7428,0,1,1,4.6846-4.7422A4.7182,4.7182,0,0,1,355.4023,154.5332Z"/>
    </g>
  </g>
  <g id="Learn-Copy" class="cls-4">
    <g class="cls-4">
      <path class="cls-5" d="M222.8716,69V61.9268h1.145v6.06h2.8779V69Z"/>
      <path class="cls-5" d="M229.9546,69.1221a2.5237,2.5237,0,0,1-1.0132-.1934,2.0962,2.0962,0,0,1-.76-.5517,2.4743,2.4743,0,0,1-.4814-.8721,3.9608,3.9608,0,0,1,0-2.2793,2.4831,2.4831,0,0,1,.4814-.8721,2.0962,2.0962,0,0,1,.76-.5517,2.5392,2.5392,0,0,1,1.0132-.1924,2.4209,2.4209,0,0,1,1.0185.2021,2.044,2.044,0,0,1,.7349.5625,2.4455,2.4455,0,0,1,.44.836,3.4475,3.4475,0,0,1,.147,1.0234v.416h-3.6177V66.82a1.3992,1.3992,0,0,0,.36.9912,1.3331,1.3331,0,0,0,1.0288.3877,1.51,1.51,0,0,0,.8208-.2109,1.8575,1.8575,0,0,0,.5674-.5742l.6484.6406a2.0934,2.0934,0,0,1-.851.7773A2.7721,2.7721,0,0,1,229.9546,69.1221Zm0-4.6514a1.3184,1.3184,0,0,0-.5215.1006,1.1622,1.1622,0,0,0-.4058.2842,1.2856,1.2856,0,0,0-.2583.4355,1.6424,1.6424,0,0,0-.0913.5576V65.92H231.13v-.1015a1.4621,1.4621,0,0,0-.3145-.9786A1.0716,1.0716,0,0,0,229.9546,64.4707Z"/>
      <path class="cls-5" d="M237.3823,69a.8748.8748,0,0,1-.6689-.248,1.1121,1.1121,0,0,1-.2837-.6338h-.0508a1.296,1.296,0,0,1-.5571.75,1.82,1.82,0,0,1-.9829.2539,1.7465,1.7465,0,0,1-1.2618-.4258,1.52,1.52,0,0,1-.4409-1.1455,1.3455,1.3455,0,0,1,.5728-1.1856,2.9465,2.9465,0,0,1,1.6767-.3955h.9527v-.4453a1.0164,1.0164,0,0,0-.2632-.75,1.12,1.12,0,0,0-.8208-.2637,1.3065,1.3065,0,0,0-.76.2032,1.8156,1.8156,0,0,0-.4965.5166l-.6587-.5977a2.1157,2.1157,0,0,1,.74-.7353,2.3818,2.3818,0,0,1,1.2466-.2881,2.3239,2.3239,0,0,1,1.5708.4756,1.7184,1.7184,0,0,1,.5469,1.3681v2.6446h.5576V69Zm-2.2295-.72a1.4822,1.4822,0,0,0,.8511-.2276.7071.7071,0,0,0,.3345-.6132v-.76h-.9322q-1.1454,0-1.145.709v.1826a.6211.6211,0,0,0,.2378.5322A1.0737,1.0737,0,0,0,235.1528,68.28Z"/>
      <path class="cls-5" d="M239.085,69v-5.27H240.19v1.0136h.0507a1.4245,1.4245,0,0,1,.4659-.71,1.4645,1.4645,0,0,1,.9829-.3037h.2939v1.0644h-.4355a1.9474,1.9474,0,0,0-1.0083.2129.6884.6884,0,0,0-.35.6279V69Z"/>
      <path class="cls-5" d="M242.9658,69v-5.27H244.07v.872h.0508a1.7375,1.7375,0,0,1,.5215-.71,1.482,1.482,0,0,1,.958-.2832,1.5632,1.5632,0,0,1,1.2612.5312,2.2809,2.2809,0,0,1,.4512,1.5156V69h-1.1045V65.7979q0-1.2364-.9932-1.2364a1.6145,1.6145,0,0,0-.42.0557,1.19,1.19,0,0,0-.37.167.838.838,0,0,0-.2583.2842.8161.8161,0,0,0-.0962.4052V69Z"/>
    </g>
  </g>
  <g id="Supply-Copy-2" class="cls-4">
    <g class="cls-4">
      <path class="cls-5" d="M224.9893,250.1221a3.24,3.24,0,0,1-1.5147-.3252,3.3645,3.3645,0,0,1-1.0693-.8711l.79-.7393a2.6532,2.6532,0,0,0,.8257.6885,2.21,2.21,0,0,0,1.0288.2334,1.51,1.51,0,0,0,1.0234-.3037,1.0412,1.0412,0,0,0,.3443-.8213.8885.8885,0,0,0-.2432-.6582,1.6847,1.6847,0,0,0-.8613-.3652l-.628-.1114a3.0309,3.0309,0,0,1-1.5507-.6787,1.7494,1.7494,0,0,1-.5166-1.3379,1.9747,1.9747,0,0,1,.1772-.8457,1.7664,1.7664,0,0,1,.4966-.6386,2.2968,2.2968,0,0,1,.7754-.4,3.4293,3.4293,0,0,1,1.0234-.1416,3.2164,3.2164,0,0,1,1.3882.2783,2.7776,2.7776,0,0,1,1.0029.8056l-.8.709a2.0816,2.0816,0,0,0-.6689-.5674,2.0573,2.0573,0,0,0-.9829-.2128,1.5811,1.5811,0,0,0-.9424.2431.8242.8242,0,0,0-.3345.71.7947.7947,0,0,0,.274.6631,1.9762,1.9762,0,0,0,.851.33l.6284.1319a2.9627,2.9627,0,0,1,1.5552.6885,1.7975,1.7975,0,0,1,.4917,1.3379,2.2808,2.2808,0,0,1-.1723.9013,1.9063,1.9063,0,0,1-.5015.6944,2.2966,2.2966,0,0,1-.8057.4462A3.4648,3.4648,0,0,1,224.9893,250.1221Z"/>
      <path class="cls-5" d="M232.042,249.1289h-.0405a1.9843,1.9843,0,0,1-.1875.375,1.2554,1.2554,0,0,1-.294.3184,1.4073,1.4073,0,0,1-.4253.2187,1.8576,1.8576,0,0,1-.5727.0811,1.5827,1.5827,0,0,1-1.272-.5274,2.2592,2.2592,0,0,1-.4507-1.51v-3.3545h1.1045v3.2129q0,1.226,1.0132,1.2255a1.5613,1.5613,0,0,0,.4155-.0556,1.1388,1.1388,0,0,0,.36-.167.8564.8564,0,0,0,.2534-.2842.8179.8179,0,0,0,.0962-.4053v-3.5263h1.1045V250H232.042Z"/>
      <path class="cls-5" d="M234.7275,244.7305h1.1045v.872h.0508a1.4447,1.4447,0,0,1,.562-.7353,1.6259,1.6259,0,0,1,.9175-.2578,1.8277,1.8277,0,0,1,1.55.7246,4.0475,4.0475,0,0,1,0,4.0635,1.83,1.83,0,0,1-1.55.7246,1.5994,1.5994,0,0,1-.9175-.2637,1.4711,1.4711,0,0,1-.562-.73h-.0508v2.8975h-1.1045Zm2.3,4.4384a1.1978,1.1978,0,0,0,.9219-.37,1.3764,1.3764,0,0,0,.3447-.9775v-.9121a1.3766,1.3766,0,0,0-.3447-.9776,1.1981,1.1981,0,0,0-.9219-.37,1.4216,1.4216,0,0,0-.8515.2481.7708.7708,0,0,0-.3443.6543v1.8037a.77.77,0,0,0,.3443.6533A1.4223,1.4223,0,0,0,237.0278,249.1689Z"/>
      <path class="cls-5" d="M240.7261,244.7305h1.1045v.872h.0507a1.4444,1.4444,0,0,1,.5621-.7353,1.6256,1.6256,0,0,1,.9174-.2578,1.8277,1.8277,0,0,1,1.55.7246,4.0475,4.0475,0,0,1,0,4.0635,1.83,1.83,0,0,1-1.55.7246,1.5991,1.5991,0,0,1-.9174-.2637,1.4708,1.4708,0,0,1-.5621-.73h-.0507v2.8975h-1.1045Zm2.3,4.4384a1.1975,1.1975,0,0,0,.9218-.37,1.3764,1.3764,0,0,0,.3448-.9775v-.9121a1.3767,1.3767,0,0,0-.3448-.9776,1.1979,1.1979,0,0,0-.9218-.37,1.4222,1.4222,0,0,0-.8516.2481.7707.7707,0,0,0-.3442.6543v1.8037a.77.77,0,0,0,.3442.6533A1.4228,1.4228,0,0,0,243.0264,249.1689Z"/>
      <path class="cls-5" d="M247.85,250a1.127,1.127,0,0,1-.8462-.2891,1.1126,1.1126,0,0,1-.2783-.8056V242.501H247.83v6.5967h.73V250Z"/>
      <path class="cls-5" d="M252.7642,244.7305h1.0639l-2.2192,6.3134a2.2671,2.2671,0,0,1-.2075.4512,1.11,1.11,0,0,1-.274.3037,1.0688,1.0688,0,0,1-.38.1719,2.1946,2.1946,0,0,1-.5269.0557h-.6382v-.9014h.8916l.3037-.8916-1.915-5.5029h1.1045l1.0537,3.1006.3042,1.1455h.0508l.3344-1.1455Z"/>
    </g>
  </g>
  <g id="Care-Copy-2" class="cls-4">
    <g class="cls-4">
      <path class="cls-5" d="M405.5264,69.1221a2.697,2.697,0,0,1-2.1787-.9375,4.1151,4.1151,0,0,1-.7911-2.7207,5.52,5.52,0,0,1,.2032-1.5713,3.21,3.21,0,0,1,.5879-1.1446,2.464,2.464,0,0,1,.9375-.7041,3.0963,3.0963,0,0,1,1.2412-.2382,2.8033,2.8033,0,0,1,1.5459.4013,2.6773,2.6773,0,0,1,.9775,1.19l-.9629.5264a1.7679,1.7679,0,0,0-.5625-.8057,1.5672,1.5672,0,0,0-.998-.2988,1.5848,1.5848,0,0,0-1.2871.5595,2.3473,2.3473,0,0,0-.4659,1.5469v1.0781a2.3459,2.3459,0,0,0,.4659,1.5459,1.7776,1.7776,0,0,0,2.3252.2305,1.9585,1.9585,0,0,0,.5937-.8467l.9219.5576a2.85,2.85,0,0,1-.9932,1.2A2.7281,2.7281,0,0,1,405.5264,69.1221Z"/>
      <path class="cls-5" d="M413.0762,69a.8781.8781,0,0,1-.67-.248,1.1155,1.1155,0,0,1-.2832-.6338h-.0507a1.2991,1.2991,0,0,1-.5567.75,1.8239,1.8239,0,0,1-.9834.2539,1.7456,1.7456,0,0,1-1.2617-.4258,1.5193,1.5193,0,0,1-.44-1.1455,1.3453,1.3453,0,0,1,.5722-1.1856,2.946,2.946,0,0,1,1.6768-.3955h.9521v-.4453a1.0182,1.0182,0,0,0-.2626-.75,1.1214,1.1214,0,0,0-.8213-.2637,1.3046,1.3046,0,0,0-.76.2032,1.8156,1.8156,0,0,0-.4961.5166l-.6592-.5977a2.1237,2.1237,0,0,1,.7393-.7353,2.386,2.386,0,0,1,1.2471-.2881,2.3242,2.3242,0,0,1,1.5712.4756,1.72,1.72,0,0,1,.5469,1.3681v2.6446h.5567V69Zm-2.23-.72a1.4819,1.4819,0,0,0,.8516-.2276.7079.7079,0,0,0,.3339-.6132v-.76H411.1q-1.1456,0-1.1445.709v.1826a.62.62,0,0,0,.2373.5322A1.0739,1.0739,0,0,0,410.8457,68.28Z"/>
      <path class="cls-5" d="M414.7773,69v-5.27h1.1055v1.0136h.0508a1.4223,1.4223,0,0,1,.4648-.71,1.4663,1.4663,0,0,1,.9834-.3037h.294v1.0644H417.24a1.9444,1.9444,0,0,0-1.0078.2129.6865.6865,0,0,0-.35.6279V69Z"/>
      <path class="cls-5" d="M420.6758,69.1221a2.5228,2.5228,0,0,1-1.0137-.1934,2.1,2.1,0,0,1-.76-.5517,2.4821,2.4821,0,0,1-.4814-.8721,3.9721,3.9721,0,0,1,0-2.2793,2.491,2.491,0,0,1,.4814-.8721,2.1,2.1,0,0,1,.76-.5517,2.5382,2.5382,0,0,1,1.0137-.1924,2.4153,2.4153,0,0,1,1.0176.2021,2.0377,2.0377,0,0,1,.7353.5625,2.4369,2.4369,0,0,1,.44.836,3.4639,3.4639,0,0,1,.1465,1.0234v.416h-3.6172V66.82a1.4011,1.4011,0,0,0,.3594.9912,1.3357,1.3357,0,0,0,1.0293.3877,1.5067,1.5067,0,0,0,.82-.2109,1.8658,1.8658,0,0,0,.5684-.5742l.6484.6406a2.0973,2.0973,0,0,1-.8515.7773A2.7714,2.7714,0,0,1,420.6758,69.1221Zm0-4.6514a1.3167,1.3167,0,0,0-.5215.1006,1.1506,1.1506,0,0,0-.4063.2842,1.2765,1.2765,0,0,0-.2578.4355,1.6424,1.6424,0,0,0-.0918.5576V65.92h2.4532v-.1015a1.4647,1.4647,0,0,0-.3145-.9786A1.073,1.073,0,0,0,420.6758,64.4707Z"/>
    </g>
  </g>
  <g id="Emotion-Copy-2" class="cls-4">
    <g class="cls-4">
      <path class="cls-5" d="M402.8711,250v-7.0732H407.4V243.94h-3.3838v1.9658h3.07V246.92h-3.07v2.0664H407.4V250Z"/>
      <path class="cls-5" d="M408.7988,250v-5.2695h1.1055v.872h.0508a2.1768,2.1768,0,0,1,.1972-.3857,1.3591,1.3591,0,0,1,.2832-.3193,1.2193,1.2193,0,0,1,.3956-.212,1.6794,1.6794,0,0,1,.5322-.0761,1.7454,1.7454,0,0,1,.9521.2627,1.5208,1.5208,0,0,1,.6084.8115h.0293a1.5511,1.5511,0,0,1,.5479-.7607,1.6576,1.6576,0,0,1,1.0439-.3135,1.4969,1.4969,0,0,1,1.2266.5312,2.34,2.34,0,0,1,.4355,1.5156V250h-1.1054v-3.2119a1.5111,1.5111,0,0,0-.2325-.917.8684.8684,0,0,0-.74-.31,1.44,1.44,0,0,0-.4043.0557,1.0228,1.0228,0,0,0-.34.167.8549.8549,0,0,0-.2383.2842.8371.8371,0,0,0-.0918.3955V250h-1.1035v-3.2119q0-1.2261-.9629-1.2266a1.4627,1.4627,0,0,0-.4.0557,1.0834,1.0834,0,0,0-.35.167.8167.8167,0,0,0-.334.68V250Z"/>
      <path class="cls-5" d="M419.8037,250.1221a2.509,2.509,0,0,1-.998-.1934,2.0855,2.0855,0,0,1-.7647-.5517,2.5211,2.5211,0,0,1-.4863-.8721,3.8424,3.8424,0,0,1,0-2.2793,2.53,2.53,0,0,1,.4863-.8721,2.0855,2.0855,0,0,1,.7647-.5517,2.6872,2.6872,0,0,1,1.997,0,2.09,2.09,0,0,1,.7637.5517,2.5468,2.5468,0,0,1,.4873.8721,3.8637,3.8637,0,0,1,0,2.2793,2.5375,2.5375,0,0,1-.4873.8721,2.09,2.09,0,0,1-.7637.5517A2.5135,2.5135,0,0,1,419.8037,250.1221Zm0-.9229a1.2248,1.2248,0,0,0,.9121-.3476,1.4244,1.4244,0,0,0,.3447-1.043v-.8867a1.4244,1.4244,0,0,0-.3447-1.043,1.3689,1.3689,0,0,0-1.8232,0,1.42,1.42,0,0,0-.3457,1.043v.8867a1.42,1.42,0,0,0,.3457,1.043A1.2209,1.2209,0,0,0,419.8037,249.1992Z"/>
      <path class="cls-5" d="M424.8809,250a1.169,1.169,0,0,1-.8711-.2988,1.1551,1.1551,0,0,1-.294-.8467v-3.2217h-.8213v-.9023h.4463a.4866.4866,0,0,0,.38-.1211.599.599,0,0,0,.1064-.3955v-.9219h.9932v1.4385h1.1045v.9023H424.82v3.4649h1.0235V250Z"/>
      <path class="cls-5" d="M427.6777,243.7881a.6712.6712,0,0,1-.5019-.1621.5671.5671,0,0,1-.1572-.4151v-.1728a.5687.5687,0,0,1,.1572-.4151.6712.6712,0,0,1,.5019-.1621.6548.6548,0,0,1,.4961.1621.5817.5817,0,0,1,.1524.4151v.1728a.58.58,0,0,1-.1524.4151A.6548.6548,0,0,1,427.6777,243.7881Zm-.5576.9424h1.1045V250H427.12Z"/>
      <path class="cls-5" d="M431.873,250.1221a2.5058,2.5058,0,0,1-.998-.1934,2.0887,2.0887,0,0,1-.7656-.5517,2.554,2.554,0,0,1-.4864-.8721,3.8659,3.8659,0,0,1,0-2.2793,2.5634,2.5634,0,0,1,.4864-.8721,2.0887,2.0887,0,0,1,.7656-.5517,2.6848,2.6848,0,0,1,1.9961,0,2.0926,2.0926,0,0,1,.7646.5517,2.5468,2.5468,0,0,1,.4873.8721,3.8637,3.8637,0,0,1,0,2.2793,2.5375,2.5375,0,0,1-.4873.8721,2.0926,2.0926,0,0,1-.7646.5517A2.51,2.51,0,0,1,431.873,250.1221Zm0-.9229a1.2264,1.2264,0,0,0,.9122-.3476,1.4284,1.4284,0,0,0,.3437-1.043v-.8867a1.4284,1.4284,0,0,0-.3437-1.043,1.37,1.37,0,0,0-1.8243,0,1.4206,1.4206,0,0,0-.3447,1.043v.8867a1.4206,1.4206,0,0,0,.3447,1.043A1.2233,1.2233,0,0,0,431.873,249.1992Z"/>
      <path class="cls-5" d="M435.5215,250v-5.2695h1.1035v.872h.0508a1.7456,1.7456,0,0,1,.5215-.71,1.4856,1.4856,0,0,1,.9589-.2832,1.5629,1.5629,0,0,1,1.2608.5312,2.2809,2.2809,0,0,1,.4512,1.5156V250h-1.1045v-3.2021q0-1.2364-.9932-1.2364a1.6239,1.6239,0,0,0-.4209.0557,1.1794,1.1794,0,0,0-.3691.167.8294.8294,0,0,0-.2588.2842.8152.8152,0,0,0-.0967.4052V250Z"/>
    </g>
  </g>
  <path class="cls-6" d="M530.5645,163.2783a8.8618,8.8618,0,0,0,1.1248-13.6622l1.2589-1.3041a.7747.7747,0,0,0,.1416-.8725c-.082-.1724-2.08-4.2149-7.9921-4.2149s-7.91,4.0425-7.9922,4.2149a.7749.7749,0,0,0,.1416.8725l1.2906,1.3363a8.5572,8.5572,0,0,0-2.777,6.2526,8.2788,8.2788,0,0,0,.1115,1.3319,8.9762,8.9762,0,0,0-3.7557.07,8.4538,8.4538,0,0,0,.1228-1.4323,8.9566,8.9566,0,0,0-4.4876-7.6218,4.4233,4.4233,0,0,0,.0481-.4729,4.58,4.58,0,0,0-9.16,0c0,.0233.0066.0448.007.068a8.9238,8.9238,0,0,0-1.2071,15.36,15.2294,15.2294,0,0,0-10.2149,14.3335v11.7661h1.5508V177.5371A13.7472,13.7472,0,0,1,499.59,164.1855a.7749.7749,0,0,0,.1338-1.4663,7.3862,7.3862,0,0,1-.7583-13.2856A4.5669,4.5669,0,0,0,507.3,149.8a7.3651,7.3651,0,0,1,3.3885,6.07,6.9252,6.9252,0,0,1-.3221,2.0211,9.0809,9.0809,0,0,0-1.5725,15.6967A15.3571,15.3571,0,0,0,498.64,188.0591V199.896H500.19V188.0591a13.7814,13.7814,0,0,1,6.0586-11.4315v4.0111a8.1506,8.1506,0,0,0,7.1865,8.13v3.6548a3.614,3.614,0,1,0,1.5508-.0534v-3.5845a8.1432,8.1432,0,0,0,7.3985-8.1472v-3.788a13.7788,13.7788,0,0,1,5.74,11.2084V199.896h1.5508V188.0591A15.3575,15.3575,0,0,0,519.52,173.5879a9.085,9.085,0,0,0-1.9278-15.852,6.6851,6.6851,0,0,1-.28-1.835,7.024,7.024,0,0,1,2.3034-5.1374l1.2787,1.3239a.7844.7844,0,0,0,1.166-.0576,3.8975,3.8975,0,0,1,3.0381-1.08,3.79,3.79,0,0,1,3.0185,1.0557.7787.7787,0,0,0,.5733.3188c.0185.001.0361.002.0546.002a.7745.7745,0,0,0,.5577-.2368l1.3116-1.3587a7.34,7.34,0,0,1,2.2264,5.2468,7.469,7.469,0,0,1-4.5634,6.8164.7753.7753,0,0,0,.1338,1.4668,13.7126,13.7126,0,0,1,10.8144,13.31v11.7329h1.5508V177.57A15.19,15.19,0,0,0,530.5645,163.2783ZM503.22,150.7754a3,3,0,1,1,3.0293-3A3.0178,3.0178,0,0,1,503.22,150.7754ZM516.3955,195.91a2.0782,2.0782,0,1,1-2.0771-2.0562A2.0689,2.0689,0,0,1,516.3955,195.91Zm5.3916-29.72a7.58,7.58,0,0,1-4.5322,6.9151.7753.7753,0,0,0,.1357,1.4634,14.1045,14.1045,0,0,1,3.4823,1.3289.7463.7463,0,0,0-.0389.1925v4.5489a6.5181,6.5181,0,1,1-13.0342,0V176.09a.7584.7584,0,0,0-.0852-.3377,14.114,14.114,0,0,1,3.2073-1.1837.7753.7753,0,0,0,.1357-1.4634,7.5848,7.5848,0,1,1,10.73-6.9151Zm6.9248-15.7221a6.62,6.62,0,0,0-7.2217.0053l-2.7129-2.809a8.36,8.36,0,0,1,12.6416,0Z"/>
  <g id="Group-18-Copy-8">
    <path class="cls-7" d="M332.8652,332.77a4.3892,4.3892,0,1,1,4.39-4.3886A4.3935,4.3935,0,0,1,332.8652,332.77Zm0-7.2256a2.8365,2.8365,0,1,0,2.8369,2.837A2.84,2.84,0,0,0,332.8652,325.5439Z"/>
    <path class="cls-7" d="M332.8652,379.7373a4.3892,4.3892,0,1,1,4.39-4.3887A4.3936,4.3936,0,0,1,332.8652,379.7373Zm0-7.2256a2.8365,2.8365,0,1,0,2.8369,2.8369A2.84,2.84,0,0,0,332.8652,372.5117Z"/>
    <g class="cls-8">
      <path class="cls-7" d="M359.9609,356.2539h-7.2255a.7765.7765,0,0,1-.7764-.7764V348.252a.7764.7764,0,0,1,.7764-.7764h7.2255a.7765.7765,0,0,1,.7764.7764v7.2255A.7765.7765,0,0,1,359.9609,356.2539Zm-6.4492-1.5527h5.6729v-5.6729h-5.6729Z"/>
    </g>
    <g class="cls-9">
      <path class="cls-7" d="M312.9932,356.2539h-7.2256a.7761.7761,0,0,1-.7759-.7764V348.252a.776.776,0,0,1,.7759-.7764h7.2256a.7764.7764,0,0,1,.7763.7764v7.2255A.7764.7764,0,0,1,312.9932,356.2539Zm-6.4493-1.5527h5.6729v-5.6729h-5.6729Z"/>
    </g>
    <path class="cls-7" d="M317.335,324.9756l-.543,1.4531,4.965,1.8568a26.1159,26.1159,0,0,0-13.2463,14.2692l1.4493.5547a24.563,24.563,0,0,1,12.5062-13.4436l-1.893,5.0627,1.4532.543,2.8037-7.4942Z"/>
    <path class="cls-7" d="M358.165,335.7607l-1.7323,4.9753A26.1136,26.1136,0,0,0,342.1748,327.51l-.5547,1.4492A24.5648,24.5648,0,0,1,355.088,341.52l-5.1359-1.7866-.51,1.4668,7.5566,2.6269,2.6309-7.5566Z"/>
    <path class="cls-7" d="M357.2188,361.1738l-1.4493-.5547a24.5626,24.5626,0,0,1-12.68,13.5271l1.5355-5.3855-1.4922-.4257-2.1943,7.6953,7.6953,2.1924.4258-1.4922-4.8744-1.3882A26.1146,26.1146,0,0,0,357.2188,361.1738Z"/>
    <path class="cls-7" d="M310.6649,362.2574l5.0685,1.8842.541-1.4551-7.5-2.7881-2.7881,7.501,1.4551.541,1.8462-4.9673A26.1154,26.1154,0,0,0,323.5537,376.22l.5547-1.4492A24.5661,24.5661,0,0,1,310.6649,362.2574Z"/>
    <path class="cls-7" d="M342.3568,345.1735c-.0128-.0148-.0176-.0335-.0316-.0475l-.008-.0054a11.6122,11.6122,0,1,0-17.906,14.701.7488.7488,0,0,0,.1023.1125,11.6114,11.6114,0,0,0,17.8433-14.7606Zm-9.4916-3.3825a10.0529,10.0529,0,0,1,7.88,3.8162l-3.8118,3.8039-3.5205-3.5146a.7757.7757,0,0,0-1.2842.3037l-2.5361,7.6016h-2.1543a.7744.7744,0,0,0-.6934.4287l-1.8743,3.74a10.0547,10.0547,0,0,1,7.9944-16.18Zm0,20.1465a10.0289,10.0289,0,0,1-6.8777-2.7325l1.93-3.8505h2.2343a.7761.7761,0,0,0,.7364-.5313l2.3154-6.9423,3.1816,3.1757a.7744.7744,0,0,0,1.0957,0l4.1481-4.1405a10.0593,10.0593,0,0,1-8.7643,15.0214Z"/>
  </g>
  <g id="Group-19-Copy-11">
    <path id="Fill-3" class="cls-10" d="M509.64,351.456a.908.908,0,1,1-.9079-.908.9094.9094,0,0,1,.9079.908"/>
    <path id="Fill-5" class="cls-10" d="M496.9289,351.456a.908.908,0,1,1-.908-.908.91.91,0,0,1,.908.908"/>
    <path id="Fill-7" class="cls-10" d="M531.4317,332.3887a.908.908,0,1,1-.908-.908.9094.9094,0,0,1,.908.908"/>
    <path id="Fill-9" class="cls-10" d="M520.5361,332.3887a.908.908,0,1,1-.908-.908.9094.9094,0,0,1,.908.908"/>
    <path class="cls-11" d="M535.9717,324.3486h-21.791a4.4116,4.4116,0,0,0-4.4073,4.4073v13.75H488.7568a4.4115,4.4115,0,0,0-4.4072,4.4072v18.16a4.4116,4.4116,0,0,0,4.4072,4.4073h6.8487l7.0332,10.5586,1.291-.8594-7.2637-10.9043a.775.775,0,0,0-.6455-.3457h-7.2637a2.86,2.86,0,0,1-2.8564-2.8565v-18.16a2.86,2.86,0,0,1,2.8564-2.8565h27.2393a2.86,2.86,0,0,1,2.8564,2.8565v18.16a2.86,2.86,0,0,1-2.8564,2.8565H503.2842v1.5508h12.7119a4.4116,4.4116,0,0,0,4.4072-4.4073V347.6914h4.6729v-1.5508h-4.7509a4.406,4.406,0,0,0-4.3292-3.6347h-4.6719v-13.75a2.86,2.86,0,0,1,2.8565-2.8565h21.791a2.86,2.86,0,0,1,2.8564,2.8565v14.5273a2.8594,2.8594,0,0,1-2.8564,2.8564h-5.4483a.7743.7743,0,0,0-.6933.4288l-3.6319,7.2636,1.3868.6934,3.4179-6.835h4.9688a4.4115,4.4115,0,0,0,4.4072-4.4072V328.7559A4.4116,4.4116,0,0,0,535.9717,324.3486Z"/>
    <path class="cls-11" d="M502.377,362.2188a7.14,7.14,0,0,1-7.1319-7.1309h1.5508a5.5806,5.5806,0,0,0,11.1611,0h1.5508A7.1394,7.1394,0,0,1,502.377,362.2188Z"/>
    <path class="cls-11" d="M531.2988,341.4688H529.748a4.6724,4.6724,0,1,0-9.3447,0h-1.5508a6.2232,6.2232,0,1,1,12.4463,0Z"/>
  </g>
</svg>
