<?xml version="1.0" encoding="UTF-8"?>
<svg width="608px" height="456px" viewBox="0 0 608 456" version="1.1" xmlns="http://www.w3.org/2000/svg" xmlns:xlink="http://www.w3.org/1999/xlink">
    <!-- Generator: Sketch 59 (86127) - https://sketch.com -->
    <title>Artboard Copy 83</title>
    <desc>Created with Sketch.</desc>
    <defs>
        <polygon id="path-1" points="0 55.7290323 55.7290323 55.7290323 55.7290323 0 0 0"></polygon>
    </defs>
    <g id="Artboard-Copy-83" stroke="none" stroke-width="1" fill="none" fill-rule="evenodd">
        <g id="32x32-base-grid-comp-copy-13" fill="#FFFFFF">
            <polygon id="Rectangle-3" points="0 0 608 0 608 456 0 456"></polygon>
        </g>
        <rect id="Rectangle-13-Copy-102" fill="#F3F3F3" fill-rule="nonzero" x="212" y="50" width="160" height="160"></rect>
        <rect id="Rectangle-13-Copy-103" fill="#F3F3F3" fill-rule="nonzero" x="212" y="230" width="160" height="160"></rect>
        <rect id="Rectangle-13-Copy-106" fill="#F3F3F3" fill-rule="nonzero" x="391" y="50" width="160" height="160"></rect>
        <rect id="Rectangle-13-Copy-107" fill="#F3F3F3" fill-rule="nonzero" x="391" y="230" width="160" height="160"></rect>
        <g id="Group-22-Copy-4" transform="translate(306.000000, 144.000000)" stroke="#6EA6FF" stroke-linejoin="round" stroke-width="1.5504">
            <g id="Group-21" transform="translate(0.000000, 0.134663)">
                <line x1="9.58851256" y1="45.8970613" x2="17.3081997" y2="38.0947669" id="Stroke-1"></line>
                <line x1="37.8206933" y1="17.3638757" x2="46.0390119" y2="9.05945337" id="Stroke-2"></line>
                <path d="M11.1879546,5.65620364 C11.1879546,8.70391742 8.74393292,11.1740922 5.72848699,11.1740922 C2.71304106,11.1740922 0.269019401,8.70391742 0.269019401,5.65620364 C0.269019401,2.60848985 2.71304106,0.138315073 5.72848699,0.138315073 C8.74393292,0.138315073 11.1879546,2.60848985 11.1879546,5.65620364 Z" id="Stroke-3" stroke-linecap="round"></path>
                <path d="M11.1879546,49.7993121 C11.1879546,52.8470259 8.74393292,55.3172007 5.72848699,55.3172007 C2.71304106,55.3172007 0.269019401,52.8470259 0.269019401,49.7993121 C0.269019401,46.7515984 2.71304106,44.2814236 5.72848699,44.2814236 C8.74393292,44.2814236 11.1879546,46.7515984 11.1879546,49.7993121 Z" id="Stroke-5" stroke-linecap="round"></path>
                <path d="M54.8618755,49.7993121 C54.8618755,52.8470259 52.4178538,55.3172007 49.4024079,55.3172007 C46.3869619,55.3172007 43.9429403,52.8470259 43.9429403,49.7993121 C43.9429403,46.7515984 46.3869619,44.2814236 49.4024079,44.2814236 C52.4178538,44.2814236 54.8618755,46.7515984 54.8618755,49.7993121 Z" id="Stroke-7" stroke-linecap="round"></path>
                <path d="M7.54830952,49.8002318 C7.54830952,50.8155233 6.73302903,51.639528 5.72848699,51.639528 C4.72212513,51.639528 3.90866446,50.8155233 3.90866446,49.8002318 C3.90866446,48.7849403 4.72212513,47.9609356 5.72848699,47.9609356 C6.73302903,47.9609356 7.54830952,48.7849403 7.54830952,49.8002318 Z" id="Stroke-9" stroke-linecap="round"></path>
                <path d="M54.8618755,5.65620364 C54.8618755,8.70391742 52.4178538,11.1740922 49.4024079,11.1740922 C46.3869619,11.1740922 43.9429403,8.70391742 43.9429403,5.65620364 C43.9429403,2.60848985 46.3869619,0.138315073 49.4024079,0.138315073 C52.4178538,0.138315073 54.8618755,2.60848985 54.8618755,5.65620364 Z" id="Stroke-11" stroke-linecap="round"></path>
                <path d="M51.2222304,5.65712328 C51.2222304,6.67241478 50.4087697,7.49641947 49.4024079,7.49641947 C48.396046,7.49641947 47.5825854,6.67241478 47.5825854,5.65712328 C47.5825854,4.64183179 48.396046,3.8178271 49.4024079,3.8178271 C50.4087697,3.8178271 51.2222304,4.64183179 51.2222304,5.65712328 Z" id="Stroke-13" stroke-linecap="round"></path>
                <path d="M36.66547,27.7268382 C36.66547,32.8069743 32.5927072,36.9233192 27.5663573,36.9233192 C22.5400075,36.9233192 18.4672447,32.8069743 18.4672447,27.7268382 C18.4672447,22.6485415 22.5400075,18.5303573 27.5663573,18.5303573 C32.5927072,18.5303573 36.66547,22.6485415 36.66547,27.7268382 Z" id="Stroke-15" stroke-linecap="round"></path>
                <path d="M33.0258249,27.7286775 C33.0258249,30.7763913 30.5818033,33.2465661 27.5663573,33.2465661 C24.5509114,33.2465661 22.1068898,30.7763913 22.1068898,27.7286775 C22.1068898,24.6809638 24.5509114,22.210789 27.5663573,22.210789 C30.5818033,22.210789 33.0258249,24.6809638 33.0258249,27.7286775 Z" id="Stroke-17" stroke-linecap="round"></path>
                <path d="M7.54830952,27.7295972 C7.54830952,27.7295972 13.0077771,40.6046705 27.5663573,40.6046705 C42.1249376,40.6046705 47.5844052,27.7295972 47.5844052,27.7295972 C47.5844052,27.7295972 42.1249376,14.8545239 27.5663573,14.8545239 C13.0077771,14.8545239 7.54830952,27.7295972 7.54830952,27.7295972 Z" id="Stroke-19" stroke-linecap="round"></path>
            </g>
        </g>
        <text id="Learn-Copy" font-family="IBMPlexSans-SemiBold, IBM Plex Sans" font-size="10.1333333" font-weight="500" line-spacing="13.9333333" fill="#171717">
            <tspan x="222" y="69">Learn</tspan>
        </text>
        <text id="Supply-Copy-2" font-family="IBMPlexSans-SemiBold, IBM Plex Sans" font-size="10.1333333" font-weight="500" line-spacing="13.9333333" fill="#171717">
            <tspan x="222" y="250">Supply</tspan>
        </text>
        <text id="Care-Copy-2" font-family="IBMPlexSans-SemiBold, IBM Plex Sans" font-size="10.1333333" font-weight="500" line-spacing="13.9333333" fill="#171717">
            <tspan x="402" y="69">Care</tspan>
        </text>
        <text id="Emotion-Copy-2" font-family="IBMPlexSans-SemiBold, IBM Plex Sans" font-size="10.1333333" font-weight="500" line-spacing="13.9333333" fill="#171717">
            <tspan x="402" y="250">Emotion</tspan>
        </text>
        <g id="Group-22-Copy-5" transform="translate(488.000000, 144.000000)" stroke="#BB8EFF" stroke-linejoin="round" stroke-width="1.5504">
            <g id="Group-3" transform="translate(11.414634, 13.842697)">
                <path d="M29.4859198,42.0531227 L29.4859198,30.2164654 C29.4859198,23.2970833 24.6502289,17.5016433 18.1541122,15.9713249 C21.0934899,14.6716526 23.1482899,11.7501358 23.1482899,8.34719101 C23.1482899,3.73793071 19.3851494,0 14.7429599,0 C10.1007704,0 6.33762988,3.73793071 6.33762988,8.34719101 C6.33762988,11.7501358 8.39242992,14.6716526 11.3299647,15.9713249 C4.83569084,17.5016433 0,23.2970833 0,30.2164654 L0,42.0531227" id="Stroke-1"></path>
            </g>
            <path d="M11.2308864,4.40449438 C8.36516359,5.72778929 6.38477097,8.57921792 6.38477097,11.8802043 C6.38477097,15.2482617 8.45239738,18.1431959 11.4146341,19.4302362 C4.8702439,20.9456808 0,26.6847927 0,33.5369225 L0,45.3033708" id="Stroke-4"></path>
            <path d="M23.011774,14.4719101 C23.303783,13.6552906 23.4634146,12.7789184 23.4634146,11.8699539 C23.4634146,8.57450489 21.3901503,5.72991674 18.3902439,4.40449438" id="Stroke-6"></path>
            <path d="M31.7073171,5.66292135 C29.7686745,7.15727149 28.5365854,9.39790402 28.5365854,11.9009851 C28.5365854,12.7990235 28.6942461,13.66314 28.9901032,14.4719101" id="Stroke-8"></path>
            <path d="M52,45.3033708 L52,33.5701014 C52,26.7383456 47.1300284,21.0162984 40.5853659,19.5053598 C43.5467096,18.2221464 45.6150086,15.33582 45.6150086,11.9777771 C45.6150086,9.44207512 44.441611,7.17566726 42.5923957,5.66292135" id="Stroke-10"></path>
            <line x1="26.2113821" y1="48.9660368" x2="26.2113821" y2="44.6741573" id="Stroke-12" stroke-linecap="round"></line>
            <path d="M29.1707317,51.9101124 C29.1707317,53.4741213 27.8918664,54.741573 26.3180247,54.741573 C24.7422799,54.741573 23.4634146,53.4741213 23.4634146,51.9101124 C23.4634146,50.3461034 24.7422799,49.0786517 26.3180247,49.0786517 C27.8918664,49.0786517 29.1707317,50.3461034 29.1707317,51.9101124 Z" id="Stroke-14" stroke-linecap="round"></path>
            <path d="M19.0243902,3.7752809 C19.0243902,5.85923596 17.3198049,7.5505618 15.2195122,7.5505618 C13.1173171,7.5505618 11.4146341,5.85923596 11.4146341,3.7752809 C11.4146341,1.69132584 13.1173171,0 15.2195122,0 C17.3198049,0 19.0243902,1.69132584 19.0243902,3.7752809 Z" id="Stroke-16" stroke-linecap="round"></path>
            <path d="M33.6097561,32.0898876 L33.6097561,36.6386937 C33.6097561,40.7139828 30.3280488,44.0449438 26.3170732,44.0449438 C22.3079207,44.0449438 19.0243902,40.7139828 19.0243902,36.6386937 L19.0243902,32.0898876" id="Stroke-18" stroke-linecap="round"></path>
            <path d="M33.4512195,7.54867416 C33.4512195,7.54867416 34.5068354,6.17447191 37.097561,6.17447191 C39.7484512,6.17447191 40.7439024,7.5505618 40.7439024,7.5505618 L44.3902439,3.77339326 C44.3902439,3.77339326 42.5889512,0 37.097561,0 C31.6061707,0 29.804878,3.77339326 29.804878,3.77339326 L33.4512195,7.54867416 Z" id="Stroke-20" stroke-linecap="round"></path>
        </g>
        <g id="Group-18-Copy-8" transform="translate(305.000000, 324.000000)">
            <path d="M31.4783226,4.38064516 C31.4783226,6.37496774 29.8597419,7.99354839 27.8654194,7.99354839 C25.8692903,7.99354839 24.2525161,6.37496774 24.2525161,4.38064516 C24.2525161,2.38632258 25.8692903,0.767741935 27.8654194,0.767741935 C29.8597419,0.767741935 31.4783226,2.38632258 31.4783226,4.38064516 Z" id="Stroke-1" stroke="#00BAB6" stroke-width="1.5519504" stroke-linecap="round" stroke-linejoin="round"></path>
            <path d="M31.4783226,51.3483871 C31.4783226,53.3427097 29.8597419,54.9612903 27.8654194,54.9612903 C25.8692903,54.9612903 24.2525161,53.3427097 24.2525161,51.3483871 C24.2525161,49.3540645 25.8692903,47.7354839 27.8654194,47.7354839 C29.8597419,47.7354839 31.4783226,49.3540645 31.4783226,51.3483871 Z" id="Stroke-3" stroke="#00BAB6" stroke-width="1.5519504" stroke-linecap="round" stroke-linejoin="round"></path>
            <mask id="mask-2" fill="white">
                <use xlink:href="#path-1"></use>
            </mask>
            <g id="Clip-6"></g>
            <polygon id="Stroke-5" stroke="#00BAB6" stroke-width="1.5519504" stroke-linecap="round" stroke-linejoin="round" mask="url(#mask-2)" points="47.7354839 31.4774194 54.9612903 31.4774194 54.9612903 24.2516129 47.7354839 24.2516129"></polygon>
            <polygon id="Stroke-7" stroke="#00BAB6" stroke-width="1.5519504" stroke-linecap="round" stroke-linejoin="round" mask="url(#mask-2)" points="0.767741935 31.4774194 7.99354839 31.4774194 7.99354839 24.2516129 0.767741935 24.2516129"></polygon>
            <path d="M36.8976774,4.23414194 C43.5996129,6.79749677 48.9304516,12.1301419 51.4938065,18.8320774" id="Stroke-8" stroke="#00BAB6" stroke-width="1.5519504" mask="url(#mask-2)"></path>
            <path d="M4.23504516,18.8322581 C6.7984,12.1303226 12.1310452,6.79767742 18.8311742,4.23432258" id="Stroke-9" stroke="#00BAB6" stroke-width="1.5519504" mask="url(#mask-2)"></path>
            <path d="M18.8313548,51.4948903 C12.1312258,48.9315355 6.79858065,43.5988903 4.23522581,36.8969548" id="Stroke-10" stroke="#00BAB6" stroke-width="1.5519504" mask="url(#mask-2)"></path>
            <path d="M51.4939871,36.8967742 C48.9306323,43.5987097 43.5997935,48.9313548 36.8978581,51.4947097" id="Stroke-11" stroke="#00BAB6" stroke-width="1.5519504" mask="url(#mask-2)"></path>
            <polyline id="Stroke-12" stroke="#00BAB6" stroke-width="1.5519504" mask="url(#mask-2)" points="16.2997935 10.9996645 18.8306323 4.23269677 12.0636645 1.70185806"></polyline>
            <polyline id="Stroke-13" stroke="#00BAB6" stroke-width="1.5519504" mask="url(#mask-2)" points="44.6968516 16.466529 51.5216258 18.8402065 53.8971097 12.0154323"></polyline>
            <polyline id="Stroke-14" stroke="#00BAB6" stroke-width="1.5519504" mask="url(#mask-2)" points="38.8788129 44.5476387 36.8971355 51.4970581 43.8465548 53.476929"></polyline>
            <polyline id="Stroke-15" stroke="#00BAB6" stroke-width="1.5519504" mask="url(#mask-2)" points="11.004 39.4142452 4.2316129 36.8960516 1.71341935 43.6702452"></polyline>
            <polyline id="Stroke-16" stroke="#00BAB6" stroke-width="1.5519504" stroke-linecap="round" stroke-linejoin="round" mask="url(#mask-2)" points="20.0344516 35.3761032 22.4388387 30.5781677 25.152129 30.5781677 27.8654194 22.4455226 31.9335484 26.5082323 36.7766452 21.6741677"></polyline>
            <path d="M38.7146065,27.8645161 C38.7146065,33.8565161 33.8570581,38.7140645 27.8650581,38.7140645 C21.8730581,38.7140645 17.0137032,33.8565161 17.0137032,27.8645161 C17.0137032,21.8725161 21.8730581,17.0149677 27.8650581,17.0149677 C33.8570581,17.0149677 38.7146065,21.8725161 38.7146065,27.8645161 Z" id="Stroke-17" stroke="#00BAB6" stroke-width="1.5519504" stroke-linecap="round" stroke-linejoin="round" mask="url(#mask-2)"></path>
        </g>
        <g id="Group-19-Copy-11" transform="translate(485.000000, 325.000000)">
            <path d="M24.6404404,26.4560165 C24.6404404,26.9572157 24.2318541,27.3639861 23.7324708,27.3639861 C23.2312715,27.3639861 22.8245011,26.9572157 22.8245011,26.4560165 C22.8245011,25.9548173 23.2312715,25.5480469 23.7324708,25.5480469 C24.2318541,25.5480469 24.6404404,25.9548173 24.6404404,26.4560165" id="Fill-3" fill="#FA75A6"></path>
            <path d="M11.9288655,26.4560165 C11.9288655,26.9572157 11.5202791,27.3639861 11.0208958,27.3639861 C10.5196966,27.3639861 10.1129262,26.9572157 10.1129262,26.4560165 C10.1129262,25.9548173 10.5196966,25.5480469 11.0208958,25.5480469 C11.5202791,25.5480469 11.9288655,25.9548173 11.9288655,26.4560165" id="Fill-5" fill="#FA75A6"></path>
            <path d="M46.4317118,7.38865408 C46.4317118,7.88985332 46.0231254,8.29662372 45.5237421,8.29662372 C45.0225429,8.29662372 44.6157725,7.88985332 44.6157725,7.38865408 C44.6157725,6.88745484 45.0225429,6.48068444 45.5237421,6.48068444 C46.0231254,6.48068444 46.4317118,6.88745484 46.4317118,7.38865408" id="Fill-7" fill="#FA75A6"></path>
            <path d="M35.5360761,7.38865408 C35.5360761,7.88985332 35.1274898,8.29662372 34.6281065,8.29662372 C34.1269072,8.29662372 33.7201368,7.88985332 33.7201368,7.38865408 C33.7201368,6.88745484 34.1269072,6.48068444 34.6281065,6.48068444 C35.1274898,6.48068444 35.5360761,6.88745484 35.5360761,7.38865408" id="Fill-9" fill="#FA75A6"></path>
            <path d="M18.2846529,43.7047157 L30.9962279,43.7047157 C32.9937611,43.7047157 34.6281065,42.0703704 34.6281065,40.0728372 L34.6281065,21.9134444 C34.6281065,19.9159112 32.9937611,18.2815658 30.9962279,18.2815658 L3.75713871,18.2815658 C1.75778956,18.2815658 0.125260152,19.9159112 0.125260152,21.9134444 L0.125260152,40.0728372 C0.125260152,42.0703704 1.75778956,43.7047157 3.75713871,43.7047157 L11.0208958,43.7047157 L18.2846529,54.6094311" id="Stroke-1" stroke="#FA75A6" stroke-width="1.55132962" stroke-linejoin="round"></path>
            <path d="M25.5484101,18.2815658 L25.5484101,3.75586755 C25.5484101,1.75833435 27.1809395,0.123988994 29.1802886,0.123988994 L50.97156,0.123988994 C52.9690932,0.123988994 54.6034385,1.75833435 54.6034385,3.75586755 L54.6034385,18.2833818 C54.6034385,20.2827309 52.9690932,21.9152603 50.97156,21.9152603 L45.5237421,21.9152603 L41.8918636,29.1790175" id="Stroke-11" stroke="#FA75A6" stroke-width="1.55132962" stroke-linejoin="round"></path>
            <line x1="40.0759243" y1="21.9161683" x2="34.611763" y2="21.9161683" id="Stroke-13" stroke="#FA75A6" stroke-width="1.55132962"></line>
            <path d="M23.7324708,30.0878951 C23.7324708,33.5981057 20.8868939,36.4436825 17.3766833,36.4436825 C13.8646567,36.4436825 11.0208958,33.5981057 11.0208958,30.0878951" id="Stroke-15" stroke="#FA75A6" stroke-width="1.55132962"></path>
            <path d="M34.6281065,16.4683505 C34.6281065,13.4593391 37.0669129,11.0205326 40.0759243,11.0205326 C43.0831197,11.0205326 45.5237421,13.4593391 45.5237421,16.4683505" id="Stroke-17" stroke="#FA75A6" stroke-width="1.55132962"></path>
        </g>
    </g>
</svg>