<svg id="effc495c-587d-48d2-ab57-5a3bb6655063" data-name="Layer 1" xmlns="http://www.w3.org/2000/svg" xmlns:xlink="http://www.w3.org/1999/xlink" viewBox="0 0 928 522">
  <defs>
    <linearGradient id="f5478b9b-9488-4696-b1d5-e9292391d95d" x1="64.348" y1="281.897" x2="86.429" y2="281.897" gradientUnits="userSpaceOnUse">
      <stop offset="0.21" stop-color="#393939"/>
      <stop offset="1"/>
    </linearGradient>
    <linearGradient id="b82151fa-268e-466d-a903-1159865b77f7" x1="104.96" y1="279.795" x2="104.96" y2="215.919" gradientUnits="userSpaceOnUse">
      <stop offset="0.02" stop-color="#393939"/>
      <stop offset="0.9" stop-color="#fff"/>
    </linearGradient>
    <linearGradient id="ee6482f6-0375-4a37-b1df-113e1b080101" x1="145.571" y1="220.388" x2="167.652" y2="220.388" gradientUnits="userSpaceOnUse">
      <stop offset="0"/>
      <stop offset="0.79" stop-color="#393939"/>
    </linearGradient>
    <linearGradient id="a75d253d-1225-4a74-a9e5-e4e3ccdd0563" x1="165.286" y1="306.081" x2="165.286" y2="222.491" gradientUnits="userSpaceOnUse">
      <stop offset="0.1" stop-color="#fff"/>
      <stop offset="0.98" stop-color="#393939"/>
    </linearGradient>
    <linearGradient id="fe8a52ac-fdfa-4b93-a45d-c913316fc237" x1="296.348" y1="281.897" x2="318.429" y2="281.897" xlink:href="#f5478b9b-9488-4696-b1d5-e9292391d95d"/>
    <linearGradient id="e7e885d9-7b3d-4a8d-93e2-c0873615fe37" x1="336.96" y1="279.795" x2="336.96" y2="215.919" xlink:href="#b82151fa-268e-466d-a903-1159865b77f7"/>
    <linearGradient id="b0c1b73b-4fd1-4c7d-b6f8-6c8b025ffff9" x1="377.571" y1="220.388" x2="399.652" y2="220.388" xlink:href="#ee6482f6-0375-4a37-b1df-113e1b080101"/>
    <linearGradient id="e507844b-35cb-4a0e-96d3-de813b804a50" x1="397.286" y1="306.081" x2="397.286" y2="222.491" xlink:href="#a75d253d-1225-4a74-a9e5-e4e3ccdd0563"/>
    <linearGradient id="eb4073e2-1a06-46cd-a060-b04b2c50fd59" x1="528.348" y1="281.897" x2="550.429" y2="281.897" xlink:href="#f5478b9b-9488-4696-b1d5-e9292391d95d"/>
    <linearGradient id="ec0b101c-247b-4ffe-92c6-e67d0fa39e3e" x1="568.96" y1="279.795" x2="568.96" y2="215.919" xlink:href="#b82151fa-268e-466d-a903-1159865b77f7"/>
    <linearGradient id="a250d883-f7ad-48f6-956d-e4b912a5866f" x1="609.571" y1="220.388" x2="631.652" y2="220.388" xlink:href="#ee6482f6-0375-4a37-b1df-113e1b080101"/>
    <linearGradient id="a1318f60-0c01-4d07-b7a8-8c66caae1292" x1="629.286" y1="306.081" x2="629.286" y2="222.491" xlink:href="#a75d253d-1225-4a74-a9e5-e4e3ccdd0563"/>
    <linearGradient id="f3798be9-b6ba-4cec-b5ad-d3e90cbcb3e2" x1="760.348" y1="281.897" x2="782.429" y2="281.897" xlink:href="#f5478b9b-9488-4696-b1d5-e9292391d95d"/>
    <linearGradient id="bca39d2a-2621-4c17-9edb-39a7892a8f4d" x1="800.96" y1="279.795" x2="800.96" y2="215.919" xlink:href="#b82151fa-268e-466d-a903-1159865b77f7"/>
    <linearGradient id="fc5a89fb-eb2f-4590-85be-20275aa92e43" x1="841.571" y1="220.388" x2="863.652" y2="220.388" xlink:href="#ee6482f6-0375-4a37-b1df-113e1b080101"/>
    <linearGradient id="f28c1017-8e46-4e02-9456-ec76f13d12c0" x1="861.286" y1="306.081" x2="861.286" y2="222.491" xlink:href="#a75d253d-1225-4a74-a9e5-e4e3ccdd0563"/>
    <mask id="a801c585-139b-4a1b-930e-461855b7332d" x="63.429" y="208.429" width="105.143" height="105.143" maskUnits="userSpaceOnUse">
      <g>
        <path d="M163.569,305.431l-19-19H86.429v-4.854h59.142a2.434,2.434,0,0,1,1.717.71L167,302Z" fill="#fff"/>
        <path d="M86.429,286.366H73.286a8.947,8.947,0,0,1-8.938-8.937h4.733a4.211,4.211,0,0,0,4.2,4.205H86.429Z" fill="url(#f5478b9b-9488-4696-b1d5-e9292391d95d)"/>
        <path d="M145.571,220.652H73.286a4.211,4.211,0,0,0-4.2,4.205v52.572a2.367,2.367,0,0,1-4.733,0V224.857a8.948,8.948,0,0,1,8.938-8.938h72.285Z" fill="url(#b82151fa-268e-466d-a903-1159865b77f7)"/>
        <path d="M167.652,224.857h-4.733a4.211,4.211,0,0,0-4.205-4.205H145.571v-4.733h13.143A8.948,8.948,0,0,1,167.652,224.857Z" fill="url(#ee6482f6-0375-4a37-b1df-113e1b080101)"/>
        <path d="M165.286,306.081a2.369,2.369,0,0,1-2.367-2.367V224.857a2.367,2.367,0,0,1,4.733,0v78.857A2.368,2.368,0,0,1,165.286,306.081Z" fill="url(#a75d253d-1225-4a74-a9e5-e4e3ccdd0563)"/>
      </g>
    </mask>
    <linearGradient id="f06140c5-3c16-4d74-835d-57eb214f63e7" x1="63.429" y1="313.571" x2="168.571" y2="208.429" gradientUnits="userSpaceOnUse">
      <stop offset="0.1" stop-color="#be95ff"/>
      <stop offset="0.9" stop-color="#4589ff"/>
    </linearGradient>
    <mask id="be5e8f71-723f-4ba5-b815-5c0a920978ef" x="295.429" y="208.429" width="105.143" height="105.143" maskUnits="userSpaceOnUse">
      <g>
        <path d="M395.569,305.431l-19-19H318.429v-4.854h59.142a2.434,2.434,0,0,1,1.717.71L399,302Z" fill="#fff"/>
        <path d="M318.429,286.366H305.286a8.947,8.947,0,0,1-8.938-8.937h4.733a4.211,4.211,0,0,0,4.2,4.205h13.143Z" fill="url(#fe8a52ac-fdfa-4b93-a45d-c913316fc237)"/>
        <path d="M377.571,220.652H305.286a4.211,4.211,0,0,0-4.2,4.205v52.572a2.367,2.367,0,0,1-4.733,0V224.857a8.948,8.948,0,0,1,8.938-8.938h72.285Z" fill="url(#e7e885d9-7b3d-4a8d-93e2-c0873615fe37)"/>
        <path d="M399.652,224.857h-4.733a4.211,4.211,0,0,0-4.2-4.205H377.571v-4.733h13.143A8.948,8.948,0,0,1,399.652,224.857Z" fill="url(#b0c1b73b-4fd1-4c7d-b6f8-6c8b025ffff9)"/>
        <path d="M397.286,306.081a2.369,2.369,0,0,1-2.367-2.367V224.857a2.367,2.367,0,0,1,4.733,0v78.857A2.368,2.368,0,0,1,397.286,306.081Z" fill="url(#e507844b-35cb-4a0e-96d3-de813b804a50)"/>
      </g>
    </mask>
    <mask id="f515aa43-adfb-4de0-a63d-0b35c9d34e41" x="527.429" y="208.429" width="105.143" height="105.143" maskUnits="userSpaceOnUse">
      <g>
        <path d="M627.569,305.431l-19-19H550.429v-4.854h59.142a2.434,2.434,0,0,1,1.717.71L631,302Z" fill="#fff"/>
        <path d="M550.429,286.366H537.286a8.947,8.947,0,0,1-8.938-8.937h4.733a4.211,4.211,0,0,0,4.2,4.205h13.143Z" fill="url(#eb4073e2-1a06-46cd-a060-b04b2c50fd59)"/>
        <path d="M609.571,220.652H537.286a4.211,4.211,0,0,0-4.2,4.205v52.572a2.367,2.367,0,0,1-4.733,0V224.857a8.948,8.948,0,0,1,8.938-8.938h72.285Z" fill="url(#ec0b101c-247b-4ffe-92c6-e67d0fa39e3e)"/>
        <path d="M631.652,224.857h-4.733a4.211,4.211,0,0,0-4.2-4.205H609.571v-4.733h13.143A8.948,8.948,0,0,1,631.652,224.857Z" fill="url(#a250d883-f7ad-48f6-956d-e4b912a5866f)"/>
        <path d="M629.286,306.081a2.369,2.369,0,0,1-2.367-2.367V224.857a2.367,2.367,0,0,1,4.733,0v78.857A2.368,2.368,0,0,1,629.286,306.081Z" fill="url(#a1318f60-0c01-4d07-b7a8-8c66caae1292)"/>
      </g>
    </mask>
    <mask id="ad6669dd-5e2e-4b61-907e-63c79b64b868" x="759.429" y="208.429" width="105.143" height="105.143" maskUnits="userSpaceOnUse">
      <g>
        <path d="M859.569,305.431l-19-19H782.429v-4.854h59.142a2.434,2.434,0,0,1,1.717.71L863,302Z" fill="#fff"/>
        <path d="M782.429,286.366H769.286a8.947,8.947,0,0,1-8.938-8.937h4.733a4.211,4.211,0,0,0,4.2,4.205h13.143Z" fill="url(#f3798be9-b6ba-4cec-b5ad-d3e90cbcb3e2)"/>
        <path d="M841.571,220.652H769.286a4.211,4.211,0,0,0-4.2,4.205v52.572a2.367,2.367,0,0,1-4.733,0V224.857a8.948,8.948,0,0,1,8.938-8.938h72.285Z" fill="url(#bca39d2a-2621-4c17-9edb-39a7892a8f4d)"/>
        <path d="M863.652,224.857h-4.733a4.211,4.211,0,0,0-4.2-4.205H841.571v-4.733h13.143A8.948,8.948,0,0,1,863.652,224.857Z" fill="url(#fc5a89fb-eb2f-4590-85be-20275aa92e43)"/>
        <path d="M861.286,306.081a2.369,2.369,0,0,1-2.367-2.367V224.857a2.367,2.367,0,0,1,4.733,0v78.857A2.368,2.368,0,0,1,861.286,306.081Z" fill="url(#f28c1017-8e46-4e02-9456-ec76f13d12c0)"/>
      </g>
    </mask>
    <linearGradient id="e560a7cf-89b8-45ee-9349-319cb878708f" x1="759.429" y1="313.571" x2="864.571" y2="208.429" gradientUnits="userSpaceOnUse">
      <stop offset="0.1" stop-color="#a56eff"/>
      <stop offset="0.9" stop-color="#0f62fe"/>
    </linearGradient>
  </defs>
  <polygon id="aceaced9-8d91-47bf-ad34-b1152bc01382" data-name="Fill-1-Copy-6" points="232 0 0 0 0 522 232 522 232 0" fill-rule="evenodd"/>
  <polygon id="ac7da1a0-55d6-4292-9004-bf63e054d684" data-name="Fill-1-Copy-6" points="464 0 232 0 232 522 464 522 464 0" fill="#6929c4" fill-rule="evenodd"/>
  <polygon id="a78134ff-b4d5-481f-aa04-37413186e06f" data-name="Fill-1-Copy-6" points="928 0 696 0 696 522 928 522 928 0" fill="#fff" fill-rule="evenodd"/>
  <polygon id="b576787d-6320-46f4-9ad3-800b3b3db159" data-name="Fill-1-Copy-6" points="696 0 464 0 464 522 696 522 696 0" fill="#be95ff" fill-rule="evenodd"/>
  <g>
    <g mask="url(#a801c585-139b-4a1b-930e-461855b7332d)">
      <rect x="63.429" y="208.429" width="105.143" height="105.143" fill="url(#f06140c5-3c16-4d74-835d-57eb214f63e7)"/>
    </g>
    <rect x="86.429" y="249.96" width="59.143" height="2.366" fill="#fff"/>
    <rect x="86.429" y="236.817" width="59.143" height="2.366" fill="#fff"/>
    <rect x="86.429" y="263.103" width="59.143" height="2.366" fill="#fff"/>
  </g>
  <g>
    <g mask="url(#be5e8f71-723f-4ba5-b815-5c0a920978ef)">
      <rect x="295.429" y="208.429" width="105.143" height="105.143" fill="#fff"/>
    </g>
    <rect x="318.429" y="249.96" width="59.143" height="2.366" fill="#fff"/>
    <rect x="318.429" y="236.817" width="59.143" height="2.366" fill="#fff"/>
    <rect x="318.429" y="263.103" width="59.143" height="2.366" fill="#fff"/>
  </g>
  <g>
    <g mask="url(#f515aa43-adfb-4de0-a63d-0b35c9d34e41)">
      <rect x="527.429" y="208.429" width="105.143" height="105.143"/>
    </g>
    <rect x="550.429" y="249.96" width="59.143" height="2.366"/>
    <rect x="550.429" y="236.817" width="59.143" height="2.366"/>
    <rect x="550.429" y="263.103" width="59.143" height="2.366"/>
  </g>
  <g>
    <g mask="url(#ad6669dd-5e2e-4b61-907e-63c79b64b868)">
      <rect x="759.429" y="208.429" width="105.143" height="105.143" fill="url(#e560a7cf-89b8-45ee-9349-319cb878708f)"/>
    </g>
    <rect x="782.429" y="249.96" width="59.143" height="2.366"/>
    <rect x="782.429" y="236.817" width="59.143" height="2.366"/>
    <rect x="782.429" y="263.103" width="59.143" height="2.366"/>
  </g>
</svg>
