<?xml version="1.0" encoding="UTF-8"?>
<svg width="20px" height="20px" viewBox="0 0 20 20" version="1.1" xmlns="http://www.w3.org/2000/svg"
    xmlns:xlink="http://www.w3.org/1999/xlink">
    <title>checkmark--outline</title>
    <g id="Structure" stroke="none" stroke-width="1" fill="none" fill-rule="evenodd">

        <polygon id="Path" fill="#4589ff" fill-rule="nonzero"
            points="8.75 13.38375 5.625 10.258125 6.508125 9.375 8.75 11.61625 13.490625 6.875 14.375 7.759375">
        </polygon>
        <path
            d="M10,1.25 C5.16750844,1.25 1.25,5.16750844 1.25,10 C1.25,14.8324916 5.16750844,18.75 10,18.75 C14.8324916,18.75 18.75,14.8324916 18.75,10 C18.75,7.67935571 17.8281276,5.45375898 16.1871843,3.81281566 C14.546241,2.17187235 12.3206443,1.25 10,1.25 Z M10,17.5 C5.85786438,17.5 2.5,14.1421356 2.5,10 C2.5,5.85786438 5.85786438,2.5 10,2.5 C14.1421356,2.5 17.5,5.85786438 17.5,10 C17.5,11.9891237 16.7098237,13.896778 15.3033009,15.3033009 C13.896778,16.7098237 11.9891237,17.5 10,17.5 Z"
            id="Shape" fill="#4589ff" fill-rule="nonzero"></path>
        <rect id="_Transparent_Rectangle_" x="0" y="0" width="20" height="20"></rect>

    </g>
</svg>