<svg width="20" height="20" viewBox="0 0 20 20" fill="none" xmlns="http://www.w3.org/2000/svg">
<g clip-path="url(#clip0_13_991)">
<path d="M8.75 13.3837L5.625 10.2581L6.50812 9.375L8.75 11.6163L13.4906 6.875L14.375 7.75938L8.75 13.3837Z" fill="#42BE65"/>
<path d="M10 1.25C5.16751 1.25 1.25 5.16751 1.25 10C1.25 14.8325 5.16751 18.75 10 18.75C14.8325 18.75 18.75 14.8325 18.75 10C18.75 7.67936 17.8281 5.45376 16.1872 3.81282C14.5462 2.17187 12.3206 1.25 10 1.25ZM10 17.5C5.85786 17.5 2.5 14.1421 2.5 10C2.5 5.85786 5.85786 2.5 10 2.5C14.1421 2.5 17.5 5.85786 17.5 10C17.5 11.9891 16.7098 13.8968 15.3033 15.3033C13.8968 16.7098 11.9891 17.5 10 17.5Z" fill="#42BE65"/>
</g>
<defs>
<clipPath id="clip0_13_991">
<rect width="20" height="20" fill="white"/>
</clipPath>
</defs>
</svg>
