<?xml version="1.0" encoding="UTF-8"?>
<svg width="18px" height="18px" viewBox="0 0 18 18" version="1.1" xmlns="http://www.w3.org/2000/svg"
    xmlns:xlink="http://www.w3.org/1999/xlink">
    <title>Group</title>
    <g id="Structure" stroke="none" stroke-width="1" fill="none" fill-rule="evenodd">
        <g id="status_indicator_1-copy-65" transform="translate(-1.000000, -1.000000)">
            <g id="Group" transform="translate(1.250000, 1.250000)">

                <path
                    d="M8.75,0 C3.91750844,0 0,3.91750844 0,8.75 C0,13.5824916 3.91750844,17.5 8.75,17.5 C13.5824916,17.5 17.5,13.5824916 17.5,8.75 C17.5,6.42935571 16.5781276,4.20375898 14.9371843,2.56281566 C13.296241,0.921872353 11.0706443,0 8.75,0 Z M7.5,12.24425 L4.375,9.11925 L5.369125,8.125 L7.5,10.25575 L12.13125,5.625 L13.1285625,6.6161875 L7.5,12.24425 Z"
                    id="Shape" fill="#24a148" fill-rule="nonzero"></path>

                <polygon id="inner-path" fill="#161616"
                    points="7.5 12.244375 4.375 9.119375 5.369375 8.125 7.5 10.255625 12.13125 5.625 13.128125 6.615625">
                </polygon>
            </g>
        </g>
    </g>
</svg>