<?xml version="1.0" encoding="UTF-8"?>
<svg width="20px" height="20px" viewBox="0 0 20 20" version="1.1" xmlns="http://www.w3.org/2000/svg" xmlns:xlink="http://www.w3.org/1999/xlink">
    <title>Group</title>
    <defs>
        <filter id="filter-1">
            <feColorMatrix in="SourceGraphic" type="matrix" values="0 0 0 0 0.250980 0 0 0 0 0.545098 0 0 0 0 0.988235 0 0 0 1.000000 0"></feColorMatrix>
        </filter>
    </defs>
    <g id="Structure" stroke="none" stroke-width="1" fill="none" fill-rule="evenodd">
        <g id="Group">
            <g filter="url(#filter-1)" id="checkmark--filled">
                <g>
                    <path d="M10,1.25 C5.16750844,1.25 1.25,5.16750844 1.25,10 C1.25,14.8324916 5.16750844,18.75 10,18.75 C14.8324916,18.75 18.75,14.8324916 18.75,10 C18.75,7.67935571 17.8281276,5.45375898 16.1871843,3.81281566 C14.546241,2.17187235 12.3206443,1.25 10,1.25 Z M8.75,13.49425 L5.625,10.36925 L6.619125,9.375 L8.75,11.50575 L13.38125,6.875 L14.3785625,7.8661875 L8.75,13.49425 Z" id="Shape" fill="#000000" fill-rule="nonzero"></path>
                    <rect id="_Transparent_Rectangle_" x="0" y="0" width="20" height="20"></rect>
                </g>
            </g>
            <polygon id="inner-path" fill="#000000" points="8.75 13.494375 5.625 10.369375 6.619375 9.375 8.75 11.505625 13.38125 6.875 14.378125 7.865625"></polygon>
        </g>
    </g>
</svg>