<svg width="20" height="20" viewBox="0 0 20 20" fill="none" xmlns="http://www.w3.org/2000/svg">
<path d="M10 1.25C7.97537 1.24982 6.01331 1.95167 4.44815 3.23596C2.88299 4.52026 1.81158 6.30752 1.41647 8.29323C1.02136 10.2789 1.327 12.3402 2.28132 14.1258C3.23563 15.9114 4.77957 17.3109 6.65006 18.0857C8.52055 18.8606 10.6018 18.9629 12.5393 18.3752C14.4768 17.7876 16.1505 16.5463 17.2754 14.8629C18.4002 13.1795 18.9065 11.1581 18.7081 9.14322C18.5096 7.12834 17.6187 5.2446 16.187 3.813C14.5461 2.17213 12.3206 1.25021 10 1.25ZM8.75 13.494L5.625 10.369L6.619 9.375L8.75 11.506L13.381 6.875L14.381 7.866L8.75 13.494Z" fill="#42BE65"/>
<path fill-rule="evenodd" clip-rule="evenodd" d="M8.75 13.494L5.625 10.369L6.619 9.375L8.75 11.506L13.381 6.875L14.378 7.866L8.75 13.494Z" fill="#161616"/>
</svg>
