<?xml version="1.0" encoding="UTF-8"?>
<svg width="20px" height="20px" viewBox="0 0 20 20" version="1.1" xmlns="http://www.w3.org/2000/svg"
    xmlns:xlink="http://www.w3.org/1999/xlink">
    <title>Group</title>

    <g id="Structure" stroke="none" stroke-width="1" fill="none" fill-rule="evenodd">
        <g id="Group">

            <path
                d="M10,1.25 C5.16750844,1.25 1.25,5.16750844 1.25,10 C1.25,14.8324916 5.16750844,18.75 10,18.75 C14.8324916,18.75 18.75,14.8324916 18.75,10 C18.75,7.67935571 17.8281276,5.45375898 16.1871843,3.81281566 C14.546241,2.17187235 12.3206443,1.25 10,1.25 Z M5,11.25 C4.30964406,11.25 3.75,10.6903559 3.75,10 C3.75,9.30964406 4.30964406,8.75 5,8.75 C5.69035594,8.75 6.25,9.30964406 6.25,10 C6.25,10.6903559 5.69035594,11.25 5,11.25 Z M10,11.25 C9.30964406,11.25 8.75,10.6903559 8.75,10 C8.75,9.30964406 9.30964406,8.75 10,8.75 C10.6903559,8.75 11.25,9.30964406 11.25,10 C11.25,10.6903559 10.6903559,11.25 10,11.25 Z M15,11.25 C14.3096441,11.25 13.75,10.6903559 13.75,10 C13.75,9.30964406 14.3096441,8.75 15,8.75 C15.6903559,8.75 16.25,9.30964406 16.25,10 C16.25,10.6903559 15.6903559,11.25 15,11.25 Z"
                id="Shape" fill="#c6c6c6" fill-rule="nonzero"></path>
            <rect id="_Transparent_Rectangle_" x="0" y="0" width="20" height="20"></rect>

            <circle id="_inner-path_" fill="#000000" cx="5" cy="10" r="1.25"></circle>
            <circle id="_inner-path_2" fill="#000000" cx="10" cy="10" r="1.25"></circle>
            <circle id="_inner-path_3" fill="#000000" cx="15" cy="10" r="1.25"></circle>
        </g>
    </g>
</svg>