<?xml version="1.0" encoding="utf-8"?>
<!-- Generator: Adobe Illustrator 25.3.1, SVG Export Plug-In . SVG Version: 6.00 Build 0)  -->
<svg version="1.1" id="icon" xmlns="http://www.w3.org/2000/svg" xmlns:xlink="http://www.w3.org/1999/xlink" x="0px" y="0px"
	 viewBox="0 0 32 32" style="enable-background:new 0 0 32 32;" xml:space="preserve">
<style type="text/css">
	.st0{fill:#8D8D8D;}
	.st1{fill:none;}
</style>
<path class="st0" d="M29.4,14.6l-12-12c-0.8-0.8-2-0.8-2.8,0l-12,12c-0.8,0.8-0.8,2,0,2.8l12,12c0.8,0.8,2,0.8,2.8,0l12-12
	C30.2,16.6,30.2,15.4,29.4,14.6z M16,24c-0.8,0-1.5-0.7-1.5-1.5S15.2,21,16,21c0.8,0,1.5,0.7,1.5,1.5S16.8,24,16,24z M17.1,17.2v1.9
	h-2.2V15H17c1,0,1.9-0.8,1.9-1.9S18,11.2,17,11.2h-2c-1,0-1.9,0.8-1.9,1.9v0.5h-2.2v-0.5c0-2.3,1.8-4.1,4.1-4.1h2
	c2.3,0,4.1,1.8,4.1,4.1C21.1,15.4,19.4,17.2,17.1,17.2z"/>
<path id="inner-path" d="M16,21c0.8,0,1.5,0.7,1.5,1.5S16.8,24,16,24c-0.8,0-1.5-0.7-1.5-1.5S15.2,21,16,21z M17.1,17.2
	c2.3-0.1,4.1-2,4-4.2c-0.1-2.2-1.9-4-4.1-4h-2c-2.3,0-4.1,1.8-4.1,4.1v0.5h2.2v-0.5c0-1,0.8-1.9,1.9-1.9h2c1,0,1.9,0.8,1.9,1.9
	S18,15,17,15h-2.1v4.1h2.2V17.2z"/>
<rect id="_Transparent_Rectangle_" class="st1" width="32" height="32"/>
</svg>
