<?xml version="1.0" encoding="UTF-8"?>
<svg width="24px" height="24px" viewBox="0 0 24 24" version="1.1" xmlns="http://www.w3.org/2000/svg" xmlns:xlink="http://www.w3.org/1999/xlink">
    <title>design-axure</title>
    <g id="design-axure" stroke="none" stroke-width="1" fill="none" fill-rule="evenodd">
        <circle id="Oval" fill="#697077" cx="12" cy="12" r="12"></circle>
        <g id="axure" transform="translate(6.000000, 5.000000)" fill="#FFFFFF" fill-rule="nonzero">
            <path d="M11.2925588,0.362422244 L11.2925588,0.362422244 C11.1859208,0.135527646 10.9574108,-1.64757097e-13 10.6811677,-1.64757097e-13 L9.61428012,-1.64757097e-13 C9.30452217,-1.64757097e-13 9.07296542,0.124868168 8.95109342,0.350239984 L7.36980457,2.66486944 L8.75406707,4.5612413 L11.1706868,1.08828192 C11.4362662,0.764944429 11.3443544,0.473077774 11.2925588,0.362422244" id="Fill-11"></path>
            <path d="M2.95676954,0.323997365 L2.95524614,0.321966988 C2.71404119,0.000152278 2.39361945,0.000152278 2.28799707,0.000152278 L1.24446828,0.000152278 C0.977365534,0.000152278 0.758503779,0.122990069 0.643741004,0.337194813 C0.526439224,0.556475499 0.551321419,0.820424474 0.713817389,1.06457727 L4.57969802,6.4339085 L0.134417704,12.6453385 C-0.0209690652,12.8788318 -0.0428044608,13.13872 0.0750051155,13.3580007 C0.189767893,13.5722054 0.408629649,13.6950432 0.675732394,13.6950432 L1.74261998,13.6950432 C2.01683193,13.6950432 2.25803688,13.5524093 2.37838545,13.327545 L7.35380887,6.45827305 L2.95676954,0.323997365 Z" id="Fill-13"></path>
            <path d="M11.8344875,12.831309 L9.14152252,9.13125535 L7.95665322,10.766132 L10.0865076,13.6117512 L10.142069,13.6359748 C10.2337895,13.6756135 10.3215412,13.6949925 10.4106159,13.6949925 L11.3163552,13.6949925 C11.5350732,13.6949925 11.7211598,13.597217 11.8261092,13.4276514 C11.9341453,13.253241 11.9367911,13.036109 11.8344875,12.831309" id="Fill-15"></path>
        </g>
    </g>
</svg>