<?xml version="1.0" encoding="UTF-8"?>
<svg width="288px" height="288px" viewBox="0 0 288 288" version="1.1" xmlns="http://www.w3.org/2000/svg" xmlns:xlink="http://www.w3.org/1999/xlink">
    <!-- Generator: Sketch 52.6 (67491) - http://www.bohemiancoding.com/sketch -->
    <title>Artboard Copy 87</title>
    <desc>Created with Sketch.</desc>
    <g id="Artboard-Copy-87" stroke="none" stroke-width="1" fill="none" fill-rule="evenodd">
        <g id="Artboard-18-copy-42">
            <rect id="Rectangle" fill="#171717" x="0" y="0" width="288" height="288"></rect>
            <polygon id="Path" fill="#F3F3F3" points="83.15 154.74 83.15 152.63 86.09 152.63 86.09 135.86 83.15 135.86 83.15 133.76 91.56 133.76 91.56 135.86 88.62 135.86 88.62 152.63 91.56 152.63 91.56 154.74"></polygon>
            <path d="M96.17,133.76 L104.79,133.76 C108.25,133.76 110.38,135.89 110.38,139.17 C110.38,142.45 108.38,143.41 106.99,143.62 L106.99,143.8 C109.453895,144.04291 111.278712,146.199915 111.11,148.67 C111.11,152.12 108.79,154.74 105.69,154.74 L96.17,154.74 L96.17,133.76 Z M98.69,142.84 L104.49,142.84 C106.49,142.84 107.68,141.78 107.68,139.92 L107.68,138.92 C107.68,137.05 106.48,136 104.49,136 L98.69,136 L98.69,142.84 Z M98.69,152.51 L104.91,152.51 C107.08,152.51 108.4,151.37 108.4,149.27 L108.4,148.27 C108.4,146.16 107.08,145.02 104.91,145.02 L98.69,145.02 L98.69,152.51 Z" id="Shape" fill="#F3F3F3" fill-rule="nonzero"></path>
            <polygon id="Path" fill="#F3F3F3" points="115.8 133.76 119.17 133.76 125.17 145.06 125.32 145.06 131.32 133.76 134.57 133.76 134.57 154.76 132.1 154.76 132.1 137.06 132 137.06 130.23 140.58 125.23 149.72 120.23 140.58 118.45 137.06 118.3 137.06 118.3 154.74 115.8 154.74"></polygon>
            <polygon id="Path" fill="#F3F3F3" points="151.73 143.89 145.33 133.76 150.65 133.76 154.73 140.85 154.82 140.85 158.97 133.76 163.9 133.76 157.44 144 164.26 154.76 159 154.76 154.43 147 154.34 147 149.92 154.73 145 154.73"></polygon>
            <polygon id="Path" fill="#F3F3F3" points="166.34 147.74 166.34 143.41 175.27 143.41 175.27 147.74"></polygon>
            <polygon id="Path" fill="#F3F3F3" points="179.18 154.74 179.18 133.74 193.1 133.74 193.1 137.8 183.75 137.8 183.75 142.09 191.75 142.09 191.75 146.09 183.75 146.09 183.75 154.69"></polygon>
            <path d="M195.54,146.83 C195.54,141.75 198.3,138.6 202.93,138.6 C207.56,138.6 210.33,141.75 210.33,146.83 C210.33,151.91 207.56,155.1 202.93,155.1 C198.3,155.1 195.54,151.91 195.54,146.83 Z M205.7,148.46 L205.7,145.24 C205.7,143.24 204.7,142.11 202.93,142.11 C201.16,142.11 200.17,143.26 200.17,145.24 L200.17,148.46 C200.17,150.46 201.17,151.58 202.93,151.58 C204.69,151.58 205.7,150.44 205.7,148.46 Z" id="Shape" fill="#F3F3F3" fill-rule="nonzero"></path>
            <path d="M213.49,154.74 L213.49,139 L217.93,139 L217.93,142.42 L218.08,142.42 C218.370069,140.43989 220.078868,138.978867 222.08,139 L222.86,139 L222.86,143.15 L221.75,143.15 C219.17,143.15 217.9,143.72 217.9,145.55 L217.9,154.78 L213.49,154.74 Z" id="Path" fill="#F3F3F3"></path>
            <path d="M224.64,146.83 C224.64,141.78 227.26,138.6 232,138.6 C235.19,138.6 237.39,140.13 238.32,142.72 L234.71,144.28 C234.484304,142.97608 233.321719,142.045154 232,142.11 C230.2,142.11 229.27,143.41 229.27,145.39 L229.27,148.39 C229.27,150.39 230.2,151.66 232,151.66 C233.8,151.66 234.5,150.55 234.95,149.29 L238.41,150.79 C237.41,153.79 235.1,155.15 232,155.15 C227.26,155.1 224.64,151.88 224.64,146.83 Z" id="Path" fill="#F3F3F3"></path>
            <path d="M240.18,146.83 C240.18,141.83 242.83,138.6 247.58,138.6 C252.81,138.6 254.91,142.38 254.91,146.65 L254.91,148 L244.78,148 L244.78,148.24 C244.78,150.31 245.9,151.63 248.27,151.63 C249.782643,151.619355 251.20915,150.924485 252.15,149.74 L254.37,152.5 C252.65456,154.296061 250.240092,155.253081 247.76,155.12 C242.92,155.1 240.18,151.88 240.18,146.83 Z M244.78,145.12 L244.78,145.36 L250.31,145.36 L250.31,145.09 C250.31,143.17 249.44,141.87 247.67,141.87 C245.9,141.87 244.78,143.17 244.78,145.12 Z" id="Shape" fill="#F3F3F3" fill-rule="nonzero"></path>
        </g>
        <g id="Group-4" transform="translate(31.000000, 127.000000)">
            <polygon id="Fill-1" points="0 34 34 34 34 0 0 0"></polygon>
            <path d="M30.9525375,21.9306375 L17.3822875,21.9306375 L17.3822875,17.3831375 L31.4922875,17.3831375 L31.4922875,18.062075 C31.4922875,19.40295 31.2946625,20.697075 30.9525375,21.9306375 Z M17.3822875,32.5343875 L17.3822875,28.0092 L27.5121625,28.0092 C24.9515375,30.714325 21.367725,32.431325 17.3822875,32.5343875 Z M2.5072875,18.062075 L2.5072875,1.4456375 L16.6172875,1.4456375 L16.6172875,32.5343875 C8.8036625,32.329325 2.5072875,25.9256375 2.5072875,18.062075 Z M17.3822875,11.304575 L31.4922875,11.304575 L31.4922875,6.7581375 L17.3822875,6.7581375 L17.3822875,11.304575 Z M17.3822875,16.617075 L31.4922875,16.617075 L31.4922875,12.0706375 L17.3822875,12.0706375 L17.3822875,16.617075 Z M17.3822875,22.6967 L30.7187875,22.6967 C30.1535375,24.36695 29.30035,25.9065125 28.20385,27.2431375 L17.3822875,27.2431375 L17.3822875,22.6967 Z M17.3822875,5.992075 L31.4922875,5.992075 L31.4922875,1.4456375 L17.3822875,1.4456375 L17.3822875,5.992075 Z M31.8747875,0.679575 L2.1247875,0.679575 C1.91335,0.679575 1.7422875,0.8506375 1.7422875,1.062075 L1.7422875,18.062075 C1.7422875,26.47495 8.5869125,33.3206375 16.9997875,33.3206375 C25.4126625,33.3206375 32.2572875,26.47495 32.2572875,18.062075 L32.2572875,1.062075 C32.2572875,0.8506375 32.086225,0.679575 31.8747875,0.679575 Z" id="Fill-2" fill="#F3F3F3"></path>
        </g>
    </g>
</svg>