<?xml version="1.0" encoding="UTF-8"?>
<svg width="928px" height="522px" viewBox="0 0 928 522" version="1.1" xmlns="http://www.w3.org/2000/svg" xmlns:xlink="http://www.w3.org/1999/xlink">
    <!-- Generator: Sketch 52.5 (67469) - http://www.bohemiancoding.com/sketch -->
    <title>Artboard Copy 13</title>
    <desc>Created with Sketch.</desc>
    <g id="Artboard-Copy-13" stroke="none" stroke-width="1" fill="none" fill-rule="evenodd">
        <rect id="Rectangle-3-Copy-45" fill="#FFFFFF" x="0" y="0" width="928" height="522"></rect>
        <path d="M588.275,331.168 C587.714997,331.168 587.225002,331.095667 586.805,330.951 C586.384998,330.806333 586.032668,330.608001 585.748,330.356 C585.463332,330.103999 585.248667,329.805335 585.104,329.46 C584.959333,329.114665 584.887,328.741335 584.887,328.34 C584.887,327.667997 585.068998,327.136002 585.433,326.744 C585.797002,326.351998 586.272997,326.076667 586.861,325.918 L586.861,325.806 C586.347664,325.628666 585.939335,325.341669 585.636,324.945 C585.332665,324.548331 585.181,324.070003 585.181,323.51 C585.181,322.76333 585.451664,322.168336 585.993,321.725 C586.534336,321.281664 587.294995,321.06 588.275,321.06 C589.255005,321.06 590.015664,321.281664 590.557,321.725 C591.098336,322.168336 591.369,322.76333 591.369,323.51 C591.369,324.070003 591.217335,324.548331 590.914,324.945 C590.610665,325.341669 590.202336,325.628666 589.689,325.806 L589.689,325.918 C590.277003,326.076667 590.752998,326.351998 591.117,326.744 C591.481002,327.136002 591.663,327.667997 591.663,328.34 C591.663,328.741335 591.590667,329.114665 591.446,329.46 C591.301333,329.805335 591.086668,330.103999 590.802,330.356 C590.517332,330.608001 590.165002,330.806333 589.745,330.951 C589.324998,331.095667 588.835003,331.168 588.275,331.168 Z M588.275,330.146 C588.956337,330.146 589.483665,329.994335 589.857,329.691 C590.230335,329.387665 590.417,328.956003 590.417,328.396 L590.417,328.102 C590.417,327.541997 590.230335,327.110335 589.857,326.807 C589.483665,326.503665 588.956337,326.352 588.275,326.352 C587.593663,326.352 587.066335,326.503665 586.693,326.807 C586.319665,327.110335 586.133,327.541997 586.133,328.102 L586.133,328.396 C586.133,328.956003 586.319665,329.387665 586.693,329.691 C587.066335,329.994335 587.593663,330.146 588.275,330.146 Z M588.275,325.372 C588.891003,325.372 589.357665,325.241335 589.675,324.98 C589.992335,324.718665 590.151,324.336003 590.151,323.832 L590.151,323.622 C590.151,323.117997 589.992335,322.735335 589.675,322.474 C589.357665,322.212665 588.891003,322.082 588.275,322.082 C587.658997,322.082 587.192335,322.212665 586.875,322.474 C586.557665,322.735335 586.399,323.117997 586.399,323.622 L586.399,323.832 C586.399,324.336003 586.557665,324.718665 586.875,324.98 C587.192335,325.241335 587.658997,325.372 588.275,325.372 Z M596.675,331.168 C595.508327,331.168 594.656669,330.724671 594.12,329.838 C593.583331,328.951329 593.315,327.710008 593.315,326.114 C593.315,324.517992 593.583331,323.276671 594.12,322.39 C594.656669,321.503329 595.508327,321.06 596.675,321.06 C597.841672,321.06 598.693331,321.503329 599.23,322.39 C599.766669,323.276671 600.035,324.517992 600.035,326.114 C600.035,327.710008 599.766669,328.951329 599.23,329.838 C598.693331,330.724671 597.841672,331.168 596.675,331.168 Z M596.675,330.146 C597.057669,330.146 597.384332,330.066667 597.655,329.908 C597.925668,329.749333 598.144999,329.525335 598.313,329.236 C598.481001,328.946665 598.604666,328.606002 598.684,328.214 C598.763334,327.821998 598.803,327.388002 598.803,326.912 L598.803,325.316 C598.803,324.839998 598.763334,324.406002 598.684,324.014 C598.604666,323.621998 598.481001,323.281335 598.313,322.992 C598.144999,322.702665 597.925668,322.478667 597.655,322.32 C597.384332,322.161333 597.057669,322.082 596.675,322.082 C596.292331,322.082 595.965668,322.161333 595.695,322.32 C595.424332,322.478667 595.205001,322.702665 595.037,322.992 C594.868999,323.281335 594.745334,323.621998 594.666,324.014 C594.586666,324.406002 594.547,324.839998 594.547,325.316 L594.547,326.912 C594.547,327.388002 594.586666,327.821998 594.666,328.214 C594.745334,328.606002 594.868999,328.946665 595.037,329.236 C595.205001,329.525335 595.424332,329.749333 595.695,329.908 C595.965668,330.066667 596.292331,330.146 596.675,330.146 Z M602.065,323.776 L603.185,323.776 L603.185,324.952 L603.241,324.952 C603.427668,324.494664 603.700665,324.156334 604.06,323.937 C604.419335,323.717666 604.850997,323.608 605.355,323.608 C605.803002,323.608 606.208998,323.696666 606.573,323.874 C606.937002,324.051334 607.247332,324.303332 607.504,324.63 C607.760668,324.956668 607.956666,325.353331 608.092,325.82 C608.227334,326.286669 608.295,326.80933 608.295,327.388 C608.295,327.96667 608.227334,328.489331 608.092,328.956 C607.956666,329.422669 607.760668,329.819332 607.504,330.146 C607.247332,330.472668 606.937002,330.724666 606.573,330.902 C606.208998,331.079334 605.803002,331.168 605.355,331.168 C604.374995,331.168 603.670335,330.720004 603.241,329.824 L603.185,329.824 L603.185,333.8 L602.065,333.8 L602.065,323.776 Z M605.047,330.16 C605.68167,330.16 606.180998,329.961669 606.545,329.565 C606.909002,329.168331 607.091,328.648003 607.091,328.004 L607.091,326.772 C607.091,326.127997 606.909002,325.607669 606.545,325.211 C606.180998,324.814331 605.68167,324.616 605.047,324.616 C604.794999,324.616 604.554668,324.651 604.326,324.721 C604.097332,324.791 603.899001,324.886666 603.731,325.008 C603.562999,325.129334 603.43,325.276332 603.332,325.449 C603.234,325.621668 603.185,325.805999 603.185,326.002 L603.185,328.69 C603.185,328.923335 603.234,329.130999 603.332,329.313 C603.43,329.495001 603.562999,329.648999 603.731,329.775 C603.899001,329.901001 604.097332,329.996666 604.326,330.062 C604.554668,330.127334 604.794999,330.16 605.047,330.16 Z M609.121,331 L611.795,327.36 L609.233,323.776 L610.549,323.776 L612.383,326.464 L612.425,326.464 L614.329,323.776 L615.575,323.776 L613.027,327.276 L615.631,331 L614.357,331 L612.439,328.102 L612.397,328.102 L610.325,331 L609.121,331 Z" id="80px-copy" fill="#6F6F6F"></path>
        <path d="M791.537,324.812 C791.537,325.540004 791.429668,326.223663 791.215,326.863 C791.000332,327.502337 790.722668,328.085664 790.382,328.613 C790.041332,329.140336 789.665669,329.606998 789.255,330.013 C788.844331,330.419002 788.443002,330.747999 788.051,331 L786.539,331 C787.061669,330.617331 787.528331,330.244002 787.939,329.88 C788.349669,329.515998 788.708998,329.135669 789.017,328.739 C789.325002,328.342331 789.586332,327.917669 789.801,327.465 C790.015668,327.012331 790.188333,326.501336 790.319,325.932 L790.249,325.904 C790.015665,326.305335 789.714669,326.638999 789.346,326.905 C788.977331,327.171001 788.494336,327.304 787.897,327.304 C787.476998,327.304 787.089668,327.234001 786.735,327.094 C786.380332,326.953999 786.077001,326.753335 785.825,326.492 C785.572999,326.230665 785.374667,325.915669 785.23,325.547 C785.085333,325.178331 785.013,324.760669 785.013,324.294 C785.013,323.817998 785.089999,323.381669 785.244,322.985 C785.398001,322.588331 785.617332,322.247668 785.902,321.963 C786.186668,321.678332 786.527331,321.456667 786.924,321.298 C787.320669,321.139333 787.766331,321.06 788.261,321.06 C788.765003,321.06 789.219998,321.146332 789.626,321.319 C790.032002,321.491668 790.377332,321.738998 790.662,322.061 C790.946668,322.383002 791.163666,322.777331 791.313,323.244 C791.462334,323.710669 791.537,324.23333 791.537,324.812 Z M788.275,326.31 C788.919003,326.31 789.420665,326.132668 789.78,325.778 C790.139335,325.423332 790.319,324.91467 790.319,324.252 L790.319,324.14 C790.319,323.47733 790.139335,322.968668 789.78,322.614 C789.420665,322.259332 788.919003,322.082 788.275,322.082 C787.630997,322.082 787.129335,322.259332 786.77,322.614 C786.410665,322.968668 786.231,323.47733 786.231,324.14 L786.231,324.252 C786.231,324.91467 786.410665,325.423332 786.77,325.778 C787.129335,326.132668 787.630997,326.31 788.275,326.31 Z M796.689,331.168 C796.184997,331.168 795.730002,331.081668 795.324,330.909 C794.917998,330.736332 794.572668,330.489002 794.288,330.167 C794.003332,329.844998 793.786334,329.450669 793.637,328.984 C793.487666,328.517331 793.413,327.99467 793.413,327.416 C793.413,326.687996 793.520332,326.004337 793.735,325.365 C793.949668,324.725663 794.227332,324.142336 794.568,323.615 C794.908668,323.087664 795.284331,322.621002 795.695,322.215 C796.105669,321.808998 796.506998,321.480001 796.899,321.228 L798.411,321.228 C797.888331,321.610669 797.421669,321.983998 797.011,322.348 C796.600331,322.712002 796.241002,323.092331 795.933,323.489 C795.624998,323.885669 795.363668,324.310331 795.149,324.763 C794.934332,325.215669 794.761667,325.726664 794.631,326.296 L794.701,326.324 C794.934334,325.922665 795.235331,325.589001 795.604,325.323 C795.972669,325.056999 796.455664,324.924 797.053,324.924 C797.473002,324.924 797.860332,324.993999 798.215,325.134 C798.569668,325.274001 798.872999,325.474665 799.125,325.736 C799.377001,325.997335 799.575333,326.314665 799.72,326.688 C799.864667,327.061335 799.937,327.476664 799.937,327.934 C799.937,328.410002 799.860001,328.846331 799.706,329.243 C799.551999,329.639669 799.332668,329.980332 799.048,330.265 C798.763332,330.549668 798.420335,330.771333 798.019,330.93 C797.617665,331.088667 797.174336,331.168 796.689,331.168 Z M796.675,330.146 C797.319003,330.146 797.820665,329.968668 798.18,329.614 C798.539335,329.259332 798.719,328.75067 798.719,328.088 L798.719,327.976 C798.719,327.31333 798.539335,326.804668 798.18,326.45 C797.820665,326.095332 797.319003,325.918 796.675,325.918 C796.030997,325.918 795.529335,326.095332 795.17,326.45 C794.810665,326.804668 794.631,327.31333 794.631,327.976 L794.631,328.088 C794.631,328.75067 794.810665,329.259332 795.17,329.614 C795.529335,329.968668 796.030997,330.146 796.675,330.146 Z M802.065,323.776 L803.185,323.776 L803.185,324.952 L803.241,324.952 C803.427668,324.494664 803.700665,324.156334 804.06,323.937 C804.419335,323.717666 804.850997,323.608 805.355,323.608 C805.803002,323.608 806.208998,323.696666 806.573,323.874 C806.937002,324.051334 807.247332,324.303332 807.504,324.63 C807.760668,324.956668 807.956666,325.353331 808.092,325.82 C808.227334,326.286669 808.295,326.80933 808.295,327.388 C808.295,327.96667 808.227334,328.489331 808.092,328.956 C807.956666,329.422669 807.760668,329.819332 807.504,330.146 C807.247332,330.472668 806.937002,330.724666 806.573,330.902 C806.208998,331.079334 805.803002,331.168 805.355,331.168 C804.374995,331.168 803.670335,330.720004 803.241,329.824 L803.185,329.824 L803.185,333.8 L802.065,333.8 L802.065,323.776 Z M805.047,330.16 C805.68167,330.16 806.180998,329.961669 806.545,329.565 C806.909002,329.168331 807.091,328.648003 807.091,328.004 L807.091,326.772 C807.091,326.127997 806.909002,325.607669 806.545,325.211 C806.180998,324.814331 805.68167,324.616 805.047,324.616 C804.794999,324.616 804.554668,324.651 804.326,324.721 C804.097332,324.791 803.899001,324.886666 803.731,325.008 C803.562999,325.129334 803.43,325.276332 803.332,325.449 C803.234,325.621668 803.185,325.805999 803.185,326.002 L803.185,328.69 C803.185,328.923335 803.234,329.130999 803.332,329.313 C803.43,329.495001 803.562999,329.648999 803.731,329.775 C803.899001,329.901001 804.097332,329.996666 804.326,330.062 C804.554668,330.127334 804.794999,330.16 805.047,330.16 Z M809.121,331 L811.795,327.36 L809.233,323.776 L810.549,323.776 L812.383,326.464 L812.425,326.464 L814.329,323.776 L815.575,323.776 L813.027,327.276 L815.631,331 L814.357,331 L812.439,328.102 L812.397,328.102 L810.325,331 L809.121,331 Z" id="96px-copy" fill="#6F6F6F"></path>
        <path d="M404.289,331.168 C403.784997,331.168 403.330002,331.081668 402.924,330.909 C402.517998,330.736332 402.172668,330.489002 401.888,330.167 C401.603332,329.844998 401.386334,329.450669 401.237,328.984 C401.087666,328.517331 401.013,327.99467 401.013,327.416 C401.013,326.687996 401.120332,326.004337 401.335,325.365 C401.549668,324.725663 401.827332,324.142336 402.168,323.615 C402.508668,323.087664 402.884331,322.621002 403.295,322.215 C403.705669,321.808998 404.106998,321.480001 404.499,321.228 L406.011,321.228 C405.488331,321.610669 405.021669,321.983998 404.611,322.348 C404.200331,322.712002 403.841002,323.092331 403.533,323.489 C403.224998,323.885669 402.963668,324.310331 402.749,324.763 C402.534332,325.215669 402.361667,325.726664 402.231,326.296 L402.301,326.324 C402.534334,325.922665 402.835331,325.589001 403.204,325.323 C403.572669,325.056999 404.055664,324.924 404.653,324.924 C405.073002,324.924 405.460332,324.993999 405.815,325.134 C406.169668,325.274001 406.472999,325.474665 406.725,325.736 C406.977001,325.997335 407.175333,326.314665 407.32,326.688 C407.464667,327.061335 407.537,327.476664 407.537,327.934 C407.537,328.410002 407.460001,328.846331 407.306,329.243 C407.151999,329.639669 406.932668,329.980332 406.648,330.265 C406.363332,330.549668 406.020335,330.771333 405.619,330.93 C405.217665,331.088667 404.774336,331.168 404.289,331.168 Z M404.275,330.146 C404.919003,330.146 405.420665,329.968668 405.78,329.614 C406.139335,329.259332 406.319,328.75067 406.319,328.088 L406.319,327.976 C406.319,327.31333 406.139335,326.804668 405.78,326.45 C405.420665,326.095332 404.919003,325.918 404.275,325.918 C403.630997,325.918 403.129335,326.095332 402.77,326.45 C402.410665,326.804668 402.231,327.31333 402.231,327.976 L402.231,328.088 C402.231,328.75067 402.410665,329.259332 402.77,329.614 C403.129335,329.968668 403.630997,330.146 404.275,330.146 Z M413.725,331 L413.725,329.082 L409.007,329.082 L409.007,328.046 L413.095,321.228 L414.845,321.228 L414.845,328.102 L416.259,328.102 L416.259,329.082 L414.845,329.082 L414.845,331 L413.725,331 Z M410.113,328.102 L413.725,328.102 L413.725,322.138 L413.655,322.138 L410.113,328.102 Z M418.065,323.776 L419.185,323.776 L419.185,324.952 L419.241,324.952 C419.427668,324.494664 419.700665,324.156334 420.06,323.937 C420.419335,323.717666 420.850997,323.608 421.355,323.608 C421.803002,323.608 422.208998,323.696666 422.573,323.874 C422.937002,324.051334 423.247332,324.303332 423.504,324.63 C423.760668,324.956668 423.956666,325.353331 424.092,325.82 C424.227334,326.286669 424.295,326.80933 424.295,327.388 C424.295,327.96667 424.227334,328.489331 424.092,328.956 C423.956666,329.422669 423.760668,329.819332 423.504,330.146 C423.247332,330.472668 422.937002,330.724666 422.573,330.902 C422.208998,331.079334 421.803002,331.168 421.355,331.168 C420.374995,331.168 419.670335,330.720004 419.241,329.824 L419.185,329.824 L419.185,333.8 L418.065,333.8 L418.065,323.776 Z M421.047,330.16 C421.68167,330.16 422.180998,329.961669 422.545,329.565 C422.909002,329.168331 423.091,328.648003 423.091,328.004 L423.091,326.772 C423.091,326.127997 422.909002,325.607669 422.545,325.211 C422.180998,324.814331 421.68167,324.616 421.047,324.616 C420.794999,324.616 420.554668,324.651 420.326,324.721 C420.097332,324.791 419.899001,324.886666 419.731,325.008 C419.562999,325.129334 419.43,325.276332 419.332,325.449 C419.234,325.621668 419.185,325.805999 419.185,326.002 L419.185,328.69 C419.185,328.923335 419.234,329.130999 419.332,329.313 C419.43,329.495001 419.562999,329.648999 419.731,329.775 C419.899001,329.901001 420.097332,329.996666 420.326,330.062 C420.554668,330.127334 420.794999,330.16 421.047,330.16 Z M425.121,331 L427.795,327.36 L425.233,323.776 L426.549,323.776 L428.383,326.464 L428.425,326.464 L430.329,323.776 L431.575,323.776 L429.027,327.276 L431.631,331 L430.357,331 L428.439,328.102 L428.397,328.102 L426.325,331 L425.121,331 Z" id="64px-copy" fill="#6F6F6F"></path>
        <path d="M237.325,331 L237.325,329.082 L232.607,329.082 L232.607,328.046 L236.695,321.228 L238.445,321.228 L238.445,328.102 L239.859,328.102 L239.859,329.082 L238.445,329.082 L238.445,331 L237.325,331 Z M233.713,328.102 L237.325,328.102 L237.325,322.138 L237.255,322.138 L233.713,328.102 Z M244.675,331.168 C244.114997,331.168 243.625002,331.095667 243.205,330.951 C242.784998,330.806333 242.432668,330.608001 242.148,330.356 C241.863332,330.103999 241.648667,329.805335 241.504,329.46 C241.359333,329.114665 241.287,328.741335 241.287,328.34 C241.287,327.667997 241.468998,327.136002 241.833,326.744 C242.197002,326.351998 242.672997,326.076667 243.261,325.918 L243.261,325.806 C242.747664,325.628666 242.339335,325.341669 242.036,324.945 C241.732665,324.548331 241.581,324.070003 241.581,323.51 C241.581,322.76333 241.851664,322.168336 242.393,321.725 C242.934336,321.281664 243.694995,321.06 244.675,321.06 C245.655005,321.06 246.415664,321.281664 246.957,321.725 C247.498336,322.168336 247.769,322.76333 247.769,323.51 C247.769,324.070003 247.617335,324.548331 247.314,324.945 C247.010665,325.341669 246.602336,325.628666 246.089,325.806 L246.089,325.918 C246.677003,326.076667 247.152998,326.351998 247.517,326.744 C247.881002,327.136002 248.063,327.667997 248.063,328.34 C248.063,328.741335 247.990667,329.114665 247.846,329.46 C247.701333,329.805335 247.486668,330.103999 247.202,330.356 C246.917332,330.608001 246.565002,330.806333 246.145,330.951 C245.724998,331.095667 245.235003,331.168 244.675,331.168 Z M244.675,330.146 C245.356337,330.146 245.883665,329.994335 246.257,329.691 C246.630335,329.387665 246.817,328.956003 246.817,328.396 L246.817,328.102 C246.817,327.541997 246.630335,327.110335 246.257,326.807 C245.883665,326.503665 245.356337,326.352 244.675,326.352 C243.993663,326.352 243.466335,326.503665 243.093,326.807 C242.719665,327.110335 242.533,327.541997 242.533,328.102 L242.533,328.396 C242.533,328.956003 242.719665,329.387665 243.093,329.691 C243.466335,329.994335 243.993663,330.146 244.675,330.146 Z M244.675,325.372 C245.291003,325.372 245.757665,325.241335 246.075,324.98 C246.392335,324.718665 246.551,324.336003 246.551,323.832 L246.551,323.622 C246.551,323.117997 246.392335,322.735335 246.075,322.474 C245.757665,322.212665 245.291003,322.082 244.675,322.082 C244.058997,322.082 243.592335,322.212665 243.275,322.474 C242.957665,322.735335 242.799,323.117997 242.799,323.622 L242.799,323.832 C242.799,324.336003 242.957665,324.718665 243.275,324.98 C243.592335,325.241335 244.058997,325.372 244.675,325.372 Z M250.065,323.776 L251.185,323.776 L251.185,324.952 L251.241,324.952 C251.427668,324.494664 251.700665,324.156334 252.06,323.937 C252.419335,323.717666 252.850997,323.608 253.355,323.608 C253.803002,323.608 254.208998,323.696666 254.573,323.874 C254.937002,324.051334 255.247332,324.303332 255.504,324.63 C255.760668,324.956668 255.956666,325.353331 256.092,325.82 C256.227334,326.286669 256.295,326.80933 256.295,327.388 C256.295,327.96667 256.227334,328.489331 256.092,328.956 C255.956666,329.422669 255.760668,329.819332 255.504,330.146 C255.247332,330.472668 254.937002,330.724666 254.573,330.902 C254.208998,331.079334 253.803002,331.168 253.355,331.168 C252.374995,331.168 251.670335,330.720004 251.241,329.824 L251.185,329.824 L251.185,333.8 L250.065,333.8 L250.065,323.776 Z M253.047,330.16 C253.68167,330.16 254.180998,329.961669 254.545,329.565 C254.909002,329.168331 255.091,328.648003 255.091,328.004 L255.091,326.772 C255.091,326.127997 254.909002,325.607669 254.545,325.211 C254.180998,324.814331 253.68167,324.616 253.047,324.616 C252.794999,324.616 252.554668,324.651 252.326,324.721 C252.097332,324.791 251.899001,324.886666 251.731,325.008 C251.562999,325.129334 251.43,325.276332 251.332,325.449 C251.234,325.621668 251.185,325.805999 251.185,326.002 L251.185,328.69 C251.185,328.923335 251.234,329.130999 251.332,329.313 C251.43,329.495001 251.562999,329.648999 251.731,329.775 C251.899001,329.901001 252.097332,329.996666 252.326,330.062 C252.554668,330.127334 252.794999,330.16 253.047,330.16 Z M257.121,331 L259.795,327.36 L257.233,323.776 L258.549,323.776 L260.383,326.464 L260.425,326.464 L262.329,323.776 L263.575,323.776 L261.027,327.276 L263.631,331 L262.357,331 L260.439,328.102 L260.397,328.102 L258.325,331 L257.121,331 Z" id="48px-copy" fill="#6F6F6F"></path>
        <path d="M83.729,325.372 C84.39167,325.372 84.888665,325.220335 85.22,324.917 C85.551335,324.613665 85.717,324.224002 85.717,323.748 L85.717,323.65 C85.717,323.136664 85.5560016,322.751668 85.234,322.495 C84.9119984,322.238332 84.4896693,322.11 83.967,322.11 C83.4629975,322.11 83.0523349,322.219666 82.735,322.439 C82.4176651,322.658334 82.1563344,322.954665 81.951,323.328 L81.083,322.656 C81.2043339,322.459999 81.3513325,322.266334 81.524,322.075 C81.6966675,321.883666 81.8996655,321.713334 82.133,321.564 C82.3663345,321.414666 82.6369985,321.293334 82.945,321.2 C83.2530015,321.106666 83.602998,321.06 83.995,321.06 C84.4056687,321.06 84.7929982,321.113666 85.157,321.221 C85.5210018,321.328334 85.8359987,321.486999 86.102,321.697 C86.3680013,321.907001 86.5779992,322.165998 86.732,322.474 C86.8860008,322.782002 86.963,323.131998 86.963,323.524 C86.963,323.841335 86.9140005,324.125999 86.816,324.378 C86.7179995,324.630001 86.5850008,324.849332 86.417,325.036 C86.2489992,325.222668 86.0506678,325.381333 85.822,325.512 C85.5933322,325.642667 85.3483346,325.740666 85.087,325.806 L85.087,325.862 C85.3483346,325.918 85.6026654,326.008999 85.85,326.135 C86.0973346,326.261001 86.3166657,326.424332 86.508,326.625 C86.6993343,326.825668 86.8533327,327.068332 86.97,327.353 C87.0866673,327.637668 87.145,327.961998 87.145,328.326 C87.145,328.746002 87.0656675,329.130998 86.907,329.481 C86.7483325,329.831002 86.5243348,330.129665 86.235,330.377 C85.9456652,330.624335 85.5956687,330.817999 85.185,330.958 C84.7743313,331.098001 84.3216691,331.168 83.827,331.168 C83.4069979,331.168 83.0336683,331.121334 82.707,331.028 C82.3803317,330.934666 82.0910013,330.808667 81.839,330.65 C81.5869987,330.491333 81.3653343,330.314001 81.174,330.118 C80.9826657,329.921999 80.8123341,329.716668 80.663,329.502 L81.545,328.83 C81.6663339,329.026001 81.7993326,329.203333 81.944,329.362 C82.0886674,329.520667 82.2496658,329.655999 82.427,329.768 C82.6043342,329.880001 82.8049989,329.966333 83.029,330.027 C83.2530011,330.087667 83.5143318,330.118 83.813,330.118 C84.5036701,330.118 85.0263316,329.961668 85.381,329.649 C85.7356684,329.336332 85.913,328.89067 85.913,328.312 L85.913,328.2 C85.913,327.62133 85.7356684,327.175668 85.381,326.863 C85.0263316,326.550332 84.5036701,326.394 83.813,326.394 L82.665,326.394 L82.665,325.372 L83.729,325.372 Z M95.937,331 L89.525,331 L89.525,329.796 L92.717,326.856 C93.1743356,326.435998 93.5569985,325.990336 93.865,325.519 C94.1730015,325.047664 94.327,324.574002 94.327,324.098 L94.327,323.93 C94.327,323.388664 94.1776682,322.950002 93.879,322.614 C93.5803318,322.277998 93.1276697,322.11 92.521,322.11 C92.2223318,322.11 91.9610011,322.152 91.737,322.236 C91.5129989,322.32 91.3193342,322.436666 91.156,322.586 C90.9926658,322.735334 90.8573339,322.910332 90.75,323.111 C90.6426661,323.311668 90.5563337,323.528665 90.491,323.762 L89.441,323.356 C89.5343338,323.066665 89.6626658,322.784335 89.826,322.509 C89.9893342,322.233665 90.1946654,321.988668 90.442,321.774 C90.6893346,321.559332 90.9879983,321.386667 91.338,321.256 C91.6880017,321.125333 92.1009976,321.06 92.577,321.06 C93.0530024,321.06 93.4776648,321.129999 93.851,321.27 C94.2243352,321.410001 94.5369987,321.605999 94.789,321.858 C95.0410013,322.110001 95.234666,322.408665 95.37,322.754 C95.505334,323.099335 95.573,323.481998 95.573,323.902 C95.573,324.284669 95.5193339,324.639332 95.412,324.966 C95.3046661,325.292668 95.1576676,325.602999 94.971,325.897 C94.7843324,326.191001 94.5580013,326.477999 94.292,326.758 C94.0259987,327.038001 93.7390015,327.317999 93.431,327.598 L90.799,329.964 L95.937,329.964 L95.937,331 Z M98.065,323.776 L99.185,323.776 L99.185,324.952 L99.241,324.952 C99.4276676,324.494664 99.7006649,324.156334 100.06,323.937 C100.419335,323.717666 100.850997,323.608 101.355,323.608 C101.803002,323.608 102.208998,323.696666 102.573,323.874 C102.937002,324.051334 103.247332,324.303332 103.504,324.63 C103.760668,324.956668 103.956666,325.353331 104.092,325.82 C104.227334,326.286669 104.295,326.80933 104.295,327.388 C104.295,327.96667 104.227334,328.489331 104.092,328.956 C103.956666,329.422669 103.760668,329.819332 103.504,330.146 C103.247332,330.472668 102.937002,330.724666 102.573,330.902 C102.208998,331.079334 101.803002,331.168 101.355,331.168 C100.374995,331.168 99.6703355,330.720004 99.241,329.824 L99.185,329.824 L99.185,333.8 L98.065,333.8 L98.065,323.776 Z M101.047,330.16 C101.68167,330.16 102.180998,329.961669 102.545,329.565 C102.909002,329.168331 103.091,328.648003 103.091,328.004 L103.091,326.772 C103.091,326.127997 102.909002,325.607669 102.545,325.211 C102.180998,324.814331 101.68167,324.616 101.047,324.616 C100.794999,324.616 100.554668,324.651 100.326,324.721 C100.097332,324.791 99.8990008,324.886666 99.731,325.008 C99.5629992,325.129334 99.4300005,325.276332 99.332,325.449 C99.2339995,325.621668 99.185,325.805999 99.185,326.002 L99.185,328.69 C99.185,328.923335 99.2339995,329.130999 99.332,329.313 C99.4300005,329.495001 99.5629992,329.648999 99.731,329.775 C99.8990008,329.901001 100.097332,329.996666 100.326,330.062 C100.554668,330.127334 100.794999,330.16 101.047,330.16 Z M105.121,331 L107.795,327.36 L105.233,323.776 L106.549,323.776 L108.383,326.464 L108.425,326.464 L110.329,323.776 L111.575,323.776 L109.027,327.276 L111.631,331 L110.357,331 L108.439,328.102 L108.397,328.102 L106.325,331 L105.121,331 Z" id="32px-copy" fill="#6F6F6F"></path>
        <g id="Group-4-Copy-14" transform="translate(80.000000, 230.000000)">
            <polygon id="Fill-1" fill="#FFFFFF" points="0 32 32 32 32 0 0 0"></polygon>
            <path d="M24.36,19.132 L30.64,19.132 L30.64,12.853 L24.36,12.853 L24.36,19.132 Z M27.14,24.5 C27.14,26.507 25.507,28.14 23.5,28.14 L19.86,28.14 L19.86,24 C19.86,23.801 19.699,23.64 19.5,23.64 L16.369,23.64 L16.369,19.814 C18.198,19.634 19.643,18.184 19.816,16.353 L23.64,16.353 L23.64,19.492 C23.64,19.691 23.801,19.853 24,19.853 L27.14,19.853 L27.14,24.5 Z M12.86,30.64 L19.14,30.64 L19.14,24.361 L12.86,24.361 L12.86,30.64 Z M4.5,30.64 C2.769,30.64 1.36,29.231 1.36,27.5 C1.36,25.769 2.769,24.36 4.5,24.36 C6.231,24.36 7.64,25.769 7.64,27.5 C7.64,29.231 6.231,30.64 4.5,30.64 Z M15.993,12.853 C17.724,12.853 19.133,14.261 19.133,15.992 C19.133,17.724 17.724,19.132 15.993,19.132 C14.261,19.132 12.853,17.724 12.853,15.992 C12.853,14.261 14.261,12.853 15.993,12.853 Z M1.369,7.648 L7.649,7.648 L7.649,1.369 L1.369,1.369 L1.369,7.648 Z M14.36,1.623 L19.28,4.464 L14.36,7.305 L14.36,1.623 Z M24.36,4.5 C24.36,2.769 25.769,1.36 27.5,1.36 C29.231,1.36 30.64,2.769 30.64,4.5 C30.64,6.231 29.231,7.64 27.5,7.64 C25.769,7.64 24.36,6.231 24.36,4.5 Z M31,12.132 L27.86,12.132 L27.86,8.324 C29.817,8.139 31.36,6.505 31.36,4.5 C31.36,2.372 29.628,0.64 27.5,0.64 C25.372,0.64 23.64,2.372 23.64,4.5 C23.64,6.505 25.183,8.139 27.14,8.324 L27.14,12.132 L24,12.132 C23.801,12.132 23.64,12.293 23.64,12.492 L23.64,15.632 L19.816,15.632 C19.631,13.675 17.998,12.132 15.993,12.132 C13.985,12.132 12.35,13.679 12.168,15.64 L8.5,15.64 C6.493,15.64 4.86,14.007 4.86,12 L4.86,8.369 L8.009,8.369 C8.208,8.369 8.369,8.208 8.369,8.009 L8.369,4.869 L13.64,4.869 L13.64,7.928 C13.64,8.057 13.708,8.175 13.82,8.239 C13.875,8.271 13.938,8.288 14,8.288 C14.062,8.288 14.125,8.271 14.18,8.239 L20.18,4.775 C20.292,4.711 20.36,4.593 20.36,4.464 C20.36,4.335 20.292,4.217 20.18,4.152 L14.18,0.688 C14.069,0.624 13.931,0.624 13.82,0.688 C13.708,0.753 13.64,0.871 13.64,1 L13.64,4.148 L8.369,4.148 L8.369,1.009 C8.369,0.81 8.208,0.648 8.009,0.648 L1.009,0.648 C0.81,0.648 0.649,0.81 0.649,1.009 L0.649,8.009 C0.649,8.208 0.81,8.369 1.009,8.369 L4.14,8.369 L4.14,12 C4.14,14.404 6.096,16.36 8.5,16.36 L12.17,16.36 C12.247,17.152 12.558,17.87 13.041,18.449 L6.949,24.542 C6.281,23.987 5.435,23.64 4.5,23.64 C2.372,23.64 0.64,25.372 0.64,27.5 C0.64,29.628 2.372,31.36 4.5,31.36 C6.628,31.36 8.36,29.628 8.36,27.5 C8.36,26.566 8.013,25.72 7.458,25.051 L13.552,18.957 C14.135,19.438 14.854,19.746 15.649,19.817 L15.649,23.64 L12.5,23.64 C12.301,23.64 12.14,23.801 12.14,24 L12.14,31 C12.14,31.199 12.301,31.36 12.5,31.36 L19.5,31.36 C19.699,31.36 19.86,31.199 19.86,31 L19.86,28.86 L23.5,28.86 C25.904,28.86 27.86,26.904 27.86,24.5 L27.86,19.853 L31,19.853 C31.199,19.853 31.36,19.691 31.36,19.492 L31.36,12.492 C31.36,12.293 31.199,12.132 31,12.132 Z" id="Fill-2" fill="#000000"></path>
        </g>
        <g id="Group-4-Copy-15" transform="translate(224.000000, 222.000000)">
            <polygon id="Fill-1" fill="#FFFFFF" points="0 48 48 48 48 0 0 0"></polygon>
            <path d="M36.54,28.698 L45.96,28.698 L45.96,19.2795 L36.54,19.2795 L36.54,28.698 Z M40.71,36.75 C40.71,39.7605 38.2605,42.21 35.25,42.21 L29.79,42.21 L29.79,36 C29.79,35.7015 29.5485,35.46 29.25,35.46 L24.5535,35.46 L24.5535,29.721 C27.297,29.451 29.4645,27.276 29.724,24.5295 L35.46,24.5295 L35.46,29.238 C35.46,29.5365 35.7015,29.7795 36,29.7795 L40.71,29.7795 L40.71,36.75 Z M19.29,45.96 L28.71,45.96 L28.71,36.5415 L19.29,36.5415 L19.29,45.96 Z M6.75,45.96 C4.1535,45.96 2.04,43.8465 2.04,41.25 C2.04,38.6535 4.1535,36.54 6.75,36.54 C9.3465,36.54 11.46,38.6535 11.46,41.25 C11.46,43.8465 9.3465,45.96 6.75,45.96 Z M23.9895,19.2795 C26.586,19.2795 28.6995,21.3915 28.6995,23.988 C28.6995,26.586 26.586,28.698 23.9895,28.698 C21.3915,28.698 19.2795,26.586 19.2795,23.988 C19.2795,21.3915 21.3915,19.2795 23.9895,19.2795 Z M2.0535,11.472 L11.4735,11.472 L11.4735,2.0535 L2.0535,2.0535 L2.0535,11.472 Z M21.54,2.4345 L28.92,6.696 L21.54,10.9575 L21.54,2.4345 Z M36.54,6.75 C36.54,4.1535 38.6535,2.04 41.25,2.04 C43.8465,2.04 45.96,4.1535 45.96,6.75 C45.96,9.3465 43.8465,11.46 41.25,11.46 C38.6535,11.46 36.54,9.3465 36.54,6.75 Z M46.5,18.198 L41.79,18.198 L41.79,12.486 C44.7255,12.2085 47.04,9.7575 47.04,6.75 C47.04,3.558 44.442,0.96 41.25,0.96 C38.058,0.96 35.46,3.558 35.46,6.75 C35.46,9.7575 37.7745,12.2085 40.71,12.486 L40.71,18.198 L36,18.198 C35.7015,18.198 35.46,18.4395 35.46,18.738 L35.46,23.448 L29.724,23.448 C29.4465,20.5125 26.997,18.198 23.9895,18.198 C20.9775,18.198 18.525,20.5185 18.252,23.46 L12.75,23.46 C9.7395,23.46 7.29,21.0105 7.29,18 L7.29,12.5535 L12.0135,12.5535 C12.312,12.5535 12.5535,12.312 12.5535,12.0135 L12.5535,7.3035 L20.46,7.3035 L20.46,11.892 C20.46,12.0855 20.562,12.2625 20.73,12.3585 C20.8125,12.4065 20.907,12.432 21,12.432 C21.093,12.432 21.1875,12.4065 21.27,12.3585 L30.27,7.1625 C30.438,7.0665 30.54,6.8895 30.54,6.696 C30.54,6.5025 30.438,6.3255 30.27,6.228 L21.27,1.032 C21.1035,0.936 20.8965,0.936 20.73,1.032 C20.562,1.1295 20.46,1.3065 20.46,1.5 L20.46,6.222 L12.5535,6.222 L12.5535,1.5135 C12.5535,1.215 12.312,0.972 12.0135,0.972 L1.5135,0.972 C1.215,0.972 0.9735,1.215 0.9735,1.5135 L0.9735,12.0135 C0.9735,12.312 1.215,12.5535 1.5135,12.5535 L6.21,12.5535 L6.21,18 C6.21,21.606 9.144,24.54 12.75,24.54 L18.255,24.54 C18.3705,25.728 18.837,26.805 19.5615,27.6735 L10.4235,36.813 C9.4215,35.9805 8.1525,35.46 6.75,35.46 C3.558,35.46 0.96,38.058 0.96,41.25 C0.96,44.442 3.558,47.04 6.75,47.04 C9.942,47.04 12.54,44.442 12.54,41.25 C12.54,39.849 12.0195,38.58 11.187,37.5765 L20.328,28.4355 C21.2025,29.157 22.281,29.619 23.4735,29.7255 L23.4735,35.46 L18.75,35.46 C18.4515,35.46 18.21,35.7015 18.21,36 L18.21,46.5 C18.21,46.7985 18.4515,47.04 18.75,47.04 L29.25,47.04 C29.5485,47.04 29.79,46.7985 29.79,46.5 L29.79,43.29 L35.25,43.29 C38.856,43.29 41.79,40.356 41.79,36.75 L41.79,29.7795 L46.5,29.7795 C46.7985,29.7795 47.04,29.5365 47.04,29.238 L47.04,18.738 C47.04,18.4395 46.7985,18.198 46.5,18.198 Z" id="Fill-2" fill="#000000"></path>
        </g>
        <g id="Group-4-Copy-16" transform="translate(384.000000, 214.000000)">
            <polygon id="Fill-1" fill="#FFFFFF" points="0 64 64 64 64 0 0 0"></polygon>
            <path d="M48.72,38.264 L61.28,38.264 L61.28,25.706 L48.72,25.706 L48.72,38.264 Z M54.28,49 C54.28,53.014 51.014,56.28 47,56.28 L39.72,56.28 L39.72,48 C39.72,47.602 39.398,47.28 39,47.28 L32.738,47.28 L32.738,39.628 C36.396,39.268 39.286,36.368 39.632,32.706 L47.28,32.706 L47.28,38.984 C47.28,39.382 47.602,39.706 48,39.706 L54.28,39.706 L54.28,49 Z M25.72,61.28 L38.28,61.28 L38.28,48.722 L25.72,48.722 L25.72,61.28 Z M9,61.28 C5.538,61.28 2.72,58.462 2.72,55 C2.72,51.538 5.538,48.72 9,48.72 C12.462,48.72 15.28,51.538 15.28,55 C15.28,58.462 12.462,61.28 9,61.28 Z M31.986,25.706 C35.448,25.706 38.266,28.522 38.266,31.984 C38.266,35.448 35.448,38.264 31.986,38.264 C28.522,38.264 25.706,35.448 25.706,31.984 C25.706,28.522 28.522,25.706 31.986,25.706 Z M2.738,15.296 L15.298,15.296 L15.298,2.738 L2.738,2.738 L2.738,15.296 Z M28.72,3.246 L38.56,8.928 L28.72,14.61 L28.72,3.246 Z M48.72,9 C48.72,5.538 51.538,2.72 55,2.72 C58.462,2.72 61.28,5.538 61.28,9 C61.28,12.462 58.462,15.28 55,15.28 C51.538,15.28 48.72,12.462 48.72,9 Z M62,24.264 L55.72,24.264 L55.72,16.648 C59.634,16.278 62.72,13.01 62.72,9 C62.72,4.744 59.256,1.28 55,1.28 C50.744,1.28 47.28,4.744 47.28,9 C47.28,13.01 50.366,16.278 54.28,16.648 L54.28,24.264 L48,24.264 C47.602,24.264 47.28,24.586 47.28,24.984 L47.28,31.264 L39.632,31.264 C39.262,27.35 35.996,24.264 31.986,24.264 C27.97,24.264 24.7,27.358 24.336,31.28 L17,31.28 C12.986,31.28 9.72,28.014 9.72,24 L9.72,16.738 L16.018,16.738 C16.416,16.738 16.738,16.416 16.738,16.018 L16.738,9.738 L27.28,9.738 L27.28,15.856 C27.28,16.114 27.416,16.35 27.64,16.478 C27.75,16.542 27.876,16.576 28,16.576 C28.124,16.576 28.25,16.542 28.36,16.478 L40.36,9.55 C40.584,9.422 40.72,9.186 40.72,8.928 C40.72,8.67 40.584,8.434 40.36,8.304 L28.36,1.376 C28.138,1.248 27.862,1.248 27.64,1.376 C27.416,1.506 27.28,1.742 27.28,2 L27.28,8.296 L16.738,8.296 L16.738,2.018 C16.738,1.62 16.416,1.296 16.018,1.296 L2.018,1.296 C1.62,1.296 1.298,1.62 1.298,2.018 L1.298,16.018 C1.298,16.416 1.62,16.738 2.018,16.738 L8.28,16.738 L8.28,24 C8.28,28.808 12.192,32.72 17,32.72 L24.34,32.72 C24.494,34.304 25.116,35.74 26.082,36.898 L13.898,49.084 C12.562,47.974 10.87,47.28 9,47.28 C4.744,47.28 1.28,50.744 1.28,55 C1.28,59.256 4.744,62.72 9,62.72 C13.256,62.72 16.72,59.256 16.72,55 C16.72,53.132 16.026,51.44 14.916,50.102 L27.104,37.914 C28.27,38.876 29.708,39.492 31.298,39.634 L31.298,47.28 L25,47.28 C24.602,47.28 24.28,47.602 24.28,48 L24.28,62 C24.28,62.398 24.602,62.72 25,62.72 L39,62.72 C39.398,62.72 39.72,62.398 39.72,62 L39.72,57.72 L47,57.72 C51.808,57.72 55.72,53.808 55.72,49 L55.72,39.706 L62,39.706 C62.398,39.706 62.72,39.382 62.72,38.984 L62.72,24.984 C62.72,24.586 62.398,24.264 62,24.264 Z" id="Fill-2" fill="#000000"></path>
        </g>
        <g id="Group-4-Copy-17" transform="translate(560.000000, 206.000000)">
            <polygon id="Fill-1" fill="#FFFFFF" points="0 80 80 80 80 0 0 0"></polygon>
            <path d="M60.9,47.83 L76.6,47.83 L76.6,32.1325 L60.9,32.1325 L60.9,47.83 Z M67.85,61.25 C67.85,66.2675 63.7675,70.35 58.75,70.35 L49.65,70.35 L49.65,60 C49.65,59.5025 49.2475,59.1 48.75,59.1 L40.9225,59.1 L40.9225,49.535 C45.495,49.085 49.1075,45.46 49.54,40.8825 L59.1,40.8825 L59.1,48.73 C59.1,49.2275 59.5025,49.6325 60,49.6325 L67.85,49.6325 L67.85,61.25 Z M32.15,76.6 L47.85,76.6 L47.85,60.9025 L32.15,60.9025 L32.15,76.6 Z M11.25,76.6 C6.9225,76.6 3.4,73.0775 3.4,68.75 C3.4,64.4225 6.9225,60.9 11.25,60.9 C15.5775,60.9 19.1,64.4225 19.1,68.75 C19.1,73.0775 15.5775,76.6 11.25,76.6 Z M39.9825,32.1325 C44.31,32.1325 47.8325,35.6525 47.8325,39.98 C47.8325,44.31 44.31,47.83 39.9825,47.83 C35.6525,47.83 32.1325,44.31 32.1325,39.98 C32.1325,35.6525 35.6525,32.1325 39.9825,32.1325 Z M3.4225,19.12 L19.1225,19.12 L19.1225,3.4225 L3.4225,3.4225 L3.4225,19.12 Z M35.9,4.0575 L48.2,11.16 L35.9,18.2625 L35.9,4.0575 Z M60.9,11.25 C60.9,6.9225 64.4225,3.4 68.75,3.4 C73.0775,3.4 76.6,6.9225 76.6,11.25 C76.6,15.5775 73.0775,19.1 68.75,19.1 C64.4225,19.1 60.9,15.5775 60.9,11.25 Z M77.5,30.33 L69.65,30.33 L69.65,20.81 C74.5425,20.3475 78.4,16.2625 78.4,11.25 C78.4,5.93 74.07,1.6 68.75,1.6 C63.43,1.6 59.1,5.93 59.1,11.25 C59.1,16.2625 62.9575,20.3475 67.85,20.81 L67.85,30.33 L60,30.33 C59.5025,30.33 59.1,30.7325 59.1,31.23 L59.1,39.08 L49.54,39.08 C49.0775,34.1875 44.995,30.33 39.9825,30.33 C34.9625,30.33 30.875,34.1975 30.42,39.1 L21.25,39.1 C16.2325,39.1 12.15,35.0175 12.15,30 L12.15,20.9225 L20.0225,20.9225 C20.52,20.9225 20.9225,20.52 20.9225,20.0225 L20.9225,12.1725 L34.1,12.1725 L34.1,19.82 C34.1,20.1425 34.27,20.4375 34.55,20.5975 C34.6875,20.6775 34.845,20.72 35,20.72 C35.155,20.72 35.3125,20.6775 35.45,20.5975 L50.45,11.9375 C50.73,11.7775 50.9,11.4825 50.9,11.16 C50.9,10.8375 50.73,10.5425 50.45,10.38 L35.45,1.72 C35.1725,1.56 34.8275,1.56 34.55,1.72 C34.27,1.8825 34.1,2.1775 34.1,2.5 L34.1,10.37 L20.9225,10.37 L20.9225,2.5225 C20.9225,2.025 20.52,1.62 20.0225,1.62 L2.5225,1.62 C2.025,1.62 1.6225,2.025 1.6225,2.5225 L1.6225,20.0225 C1.6225,20.52 2.025,20.9225 2.5225,20.9225 L10.35,20.9225 L10.35,30 C10.35,36.01 15.24,40.9 21.25,40.9 L30.425,40.9 C30.6175,42.88 31.395,44.675 32.6025,46.1225 L17.3725,61.355 C15.7025,59.9675 13.5875,59.1 11.25,59.1 C5.93,59.1 1.6,63.43 1.6,68.75 C1.6,74.07 5.93,78.4 11.25,78.4 C16.57,78.4 20.9,74.07 20.9,68.75 C20.9,66.415 20.0325,64.3 18.645,62.6275 L33.88,47.3925 C35.3375,48.595 37.135,49.365 39.1225,49.5425 L39.1225,59.1 L31.25,59.1 C30.7525,59.1 30.35,59.5025 30.35,60 L30.35,77.5 C30.35,77.9975 30.7525,78.4 31.25,78.4 L48.75,78.4 C49.2475,78.4 49.65,77.9975 49.65,77.5 L49.65,72.15 L58.75,72.15 C64.76,72.15 69.65,67.26 69.65,61.25 L69.65,49.6325 L77.5,49.6325 C77.9975,49.6325 78.4,49.2275 78.4,48.73 L78.4,31.23 C78.4,30.7325 77.9975,30.33 77.5,30.33 Z" id="Fill-2" fill="#000000"></path>
        </g>
        <g id="Group-4-Copy-18" transform="translate(752.000000, 198.000000)">
            <polygon id="Fill-1" fill="#FFFFFF" points="0 96 96 96 96 0 0 0"></polygon>
            <path d="M73.08,57.396 L91.92,57.396 L91.92,38.559 L73.08,38.559 L73.08,57.396 Z M81.42,73.5 C81.42,79.521 76.521,84.42 70.5,84.42 L59.58,84.42 L59.58,72 C59.58,71.403 59.097,70.92 58.5,70.92 L49.107,70.92 L49.107,59.442 C54.594,58.902 58.929,54.552 59.448,49.059 L70.92,49.059 L70.92,58.476 C70.92,59.073 71.403,59.559 72,59.559 L81.42,59.559 L81.42,73.5 Z M38.58,91.92 L57.42,91.92 L57.42,73.083 L38.58,73.083 L38.58,91.92 Z M13.5,91.92 C8.307,91.92 4.08,87.693 4.08,82.5 C4.08,77.307 8.307,73.08 13.5,73.08 C18.693,73.08 22.92,77.307 22.92,82.5 C22.92,87.693 18.693,91.92 13.5,91.92 Z M47.979,38.559 C53.172,38.559 57.399,42.783 57.399,47.976 C57.399,53.172 53.172,57.396 47.979,57.396 C42.783,57.396 38.559,53.172 38.559,47.976 C38.559,42.783 42.783,38.559 47.979,38.559 Z M4.107,22.944 L22.947,22.944 L22.947,4.107 L4.107,4.107 L4.107,22.944 Z M43.08,4.869 L57.84,13.392 L43.08,21.915 L43.08,4.869 Z M73.08,13.5 C73.08,8.307 77.307,4.08 82.5,4.08 C87.693,4.08 91.92,8.307 91.92,13.5 C91.92,18.693 87.693,22.92 82.5,22.92 C77.307,22.92 73.08,18.693 73.08,13.5 Z M93,36.396 L83.58,36.396 L83.58,24.972 C89.451,24.417 94.08,19.515 94.08,13.5 C94.08,7.116 88.884,1.92 82.5,1.92 C76.116,1.92 70.92,7.116 70.92,13.5 C70.92,19.515 75.549,24.417 81.42,24.972 L81.42,36.396 L72,36.396 C71.403,36.396 70.92,36.879 70.92,37.476 L70.92,46.896 L59.448,46.896 C58.893,41.025 53.994,36.396 47.979,36.396 C41.955,36.396 37.05,41.037 36.504,46.92 L25.5,46.92 C19.479,46.92 14.58,42.021 14.58,36 L14.58,25.107 L24.027,25.107 C24.624,25.107 25.107,24.624 25.107,24.027 L25.107,14.607 L40.92,14.607 L40.92,23.784 C40.92,24.171 41.124,24.525 41.46,24.717 C41.625,24.813 41.814,24.864 42,24.864 C42.186,24.864 42.375,24.813 42.54,24.717 L60.54,14.325 C60.876,14.133 61.08,13.779 61.08,13.392 C61.08,13.005 60.876,12.651 60.54,12.456 L42.54,2.064 C42.207,1.872 41.793,1.872 41.46,2.064 C41.124,2.259 40.92,2.613 40.92,3 L40.92,12.444 L25.107,12.444 L25.107,3.027 C25.107,2.43 24.624,1.944 24.027,1.944 L3.027,1.944 C2.43,1.944 1.947,2.43 1.947,3.027 L1.947,24.027 C1.947,24.624 2.43,25.107 3.027,25.107 L12.42,25.107 L12.42,36 C12.42,43.212 18.288,49.08 25.5,49.08 L36.51,49.08 C36.741,51.456 37.674,53.61 39.123,55.347 L20.847,73.626 C18.843,71.961 16.305,70.92 13.5,70.92 C7.116,70.92 1.92,76.116 1.92,82.5 C1.92,88.884 7.116,94.08 13.5,94.08 C19.884,94.08 25.08,88.884 25.08,82.5 C25.08,79.698 24.039,77.16 22.374,75.153 L40.656,56.871 C42.405,58.314 44.562,59.238 46.947,59.451 L46.947,70.92 L37.5,70.92 C36.903,70.92 36.42,71.403 36.42,72 L36.42,93 C36.42,93.597 36.903,94.08 37.5,94.08 L58.5,94.08 C59.097,94.08 59.58,93.597 59.58,93 L59.58,86.58 L70.5,86.58 C77.712,86.58 83.58,80.712 83.58,73.5 L83.58,59.559 L93,59.559 C93.597,59.559 94.08,59.073 94.08,58.476 L94.08,37.476 C94.08,36.879 93.597,36.396 93,36.396 Z" id="Fill-2" fill="#000000"></path>
        </g>
    </g>
</svg>