<?xml version="1.0" encoding="UTF-8"?>
<svg width="928px" height="522px" viewBox="0 0 928 522" version="1.1" xmlns="http://www.w3.org/2000/svg" xmlns:xlink="http://www.w3.org/1999/xlink">
    <!-- Generator: Sketch 52.4 (67378) - http://www.bohemiancoding.com/sketch -->
    <title>Artboard Copy 14</title>
    <desc>Created with Sketch.</desc>
    <defs>
        <polygon id="path-1" points="0 120 120 120 120 0 0 0"></polygon>
    </defs>
    <g id="Artboard-Copy-14" stroke="none" stroke-width="1" fill="none" fill-rule="evenodd">
        <rect id="Rectangle-3-Copy-45" fill="#FFFFFF" x="0" y="0" width="928" height="522"></rect>
        <g id="Group-45-Copy" transform="translate(705.000000, 201.000000)" fill="#C9DEFF">
            <polygon id="Fill-1" points="0 120 120 120 120 0 0 0"></polygon>
        </g>
        <g id="Group-44-Copy" transform="translate(505.000000, 201.000000)" fill="#C9DEFF">
            <polygon id="Fill-1" points="0 120 120 120 120 0 0 0"></polygon>
        </g>
        <g id="Group-43-Copy" transform="translate(304.000000, 201.000000)" fill="#C9DEFF">
            <polygon id="Fill-1" points="0 120 120 120 120 0 0 0"></polygon>
        </g>
        <g id="Group-42-Copy" transform="translate(104.000000, 201.000000)" fill="#C9DEFF">
            <polygon id="Fill-1" points="0 120 120 120 120 0 0 0"></polygon>
        </g>
        <path d="M364,104 L364,418" id="Path-3-Copy" stroke="#95C0FF"></path>
        <path d="M164,104 L164,418" id="Path-3-Copy-2" stroke="#95C0FF"></path>
        <path d="M565,104 L565,418" id="Path-3-Copy-3" stroke="#95C0FF"></path>
        <path d="M765,104 L765,418" id="Path-3-Copy-4" stroke="#95C0FF"></path>
        <path d="M464,-186 L464,708" id="Path-3-Copy-5" stroke="#95C0FF" transform="translate(464.000000, 261.000000) rotate(90.000000) translate(-464.000000, -261.000000) "></path>
        <g id="Group-6-Copy" transform="translate(720.000000, 201.000000)" fill="#000000">
            <path d="M45,5.137875 C22.99875,5.137875 5.1,23.032875 5.1,45.037875 C5.1,74.962875 38.82,108.532875 44.95875,114.394125 C51.00375,108.109125 84.9,71.670375 84.9,45.037875 C84.9,23.032875 67.00125,5.137875 45,5.137875 M45,117.637875 C44.6775,117.637875 44.35125,117.521625 44.0925,117.285375 C42.39,115.736625 2.4,78.990375 2.4,45.037875 C2.4,21.547875 21.51,2.434125 45,2.434125 C68.49,2.434125 87.6,21.547875 87.6,45.037875 C87.6,75.247875 47.655,115.537875 45.9525,117.244125 C45.69375,117.502875 45.345,117.637875 45,117.637875" id="Fill-2"></path>
            <path d="M45,31.387875 C37.47375,31.387875 31.35,37.511625 31.35,45.037875 C31.35,52.560375 37.47375,58.684125 45,58.684125 C52.52625,58.684125 58.65,52.560375 58.65,45.037875 C58.65,37.511625 52.52625,31.387875 45,31.387875 M45,61.387875 C35.985,61.387875 28.65,54.052875 28.65,45.037875 C28.65,36.019125 35.985,28.684125 45,28.684125 C54.015,28.684125 61.35,36.019125 61.35,45.037875 C61.35,54.052875 54.015,61.387875 45,61.387875" id="Fill-4"></path>
        </g>
        <path d="M381.07084,295.073779 L381.07084,293.049459 C381.07084,281.33839 373.773807,271.111822 362.972848,267.175644 C367.242907,264.127917 369.875547,259.179578 369.875547,253.837621 C369.875547,244.788158 362.499649,237.421881 353.429997,237.421881 C344.364101,237.421881 336.988203,244.788158 336.988203,253.837621 C336.988203,259.179578 339.617087,264.131665 343.887147,267.175644 C333.089942,271.111822 325.789155,281.342139 325.789155,293.049459 L325.789155,295.073779 C318.721211,289.330707 313.621175,281.578309 311.213868,272.618817 C308.190651,261.361345 309.741693,249.597794 315.581572,239.506181 C323.667269,225.523375 338.392778,217.696002 353.512619,217.696002 C360.922318,217.696002 368.429661,219.574122 375.294805,223.532793 C396.171903,235.566254 403.348758,262.306028 391.2972,283.141535 C388.574427,287.853703 385.062988,291.827369 381.07084,295.073779 Z M331.580212,299.114923 C330.513636,298.500129 329.495882,297.821607 328.49315,297.131838 L328.49315,293.049459 C328.49315,281.514581 336.346004,271.572918 347.586363,268.873824 C348.149695,268.742618 348.562805,268.262779 348.615383,267.685473 C348.671716,267.111915 348.352495,266.568348 347.822962,266.332177 C342.884415,264.116671 339.688442,259.217065 339.688442,253.837621 C339.688442,246.27266 345.855054,240.124724 353.429997,240.124724 C361.00494,240.124724 367.171552,246.27266 367.171552,253.837621 C367.171552,259.217065 363.979335,264.116671 359.037032,266.332177 C358.5075,266.568348 358.192034,267.111915 358.244611,267.685473 C358.297189,268.262779 358.710299,268.742618 359.273632,268.873824 C370.513991,271.572918 378.366844,281.514581 378.366844,293.049459 L378.366844,297.101848 C364.888178,306.424969 346.696297,307.815752 331.580212,299.114923 Z M421.705882,299.111174 L394.256573,283.287735 C406.109086,261.34635 398.417722,233.748114 376.646803,221.197327 C354.481551,208.425364 326.037021,216.031561 313.238109,238.156634 C307.041453,248.874287 305.392767,261.361345 308.600006,273.316083 C311.811,285.274569 319.491099,295.264965 330.228214,301.450389 C337.517735,305.652728 345.48701,307.647059 353.358642,307.647059 C368.985482,307.647059 384.161657,299.722219 392.882042,285.615704 L420.353885,301.44664 L421.705882,299.111174 Z" id="Fill-2-Copy-2" fill="#000000"></path>
        <g id="Group-6-Copy-3" transform="translate(507.000000, 206.000000)" fill="#000000">
            <path d="M31.75,48.1965693 C30.40375,48.1965693 29.35,49.2974042 29.35,50.7025655 L29.35,91.9293966 C29.35,99.7254118 35.21875,105.601541 43,105.601541 C50.78125,105.601541 56.65,99.7254118 56.65,91.9293966 L56.65,73.24526 C56.65,71.8400987 55.59625,70.7392638 54.25,70.7392638 C52.90375,70.7392638 51.85,71.8400987 51.85,73.24526 L51.85,76.9009336 C51.85,77.6485996 51.24625,78.2534953 50.5,78.2534953 C49.75375,78.2534953 49.15,77.6485996 49.15,76.9009336 L49.15,69.4881442 C49.15,68.0829829 48.09625,66.982148 46.75,66.982148 C45.42625,66.982148 44.3875,68.0416546 44.35,69.4092448 L44.35375,76.9009336 C44.3575,77.6448425 43.75375,78.2534953 43.0075,78.2534953 L43.00375,78.2534953 C42.26125,78.2534953 41.6575,77.6485996 41.6575,76.9009336 L41.65,69.4881442 L41.65,69.382945 L41.65,67.6095863 C41.65,66.204425 40.59625,65.1035901 39.25,65.1035901 C37.9075,65.1035901 36.8575,66.204425 36.8575,67.6095863 L36.8575,76.9009336 C36.8575,77.6485996 36.25375,78.2534953 35.5075,78.2534953 C34.76125,78.2534953 34.1575,77.6485996 34.1575,76.9009336 L34.15,50.7025655 C34.15,49.2974042 33.09625,48.1965693 31.75,48.1965693 M43,108.310421 C33.6775,108.310421 26.65,101.265829 26.65,91.9293966 L26.65,50.7025655 C26.65,47.7795294 28.88875,45.4876888 31.75,45.4876888 C34.61125,45.4876888 36.85,47.7795294 36.85,50.7025655 L36.85375,62.9920911 C37.5625,62.6126224 38.38,62.3947097 39.25,62.3947097 C41.26,62.3947097 42.9625,63.5256015 43.79875,65.2087894 C44.6275,64.6189222 45.64,64.2732676 46.75,64.2732676 C49.33375,64.2732676 51.41125,66.1443112 51.79,68.6578216 C52.51375,68.2595674 53.35,68.0303833 54.25,68.0303833 C57.11125,68.0303833 59.35,70.3222239 59.35,73.24526 L59.35,91.9293966 C59.35,101.265829 52.3225,108.310421 43,108.310421" id="Fill-2"></path>
            <path d="M112.900375,94.330945 L81.850375,94.330945 L81.850375,78.2542467 L95.500375,78.2542467 C96.246625,78.2542467 96.850375,77.649351 96.850375,76.8979279 L96.850375,51.9544364 L112.900375,51.9544364 L112.900375,94.330945 Z M81.850375,109.359408 L112.900375,109.359408 L112.900375,97.0398254 L81.850375,97.0398254 L81.850375,109.359408 Z M114.250375,49.245556 L96.850375,49.245556 L96.850375,1.7556129 C96.850375,1.00794687 96.246625,0.403051233 95.500375,0.403051233 L1.750375,0.403051233 C1.004125,0.403051233 0.400375,1.00794687 0.400375,1.7556129 L0.400375,76.8979279 C0.400375,77.649351 1.004125,78.2542467 1.750375,78.2542467 L20.500375,78.2542467 L20.500375,75.5453662 L3.100375,75.5453662 L3.100375,63.2257837 L20.500375,63.2257837 L20.500375,60.5169032 L3.100375,60.5169032 L3.100375,3.11193169 L94.150375,3.11193169 L94.150375,50.5981176 L94.150375,60.5169032 L65.500375,60.5169032 L65.500375,63.2257837 L94.150375,63.2257837 L94.150375,75.5453662 L80.500375,75.5453662 L65.500375,75.5453662 L65.500375,78.2542467 L79.150375,78.2542467 L79.150375,110.71197 C79.150375,111.463393 79.754125,112.068288 80.500375,112.068288 L114.250375,112.068288 C114.996625,112.068288 115.600375,111.463393 115.600375,110.71197 L115.600375,50.5981176 C115.600375,49.8504516 114.996625,49.245556 114.250375,49.245556 Z" id="Fill-4"></path>
        </g>
        <g id="Group-12-Copy" transform="translate(104.000000, 201.000000)">
            <path d="M101.24625,18.78675 C101.24625,16.71675 99.56625,15.03675 97.49625,15.03675 C95.42625,15.03675 93.74625,16.71675 93.74625,18.78675 C93.74625,20.8605 95.42625,22.53675 97.49625,22.53675 C99.56625,22.53675 101.24625,20.8605 101.24625,18.78675" id="Fill-2" fill="#000000"></path>
            <path d="M101.25,60.040125 C101.25,57.966375 99.57,56.290125 97.5,56.290125 C95.43,56.290125 93.75,57.966375 93.75,60.040125 C93.75,62.110125 95.43,63.790125 97.5,63.790125 C99.57,63.790125 101.25,62.110125 101.25,60.040125" id="Fill-4" fill="#000000"></path>
            <path d="M101.251875,101.293875 C101.251875,99.223875 99.571875,97.543875 97.501875,97.543875 C95.431875,97.543875 93.751875,99.223875 93.751875,101.293875 C93.751875,103.367625 95.431875,105.043875 97.501875,105.043875 C99.571875,105.043875 101.251875,103.367625 101.251875,101.293875" id="Fill-6" fill="#000000"></path>
            <mask id="mask-2" fill="white">
                <use xlink:href="#path-1"></use>
            </mask>
            <g id="Clip-9"></g>
            <path d="M5.1,32.43375 L114.9,32.43375 L114.9,5.1375 L5.1,5.1375 L5.1,32.43375 Z M116.25,35.1375 L3.75,35.1375 C3.00375,35.1375 2.4,34.53375 2.4,33.7875 L2.4,3.7875 C2.4,3.04125 3.00375,2.43375 3.75,2.43375 L116.25,2.43375 C116.99625,2.43375 117.6,3.04125 117.6,3.7875 L117.6,33.7875 C117.6,34.53375 116.99625,35.1375 116.25,35.1375 Z" id="Fill-8" fill="#000000" mask="url(#mask-2)"></path>
            <path d="M5.1,73.68375 L114.9,73.68375 L114.9,46.3875 L5.1,46.3875 L5.1,73.68375 Z M116.25,76.3875 L3.75,76.3875 C3.00375,76.3875 2.4,75.78375 2.4,75.0375 L2.4,45.0375 C2.4,44.29125 3.00375,43.68375 3.75,43.68375 L116.25,43.68375 C116.99625,43.68375 117.6,44.29125 117.6,45.0375 L117.6,75.0375 C117.6,75.78375 116.99625,76.3875 116.25,76.3875 Z" id="Fill-10" fill="#000000" mask="url(#mask-2)"></path>
            <path d="M5.1,114.93375 L114.9,114.93375 L114.9,87.6375 L5.1,87.6375 L5.1,114.93375 Z M116.25,117.6375 L3.75,117.6375 C3.00375,117.6375 2.4,117.03375 2.4,116.2875 L2.4,86.2875 C2.4,85.54125 3.00375,84.93375 3.75,84.93375 L116.25,84.93375 C116.99625,84.93375 117.6,85.54125 117.6,86.2875 L117.6,116.2875 C117.6,117.03375 116.99625,117.6375 116.25,117.6375 Z" id="Fill-11" fill="#000000" mask="url(#mask-2)"></path>
        </g>
    </g>
</svg>