<?xml version="1.0" encoding="UTF-8"?>
<svg width="288px" height="288px" viewBox="0 0 288 288" version="1.1" xmlns="http://www.w3.org/2000/svg" xmlns:xlink="http://www.w3.org/1999/xlink">
    <!-- Generator: Sketch 52.5 (67469) - http://www.bohemiancoding.com/sketch -->
    <title>Artboard Copy 66</title>
    <desc>Created with Sketch.</desc>
    <defs>
        <polygon id="path-1" points="0 91.3475177 91.3475177 91.3475177 91.3475177 0 0 0"></polygon>
        <polygon id="path-3" points="0 91.3475177 91.3475177 91.3475177 91.3475177 0 0 0"></polygon>
        <polygon id="path-5" points="0 91.3475177 91.3475177 91.3475177 91.3475177 0 0 0"></polygon>
        <polygon id="path-7" points="0 91.3475177 91.3475177 91.3475177 91.3475177 0 0 0"></polygon>
    </defs>
    <g id="Artboard-Copy-66" stroke="none" stroke-width="1" fill="none" fill-rule="evenodd">
        <rect id="Rectangle-3-Copy-80" fill="#FFFFFF" x="0" y="0" width="288" height="288"></rect>
        <g id="Group-27-Copy-3" transform="translate(39.000000, 43.000000)">
            <g id="Group-39">
                <rect id="Rectangle" fill="#DCDCDC" fill-rule="nonzero" x="6.5248227" y="6.5248227" width="78.2978723" height="78.2978723"></rect>
                <path d="M57.6792586,64.601704 L57.6792586,59.0634345 L64.6612539,55.0319641 L64.6612539,57.0920681 C64.6612539,61.0648151 61.5745778,64.2963423 57.6792586,64.601704 Z M49.5232303,57.0920681 L49.5232303,55.0319641 L56.5052255,59.0634345 L56.5052255,64.601704 C52.6099064,64.2963423 49.5232303,61.0648151 49.5232303,57.0920681 Z M56.5052255,34.6371083 L56.5052255,41.3937797 L49.5232303,37.3627442 L49.5232303,30.6065078 L56.5052255,34.6371083 Z M64.6612539,30.6065078 L64.6612539,37.3627442 L57.6792586,41.3937797 L57.6792586,34.6371083 L64.6612539,30.6065078 Z M64.6612539,45.648834 L57.6792586,49.6794345 L57.6792586,42.7513778 L64.6612539,38.7199073 L64.6612539,45.648834 Z M49.5232303,47.0059972 L56.5052255,51.0365976 L56.5052255,57.7058364 L49.5232303,53.6748009 L49.5232303,47.0059972 Z M56.5052255,49.6794345 L49.5232303,45.648834 L49.5232303,38.7199073 L56.5052255,42.7513778 L56.5052255,49.6794345 Z M64.6612539,53.6748009 L57.6792586,57.7058364 L57.6792586,51.0365976 L64.6612539,47.0059972 L64.6612539,53.6748009 Z M64.6612539,24.4679546 L64.6612539,29.2493447 L61.7572728,30.9257891 L61.7572728,22.8367489 L60.5832397,22.8367489 L60.5832397,31.6035007 L57.6792586,33.2799452 L57.6792586,21.2055433 L56.5052255,21.2055433 L56.5052255,33.2799452 L53.6012444,31.6035007 L53.6012444,22.8367489 L52.4272113,22.8367489 L52.4272113,30.9257891 L49.5232303,29.2493447 L49.5232303,24.4679546 L48.3491972,24.4679546 L48.3491972,57.0920681 C48.3491972,61.7120775 51.961774,65.4673305 56.5052255,65.7757371 L56.5052255,70.1417135 L57.6792586,70.1417135 L57.6792586,65.7757371 C62.2222752,65.4673305 65.835287,61.7120775 65.835287,57.0920681 L65.835287,24.4679546 L64.6612539,24.4679546 Z" id="Fill-3" fill="#000000"></path>
                <path d="M34.8423792,64.601704 L34.8423792,59.0634345 L41.8243745,55.0319641 L41.8243745,57.0920681 C41.8243745,61.0648151 38.7376983,64.2963423 34.8423792,64.601704 Z M26.6863508,57.0920681 L26.6863508,55.0319641 L33.6683461,59.0634345 L33.6683461,64.601704 C29.773027,64.2963423 26.6863508,61.0648151 26.6863508,57.0920681 Z M33.6683461,34.6371083 L33.6683461,41.3937797 L26.6863508,37.3627442 L26.6863508,30.6065078 L33.6683461,34.6371083 Z M41.8243745,30.6065078 L41.8243745,37.3627442 L34.8423792,41.3937797 L34.8423792,34.6371083 L41.8243745,30.6065078 Z M41.8243745,45.648834 L34.8423792,49.6794345 L34.8423792,42.7513778 L41.8243745,38.7199073 L41.8243745,45.648834 Z M26.6863508,47.0059972 L33.6683461,51.0365976 L33.6683461,57.7058364 L26.6863508,53.6748009 L26.6863508,47.0059972 Z M33.6683461,49.6794345 L26.6863508,45.648834 L26.6863508,38.7199073 L33.6683461,42.7513778 L33.6683461,49.6794345 Z M41.8243745,53.6748009 L34.8423792,57.7058364 L34.8423792,51.0365976 L41.8243745,47.0059972 L41.8243745,53.6748009 Z M41.8243745,24.4679546 L41.8243745,29.2493447 L38.9203934,30.9257891 L38.9203934,22.8367489 L37.7463603,22.8367489 L37.7463603,31.6035007 L34.8423792,33.2799452 L34.8423792,21.2055433 L33.6683461,21.2055433 L33.6683461,33.2799452 L30.764365,31.6035007 L30.764365,22.8367489 L29.5903319,22.8367489 L29.5903319,30.9257891 L26.6863508,29.2493447 L26.6863508,24.4679546 L25.5123177,24.4679546 L25.5123177,57.0920681 C25.5123177,61.7120775 29.1248946,65.4673305 33.6683461,65.7757371 L33.6683461,70.1417135 L34.8423792,70.1417135 L34.8423792,65.7757371 C39.3853957,65.4673305 42.9984076,61.7120775 42.9984076,57.0920681 L42.9984076,24.4679546 L41.8243745,24.4679546 Z" id="Fill-5" fill="#000000"></path>
                <mask id="mask-2" fill="white">
                    <use xlink:href="#path-1"></use>
                </mask>
                <g id="Clip-8"></g>
                <polygon id="Stroke-7" stroke="#0062FF" mask="url(#mask-2)" points="19.5744681 71.7730496 71.7730496 71.7730496 71.7730496 19.5744681 19.5744681 19.5744681"></polygon>
                <polygon id="Stroke-9" stroke="#0062FF" mask="url(#mask-2)" points="6.5248227 84.822695 84.822695 84.822695 84.822695 6.5248227 6.5248227 6.5248227"></polygon>
                <polygon id="Fill-10" fill="#FFFFFF" mask="url(#mask-2)" points="71.7730496 19.5744681 84.822695 19.5744681 84.822695 6.5248227 71.7730496 6.5248227"></polygon>
                <polygon id="Stroke-11" stroke="#0062FF" mask="url(#mask-2)" points="71.7730496 19.5744681 84.822695 19.5744681 84.822695 6.5248227 71.7730496 6.5248227"></polygon>
                <polygon id="Fill-12" fill="#FFFFFF" mask="url(#mask-2)" points="6.5248227 19.5744681 19.5744681 19.5744681 19.5744681 6.5248227 6.5248227 6.5248227"></polygon>
                <polygon id="Stroke-13" stroke="#0062FF" mask="url(#mask-2)" points="6.5248227 19.5744681 19.5744681 19.5744681 19.5744681 6.5248227 6.5248227 6.5248227"></polygon>
                <polygon id="Fill-14" fill="#FFFFFF" mask="url(#mask-2)" points="71.7730496 84.822695 84.822695 84.822695 84.822695 71.7730496 71.7730496 71.7730496"></polygon>
                <polygon id="Stroke-15" stroke="#0062FF" mask="url(#mask-2)" points="71.7730496 84.822695 84.822695 84.822695 84.822695 71.7730496 71.7730496 71.7730496"></polygon>
                <polygon id="Fill-16" fill="#FFFFFF" mask="url(#mask-2)" points="6.5248227 84.822695 19.5744681 84.822695 19.5744681 71.7730496 6.5248227 71.7730496"></polygon>
                <polygon id="Stroke-17" stroke="#0062FF" mask="url(#mask-2)" points="6.5248227 84.822695 19.5744681 84.822695 19.5744681 71.7730496 6.5248227 71.7730496"></polygon>
            </g>
            <g id="Group-39-Copy" transform="translate(0.000000, 110.709220)">
                <rect id="Rectangle" fill="#000000" fill-rule="nonzero" x="6.5248227" y="6.5248227" width="78.2978723" height="78.2978723"></rect>
                <path d="M57.6792586,64.601704 L57.6792586,59.0634345 L64.6612539,55.0319641 L64.6612539,57.0920681 C64.6612539,61.0648151 61.5745778,64.2963423 57.6792586,64.601704 Z M49.5232303,57.0920681 L49.5232303,55.0319641 L56.5052255,59.0634345 L56.5052255,64.601704 C52.6099064,64.2963423 49.5232303,61.0648151 49.5232303,57.0920681 Z M56.5052255,34.6371083 L56.5052255,41.3937797 L49.5232303,37.3627442 L49.5232303,30.6065078 L56.5052255,34.6371083 Z M64.6612539,30.6065078 L64.6612539,37.3627442 L57.6792586,41.3937797 L57.6792586,34.6371083 L64.6612539,30.6065078 Z M64.6612539,45.648834 L57.6792586,49.6794345 L57.6792586,42.7513778 L64.6612539,38.7199073 L64.6612539,45.648834 Z M49.5232303,47.0059972 L56.5052255,51.0365976 L56.5052255,57.7058364 L49.5232303,53.6748009 L49.5232303,47.0059972 Z M56.5052255,49.6794345 L49.5232303,45.648834 L49.5232303,38.7199073 L56.5052255,42.7513778 L56.5052255,49.6794345 Z M64.6612539,53.6748009 L57.6792586,57.7058364 L57.6792586,51.0365976 L64.6612539,47.0059972 L64.6612539,53.6748009 Z M64.6612539,24.4679546 L64.6612539,29.2493447 L61.7572728,30.9257891 L61.7572728,22.8367489 L60.5832397,22.8367489 L60.5832397,31.6035007 L57.6792586,33.2799452 L57.6792586,21.2055433 L56.5052255,21.2055433 L56.5052255,33.2799452 L53.6012444,31.6035007 L53.6012444,22.8367489 L52.4272113,22.8367489 L52.4272113,30.9257891 L49.5232303,29.2493447 L49.5232303,24.4679546 L48.3491972,24.4679546 L48.3491972,57.0920681 C48.3491972,61.7120775 51.961774,65.4673305 56.5052255,65.7757371 L56.5052255,70.1417135 L57.6792586,70.1417135 L57.6792586,65.7757371 C62.2222752,65.4673305 65.835287,61.7120775 65.835287,57.0920681 L65.835287,24.4679546 L64.6612539,24.4679546 Z" id="Fill-3" fill="#FFFFFF"></path>
                <path d="M34.8423792,64.601704 L34.8423792,59.0634345 L41.8243745,55.0319641 L41.8243745,57.0920681 C41.8243745,61.0648151 38.7376983,64.2963423 34.8423792,64.601704 Z M26.6863508,57.0920681 L26.6863508,55.0319641 L33.6683461,59.0634345 L33.6683461,64.601704 C29.773027,64.2963423 26.6863508,61.0648151 26.6863508,57.0920681 Z M33.6683461,34.6371083 L33.6683461,41.3937797 L26.6863508,37.3627442 L26.6863508,30.6065078 L33.6683461,34.6371083 Z M41.8243745,30.6065078 L41.8243745,37.3627442 L34.8423792,41.3937797 L34.8423792,34.6371083 L41.8243745,30.6065078 Z M41.8243745,45.648834 L34.8423792,49.6794345 L34.8423792,42.7513778 L41.8243745,38.7199073 L41.8243745,45.648834 Z M26.6863508,47.0059972 L33.6683461,51.0365976 L33.6683461,57.7058364 L26.6863508,53.6748009 L26.6863508,47.0059972 Z M33.6683461,49.6794345 L26.6863508,45.648834 L26.6863508,38.7199073 L33.6683461,42.7513778 L33.6683461,49.6794345 Z M41.8243745,53.6748009 L34.8423792,57.7058364 L34.8423792,51.0365976 L41.8243745,47.0059972 L41.8243745,53.6748009 Z M41.8243745,24.4679546 L41.8243745,29.2493447 L38.9203934,30.9257891 L38.9203934,22.8367489 L37.7463603,22.8367489 L37.7463603,31.6035007 L34.8423792,33.2799452 L34.8423792,21.2055433 L33.6683461,21.2055433 L33.6683461,33.2799452 L30.764365,31.6035007 L30.764365,22.8367489 L29.5903319,22.8367489 L29.5903319,30.9257891 L26.6863508,29.2493447 L26.6863508,24.4679546 L25.5123177,24.4679546 L25.5123177,57.0920681 C25.5123177,61.7120775 29.1248946,65.4673305 33.6683461,65.7757371 L33.6683461,70.1417135 L34.8423792,70.1417135 L34.8423792,65.7757371 C39.3853957,65.4673305 42.9984076,61.7120775 42.9984076,57.0920681 L42.9984076,24.4679546 L41.8243745,24.4679546 Z" id="Fill-5" fill="#FFFFFF"></path>
                <mask id="mask-4" fill="white">
                    <use xlink:href="#path-3"></use>
                </mask>
                <g id="Clip-8"></g>
            </g>
            <g id="Group-18-Copy-2" transform="translate(118.652482, 0.000000)">
                <path d="M91.3475177,45.6737589 C91.3475177,70.8987234 70.8987234,91.3475177 45.6737589,91.3475177 C20.4487943,91.3475177 0,70.8987234 0,45.6737589 C0,20.4487943 20.4487943,0 45.6737589,0 C70.8987234,0 91.3475177,20.4487943 91.3475177,45.6737589" id="Fill-1" fill="#DDDDDD"></path>
                <path d="M57.6792586,64.601704 L57.6792586,59.0634345 L64.6612539,55.0319641 L64.6612539,57.0920681 C64.6612539,61.0648151 61.5745778,64.2963423 57.6792586,64.601704 Z M49.5232303,57.0920681 L49.5232303,55.0319641 L56.5052255,59.0634345 L56.5052255,64.601704 C52.6099064,64.2963423 49.5232303,61.0648151 49.5232303,57.0920681 Z M56.5052255,34.6371083 L56.5052255,41.3937797 L49.5232303,37.3627442 L49.5232303,30.6065078 L56.5052255,34.6371083 Z M64.6612539,30.6065078 L64.6612539,37.3627442 L57.6792586,41.3937797 L57.6792586,34.6371083 L64.6612539,30.6065078 Z M64.6612539,45.648834 L57.6792586,49.6794345 L57.6792586,42.7513778 L64.6612539,38.7199073 L64.6612539,45.648834 Z M49.5232303,47.0059972 L56.5052255,51.0365976 L56.5052255,57.7058364 L49.5232303,53.6748009 L49.5232303,47.0059972 Z M56.5052255,49.6794345 L49.5232303,45.648834 L49.5232303,38.7199073 L56.5052255,42.7513778 L56.5052255,49.6794345 Z M64.6612539,53.6748009 L57.6792586,57.7058364 L57.6792586,51.0365976 L64.6612539,47.0059972 L64.6612539,53.6748009 Z M64.6612539,24.4679546 L64.6612539,29.2493447 L61.7572728,30.9257891 L61.7572728,22.8367489 L60.5832397,22.8367489 L60.5832397,31.6035007 L57.6792586,33.2799452 L57.6792586,21.2055433 L56.5052255,21.2055433 L56.5052255,33.2799452 L53.6012444,31.6035007 L53.6012444,22.8367489 L52.4272113,22.8367489 L52.4272113,30.9257891 L49.5232303,29.2493447 L49.5232303,24.4679546 L48.3491972,24.4679546 L48.3491972,57.0920681 C48.3491972,61.7120775 51.961774,65.4673305 56.5052255,65.7757371 L56.5052255,70.1417135 L57.6792586,70.1417135 L57.6792586,65.7757371 C62.2222752,65.4673305 65.835287,61.7120775 65.835287,57.0920681 L65.835287,24.4679546 L64.6612539,24.4679546 Z" id="Fill-3" fill="#000000"></path>
                <path d="M34.8423792,64.601704 L34.8423792,59.0634345 L41.8243745,55.0319641 L41.8243745,57.0920681 C41.8243745,61.0648151 38.7376983,64.2963423 34.8423792,64.601704 Z M26.6863508,57.0920681 L26.6863508,55.0319641 L33.6683461,59.0634345 L33.6683461,64.601704 C29.773027,64.2963423 26.6863508,61.0648151 26.6863508,57.0920681 Z M33.6683461,34.6371083 L33.6683461,41.3937797 L26.6863508,37.3627442 L26.6863508,30.6065078 L33.6683461,34.6371083 Z M41.8243745,30.6065078 L41.8243745,37.3627442 L34.8423792,41.3937797 L34.8423792,34.6371083 L41.8243745,30.6065078 Z M41.8243745,45.648834 L34.8423792,49.6794345 L34.8423792,42.7513778 L41.8243745,38.7199073 L41.8243745,45.648834 Z M26.6863508,47.0059972 L33.6683461,51.0365976 L33.6683461,57.7058364 L26.6863508,53.6748009 L26.6863508,47.0059972 Z M33.6683461,49.6794345 L26.6863508,45.648834 L26.6863508,38.7199073 L33.6683461,42.7513778 L33.6683461,49.6794345 Z M41.8243745,53.6748009 L34.8423792,57.7058364 L34.8423792,51.0365976 L41.8243745,47.0059972 L41.8243745,53.6748009 Z M41.8243745,24.4679546 L41.8243745,29.2493447 L38.9203934,30.9257891 L38.9203934,22.8367489 L37.7463603,22.8367489 L37.7463603,31.6035007 L34.8423792,33.2799452 L34.8423792,21.2055433 L33.6683461,21.2055433 L33.6683461,33.2799452 L30.764365,31.6035007 L30.764365,22.8367489 L29.5903319,22.8367489 L29.5903319,30.9257891 L26.6863508,29.2493447 L26.6863508,24.4679546 L25.5123177,24.4679546 L25.5123177,57.0920681 C25.5123177,61.7120775 29.1248946,65.4673305 33.6683461,65.7757371 L33.6683461,70.1417135 L34.8423792,70.1417135 L34.8423792,65.7757371 C39.3853957,65.4673305 42.9984076,61.7120775 42.9984076,57.0920681 L42.9984076,24.4679546 L41.8243745,24.4679546 Z" id="Fill-5" fill="#000000"></path>
                <mask id="mask-6" fill="white">
                    <use xlink:href="#path-5"></use>
                </mask>
                <g id="Clip-8"></g>
                <polygon id="Stroke-7" stroke="#0062FF" mask="url(#mask-6)" points="19.5744681 71.7730496 71.7730496 71.7730496 71.7730496 19.5744681 19.5744681 19.5744681"></polygon>
                <polygon id="Stroke-9" stroke="#0062FF" mask="url(#mask-6)" points="6.5248227 84.822695 84.822695 84.822695 84.822695 6.5248227 6.5248227 6.5248227"></polygon>
                <polygon id="Fill-10" fill="#FFFFFF" mask="url(#mask-6)" points="71.7730496 19.5744681 84.822695 19.5744681 84.822695 6.5248227 71.7730496 6.5248227"></polygon>
                <polygon id="Stroke-11" stroke="#0062FF" mask="url(#mask-6)" points="71.7730496 19.5744681 84.822695 19.5744681 84.822695 6.5248227 71.7730496 6.5248227"></polygon>
                <polygon id="Fill-12" fill="#FFFFFF" mask="url(#mask-6)" points="6.5248227 19.5744681 19.5744681 19.5744681 19.5744681 6.5248227 6.5248227 6.5248227"></polygon>
                <polygon id="Stroke-13" stroke="#0062FF" mask="url(#mask-6)" points="6.5248227 19.5744681 19.5744681 19.5744681 19.5744681 6.5248227 6.5248227 6.5248227"></polygon>
                <polygon id="Fill-14" fill="#FFFFFF" mask="url(#mask-6)" points="71.7730496 84.822695 84.822695 84.822695 84.822695 71.7730496 71.7730496 71.7730496"></polygon>
                <polygon id="Stroke-15" stroke="#0062FF" mask="url(#mask-6)" points="71.7730496 84.822695 84.822695 84.822695 84.822695 71.7730496 71.7730496 71.7730496"></polygon>
                <polygon id="Fill-16" fill="#FFFFFF" mask="url(#mask-6)" points="6.5248227 84.822695 19.5744681 84.822695 19.5744681 71.7730496 6.5248227 71.7730496"></polygon>
                <polygon id="Stroke-17" stroke="#0062FF" mask="url(#mask-6)" points="6.5248227 84.822695 19.5744681 84.822695 19.5744681 71.7730496 6.5248227 71.7730496"></polygon>
            </g>
            <g id="Group-18-Copy-4" transform="translate(118.652482, 110.709220)">
                <path d="M91.3475177,45.6737589 C91.3475177,70.8987234 70.8987234,91.3475177 45.6737589,91.3475177 C20.4487943,91.3475177 0,70.8987234 0,45.6737589 C0,20.4487943 20.4487943,0 45.6737589,0 C70.8987234,0 91.3475177,20.4487943 91.3475177,45.6737589" id="Fill-1" fill="#000000"></path>
                <path d="M57.6792586,64.601704 L57.6792586,59.0634345 L64.6612539,55.0319641 L64.6612539,57.0920681 C64.6612539,61.0648151 61.5745778,64.2963423 57.6792586,64.601704 Z M49.5232303,57.0920681 L49.5232303,55.0319641 L56.5052255,59.0634345 L56.5052255,64.601704 C52.6099064,64.2963423 49.5232303,61.0648151 49.5232303,57.0920681 Z M56.5052255,34.6371083 L56.5052255,41.3937797 L49.5232303,37.3627442 L49.5232303,30.6065078 L56.5052255,34.6371083 Z M64.6612539,30.6065078 L64.6612539,37.3627442 L57.6792586,41.3937797 L57.6792586,34.6371083 L64.6612539,30.6065078 Z M64.6612539,45.648834 L57.6792586,49.6794345 L57.6792586,42.7513778 L64.6612539,38.7199073 L64.6612539,45.648834 Z M49.5232303,47.0059972 L56.5052255,51.0365976 L56.5052255,57.7058364 L49.5232303,53.6748009 L49.5232303,47.0059972 Z M56.5052255,49.6794345 L49.5232303,45.648834 L49.5232303,38.7199073 L56.5052255,42.7513778 L56.5052255,49.6794345 Z M64.6612539,53.6748009 L57.6792586,57.7058364 L57.6792586,51.0365976 L64.6612539,47.0059972 L64.6612539,53.6748009 Z M64.6612539,24.4679546 L64.6612539,29.2493447 L61.7572728,30.9257891 L61.7572728,22.8367489 L60.5832397,22.8367489 L60.5832397,31.6035007 L57.6792586,33.2799452 L57.6792586,21.2055433 L56.5052255,21.2055433 L56.5052255,33.2799452 L53.6012444,31.6035007 L53.6012444,22.8367489 L52.4272113,22.8367489 L52.4272113,30.9257891 L49.5232303,29.2493447 L49.5232303,24.4679546 L48.3491972,24.4679546 L48.3491972,57.0920681 C48.3491972,61.7120775 51.961774,65.4673305 56.5052255,65.7757371 L56.5052255,70.1417135 L57.6792586,70.1417135 L57.6792586,65.7757371 C62.2222752,65.4673305 65.835287,61.7120775 65.835287,57.0920681 L65.835287,24.4679546 L64.6612539,24.4679546 Z" id="Fill-3" fill="#FFFFFF"></path>
                <path d="M34.8423792,64.601704 L34.8423792,59.0634345 L41.8243745,55.0319641 L41.8243745,57.0920681 C41.8243745,61.0648151 38.7376983,64.2963423 34.8423792,64.601704 Z M26.6863508,57.0920681 L26.6863508,55.0319641 L33.6683461,59.0634345 L33.6683461,64.601704 C29.773027,64.2963423 26.6863508,61.0648151 26.6863508,57.0920681 Z M33.6683461,34.6371083 L33.6683461,41.3937797 L26.6863508,37.3627442 L26.6863508,30.6065078 L33.6683461,34.6371083 Z M41.8243745,30.6065078 L41.8243745,37.3627442 L34.8423792,41.3937797 L34.8423792,34.6371083 L41.8243745,30.6065078 Z M41.8243745,45.648834 L34.8423792,49.6794345 L34.8423792,42.7513778 L41.8243745,38.7199073 L41.8243745,45.648834 Z M26.6863508,47.0059972 L33.6683461,51.0365976 L33.6683461,57.7058364 L26.6863508,53.6748009 L26.6863508,47.0059972 Z M33.6683461,49.6794345 L26.6863508,45.648834 L26.6863508,38.7199073 L33.6683461,42.7513778 L33.6683461,49.6794345 Z M41.8243745,53.6748009 L34.8423792,57.7058364 L34.8423792,51.0365976 L41.8243745,47.0059972 L41.8243745,53.6748009 Z M41.8243745,24.4679546 L41.8243745,29.2493447 L38.9203934,30.9257891 L38.9203934,22.8367489 L37.7463603,22.8367489 L37.7463603,31.6035007 L34.8423792,33.2799452 L34.8423792,21.2055433 L33.6683461,21.2055433 L33.6683461,33.2799452 L30.764365,31.6035007 L30.764365,22.8367489 L29.5903319,22.8367489 L29.5903319,30.9257891 L26.6863508,29.2493447 L26.6863508,24.4679546 L25.5123177,24.4679546 L25.5123177,57.0920681 C25.5123177,61.7120775 29.1248946,65.4673305 33.6683461,65.7757371 L33.6683461,70.1417135 L34.8423792,70.1417135 L34.8423792,65.7757371 C39.3853957,65.4673305 42.9984076,61.7120775 42.9984076,57.0920681 L42.9984076,24.4679546 L41.8243745,24.4679546 Z" id="Fill-5" fill="#FFFFFF"></path>
                <mask id="mask-8" fill="white">
                    <use xlink:href="#path-7"></use>
                </mask>
                <g id="Clip-8"></g>
            </g>
        </g>
    </g>
</svg>