<?xml version="1.0" encoding="UTF-8"?>
<svg width="288px" height="288px" viewBox="0 0 288 288" version="1.1" xmlns="http://www.w3.org/2000/svg" xmlns:xlink="http://www.w3.org/1999/xlink">
    <!-- Generator: Sketch 52.5 (67469) - http://www.bohemiancoding.com/sketch -->
    <title>Artboard Copy 69</title>
    <desc>Created with Sketch.</desc>
    <g id="Artboard-Copy-69" stroke="none" stroke-width="1" fill="none" fill-rule="evenodd">
        <rect id="Rectangle-3-Copy-55" fill="#FFFFFF" x="0" y="0" width="288" height="288"></rect>
        <g id="Group-24-Copy-2" transform="translate(16.000000, 80.000000)">
            <polygon id="Fill-1" fill="#FFFFFF" points="0 128 256 128 256 0 0 0"></polygon>
            <path d="M56.8888889,92.4444444 L113.777778,92.4444444 L113.777778,35.5555556 L56.8888889,35.5555556 L56.8888889,92.4444444 Z M42.6666667,21.3333333 L42.6666667,28.4444444 L42.6666667,35.5555556 L42.6666667,92.4444444 L42.6666667,99.5555556 L42.6666667,106.666667 L128,106.666667 L128,99.5555556 L128,92.4444444 L128,35.5555556 L128,28.4444444 L128,21.3333333 L42.6666667,21.3333333 Z" id="Fill-2" fill="#C9DEFF"></path>
            <path d="M142.222222,92.4444444 L199.111111,92.4444444 L199.111111,35.5555556 L142.222222,35.5555556 L142.222222,92.4444444 Z M128,21.3333333 L128,28.4444444 L128,35.5555556 L128,92.4444444 L128,99.5555556 L128,106.666667 L213.333333,106.666667 L213.333333,99.5555556 L213.333333,92.4444444 L213.333333,35.5555556 L213.333333,28.4444444 L213.333333,21.3333333 L128,21.3333333 Z" id="Fill-3" fill="#C9DEFF"></path>
            <polygon id="Fill-4" fill="#FFFFFF" points="56.8888889 92.4462222 113.777778 92.4462222 113.777778 35.5573333 56.8888889 35.5573333"></polygon>
            <g id="Group-23" transform="translate(57.912889, 36.579556)">
                <path d="M30.9872,1.39093333 C29.9792,1.39093333 28.9960889,1.9136 28.4574222,2.84515556 L23.1240889,12.0842667 C22.3205333,13.4780444 22.7987556,15.2647111 24.1907556,16.0682667 C24.8627556,16.4558222 25.6485333,16.5571556 26.4023111,16.3544889 C27.1578667,16.1536 27.7872,15.6700444 28.1729778,14.9998222 L33.5063111,5.76248889 C33.8938667,5.09048889 33.9969778,4.30648889 33.7943111,3.55093333 C33.5916444,2.79715556 33.1116444,2.16782222 32.4396444,1.78026667 C31.9827556,1.51537778 31.4814222,1.39093333 30.9872,1.39093333 M25.6343111,17.7358222 C24.9089778,17.7358222 24.1943111,17.5473778 23.5507556,17.1758222 C21.5472,16.0202667 20.8592,13.4478222 22.0165333,11.4442667 L27.3498667,2.20693333 C28.5054222,0.203377778 31.0760889,-0.4864 33.0796444,0.672711111 C34.0467556,1.22915556 34.7400889,2.13582222 35.0298667,3.22026667 C35.3214222,4.30648889 35.1738667,5.4336 34.6156444,6.40071111 L29.2823111,15.6398222 C28.7240889,16.6087111 27.8192,17.3002667 26.7329778,17.5900444 C26.3703111,17.6878222 26.0005333,17.7358222 25.6343111,17.7358222" id="Fill-5" fill="#000000"></path>
                <path d="M38.4568889,43.0766222 C37.952,43.0766222 37.4524444,43.2081778 36.9991111,43.4712889 C36.3217778,43.8606222 35.84,44.4881778 35.6391111,45.2366222 C35.4382222,45.9868444 35.5431111,46.7708444 35.9342222,47.4481778 C36.3253333,48.1237333 36.9511111,48.6072889 37.6995556,48.8081778 L37.7013333,48.8081778 L48.0035556,51.5672889 C48.752,51.7646222 49.5377778,51.6650667 50.2133333,51.2721778 C50.8906667,50.8828444 51.3742222,50.2552889 51.5751111,49.5068444 C51.9911111,47.9548444 51.0648889,46.3530667 49.5128889,45.9352889 L39.2088889,43.1761778 C38.9617778,43.1104 38.7093333,43.0766222 38.4568889,43.0766222 M48.7591111,52.9486222 C48.3964444,52.9486222 48.032,52.9006222 47.6728889,52.8046222 L37.3688889,50.0437333 C36.2897778,49.7557333 35.3866667,49.0606222 34.8248889,48.0864 C34.2631111,47.1139556 34.1137778,45.9850667 34.4017778,44.9059556 C34.6915556,43.8268444 35.3866667,42.9237333 36.3591111,42.3619556 C37.3333333,41.8001778 38.4622222,41.6490667 39.5413333,41.9388444 L49.8435556,44.6997333 C52.0782222,45.2988444 53.4097778,47.6046222 52.8106667,49.8375111 C52.5226667,50.9166222 51.8275556,51.8197333 50.8551111,52.3815111 C50.2044444,52.7566222 49.4862222,52.9486222 48.7591111,52.9486222" id="Fill-7" fill="#000000"></path>
                <path d="M9.65493333,29.4910222 C9.39893333,29.4910222 9.14293333,29.5265778 8.88871111,29.5941333 C8.13315556,29.7950222 7.50382222,30.2785778 7.11804444,30.9488 L1.78471111,40.1861333 C1.39537778,40.8581333 1.29404444,41.6421333 1.49671111,42.3976889 C1.69937778,43.1514667 2.17937778,43.7808 2.85137778,44.1683556 C4.24337778,44.9719111 6.03004444,44.4936889 6.8336,43.1034667 L12.1669333,33.8643556 C12.9704889,32.4705778 12.4922667,30.6839111 11.1002667,29.8803556 C10.6540444,29.6243556 10.1580444,29.4910222 9.65493333,29.4910222 Z M4.30204444,45.8376889 C3.59093333,45.8376889 2.86915556,45.6563556 2.21137778,45.2759111 C1.24426667,44.7194667 0.550933333,43.8128 0.261155556,42.7283556 C-0.0304,41.6421333 0.117155556,40.5132444 0.675377778,39.5479111 L6.00871111,30.3088 C6.56693333,29.3399111 7.47182222,28.6483556 8.55804444,28.3585778 C9.64248889,28.0688 10.7731556,28.2145778 11.7402667,28.7728 C13.7438222,29.9283556 14.4318222,32.5008 13.2762667,34.5043556 L7.94293333,43.7416889 C7.16604444,45.0856889 5.75271111,45.8376889 4.30204444,45.8376889 Z" id="Fill-9" fill="#000000"></path>
                <path d="M43.4168889,20.9464889 C42.9226667,20.9464889 42.4213333,21.0709333 41.9644444,21.3358222 C41.2924444,21.7233778 40.8124444,22.3527111 40.6097778,23.1064889 C40.4071111,23.8620444 40.5084444,24.6460444 40.8977778,25.3180444 L46.2311111,34.5553778 C46.6168889,35.2256 47.2462222,35.7091556 48.0017778,35.9100444 C48.7555556,36.1127111 49.5413333,36.0113778 50.2133333,35.6238222 C51.6053333,34.8202667 52.0835556,33.0336 51.28,31.6398222 L45.9466667,22.4007111 C45.408,21.4691556 44.4248889,20.9464889 43.4168889,20.9464889 M48.7697778,37.2913778 C48.4035556,37.2913778 48.0337778,37.2433778 47.6711111,37.1456 C46.5848889,36.8558222 45.68,36.1642667 45.1217778,35.1953778 L39.7884444,25.9562667 C39.2302222,24.9909333 39.0826667,23.8620444 39.3742222,22.7758222 C39.664,21.6913778 40.3573333,20.7847111 41.3244444,20.2282667 C43.3262222,19.0691556 45.8986667,19.7607111 47.0542222,21.7624889 L52.3875556,30.9998222 C53.5448889,33.0033778 52.8568889,35.5758222 50.8533333,36.7313778 C50.2097778,37.1029333 49.4951111,37.2913778 48.7697778,37.2913778" id="Fill-11" fill="#000000"></path>
                <path d="M15.3214222,6.72426667 C14.8272,6.72426667 14.3258667,6.84871111 13.8689778,7.1136 L4.62986667,12.4469333 C3.95964444,12.8344889 3.47786667,13.4638222 3.27697778,14.2176 C3.07431111,14.9731556 3.17564444,15.7571556 3.5632,16.4291556 C3.95075556,17.0993778 4.58008889,17.5811556 5.33564444,17.7838222 C6.08942222,17.9864889 6.8752,17.8851556 7.54542222,17.4976 L16.7845333,12.1642667 C18.1747556,11.3589333 18.6547556,9.57404444 17.8512,8.17848889 C17.3125333,7.24693333 16.3294222,6.72426667 15.3214222,6.72426667 M6.10186667,19.1651556 C5.73564444,19.1651556 5.36764444,19.1171556 5.0032,19.0193778 C3.91875556,18.7296 3.01386667,18.0362667 2.45564444,17.0673778 C1.89564444,16.1020444 1.74986667,14.9731556 2.03964444,13.8869333 C2.3312,12.8024889 3.02453333,11.8958222 3.98986667,11.3393778 L13.2289778,6.00604444 C15.2307556,4.84693333 17.8032,5.53848889 18.9587556,7.54026667 C20.1160889,9.54382222 19.4263111,12.1144889 17.4245333,13.2718222 L8.18542222,18.6051556 C7.54364444,18.9767111 6.82897778,19.1651556 6.10186667,19.1651556" id="Fill-13" fill="#000000"></path>
                <path d="M22.4309333,42.2849778 C21.9367111,42.2849778 21.4353778,42.4094222 20.9767111,42.6743111 L11.7393778,48.0076444 C11.0691556,48.3952 10.5873778,49.0245333 10.3864889,49.7783111 C10.1838222,50.5338667 10.2851556,51.3178667 10.6727111,51.9898667 C11.0602667,52.6600889 11.6896,53.1418667 12.4433778,53.3445333 C13.1989333,53.5472 13.9847111,53.4440889 14.6549333,53.0583111 L23.8922667,47.7249778 C25.2842667,46.9196444 25.7642667,45.1347556 24.9607111,43.7392 C24.4202667,42.8076444 23.4389333,42.2849778 22.4309333,42.2849778 M13.2113778,54.7258667 C12.8451556,54.7258667 12.4771556,54.6778667 12.1127111,54.5800889 C11.0264889,54.2903111 10.1216,53.5969778 9.56337778,52.6280889 C9.00515556,51.6609778 8.8576,50.5338667 9.14915556,49.4476444 C9.44071111,48.3632 10.1340444,47.4565333 11.0993778,46.9000889 L20.3367111,41.5667556 C22.3384889,40.4094222 24.9109333,41.0974222 26.0682667,43.1009778 C27.2256,45.1045333 26.5358222,47.6752 24.5322667,48.8325333 L15.2949333,54.1658667 C14.6531556,54.5374222 13.9384889,54.7258667 13.2113778,54.7258667" id="Fill-15" fill="#000000"></path>
                <path d="M41.3050667,4.94648889 C40.2970667,4.94648889 39.3157333,5.46915556 38.7752889,6.40071111 C37.9717333,7.79626667 38.4517333,9.58115556 39.8437333,10.3864889 L49.0810667,15.7198222 C49.7512889,16.1056 50.5388444,16.2087111 51.2926222,16.0060444 C52.0464,15.8033778 52.6757333,15.3216 53.0632889,14.6513778 C53.4508444,13.9793778 53.5539556,13.1953778 53.3495111,12.4398222 C53.1486222,11.6860444 52.6668444,11.0567111 51.9966222,10.6691556 L42.7592889,5.33582222 C42.3006222,5.07093333 41.7992889,4.94648889 41.3050667,4.94648889 M50.5246222,17.3873778 C49.7975111,17.3873778 49.0828444,17.1989333 48.4410667,16.8273778 L39.2037333,11.4940444 C37.2001778,10.3367111 36.5104,7.76604444 37.6677333,5.76248889 C38.8232889,3.75893333 41.3939556,3.07093333 43.3992889,4.22826667 L52.6366222,9.5616 C53.6019556,10.1180444 54.2970667,11.0247111 54.5868444,12.1091556 C54.8784,13.1953778 54.7308444,14.3242667 54.1726222,15.2896 C53.6144,16.2584889 52.7095111,16.9518222 51.6232889,17.2416 C51.2588444,17.3393778 50.8908444,17.3873778 50.5246222,17.3873778" id="Fill-17" fill="#000000"></path>
                <path d="M21.7573333,24.5072 C21.5013333,24.5072 21.2453333,24.5427556 20.9911111,24.6103111 C20.2373333,24.8112 19.608,25.2929778 19.2204444,25.9632 C18.8328889,26.6352 18.7315556,27.4209778 18.9342222,28.1747556 C19.1351111,28.9285333 19.6168889,29.5596444 20.2871111,29.9472 L29.5244444,35.2805333 C30.9182222,36.0840889 32.7048889,35.6040889 33.5084444,34.2138667 C34.312,32.8200889 33.832,31.0334222 32.44,30.2298667 L23.2026667,24.8965333 C22.7564444,24.6387556 22.2622222,24.5072 21.7573333,24.5072 M30.9768889,36.9480889 C30.264,36.9480889 29.544,36.7667556 28.8844444,36.3880889 L19.6471111,31.0547556 C18.6817778,30.4965333 17.9884444,29.5898667 17.6968889,28.5054222 C17.4053333,27.4209778 17.5528889,26.2920889 18.1111111,25.3249778 C18.6693333,24.3560889 19.5742222,23.6627556 20.6604444,23.3729778 C21.7466667,23.0832 22.8755556,23.2289778 23.8426667,23.7889778 L33.08,29.1223111 C35.0835556,30.2778667 35.7733333,32.8485333 34.616,34.8520889 C33.8391111,36.1960889 32.4275556,36.9480889 30.9768889,36.9480889" id="Fill-19" fill="#000000"></path>
                <path d="M115.867556,41.4309333 L116.084444,41.3420444 C117.672,40.6967111 118.697778,39.1713778 118.697778,37.4593778 L118.701333,33.4380444 C118.704889,30.1616 116.182222,27.3633778 113.078222,27.1998222 C111.414222,27.1216 109.860444,27.6904889 108.667556,28.8211556 C107.471111,29.9553778 106.813333,31.4860444 106.813333,33.1340444 L106.811556,37.4504889 C106.809778,39.1696 107.839111,40.6967111 109.433778,41.3420444 L109.648889,41.4309333 L109.648889,50.5153778 L110.928889,50.5153778 L110.928889,41.0042667 C110.928889,40.7429333 110.706667,40.4744889 110.463111,40.3767111 L109.912,40.1544889 C108.804444,39.7064889 108.089778,38.6469333 108.089778,37.4504889 L108.093333,33.1340444 C108.093333,31.8416 108.608889,30.6416 109.547556,29.7509333 C110.486222,28.8620444 111.728889,28.4460444 113.010667,28.4780444 C115.444444,28.6060444 117.423111,30.8300444 117.421333,33.4380444 L117.419556,37.4593778 C117.417778,38.6504889 116.704889,39.7082667 115.602667,40.1562667 L114.987556,40.4069333 C114.745778,40.5047111 114.587556,40.7393778 114.587556,41.0007111 L114.587556,50.5153778 L115.867556,50.5153778 L115.867556,41.4309333 Z M95.6151111,53.4451556 L129.890667,53.4451556 L129.890667,13.8380444 L95.6151111,13.8380444 L95.6151111,53.4451556 Z M131.170667,54.0869333 L131.170667,13.1980444 C131.170667,12.8442667 130.884444,12.5580444 130.532444,12.5580444 L94.9768889,12.5580444 C94.6231111,12.5580444 94.3368889,12.8442667 94.3368889,13.1980444 L94.3368889,54.0869333 C94.3368889,54.4407111 94.6231111,54.7269333 94.9768889,54.7269333 L130.532444,54.7269333 C130.884444,54.7269333 131.170667,54.4407111 131.170667,54.0869333 Z M114.781333,21.1980444 C114.781333,22.3162667 113.871111,23.2247111 112.754667,23.2247111 C111.636444,23.2247111 110.726222,22.3162667 110.726222,21.1980444 C110.726222,20.0798222 111.636444,19.1713778 112.754667,19.1713778 C113.871111,19.1713778 114.781333,20.0798222 114.781333,21.1980444 Z M116.059556,21.1980444 C116.059556,19.3758222 114.576889,17.8913778 112.754667,17.8913778 C110.930667,17.8913778 109.448,19.3758222 109.448,21.1980444 C109.448,23.0220444 110.930667,24.5047111 112.754667,24.5047111 C114.576889,24.5047111 116.059556,23.0220444 116.059556,21.1980444 Z M111.437333,7.42026667 L105.643556,1.62648889 L99.9191111,7.35093333 L100.824,8.2576 L105.643556,3.43626667 L110.532444,8.32693333 L111.437333,7.42026667 Z M125.712889,2.92426667 L124.808,2.0176 L119.865778,6.95982222 L114.992889,2.08693333 L114.088,2.9936 L119.865778,8.7696 L125.712889,2.92426667 Z M138.779556,54.0869333 L140.059556,54.0869333 L140.059556,0.7536 L138.779556,0.7536 L138.779556,54.0869333 Z M85.4462222,54.0869333 L86.7262222,54.0869333 L86.7262222,0.7536 L85.4462222,0.7536 L85.4462222,54.0869333 Z" id="Fill-21" fill="#171717"></path>
            </g>
        </g>
        <path d="M58.5084746,197.25 L58.5084746,199 L58,199 L58,195 L58.5084746,195 L58.5084746,196.75 L72.4915254,196.75 L72.4915254,195 L73,195 L73,199 L72.4915254,199 L72.4915254,197.25 L58.5084746,197.25 Z" id="Combined-Shape-Copy-12" fill="#97C1FF" fill-rule="nonzero"></path>
        <path d="M59.056,215 L59.056,214.112 L61.396,214.112 L61.396,207.536 L59.032,208.94 L58.636,208.172 L61.3,206.624 L62.404,206.624 L62.404,214.112 L64.564,214.112 L64.564,215 L59.056,215 Z M65.308,216.812 L68.44,206.12 L69.304,206.12 L66.172,216.812 L65.308,216.812 Z M74.296,215 L74.296,213.356 L70.252,213.356 L70.252,212.468 L73.756,206.624 L75.256,206.624 L75.256,212.516 L76.468,212.516 L76.468,213.356 L75.256,213.356 L75.256,215 L74.296,215 Z M71.2,212.516 L74.296,212.516 L74.296,207.404 L74.236,207.404 L71.2,212.516 Z M86.068,215.684 C86.068,216.324003 85.8180025,216.793998 85.318,217.094 C84.8179975,217.394002 84.068005,217.544 83.068,217.544 C82.0999952,217.544 81.4040021,217.412001 80.98,217.148 C80.5559979,216.883999 80.344,216.508002 80.344,216.02 C80.344,215.683998 80.4319991,215.422001 80.608,215.234 C80.7840009,215.045999 81.0239985,214.908 81.328,214.82 L81.328,214.688 C80.9599982,214.511999 80.776,214.224002 80.776,213.824 C80.776,213.511998 80.875999,213.274001 81.076,213.11 C81.276001,212.945999 81.5319984,212.824 81.844,212.744 L81.844,212.696 C81.4759982,212.519999 81.190001,212.268002 80.986,211.94 C80.781999,211.611998 80.68,211.232002 80.68,210.8 C80.68,210.487998 80.7359994,210.200001 80.848,209.936 C80.9600006,209.671999 81.117999,209.446001 81.322,209.258 C81.526001,209.069999 81.7699986,208.924001 82.054,208.82 C82.3380014,208.715999 82.6559982,208.664 83.008,208.664 C83.4480022,208.664 83.8399983,208.743999 84.184,208.904 L84.184,208.796 C84.184,208.555999 84.2399994,208.356001 84.352,208.196 C84.4640006,208.035999 84.6479987,207.96 84.904,207.968 L85.828,207.968 L85.828,208.808 L84.652,208.808 L84.652,209.204 C84.8760011,209.396001 85.0499994,209.625999 85.174,209.894 C85.2980006,210.162001 85.36,210.463998 85.36,210.8 C85.36,211.112002 85.3040006,211.399999 85.192,211.664 C85.0799994,211.928001 84.922001,212.153999 84.718,212.342 C84.513999,212.530001 84.2680014,212.675999 83.98,212.78 C83.6919986,212.884001 83.3720018,212.936 83.02,212.936 C82.819999,212.936 82.620001,212.916 82.42,212.876 C82.211999,212.932 82.0240008,213.013999 81.856,213.122 C81.6879992,213.230001 81.604,213.379999 81.604,213.572 C81.604,213.756001 81.6919991,213.88 81.868,213.944 C82.0440009,214.008 82.2719986,214.04 82.552,214.04 L83.872,214.04 C84.6400038,214.04 85.1979983,214.185999 85.546,214.478 C85.8940017,214.770001 86.068,215.171997 86.068,215.684 Z M85.168,215.756 C85.168,215.507999 85.0740009,215.310001 84.886,215.162 C84.6979991,215.013999 84.3640024,214.94 83.884,214.94 L81.82,214.94 C81.4359981,215.116001 81.244,215.395998 81.244,215.78 C81.244,216.052001 81.345999,216.283999 81.55,216.476 C81.754001,216.668001 82.0999976,216.764 82.588,216.764 L83.476,216.764 C84.0120027,216.764 84.4279985,216.680001 84.724,216.512 C85.0200015,216.343999 85.168,216.092002 85.168,215.756 Z M83.02,212.168 C83.428002,212.168 83.7519988,212.070001 83.992,211.874 C84.2320012,211.677999 84.352,211.376002 84.352,210.968 L84.352,210.632 C84.352,210.223998 84.2320012,209.922001 83.992,209.726 C83.7519988,209.529999 83.428002,209.432 83.02,209.432 C82.611998,209.432 82.2880012,209.529999 82.048,209.726 C81.8079988,209.922001 81.688,210.223998 81.688,210.632 L81.688,210.968 C81.688,211.376002 81.8079988,211.677999 82.048,211.874 C82.2880012,212.070001 82.611998,212.168 83.02,212.168 Z M87.184,215 L87.184,208.808 L88.144,208.808 L88.144,209.948 L88.204,209.948 C88.3160006,209.651999 88.5159986,209.388001 88.804,209.156 C89.0920014,208.923999 89.4879975,208.808 89.992,208.808 L90.364,208.808 L90.364,209.768 L89.8,209.768 C89.2799974,209.768 88.8740015,209.865999 88.582,210.062 C88.2899985,210.258001 88.144,210.503999 88.144,210.8 L88.144,215 L87.184,215 Z M92.068,207.356 C91.859999,207.356 91.7100005,207.306001 91.618,207.206 C91.5259995,207.105999 91.48,206.976001 91.48,206.816 L91.48,206.66 C91.48,206.499999 91.5259995,206.370001 91.618,206.27 C91.7100005,206.169999 91.859999,206.12 92.068,206.12 C92.276001,206.12 92.4259995,206.169999 92.518,206.27 C92.6100005,206.370001 92.656,206.499999 92.656,206.66 L92.656,206.816 C92.656,206.976001 92.6100005,207.105999 92.518,207.206 C92.4259995,207.306001 92.276001,207.356 92.068,207.356 Z M91.588,208.808 L92.548,208.808 L92.548,215 L91.588,215 L91.588,208.808 Z M98.548,213.992 L98.5,213.992 C98.1239981,214.760004 97.5200042,215.144 96.688,215.144 C96.3039981,215.144 95.9560016,215.068001 95.644,214.916 C95.3319984,214.763999 95.0660011,214.548001 94.846,214.268 C94.6259989,213.987999 94.4580006,213.648002 94.342,213.248 C94.2259994,212.847998 94.168,212.400002 94.168,211.904 C94.168,211.407998 94.2259994,210.960002 94.342,210.56 C94.4580006,210.159998 94.6259989,209.820001 94.846,209.54 C95.0660011,209.259999 95.3319984,209.044001 95.644,208.892 C95.9560016,208.739999 96.3039981,208.664 96.688,208.664 C97.1200022,208.664 97.4899985,208.757999 97.798,208.946 C98.1060015,209.134001 98.3399992,209.423998 98.5,209.816 L98.548,209.816 L98.548,206.12 L99.508,206.12 L99.508,215 L98.548,215 L98.548,213.992 Z M96.952,214.28 C97.1680011,214.28 97.373999,214.252 97.57,214.196 C97.766001,214.14 97.9359993,214.058001 98.08,213.95 C98.2240007,213.841999 98.3379996,213.710001 98.422,213.554 C98.5060004,213.397999 98.548,213.220001 98.548,213.02 L98.548,210.716 C98.548,210.547999 98.5060004,210.390001 98.422,210.242 C98.3379996,210.093999 98.2240007,209.968001 98.08,209.864 C97.9359993,209.759999 97.766001,209.678 97.57,209.618 C97.373999,209.558 97.1680011,209.528 96.952,209.528 C96.4079973,209.528 95.9800016,209.697998 95.668,210.038 C95.3559984,210.378002 95.2,210.823997 95.2,211.376 L95.2,212.432 C95.2,212.984003 95.3559984,213.429998 95.668,213.77 C95.9800016,214.110002 96.4079973,214.28 96.952,214.28 Z M103.732,208.808 L104.668,208.808 L105.328,211.484 L105.988,214.196 L106.012,214.196 L106.768,211.484 L107.548,208.808 L108.4,208.808 L109.204,211.484 L109.972,214.196 L109.996,214.196 L110.632,211.484 L111.304,208.808 L112.204,208.808 L110.56,215 L109.372,215 L108.508,212.024 L107.968,210.14 L107.944,210.14 L107.416,212.024 L106.552,215 L105.388,215 L103.732,208.808 Z M114.076,207.356 C113.867999,207.356 113.718,207.306001 113.626,207.206 C113.534,207.105999 113.488,206.976001 113.488,206.816 L113.488,206.66 C113.488,206.499999 113.534,206.370001 113.626,206.27 C113.718,206.169999 113.867999,206.12 114.076,206.12 C114.284001,206.12 114.434,206.169999 114.526,206.27 C114.618,206.370001 114.664,206.499999 114.664,206.66 L114.664,206.816 C114.664,206.976001 114.618,207.105999 114.526,207.206 C114.434,207.306001 114.284001,207.356 114.076,207.356 Z M113.596,208.808 L114.556,208.808 L114.556,215 L113.596,215 L113.596,208.808 Z M120.556,213.992 L120.508,213.992 C120.131998,214.760004 119.528004,215.144 118.696,215.144 C118.311998,215.144 117.964002,215.068001 117.652,214.916 C117.339998,214.763999 117.074001,214.548001 116.854,214.268 C116.633999,213.987999 116.466001,213.648002 116.35,213.248 C116.233999,212.847998 116.176,212.400002 116.176,211.904 C116.176,211.407998 116.233999,210.960002 116.35,210.56 C116.466001,210.159998 116.633999,209.820001 116.854,209.54 C117.074001,209.259999 117.339998,209.044001 117.652,208.892 C117.964002,208.739999 118.311998,208.664 118.696,208.664 C119.128002,208.664 119.497998,208.757999 119.806,208.946 C120.114002,209.134001 120.347999,209.423998 120.508,209.816 L120.556,209.816 L120.556,206.12 L121.516,206.12 L121.516,215 L120.556,215 L120.556,213.992 Z M118.96,214.28 C119.176001,214.28 119.381999,214.252 119.578,214.196 C119.774001,214.14 119.943999,214.058001 120.088,213.95 C120.232001,213.841999 120.346,213.710001 120.43,213.554 C120.514,213.397999 120.556,213.220001 120.556,213.02 L120.556,210.716 C120.556,210.547999 120.514,210.390001 120.43,210.242 C120.346,210.093999 120.232001,209.968001 120.088,209.864 C119.943999,209.759999 119.774001,209.678 119.578,209.618 C119.381999,209.558 119.176001,209.528 118.96,209.528 C118.415997,209.528 117.988002,209.697998 117.676,210.038 C117.363998,210.378002 117.208,210.823997 117.208,211.376 L117.208,212.432 C117.208,212.984003 117.363998,213.429998 117.676,213.77 C117.988002,214.110002 118.415997,214.28 118.96,214.28 Z M124.924,215 C124.587998,215 124.334001,214.906001 124.162,214.718 C123.989999,214.529999 123.904,214.284002 123.904,213.98 L123.904,209.648 L122.884,209.648 L122.884,208.808 L123.46,208.808 C123.668001,208.808 123.81,208.766 123.886,208.682 C123.962,208.598 124,208.452001 124,208.244 L124,207.092 L124.864,207.092 L124.864,208.808 L126.22,208.808 L126.22,209.648 L124.864,209.648 L124.864,214.16 L126.124,214.16 L126.124,215 L124.924,215 Z M127.768,206.12 L128.728,206.12 L128.728,209.816 L128.776,209.816 C128.928001,209.463998 129.141999,209.184001 129.418,208.976 C129.694001,208.767999 130.063998,208.664 130.528,208.664 C131.168003,208.664 131.673998,208.869998 132.046,209.282 C132.418002,209.694002 132.604,210.275996 132.604,211.028 L132.604,215 L131.644,215 L131.644,211.196 C131.644,210.083994 131.176005,209.528 130.24,209.528 C130.047999,209.528 129.862001,209.552 129.682,209.6 C129.501999,209.648 129.340001,209.72 129.196,209.816 C129.051999,209.912 128.938,210.033999 128.854,210.182 C128.77,210.330001 128.728,210.503999 128.728,210.704 L128.728,215 L127.768,215 L127.768,206.12 Z" id="1/4-grid-width-copy-3" fill="#6F6F6F"></path>
    </g>
</svg>