<?xml version="1.0" encoding="UTF-8"?>
<svg width="928px" height="522px" viewBox="0 0 928 522" version="1.1" xmlns="http://www.w3.org/2000/svg" xmlns:xlink="http://www.w3.org/1999/xlink">
    <!-- Generator: Sketch 52.5 (67469) - http://www.bohemiancoding.com/sketch -->
    <title>Artboard Copy 15</title>
    <desc>Created with Sketch.</desc>
    <defs>
        <polygon id="path-1" points="0 250 500 250 500 0 0 0"></polygon>
    </defs>
    <g id="Artboard-Copy-15" stroke="none" stroke-width="1" fill="none" fill-rule="evenodd">
        <rect id="Rectangle-3-Copy-45" fill="#FFFFFF" x="0" y="0" width="928" height="522"></rect>
        <g id="Group-14-Copy" transform="translate(214.000000, 136.000000)">
            <polygon id="Fill-1" fill="#FFFFFF" points="0 250 500 250 500 0 0 0"></polygon>
            <polygon id="Fill-2" fill="#C9DEFF" points="27.7777778 236.111111 250 236.111111 250 13.8888889 27.7777778 13.8888889"></polygon>
            <polygon id="Fill-3" fill="#F3F3F3" points="250 236.111111 472.222222 236.111111 472.222222 13.8888889 250 13.8888889"></polygon>
            <polygon id="Fill-4" fill="#000000" points="277.777778 208.333333 444.444444 208.333333 444.444444 41.6666667 277.777778 41.6666667"></polygon>
            <g id="Group-13">
                <path d="M411.944792,114.583333 C411.944792,117.722222 409.389236,120.277778 406.250347,120.277778 C403.111458,120.277778 400.555903,117.722222 400.555903,114.583333 L400.555903,93.75 C400.555903,93.0590278 399.996875,92.5 399.305903,92.5 C398.614931,92.5 398.055903,93.0590278 398.055903,93.75 L398.055903,114.583333 C398.055903,117.722222 395.500347,120.277778 392.361458,120.277778 C389.222569,120.277778 386.667014,117.722222 386.667014,114.583333 L386.667014,93.75 C386.667014,93.0590278 386.107986,92.5 385.417014,92.5 C384.726042,92.5 384.167014,93.0590278 384.167014,93.75 L384.167014,114.583333 C384.167014,117.722222 381.611458,120.277778 378.472569,120.277778 C375.333681,120.277778 372.778125,117.722222 372.778125,114.583333 L372.778125,93.75 C372.778125,93.0590278 372.219097,92.5 371.528125,92.5 C370.837153,92.5 370.278125,93.0590278 370.278125,93.75 L370.278125,135.416667 C370.278125,138.555556 367.722569,141.111111 364.583681,141.111111 C361.444792,141.111111 358.889236,138.555556 358.889236,135.416667 L358.889236,83.4722222 C358.889236,78.3402778 363.101042,74.1666667 368.274653,74.1666667 L402.555903,74.1666667 C407.732986,74.1666667 411.944792,78.3402778 411.944792,83.4722222 L411.944792,114.583333 Z M356.389236,109.708333 L356.101042,110.239583 C354.406597,113.142361 350.649653,114.145833 347.719097,112.46875 C346.298958,111.652778 345.285069,110.340278 344.861458,108.770833 C344.441319,107.208333 344.660069,105.576389 345.472569,104.173611 L356.389236,85.3194444 L356.389236,109.708333 Z M402.555903,71.6666667 L368.274653,71.6666667 C363.913542,71.6666667 360.132292,74.0381944 358.062847,77.5277778 C358.010764,77.5902778 357.944792,77.6354167 357.903125,77.7118056 L343.309375,102.920139 C342.160069,104.899306 341.851042,107.208333 342.448264,109.420139 C343.045486,111.635417 344.476042,113.493056 346.479514,114.638889 C347.830208,115.409722 349.305903,115.777778 350.764236,115.777778 C352.816319,115.777778 354.802431,115 356.389236,113.645833 L356.389236,135.489583 C356.389236,135.517361 356.403125,135.538194 356.403125,135.565972 C356.486458,140.013889 360.114931,143.611111 364.583681,143.611111 C369.101042,143.611111 372.778125,139.9375 372.778125,135.416667 L372.778125,120.454861 C374.253819,121.888889 376.257292,122.777778 378.472569,122.777778 C381.410069,122.777778 383.969097,121.211806 385.417014,118.881944 C386.861458,121.211806 389.423958,122.777778 392.361458,122.777778 C395.298958,122.777778 397.857986,121.211806 399.305903,118.881944 C400.750347,121.211806 403.312847,122.777778 406.250347,122.777778 C410.767708,122.777778 414.444792,119.104167 414.444792,114.583333 L414.444792,83.4722222 C414.444792,76.9618056 409.111458,71.6666667 402.555903,71.6666667 Z" id="Fill-5" fill="#FFFFFF"></path>
                <path d="M334.347222,164.825347 L318.430556,164.825347 L310.472222,151.040625 L318.430556,137.259375 L332.902778,137.259375 L327.909722,145.908681 L330.076389,147.155208 L335.069444,138.509375 L342.305556,151.040625 L334.347222,164.825347 Z M336.513889,136.005903 L342.229167,126.106597 L340.0625,124.856597 L334.347222,134.755903 L317.708333,134.755903 C317.263889,134.755903 316.847222,134.995486 316.625,135.384375 L307.944444,150.419097 C307.722222,150.804514 307.722222,151.280208 307.944444,151.665625 L316.263889,166.075347 L311.416667,174.471181 L313.583333,175.721181 L318.427083,167.328819 L335.069444,167.328819 C335.513889,167.328819 335.930556,167.085764 336.152778,166.700347 L344.833333,151.665625 C345.055556,151.280208 345.055556,150.804514 344.833333,150.419097 L336.513889,136.005903 Z" id="Fill-7" fill="#FFFFFF"></path>
                <mask id="mask-2" fill="white">
                    <use xlink:href="#path-1"></use>
                </mask>
                <g id="Clip-10"></g>
                <polygon id="Fill-9" fill="#000000" mask="url(#mask-2)" points="55.5555556 208.333333 222.222222 208.333333 222.222222 41.6666667 55.5555556 41.6666667"></polygon>
                <path d="M189.724306,120.330903 L166.213889,120.330903 L189.724306,96.8204861 L189.724306,120.330903 Z M189.724306,148.108681 L166.213889,148.108681 L189.724306,124.598264 L189.724306,148.108681 Z M189.724306,175.886458 L166.213889,175.886458 L189.724306,152.376042 L189.724306,175.886458 Z M164.446528,150.612153 L187.953472,150.612153 L164.446528,174.119097 L164.446528,150.612153 Z M164.446528,122.834375 L187.953472,122.834375 L164.446528,146.341319 L164.446528,122.834375 Z M161.946528,148.108681 L138.436111,148.108681 L161.946528,124.598264 L161.946528,148.108681 Z M161.946528,175.886458 L138.436111,175.886458 L161.946528,152.376042 L161.946528,175.886458 Z M136.66875,150.612153 L160.175694,150.612153 L136.66875,174.119097 L136.66875,150.612153 Z M134.16875,175.886458 L110.658333,175.886458 L134.16875,152.376042 L134.16875,175.886458 Z M191.453472,92.646875 C190.984722,92.4663194 190.446528,92.5635417 190.088889,92.9177083 L162.311111,120.695486 L134.533333,148.473264 L106.755556,176.251042 C106.397917,176.612153 106.29375,177.146875 106.484722,177.615625 C106.679167,178.084375 107.134028,178.389931 107.640972,178.389931 L135.41875,178.389931 L163.196528,178.389931 L190.974306,178.389931 C191.665278,178.389931 192.224306,177.830903 192.224306,177.136458 L192.224306,149.358681 L192.224306,121.580903 L192.224306,93.803125 C192.224306,93.2996528 191.91875,92.8413194 191.453472,92.646875 Z" id="Fill-11" fill="#FFFFFF" mask="url(#mask-2)"></path>
                <path d="M91.6121528,114.013542 C91.3378472,113.537847 91.1121528,113.048264 90.8690972,112.562153 L105.688542,121.117708 L106.942014,118.954514 L89.3135417,108.777431 C86.8586806,101.055208 88.1399306,92.7114583 92.4975694,86.1142361 L92.4975694,103.211458 L94.9975694,103.211458 L94.9975694,82.8642361 C96.7892361,80.9024306 98.9003472,79.1732639 101.320486,77.7739583 C106.014931,75.065625 111.198958,73.9684028 116.237153,74.2947917 L101.389931,82.8642361 L102.639931,85.0274306 L120.226736,74.878125 C127.271875,76.4128472 133.678125,80.7635417 137.556597,87.4822917 C137.834375,87.9614583 138.063542,88.4545139 138.310069,88.940625 L123.494097,80.3885417 L122.244097,82.5517361 L139.862153,92.7253472 C141.389931,97.5135417 141.542708,102.645486 140.209375,107.614236 C139.452431,110.440625 138.240625,113.055208 136.674653,115.416319 L136.674653,98.3017361 L134.174653,98.3017361 L134.174653,118.638542 C132.358681,120.617708 130.240625,122.339931 127.848264,123.725347 C123.247569,126.385069 118.073958,127.579514 112.886458,127.235764 L127.782292,118.635069 L126.532292,116.471875 L108.928125,126.635069 C108.525347,126.544792 108.119097,126.482292 107.719792,126.374653 C100.876042,124.537847 95.1538194,120.152431 91.6121528,114.013542 M114.632986,129.791319 C119.664236,129.791319 124.626042,128.471875 129.098264,125.888542 C135.813542,122.013542 140.619097,115.753125 142.622569,108.263542 C144.632986,100.773958 143.601736,92.9510417 139.723264,86.2357639 C131.719792,72.3746528 113.935069,67.6003472 100.070486,75.6107639 C93.3552083,79.4892361 88.553125,85.7461806 86.5461806,93.2392361 C84.5392361,100.725347 85.5704861,108.548264 89.4454861,115.260069 C93.3239583,121.978819 99.584375,126.784375 107.073958,128.787847 C109.573958,129.457986 112.112153,129.791319 114.632986,129.791319" id="Fill-12" fill="#FFFFFF" mask="url(#mask-2)"></path>
            </g>
        </g>
        <path d="M243.016949,393.5 L243.016949,397 L242,397 L242,389 L243.016949,389 L243.016949,392.5 L270.983051,392.5 L270.983051,389 L272,389 L272,397 L270.983051,397 L270.983051,393.5 L243.016949,393.5 Z" id="Combined-Shape-Copy-7" fill="#97C1FF" fill-rule="nonzero"></path>
        <path d="M243.653,416 L243.653,414.964 L246.383,414.964 L246.383,407.292 L243.625,408.93 L243.163,408.034 L246.271,406.228 L247.559,406.228 L247.559,414.964 L250.079,414.964 L250.079,416 L243.653,416 Z M250.947,418.114 L254.601,405.64 L255.609,405.64 L251.955,418.114 L250.947,418.114 Z M261.433,416 L261.433,414.082 L256.715,414.082 L256.715,413.046 L260.803,406.228 L262.553,406.228 L262.553,413.102 L263.967,413.102 L263.967,414.082 L262.553,414.082 L262.553,416 L261.433,416 Z M257.821,413.102 L261.433,413.102 L261.433,407.138 L261.363,407.138 L257.821,413.102 Z M275.167,416.798 C275.167,417.54467 274.875336,418.092998 274.292,418.443 C273.708664,418.793002 272.833672,418.968 271.667,418.968 C270.537661,418.968 269.725669,418.814002 269.231,418.506 C268.736331,418.197998 268.489,417.759336 268.489,417.19 C268.489,416.797998 268.591666,416.492334 268.797,416.273 C269.002334,416.053666 269.282332,415.892667 269.637,415.79 L269.637,415.636 C269.207665,415.430666 268.993,415.094669 268.993,414.628 C268.993,414.263998 269.109666,413.986334 269.343,413.795 C269.576335,413.603666 269.874998,413.461334 270.239,413.368 L270.239,413.312 C269.809665,413.106666 269.476001,412.812669 269.238,412.43 C268.999999,412.047331 268.881,411.604003 268.881,411.1 C268.881,410.735998 268.946333,410.400002 269.077,410.092 C269.207667,409.783998 269.391999,409.520334 269.63,409.301 C269.868001,409.081666 270.152665,408.911334 270.484,408.79 C270.815335,408.668666 271.186331,408.608 271.597,408.608 C272.110336,408.608 272.567665,408.701332 272.969,408.888 L272.969,408.762 C272.969,408.481999 273.034333,408.248668 273.165,408.062 C273.295667,407.875332 273.510332,407.786667 273.809,407.796 L274.887,407.796 L274.887,408.776 L273.515,408.776 L273.515,409.238 C273.776335,409.462001 273.979333,409.730332 274.124,410.043 C274.268667,410.355668 274.341,410.707998 274.341,411.1 C274.341,411.464002 274.275667,411.799998 274.145,412.108 C274.014333,412.416002 273.830001,412.679666 273.592,412.899 C273.353999,413.118334 273.067002,413.288666 272.731,413.41 C272.394998,413.531334 272.021669,413.592 271.611,413.592 C271.377665,413.592 271.144335,413.568667 270.911,413.522 C270.668332,413.587334 270.449001,413.682999 270.253,413.809 C270.056999,413.935001 269.959,414.109999 269.959,414.334 C269.959,414.548668 270.061666,414.693333 270.267,414.768 C270.472334,414.842667 270.738332,414.88 271.065,414.88 L272.605,414.88 C273.501004,414.88 274.151998,415.050332 274.558,415.391 C274.964002,415.731668 275.167,416.200664 275.167,416.798 Z M274.117,416.882 C274.117,416.592665 274.007334,416.361668 273.788,416.189 C273.568666,416.016332 273.179003,415.93 272.619,415.93 L270.211,415.93 C269.762998,416.135334 269.539,416.461998 269.539,416.91 C269.539,417.227335 269.657999,417.497999 269.896,417.722 C270.134001,417.946001 270.537664,418.058 271.107,418.058 L272.143,418.058 C272.768336,418.058 273.253665,417.960001 273.599,417.764 C273.944335,417.567999 274.117,417.274002 274.117,416.882 Z M271.611,412.696 C272.087002,412.696 272.464999,412.581668 272.745,412.353 C273.025001,412.124332 273.165,411.772002 273.165,411.296 L273.165,410.904 C273.165,410.427998 273.025001,410.075668 272.745,409.847 C272.464999,409.618332 272.087002,409.504 271.611,409.504 C271.134998,409.504 270.757001,409.618332 270.477,409.847 C270.196999,410.075668 270.057,410.427998 270.057,410.904 L270.057,411.296 C270.057,411.772002 270.196999,412.124332 270.477,412.353 C270.757001,412.581668 271.134998,412.696 271.611,412.696 Z M276.469,416 L276.469,408.776 L277.589,408.776 L277.589,410.106 L277.659,410.106 C277.789667,409.760665 278.022998,409.452668 278.359,409.182 C278.695002,408.911332 279.156997,408.776 279.745,408.776 L280.179,408.776 L280.179,409.896 L279.521,409.896 C278.91433,409.896 278.440668,410.010332 278.1,410.239 C277.759332,410.467668 277.589,410.754665 277.589,411.1 L277.589,416 L276.469,416 Z M282.167,407.082 C281.924332,407.082 281.749334,407.023667 281.642,406.907 C281.534666,406.790333 281.481,406.638668 281.481,406.452 L281.481,406.27 C281.481,406.083332 281.534666,405.931667 281.642,405.815 C281.749334,405.698333 281.924332,405.64 282.167,405.64 C282.409668,405.64 282.584666,405.698333 282.692,405.815 C282.799334,405.931667 282.853,406.083332 282.853,406.27 L282.853,406.452 C282.853,406.638668 282.799334,406.790333 282.692,406.907 C282.584666,407.023667 282.409668,407.082 282.167,407.082 Z M281.607,408.776 L282.727,408.776 L282.727,416 L281.607,416 L281.607,408.776 Z M289.727,414.824 L289.671,414.824 C289.232331,415.720004 288.527672,416.168 287.557,416.168 C287.108998,416.168 286.703002,416.079334 286.339,415.902 C285.974998,415.724666 285.664668,415.472668 285.408,415.146 C285.151332,414.819332 284.955334,414.422669 284.82,413.956 C284.684666,413.489331 284.617,412.96667 284.617,412.388 C284.617,411.80933 284.684666,411.286669 284.82,410.82 C284.955334,410.353331 285.151332,409.956668 285.408,409.63 C285.664668,409.303332 285.974998,409.051334 286.339,408.874 C286.703002,408.696666 287.108998,408.608 287.557,408.608 C288.061003,408.608 288.492665,408.717666 288.852,408.937 C289.211335,409.156334 289.484332,409.494664 289.671,409.952 L289.727,409.952 L289.727,405.64 L290.847,405.64 L290.847,416 L289.727,416 L289.727,414.824 Z M287.865,415.16 C288.117001,415.16 288.357332,415.127334 288.586,415.062 C288.814668,414.996666 289.012999,414.901001 289.181,414.775 C289.349001,414.648999 289.482,414.495001 289.58,414.313 C289.678,414.130999 289.727,413.923335 289.727,413.69 L289.727,411.002 C289.727,410.805999 289.678,410.621668 289.58,410.449 C289.482,410.276332 289.349001,410.129334 289.181,410.008 C289.012999,409.886666 288.814668,409.791 288.586,409.721 C288.357332,409.651 288.117001,409.616 287.865,409.616 C287.23033,409.616 286.731002,409.814331 286.367,410.211 C286.002998,410.607669 285.821,411.127997 285.821,411.772 L285.821,413.004 C285.821,413.648003 286.002998,414.168331 286.367,414.565 C286.731002,414.961669 287.23033,415.16 287.865,415.16 Z M295.775,408.776 L296.867,408.776 L297.637,411.898 L298.407,415.062 L298.435,415.062 L299.317,411.898 L300.227,408.776 L301.221,408.776 L302.159,411.898 L303.055,415.062 L303.083,415.062 L303.825,411.898 L304.609,408.776 L305.659,408.776 L303.741,416 L302.355,416 L301.347,412.528 L300.717,410.33 L300.689,410.33 L300.073,412.528 L299.065,416 L297.707,416 L295.775,408.776 Z M307.843,407.082 C307.600332,407.082 307.425334,407.023667 307.318,406.907 C307.210666,406.790333 307.157,406.638668 307.157,406.452 L307.157,406.27 C307.157,406.083332 307.210666,405.931667 307.318,405.815 C307.425334,405.698333 307.600332,405.64 307.843,405.64 C308.085668,405.64 308.260666,405.698333 308.368,405.815 C308.475334,405.931667 308.529,406.083332 308.529,406.27 L308.529,406.452 C308.529,406.638668 308.475334,406.790333 308.368,406.907 C308.260666,407.023667 308.085668,407.082 307.843,407.082 Z M307.283,408.776 L308.403,408.776 L308.403,416 L307.283,416 L307.283,408.776 Z M315.403,414.824 L315.347,414.824 C314.908331,415.720004 314.203672,416.168 313.233,416.168 C312.784998,416.168 312.379002,416.079334 312.015,415.902 C311.650998,415.724666 311.340668,415.472668 311.084,415.146 C310.827332,414.819332 310.631334,414.422669 310.496,413.956 C310.360666,413.489331 310.293,412.96667 310.293,412.388 C310.293,411.80933 310.360666,411.286669 310.496,410.82 C310.631334,410.353331 310.827332,409.956668 311.084,409.63 C311.340668,409.303332 311.650998,409.051334 312.015,408.874 C312.379002,408.696666 312.784998,408.608 313.233,408.608 C313.737003,408.608 314.168665,408.717666 314.528,408.937 C314.887335,409.156334 315.160332,409.494664 315.347,409.952 L315.403,409.952 L315.403,405.64 L316.523,405.64 L316.523,416 L315.403,416 L315.403,414.824 Z M313.541,415.16 C313.793001,415.16 314.033332,415.127334 314.262,415.062 C314.490668,414.996666 314.688999,414.901001 314.857,414.775 C315.025001,414.648999 315.158,414.495001 315.256,414.313 C315.354,414.130999 315.403,413.923335 315.403,413.69 L315.403,411.002 C315.403,410.805999 315.354,410.621668 315.256,410.449 C315.158,410.276332 315.025001,410.129334 314.857,410.008 C314.688999,409.886666 314.490668,409.791 314.262,409.721 C314.033332,409.651 313.793001,409.616 313.541,409.616 C312.90633,409.616 312.407002,409.814331 312.043,410.211 C311.678998,410.607669 311.497,411.127997 311.497,411.772 L311.497,413.004 C311.497,413.648003 311.678998,414.168331 312.043,414.565 C312.407002,414.961669 312.90633,415.16 313.541,415.16 Z M320.499,416 C320.106998,416 319.810668,415.890334 319.61,415.671 C319.409332,415.451666 319.309,415.164668 319.309,414.81 L319.309,409.756 L318.119,409.756 L318.119,408.776 L318.791,408.776 C319.033668,408.776 319.199333,408.727 319.288,408.629 C319.376667,408.531 319.421,408.360668 319.421,408.118 L319.421,406.774 L320.429,406.774 L320.429,408.776 L322.011,408.776 L322.011,409.756 L320.429,409.756 L320.429,415.02 L321.899,415.02 L321.899,416 L320.499,416 Z M323.817,405.64 L324.937,405.64 L324.937,409.952 L324.993,409.952 C325.170334,409.541331 325.419998,409.214668 325.742,408.972 C326.064002,408.729332 326.495664,408.608 327.037,408.608 C327.78367,408.608 328.373998,408.848331 328.808,409.329 C329.242002,409.809669 329.459,410.488662 329.459,411.366 L329.459,416 L328.339,416 L328.339,411.562 C328.339,410.26466 327.793005,409.616 326.701,409.616 C326.476999,409.616 326.260001,409.644 326.05,409.7 C325.839999,409.756 325.651001,409.839999 325.483,409.952 C325.314999,410.064001 325.182,410.206332 325.084,410.379 C324.986,410.551668 324.937,410.754665 324.937,410.988 L324.937,416 L323.817,416 L323.817,405.64 Z" id="1/4-grid-width-copy-3" fill="#6F6F6F"></path>
    </g>
</svg>