<?xml version="1.0" encoding="UTF-8"?>
<svg width="288px" height="288px" viewBox="0 0 288 288" version="1.1" xmlns="http://www.w3.org/2000/svg" xmlns:xlink="http://www.w3.org/1999/xlink">
    <!-- Generator: Sketch 52.4 (67378) - http://www.bohemiancoding.com/sketch -->
    <title>Artboard</title>
    <desc>Created with Sketch.</desc>
    <g id="Artboard" stroke="none" stroke-width="1" fill="none" fill-rule="evenodd">
        <rect id="Rectangle-3-Copy-45" fill="#FFFFFF" x="0" y="0" width="288" height="288"></rect>
        <g id="Group-31-Copy" transform="translate(56.000000, 96.000000)">
            <g id="Group-19">
                <path d="M0,0.0006 L0,8.0006 L0,16.0006 L0,80.0006 L0,88.0006 L0,96.0006 L96,96.0006 L96,0.0006 L0,0.0006 Z M16,79.9986 L79.998,79.9986 L79.998,16.0006 L16,16.0006 L16,79.9986 Z" id="Fill-1" fill-opacity="0.5" fill="#97C1FF"></path>
                <g id="Group-18" transform="translate(16.000000, 16.000000)" fill="#000000">
                    <path d="M36.0126,2.7168 C34.8786,2.7168 33.7726,3.3048 33.1666,4.3528 L27.1666,14.7468 C26.2626,16.3148 26.8006,18.3248 28.3666,19.2288 C29.1226,19.6648 30.0066,19.7788 30.8546,19.5508 C31.7046,19.3248 32.4126,18.7808 32.8466,18.0268 L38.8466,7.6348 C39.2826,6.8788 39.3986,5.9968 39.1706,5.1468 C38.9426,4.2988 38.4026,3.5908 37.6466,3.1548 C37.1326,2.8568 36.5686,2.7168 36.0126,2.7168 M29.9906,21.1048 C29.1746,21.1048 28.3706,20.8928 27.6466,20.4748 C25.3926,19.1748 24.6186,16.2808 25.9206,14.0268 L31.9206,3.6348 C33.2206,1.3808 36.1126,0.6048 38.3666,1.9088 C39.4546,2.5348 40.2346,3.5548 40.5606,4.7748 C40.8886,5.9968 40.7226,7.2648 40.0946,8.3528 L34.0946,18.7468 C33.4666,19.8368 32.4486,20.6148 31.2266,20.9408 C30.8186,21.0508 30.4026,21.1048 29.9906,21.1048" id="Fill-2"></path>
                    <path d="M44.416,49.6132 C43.848,49.6132 43.286,49.7612 42.776,50.0572 C42.014,50.4952 41.472,51.2012 41.246,52.0432 C41.02,52.8872 41.138,53.7692 41.578,54.5312 C42.018,55.2912 42.722,55.8352 43.564,56.0612 L43.566,56.0612 L55.156,59.1652 C55.998,59.3872 56.882,59.2752 57.642,58.8332 C58.404,58.3952 58.948,57.6892 59.174,56.8472 C59.642,55.1012 58.6,53.2992 56.854,52.8292 L45.262,49.7252 C44.984,49.6512 44.7,49.6132 44.416,49.6132 M56.006,60.7192 C55.598,60.7192 55.188,60.6652 54.784,60.5572 L43.192,57.4512 C41.978,57.1272 40.962,56.3452 40.33,55.2492 C39.698,54.1552 39.53,52.8852 39.854,51.6712 C40.18,50.4572 40.962,49.4412 42.056,48.8092 C43.152,48.1772 44.422,48.0072 45.636,48.3332 L57.226,51.4392 C59.74,52.1132 61.238,54.7072 60.564,57.2192 C60.24,58.4332 59.458,59.4492 58.364,60.0812 C57.632,60.5032 56.824,60.7192 56.006,60.7192" id="Fill-4"></path>
                    <path d="M12.0138,34.3294 C11.7258,34.3294 11.4378,34.3694 11.1518,34.4454 C10.3018,34.6714 9.5938,35.2154 9.1598,35.9694 L3.1598,46.3614 C2.7218,47.1174 2.6078,47.9994 2.8358,48.8494 C3.0638,49.6974 3.6038,50.4054 4.3598,50.8414 C5.9258,51.7454 7.9358,51.2074 8.8398,49.6434 L14.8398,39.2494 C15.7438,37.6814 15.2058,35.6714 13.6398,34.7674 C13.1378,34.4794 12.5798,34.3294 12.0138,34.3294 Z M5.9918,52.7194 C5.1918,52.7194 4.3798,52.5154 3.6398,52.0874 C2.5518,51.4614 1.7718,50.4414 1.4458,49.2214 C1.1178,47.9994 1.2838,46.7294 1.9118,45.6434 L7.9118,35.2494 C8.5398,34.1594 9.5578,33.3814 10.7798,33.0554 C11.9998,32.7294 13.2718,32.8934 14.3598,33.5214 C16.6138,34.8214 17.3878,37.7154 16.0878,39.9694 L10.0878,50.3614 C9.2138,51.8734 7.6238,52.7194 5.9918,52.7194 Z" id="Fill-6"></path>
                    <path d="M49.996,24.7168 C49.44,24.7168 48.876,24.8568 48.362,25.1548 C47.606,25.5908 47.066,26.2988 46.838,27.1468 C46.61,27.9968 46.724,28.8788 47.162,29.6348 L53.162,40.0268 C53.596,40.7808 54.304,41.3248 55.154,41.5508 C56.002,41.7788 56.886,41.6648 57.642,41.2288 C59.208,40.3248 59.746,38.3148 58.842,36.7468 L52.842,26.3528 C52.236,25.3048 51.13,24.7168 49.996,24.7168 M56.018,43.1048 C55.606,43.1048 55.19,43.0508 54.782,42.9408 C53.56,42.6148 52.542,41.8368 51.914,40.7468 L45.914,30.3528 C45.286,29.2668 45.12,27.9968 45.448,26.7748 C45.774,25.5548 46.554,24.5348 47.642,23.9088 C49.894,22.6048 52.788,23.3828 54.088,25.6348 L60.088,36.0268 C61.39,38.2808 60.616,41.1748 58.362,42.4748 C57.638,42.8928 56.834,43.1048 56.018,43.1048" id="Fill-8"></path>
                    <path d="M18.3886,8.7168 C17.8326,8.7168 17.2686,8.8568 16.7546,9.1548 L6.3606,15.1548 C5.6066,15.5908 5.0646,16.2988 4.8386,17.1468 C4.6106,17.9968 4.7246,18.8788 5.1606,19.6348 C5.5966,20.3888 6.3046,20.9308 7.1546,21.1588 C8.0026,21.3868 8.8866,21.2728 9.6406,20.8368 L20.0346,14.8368 C21.5986,13.9308 22.1386,11.9228 21.2346,10.3528 C20.6286,9.3048 19.5226,8.7168 18.3886,8.7168 M8.0166,22.7128 C7.6046,22.7128 7.1906,22.6588 6.7806,22.5488 C5.5606,22.2228 4.5426,21.4428 3.9146,20.3528 C3.2846,19.2668 3.1206,17.9968 3.4466,16.7748 C3.7746,15.5548 4.5546,14.5348 5.6406,13.9088 L16.0346,7.9088 C18.2866,6.6048 21.1806,7.3828 22.4806,9.6348 C23.7826,11.8888 23.0066,14.7808 20.7546,16.0828 L10.3606,22.0828 C9.6386,22.5008 8.8346,22.7128 8.0166,22.7128" id="Fill-10"></path>
                    <path d="M26.3868,48.7226 C25.8308,48.7226 25.2668,48.8626 24.7508,49.1606 L14.3588,55.1606 C13.6048,55.5966 13.0628,56.3046 12.8368,57.1526 C12.6088,58.0026 12.7228,58.8846 13.1588,59.6406 C13.5948,60.3946 14.3028,60.9366 15.1508,61.1646 C16.0008,61.3926 16.8848,61.2766 17.6388,60.8426 L28.0308,54.8426 C29.5968,53.9366 30.1368,51.9286 29.2328,50.3586 C28.6248,49.3106 27.5208,48.7226 26.3868,48.7226 M16.0148,62.7186 C15.6028,62.7186 15.1888,62.6646 14.7788,62.5546 C13.5568,62.2286 12.5388,61.4486 11.9108,60.3586 C11.2828,59.2706 11.1168,58.0026 11.4448,56.7806 C11.7728,55.5606 12.5528,54.5406 13.6388,53.9146 L24.0308,47.9146 C26.2828,46.6126 29.1768,47.3866 30.4788,49.6406 C31.7808,51.8946 31.0048,54.7866 28.7508,56.0886 L18.3588,62.0886 C17.6368,62.5066 16.8328,62.7186 16.0148,62.7186" id="Fill-12"></path>
                    <path d="M47.6202,6.7168 C46.4862,6.7168 45.3822,7.3048 44.7742,8.3528 C43.8702,9.9228 44.4102,11.9308 45.9762,12.8368 L56.3682,18.8368 C57.1222,19.2708 58.0082,19.3868 58.8562,19.1588 C59.7042,18.9308 60.4122,18.3888 60.8482,17.6348 C61.2842,16.8788 61.4002,15.9968 61.1702,15.1468 C60.9442,14.2988 60.4022,13.5908 59.6482,13.1548 L49.2562,7.1548 C48.7402,6.8568 48.1762,6.7168 47.6202,6.7168 M57.9922,20.7128 C57.1742,20.7128 56.3702,20.5008 55.6482,20.0828 L45.2562,14.0828 C43.0022,12.7808 42.2262,9.8888 43.5282,7.6348 C44.8282,5.3808 47.7202,4.6068 49.9762,5.9088 L60.3682,11.9088 C61.4542,12.5348 62.2362,13.5548 62.5622,14.7748 C62.8902,15.9968 62.7242,17.2668 62.0962,18.3528 C61.4682,19.4428 60.4502,20.2228 59.2282,20.5488 C58.8182,20.6588 58.4042,20.7128 57.9922,20.7128" id="Fill-14"></path>
                    <path d="M25.629,28.7226 C25.341,28.7226 25.053,28.7626 24.767,28.8386 C23.919,29.0646 23.211,29.6066 22.775,30.3606 C22.339,31.1166 22.225,32.0006 22.453,32.8486 C22.679,33.6966 23.221,34.4066 23.975,34.8426 L34.367,40.8426 C35.935,41.7466 37.945,41.2066 38.849,39.6426 C39.753,38.0746 39.213,36.0646 37.647,35.1606 L27.255,29.1606 C26.753,28.8706 26.197,28.7226 25.629,28.7226 M36.001,42.7186 C35.199,42.7186 34.389,42.5146 33.647,42.0886 L23.255,36.0886 C22.169,35.4606 21.389,34.4406 21.061,33.2206 C20.733,32.0006 20.899,30.7306 21.527,29.6426 C22.155,28.5526 23.173,27.7726 24.395,27.4466 C25.617,27.1206 26.887,27.2846 27.975,27.9146 L38.367,33.9146 C40.621,35.2146 41.397,38.1066 40.095,40.3606 C39.221,41.8726 37.633,42.7186 36.001,42.7186" id="Fill-16"></path>
                </g>
            </g>
            <g id="Group-4" transform="translate(80.000000, 0.000000)">
                <path d="M0,0.0006 L0,8.0006 L0,16.0006 L0,80.0006 L0,88.0006 L0,96.0006 L96,96.0006 L96,0.0006 L0,0.0006 Z M16,79.9986 L79.998,79.9986 L79.998,16.0006 L16,16.0006 L16,79.9986 Z" id="Fill-1" fill-opacity="0.5" fill="#FFA0C2"></path>
                <path d="M51.503,63.7618 L51.747,63.6618 C53.533,62.9358 54.687,61.2198 54.687,59.2938 L54.691,54.7698 C54.695,51.0838 51.857,47.9358 48.365,47.7518 C46.493,47.6638 44.745,48.3038 43.403,49.5758 C42.057,50.8518 41.317,52.5738 41.317,54.4278 L41.315,59.2838 C41.313,61.2178 42.471,62.9358 44.265,63.6618 L44.507,63.7618 L44.507,73.9818 L45.947,73.9818 L45.947,63.2818 C45.947,62.9878 45.697,62.6858 45.423,62.5758 L44.803,62.3258 C43.557,61.8218 42.753,60.6298 42.753,59.2838 L42.757,54.4278 C42.757,52.9738 43.337,51.6238 44.393,50.6218 C45.449,49.6218 46.847,49.1538 48.289,49.1898 C51.027,49.3338 53.253,51.8358 53.251,54.7698 L53.249,59.2938 C53.247,60.6338 52.445,61.8238 51.205,62.3278 L50.513,62.6098 C50.241,62.7198 50.063,62.9838 50.063,63.2778 L50.063,73.9818 L51.503,73.9818 L51.503,63.7618 Z M28.719,77.2778 L67.279,77.2778 L67.279,32.7198 L28.719,32.7198 L28.719,77.2778 Z M68.719,77.9998 L68.719,31.9998 C68.719,31.6018 68.397,31.2798 68.001,31.2798 L28.001,31.2798 C27.603,31.2798 27.281,31.6018 27.281,31.9998 L27.281,77.9998 C27.281,78.3978 27.603,78.7198 28.001,78.7198 L68.001,78.7198 C68.397,78.7198 68.719,78.3978 68.719,77.9998 Z M50.281,40.9998 C50.281,42.2578 49.257,43.2798 48.001,43.2798 C46.743,43.2798 45.719,42.2578 45.719,40.9998 C45.719,39.7418 46.743,38.7198 48.001,38.7198 C49.257,38.7198 50.281,39.7418 50.281,40.9998 Z M51.719,40.9998 C51.719,38.9498 50.051,37.2798 48.001,37.2798 C45.949,37.2798 44.281,38.9498 44.281,40.9998 C44.281,43.0518 45.949,44.7198 48.001,44.7198 C50.051,44.7198 51.719,43.0518 51.719,40.9998 Z M46.519,25.4998 L40.001,18.9818 L33.561,25.4218 L34.579,26.4418 L40.001,21.0178 L45.501,26.5198 L46.519,25.4998 Z M62.579,20.4418 L61.561,19.4218 L56.001,24.9818 L50.519,19.4998 L49.501,20.5198 L56.001,27.0178 L62.579,20.4418 Z M77.279,77.9998 L78.719,77.9998 L78.719,17.9998 L77.279,17.9998 L77.279,77.9998 Z M17.279,77.9998 L18.719,77.9998 L18.719,17.9998 L17.279,17.9998 L17.279,77.9998 Z" id="Fill-2" fill="#000000"></path>
            </g>
        </g>
    </g>
</svg>