<?xml version="1.0" encoding="UTF-8"?>
<svg width="288px" height="288px" viewBox="0 0 288 288" version="1.1" xmlns="http://www.w3.org/2000/svg" xmlns:xlink="http://www.w3.org/1999/xlink">
    <!-- Generator: Sketch 52.5 (67469) - http://www.bohemiancoding.com/sketch -->
    <title>Artboard Copy 68</title>
    <desc>Created with Sketch.</desc>
    <defs>
        <polygon id="path-1" points="0 128 256 128 256 0 0 0"></polygon>
    </defs>
    <g id="Artboard-Copy-68" stroke="none" stroke-width="1" fill="none" fill-rule="evenodd">
        <rect id="Rectangle-3-Copy-53" fill="#FFFFFF" x="0" y="0" width="288" height="288"></rect>
        <g id="Group-14-Copy-2" transform="translate(16.000000, 80.000000)">
            <polygon id="Fill-1" fill="#FFFFFF" points="0 128 256 128 256 0 0 0"></polygon>
            <polygon id="Fill-2" fill="#C9DEFF" points="14.2222222 120.888889 128 120.888889 128 7.11111111 14.2222222 7.11111111"></polygon>
            <polygon id="Fill-3" fill="#F3F3F3" points="128 120.888889 241.777778 120.888889 241.777778 7.11111111 128 7.11111111"></polygon>
            <polygon id="Fill-4" fill="#000000" points="142.222222 106.666667 227.555556 106.666667 227.555556 21.3333333 142.222222 21.3333333"></polygon>
            <g id="Group-13">
                <path d="M210.915733,58.6666667 C210.915733,60.2737778 209.607289,61.5822222 208.000178,61.5822222 C206.393067,61.5822222 205.084622,60.2737778 205.084622,58.6666667 L205.084622,48 C205.084622,47.6462222 204.7984,47.36 204.444622,47.36 C204.090844,47.36 203.804622,47.6462222 203.804622,48 L203.804622,58.6666667 C203.804622,60.2737778 202.496178,61.5822222 200.889067,61.5822222 C199.281956,61.5822222 197.973511,60.2737778 197.973511,58.6666667 L197.973511,48 C197.973511,47.6462222 197.687289,47.36 197.333511,47.36 C196.979733,47.36 196.693511,47.6462222 196.693511,48 L196.693511,58.6666667 C196.693511,60.2737778 195.385067,61.5822222 193.777956,61.5822222 C192.170844,61.5822222 190.8624,60.2737778 190.8624,58.6666667 L190.8624,48 C190.8624,47.6462222 190.576178,47.36 190.2224,47.36 C189.868622,47.36 189.5824,47.6462222 189.5824,48 L189.5824,69.3333333 C189.5824,70.9404444 188.273956,72.2488889 186.666844,72.2488889 C185.059733,72.2488889 183.751289,70.9404444 183.751289,69.3333333 L183.751289,42.7377778 C183.751289,40.1102222 185.907733,37.9733333 188.556622,37.9733333 L206.108622,37.9733333 C208.759289,37.9733333 210.915733,40.1102222 210.915733,42.7377778 L210.915733,58.6666667 Z M182.471289,56.1706667 L182.323733,56.4426667 C181.456178,57.9288889 179.532622,58.4426667 178.032178,57.584 C177.305067,57.1662222 176.785956,56.4942222 176.569067,55.6906667 C176.353956,54.8906667 176.465956,54.0551111 176.881956,53.3368889 L182.471289,43.6835556 L182.471289,56.1706667 Z M206.108622,36.6933333 L188.556622,36.6933333 C186.323733,36.6933333 184.387733,37.9075556 183.328178,39.6942222 C183.301511,39.7262222 183.267733,39.7493333 183.2464,39.7884444 L175.7744,52.6951111 C175.185956,53.7084444 175.027733,54.8906667 175.333511,56.0231111 C175.639289,57.1573333 176.371733,58.1084444 177.397511,58.6951111 C178.089067,59.0897778 178.844622,59.2782222 179.591289,59.2782222 C180.641956,59.2782222 181.658844,58.88 182.471289,58.1866667 L182.471289,69.3706667 C182.471289,69.3848889 182.4784,69.3955556 182.4784,69.4097778 C182.521067,71.6871111 184.378844,73.5288889 186.666844,73.5288889 C188.979733,73.5288889 190.8624,71.648 190.8624,69.3333333 L190.8624,61.6728889 C191.617956,62.4071111 192.643733,62.8622222 193.777956,62.8622222 C195.281956,62.8622222 196.592178,62.0604444 197.333511,60.8675556 C198.073067,62.0604444 199.385067,62.8622222 200.889067,62.8622222 C202.393067,62.8622222 203.703289,62.0604444 204.444622,60.8675556 C205.184178,62.0604444 206.496178,62.8622222 208.000178,62.8622222 C210.313067,62.8622222 212.195733,60.9813333 212.195733,58.6666667 L212.195733,42.7377778 C212.195733,39.4044444 209.465067,36.6933333 206.108622,36.6933333 Z" id="Fill-5" fill="#FFFFFF"></path>
                <path d="M171.185778,84.3905778 L163.036444,84.3905778 L158.961778,77.3328 L163.036444,70.2768 L170.446222,70.2768 L167.889778,74.7052444 L168.999111,75.3434667 L171.555556,70.9168 L175.260444,77.3328 L171.185778,84.3905778 Z M172.295111,69.6350222 L175.221333,64.5665778 L174.112,63.9265778 L171.185778,68.9950222 L162.666667,68.9950222 C162.439111,68.9950222 162.225778,69.1176889 162.112,69.3168 L157.667556,77.0145778 C157.553778,77.2119111 157.553778,77.4554667 157.667556,77.6528 L161.927111,85.0305778 L159.445333,89.3292444 L160.554667,89.9692444 L163.034667,85.6723556 L171.555556,85.6723556 C171.783111,85.6723556 171.996444,85.5479111 172.110222,85.3505778 L176.554667,77.6528 C176.668444,77.4554667 176.668444,77.2119111 176.554667,77.0145778 L172.295111,69.6350222 Z" id="Fill-7" fill="#FFFFFF"></path>
                <mask id="mask-2" fill="white">
                    <use xlink:href="#path-1"></use>
                </mask>
                <g id="Clip-10"></g>
                <polygon id="Fill-9" fill="#000000" mask="url(#mask-2)" points="28.4444444 106.666667 113.777778 106.666667 113.777778 21.3333333 28.4444444 21.3333333"></polygon>
                <path d="M97.1388444,61.6094222 L85.1015111,61.6094222 L97.1388444,49.5720889 L97.1388444,61.6094222 Z M97.1388444,75.8316444 L85.1015111,75.8316444 L97.1388444,63.7943111 L97.1388444,75.8316444 Z M97.1388444,90.0538667 L85.1015111,90.0538667 L97.1388444,78.0165333 L97.1388444,90.0538667 Z M84.1966222,77.1134222 L96.2321778,77.1134222 L84.1966222,89.1489778 L84.1966222,77.1134222 Z M84.1966222,62.8912 L96.2321778,62.8912 L84.1966222,74.9267556 L84.1966222,62.8912 Z M82.9166222,75.8316444 L70.8792889,75.8316444 L82.9166222,63.7943111 L82.9166222,75.8316444 Z M82.9166222,90.0538667 L70.8792889,90.0538667 L82.9166222,78.0165333 L82.9166222,90.0538667 Z M69.9744,77.1134222 L82.0099556,77.1134222 L69.9744,89.1489778 L69.9744,77.1134222 Z M68.6944,90.0538667 L56.6570667,90.0538667 L68.6944,78.0165333 L68.6944,90.0538667 Z M98.0241778,47.4352 C97.7841778,47.3427556 97.5086222,47.3925333 97.3255111,47.5738667 L83.1032889,61.7960889 L68.8810667,76.0183111 L54.6588444,90.2405333 C54.4757333,90.4254222 54.4224,90.6992 54.5201778,90.9392 C54.6197333,91.1792 54.8526222,91.3356444 55.1121778,91.3356444 L69.3344,91.3356444 L83.5566222,91.3356444 L97.7788444,91.3356444 C98.1326222,91.3356444 98.4188444,91.0494222 98.4188444,90.6938667 L98.4188444,76.4716444 L98.4188444,62.2494222 L98.4188444,48.0272 C98.4188444,47.7694222 98.2624,47.5347556 98.0241778,47.4352 Z" id="Fill-11" fill="#FFFFFF" mask="url(#mask-2)"></path>
                <path d="M46.9054222,58.3749333 C46.7649778,58.1313778 46.6494222,57.8807111 46.5249778,57.6318222 L54.1125333,62.0122667 L54.7543111,60.9047111 L45.7285333,55.6940444 C44.4716444,51.7402667 45.1276444,47.4682667 47.3587556,44.0904889 L47.3587556,52.8442667 L48.6387556,52.8442667 L48.6387556,42.4264889 C49.5560889,41.4220444 50.6369778,40.5367111 51.8760889,39.8202667 C54.2796444,38.4336 56.9338667,37.8718222 59.5134222,38.0389333 L51.9116444,42.4264889 L52.5516444,43.5340444 L61.5560889,38.3376 C65.1632,39.1233778 68.4432,41.3509333 70.4289778,44.7909333 C70.5712,45.0362667 70.6885333,45.2887111 70.8147556,45.5376 L63.2289778,41.1589333 L62.5889778,42.2664889 L71.6094222,47.4753778 C72.3916444,49.9269333 72.4698667,52.5544889 71.7872,55.0984889 C71.3996444,56.5456 70.7792,57.8842667 69.9774222,59.0931556 L69.9774222,50.3304889 L68.6974222,50.3304889 L68.6974222,60.7429333 C67.7676444,61.7562667 66.6832,62.6380444 65.4583111,63.3473778 C63.1027556,64.7091556 60.4538667,65.3207111 57.7978667,65.1447111 L65.4245333,60.7411556 L64.7845333,59.6336 L55.7712,64.8371556 C55.5649778,64.7909333 55.3569778,64.7589333 55.1525333,64.7038222 C51.6485333,63.7633778 48.7187556,61.5180444 46.9054222,58.3749333 M58.6920889,66.4531556 C61.2680889,66.4531556 63.8085333,65.7776 66.0983111,64.4549333 C69.5365333,62.4709333 71.9969778,59.2656 73.0227556,55.4309333 C74.0520889,51.5962667 73.5240889,47.5909333 71.5383111,44.1527111 C67.4405333,37.0558222 58.3347556,34.6113778 51.2360889,38.7127111 C47.7978667,40.6984889 45.3392,43.9020444 44.3116444,47.7384889 C43.2840889,51.5713778 43.8120889,55.5767111 45.7960889,59.0131556 C47.7818667,62.4531556 50.9872,64.9136 54.8218667,65.9393778 C56.1018667,66.2824889 57.4014222,66.4531556 58.6920889,66.4531556" id="Fill-12" fill="#FFFFFF" mask="url(#mask-2)"></path>
            </g>
        </g>
        <path d="M30.5084746,211.25 L30.5084746,213 L30,213 L30,209 L30.5084746,209 L30.5084746,210.75 L44.4915254,210.75 L44.4915254,209 L45,209 L45,213 L44.4915254,213 L44.4915254,211.25 L30.5084746,211.25 Z" id="Combined-Shape-Copy-11" fill="#97C1FF" fill-rule="nonzero"></path>
        <path d="M31.056,229 L31.056,228.112 L33.396,228.112 L33.396,221.536 L31.032,222.94 L30.636,222.172 L33.3,220.624 L34.404,220.624 L34.404,228.112 L36.564,228.112 L36.564,229 L31.056,229 Z M37.308,230.812 L40.44,220.12 L41.304,220.12 L38.172,230.812 L37.308,230.812 Z M46.296,229 L46.296,227.356 L42.252,227.356 L42.252,226.468 L45.756,220.624 L47.256,220.624 L47.256,226.516 L48.468,226.516 L48.468,227.356 L47.256,227.356 L47.256,229 L46.296,229 Z M43.2,226.516 L46.296,226.516 L46.296,221.404 L46.236,221.404 L43.2,226.516 Z M58.068,229.684 C58.068,230.324003 57.8180025,230.793998 57.318,231.094 C56.8179975,231.394002 56.068005,231.544 55.068,231.544 C54.0999952,231.544 53.4040021,231.412001 52.98,231.148 C52.5559979,230.883999 52.344,230.508002 52.344,230.02 C52.344,229.683998 52.4319991,229.422001 52.608,229.234 C52.7840009,229.045999 53.0239985,228.908 53.328,228.82 L53.328,228.688 C52.9599982,228.511999 52.776,228.224002 52.776,227.824 C52.776,227.511998 52.875999,227.274001 53.076,227.11 C53.276001,226.945999 53.5319984,226.824 53.844,226.744 L53.844,226.696 C53.4759982,226.519999 53.190001,226.268002 52.986,225.94 C52.781999,225.611998 52.68,225.232002 52.68,224.8 C52.68,224.487998 52.7359994,224.200001 52.848,223.936 C52.9600006,223.671999 53.117999,223.446001 53.322,223.258 C53.526001,223.069999 53.7699986,222.924001 54.054,222.82 C54.3380014,222.715999 54.6559982,222.664 55.008,222.664 C55.4480022,222.664 55.8399983,222.743999 56.184,222.904 L56.184,222.796 C56.184,222.555999 56.2399994,222.356001 56.352,222.196 C56.4640006,222.035999 56.6479987,221.96 56.904,221.968 L57.828,221.968 L57.828,222.808 L56.652,222.808 L56.652,223.204 C56.8760011,223.396001 57.0499994,223.625999 57.174,223.894 C57.2980006,224.162001 57.36,224.463998 57.36,224.8 C57.36,225.112002 57.3040006,225.399999 57.192,225.664 C57.0799994,225.928001 56.922001,226.153999 56.718,226.342 C56.513999,226.530001 56.2680014,226.675999 55.98,226.78 C55.6919986,226.884001 55.3720018,226.936 55.02,226.936 C54.819999,226.936 54.620001,226.916 54.42,226.876 C54.211999,226.932 54.0240008,227.013999 53.856,227.122 C53.6879992,227.230001 53.604,227.379999 53.604,227.572 C53.604,227.756001 53.6919991,227.88 53.868,227.944 C54.0440009,228.008 54.2719986,228.04 54.552,228.04 L55.872,228.04 C56.6400038,228.04 57.1979983,228.185999 57.546,228.478 C57.8940017,228.770001 58.068,229.171997 58.068,229.684 Z M57.168,229.756 C57.168,229.507999 57.0740009,229.310001 56.886,229.162 C56.6979991,229.013999 56.3640024,228.94 55.884,228.94 L53.82,228.94 C53.4359981,229.116001 53.244,229.395998 53.244,229.78 C53.244,230.052001 53.345999,230.283999 53.55,230.476 C53.754001,230.668001 54.0999976,230.764 54.588,230.764 L55.476,230.764 C56.0120027,230.764 56.4279985,230.680001 56.724,230.512 C57.0200015,230.343999 57.168,230.092002 57.168,229.756 Z M55.02,226.168 C55.428002,226.168 55.7519988,226.070001 55.992,225.874 C56.2320012,225.677999 56.352,225.376002 56.352,224.968 L56.352,224.632 C56.352,224.223998 56.2320012,223.922001 55.992,223.726 C55.7519988,223.529999 55.428002,223.432 55.02,223.432 C54.611998,223.432 54.2880012,223.529999 54.048,223.726 C53.8079988,223.922001 53.688,224.223998 53.688,224.632 L53.688,224.968 C53.688,225.376002 53.8079988,225.677999 54.048,225.874 C54.2880012,226.070001 54.611998,226.168 55.02,226.168 Z M59.184,229 L59.184,222.808 L60.144,222.808 L60.144,223.948 L60.204,223.948 C60.3160006,223.651999 60.5159986,223.388001 60.804,223.156 C61.0920014,222.923999 61.4879975,222.808 61.992,222.808 L62.364,222.808 L62.364,223.768 L61.8,223.768 C61.2799974,223.768 60.8740015,223.865999 60.582,224.062 C60.2899985,224.258001 60.144,224.503999 60.144,224.8 L60.144,229 L59.184,229 Z M64.068,221.356 C63.859999,221.356 63.7100005,221.306001 63.618,221.206 C63.5259995,221.105999 63.48,220.976001 63.48,220.816 L63.48,220.66 C63.48,220.499999 63.5259995,220.370001 63.618,220.27 C63.7100005,220.169999 63.859999,220.12 64.068,220.12 C64.276001,220.12 64.4259995,220.169999 64.518,220.27 C64.6100005,220.370001 64.656,220.499999 64.656,220.66 L64.656,220.816 C64.656,220.976001 64.6100005,221.105999 64.518,221.206 C64.4259995,221.306001 64.276001,221.356 64.068,221.356 Z M63.588,222.808 L64.548,222.808 L64.548,229 L63.588,229 L63.588,222.808 Z M70.548,227.992 L70.5,227.992 C70.1239981,228.760004 69.5200042,229.144 68.688,229.144 C68.3039981,229.144 67.9560016,229.068001 67.644,228.916 C67.3319984,228.763999 67.0660011,228.548001 66.846,228.268 C66.6259989,227.987999 66.4580006,227.648002 66.342,227.248 C66.2259994,226.847998 66.168,226.400002 66.168,225.904 C66.168,225.407998 66.2259994,224.960002 66.342,224.56 C66.4580006,224.159998 66.6259989,223.820001 66.846,223.54 C67.0660011,223.259999 67.3319984,223.044001 67.644,222.892 C67.9560016,222.739999 68.3039981,222.664 68.688,222.664 C69.1200022,222.664 69.4899985,222.757999 69.798,222.946 C70.1060015,223.134001 70.3399992,223.423998 70.5,223.816 L70.548,223.816 L70.548,220.12 L71.508,220.12 L71.508,229 L70.548,229 L70.548,227.992 Z M68.952,228.28 C69.1680011,228.28 69.373999,228.252 69.57,228.196 C69.766001,228.14 69.9359993,228.058001 70.08,227.95 C70.2240007,227.841999 70.3379996,227.710001 70.422,227.554 C70.5060004,227.397999 70.548,227.220001 70.548,227.02 L70.548,224.716 C70.548,224.547999 70.5060004,224.390001 70.422,224.242 C70.3379996,224.093999 70.2240007,223.968001 70.08,223.864 C69.9359993,223.759999 69.766001,223.678 69.57,223.618 C69.373999,223.558 69.1680011,223.528 68.952,223.528 C68.4079973,223.528 67.9800016,223.697998 67.668,224.038 C67.3559984,224.378002 67.2,224.823997 67.2,225.376 L67.2,226.432 C67.2,226.984003 67.3559984,227.429998 67.668,227.77 C67.9800016,228.110002 68.4079973,228.28 68.952,228.28 Z M75.732,222.808 L76.668,222.808 L77.328,225.484 L77.988,228.196 L78.012,228.196 L78.768,225.484 L79.548,222.808 L80.4,222.808 L81.204,225.484 L81.972,228.196 L81.996,228.196 L82.632,225.484 L83.304,222.808 L84.204,222.808 L82.56,229 L81.372,229 L80.508,226.024 L79.968,224.14 L79.944,224.14 L79.416,226.024 L78.552,229 L77.388,229 L75.732,222.808 Z M86.076,221.356 C85.867999,221.356 85.7180005,221.306001 85.626,221.206 C85.5339995,221.105999 85.488,220.976001 85.488,220.816 L85.488,220.66 C85.488,220.499999 85.5339995,220.370001 85.626,220.27 C85.7180005,220.169999 85.867999,220.12 86.076,220.12 C86.284001,220.12 86.4339995,220.169999 86.526,220.27 C86.6180005,220.370001 86.664,220.499999 86.664,220.66 L86.664,220.816 C86.664,220.976001 86.6180005,221.105999 86.526,221.206 C86.4339995,221.306001 86.284001,221.356 86.076,221.356 Z M85.596,222.808 L86.556,222.808 L86.556,229 L85.596,229 L85.596,222.808 Z M92.556,227.992 L92.508,227.992 C92.1319981,228.760004 91.5280042,229.144 90.696,229.144 C90.3119981,229.144 89.9640016,229.068001 89.652,228.916 C89.3399984,228.763999 89.0740011,228.548001 88.854,228.268 C88.6339989,227.987999 88.4660006,227.648002 88.35,227.248 C88.2339994,226.847998 88.176,226.400002 88.176,225.904 C88.176,225.407998 88.2339994,224.960002 88.35,224.56 C88.4660006,224.159998 88.6339989,223.820001 88.854,223.54 C89.0740011,223.259999 89.3399984,223.044001 89.652,222.892 C89.9640016,222.739999 90.3119981,222.664 90.696,222.664 C91.1280022,222.664 91.4979985,222.757999 91.806,222.946 C92.1140015,223.134001 92.3479992,223.423998 92.508,223.816 L92.556,223.816 L92.556,220.12 L93.516,220.12 L93.516,229 L92.556,229 L92.556,227.992 Z M90.96,228.28 C91.1760011,228.28 91.381999,228.252 91.578,228.196 C91.774001,228.14 91.9439993,228.058001 92.088,227.95 C92.2320007,227.841999 92.3459996,227.710001 92.43,227.554 C92.5140004,227.397999 92.556,227.220001 92.556,227.02 L92.556,224.716 C92.556,224.547999 92.5140004,224.390001 92.43,224.242 C92.3459996,224.093999 92.2320007,223.968001 92.088,223.864 C91.9439993,223.759999 91.774001,223.678 91.578,223.618 C91.381999,223.558 91.1760011,223.528 90.96,223.528 C90.4159973,223.528 89.9880016,223.697998 89.676,224.038 C89.3639984,224.378002 89.208,224.823997 89.208,225.376 L89.208,226.432 C89.208,226.984003 89.3639984,227.429998 89.676,227.77 C89.9880016,228.110002 90.4159973,228.28 90.96,228.28 Z M96.924,229 C96.5879983,229 96.3340009,228.906001 96.162,228.718 C95.9899991,228.529999 95.904,228.284002 95.904,227.98 L95.904,223.648 L94.884,223.648 L94.884,222.808 L95.46,222.808 C95.668001,222.808 95.8099996,222.766 95.886,222.682 C95.9620004,222.598 96,222.452001 96,222.244 L96,221.092 L96.864,221.092 L96.864,222.808 L98.22,222.808 L98.22,223.648 L96.864,223.648 L96.864,228.16 L98.124,228.16 L98.124,229 L96.924,229 Z M99.768,220.12 L100.728,220.12 L100.728,223.816 L100.776,223.816 C100.928001,223.463998 101.141999,223.184001 101.418,222.976 C101.694001,222.767999 102.063998,222.664 102.528,222.664 C103.168003,222.664 103.673998,222.869998 104.046,223.282 C104.418002,223.694002 104.604,224.275996 104.604,225.028 L104.604,229 L103.644,229 L103.644,225.196 C103.644,224.083994 103.176005,223.528 102.24,223.528 C102.047999,223.528 101.862001,223.552 101.682,223.6 C101.501999,223.648 101.340001,223.72 101.196,223.816 C101.051999,223.912 100.938,224.033999 100.854,224.182 C100.77,224.330001 100.728,224.503999 100.728,224.704 L100.728,229 L99.768,229 L99.768,220.12 Z" id="1/4-grid-width-copy-2" fill="#6F6F6F"></path>
    </g>
</svg>