<?xml version="1.0" encoding="UTF-8"?>
<svg width="288px" height="288px" viewBox="0 0 288 288" version="1.1" xmlns="http://www.w3.org/2000/svg" xmlns:xlink="http://www.w3.org/1999/xlink">
    <!-- Generator: Sketch 52.6 (67491) - http://www.bohemiancoding.com/sketch -->
    <title>Artboard Copy 81</title>
    <desc>Created with Sketch.</desc>
    <defs>
        <polygon id="path-1" points="0 288 288 288 288 0 0 0"></polygon>
    </defs>
    <g id="Artboard-Copy-81" stroke="none" stroke-width="1" fill="none" fill-rule="evenodd">
        <g id="Group-111-Copy">
            <polygon id="Fill-1" fill="#3D3D3D" points="0 288 288 288 288 0 0 0"></polygon>
            <polygon id="Fill-2" fill="#171717" points="89.454 253.2672 198.63345 253.2672 198.63345 144.00045 89.454 144.00045"></polygon>
            <polygon id="Fill-3" fill="#FFFFFF" points="89.45385 144.00045 198.6333 144.00045 198.6333 34.73385 89.45385 34.73385"></polygon>
            <g id="Group-110">
                <path d="M101.89527,48.526905 L101.83647,48.526905 C101.71887,49.350255 100.96602,49.973655 99.73107,49.973655 C97.84902,49.973655 96.36702,48.515205 96.36702,45.762855 C96.36702,42.998655 97.86087,41.481255 100.08387,41.481255 C101.54232,41.481255 102.63627,42.128205 103.24797,43.386855 L101.78937,44.221905 C101.54232,43.586805 101.03652,43.069305 100.08387,43.069305 C98.97822,43.069305 98.26077,43.704405 98.26077,45.068805 L98.26077,46.386255 C98.26077,47.750655 98.97822,48.385755 100.08387,48.385755 C100.97772,48.385755 101.69532,47.962305 101.69532,47.162505 L101.69532,46.750755 L100.16622,46.750755 L100.16622,45.257055 L103.40082,45.257055 L103.40082,49.832505 L101.89527,49.832505 L101.89527,48.526905 Z" id="Fill-4" fill="#000000"></path>
                <path d="M108.634275,47.374215 L108.634275,46.115565 C108.634275,45.339315 108.234375,44.892465 107.552175,44.892465 C106.869975,44.892465 106.470075,45.339315 106.470075,46.115565 L106.470075,47.374215 C106.470075,48.150465 106.869975,48.597465 107.552175,48.597465 C108.234375,48.597465 108.634275,48.150465 108.634275,47.374215 M104.658675,46.739115 C104.658675,44.751315 105.740775,43.516215 107.552175,43.516215 C109.363575,43.516215 110.445675,44.751315 110.445675,46.739115 C110.445675,48.726915 109.363575,49.973715 107.552175,49.973715 C105.740775,49.973715 104.658675,48.726915 104.658675,46.739115" id="Fill-6" fill="#000000"></path>
                <path d="M118.4784,47.280105 L118.4784,46.209705 C118.4784,45.433455 117.99615,44.927655 117.3375,44.927655 C116.67885,44.927655 116.19645,45.268755 116.19645,45.833355 L116.19645,47.656455 C116.19645,48.221055 116.67885,48.562155 117.3375,48.562155 C117.99615,48.562155 118.4784,48.056355 118.4784,47.280105 Z M114.4557,41.128455 L116.19645,41.128455 L116.19645,44.692455 L116.2554,44.692455 C116.43165,44.010255 117.114,43.516155 117.9138,43.516155 C119.47815,43.516155 120.2898,44.645355 120.2898,46.739055 C120.2898,48.832755 119.47815,49.973655 117.9138,49.973655 C117.114,49.973655 116.43165,49.467855 116.2554,48.797505 L116.19645,48.797505 L116.19645,49.832505 L114.4557,49.832505 L114.4557,41.128455 Z" id="Fill-8" fill="#000000"></path>
                <path d="M123.01794,46.0686 L123.01794,46.16265 L125.18229,46.16265 L125.18229,46.05675 C125.18229,45.30405 124.84104,44.79825 124.14714,44.79825 C123.45309,44.79825 123.01794,45.30405 123.01794,46.0686 M121.21839,46.7391 C121.21839,44.78655 122.25339,43.5162 124.11189,43.5162 C126.15849,43.5162 126.98184,44.9982 126.98184,46.66845 L126.98184,47.18595 L123.01794,47.18595 L123.01794,47.28015 C123.01794,48.09165 123.45309,48.60915 124.38249,48.60915 C125.11164,48.60915 125.51154,48.2682 125.89974,47.8683 L126.77019,48.95025 C126.21729,49.5855 125.31159,49.9737 124.18254,49.9737 C122.28879,49.9737 121.21839,48.7152 121.21839,46.7391" id="Fill-10" fill="#000000"></path>
                <path d="M131.921415,43.65732 L133.544565,43.65732 L131.168565,50.78532 C130.851015,51.73797 130.333515,52.18497 129.274815,52.18497 L128.192865,52.18497 L128.192865,50.83227 L129.357165,50.83227 L129.568815,50.15007 L127.404765,43.65732 L129.133665,43.65732 L130.039365,46.53912 L130.486515,48.32697 L130.556865,48.32697 L131.015715,46.53912 L131.921415,43.65732 Z" id="Fill-12" fill="#000000"></path>
                <path d="M137.91966,47.374215 L137.91966,46.115565 C137.91966,45.339315 137.51976,44.892465 136.83756,44.892465 C136.15521,44.892465 135.75531,45.339315 135.75531,46.115565 L135.75531,47.374215 C135.75531,48.150465 136.15521,48.597465 136.83756,48.597465 C137.51976,48.597465 137.91966,48.150465 137.91966,47.374215 M133.94406,46.739115 C133.94406,44.751315 135.02616,43.516215 136.83756,43.516215 C138.64881,43.516215 139.73106,44.751315 139.73106,46.739115 C139.73106,48.726915 138.64881,49.973715 136.83756,49.973715 C135.02616,49.973715 133.94406,48.726915 133.94406,46.739115" id="Fill-14" fill="#000000"></path>
                <path d="M140.96535,49.83252 L140.96535,43.65732 L142.7061,43.65732 L142.7061,44.70417 L142.77675,44.70417 C143.00025,44.05722 143.5179,43.51617 144.4941,43.51617 C145.7526,43.51617 146.42295,44.41017 146.42295,45.96282 L146.42295,49.83252 L144.6822,49.83252 L144.6822,46.10397 C144.6822,45.31587 144.45885,44.92767 143.82375,44.92767 C143.259,44.92767 142.7061,45.22167 142.7061,45.83337 L142.7061,49.83252 L140.96535,49.83252 Z" id="Fill-16" fill="#000000"></path>
                <path d="M151.7625,47.6565 L151.7625,45.8334 C151.7625,45.2688 151.28025,44.9277 150.6216,44.9277 C149.96295,44.9277 149.48055,45.4335 149.48055,46.20975 L149.48055,47.28015 C149.48055,48.0564 149.96295,48.5622 150.6216,48.5622 C151.28025,48.5622 151.7625,48.2211 151.7625,47.6565 Z M151.7625,48.7974 L151.7037,48.7974 C151.5273,49.4679 150.8451,49.9737 150.0453,49.9737 C148.4808,49.9737 147.6693,48.8328 147.6693,46.7391 C147.6693,44.6454 148.4808,43.5162 150.0453,43.5162 C150.8451,43.5162 151.5273,44.01015 151.7037,44.6925 L151.7625,44.6925 L151.7625,41.1285 L153.50325,41.1285 L153.50325,49.83255 L151.7625,49.83255 L151.7625,48.7974 Z" id="Fill-18" fill="#000000"></path>
                <path d="M99.801555,60.86469 L99.801555,60.13539 L98.954655,60.13539 C98.284155,60.13539 97.931355,60.38244 97.931355,60.82944 L97.931355,61.00584 C97.931355,61.45269 98.225505,61.66449 98.743005,61.66449 C99.319305,61.66449 99.801555,61.42929 99.801555,60.86469 Z M101.154255,62.73489 C100.530855,62.73489 100.083855,62.31144 99.977955,61.65264 L99.907455,61.65264 C99.719205,62.45259 99.037005,62.87604 98.096055,62.87604 C96.860955,62.87604 96.178755,62.14674 96.178755,61.07634 C96.178755,59.77074 97.190355,59.14734 98.825355,59.14734 L99.801555,59.14734 L99.801555,58.75914 C99.801555,58.15929 99.507555,57.78294 98.778255,57.78294 C98.084205,57.78294 97.719705,58.13589 97.449105,58.51224 L96.414105,57.59484 C96.908055,56.86554 97.613805,56.41854 98.907705,56.41854 C100.648455,56.41854 101.542305,57.21834 101.542305,58.67694 L101.542305,61.38219 L102.118755,61.38219 L102.118755,62.73489 L101.154255,62.73489 Z" id="Fill-20" fill="#000000"></path>
                <path d="M106.705305,58.55925 L106.705305,58.4181 C106.705305,57.87705 106.364205,57.5712 105.682005,57.5712 C104.999805,57.5712 104.658555,57.87705 104.658555,58.4181 L104.658555,58.55925 C104.658555,59.1003 104.999805,59.40615 105.682005,59.40615 C106.364205,59.40615 106.705305,59.1003 106.705305,58.55925 M106.411305,62.86425 L104.294055,62.86425 C104.141055,63.0171 104.070555,63.2289 104.070555,63.417 C104.070555,63.864 104.423505,64.0758 105.364455,64.0758 L106.070205,64.0758 C107.011155,64.0758 107.363955,63.864 107.363955,63.417 C107.363955,63.0642 107.105205,62.86425 106.411305,62.86425 M105.658455,65.2284 C103.517805,65.2284 102.729705,64.68735 102.729705,63.7935 C102.729705,63.1113 103.164855,62.7114 103.882305,62.6172 L103.882305,62.4879 C103.294305,62.382 102.988455,61.935 102.988455,61.4058 C102.988455,60.75885 103.564755,60.42945 104.141055,60.31185 L104.141055,60.26475 C103.400055,59.92365 103.035405,59.30025 103.035405,58.50045 C103.035405,57.25365 103.905855,56.4186 105.682005,56.4186 C106.070205,56.4186 106.423005,56.45385 106.728855,56.5362 L106.728855,56.30085 C106.728855,55.65405 107.069955,55.37175 107.658105,55.37175 L108.634305,55.37175 L108.634305,56.6655 L107.269905,56.6655 L107.269905,56.73615 C107.987355,57.07725 108.328455,57.71235 108.328455,58.50045 C108.328455,59.73555 107.469855,60.54705 105.682005,60.54705 C105.270255,60.54705 104.905605,60.49995 104.588055,60.41775 C104.423505,60.5235 104.317605,60.6999 104.317605,60.9117 C104.317605,61.20585 104.529255,61.38225 105.058605,61.38225 L106.846455,61.38225 C108.352005,61.38225 108.998955,62.0409 108.998955,63.1818 C108.998955,64.4874 108.175605,65.2284 105.658455,65.2284" id="Fill-22" fill="#000000"></path>
                <mask id="mask-2" fill="white">
                    <use xlink:href="#path-1"></use>
                </mask>
                <g id="Clip-25"></g>
                <path d="M109.77465,62.7348 L111.5154,62.7348 L111.5154,56.5596 L109.77465,56.5596 L109.77465,62.7348 Z M109.6335,55.04235 L109.6335,54.7836 C109.6335,54.28965 109.9392,53.925 110.64495,53.925 C111.3507,53.925 111.65655,54.28965 111.65655,54.7836 L111.65655,55.04235 C111.65655,55.53645 111.3507,55.90095 110.64495,55.90095 C109.9392,55.90095 109.6335,55.53645 109.6335,55.04235 Z" id="Fill-24" fill="#000000" mask="url(#mask-2)"></path>
                <path d="M114.867405,62.73486 C113.679405,62.73486 113.138355,62.13501 113.138355,61.04106 L113.138355,54.03081 L114.879105,54.03081 L114.879105,61.38216 L115.655505,61.38216 L115.655505,62.73486 L114.867405,62.73486 Z" id="Fill-26" fill="#000000" mask="url(#mask-2)"></path>
                <path d="M116.7018,62.7348 L118.44255,62.7348 L118.44255,56.5596 L116.7018,56.5596 L116.7018,62.7348 Z M116.5608,55.04235 L116.5608,54.7836 C116.5608,54.28965 116.86665,53.925 117.57225,53.925 C118.278,53.925 118.58385,54.28965 118.58385,54.7836 L118.58385,55.04235 C118.58385,55.53645 118.278,55.90095 117.57225,55.90095 C116.86665,55.90095 116.5608,55.53645 116.5608,55.04235 Z" id="Fill-27" fill="#000000" mask="url(#mask-2)"></path>
                <path d="M122.229855,62.73486 C121.030155,62.73486 120.395055,62.11146 120.395055,60.93516 L120.395055,57.91236 L119.524605,57.91236 L119.524605,56.55966 L119.959755,56.55966 C120.430305,56.55966 120.571305,56.32446 120.571305,55.90101 L120.571305,54.88941 L122.135805,54.88941 L122.135805,56.55966 L123.359055,56.55966 L123.359055,57.91236 L122.135805,57.91236 L122.135805,61.38216 L123.264855,61.38216 L123.264855,62.73486 L122.229855,62.73486 Z" id="Fill-28" fill="#000000" mask="url(#mask-2)"></path>
                <path d="M128.34588,56.559675 L129.96903,56.559675 L127.59303,63.687675 C127.27548,64.640325 126.75798,65.087325 125.69928,65.087325 L124.61733,65.087325 L124.61733,63.734625 L125.78163,63.734625 L125.99328,63.052425 L123.82923,56.559675 L125.55813,56.559675 L126.46383,59.441475 L126.91098,61.229325 L126.98133,61.229325 L127.44018,59.441475 L128.34588,56.559675 Z" id="Fill-29" fill="#000000" mask="url(#mask-2)"></path>
                <path d="M130.297785,61.92327 L130.297785,61.68807 C130.297785,61.14702 130.627035,60.74712 131.332785,60.74712 C132.038535,60.74712 132.367935,61.14702 132.367935,61.68807 L132.367935,61.92327 C132.367935,62.46432 132.038535,62.86422 131.332785,62.86422 C130.627035,62.86422 130.297785,62.46432 130.297785,61.92327" id="Fill-30" fill="#000000" mask="url(#mask-2)"></path>
                <polygon id="Fill-31" fill="#000000" mask="url(#mask-2)" points="136.83699 62.73486 136.83699 54.52491 142.42404 54.52491 142.42404 56.11281 138.62484 56.11281 138.62484 57.79476 141.88299 57.79476 141.88299 59.37081 138.62484 59.37081 138.62484 61.14696 142.42404 61.14696 142.42404 62.73486"></polygon>
                <path d="M143.88186,62.73486 L143.88186,56.55966 L145.62261,56.55966 L145.62261,57.60651 L145.69326,57.60651 C145.91676,56.94786 146.43426,56.41851 147.35166,56.41851 C148.19856,56.41851 148.81026,56.85366 149.08086,57.66531 L149.11611,57.66531 C149.33946,56.97141 150.05691,56.41851 150.99801,56.41851 C152.18601,56.41851 152.84466,57.31251 152.84466,58.86516 L152.84466,62.73486 L151.10391,62.73486 L151.10391,59.00631 C151.10391,58.20636 150.83331,57.83001 150.25686,57.83001 C149.73936,57.83001 149.23371,58.12401 149.23371,58.73571 L149.23371,62.73486 L147.49296,62.73486 L147.49296,59.00631 C147.49296,58.20636 147.21066,57.83001 146.64591,57.83001 C146.14011,57.83001 145.62261,58.12401 145.62261,58.73571 L145.62261,62.73486 L143.88186,62.73486 Z" id="Fill-32" fill="#000000" mask="url(#mask-2)"></path>
                <path d="M158.419185,60.182445 L158.419185,59.112045 C158.419185,58.335795 157.936935,57.829995 157.278285,57.829995 C156.619635,57.829995 156.137235,58.171095 156.137235,58.735695 L156.137235,60.558795 C156.137235,61.123395 156.619635,61.464495 157.278285,61.464495 C157.936935,61.464495 158.419185,60.958695 158.419185,60.182445 Z M154.396485,54.030795 L156.137235,54.030795 L156.137235,57.594795 L156.196185,57.594795 C156.372435,56.912595 157.054785,56.418495 157.854585,56.418495 C159.418935,56.418495 160.230585,57.547695 160.230585,59.641395 C160.230585,61.735095 159.418935,62.875995 157.854585,62.875995 C157.054785,62.875995 156.372435,62.370195 156.196185,61.699845 L156.137235,61.699845 L156.137235,62.734845 L154.396485,62.734845 L154.396485,54.030795 Z" id="Fill-33" fill="#000000" mask="url(#mask-2)"></path>
                <path d="M161.54721,62.73486 L161.54721,56.55966 L163.28796,56.55966 L163.28796,57.90051 L163.34691,57.90051 C163.48791,57.21846 163.95846,56.55966 164.92311,56.55966 L165.22881,56.55966 L165.22881,58.18281 L164.79366,58.18281 C163.78206,58.18281 163.28796,58.40646 163.28796,59.12391 L163.28796,62.73486 L161.54721,62.73486 Z" id="Fill-34" fill="#000000" mask="url(#mask-2)"></path>
                <path d="M169.34517,60.86469 L169.34517,60.13539 L168.49827,60.13539 C167.82777,60.13539 167.47482,60.38244 167.47482,60.82944 L167.47482,61.00584 C167.47482,61.45269 167.76897,61.66449 168.28647,61.66449 C168.86277,61.66449 169.34517,61.42929 169.34517,60.86469 Z M170.69787,62.73489 C170.07432,62.73489 169.62747,62.31144 169.52157,61.65264 L169.45092,61.65264 C169.26267,62.45259 168.58047,62.87604 167.63952,62.87604 C166.40457,62.87604 165.72237,62.14674 165.72237,61.07634 C165.72237,59.77074 166.73397,59.14734 168.36882,59.14734 L169.34517,59.14734 L169.34517,58.75914 C169.34517,58.15929 169.05102,57.78294 168.32187,57.78294 C167.62782,57.78294 167.26317,58.13589 166.99257,58.51224 L165.95757,57.59484 C166.45167,56.86554 167.15727,56.41854 168.45117,56.41854 C170.19207,56.41854 171.08577,57.21834 171.08577,58.67694 L171.08577,61.38219 L171.66222,61.38219 L171.66222,62.73489 L170.69787,62.73489 Z" id="Fill-35" fill="#000000" mask="url(#mask-2)"></path>
                <path d="M172.437885,59.64141 C172.437885,57.66531 173.461185,56.41851 175.319535,56.41851 C176.566335,56.41851 177.425085,57.01836 177.789735,58.02996 L176.378235,58.64151 C176.272185,58.17111 175.931235,57.79476 175.319535,57.79476 C174.613935,57.79476 174.249135,58.30056 174.249135,59.07681 L174.249135,60.22956 C174.249135,61.00581 174.613935,61.51161 175.319535,61.51161 C176.013585,61.51161 176.295885,61.07631 176.472285,60.58236 L177.824985,61.17051 C177.413235,62.34666 176.531085,62.87601 175.319535,62.87601 C173.461185,62.87601 172.437885,61.61751 172.437885,59.64141" id="Fill-36" fill="#000000" mask="url(#mask-2)"></path>
                <path d="M180.259275,58.97094 L180.259275,59.06499 L182.423625,59.06499 L182.423625,58.95909 C182.423625,58.20639 182.082375,57.70059 181.388475,57.70059 C180.694425,57.70059 180.259275,58.20639 180.259275,58.97094 M178.459725,59.64144 C178.459725,57.68889 179.494725,56.41854 181.353225,56.41854 C183.399825,56.41854 184.223175,57.90054 184.223175,59.57079 L184.223175,60.08829 L180.259275,60.08829 L180.259275,60.18249 C180.259275,60.99399 180.694425,61.51149 181.623825,61.51149 C182.352975,61.51149 182.752875,61.17054 183.141075,60.77064 L184.011525,61.85259 C183.458625,62.48784 182.552925,62.87604 181.423875,62.87604 C179.530125,62.87604 178.459725,61.61754 178.459725,59.64144" id="Fill-37" fill="#000000" mask="url(#mask-2)"></path>
                <path d="M96.59055,75.6366 L98.3313,75.6366 L98.3313,69.4614 L96.59055,69.4614 L96.59055,75.6366 Z M96.4494,67.94415 L96.4494,67.6854 C96.4494,67.1913 96.7551,66.82665 97.46085,66.82665 C98.1666,66.82665 98.47245,67.1913 98.47245,67.6854 L98.47245,67.94415 C98.47245,68.4381 98.1666,68.80275 97.46085,68.80275 C96.7551,68.80275 96.4494,68.4381 96.4494,67.94415 Z" id="Fill-38" fill="#000000" mask="url(#mask-2)"></path>
                <path d="M99.954195,75.636615 L99.954195,69.461415 L101.694945,69.461415 L101.694945,70.508265 L101.765595,70.508265 C101.989095,69.861315 102.506595,69.320265 103.482795,69.320265 C104.741445,69.320265 105.411795,70.214265 105.411795,71.766915 L105.411795,75.636615 L103.671045,75.636615 L103.671045,71.908065 C103.671045,71.119965 103.447545,70.731765 102.812445,70.731765 C102.247845,70.731765 101.694945,71.025765 101.694945,71.637465 L101.694945,75.636615 L99.954195,75.636615 Z" id="Fill-39" fill="#000000" mask="url(#mask-2)"></path>
                <path d="M106.963845,75.636615 L106.963845,69.461415 L108.704595,69.461415 L108.704595,70.508265 L108.775245,70.508265 C108.998745,69.861315 109.516245,69.320265 110.492445,69.320265 C111.751095,69.320265 112.421445,70.214265 112.421445,71.766915 L112.421445,75.636615 L110.680695,75.636615 L110.680695,71.908065 C110.680695,71.119965 110.457195,70.731765 109.822095,70.731765 C109.257495,70.731765 108.704595,71.025765 108.704595,71.637465 L108.704595,75.636615 L106.963845,75.636615 Z" id="Fill-40" fill="#000000" mask="url(#mask-2)"></path>
                <path d="M117.560955,73.178325 L117.560955,71.919675 C117.560955,71.143425 117.161055,70.696575 116.478855,70.696575 C115.796505,70.696575 115.396605,71.143425 115.396605,71.919675 L115.396605,73.178325 C115.396605,73.954575 115.796505,74.401575 116.478855,74.401575 C117.161055,74.401575 117.560955,73.954575 117.560955,73.178325 M113.585355,72.543225 C113.585355,70.555425 114.667455,69.320325 116.478855,69.320325 C118.290105,69.320325 119.372355,70.555425 119.372355,72.543225 C119.372355,74.531025 118.290105,75.777825 116.478855,75.777825 C114.667455,75.777825 113.585355,74.531025 113.585355,72.543225" id="Fill-41" fill="#000000" mask="url(#mask-2)"></path>
                <polygon id="Fill-42" fill="#000000" mask="url(#mask-2)" points="121.84197 75.636615 119.81892 69.461415 121.53612 69.461415 122.30067 71.955015 122.87697 74.189865 122.97102 74.189865 123.54747 71.955015 124.28847 69.461415 125.93517 69.461415 123.91212 75.636615"></polygon>
                <path d="M129.96906,73.76646 L129.96906,73.03716 L129.12216,73.03716 C128.45166,73.03716 128.09871,73.28421 128.09871,73.73121 L128.09871,73.90761 C128.09871,74.35446 128.39286,74.56626 128.91036,74.56626 C129.48666,74.56626 129.96906,74.33106 129.96906,73.76646 Z M131.32176,75.63666 C130.69821,75.63666 130.25136,75.21321 130.14546,74.55441 L130.07481,74.55441 C129.88656,75.35436 129.20436,75.77781 128.26341,75.77781 C127.02846,75.77781 126.34626,75.04851 126.34626,73.97811 C126.34626,72.67251 127.35786,72.04911 128.99271,72.04911 L129.96906,72.04911 L129.96906,71.66091 C129.96906,71.06106 129.67491,70.68471 128.94576,70.68471 C128.25171,70.68471 127.88706,71.03766 127.61646,71.41401 L126.58146,70.49661 C127.07556,69.76731 127.78116,69.32031 129.07506,69.32031 C130.81596,69.32031 131.70966,70.12011 131.70966,71.57871 L131.70966,74.28396 L132.28611,74.28396 L132.28611,75.63666 L131.32176,75.63666 Z" id="Fill-43" fill="#000000" mask="url(#mask-2)"></path>
                <path d="M135.55539,75.636615 C134.35569,75.636615 133.72059,75.013215 133.72059,73.836915 L133.72059,70.814115 L132.85014,70.814115 L132.85014,69.461415 L133.28529,69.461415 C133.75584,69.461415 133.89684,69.226215 133.89684,68.802765 L133.89684,67.791165 L135.46134,67.791165 L135.46134,69.461415 L136.68459,69.461415 L136.68459,70.814115 L135.46134,70.814115 L135.46134,74.283915 L136.59039,74.283915 L136.59039,75.636615 L135.55539,75.636615 Z" id="Fill-44" fill="#000000" mask="url(#mask-2)"></path>
                <path d="M137.8956,75.6366 L139.63635,75.6366 L139.63635,69.4614 L137.8956,69.4614 L137.8956,75.6366 Z M137.7546,67.94415 L137.7546,67.6854 C137.7546,67.1913 138.06045,66.82665 138.76605,66.82665 C139.4718,66.82665 139.77765,67.1913 139.77765,67.6854 L139.77765,67.94415 C139.77765,68.4381 139.4718,68.80275 138.76605,68.80275 C138.06045,68.80275 137.7546,68.4381 137.7546,67.94415 Z" id="Fill-45" fill="#000000" mask="url(#mask-2)"></path>
                <path d="M144.846825,73.178325 L144.846825,71.919675 C144.846825,71.143425 144.446925,70.696575 143.764875,70.696575 C143.082525,70.696575 142.682625,71.143425 142.682625,71.919675 L142.682625,73.178325 C142.682625,73.954575 143.082525,74.401575 143.764875,74.401575 C144.446925,74.401575 144.846825,73.954575 144.846825,73.178325 M140.871375,72.543225 C140.871375,70.555425 141.953325,69.320325 143.764875,69.320325 C145.575975,69.320325 146.658225,70.555425 146.658225,72.543225 C146.658225,74.531025 145.575975,75.777825 143.764875,75.777825 C141.953325,75.777825 140.871375,74.531025 140.871375,72.543225" id="Fill-46" fill="#000000" mask="url(#mask-2)"></path>
                <path d="M147.89253,75.636615 L147.89253,69.461415 L149.63328,69.461415 L149.63328,70.508265 L149.70393,70.508265 C149.92743,69.861315 150.44508,69.320265 151.42128,69.320265 C152.67978,69.320265 153.35028,70.214265 153.35028,71.766915 L153.35028,75.636615 L151.60938,75.636615 L151.60938,71.908065 C151.60938,71.119965 151.38603,70.731765 150.75093,70.731765 C150.18618,70.731765 149.63328,71.025765 149.63328,71.637465 L149.63328,75.636615 L147.89253,75.636615 Z" id="Fill-47" fill="#000000" mask="url(#mask-2)"></path>
                <polygon id="Fill-48" fill="#000000" mask="url(#mask-2)" points="157.08984 69.46143 158.77179 69.46143 159.37164 71.95503 159.79509 73.83693 159.84219 73.83693 160.33629 71.95503 161.04189 69.46143 162.62979 69.46143 163.34739 71.95503 163.85304 73.83693 163.90014 73.83693 164.32359 71.95503 164.92344 69.46143 166.53489 69.46143 164.82939 75.63663 163.00614 75.63663 162.25344 73.02543 161.81814 71.42568 161.78289 71.42568 161.35944 73.02543 160.60659 75.63663 158.81874 75.63663"></polygon>
                <path d="M167.5689,75.6366 L169.30965,75.6366 L169.30965,69.4614 L167.5689,69.4614 L167.5689,75.6366 Z M167.4279,67.94415 L167.4279,67.6854 C167.4279,67.1913 167.73375,66.82665 168.43935,66.82665 C169.1451,66.82665 169.45095,67.1913 169.45095,67.6854 L169.45095,67.94415 C169.45095,68.4381 169.1451,68.80275 168.43935,68.80275 C167.73375,68.80275 167.4279,68.4381 167.4279,67.94415 Z" id="Fill-49" fill="#000000" mask="url(#mask-2)"></path>
                <path d="M173.096925,75.636615 C171.897225,75.636615 171.262125,75.013215 171.262125,73.836915 L171.262125,70.814115 L170.391675,70.814115 L170.391675,69.461415 L170.826825,69.461415 C171.297375,69.461415 171.438375,69.226215 171.438375,68.802765 L171.438375,67.791165 L173.002875,67.791165 L173.002875,69.461415 L174.226125,69.461415 L174.226125,70.814115 L173.002875,70.814115 L173.002875,74.283915 L174.131925,74.283915 L174.131925,75.636615 L173.096925,75.636615 Z" id="Fill-50" fill="#000000" mask="url(#mask-2)"></path>
                <path d="M175.437165,66.932595 L177.177915,66.932595 L177.177915,70.508295 L177.248565,70.508295 C177.472065,69.861345 177.989715,69.320295 178.965915,69.320295 C180.224415,69.320295 180.894915,70.214145 180.894915,71.766945 L180.894915,75.636645 L179.154015,75.636645 L179.154015,71.907945 C179.154015,71.119995 178.930665,70.731795 178.295565,70.731795 C177.730815,70.731795 177.177915,71.025795 177.177915,71.637495 L177.177915,75.636645 L175.437165,75.636645 L175.437165,66.932595 Z" id="Fill-51" fill="#000000" mask="url(#mask-2)"></path>
                <path d="M96.36702,84.49278 C96.36702,81.71688 97.79022,80.18778 100.00152,80.18778 C101.50707,80.18778 102.47157,80.79933 103.07142,82.11678 L101.53062,82.91658 C101.31897,82.23438 100.88367,81.77568 100.00152,81.77568 C98.95467,81.77568 98.26077,82.48143 98.26077,83.77533 L98.26077,85.09263 C98.26077,86.38653 98.95467,87.09228 100.00152,87.09228 C100.88367,87.09228 101.38947,86.53938 101.63652,85.86888 L103.09497,86.71578 C102.48327,87.96258 101.50707,88.68018 100.00152,88.68018 C97.79022,88.68018 96.36702,87.26868 96.36702,84.49278" id="Fill-52" fill="#000000" mask="url(#mask-2)"></path>
                <path d="M105.975945,88.53897 C104.787945,88.53897 104.246895,87.93912 104.246895,86.84517 L104.246895,79.83492 L105.987795,79.83492 L105.987795,87.18627 L106.764045,87.18627 L106.764045,88.53897 L105.975945,88.53897 Z" id="Fill-53" fill="#000000" mask="url(#mask-2)"></path>
                <path d="M111.397995,86.080665 L111.397995,84.822015 C111.397995,84.045765 110.998095,83.598915 110.315895,83.598915 C109.633695,83.598915 109.233795,84.045765 109.233795,84.822015 L109.233795,86.080665 C109.233795,86.856915 109.633695,87.303915 110.315895,87.303915 C110.998095,87.303915 111.397995,86.856915 111.397995,86.080665 M107.422395,85.445565 C107.422395,83.457765 108.504495,82.222665 110.315895,82.222665 C112.127295,82.222665 113.209395,83.457765 113.209395,85.445565 C113.209395,87.433365 112.127295,88.680165 110.315895,88.680165 C108.504495,88.680165 107.422395,87.433365 107.422395,85.445565" id="Fill-54" fill="#000000" mask="url(#mask-2)"></path>
                <path d="M118.090215,87.50391 L118.031265,87.50391 C117.819615,88.12731 117.313815,88.68006 116.302215,88.68006 C115.043715,88.68006 114.373365,87.79791 114.373365,86.24526 L114.373365,82.36371 L116.114115,82.36371 L116.114115,86.09241 C116.114115,86.84511 116.361165,87.26871 116.996265,87.26871 C117.537315,87.26871 118.090215,86.96286 118.090215,86.37471 L118.090215,82.36371 L119.830815,82.36371 L119.830815,88.53891 L118.090215,88.53891 L118.090215,87.50391 Z" id="Fill-55" fill="#000000" mask="url(#mask-2)"></path>
                <path d="M125.240985,86.362935 L125.240985,84.539835 C125.240985,83.975235 124.758735,83.634135 124.100085,83.634135 C123.441435,83.634135 122.959035,84.139935 122.959035,84.916185 L122.959035,85.986585 C122.959035,86.762835 123.441435,87.268635 124.100085,87.268635 C124.758735,87.268635 125.240985,86.927535 125.240985,86.362935 Z M125.240985,87.503835 L125.182185,87.503835 C125.005785,88.174335 124.323585,88.680135 123.523785,88.680135 C121.959285,88.680135 121.147785,87.539235 121.147785,85.445535 C121.147785,83.351835 121.959285,82.222635 123.523785,82.222635 C124.323585,82.222635 125.005785,82.716585 125.182185,83.398935 L125.240985,83.398935 L125.240985,79.834935 L126.981735,79.834935 L126.981735,88.538985 L125.240985,88.538985 L125.240985,87.503835 Z" id="Fill-56" fill="#000000" mask="url(#mask-2)"></path>
                <path d="M128.58084,87.727365 L128.58084,87.492165 C128.58084,86.951115 128.91009,86.551215 129.61584,86.551215 C130.32159,86.551215 130.65099,86.951115 130.65099,87.492165 L130.65099,87.727365 C130.65099,88.268415 130.32159,88.668315 129.61584,88.668315 C128.91009,88.668315 128.58084,88.268415 128.58084,87.727365" id="Fill-57" fill="#000000" mask="url(#mask-2)"></path>
                <path d="M188.550735,243.754695 L188.550735,243.998295 L189.851685,243.998295 C189.822885,243.914145 189.805935,243.863295 189.769785,243.754695 L188.550735,243.754695 Z" id="Fill-58" fill="#FFFFFF" mask="url(#mask-2)"></path>
                <polygon id="Fill-59" fill="#FFFFFF" mask="url(#mask-2)" points="190.25757 243.75498 190.17567 243.99858 191.47782 243.99858 191.47782 243.75498"></polygon>
                <path d="M189.93252,244.24233 L189.28257,244.24233 C189.28257,244.24233 189.34752,244.43808 189.36342,244.48593 L190.01337,244.48593 C190.01337,244.48593 189.94842,244.29018 189.93252,244.24233" id="Fill-60" fill="#FFFFFF" mask="url(#mask-2)"></path>
                <polygon id="Fill-61" fill="#FFFFFF" mask="url(#mask-2)" points="190.09482 244.24233 190.01397 244.48593 190.66497 244.48593 190.74582 244.24233"></polygon>
                <path d="M189.52602,244.97403 L190.50162,244.97403 L190.58247,244.73043 L189.44517,244.73043 C189.47292,244.81443 189.48987,244.86543 189.52602,244.97403" id="Fill-62" fill="#FFFFFF" mask="url(#mask-2)"></path>
                <polygon id="Fill-63" fill="#FFFFFF" mask="url(#mask-2)" points="188.5506 245.4621 189.28245 245.4621 189.28245 245.2173 188.5506 245.2173"></polygon>
                <polygon id="Fill-64" fill="#FFFFFF" mask="url(#mask-2)" points="190.7463 245.4621 191.4783 245.4621 191.4783 245.2173 190.7463 245.2173"></polygon>
                <polygon id="Fill-65" fill="#FFFFFF" mask="url(#mask-2)" points="188.5506 244.9737 189.28245 244.9737 189.28245 244.7301 188.5506 244.7301"></polygon>
                <polygon id="Fill-66" fill="#FFFFFF" mask="url(#mask-2)" points="190.7463 244.9737 191.4783 244.9737 191.4783 244.7301 190.7463 244.7301"></polygon>
                <polygon id="Fill-67" fill="#FFFFFF" mask="url(#mask-2)" points="188.5506 244.4865 189.28245 244.4865 189.28245 244.2429 188.5506 244.2429"></polygon>
                <polygon id="Fill-68" fill="#FFFFFF" mask="url(#mask-2)" points="190.7463 244.4865 191.4783 244.4865 191.4783 244.2429 190.7463 244.2429"></polygon>
                <polygon id="Fill-69" fill="#FFFFFF" mask="url(#mask-2)" points="188.0634 245.9493 189.28245 245.9493 189.28245 245.7045 188.0634 245.7045"></polygon>
                <polygon id="Fill-70" fill="#FFFFFF" mask="url(#mask-2)" points="188.0634 246.43755 189.28245 246.43755 189.28245 246.19395 188.0634 246.19395"></polygon>
                <polygon id="Fill-71" fill="#FFFFFF" mask="url(#mask-2)" points="185.5017 245.4621 186.2337 245.4621 186.2337 245.2173 185.5017 245.2173"></polygon>
                <polygon id="Fill-72" fill="#FFFFFF" mask="url(#mask-2)" points="185.5017 243.99825 186.2337 243.99825 186.2337 243.75465 185.5017 243.75465"></polygon>
                <polygon id="Fill-73" fill="#FFFFFF" mask="url(#mask-2)" points="183.55065 245.4621 184.28265 245.4621 184.28265 245.2173 183.55065 245.2173"></polygon>
                <polygon id="Fill-74" fill="#FFFFFF" mask="url(#mask-2)" points="183.55065 244.9737 184.28265 244.9737 184.28265 244.7301 183.55065 244.7301"></polygon>
                <polygon id="Fill-75" fill="#FFFFFF" mask="url(#mask-2)" points="183.55065 244.4865 184.28265 244.4865 184.28265 244.2429 183.55065 244.2429"></polygon>
                <polygon id="Fill-76" fill="#FFFFFF" mask="url(#mask-2)" points="183.55065 243.99825 184.28265 243.99825 184.28265 243.75465 183.55065 243.75465"></polygon>
                <polygon id="Fill-77" fill="#FFFFFF" mask="url(#mask-2)" points="183.06345 245.9493 184.7709 245.9493 184.7709 245.7045 183.06345 245.7045"></polygon>
                <polygon id="Fill-78" fill="#FFFFFF" mask="url(#mask-2)" points="183.06345 246.43755 184.7709 246.43755 184.7709 246.19395 183.06345 246.19395"></polygon>
                <polygon id="Fill-79" fill="#FFFFFF" mask="url(#mask-2)" points="183.06345 243.02265 184.7709 243.02265 184.7709 242.77905 183.06345 242.77905"></polygon>
                <polygon id="Fill-80" fill="#FFFFFF" mask="url(#mask-2)" points="183.06345 243.51105 184.7709 243.51105 184.7709 243.26625 183.06345 243.26625"></polygon>
                <path d="M188.062935,242.779095 L188.062935,243.022695 L189.525735,243.022695 C189.489585,242.914245 189.472485,242.863245 189.444885,242.779095 L188.062935,242.779095 Z" id="Fill-81" fill="#FFFFFF" mask="url(#mask-2)"></path>
                <path d="M188.062935,243.266745 L188.062935,243.510345 L189.688485,243.510345 C189.649035,243.390195 189.647985,243.387045 189.607635,243.266745 L188.062935,243.266745 Z" id="Fill-82" fill="#FFFFFF" mask="url(#mask-2)"></path>
                <polygon id="Fill-83" fill="#FFFFFF" mask="url(#mask-2)" points="190.583055 242.779395 190.502205 243.022995 191.965005 243.022995 191.965005 242.779395"></polygon>
                <polygon id="Fill-84" fill="#FFFFFF" mask="url(#mask-2)" points="190.42032 243.266745 190.33842 243.511395 191.96502 243.511395 191.96502 243.266745"></polygon>
                <polygon id="Fill-85" fill="#FFFFFF" mask="url(#mask-2)" points="190.7463 245.9493 191.9655 245.9493 191.9655 245.7045 190.7463 245.7045"></polygon>
                <polygon id="Fill-86" fill="#FFFFFF" mask="url(#mask-2)" points="190.7463 246.43755 191.9655 246.43755 191.9655 246.19395 190.7463 246.19395"></polygon>
                <path d="M190.01382,246.43725 L190.09572,246.19365 L189.93297,246.19365 C189.94887,246.2415 190.01382,246.43725 190.01382,246.43725" id="Fill-87" fill="#FFFFFF" mask="url(#mask-2)"></path>
                <path d="M189.85137,245.949465 L190.17687,245.949465 L190.25772,245.705865 L189.77052,245.705865 C189.80667,245.813415 189.82362,245.865465 189.85137,245.949465" id="Fill-88" fill="#FFFFFF" mask="url(#mask-2)"></path>
                <path d="M189.68877,245.461665 L190.33872,245.461665 L190.42062,245.218065 L189.60687,245.218065 C189.64722,245.338215 189.64827,245.341365 189.68877,245.461665" id="Fill-89" fill="#FFFFFF" mask="url(#mask-2)"></path>
                <path d="M187.488435,244.73013 L185.502285,244.73013 L185.502285,244.97373 L187.688385,244.97373 C187.635285,244.88223 187.567035,244.80033 187.488435,244.73013" id="Fill-90" fill="#FFFFFF" mask="url(#mask-2)"></path>
                <path d="M186.965325,245.461665 L187.818525,245.461665 C187.818525,245.377515 187.807875,245.295765 187.787625,245.218065 L186.965325,245.218065 L186.965325,245.461665 Z" id="Fill-91" fill="#FFFFFF" mask="url(#mask-2)"></path>
                <path d="M185.014455,245.949465 L187.687755,245.949465 C187.731405,245.874015 187.765455,245.791965 187.787805,245.705865 L185.014455,245.705865 L185.014455,245.949465 Z" id="Fill-92" fill="#FFFFFF" mask="url(#mask-2)"></path>
                <path d="M185.014455,246.43725 L186.843105,246.43725 C187.091055,246.43725 187.316655,246.3447 187.488855,246.19365 L185.014455,246.19365 L185.014455,246.43725 Z" id="Fill-93" fill="#FFFFFF" mask="url(#mask-2)"></path>
                <path d="M185.50224,244.48623 L187.48839,244.48623 C187.56714,244.41708 187.63524,244.33413 187.68834,244.24263 L185.50224,244.24263 L185.50224,244.48623 Z" id="Fill-94" fill="#FFFFFF" mask="url(#mask-2)"></path>
                <path d="M186.965325,243.99858 L187.787625,243.99858 C187.807875,243.92088 187.818525,243.83913 187.818525,243.75498 L186.965325,243.75498 L186.965325,243.99858 Z" id="Fill-95" fill="#FFFFFF" mask="url(#mask-2)"></path>
                <path d="M185.014455,242.779095 L185.014455,243.022695 L187.488855,243.022695 C187.316655,242.871645 187.091055,242.779095 186.843105,242.779095 L185.014455,242.779095 Z" id="Fill-96" fill="#FFFFFF" mask="url(#mask-2)"></path>
                <path d="M185.014455,243.510795 L187.787805,243.510795 C187.765455,243.424545 187.731405,243.342645 187.687755,243.267045 L185.014455,243.267045 L185.014455,243.510795 Z" id="Fill-97" fill="#FFFFFF" mask="url(#mask-2)"></path>
                <path d="M98.66448,243.024315 L100.04433,243.024315 C100.59633,243.024315 100.93788,243.365715 100.93788,243.889365 C100.93788,244.389315 100.61553,244.566915 100.39533,244.600965 L100.39533,244.629615 C100.63578,244.644615 101.05383,244.851015 101.05383,245.408415 C101.05383,245.961465 100.68363,246.379515 100.18788,246.379515 L98.66448,246.379515 L98.66448,243.024315 Z M99.06873,244.476465 L99.99633,244.476465 C100.31343,244.476465 100.50603,244.307415 100.50603,244.009365 L100.50603,243.846615 C100.50603,243.548865 100.31343,243.379665 99.99633,243.379665 L99.06873,243.379665 L99.06873,244.476465 Z M99.06873,246.024315 L100.06338,246.024315 C100.40913,246.024315 100.62093,245.841315 100.62093,245.505165 L100.62093,245.341215 C100.62093,245.005215 100.40913,244.822215 100.06338,244.822215 L99.06873,244.822215 L99.06873,246.024315 Z" id="Fill-98" fill="#FFFFFF" mask="url(#mask-2)"></path>
                <polygon id="Fill-99" fill="#FFFFFF" mask="url(#mask-2)" points="96.606 246.379545 96.606 246.043545 97.0773 246.043545 97.0773 243.360495 96.606 243.360495 96.606 243.024345 97.9518 243.024345 97.9518 243.360495 97.4805 243.360495 97.4805 246.043545 97.9518 246.043545 97.9518 246.379545"></polygon>
                <polygon id="Fill-100" fill="#FFFFFF" mask="url(#mask-2)" points="104.37591 243.553125 104.35146 243.553125 104.06841 244.115925 103.26531 245.576475 102.46746 244.115925 102.18456 243.558525 102.15996 243.558525 102.15996 246.379725 101.76636 246.379725 101.76636 243.024525 102.29406 243.024525 103.25571 244.831875 103.27491 244.831875 104.24076 243.024525 104.77056 243.024525 104.77056 246.379725 104.37591 246.379725"></polygon>
                <path d="M106.3467,245.894235 L106.8276,245.409135 C107.05305,245.663385 107.34135,245.793135 107.66895,245.793135 C108.0243,245.793135 108.1977,245.634735 108.1977,245.389935 C108.1977,245.206935 108.12,245.071935 107.8083,245.029185 L107.4765,244.985685 C106.77015,244.894185 106.44765,244.548435 106.44765,243.985635 C106.44765,243.384735 106.91895,242.966535 107.70735,242.966535 C108.2115,242.966535 108.5967,243.134685 108.87,243.437835 L108.3849,243.928335 C108.22635,243.741135 108.00945,243.611235 107.6637,243.611235 C107.33715,243.611235 107.1786,243.735735 107.1786,243.937935 C107.1786,244.168635 107.29875,244.254735 107.5776,244.298385 L107.9094,244.351635 C108.5967,244.461135 108.92745,244.769685 108.92745,245.346435 C108.92745,245.989935 108.45735,246.437835 107.62005,246.437835 C107.034,246.437835 106.635,246.211185 106.3467,245.894235" id="Fill-101" fill="#FFFFFF" mask="url(#mask-2)"></path>
                <path d="M109.24233,245.115525 C109.24233,244.317675 109.66578,243.798525 110.42538,243.798525 C111.26148,243.798525 111.59763,244.403775 111.59763,245.086875 L111.59763,245.298525 L109.97748,245.298525 L109.97748,245.336775 C109.97748,245.667675 110.15613,245.879325 110.53593,245.879325 C110.83383,245.879325 110.99658,245.739975 111.15498,245.577225 L111.51138,246.018675 C111.28488,246.278175 110.91573,246.437775 110.45403,246.437775 C109.67958,246.437775 109.24233,245.922975 109.24233,245.115525 M109.97748,244.841025 L109.97748,244.880475 L110.86248,244.880475 L110.86248,244.836825 C110.86248,244.529325 110.72328,244.321875 110.43918,244.321875 C110.15613,244.321875 109.97748,244.529325 109.97748,244.841025" id="Fill-102" fill="#FFFFFF" mask="url(#mask-2)"></path>
                <path d="M112.01718,246.379545 L112.01718,243.856245 L112.72893,243.856245 L112.72893,244.404195 L112.75218,244.404195 C112.80978,244.125495 113.00223,243.856245 113.39688,243.856245 L113.52138,243.856245 L113.52138,244.519095 L113.34378,244.519095 C112.92993,244.519095 112.72893,244.610445 112.72893,244.904145 L112.72893,246.379545 L112.01718,246.379545 Z" id="Fill-103" fill="#FFFFFF" mask="url(#mask-2)"></path>
                <polygon id="Fill-104" fill="#FFFFFF" mask="url(#mask-2)" points="114.558105 246.379545 113.731605 243.856245 114.433605 243.856245 114.745305 244.875495 114.981555 245.788245 115.019805 245.788245 115.255005 244.875495 115.558155 243.856245 116.230455 243.856245 115.403805 246.379545"></polygon>
                <path d="M116.48775,243.235845 L116.48775,243.130545 C116.48775,242.928345 116.61225,242.779395 116.9016,242.779395 C117.1899,242.779395 117.3144,242.928345 117.3144,243.130545 L117.3144,243.235845 C117.3144,243.438045 117.1899,243.586995 116.9016,243.586995 C116.61225,243.586995 116.48775,243.438045 116.48775,243.235845 Z M116.5452,246.379395 L117.25695,246.379395 L117.25695,243.856095 L116.5452,243.856095 L116.5452,246.379395 Z" id="Fill-105" fill="#FFFFFF" mask="url(#mask-2)"></path>
                <path d="M117.676095,245.115525 C117.676095,244.308075 118.094295,243.798525 118.853745,243.798525 C119.363295,243.798525 119.714445,244.043175 119.863245,244.456875 L119.286645,244.706925 C119.243145,244.514475 119.103795,244.361325 118.853745,244.361325 C118.565445,244.361325 118.416495,244.567725 118.416495,244.884675 L118.416495,245.355975 C118.416495,245.672925 118.565445,245.879325 118.853745,245.879325 C119.137845,245.879325 119.252745,245.701575 119.325045,245.499525 L119.878245,245.739975 C119.709045,246.220725 119.348295,246.437775 118.853745,246.437775 C118.094295,246.437775 117.676095,245.922975 117.676095,245.115525" id="Fill-106" fill="#FFFFFF" mask="url(#mask-2)"></path>
                <path d="M120.19218,245.115525 C120.19218,244.317675 120.61563,243.798525 121.37523,243.798525 C122.21133,243.798525 122.54748,244.403775 122.54748,245.086875 L122.54748,245.298525 L120.92733,245.298525 L120.92733,245.336775 C120.92733,245.667675 121.10598,245.879325 121.48473,245.879325 C121.78368,245.879325 121.94643,245.739975 122.10498,245.577225 L122.46123,246.018675 C122.23473,246.278175 121.86558,246.437775 121.40388,246.437775 C120.62943,246.437775 120.19218,245.922975 120.19218,245.115525 M120.92733,244.841025 L120.92733,244.880475 L121.81233,244.880475 L121.81233,244.836825 C121.81233,244.529325 121.67313,244.321875 121.38903,244.321875 C121.10598,244.321875 120.92733,244.529325 120.92733,244.841025" id="Fill-107" fill="#FFFFFF" mask="url(#mask-2)"></path>
                <path d="M122.88516,245.985345 L123.30321,245.563095 C123.48096,245.759745 123.69786,245.884245 123.97131,245.884245 C124.25001,245.884245 124.34676,245.792895 124.34676,245.643945 C124.34676,245.519445 124.26921,245.456745 124.09146,245.433195 L123.81816,245.399295 C123.24576,245.326845 122.96706,245.076795 122.96706,244.620495 C122.96706,244.134345 123.34686,243.798195 123.94791,243.798195 C124.47651,243.798195 124.72131,243.942945 124.97661,244.192845 L124.56816,244.610895 C124.40856,244.452345 124.19796,244.351245 123.98616,244.351245 C123.74571,244.351245 123.64896,244.437645 123.64896,244.563045 C123.64896,244.696995 123.70746,244.769445 123.91386,244.798095 L124.19796,244.836495 C124.74576,244.908795 125.02866,245.158695 125.02866,245.595945 C125.02866,246.081195 124.59681,246.437445 123.94791,246.437445 C123.46176,246.437445 123.14466,246.273645 122.88516,245.985345" id="Fill-108" fill="#FFFFFF" mask="url(#mask-2)"></path>
                <path d="M142.9596,224.414505 C143.319,224.429355 143.6808,224.436855 144.04395,224.436855 C152.39955,224.436855 159.84075,220.444305 164.55945,214.267155 L164.55945,191.598555 L165.8283,191.598555 L165.8283,212.449755 C168.372,208.453005 169.84695,203.712255 169.84695,198.634005 C169.84695,195.112605 169.13745,191.752905 167.8545,188.691855 L148.2087,177.349155 L148.8432,176.250255 L166.9068,186.679155 C163.07445,179.380605 155.84955,174.130455 147.34155,173.040705 L127.6932,184.384605 L127.05855,183.285705 L145.12785,172.853355 C144.76845,172.838355 144.40695,172.830855 144.04395,172.830855 C135.68805,172.830855 128.247,176.823705 123.5283,183.000705 L123.5283,205.669155 L122.25945,205.669155 L122.25945,184.817955 C119.71575,188.814855 118.2408,193.555455 118.2408,198.634005 C118.2408,202.155105 118.95015,205.514655 120.23295,208.575855 L139.8789,219.918405 L139.24425,221.017455 L121.18095,210.588555 C125.0127,217.888005 132.23715,223.137105 140.74605,224.227155 L160.3944,212.883105 L161.0289,213.982005 L142.9596,224.414505 Z M144.04395,225.705855 C129.11625,225.705855 116.97195,213.561405 116.97195,198.634005 C116.97195,183.706305 129.11625,171.561855 144.04395,171.561855 C158.97135,171.561855 171.1158,183.706305 171.1158,198.634005 C171.1158,213.561405 158.97135,225.705855 144.04395,225.705855 Z" id="Fill-109" fill="#FFFFFF" mask="url(#mask-2)"></path>
            </g>
        </g>
    </g>
</svg>