<svg width="320" height="320" viewBox="0 0 320 320" fill="none" xmlns="http://www.w3.org/2000/svg">
<path d="M208.372 164.024C207.308 164.024 206.48 163.662 205.888 162.938C205.296 162.214 205 161.148 205 159.74C205 158.332 205.296 157.25 205.888 156.494C206.48 155.738 207.308 155.36 208.372 155.36C209.076 155.36 209.666 155.52 210.142 155.84C210.618 156.16 210.988 156.612 211.252 157.196L210.436 157.688C210.268 157.256 210.012 156.91 209.668 156.65C209.324 156.39 208.892 156.26 208.372 156.26C208.012 156.26 207.69 156.328 207.406 156.464C207.122 156.6 206.882 156.794 206.686 157.046C206.49 157.298 206.34 157.598 206.236 157.946C206.132 158.294 206.08 158.684 206.08 159.116V160.364C206.08 161.228 206.28 161.904 206.68 162.392C207.08 162.88 207.644 163.124 208.372 163.124C208.908 163.124 209.356 162.986 209.716 162.71C210.076 162.434 210.34 162.068 210.508 161.612L211.312 162.116C211.048 162.708 210.668 163.174 210.172 163.514C209.676 163.854 209.076 164.024 208.372 164.024Z" fill="#171717"/>
<path d="M212.776 163.88V157.688H213.736V158.828H213.796C213.908 158.532 214.108 158.268 214.396 158.036C214.684 157.804 215.08 157.688 215.584 157.688H215.956V158.648H215.392C214.872 158.648 214.466 158.746 214.174 158.942C213.882 159.138 213.736 159.384 213.736 159.68V163.88H212.776Z" fill="#171717"/>
<path d="M220.996 162.872H220.948C220.884 163.016 220.806 163.158 220.714 163.298C220.622 163.438 220.508 163.562 220.372 163.67C220.236 163.778 220.072 163.864 219.88 163.928C219.688 163.992 219.464 164.024 219.208 164.024C218.568 164.024 218.06 163.818 217.684 163.406C217.308 162.994 217.12 162.412 217.12 161.66V157.688H218.08V161.492C218.08 162.604 218.552 163.16 219.496 163.16C219.688 163.16 219.874 163.136 220.054 163.088C220.234 163.04 220.394 162.968 220.534 162.872C220.674 162.776 220.786 162.654 220.87 162.506C220.954 162.358 220.996 162.18 220.996 161.972V157.688H221.956V163.88H220.996V162.872Z" fill="#171717"/>
<path d="M223.996 163.88V157.688H224.956V158.696H225.004C225.076 158.536 225.158 158.386 225.25 158.246C225.342 158.106 225.454 157.984 225.586 157.88C225.718 157.776 225.872 157.694 226.048 157.634C226.224 157.574 226.432 157.544 226.672 157.544C227.08 157.544 227.456 157.642 227.8 157.838C228.144 158.034 228.4 158.356 228.568 158.804H228.592C228.704 158.468 228.914 158.174 229.222 157.922C229.53 157.67 229.948 157.544 230.476 157.544C231.108 157.544 231.602 157.75 231.958 158.162C232.314 158.574 232.492 159.156 232.492 159.908V163.88H231.532V160.076C231.532 159.524 231.424 159.108 231.208 158.828C230.992 158.548 230.648 158.408 230.176 158.408C229.984 158.408 229.802 158.432 229.63 158.48C229.458 158.528 229.304 158.6 229.168 158.696C229.032 158.792 228.924 158.914 228.844 159.062C228.764 159.21 228.724 159.384 228.724 159.584V163.88H227.764V160.076C227.764 159.524 227.656 159.108 227.44 158.828C227.224 158.548 226.888 158.408 226.432 158.408C226.24 158.408 226.056 158.432 225.88 158.48C225.704 158.528 225.548 158.6 225.412 158.696C225.276 158.792 225.166 158.914 225.082 159.062C224.998 159.21 224.956 159.384 224.956 159.584V163.88H223.996Z" fill="#171717"/>
<path fill-rule="evenodd" clip-rule="evenodd" d="M235.432 155H234.472V163.88H235.432V162.872H235.48C235.848 163.64 236.452 164.024 237.292 164.024C237.676 164.024 238.024 163.948 238.336 163.796C238.648 163.644 238.914 163.428 239.134 163.148C239.354 162.868 239.522 162.528 239.638 162.128C239.754 161.728 239.812 161.28 239.812 160.784C239.812 160.288 239.754 159.84 239.638 159.44C239.522 159.04 239.354 158.7 239.134 158.42C238.914 158.14 238.648 157.924 238.336 157.772C238.024 157.62 237.676 157.544 237.292 157.544C236.86 157.544 236.49 157.638 236.182 157.826C235.874 158.014 235.64 158.304 235.48 158.696H235.432V155ZM238.312 162.65C238 162.99 237.572 163.16 237.028 163.16C236.812 163.16 236.606 163.132 236.41 163.076C236.214 163.02 236.044 162.938 235.9 162.83C235.756 162.722 235.642 162.59 235.558 162.434C235.474 162.278 235.432 162.1 235.432 161.9V159.596C235.432 159.428 235.474 159.27 235.558 159.122C235.642 158.974 235.756 158.848 235.9 158.744C236.044 158.64 236.214 158.558 236.41 158.498C236.606 158.438 236.812 158.408 237.028 158.408C237.572 158.408 238 158.578 238.312 158.918C238.624 159.258 238.78 159.704 238.78 160.256V161.312C238.78 161.864 238.624 162.31 238.312 162.65Z" fill="#171717"/>
<path d="M246.376 159.056C246.944 159.056 247.37 158.926 247.654 158.666C247.938 158.406 248.08 158.072 248.08 157.664V157.58C248.08 157.14 247.942 156.81 247.666 156.59C247.39 156.37 247.028 156.26 246.58 156.26C246.148 156.26 245.796 156.354 245.524 156.542C245.252 156.73 245.028 156.984 244.852 157.304L244.108 156.728C244.212 156.56 244.338 156.394 244.486 156.23C244.634 156.066 244.808 155.92 245.008 155.792C245.208 155.664 245.44 155.56 245.704 155.48C245.968 155.4 246.268 155.36 246.604 155.36C246.956 155.36 247.288 155.406 247.6 155.498C247.912 155.59 248.182 155.726 248.41 155.906C248.638 156.086 248.818 156.308 248.95 156.572C249.082 156.836 249.148 157.136 249.148 157.472C249.148 157.744 249.106 157.988 249.022 158.204C248.938 158.42 248.824 158.608 248.68 158.768C248.536 158.928 248.366 159.064 248.17 159.176C247.974 159.288 247.764 159.372 247.54 159.428V159.476C247.764 159.524 247.982 159.602 248.194 159.71C248.406 159.818 248.594 159.958 248.758 160.13C248.922 160.302 249.054 160.51 249.154 160.754C249.254 160.998 249.304 161.276 249.304 161.588C249.304 161.948 249.236 162.278 249.1 162.578C248.964 162.878 248.772 163.134 248.524 163.346C248.276 163.558 247.976 163.724 247.624 163.844C247.272 163.964 246.884 164.024 246.46 164.024C246.1 164.024 245.78 163.984 245.5 163.904C245.22 163.824 244.972 163.716 244.756 163.58C244.54 163.444 244.35 163.292 244.186 163.124C244.022 162.956 243.876 162.78 243.748 162.596L244.504 162.02C244.608 162.188 244.722 162.34 244.846 162.476C244.97 162.612 245.108 162.728 245.26 162.824C245.412 162.92 245.584 162.994 245.776 163.046C245.968 163.098 246.192 163.124 246.448 163.124C247.04 163.124 247.488 162.99 247.792 162.722C248.096 162.454 248.248 162.072 248.248 161.576V161.48C248.248 160.984 248.096 160.602 247.792 160.334C247.488 160.066 247.04 159.932 246.448 159.932H245.464V159.056H246.376Z" fill="#171717"/>
<path d="M74.372 164.024C73.308 164.024 72.48 163.662 71.888 162.938C71.296 162.214 71 161.148 71 159.74C71 158.332 71.296 157.25 71.888 156.494C72.48 155.738 73.308 155.36 74.372 155.36C75.076 155.36 75.666 155.52 76.142 155.84C76.618 156.16 76.988 156.612 77.252 157.196L76.436 157.688C76.268 157.256 76.012 156.91 75.668 156.65C75.324 156.39 74.892 156.26 74.372 156.26C74.012 156.26 73.69 156.328 73.406 156.464C73.122 156.6 72.882 156.794 72.686 157.046C72.49 157.298 72.34 157.598 72.236 157.946C72.132 158.294 72.08 158.684 72.08 159.116V160.364C72.08 161.228 72.28 161.904 72.68 162.392C73.08 162.88 73.644 163.124 74.372 163.124C74.908 163.124 75.356 162.986 75.716 162.71C76.076 162.434 76.34 162.068 76.508 161.612L77.312 162.116C77.048 162.708 76.668 163.174 76.172 163.514C75.676 163.854 75.076 164.024 74.372 164.024Z" fill="#0062FF"/>
<path d="M78.7759 163.88V157.688H79.7359V158.828H79.7959C79.9079 158.532 80.1079 158.268 80.3959 158.036C80.6839 157.804 81.0799 157.688 81.5839 157.688H81.9559V158.648H81.3919C80.8719 158.648 80.4659 158.746 80.1739 158.942C79.8819 159.138 79.7359 159.384 79.7359 159.68V163.88H78.7759Z" fill="#0062FF"/>
<path d="M86.9961 162.872H86.9481C86.8841 163.016 86.8061 163.158 86.7141 163.298C86.6221 163.438 86.5081 163.562 86.3721 163.67C86.2361 163.778 86.0721 163.864 85.8801 163.928C85.6881 163.992 85.4641 164.024 85.2081 164.024C84.5681 164.024 84.0601 163.818 83.6841 163.406C83.3081 162.994 83.1201 162.412 83.1201 161.66V157.688H84.0801V161.492C84.0801 162.604 84.5521 163.16 85.4961 163.16C85.6881 163.16 85.8741 163.136 86.0541 163.088C86.2341 163.04 86.3941 162.968 86.5341 162.872C86.6741 162.776 86.7861 162.654 86.8701 162.506C86.9541 162.358 86.9961 162.18 86.9961 161.972V157.688H87.9561V163.88H86.9961V162.872Z" fill="#0062FF"/>
<path d="M89.9961 163.88V157.688H90.9561V158.696H91.0041C91.0761 158.536 91.1581 158.386 91.2501 158.246C91.3421 158.106 91.4541 157.984 91.5861 157.88C91.7181 157.776 91.8721 157.694 92.0481 157.634C92.2241 157.574 92.4321 157.544 92.6721 157.544C93.0801 157.544 93.4561 157.642 93.8001 157.838C94.1441 158.034 94.4001 158.356 94.5681 158.804H94.5921C94.7041 158.468 94.9141 158.174 95.2221 157.922C95.5301 157.67 95.9481 157.544 96.4761 157.544C97.1081 157.544 97.6021 157.75 97.9581 158.162C98.3141 158.574 98.4921 159.156 98.4921 159.908V163.88H97.5321V160.076C97.5321 159.524 97.4241 159.108 97.2081 158.828C96.9921 158.548 96.6481 158.408 96.1761 158.408C95.9841 158.408 95.8021 158.432 95.6301 158.48C95.4581 158.528 95.3041 158.6 95.1681 158.696C95.0321 158.792 94.9241 158.914 94.8441 159.062C94.7641 159.21 94.7241 159.384 94.7241 159.584V163.88H93.7641V160.076C93.7641 159.524 93.6561 159.108 93.4401 158.828C93.2241 158.548 92.8881 158.408 92.4321 158.408C92.2401 158.408 92.0561 158.432 91.8801 158.48C91.7041 158.528 91.5481 158.6 91.4121 158.696C91.2761 158.792 91.1661 158.914 91.0821 159.062C90.9981 159.21 90.9561 159.384 90.9561 159.584V163.88H89.9961Z" fill="#0062FF"/>
<path fill-rule="evenodd" clip-rule="evenodd" d="M101.432 155H100.472V163.88H101.432V162.872H101.48C101.848 163.64 102.452 164.024 103.292 164.024C103.676 164.024 104.024 163.948 104.336 163.796C104.648 163.644 104.914 163.428 105.134 163.148C105.354 162.868 105.522 162.528 105.638 162.128C105.754 161.728 105.812 161.28 105.812 160.784C105.812 160.288 105.754 159.84 105.638 159.44C105.522 159.04 105.354 158.7 105.134 158.42C104.914 158.14 104.648 157.924 104.336 157.772C104.024 157.62 103.676 157.544 103.292 157.544C102.86 157.544 102.49 157.638 102.182 157.826C101.874 158.014 101.64 158.304 101.48 158.696H101.432V155ZM104.312 162.65C104 162.99 103.572 163.16 103.028 163.16C102.812 163.16 102.606 163.132 102.41 163.076C102.214 163.02 102.044 162.938 101.9 162.83C101.756 162.722 101.642 162.59 101.558 162.434C101.474 162.278 101.432 162.1 101.432 161.9V159.596C101.432 159.428 101.474 159.27 101.558 159.122C101.642 158.974 101.756 158.848 101.9 158.744C102.044 158.64 102.214 158.558 102.41 158.498C102.606 158.438 102.812 158.408 103.028 158.408C103.572 158.408 104 158.578 104.312 158.918C104.624 159.258 104.78 159.704 104.78 160.256V161.312C104.78 161.864 104.624 162.31 104.312 162.65Z" fill="#0062FF"/>
<path d="M110.3 163.88V162.992H112.64V156.248H112.556L110.444 158.216L109.856 157.58L112.076 155.504H113.648V162.992H115.808V163.88H110.3Z" fill="#0062FF"/>
<path d="M141.372 164.024C140.308 164.024 139.48 163.662 138.888 162.938C138.296 162.214 138 161.148 138 159.74C138 158.332 138.296 157.25 138.888 156.494C139.48 155.738 140.308 155.36 141.372 155.36C142.076 155.36 142.666 155.52 143.142 155.84C143.618 156.16 143.988 156.612 144.252 157.196L143.436 157.688C143.268 157.256 143.012 156.91 142.668 156.65C142.324 156.39 141.892 156.26 141.372 156.26C141.012 156.26 140.69 156.328 140.406 156.464C140.122 156.6 139.882 156.794 139.686 157.046C139.49 157.298 139.34 157.598 139.236 157.946C139.132 158.294 139.08 158.684 139.08 159.116V160.364C139.08 161.228 139.28 161.904 139.68 162.392C140.08 162.88 140.644 163.124 141.372 163.124C141.908 163.124 142.356 162.986 142.716 162.71C143.076 162.434 143.34 162.068 143.508 161.612L144.312 162.116C144.048 162.708 143.668 163.174 143.172 163.514C142.676 163.854 142.076 164.024 141.372 164.024Z" fill="#171717"/>
<path d="M145.776 163.88V157.688H146.736V158.828H146.796C146.908 158.532 147.108 158.268 147.396 158.036C147.684 157.804 148.08 157.688 148.584 157.688H148.956V158.648H148.392C147.872 158.648 147.466 158.746 147.174 158.942C146.882 159.138 146.736 159.384 146.736 159.68V163.88H145.776Z" fill="#171717"/>
<path d="M153.996 162.872H153.948C153.884 163.016 153.806 163.158 153.714 163.298C153.622 163.438 153.508 163.562 153.372 163.67C153.236 163.778 153.072 163.864 152.88 163.928C152.688 163.992 152.464 164.024 152.208 164.024C151.568 164.024 151.06 163.818 150.684 163.406C150.308 162.994 150.12 162.412 150.12 161.66V157.688H151.08V161.492C151.08 162.604 151.552 163.16 152.496 163.16C152.688 163.16 152.874 163.136 153.054 163.088C153.234 163.04 153.394 162.968 153.534 162.872C153.674 162.776 153.786 162.654 153.87 162.506C153.954 162.358 153.996 162.18 153.996 161.972V157.688H154.956V163.88H153.996V162.872Z" fill="#171717"/>
<path d="M156.996 163.88V157.688H157.956V158.696H158.004C158.076 158.536 158.158 158.386 158.25 158.246C158.342 158.106 158.454 157.984 158.586 157.88C158.718 157.776 158.872 157.694 159.048 157.634C159.224 157.574 159.432 157.544 159.672 157.544C160.08 157.544 160.456 157.642 160.8 157.838C161.144 158.034 161.4 158.356 161.568 158.804H161.592C161.704 158.468 161.914 158.174 162.222 157.922C162.53 157.67 162.948 157.544 163.476 157.544C164.108 157.544 164.602 157.75 164.958 158.162C165.314 158.574 165.492 159.156 165.492 159.908V163.88H164.532V160.076C164.532 159.524 164.424 159.108 164.208 158.828C163.992 158.548 163.648 158.408 163.176 158.408C162.984 158.408 162.802 158.432 162.63 158.48C162.458 158.528 162.304 158.6 162.168 158.696C162.032 158.792 161.924 158.914 161.844 159.062C161.764 159.21 161.724 159.384 161.724 159.584V163.88H160.764V160.076C160.764 159.524 160.656 159.108 160.44 158.828C160.224 158.548 159.888 158.408 159.432 158.408C159.24 158.408 159.056 158.432 158.88 158.48C158.704 158.528 158.548 158.6 158.412 158.696C158.276 158.792 158.166 158.914 158.082 159.062C157.998 159.21 157.956 159.384 157.956 159.584V163.88H156.996Z" fill="#171717"/>
<path fill-rule="evenodd" clip-rule="evenodd" d="M168.432 155H167.472V163.88H168.432V162.872H168.48C168.848 163.64 169.452 164.024 170.292 164.024C170.676 164.024 171.024 163.948 171.336 163.796C171.648 163.644 171.914 163.428 172.134 163.148C172.354 162.868 172.522 162.528 172.638 162.128C172.754 161.728 172.812 161.28 172.812 160.784C172.812 160.288 172.754 159.84 172.638 159.44C172.522 159.04 172.354 158.7 172.134 158.42C171.914 158.14 171.648 157.924 171.336 157.772C171.024 157.62 170.676 157.544 170.292 157.544C169.86 157.544 169.49 157.638 169.182 157.826C168.874 158.014 168.64 158.304 168.48 158.696H168.432V155ZM171.312 162.65C171 162.99 170.572 163.16 170.028 163.16C169.812 163.16 169.606 163.132 169.41 163.076C169.214 163.02 169.044 162.938 168.9 162.83C168.756 162.722 168.642 162.59 168.558 162.434C168.474 162.278 168.432 162.1 168.432 161.9V159.596C168.432 159.428 168.474 159.27 168.558 159.122C168.642 158.974 168.756 158.848 168.9 158.744C169.044 158.64 169.214 158.558 169.41 158.498C169.606 158.438 169.812 158.408 170.028 158.408C170.572 158.408 171 158.578 171.312 158.918C171.624 159.258 171.78 159.704 171.78 160.256V161.312C171.78 161.864 171.624 162.31 171.312 162.65Z" fill="#171717"/>
<path d="M177.3 163.88V162.992H179.64V156.248H179.556L177.444 158.216L176.856 157.58L179.076 155.504H180.648V162.992H182.808V163.88H177.3Z" fill="#171717"/>
<path d="M125.276 165.692L128.408 155H127.544L124.412 165.692H125.276Z" fill="#171717"/>
<path d="M192.276 165.692L195.408 155H194.544L191.412 165.692H192.276Z" fill="#171717"/>
</svg>
