<?xml version="1.0" encoding="utf-8"?>
<!-- Generator: Adobe Illustrator 25.3.1, SVG Export Plug-In . SVG Version: 6.00 Build 0)  -->
<svg version="1.1" id="icon" xmlns="http://www.w3.org/2000/svg" xmlns:xlink="http://www.w3.org/1999/xlink" x="0px" y="0px"
	 viewBox="0 0 32 32" style="enable-background:new 0 0 32 32;" xml:space="preserve">
<style type="text/css">
	.st0{fill:#8D8D8D;}
	.st1{fill:none;}
</style>
<path class="st0" d="M16,2C8.3,2,2,8.3,2,16s6.3,14,14,14s14-6.3,14-14S23.7,2,16,2z M16,25c-0.8,0-1.5-0.7-1.5-1.5S15.2,22,16,22
	c0.8,0,1.5,0.7,1.5,1.5S16.8,25,16,25z M17.1,17.2v2.5h-2.2V15H17c1.3,0,2.4-1.1,2.4-2.4c0-1.3-1.1-2.4-2.4-2.4h-1.5
	c-1.3,0-2.4,1.1-2.4,2.4v0.6h-2.2v-0.6c0-2.6,2.1-4.6,4.6-4.6H17c2.6,0,4.6,2.1,4.6,4.6C21.6,15.1,19.6,17.2,17.1,17.2z"/>
<path id="inner-path" d="M16,25c-0.8,0-1.5-0.7-1.5-1.5S15.2,22,16,22c0.8,0,1.5,0.7,1.5,1.5S16.8,25,16,25z M17.1,17.2v2.5h-2.2V15
	H17c1.3,0,2.4-1.1,2.4-2.4c0-1.3-1.1-2.4-2.4-2.4h-1.5c-1.3,0-2.4,1.1-2.4,2.4v0.6h-2.2v-0.6c0-2.6,2.1-4.6,4.6-4.6H17
	c2.6,0,4.6,2.1,4.6,4.6C21.6,15.1,19.6,17.2,17.1,17.2z"/>
<rect id="_Transparent_Rectangle_" class="st1" width="32" height="32"/>
</svg>
