<?xml version="1.0" encoding="UTF-8"?>
<svg width="20px" height="20px" viewBox="0 0 20 20" version="1.1" xmlns="http://www.w3.org/2000/svg"
    xmlns:xlink="http://www.w3.org/1999/xlink">
    <title>information--square</title>
    <g id="Structure" stroke="none" stroke-width="1" fill="none" fill-rule="evenodd">

        <polygon id="Path" fill="#4589ff" fill-rule="nonzero"
            points="10.625 13.75 10.625 8.75 8.125 8.75 8.125 10 9.375 10 9.375 13.75 7.5 13.75 7.5 15 12.5 15 12.5 13.75">
        </polygon>
        <path
            d="M10,5 C9.48223305,5 9.0625,5.41973305 9.0625,5.9375 C9.0625,6.45526695 9.48223305,6.875 10,6.875 C10.517767,6.875 10.9375,6.45526695 10.9375,5.9375 C10.9375,5.41973305 10.517767,5 10,5 Z"
            id="Path" fill="#4589ff" fill-rule="nonzero"></path>
        <path
            d="M16.25,17.5 L3.75,17.5 C3.05997245,17.4992078 2.50079217,16.9400275 2.5,16.25 L2.5,3.75 C2.50079217,3.05997245 3.05997245,2.50079217 3.75,2.5 L16.25,2.5 C16.9400275,2.50079217 17.4992078,3.05997245 17.5,3.75 L17.5,16.25 C17.4992078,16.9400275 16.9400275,17.4992078 16.25,17.5 Z M3.75,3.75 L3.75,16.25 L16.25,16.25 L16.25,3.75 L3.75,3.75 Z"
            id="Shape" fill="#4589ff" fill-rule="nonzero"></path>
        <rect id="_Transparent_Rectangle_" x="0" y="0" width="20" height="20"></rect>

    </g>
</svg>