<?xml version="1.0" encoding="UTF-8"?>
<svg width="20px" height="20px" viewBox="0 0 20 20" version="1.1" xmlns="http://www.w3.org/2000/svg"
    xmlns:xlink="http://www.w3.org/1999/xlink">
    <title>information</title>
    <g id="Structure" stroke="none" stroke-width="1" fill="none" fill-rule="evenodd">

        <polygon id="Path" fill="#4589ff" fill-rule="nonzero"
            points="10.625 13.75 10.625 8.75 8.125 8.75 8.125 10 9.375 10 9.375 13.75 7.5 13.75 7.5 15 12.5 15 12.5 13.75">
        </polygon>
        <path
            d="M10,5 C9.48223305,5 9.0625,5.41973305 9.0625,5.9375 C9.0625,6.45526695 9.48223305,6.875 10,6.875 C10.517767,6.875 10.9375,6.45526695 10.9375,5.9375 C10.9375,5.41973305 10.517767,5 10,5 Z"
            id="Path" fill="#4589ff" fill-rule="nonzero"></path>
        <path
            d="M10,18.75 C5.16750844,18.75 1.25,14.8324916 1.25,10 C1.25,5.16750844 5.16750844,1.25 10,1.25 C14.8324916,1.25 18.75,5.16750844 18.75,10 C18.75,12.3206443 17.8281276,14.546241 16.1871843,16.1871843 C14.546241,17.8281276 12.3206443,18.75 10,18.75 Z M10,2.5 C5.85786438,2.5 2.5,5.85786438 2.5,10 C2.5,14.1421356 5.85786438,17.5 10,17.5 C14.1421356,17.5 17.5,14.1421356 17.5,10 C17.5,5.85786438 14.1421356,2.5 10,2.5 Z"
            id="Shape" fill="#4589ff" fill-rule="nonzero"></path>
        <rect id="_Transparent_Rectangle_" x="0" y="0" width="20" height="20"></rect>

    </g>
</svg>