<?xml version="1.0" encoding="UTF-8"?>
<svg width="20px" height="20px" viewBox="0 0 20 20" version="1.1" xmlns="http://www.w3.org/2000/svg" xmlns:xlink="http://www.w3.org/1999/xlink">
    <title>warning--alt-inverted--filled</title>
    <g id="Structure" stroke="none" stroke-width="1" fill="none" fill-rule="evenodd">
        <g id="warning--alt-inverted--filled">
            <path d="M9.296875,3.125 L10.703125,3.125 L10.703125,9.375 L9.296875,9.375 L9.296875,3.125 Z M10,13.125 C9.48223305,13.125 9.0625,12.705267 9.0625,12.1875 C9.0625,11.669733 9.48223305,11.25 10,11.25 C10.517767,11.25 10.9375,11.669733 10.9375,12.1875 C10.9375,12.705267 10.517767,13.125 10,13.125 Z" id="_inner-path_" fill="#000000"></path>
            <path d="M18.659375,1.550625 C18.5459191,1.36402744 18.3433824,1.25 18.125,1.25 L1.875,1.25 C1.65661628,1.25 1.45406924,1.36398352 1.3407402,1.55065965 C1.22741116,1.73733578 1.21973775,1.96962666 1.3205,2.163375 L9.4455,17.788375 C9.55307419,17.99523 9.76684509,18.1250093 10,18.1250093 C10.2331549,18.1250093 10.4469258,17.99523 10.5545,17.788375 L18.6795,2.163375 C18.7801865,1.96960934 18.7725588,1.73736636 18.659375,1.550625 Z M9.296875,3.125 L10.703125,3.125 L10.703125,9.375 L9.296875,9.375 L9.296875,3.125 Z M10,13.125 C9.48223305,13.125 9.0625,12.705267 9.0625,12.1875 C9.0625,11.669733 9.48223305,11.25 10,11.25 C10.517767,11.25 10.9375,11.669733 10.9375,12.1875 C10.9375,12.705267 10.517767,13.125 10,13.125 Z" id="Shape" fill="#FC7B1E" fill-rule="nonzero"></path>
            <rect id="_Transparent_Rectangle_" x="0" y="0" width="20" height="20"></rect>
        </g>
    </g>
</svg>