<?xml version="1.0" encoding="utf-8"?>
<!-- Generator: Adobe Illustrator 25.3.1, SVG Export Plug-In . SVG Version: 6.00 Build 0)  -->
<svg version="1.1" id="icon" xmlns="http://www.w3.org/2000/svg" xmlns:xlink="http://www.w3.org/1999/xlink" x="0px" y="0px"
	 viewBox="0 0 32 32" style="enable-background:new 0 0 32 32;" xml:space="preserve">
<style type="text/css">
	.st0{fill:none;}
	.st1{fill:#F1C21B;}
	.st2{fill:#8E6A00;}
</style>
<path id="inner-path" class="st0" d="M16,26c-0.8,0-1.5-0.7-1.5-1.5S15.2,23,16,23c0.8,0,1.5,0.7,1.5,1.5S16.8,26,16,26z M14.9,21
	h2.2v-9h-2.2C14.9,12,14.9,21,14.9,21z"/>
<path class="st1" d="M16,6.2L16,6.2L4.6,28l0,0h23.5l0,0L16,6.2z M14.9,12h2.2v9h-2.2C14.9,21,14.9,12,14.9,12z M16,26
	c-0.8,0-1.5-0.7-1.5-1.5S15.2,23,16,23c0.8,0,1.5,0.7,1.5,1.5S16.8,26,16,26z"/>
<path class="st2" d="M29,30H3c-0.6,0-1-0.4-1-1c0-0.2,0-0.3,0.1-0.5l13-25C15.4,3,16,2.9,16.5,3.1c0.2,0.1,0.3,0.2,0.4,0.4l13,25
	c0.3,0.5,0.1,1.1-0.4,1.3C29.3,30,29.2,30,29,30z M4.7,28h22.7l0,0L16,6.2l0,0L4.7,28L4.7,28z"/>
<rect id="_Transparent_Rectangle_" class="st0" width="32" height="32"/>
<rect x="14.9" y="12" width="2.2" height="9"/>
<polygon class="st1" points="-37.3,11 -37.5,11 -37.3,11.3 "/>
<circle cx="16" cy="24.5" r="1.5"/>
</svg>
