<svg width="20" height="20" viewBox="0 0 20 20" fill="none" xmlns="http://www.w3.org/2000/svg">
<g clip-path="url(#clip0_343_109401)">
<g clip-path="url(#clip1_343_109401)">
<rect width="20" height="20" fill="white" fill-opacity="0.01" style="mix-blend-mode:multiply"/>
<rect x="7.5" y="2.5" width="5" height="11.25" fill="black"/>
<rect width="20" height="20" fill="white" fill-opacity="0.01" style="mix-blend-mode:multiply"/>
<path d="M17.0932 2.5H2.9065L2.90531 2.50212L9.99863 16.1429H10.0011L17.0944 2.50212L17.0932 2.5ZM9.29675 3.75H10.703V9.375H9.29675V3.75ZM9.99987 12.5C9.81445 12.5 9.6332 12.445 9.47903 12.342C9.32486 12.239 9.2047 12.0926 9.13374 11.9213C9.06278 11.75 9.04422 11.5615 9.08039 11.3796C9.11656 11.1977 9.20585 11.0307 9.33696 10.8996C9.46807 10.7685 9.63512 10.6792 9.81698 10.643C9.99884 10.6068 10.1873 10.6254 10.3586 10.6964C10.5299 10.7673 10.6764 10.8875 10.7794 11.0417C10.8824 11.1958 10.9374 11.3771 10.9374 11.5625C10.9374 11.8111 10.8386 12.0496 10.6628 12.2254C10.487 12.4012 10.2485 12.5 9.99987 12.5Z" fill="#FF832B"/>
<path d="M18.6592 1.55062C18.7149 1.64242 18.7459 1.74698 18.7494 1.85424C18.753 1.96151 18.7288 2.06788 18.6794 2.16312L10.5544 17.7881C10.5016 17.8896 10.422 17.9747 10.3242 18.034C10.2264 18.0934 10.1143 18.1248 9.99987 18.1248C9.88549 18.1248 9.77331 18.0934 9.67553 18.034C9.57776 17.9747 9.49815 17.8896 9.44537 17.7881L1.32037 2.16312C1.27089 2.06787 1.24677 1.96147 1.25035 1.85419C1.25392 1.7469 1.28507 1.64235 1.34078 1.55059C1.3965 1.45884 1.47491 1.38299 1.56846 1.33034C1.662 1.27769 1.76753 1.25002 1.87487 1.25H18.1249C18.2323 1.25002 18.3378 1.27769 18.4314 1.33034C18.525 1.38299 18.6035 1.45886 18.6592 1.55062ZM2.90531 2.50212L9.99863 16.1429H10.0011L17.0944 2.50212L17.0932 2.5H2.9065L2.90531 2.50212Z" fill="#FF832B"/>
</g>
</g>
<defs>
<clipPath id="clip0_343_109401">
<rect width="20" height="20" fill="white"/>
</clipPath>
<clipPath id="clip1_343_109401">
<rect width="20" height="20" fill="white"/>
</clipPath>
</defs>
</svg>
