<?xml version="1.0" encoding="UTF-8"?>
<svg width="20px" height="20px" viewBox="0 0 20 20" version="1.1" xmlns="http://www.w3.org/2000/svg" xmlns:xlink="http://www.w3.org/1999/xlink">
    <title>error--filled</title>
    <g id="Structure" stroke="none" stroke-width="1" fill="none" fill-rule="evenodd">
        <g id="error--filled">
            <polygon id="_inner-path_" transform="translate(10.000081, 10.000018) rotate(-45.000000) translate(-10.000081, -10.000018) " points="9.31270571 4.50020581 10.6874557 4.50020581 10.6874557 15.4998308 9.31270571 15.4998308"></polygon>
            <path d="M10,1.24983262 C7.67496641,1.23558441 5.44098412,2.15282689 3.79690551,3.79690551 C2.15282689,5.44098412 1.23558441,7.67496641 1.24983262,10 C1.23558441,12.3250336 2.15282689,14.5590159 3.79690551,16.2030945 C5.44098412,17.8471731 7.67496641,18.7644156 10,18.7501674 C12.3250336,18.7644156 14.5590159,17.8471731 16.2030945,16.2030945 C17.8471731,14.5590159 18.7644156,12.3250336 18.7501674,10 C18.7644156,7.67496641 17.8471731,5.44098412 16.2030945,3.79690551 C14.5590159,2.15282689 12.3250336,1.23558441 10,1.24983262 Z M13.4030625,14.375 L5.625,6.5973125 L6.5973125,5.625 L14.375,13.403 L13.4030625,14.375 Z" id="Shape" fill="#DA1E28" fill-rule="nonzero"></path>
            <rect id="_Transparent_Rectangle_" x="0" y="0" width="20" height="20"></rect>
        </g>
    </g>
</svg>