<svg width="20" height="20" viewBox="0 0 20 20" fill="none" xmlns="http://www.w3.org/2000/svg">
<g clip-path="url(#clip0_13_1007)">
<path d="M16.25 2.5H3.75C3.05964 2.5 2.5 3.05964 2.5 3.75V16.25C2.5 16.9404 3.05964 17.5 3.75 17.5H16.25C16.9404 17.5 17.5 16.9404 17.5 16.25V3.75C17.5 3.05964 16.9404 2.5 16.25 2.5ZM10 5C10.5178 5 10.9375 5.41973 10.9375 5.9375C10.9375 6.45527 10.5178 6.875 10 6.875C9.48223 6.875 9.0625 6.45527 9.0625 5.9375C9.0625 5.41973 9.48223 5 10 5ZM12.5 15.0781H7.5V13.6719H9.29688V10.0781H8.125V8.67188H10.7031V13.6719H12.5V15.0781Z" fill="#0043CE"/>
</g>
<defs>
<clipPath id="clip0_13_1007">
<rect width="20" height="20" fill="white"/>
</clipPath>
</defs>
</svg>
