<?xml version="1.0" encoding="UTF-8"?>
<svg width="20px" height="20px" viewBox="0 0 20 20" version="1.1" xmlns="http://www.w3.org/2000/svg" xmlns:xlink="http://www.w3.org/1999/xlink">
    <title>misuse</title>
    <g id="Structure" stroke="none" stroke-width="1" fill="none" fill-rule="evenodd">
        <g id="misuse">
            <rect id="_Transparent_Rectangle_" x="0" y="0" width="20" height="20"></rect>
            <path d="M10,1.25 C5.1875,1.25 1.25,5.1875 1.25,10 C1.25,14.8125 5.1875,18.75 10,18.75 C14.8125,18.75 18.75,14.8125 18.75,10 C18.75,5.1875 14.8125,1.25 10,1.25 Z M13.375,14.375 L10,11 L6.625,14.375 L5.625,13.375 L9,10 L5.625,6.625 L6.625,5.625 L10,9 L13.375,5.625 L14.375,6.625 L11,10 L14.375,13.375 L13.375,14.375 Z" id="Shape" fill="#DA1E28" fill-rule="nonzero"></path>
            <polygon id="inner-path" fill-opacity="0" fill="#000000" fill-rule="nonzero" opacity="0" points="13.375 14.375 10 11 6.625 14.375 5.625 13.375 9 10 5.625 6.625 6.625 5.625 10 9 13.375 5.625 14.375 6.625 11 10 14.375 13.375"></polygon>
        </g>
    </g>
</svg>