<?xml version="1.0" encoding="UTF-8"?>
<svg width="20px" height="20px" viewBox="0 0 20 20" version="1.1" xmlns="http://www.w3.org/2000/svg" xmlns:xlink="http://www.w3.org/1999/xlink">
    <title>warning</title>
    <g id="Structure" stroke="none" stroke-width="1" fill="none" fill-rule="evenodd">
        <g id="warning">
            <path d="M10,1.25 C5.16750844,1.25 1.25,5.16750844 1.25,10 C1.25,14.8324916 5.16750844,18.75 10,18.75 C14.8324916,18.75 18.75,14.8324916 18.75,10 C18.75,7.67935571 17.8281276,5.45375898 16.1871843,3.81281566 C14.546241,2.17187235 12.3206443,1.25 10,1.25 Z M10,17.5 C5.85786438,17.5 2.5,14.1421356 2.5,10 C2.5,5.85786438 5.85786438,2.5 10,2.5 C14.1421356,2.5 17.5,5.85786438 17.5,10 C17.5,11.9891237 16.7098237,13.896778 15.3033009,15.3033009 C13.896778,16.7098237 11.9891237,17.5 10,17.5 Z" id="Shape" fill="#DA1E28" fill-rule="nonzero"></path>
            <rect id="Rectangle" fill="#DA1E28" fill-rule="nonzero" x="9.375" y="5" width="1.25" height="6.875"></rect>
            <path d="M10,13.75 C9.48223305,13.75 9.0625,14.169733 9.0625,14.6875 C9.0625,15.205267 9.48223305,15.625 10,15.625 C10.517767,15.625 10.9375,15.205267 10.9375,14.6875 C10.9375,14.169733 10.517767,13.75 10,13.75 Z" id="Path" fill="#DA1E28" fill-rule="nonzero"></path>
            <rect id="_Transparent_Rectangle_" x="0" y="0" width="20" height="20"></rect>
        </g>
    </g>
</svg>