<?xml version="1.0" encoding="UTF-8"?>
<svg width="20px" height="20px" viewBox="0 0 20 20" version="1.1" xmlns="http://www.w3.org/2000/svg" xmlns:xlink="http://www.w3.org/1999/xlink">
    <title>warning--hex--filled (1)</title>
    <g id="Structure" stroke="none" stroke-width="1" fill="none" fill-rule="evenodd">
        <g id="warning--hex--filled-(1)">
            <path d="M9.296875,5 L10.703125,5 L10.703125,11.875 L9.296875,11.875 L9.296875,5 Z M10,15.625 C9.62081665,15.625 9.27897013,15.3965855 9.13386294,15.0462657 C8.98875575,14.695946 9.06896427,14.2927105 9.33708739,14.0245874 C9.60521051,13.7564643 10.008446,13.6762558 10.3587657,13.8213629 C10.7090855,13.9664701 10.9375,14.3083166 10.9375,14.6875 C10.9375,15.205267 10.517767,15.625 10,15.625 L10,15.625 Z" id="Inner-path" fill="#171717"></path>
            <path d="M19.28175,9.6554375 L14.9291875,2.207625 C14.8098809,2.00208388 14.5903449,1.87541756 14.3526875,1.875 L5.6473125,1.875 C5.40965507,1.87541756 5.19011915,2.00208388 5.0708125,2.207625 L0.71825,9.6554375 C0.593938023,9.86832726 0.593938023,10.1316727 0.71825,10.3445625 L5.0708125,17.792375 C5.19011915,17.9979161 5.40965507,18.1245824 5.6473125,18.125 L14.3526875,18.125 C14.5903449,18.1245824 14.8098809,17.9979161 14.9291875,17.792375 L19.28175,10.3445625 C19.406062,10.1316727 19.406062,9.86832726 19.28175,9.6554375 Z M9.296875,5 L10.703125,5 L10.703125,11.875 L9.296875,11.875 L9.296875,5 Z M10,15.625 C9.62081665,15.625 9.27897013,15.3965855 9.13386294,15.0462657 C8.98875575,14.695946 9.06896427,14.2927105 9.33708739,14.0245874 C9.60521051,13.7564643 10.008446,13.6762558 10.3587657,13.8213629 C10.7090855,13.9664701 10.9375,14.3083166 10.9375,14.6875 C10.9375,15.205267 10.517767,15.625 10,15.625 L10,15.625 Z" id="Shape" fill="#FA4D56" fill-rule="nonzero"></path>
            <rect id="_Transparent_Rectangle_" x="0" y="0" width="20" height="20"></rect>
        </g>
    </g>
</svg>