<?xml version="1.0" encoding="utf-8"?>
<!-- Generator: Adobe Illustrator 25.3.1, SVG Export Plug-In . SVG Version: 6.00 Build 0)  -->
<svg version="1.1" id="icon" xmlns="http://www.w3.org/2000/svg" xmlns:xlink="http://www.w3.org/1999/xlink" x="0px" y="0px"
	 viewBox="0 0 32 32" style="enable-background:new 0 0 32 32;" xml:space="preserve">
<style type="text/css">
	.st0{fill:none;}
	.st1{fill:#FF832B;}
	.st2{fill:#231F20;}
</style>
<path id="inner-path" class="st0" d="M16,20c-0.8,0-1.5-0.7-1.5-1.5S15.2,17,16,17c0.8,0,1.5,0.7,1.5,1.5S16.8,20,16,20z M14.9,15
	h2.2V6h-2.2V15z"/>
<path class="st1" d="M29.9,2.5C29.7,2.2,29.3,2,29,2H3C2.8,2,2.7,2,2.5,2.1C2,2.4,1.9,3,2.1,3.5l13,25c0.1,0.2,0.2,0.3,0.4,0.4
	c0.5,0.3,1.1,0.1,1.3-0.4l13-25C30,3.2,30,2.8,29.9,2.5z M14.5,18.5c0-0.8,0.7-1.5,1.5-1.5s1.5,0.7,1.5,1.5S16.8,20,16,20
	S14.5,19.3,14.5,18.5z M17.1,6v9h-2.2V6H17.1z M4.6,4L4.6,4L4.6,4L4.6,4z M27.4,4L27.4,4L27.4,4L27.4,4z"/>
<rect id="_Transparent_Rectangle_" class="st0" width="32" height="32"/>
<g>
	<circle class="st2" cx="16" cy="18.5" r="1.5"/>
	<rect x="14.9" y="6" class="st2" width="2.2" height="9"/>
</g>
</svg>
