<svg version="1.1" id="Layer_1" xmlns="http://www.w3.org/2000/svg" x="0" y="0" viewBox="0 0 289 576" xml:space="preserve"><style>.st0{fill:#054ada}.st1{fill:none}.st2{fill:#fff}</style><path id="Rectangle-3-Copy" class="st0" d="M0 0h289v288H0z"/><g id="Group-17-Copy-6" transform="translate(84 84)"><path id="Fill-1" class="st1" d="M0 121h121V0H0z"/><g id="Group-16" transform="translate(1.973 1.973)"><path id="Fill-2" class="st2" d="M13.2 3.2c-5.5 0-10 4.5-10 10s4.5 10 10 10 10-4.5 10-10-4.5-10-10-10m0 22.7C6.2 25.9.5 20.2.5 13.2S6.2.5 13.2.5s12.7 5.7 12.7 12.7-5.7 12.7-12.7 12.7"/><path id="Fill-4" class="st2" d="M103.9 93.9c-5.5 0-10 4.5-10 10s4.5 10 10 10 10-4.5 10-10-4.5-10-10-10m0 22.7c-7 0-12.7-5.7-12.7-12.7s5.7-12.7 12.7-12.7 12.7 5.7 12.7 12.7-5.7 12.7-12.7 12.7"/><path id="Fill-6" class="st2" d="M13.2 101.5c-1.3 0-2.4 1.1-2.4 2.4s1.1 2.4 2.4 2.4 2.4-1.1 2.4-2.4c0-1.3-1.1-2.4-2.4-2.4m0 7.5c-2.8 0-5.1-2.3-5.1-5.1s2.3-5.1 5.1-5.1 5.1 2.3 5.1 5.1-2.3 5.1-5.1 5.1"/><path id="Fill-8" class="st2" d="M103.9 10.7c-1.3 0-2.4 1.1-2.4 2.4s1.1 2.4 2.4 2.4 2.4-1.1 2.4-2.4-1.1-2.4-2.4-2.4m0 7.6c-2.8 0-5.1-2.3-5.1-5.1s2.3-5.1 5.1-5.1 5.1 2.3 5.1 5.1-2.3 5.1-5.1 5.1"/><path id="Fill-10" class="st2" d="M58.5 41C48.8 41 41 48.9 41 58.5 41 68.2 48.9 76 58.5 76S76 68.1 76 58.5c.1-9.6-7.8-17.5-17.5-17.5m0 37.8c-11.2 0-20.3-9.1-20.3-20.3s9.1-20.3 20.3-20.3 20.3 9.1 20.3 20.3-9.1 20.3-20.3 20.3"/><path id="Fill-12" class="st2" d="M58.5 48.5c-5.5 0-10 4.5-10 10s4.5 10 10 10 10-4.5 10-10-4.5-10-10-10m0 22.7c-7 0-12.7-5.7-12.7-12.7s5.7-12.7 12.7-12.7 12.7 5.7 12.7 12.7-5.7 12.7-12.7 12.7"/><path id="Fill-14" class="st2" d="M103.9 23.1c-2.4 0-4.6-.9-6.3-2.3l-1.3-1.3c-1.4-1.7-2.3-3.9-2.3-6.3 0-5.5 4.5-10 10-10s10 4.5 10 10-4.6 9.9-10.1 9.9m-5.3 35.4c-1.8 3.7-13.5 25.1-40.1 25.1S20.2 62.2 18.4 58.5c1.8-3.7 13.5-25.1 40.1-25.1s38.3 21.4 40.1 25.1m-85.4 55.4c-5.5 0-10-4.5-10-10s4.5-10 10-10 10 4.5 10 10c-.1 5.5-4.5 10-10 10M103.9.4c-7 0-12.7 5.7-12.7 12.7 0 3 1.1 5.7 2.9 7.9L79.5 35.6c-5.7-2.9-12.6-4.9-21-4.9-30.8 0-42.7 27-42.8 27.3-.1.3-.1.7 0 1.1.1.2 5.8 13 19.3 21l-13.9 14c-2.2-1.8-4.9-2.9-7.9-2.9-7 0-12.7 5.7-12.7 12.7s5.7 12.7 12.7 12.7 12.7-5.7 12.7-12.7c0-3-1.1-5.7-2.9-7.9l14.5-14.5c5.7 2.9 12.6 4.9 21 4.9 30.8 0 42.7-27 42.8-27.3.1-.3.1-.7 0-1.1-.1-.2-5.8-13-19.3-21.1L96 23c2.2 1.8 4.9 2.9 7.9 2.9 7 0 12.7-5.7 12.7-12.7 0-7.1-5.7-12.8-12.7-12.8"/></g></g><g id="Artboard-Copy-85"><path id="Rectangle-3-Copy_1_" fill="#edf4ff" d="M1 288h288v288H1z"/><g id="Group-17-Copy-6_1_" transform="translate(84 84)"><path id="Fill-1_1_" class="st1" d="M1 409h121V288H1z"/><g id="Group-16_1_" transform="translate(1.973 1.973)"><path id="Fill-2_1_" class="st0" d="M14.2 291.2c-5.5 0-10 4.5-10 10s4.5 10 10 10 10-4.5 10-10-4.5-10-10-10m0 22.7c-7 0-12.7-5.7-12.7-12.7s5.7-12.7 12.7-12.7 12.7 5.7 12.7 12.7c0 7-5.7 12.7-12.7 12.7"/><path id="Fill-4_1_" class="st0" d="M104.9 381.9c-5.5 0-10 4.5-10 10s4.5 10 10 10 10-4.5 10-10-4.5-10-10-10m0 22.7c-7 0-12.7-5.7-12.7-12.7s5.7-12.7 12.7-12.7 12.7 5.7 12.7 12.7-5.7 12.7-12.7 12.7"/><path id="Fill-6_1_" class="st0" d="M14.2 389.5c-1.3 0-2.4 1.1-2.4 2.4s1.1 2.4 2.4 2.4 2.4-1.1 2.4-2.4c0-1.3-1.1-2.4-2.4-2.4m0 7.5c-2.8 0-5.1-2.3-5.1-5.1s2.3-5.1 5.1-5.1 5.1 2.3 5.1 5.1-2.3 5.1-5.1 5.1"/><path id="Fill-8_1_" class="st0" d="M104.9 298.7c-1.3 0-2.4 1.1-2.4 2.4s1.1 2.4 2.4 2.4 2.4-1.1 2.4-2.4c0-1.3-1.1-2.4-2.4-2.4m0 7.6c-2.8 0-5.1-2.3-5.1-5.1s2.3-5.1 5.1-5.1 5.1 2.3 5.1 5.1-2.3 5.1-5.1 5.1"/><path id="Fill-10_1_" class="st0" d="M59.5 329c-9.7 0-17.5 7.9-17.5 17.5 0 9.7 7.9 17.5 17.5 17.5S77 356.1 77 346.5c.1-9.6-7.8-17.5-17.5-17.5m0 37.8c-11.2 0-20.3-9.1-20.3-20.3s9.1-20.3 20.3-20.3 20.3 9.1 20.3 20.3-9.1 20.3-20.3 20.3"/><path id="Fill-12_1_" class="st0" d="M59.5 336.5c-5.5 0-10 4.5-10 10s4.5 10 10 10 10-4.5 10-10-4.5-10-10-10m0 22.7c-7 0-12.7-5.7-12.7-12.7s5.7-12.7 12.7-12.7 12.7 5.7 12.7 12.7-5.7 12.7-12.7 12.7"/><path id="Fill-14_1_" class="st0" d="M104.9 311.1c-2.4 0-4.6-.9-6.3-2.3l-1.3-1.3c-1.4-1.7-2.3-3.9-2.3-6.3 0-5.5 4.5-10 10-10s10 4.5 10 10-4.6 9.9-10.1 9.9m-5.3 35.4c-1.8 3.7-13.5 25.1-40.1 25.1s-38.3-21.4-40.1-25.1c1.8-3.7 13.5-25.1 40.1-25.1s38.3 21.4 40.1 25.1m-85.4 55.4c-5.5 0-10-4.5-10-10s4.5-10 10-10 10 4.5 10 10-4.5 10-10 10m90.7-113.5c-7 0-12.7 5.7-12.7 12.7 0 3 1.1 5.7 2.9 7.9l-14.5 14.5c-5.7-2.9-12.6-4.9-21-4.9-30.8 0-42.7 27-42.8 27.3-.1.3-.1.7 0 1.1.1.2 5.8 13 19.3 21l-13.9 13.9c-2.2-1.8-4.9-2.9-7.9-2.9-7 0-12.7 5.7-12.7 12.7s5.7 12.7 12.7 12.7S27 398.7 27 391.7c0-3-1.1-5.7-2.9-7.9l14.5-14.5c5.7 2.9 12.6 4.9 21 4.9 30.8 0 42.7-27 42.8-27.3.1-.3.1-.7 0-1.1-.1-.2-5.8-13-19.3-21.1L97 311c2.2 1.8 4.9 2.9 7.9 2.9 7 0 12.7-5.7 12.7-12.7 0-7.1-5.7-12.8-12.7-12.8"/></g></g></g></svg>