<svg id="beb0be8b-7de5-4086-b7b9-e90609912409" data-name="Layer 1" xmlns="http://www.w3.org/2000/svg" xmlns:xlink="http://www.w3.org/1999/xlink" viewBox="0 0 288 288">
  <defs>
    <linearGradient id="ab426a61-3ba4-4b35-9760-954f2f64f357" x1="32.699" y1="87.9" x2="49.5" y2="87.9" gradientUnits="userSpaceOnUse">
      <stop offset="0.21" stop-color="#393939"/>
      <stop offset="1"/>
    </linearGradient>
    <linearGradient id="b6185449-5d74-4d14-9bfb-0f6e0c85b7e7" x1="63.6" y1="86.301" x2="63.6" y2="37.699" gradientUnits="userSpaceOnUse">
      <stop offset="0.02" stop-color="#393939"/>
      <stop offset="0.9" stop-color="#fff"/>
    </linearGradient>
    <linearGradient id="f289f66d-b95a-445f-ab6d-f8afaed8a68e" x1="94.5" y1="41.1" x2="111.301" y2="41.1" gradientUnits="userSpaceOnUse">
      <stop offset="0"/>
      <stop offset="0.79" stop-color="#393939"/>
    </linearGradient>
    <linearGradient id="aac34053-21c5-4f98-bb82-90961b8a90bb" x1="109.5" y1="106.301" x2="109.5" y2="42.699" gradientUnits="userSpaceOnUse">
      <stop offset="0.1" stop-color="#fff"/>
      <stop offset="0.98" stop-color="#393939"/>
    </linearGradient>
    <linearGradient id="b8c08854-d6f7-430b-9b12-2bc538d79243" x1="32.699" y1="231.9" x2="49.5" y2="231.9" xlink:href="#ab426a61-3ba4-4b35-9760-954f2f64f357"/>
    <linearGradient id="b281d78e-2684-4b7b-80fc-c61e4e9cfe97" x1="63.6" y1="230.301" x2="63.6" y2="181.699" xlink:href="#b6185449-5d74-4d14-9bfb-0f6e0c85b7e7"/>
    <linearGradient id="e132cf8d-227b-40f0-9bbf-b8d836c786eb" x1="94.5" y1="185.1" x2="111.301" y2="185.1" xlink:href="#f289f66d-b95a-445f-ab6d-f8afaed8a68e"/>
    <linearGradient id="bc754d8a-97b5-4abd-837b-ed57bcede453" x1="109.5" y1="250.301" x2="109.5" y2="186.699" xlink:href="#aac34053-21c5-4f98-bb82-90961b8a90bb"/>
    <linearGradient id="a887af8b-9f58-4880-9f19-d242482f9e80" x1="176.699" y1="231.9" x2="193.5" y2="231.9" xlink:href="#ab426a61-3ba4-4b35-9760-954f2f64f357"/>
    <linearGradient id="edaee3c8-256a-4cde-859c-5fca4c1fc3eb" x1="207.6" y1="230.301" x2="207.6" y2="181.699" xlink:href="#b6185449-5d74-4d14-9bfb-0f6e0c85b7e7"/>
    <linearGradient id="bbbe6c36-36c7-41c4-9504-d5b3d4971d74" x1="238.5" y1="185.1" x2="255.301" y2="185.1" xlink:href="#f289f66d-b95a-445f-ab6d-f8afaed8a68e"/>
    <linearGradient id="a723a54b-3b3c-430a-9371-58f7198b6327" x1="253.5" y1="250.301" x2="253.5" y2="186.699" xlink:href="#aac34053-21c5-4f98-bb82-90961b8a90bb"/>
    <linearGradient id="bdca3655-784b-4197-afac-293a52febd25" x1="176.699" y1="87.9" x2="193.5" y2="87.9" xlink:href="#ab426a61-3ba4-4b35-9760-954f2f64f357"/>
    <linearGradient id="e275ca5b-7b8d-4b84-beff-eea618a00ca2" x1="207.6" y1="86.301" x2="207.6" y2="37.699" xlink:href="#b6185449-5d74-4d14-9bfb-0f6e0c85b7e7"/>
    <linearGradient id="f023726a-8394-4cc6-a7aa-fd92727a2028" x1="238.5" y1="41.1" x2="255.301" y2="41.1" xlink:href="#f289f66d-b95a-445f-ab6d-f8afaed8a68e"/>
    <linearGradient id="b66e9497-61ec-47cf-8d23-5a8aee770bef" x1="253.5" y1="106.301" x2="253.5" y2="42.699" xlink:href="#aac34053-21c5-4f98-bb82-90961b8a90bb"/>
    <mask id="a3ed8ed7-3214-4b9c-9af9-f6a266d8e4bd" x="32" y="32" width="80" height="80" maskUnits="userSpaceOnUse">
      <g>
        <path d="M108.194,105.806,93.735,91.347H49.5V87.653h45a1.849,1.849,0,0,1,1.306.541l15,15Z" fill="#fff"/>
        <path d="M49.5,91.3h-10a6.809,6.809,0,0,1-6.8-6.8h3.6a3.2,3.2,0,0,0,3.2,3.2h10Z" fill="url(#ab426a61-3ba4-4b35-9760-954f2f64f357)"/>
        <path d="M94.5,41.3h-55a3.2,3.2,0,0,0-3.2,3.2v40a1.8,1.8,0,0,1-3.6,0v-40a6.809,6.809,0,0,1,6.8-6.8h55Z" fill="url(#b6185449-5d74-4d14-9bfb-0f6e0c85b7e7)"/>
        <path d="M111.3,44.5h-3.6a3.2,3.2,0,0,0-3.2-3.2h-10V37.7h10A6.809,6.809,0,0,1,111.3,44.5Z" fill="url(#f289f66d-b95a-445f-ab6d-f8afaed8a68e)"/>
        <path d="M109.5,106.3a1.8,1.8,0,0,1-1.8-1.8v-60a1.8,1.8,0,0,1,3.6,0v60A1.8,1.8,0,0,1,109.5,106.3Z" fill="url(#aac34053-21c5-4f98-bb82-90961b8a90bb)"/>
      </g>
    </mask>
    <linearGradient id="ab4357c1-648c-4d04-9ac2-b6cd99b8a4a3" x1="32" y1="112" x2="112" y2="32" gradientUnits="userSpaceOnUse">
      <stop offset="0.1" stop-color="#be95ff"/>
      <stop offset="0.9" stop-color="#4589ff"/>
    </linearGradient>
    <mask id="a21b9c5c-b6fa-4ddf-a476-46680361795b" x="32" y="176" width="80" height="80" maskUnits="userSpaceOnUse">
      <g>
        <path d="M108.194,249.806,93.735,235.347H49.5v-3.694h45a1.849,1.849,0,0,1,1.306.541l15,15Z" fill="#fff"/>
        <path d="M49.5,235.3h-10a6.809,6.809,0,0,1-6.8-6.8h3.6a3.2,3.2,0,0,0,3.2,3.2h10Z" fill="url(#b8c08854-d6f7-430b-9b12-2bc538d79243)"/>
        <path d="M94.5,185.3h-55a3.2,3.2,0,0,0-3.2,3.2v40a1.8,1.8,0,0,1-3.6,0v-40a6.809,6.809,0,0,1,6.8-6.8h55Z" fill="url(#b281d78e-2684-4b7b-80fc-c61e4e9cfe97)"/>
        <path d="M111.3,188.5h-3.6a3.2,3.2,0,0,0-3.2-3.2h-10v-3.6h10A6.809,6.809,0,0,1,111.3,188.5Z" fill="url(#e132cf8d-227b-40f0-9bbf-b8d836c786eb)"/>
        <path d="M109.5,250.3a1.8,1.8,0,0,1-1.8-1.8v-60a1.8,1.8,0,0,1,3.6,0v60A1.8,1.8,0,0,1,109.5,250.3Z" fill="url(#bc754d8a-97b5-4abd-837b-ed57bcede453)"/>
      </g>
    </mask>
    <mask id="a0762f12-921a-410f-9694-1657dfed2d71" x="176" y="176" width="80" height="80" maskUnits="userSpaceOnUse">
      <g>
        <path d="M252.194,249.806l-14.459-14.459H193.5v-3.694h45a1.849,1.849,0,0,1,1.306.541l15,15Z" fill="#fff"/>
        <path d="M193.5,235.3h-10a6.809,6.809,0,0,1-6.8-6.8h3.6a3.2,3.2,0,0,0,3.2,3.2h10Z" fill="url(#a887af8b-9f58-4880-9f19-d242482f9e80)"/>
        <path d="M238.5,185.3h-55a3.2,3.2,0,0,0-3.2,3.2v40a1.8,1.8,0,0,1-3.6,0v-40a6.809,6.809,0,0,1,6.8-6.8h55Z" fill="url(#edaee3c8-256a-4cde-859c-5fca4c1fc3eb)"/>
        <path d="M255.3,188.5h-3.6a3.2,3.2,0,0,0-3.2-3.2h-10v-3.6h10A6.809,6.809,0,0,1,255.3,188.5Z" fill="url(#bbbe6c36-36c7-41c4-9504-d5b3d4971d74)"/>
        <path d="M253.5,250.3a1.8,1.8,0,0,1-1.8-1.8v-60a1.8,1.8,0,0,1,3.6,0v60A1.8,1.8,0,0,1,253.5,250.3Z" fill="url(#a723a54b-3b3c-430a-9371-58f7198b6327)"/>
      </g>
    </mask>
    <mask id="b170b8f7-ee1e-4f57-86e1-fc183e481945" x="176" y="32" width="80" height="80" maskUnits="userSpaceOnUse">
      <g>
        <path d="M252.194,105.806,237.735,91.347H193.5V87.653h45a1.849,1.849,0,0,1,1.306.541l15,15Z" fill="#fff"/>
        <path d="M193.5,91.3h-10a6.809,6.809,0,0,1-6.8-6.8h3.6a3.2,3.2,0,0,0,3.2,3.2h10Z" fill="url(#bdca3655-784b-4197-afac-293a52febd25)"/>
        <path d="M238.5,41.3h-55a3.2,3.2,0,0,0-3.2,3.2v40a1.8,1.8,0,0,1-3.6,0v-40a6.809,6.809,0,0,1,6.8-6.8h55Z" fill="url(#e275ca5b-7b8d-4b84-beff-eea618a00ca2)"/>
        <path d="M255.3,44.5h-3.6a3.2,3.2,0,0,0-3.2-3.2h-10V37.7h10A6.809,6.809,0,0,1,255.3,44.5Z" fill="url(#f023726a-8394-4cc6-a7aa-fd92727a2028)"/>
        <path d="M253.5,106.3a1.8,1.8,0,0,1-1.8-1.8v-60a1.8,1.8,0,1,1,3.6,0v60A1.8,1.8,0,0,1,253.5,106.3Z" fill="url(#b66e9497-61ec-47cf-8d23-5a8aee770bef)"/>
      </g>
    </mask>
    <linearGradient id="a1eaafdc-2585-40de-b7aa-285fc37eb379" x1="176" y1="112" x2="256" y2="32" gradientUnits="userSpaceOnUse">
      <stop offset="0.1" stop-color="#a56eff"/>
      <stop offset="0.9" stop-color="#0f62fe"/>
    </linearGradient>
  </defs>
  <rect width="144" height="144"/>
  <rect y="144" width="144" height="144" fill="#6929c4"/>
  <rect x="144" width="144" height="144" fill="#fff"/>
  <rect x="144" y="144" width="144" height="144" fill="#be95ff"/>
  <g>
    <g mask="url(#a3ed8ed7-3214-4b9c-9af9-f6a266d8e4bd)">
      <rect x="32" y="32" width="80" height="80" fill="url(#ab4357c1-648c-4d04-9ac2-b6cd99b8a4a3)"/>
    </g>
    <rect x="49.5" y="63.6" width="45" height="1.8" fill="#fff"/>
    <rect x="49.5" y="53.6" width="45" height="1.8" fill="#fff"/>
    <rect x="49.5" y="73.6" width="45" height="1.8" fill="#fff"/>
  </g>
  <g>
    <g mask="url(#a21b9c5c-b6fa-4ddf-a476-46680361795b)">
      <rect x="32" y="176" width="80" height="80" fill="#fff"/>
    </g>
    <rect x="49.5" y="207.6" width="45" height="1.8" fill="#fff"/>
    <rect x="49.5" y="197.6" width="45" height="1.8" fill="#fff"/>
    <rect x="49.5" y="217.6" width="45" height="1.8" fill="#fff"/>
  </g>
  <g>
    <g mask="url(#a0762f12-921a-410f-9694-1657dfed2d71)">
      <rect x="176" y="176" width="80" height="80"/>
    </g>
    <rect x="193.5" y="207.6" width="45" height="1.8"/>
    <rect x="193.5" y="197.6" width="45" height="1.8"/>
    <rect x="193.5" y="217.6" width="45" height="1.8"/>
  </g>
  <g>
    <g mask="url(#b170b8f7-ee1e-4f57-86e1-fc183e481945)">
      <rect x="176" y="32" width="80" height="80" fill="url(#a1eaafdc-2585-40de-b7aa-285fc37eb379)"/>
    </g>
    <rect x="193.5" y="63.6" width="45" height="1.8"/>
    <rect x="193.5" y="53.6" width="45" height="1.8"/>
    <rect x="193.5" y="73.6" width="45" height="1.8"/>
  </g>
</svg>
