<svg xmlns="http://www.w3.org/2000/svg" xmlns:xlink="http://www.w3.org/1999/xlink" width="16" height="20" version="1.1" viewBox="0 0 16 20"><title>storybook-icon/monochrome</title><desc>Created with Sketch.</desc><defs><path id="path-1" d="M11.9479418,0.191772553 L11.8537041,2.4583186 C11.8522554,2.49316117 11.862992,2.52741977 11.8840675,2.55520331 C11.934134,2.62120528 12.0282261,2.63412351 12.094228,2.584057 L12.9746642,1.91619251 L13.7182911,2.50199528 C13.7461558,2.52394606 13.780898,2.53531156 13.8163485,2.53407359 C13.8991408,2.53118243 13.9639134,2.46172229 13.9610222,2.37893005 L13.8804273,0.0709922108 L14.984425,0.00199234997 C15.5386921,-0.0326493419 16.016097,0.388590257 16.0507387,0.942857327 C16.0520438,0.963739972 16.0526969,0.984658267 16.0526969,1.00558166 L16.0526969,18.9944525 C16.0526969,19.549801 15.6024979,20 15.0471494,20 C15.0321047,20 15.017062,19.9996624 15.0020325,19.9989873 L1.58000252,19.3961612 C1.05726753,19.3726835 0.639903368,18.9522316 0.620279251,18.4293378 L0.000720094879,1.92089246 C-0.0197415137,1.37568327 0.398305374,0.913624829 0.942835893,0.879591672 L11.9479418,0.191772553 Z M9.38755179,7.75702354 C9.38755179,8.14824033 12.0227349,7.96074033 12.376485,7.6859375 C12.376485,5.02184448 10.9469952,3.62190552 8.32935804,3.62190552 C5.71172085,3.62190552 4.24510144,5.04362559 4.24510144,7.17620682 C4.24510144,10.8904525 9.25759817,10.9615385 9.25759817,12.9874907 C9.25759817,13.556179 8.97912613,13.8938377 8.36648764,13.8938377 C7.56820113,13.8938377 7.25259948,13.4861473 7.28972909,12.0999695 C7.28972909,11.7992564 4.24510144,11.7055064 4.15227743,12.0999695 C3.91590969,15.4591717 6.0087577,16.4280945 8.40361725,16.4280945 C10.7242176,16.4280945 12.5435683,15.1911579 12.5435683,12.9519476 C12.5435683,8.97112935 7.45681231,9.07775841 7.45681231,7.10512078 C7.45681231,6.30540282 8.050886,6.19877376 8.40361725,6.19877376 C8.7749133,6.19877376 9.4432462,6.26421668 9.38755179,7.75702354 Z"/></defs><g id="storybook-icon/monochrome" fill="none" fill-rule="evenodd" stroke="none" stroke-width="1"><mask id="mask-2" fill="#fff"><use xlink:href="#path-1"/></mask><use id="Combined-Shape" fill="#333" fill-rule="nonzero" xlink:href="#path-1"/></g></svg>