<svg width="320" height="320" viewBox="0 0 320 320" fill="none" xmlns="http://www.w3.org/2000/svg">
<rect x="79" y="184" width="60" height="6" fill="#8D8D8D"/>
<rect width="138" height="1" transform="matrix(1 0 0 -1 85 175)" fill="#DCDCDC"/>
<rect width="176" height="1" transform="matrix(1 0 0 -1 72 200)" fill="#A8A8A8"/>
<path d="M238 188.875L241.125 185.75L240.683 185.308L238 187.991L235.317 185.308L234.875 185.75L238 188.875Z" fill="black"/>
<mask id="mask0_1500_3771" style="mask-type:luminance" maskUnits="userSpaceOnUse" x="234" y="185" width="8" height="4">
<path d="M238 188.875L241.125 185.75L240.683 185.308L238 187.991L235.317 185.308L234.875 185.75L238 188.875Z" fill="white"/>
</mask>
<g mask="url(#mask0_1500_3771)">
<rect width="25" height="25" transform="matrix(1 0 0 -1 233 192)" fill="black"/>
</g>
<rect x="79" y="134" width="60" height="6" fill="#8D8D8D"/>
<rect x="79" y="159" width="85" height="6" fill="#8D8D8D"/>
<rect width="176" height="1" transform="matrix(1 0 0 -1 72 125)" fill="#A8A8A8"/>
<rect width="176" height="1" transform="matrix(1 0 0 -1 72 150)" fill="#A8A8A8"/>
<rect width="176" height="1" transform="matrix(1 0 0 -1 72 175)" fill="#A8A8A8"/>
<rect width="176" height="1" transform="matrix(1 0 0 -1 72 175)" fill="#A8A8A8"/>
<path d="M238 138.875L241.125 135.75L240.683 135.308L238 137.991L235.317 135.308L234.875 135.75L238 138.875Z" fill="black"/>
<mask id="mask1_1500_3771" style="mask-type:luminance" maskUnits="userSpaceOnUse" x="234" y="135" width="8" height="4">
<path d="M238 138.875L241.125 135.75L240.683 135.308L238 137.991L235.317 135.308L234.875 135.75L238 138.875Z" fill="white"/>
</mask>
<g mask="url(#mask1_1500_3771)">
<rect width="25" height="25" transform="matrix(1 0 0 -1 233 142)" fill="black"/>
</g>
<path d="M238 164.875L241.125 161.75L240.683 161.308L238 163.991L235.317 161.308L234.875 161.75L238 164.875Z" fill="black"/>
<mask id="mask2_1500_3771" style="mask-type:luminance" maskUnits="userSpaceOnUse" x="234" y="161" width="8" height="4">
<path d="M238 164.875L241.125 161.75L240.683 161.308L238 163.991L235.317 161.308L234.875 161.75L238 164.875Z" fill="white"/>
</mask>
<g mask="url(#mask2_1500_3771)">
<rect width="25" height="25" transform="matrix(1 0 0 -1 233 168)" fill="black"/>
</g>
</svg>
