<svg width="320" height="320" viewBox="0 0 320 320" fill="none" xmlns="http://www.w3.org/2000/svg">
<g clip-path="url(#clip0_1500_3827)">
<g clip-path="url(#clip1_1500_3827)">
<rect x="72" y="144" width="176" height="32" fill="#0F62FE"/>
<path fill-rule="evenodd" clip-rule="evenodd" d="M89.1162 155.624V164H90.1242V160.424H92.4522C93.2042 160.424 93.7822 160.21 94.1862 159.782C94.5902 159.354 94.7922 158.768 94.7922 158.024C94.7922 157.28 94.5902 156.694 94.1862 156.266C93.7822 155.838 93.2042 155.624 92.4522 155.624H89.1162ZM92.4522 159.536H90.1242V156.512H92.4522C92.8522 156.512 93.1622 156.616 93.3822 156.824C93.6022 157.032 93.7122 157.328 93.7122 157.712V158.336C93.7122 158.72 93.6022 159.016 93.3822 159.224C93.1622 159.432 92.8522 159.536 92.4522 159.536Z" fill="white"/>
<path d="M96.3096 164V157.808H97.2696V158.948H97.3296C97.4416 158.652 97.6416 158.388 97.9296 158.156C98.2176 157.924 98.6136 157.808 99.1176 157.808H99.4896V158.768H98.9256C98.4056 158.768 97.9996 158.866 97.7076 159.062C97.4156 159.258 97.2696 159.504 97.2696 159.8V164H96.3096Z" fill="white"/>
<path fill-rule="evenodd" clip-rule="evenodd" d="M100.881 156.206C100.973 156.306 101.123 156.356 101.331 156.356C101.539 156.356 101.689 156.306 101.781 156.206C101.873 156.106 101.919 155.976 101.919 155.816V155.66C101.919 155.5 101.873 155.37 101.781 155.27C101.689 155.17 101.539 155.12 101.331 155.12C101.123 155.12 100.973 155.17 100.881 155.27C100.789 155.37 100.743 155.5 100.743 155.66V155.816C100.743 155.976 100.789 156.106 100.881 156.206ZM101.811 164V157.808H100.851V164H101.811Z" fill="white"/>
<path d="M103.988 164V157.808H104.948V158.816H104.996C105.068 158.656 105.15 158.506 105.242 158.366C105.334 158.226 105.446 158.104 105.578 158C105.71 157.896 105.864 157.814 106.04 157.754C106.216 157.694 106.424 157.664 106.664 157.664C107.072 157.664 107.448 157.762 107.792 157.958C108.136 158.154 108.392 158.476 108.56 158.924H108.584C108.696 158.588 108.906 158.294 109.214 158.042C109.522 157.79 109.94 157.664 110.468 157.664C111.1 157.664 111.594 157.87 111.95 158.282C112.306 158.694 112.484 159.276 112.484 160.028V164H111.524V160.196C111.524 159.644 111.416 159.228 111.2 158.948C110.984 158.668 110.64 158.528 110.168 158.528C109.976 158.528 109.794 158.552 109.622 158.6C109.45 158.648 109.296 158.72 109.16 158.816C109.024 158.912 108.916 159.034 108.836 159.182C108.756 159.33 108.716 159.504 108.716 159.704V164H107.756V160.196C107.756 159.644 107.648 159.228 107.432 158.948C107.216 158.668 106.88 158.528 106.424 158.528C106.232 158.528 106.048 158.552 105.872 158.6C105.696 158.648 105.54 158.72 105.404 158.816C105.268 158.912 105.158 159.034 105.074 159.182C104.99 159.33 104.948 159.504 104.948 159.704V164H103.988Z" fill="white"/>
<path fill-rule="evenodd" clip-rule="evenodd" d="M118.218 164.048C118.374 164.24 118.632 164.336 118.992 164.336H119.532V163.496H118.824V160.088C118.824 159.432 118.616 158.92 118.2 158.552C117.784 158.184 117.2 158 116.448 158C115.888 158 115.424 158.118 115.056 158.354C114.688 158.59 114.42 158.876 114.252 159.212L114.828 159.752C114.996 159.472 115.206 159.248 115.458 159.08C115.71 158.912 116.024 158.828 116.4 158.828C116.896 158.828 117.264 158.944 117.504 159.176C117.744 159.408 117.864 159.744 117.864 160.184V160.796H116.64C115.736 160.796 115.07 160.952 114.642 161.264C114.214 161.576 114 162.024 114 162.608C114 163.184 114.182 163.64 114.546 163.976C114.91 164.312 115.42 164.48 116.076 164.48C116.508 164.48 116.88 164.384 117.192 164.192C117.504 164 117.728 163.712 117.864 163.328H117.924C117.964 163.616 118.062 163.856 118.218 164.048ZM116.892 163.58C116.692 163.636 116.472 163.664 116.232 163.664C115.856 163.664 115.558 163.58 115.338 163.412C115.118 163.244 115.008 163.008 115.008 162.704V162.452C115.008 162.148 115.134 161.916 115.386 161.756C115.638 161.596 116.04 161.516 116.592 161.516H117.864V162.536C117.864 162.696 117.824 162.844 117.744 162.98C117.664 163.116 117.552 163.236 117.408 163.34C117.264 163.444 117.092 163.524 116.892 163.58Z" fill="white"/>
<path d="M121.146 164V157.808H122.106V158.948H122.166C122.278 158.652 122.478 158.388 122.766 158.156C123.054 157.924 123.45 157.808 123.954 157.808H124.326V158.768H123.762C123.242 158.768 122.836 158.866 122.544 159.062C122.252 159.258 122.106 159.504 122.106 159.8V164H121.146Z" fill="white"/>
<path d="M129.623 157.808H130.571L127.799 165.44C127.727 165.624 127.655 165.778 127.583 165.902C127.511 166.026 127.423 166.124 127.319 166.196C127.215 166.268 127.085 166.32 126.929 166.352C126.773 166.384 126.583 166.4 126.359 166.4H125.867V165.56H126.839L127.307 164.24L124.991 157.808H125.951L127.439 162.02L127.727 163.028H127.787L128.123 162.02L129.623 157.808Z" fill="white"/>
<path fill-rule="evenodd" clip-rule="evenodd" d="M135.861 155.12H134.901V164H135.861V162.992H135.909C136.277 163.76 136.881 164.144 137.721 164.144C138.105 164.144 138.453 164.068 138.765 163.916C139.077 163.764 139.343 163.548 139.563 163.268C139.783 162.988 139.951 162.648 140.067 162.248C140.183 161.848 140.241 161.4 140.241 160.904C140.241 160.408 140.183 159.96 140.067 159.56C139.951 159.16 139.783 158.82 139.563 158.54C139.343 158.26 139.077 158.044 138.765 157.892C138.453 157.74 138.105 157.664 137.721 157.664C137.289 157.664 136.919 157.758 136.611 157.946C136.303 158.134 136.069 158.424 135.909 158.816H135.861V155.12ZM138.741 162.77C138.429 163.11 138.001 163.28 137.457 163.28C137.241 163.28 137.035 163.252 136.839 163.196C136.643 163.14 136.473 163.058 136.329 162.95C136.185 162.842 136.071 162.71 135.987 162.554C135.903 162.398 135.861 162.22 135.861 162.02V159.716C135.861 159.548 135.903 159.39 135.987 159.242C136.071 159.094 136.185 158.968 136.329 158.864C136.473 158.76 136.643 158.678 136.839 158.618C137.035 158.558 137.241 158.528 137.457 158.528C138.001 158.528 138.429 158.698 138.741 159.038C139.053 159.378 139.209 159.824 139.209 160.376V161.432C139.209 161.984 139.053 162.43 138.741 162.77Z" fill="white"/>
<path d="M145.814 162.992H145.766C145.702 163.136 145.624 163.278 145.532 163.418C145.44 163.558 145.326 163.682 145.19 163.79C145.054 163.898 144.89 163.984 144.698 164.048C144.506 164.112 144.282 164.144 144.026 164.144C143.386 164.144 142.878 163.938 142.502 163.526C142.126 163.114 141.938 162.532 141.938 161.78V157.808H142.898V161.612C142.898 162.724 143.37 163.28 144.314 163.28C144.506 163.28 144.692 163.256 144.872 163.208C145.052 163.16 145.212 163.088 145.352 162.992C145.492 162.896 145.604 162.774 145.688 162.626C145.772 162.478 145.814 162.3 145.814 162.092V157.808H146.774V164H145.814V162.992Z" fill="white"/>
<path d="M150.32 164C149.984 164 149.73 163.906 149.558 163.718C149.386 163.53 149.3 163.284 149.3 162.98V158.648H148.28V157.808H148.856C149.064 157.808 149.206 157.766 149.282 157.682C149.358 157.598 149.396 157.452 149.396 157.244V156.092H150.26V157.808H151.616V158.648H150.26V163.16H151.52V164H150.32Z" fill="white"/>
<path d="M154.561 164C154.225 164 153.971 163.906 153.799 163.718C153.627 163.53 153.541 163.284 153.541 162.98V158.648H152.521V157.808H153.097C153.305 157.808 153.447 157.766 153.523 157.682C153.599 157.598 153.637 157.452 153.637 157.244V156.092H154.501V157.808H155.857V158.648H154.501V163.16H155.761V164H154.561Z" fill="white"/>
<path fill-rule="evenodd" clip-rule="evenodd" d="M158.694 163.916C159.038 164.068 159.418 164.144 159.834 164.144C160.25 164.144 160.628 164.068 160.968 163.916C161.308 163.764 161.602 163.546 161.85 163.262C162.098 162.978 162.29 162.638 162.426 162.242C162.562 161.846 162.63 161.4 162.63 160.904C162.63 160.416 162.562 159.972 162.426 159.572C162.29 159.172 162.098 158.83 161.85 158.546C161.602 158.262 161.308 158.044 160.968 157.892C160.628 157.74 160.25 157.664 159.834 157.664C159.418 157.664 159.038 157.74 158.694 157.892C158.35 158.044 158.056 158.262 157.812 158.546C157.568 158.83 157.378 159.172 157.242 159.572C157.106 159.972 157.038 160.416 157.038 160.904C157.038 161.4 157.106 161.846 157.242 162.242C157.378 162.638 157.568 162.978 157.812 163.262C158.056 163.546 158.35 163.764 158.694 163.916ZM161.106 162.812C160.778 163.132 160.354 163.292 159.834 163.292C159.314 163.292 158.89 163.132 158.562 162.812C158.234 162.492 158.07 162.004 158.07 161.348V160.46C158.07 159.804 158.234 159.316 158.562 158.996C158.89 158.676 159.314 158.516 159.834 158.516C160.354 158.516 160.778 158.676 161.106 158.996C161.434 159.316 161.598 159.804 161.598 160.46V161.348C161.598 162.004 161.434 162.492 161.106 162.812Z" fill="white"/>
<path d="M164.351 164V157.808H165.311V158.816H165.359C165.511 158.464 165.725 158.184 166.001 157.976C166.277 157.768 166.647 157.664 167.111 157.664C167.751 157.664 168.257 157.87 168.629 158.282C169.001 158.694 169.187 159.276 169.187 160.028V164H168.227V160.196C168.227 159.084 167.759 158.528 166.823 158.528C166.631 158.528 166.445 158.552 166.265 158.6C166.085 158.648 165.923 158.72 165.779 158.816C165.635 158.912 165.521 159.034 165.437 159.182C165.353 159.33 165.311 159.504 165.311 159.704V164H164.351Z" fill="white"/>
<rect width="14" height="14" transform="translate(220 153)" fill="white" fill-opacity="0.01" style="mix-blend-mode:multiply"/>
<path d="M227.875 155.625L227.249 156.234L230.566 159.562H221.75V160.438H230.566L227.249 163.751L227.875 164.375L232.25 160L227.875 155.625Z" fill="white"/>
</g>
</g>
<defs>
<clipPath id="clip0_1500_3827">
<rect width="176" height="32" fill="white" transform="translate(72 144)"/>
</clipPath>
<clipPath id="clip1_1500_3827">
<rect width="176" height="32" fill="white" transform="translate(72 144)"/>
</clipPath>
</defs>
</svg>
