<svg width="320" height="320" viewBox="0 0 320 320" fill="none" xmlns="http://www.w3.org/2000/svg">
<rect x="107" y="126" width="91" height="6" fill="#8D8D8D"/>
<rect x="107" y="147" width="131" height="6" fill="#8D8D8D"/>
<path fill-rule="evenodd" clip-rule="evenodd" d="M84.625 123.75H93.375C93.8582 123.75 94.25 124.142 94.25 124.625V133.375C94.25 133.858 93.8582 134.25 93.375 134.25H84.625C84.1418 134.25 83.75 133.858 83.75 133.375V124.625C83.75 124.142 84.1418 123.75 84.625 123.75ZM84.625 124.625V133.375H93.375V124.625H84.625Z" fill="#565656"/>
<rect x="107" y="168" width="91" height="6" fill="#8D8D8D"/>
<path fill-rule="evenodd" clip-rule="evenodd" d="M84.625 165.75H93.375C93.8582 165.75 94.25 166.142 94.25 166.625V175.375C94.25 175.858 93.8582 176.25 93.375 176.25H84.625C84.1418 176.25 83.75 175.858 83.75 175.375V166.625C83.75 166.142 84.1418 165.75 84.625 165.75ZM84.625 166.625V175.375H93.375V166.625H84.625Z" fill="#565656"/>
<rect x="107" y="189" width="131" height="6" fill="#8D8D8D"/>
<path fill-rule="evenodd" clip-rule="evenodd" d="M84.625 186.75H93.375C93.8582 186.75 94.25 187.142 94.25 187.625V196.375C94.25 196.858 93.8582 197.25 93.375 197.25H84.625C84.1418 197.25 83.75 196.858 83.75 196.375V187.625C83.75 187.142 84.1418 186.75 84.625 186.75ZM84.625 187.625V196.375H93.375V187.625H84.625Z" fill="#565656"/>
<path fill-rule="evenodd" clip-rule="evenodd" d="M84.625 144.75H93.375C93.8582 144.75 94.25 145.142 94.25 145.625V154.375C94.25 154.858 93.8582 155.25 93.375 155.25H84.625C84.1418 155.25 83.75 154.858 83.75 154.375V145.625C83.75 145.142 84.1418 144.75 84.625 144.75ZM84.625 145.625V154.375H93.375V145.625H84.625Z" fill="#565656"/>
<rect x="84.625" y="145.625" width="8.75" height="8.75" fill="white"/>
<rect x="83.75" y="144.75" width="10.5" height="10.5" rx="2" fill="black"/>
<mask id="mask0_1500_3815" style="mask-type:luminance" maskUnits="userSpaceOnUse" x="83" y="144" width="12" height="12">
<rect x="83.75" y="144.75" width="10.5" height="10.5" rx="2" fill="white"/>
</mask>
<g mask="url(#mask0_1500_3815)">
<rect width="14" height="14" transform="translate(82 143)" fill="black"/>
</g>
<path d="M88.125 152.406L85.9375 150.236L86.6331 149.549L88.125 151.028L91.3669 147.812L92.0625 148.504L88.125 152.406Z" fill="white"/>
<mask id="mask1_1500_3815" style="mask-type:luminance" maskUnits="userSpaceOnUse" x="85" y="147" width="8" height="6">
<path d="M88.125 152.406L85.9375 150.236L86.6331 149.549L88.125 151.028L91.3669 147.812L92.0625 148.504L88.125 152.406Z" fill="white"/>
</mask>
<g mask="url(#mask1_1500_3815)">
<rect width="14" height="14" transform="translate(82 143)" fill="white"/>
</g>
</svg>
