<svg width="320" height="320" viewBox="0 0 320 320" fill="none" xmlns="http://www.w3.org/2000/svg">
<path fill-rule="evenodd" clip-rule="evenodd" d="M160 144L212 144V176H160V144Z" fill="#F3F3F3"/>
<rect x="183" y="158" width="1" height="6" fill="#565656"/>
<rect x="186" y="158" width="1" height="6" fill="#565656"/>
<path fill-rule="evenodd" clip-rule="evenodd" d="M179 156V155H191V156H190V166C190 166.552 189.552 167 189 167H181C180.448 167 180 166.552 180 166V156H179ZM181 156V166H189V156H181Z" fill="#565656"/>
<rect x="183" y="153" width="4" height="1" fill="#565656"/>
<path fill-rule="evenodd" clip-rule="evenodd" d="M56 148C56 145.791 57.7909 144 60 144L108 144V176H60C57.7909 176 56 174.209 56 172V148Z" fill="#F3F3F3"/>
<path fill-rule="evenodd" clip-rule="evenodd" d="M108 144L160 144V176H108V144Z" fill="#171717"/>
<path fill-rule="evenodd" clip-rule="evenodd" d="M128.077 154H131.238C131.717 154 132.167 154.228 132.449 154.615L133.462 156H139.923C140.522 156.004 141.004 156.492 141 157.091V164.909C141.004 165.508 140.522 165.996 139.923 166H128.077C127.478 165.996 126.996 165.508 127 164.909V155.091C126.996 154.492 127.478 154.004 128.077 154ZM131.642 155.205C131.548 155.076 131.398 155 131.238 155H128.077C128.031 155.005 127.997 155.045 128 155.091V164.909C127.997 164.955 128.031 164.995 128.077 165H139.923C139.969 164.995 140.003 164.955 140 164.909V157.091C140.003 157.045 139.969 157.005 139.923 157H132.954L132.654 156.59L131.642 155.205Z" fill="#F3F3F3"/>
<path fill-rule="evenodd" clip-rule="evenodd" d="M212 144L260 144C262.209 144 264 145.791 264 148V172C264 174.209 262.209 176 260 176H212V144Z" fill="#F3F3F3"/>
<path d="M212.333 152.195V167.805" stroke="#DCDCDC" stroke-linecap="square"/>
<path fill-rule="evenodd" clip-rule="evenodd" d="M238 154.5C241.331 154.626 244.267 156.721 245.47 159.829C245.51 159.939 245.51 160.061 245.47 160.171C244.267 163.279 241.331 165.374 238 165.5C234.67 165.374 231.733 163.279 230.53 160.171C230.49 160.061 230.49 159.939 230.53 159.829C231.733 156.721 234.67 154.626 238 154.5ZM231.535 160C232.548 162.537 235.35 164.5 238 164.5C240.65 164.5 243.452 162.537 244.465 160C243.452 157.463 240.65 155.5 238 155.5C235.35 155.5 232.548 157.463 231.535 160Z" fill="#565656"/>
<path fill-rule="evenodd" clip-rule="evenodd" d="M235 160C235 158.343 236.343 157 238 157C239.656 157.002 240.998 158.344 241 160C241 161.657 239.657 163 238 163C236.343 163 235 161.657 235 160ZM236 160C236 161.105 236.895 162 238 162C239.104 161.999 239.999 161.104 240 160C240 158.895 239.105 158 238 158C236.895 158 236 158.895 236 160Z" fill="#565656"/>
<path d="M90 160L86.5 163.5L85.793 162.793L88.586 160L85.793 157.207L86.5 156.5L90 160Z" fill="#3D3D3D"/>
<path d="M75 160L78.5 156.5L79.207 157.207L76.414 160L79.207 162.793L78.5 163.5L75 160Z" fill="#3D3D3D"/>
<path d="M80.7119 164.741L83.3221 155L84.2879 155.259L81.6777 165L80.7119 164.741Z" fill="#3D3D3D"/>
</svg>
