<svg width="320" height="320" viewBox="0 0 320 320" fill="none" xmlns="http://www.w3.org/2000/svg">
<rect x="103" y="96" width="113" height="129" fill="#F4F4F4"/>
<path d="M103 112.843H216" stroke="#C6C6C6"/>
<path d="M103 128.843H216" stroke="#C6C6C6"/>
<path d="M103 144.843H216" stroke="#C6C6C6"/>
<path d="M103 160.843H216" stroke="#C6C6C6"/>
<path d="M103 176.843H216" stroke="#C6C6C6"/>
<path d="M103 192.843H216" stroke="#C6C6C6"/>
<path d="M103 208.843H216" stroke="#C6C6C6"/>
<rect x="113" y="103" width="56" height="3" fill="#8D8D8D"/>
<rect x="113" y="119" width="46" height="3" fill="#A8A8A8"/>
<rect x="113" y="135" width="56" height="3" fill="#A8A8A8"/>
<rect x="113" y="151" width="46" height="3" fill="#A8A8A8"/>
<rect x="113" y="167" width="56" height="3" fill="#A8A8A8"/>
<rect x="113" y="183" width="46" height="3" fill="#A8A8A8"/>
<rect x="113" y="199" width="56" height="3" fill="#A8A8A8"/>
<rect x="113" y="215" width="46" height="3" fill="#A8A8A8"/>
<path fill-rule="evenodd" clip-rule="evenodd" d="M207.25 104.75V102.75H206.75V104.75H204.75V105.25H206.75V107.25H207.25V105.25H209.25V104.75H207.25Z" fill="black"/>
<mask id="mask0_1500_4069" style="mask-type:luminance" maskUnits="userSpaceOnUse" x="204" y="102" width="6" height="6">
<path fill-rule="evenodd" clip-rule="evenodd" d="M207.25 104.75V102.75H206.75V104.75H204.75V105.25H206.75V107.25H207.25V105.25H209.25V104.75H207.25Z" fill="white"/>
</mask>
<g mask="url(#mask0_1500_4069)">
</g>
<path fill-rule="evenodd" clip-rule="evenodd" d="M195.354 102.543C195.549 102.738 195.549 103.055 195.354 103.25L191.604 107H190V105.397L193.75 101.647C193.945 101.452 194.262 101.452 194.457 101.647L195.354 102.543ZM196.25 107.75H189.75V108.25H196.25V107.75ZM194.103 102L195 102.897L194.25 103.647L193.353 102.75L194.103 102ZM190.5 105.604V106.5H191.396L193.896 104L193 103.103L190.5 105.604Z" fill="black"/>
<mask id="mask1_1500_4069" style="mask-type:luminance" maskUnits="userSpaceOnUse" x="189" y="101" width="8" height="8">
<path fill-rule="evenodd" clip-rule="evenodd" d="M195.354 102.543C195.549 102.738 195.549 103.055 195.354 103.25L191.604 107H190V105.397L193.75 101.647C193.945 101.452 194.262 101.452 194.457 101.647L195.354 102.543ZM196.25 107.75H189.75V108.25H196.25V107.75ZM194.103 102L195 102.897L194.25 103.647L193.353 102.75L194.103 102ZM190.5 105.604V106.5H191.396L193.896 104L193 103.103L190.5 105.604Z" fill="white"/>
</mask>
<g mask="url(#mask1_1500_4069)">
</g>
</svg>
