<?xml version="1.0" encoding="UTF-8"?>
<svg width="320px" height="180px" viewBox="0 0 320 180" version="1.1" xmlns="http://www.w3.org/2000/svg" xmlns:xlink="http://www.w3.org/1999/xlink">
    <title>list</title>
    <defs>
        <path d="M0.84375,7.59375 L8.15625,7.59375 L8.15625,8.15625 L0.84375,8.15625 L0.84375,7.59375 Z M7.14771563,2.53125 C7.36716907,2.31152639 7.36716907,1.95557049 7.14771563,1.73584688 L6.13915312,0.727284375 C5.91931429,0.508109506 5.56358883,0.508109506 5.34375,0.727284375 L1.125,4.94603438 L1.125,6.75 L2.92896563,6.75 L7.14771563,2.53125 Z M5.74118437,1.12471875 L6.75,2.13353438 L5.90625,2.97728438 L4.89749062,1.968525 L5.74118437,1.12471875 Z M1.6875,6.1875 L1.6875,5.17896563 L4.49980313,2.36626875 L5.50853438,3.375 L2.69603437,6.1875 L1.6875,6.1875 Z" id="path-1"></path>
        <polygon id="path-3" points="4.78125 4.21875 4.78125 1.96875 4.21875 1.96875 4.21875 4.21875 1.96875 4.21875 1.96875 4.78125 4.21875 4.78125 4.21875 7.03125 4.78125 7.03125 4.78125 4.78125 7.03125 4.78125 7.03125 4.21875"></polygon>
    </defs>
    <g id="list" stroke="none" stroke-width="1" fill="none" fill-rule="evenodd">
        <g id="filter-panel" transform="translate(100.000000, 27.000000)">
            <rect id="Rectangle-Copy-29" fill="#F4F4F4" fill-rule="nonzero" x="0" y="0" width="113" height="126"></rect>
            <rect id="Rectangle-Copy-37" fill="#C6C6C6" fill-rule="nonzero" x="8" y="42" width="42.772727" height="5"></rect>
            <rect id="Rectangle-Copy-37-Copy" fill="#C6C6C6" fill-rule="nonzero" x="8" y="78" width="42.772727" height="5"></rect>
            <rect id="Rectangle-Copy-40" fill="#C6C6C6" fill-rule="nonzero" x="8" y="24" width="53.9318182" height="5"></rect>
            <rect id="Rectangle-Copy-40-Copy" fill="#C6C6C6" fill-rule="nonzero" x="8" y="60" width="53.9318182" height="5"></rect>
            <rect id="Rectangle-Copy-40" fill="#A8A8A8" fill-rule="nonzero" x="8" y="6" width="44.931818" height="5"></rect>
            <line x1="0" y1="17.8431373" x2="113" y2="17.8431373" id="Path-4-Copy-4" stroke="#A8A8A8" stroke-width="0.64"></line>
            <line x1="0" y1="35.5882353" x2="113" y2="35.5882353" id="Path-4-Copy-6" stroke="#A8A8A8" stroke-width="0.64"></line>
            <line x1="0" y1="71.5882353" x2="113" y2="71.5882353" id="Path-4-Copy-6-Copy" stroke="#A8A8A8" stroke-width="0.64"></line>
            <line x1="0" y1="53.4313725" x2="113" y2="53.4313725" id="Path-4-Copy-7" stroke="#A8A8A8" stroke-width="0.64"></line>
            <line x1="0" y1="89.4313725" x2="113" y2="89.4313725" id="Path-4-Copy-7-Copy" stroke="#A8A8A8" stroke-width="0.64"></line>
            <rect id="Rectangle-Copy-37-Copy-2" fill="#C6C6C6" fill-rule="nonzero" x="8" y="114" width="42.772727" height="5"></rect>
            <rect id="Rectangle-Copy-40-Copy-2" fill="#C6C6C6" fill-rule="nonzero" x="8" y="96" width="53.9318182" height="5"></rect>
            <line x1="0" y1="107.588235" x2="113" y2="107.588235" id="Path-4-Copy-6-Copy-2" stroke="#A8A8A8" stroke-width="0.64"></line>
        </g>
        <g id="icon/formatting/edit/16" transform="translate(183.000000, 32.000000)">
            <mask id="mask-2" fill="white">
                <use xlink:href="#path-1"></use>
            </mask>
            <use id="icon-color" fill="#000000" xlink:href="#path-1"></use>
        </g>
        <g id="icon/navigation/add/16" transform="translate(196.000000, 32.000000)">
            <mask id="mask-4" fill="white">
                <use xlink:href="#path-3"></use>
            </mask>
            <use id="icon-color" fill="#000000" xlink:href="#path-3"></use>
        </g>
    </g>
</svg>