<svg width="320" height="320" viewBox="0 0 320 320" fill="none" xmlns="http://www.w3.org/2000/svg">
<rect x="54" y="106" width="212" height="34" fill="#F3F3F3"/>
<rect x="54" y="139.782" width="212" height="18" fill="#E0E0E0"/>
<rect x="54" y="157.782" width="212" height="56" fill="#F3F3F3"/>
<rect x="62" y="147.782" width="48" height="3" fill="#8D8D8D"/>
<rect x="62" y="114.782" width="53" height="6" fill="#8D8D8D"/>
<rect opacity="0.748019" x="62" y="165.782" width="48" height="3" fill="#A8A8A8"/>
<rect opacity="0.748019" x="62" y="183.782" width="48" height="3" fill="#A8A8A8"/>
<rect x="135" y="147.782" width="49" height="3" fill="#8D8D8D"/>
<rect opacity="0.748019" x="135" y="166" width="49" height="3" fill="#A8A8A8"/>
<rect opacity="0.748019" x="135" y="184" width="48" height="3" fill="#A8A8A8"/>
<rect opacity="0.748019" x="62" y="202.782" width="48" height="3" fill="#A8A8A8"/>
<rect opacity="0.748019" x="135" y="202.782" width="49" height="3" fill="#A8A8A8"/>
<rect x="209" y="147.782" width="49" height="3" fill="#8D8D8D"/>
<rect opacity="0.748019" x="209" y="165.782" width="49" height="3" fill="#A8A8A8"/>
<rect opacity="0.748019" x="209" y="184" width="49" height="3" fill="#A8A8A8"/>
<rect opacity="0.748019" x="209" y="202.782" width="49" height="3" fill="#A8A8A8"/>
<path fill-rule="evenodd" clip-rule="evenodd" d="M234.062 133.657H232.938C232.627 133.657 232.375 133.405 232.375 133.094V130.96L230.291 128.875C230.185 128.77 230.126 128.628 230.125 128.479V127.469C230.125 127.159 230.377 126.907 230.688 126.907H236.312C236.623 126.907 236.875 127.159 236.875 127.469V128.479C236.874 128.628 236.815 128.77 236.709 128.875L234.625 130.96V133.094C234.625 133.405 234.373 133.657 234.062 133.657ZM230.688 127.469V128.479L232.938 130.729V133.094H234.062V130.729L236.312 128.479V127.469H230.688Z" fill="black"/>
<path fill-rule="evenodd" clip-rule="evenodd" d="M254.594 130.057V130.507L255.212 130.957C255.437 131.182 255.437 131.463 255.325 131.688L254.706 132.813C254.594 132.982 254.425 133.094 254.2 133.094C254.172 133.094 254.144 133.08 254.115 133.066C254.087 133.052 254.059 133.038 254.031 133.038L253.356 132.813C253.187 132.925 253.075 132.982 252.962 133.038L252.962 133.038L252.794 133.769C252.737 134.05 252.512 134.219 252.231 134.219H250.881C250.6 134.219 250.375 134.05 250.319 133.769L250.15 133.038C250.044 133.003 249.96 132.945 249.885 132.893C249.84 132.863 249.798 132.834 249.756 132.813L249.081 133.038C249.025 133.094 248.969 133.094 248.912 133.094C248.687 133.094 248.519 132.982 248.462 132.813L247.787 131.688C247.619 131.463 247.675 131.125 247.9 130.957L248.406 130.563V130.113L247.9 129.607C247.675 129.382 247.619 129.1 247.731 128.875L248.406 127.75C248.519 127.582 248.687 127.469 248.912 127.469H249.081L249.756 127.694L249.756 127.694C249.869 127.638 249.981 127.582 250.15 127.525L250.262 126.794C250.319 126.513 250.544 126.344 250.825 126.344H252.175C252.456 126.344 252.681 126.513 252.681 126.794L252.85 127.525C252.956 127.561 253.039 127.618 253.115 127.67C253.16 127.701 253.202 127.73 253.244 127.75L253.919 127.525C253.975 127.469 254.031 127.469 254.087 127.469C254.312 127.469 254.481 127.582 254.594 127.75L255.269 128.875C255.381 129.1 255.381 129.438 255.156 129.607L254.594 130.057ZM253.131 132.194L254.087 132.532L254.762 131.407L253.975 130.732C254.031 130.45 254.031 130.113 253.975 129.832L254.762 129.157L254.087 128.032L253.187 128.369C253.109 128.322 253.034 128.275 252.962 128.229C252.776 128.11 252.602 128 252.4 127.919L252.175 126.907H250.825L250.656 127.919C250.375 128.032 250.094 128.144 249.869 128.369L248.912 128.032L248.237 129.157L249.025 129.832C248.969 130.113 248.969 130.45 249.025 130.732L248.237 131.407L248.912 132.532L249.812 132.194C249.891 132.241 249.965 132.289 250.038 132.335C250.224 132.453 250.397 132.563 250.6 132.644L250.825 133.657H252.175L252.344 132.644C252.625 132.532 252.906 132.363 253.131 132.194Z" fill="black"/>
<path fill-rule="evenodd" clip-rule="evenodd" d="M249.9 130.388C249.9 131.344 250.631 132.075 251.587 132.075C252.544 132.075 253.275 131.288 253.275 130.388C253.275 129.431 252.544 128.7 251.587 128.7C250.631 128.7 249.9 129.431 249.9 130.388ZM250.462 130.331C250.462 129.713 250.969 129.263 251.587 129.263C252.262 129.263 252.712 129.769 252.712 130.388V130.444C252.712 131.063 252.206 131.513 251.587 131.513H251.531C250.912 131.513 250.462 131.006 250.462 130.388V130.331Z" fill="black"/>
<path fill-rule="evenodd" clip-rule="evenodd" d="M219.438 133.826L217.019 131.407C218.088 130.113 217.919 128.144 216.625 127.076C215.331 126.007 213.363 126.176 212.294 127.469C211.225 128.763 211.394 130.732 212.688 131.801C213.813 132.757 215.5 132.757 216.625 131.801L219.044 134.219L219.438 133.826ZM212.125 129.438C212.125 128.032 213.25 126.907 214.656 126.907C216.063 126.907 217.188 128.032 217.188 129.438C217.188 130.844 216.063 131.969 214.656 131.969C213.25 131.969 212.125 130.844 212.125 129.438Z" fill="black"/>
<rect x="54" y="175.782" width="212" height="1" fill="#C6C6C6"/>
<rect x="54" y="193.782" width="212" height="1" fill="#C6C6C6"/>
</svg>
