<svg width="320" height="320" viewBox="0 0 320 320" fill="none" xmlns="http://www.w3.org/2000/svg">
<g clip-path="url(#clip0_1501_4942)">
<rect x="110" y="114" width="120" height="4" fill="#8D8D8D"/>
<rect x="110" y="174" width="101" height="4" fill="#8D8D8D"/>
<rect x="110" y="189" width="120" height="4" fill="#8D8D8D"/>
<rect x="124.731" y="129" width="47.9245" height="4" fill="#8D8D8D"/>
<rect x="124.731" y="144" width="62.0987" height="4" fill="#8D8D8D"/>
<path d="M100.416 117.276V116.212H90.504V117.276H100.416Z" fill="#252525"/>
<path d="M100.416 177.276V176.212H90.504V177.276H100.416Z" fill="#252525"/>
<path d="M100.416 192.276V191.212H90.504V192.276H100.416Z" fill="#252525"/>
<rect x="111" y="130" width="4" height="4" fill="#171717"/>
<rect x="111" y="145" width="4" height="4" fill="#171717"/>
<rect x="124.731" y="159" width="47.9245" height="4" fill="#8D8D8D"/>
<rect x="111" y="159" width="4" height="4" fill="#171717"/>
</g>
<defs>
<clipPath id="clip0_1501_4942">
<rect width="140" height="95" fill="white" transform="translate(90 113)"/>
</clipPath>
</defs>
</svg>
