<svg width="320" height="320" viewBox="0 0 320 320" fill="none" xmlns="http://www.w3.org/2000/svg">
<g filter="url(#filter0_d_1501_4297)">
<path fill-rule="evenodd" clip-rule="evenodd" d="M55 103L141.963 103H161V218H55V103Z" fill="#F3F3F3"/>
</g>
<rect opacity="0.6" x="55" y="106" width="105" height="16" fill="#DCDCDC"/>
<rect opacity="0.6" x="55" y="125" width="106" height="1" fill="#C6C6C6"/>
<rect opacity="0.6" x="55" y="180" width="106" height="1" fill="#C6C6C6"/>
<rect x="64.4502" y="113" width="43.05" height="3" fill="#8D8D8D"/>
<rect x="64.4502" y="189" width="43.05" height="3" fill="#BEBEBE"/>
<rect x="64.4502" y="205" width="52" height="3" fill="#BEBEBE"/>
<rect x="64.4502" y="135" width="52" height="3" fill="#BEBEBE"/>
<rect x="64.4502" y="151" width="43.05" height="3" fill="#BEBEBE"/>
<rect x="64.4502" y="167" width="52" height="3" fill="#BEBEBE"/>
<g filter="url(#filter1_d_1501_4297)">
<path fill-rule="evenodd" clip-rule="evenodd" d="M161 103L244.682 103H263V158H161V103Z" fill="#F3F3F3"/>
</g>
<rect x="182.45" y="112" width="51" height="3" fill="#BEBEBE"/>
<rect x="182.45" y="128" width="43.05" height="3" fill="#BEBEBE"/>
<rect opacity="0.6" x="161" y="138" width="103" height="16" fill="#DCDCDC"/>
<rect x="182.45" y="145" width="51" height="3" fill="#8D8D8D"/>
<path fill-rule="evenodd" clip-rule="evenodd" d="M146.875 111.375L149.875 114L146.875 116.625V111.375Z" fill="black"/>
<mask id="mask0_1501_4297" style="mask-type:luminance" maskUnits="userSpaceOnUse" x="146" y="111" width="4" height="6">
<path fill-rule="evenodd" clip-rule="evenodd" d="M146.875 111.375L149.875 114L146.875 116.625V111.375Z" fill="white"/>
</mask>
<g mask="url(#mask0_1501_4297)">
</g>
<g filter="url(#filter2_d_1501_4297)">
<path fill-rule="evenodd" clip-rule="evenodd" d="M248.222 150.71L246.197 151.57L245.038 148.839L243.3 150.578V141.872L249.578 148.15H247.136L248.222 150.71Z" fill="black" fill-opacity="0.01"/>
</g>
<g filter="url(#filter3_d_1501_4297)">
<path fill-rule="evenodd" clip-rule="evenodd" d="M248.222 150.71L246.197 151.57L245.038 148.839L243.3 150.578V141.872L249.578 148.15H247.136L248.222 150.71Z" fill="black" fill-opacity="0.01"/>
</g>
<path fill-rule="evenodd" clip-rule="evenodd" d="M248.222 150.71L246.197 151.57L245.038 148.839L243.3 150.578V141.872L249.578 148.15H247.136L248.222 150.71Z" fill="white"/>
<path fill-rule="evenodd" clip-rule="evenodd" d="M246.305 147.6H248.25L243.85 143.2V149.25L245.226 147.874L246.489 150.849L247.502 150.419L246.305 147.6Z" fill="black"/>
<path fill-rule="evenodd" clip-rule="evenodd" d="M171.643 116L169.5 113.874L170.181 113.214L171.643 114.65L174.819 111.5L175.5 112.177L171.643 116Z" fill="black"/>
<defs>
<filter id="filter0_d_1501_4297" x="49" y="99" width="118" height="127" filterUnits="userSpaceOnUse" color-interpolation-filters="sRGB">
<feFlood flood-opacity="0" result="BackgroundImageFix"/>
<feColorMatrix in="SourceAlpha" type="matrix" values="0 0 0 0 0 0 0 0 0 0 0 0 0 0 0 0 0 0 127 0" result="hardAlpha"/>
<feOffset dy="2"/>
<feGaussianBlur stdDeviation="3"/>
<feColorMatrix type="matrix" values="0 0 0 0 0 0 0 0 0 0 0 0 0 0 0 0 0 0 0.3 0"/>
<feBlend mode="normal" in2="BackgroundImageFix" result="effect1_dropShadow_1501_4297"/>
<feBlend mode="normal" in="SourceGraphic" in2="effect1_dropShadow_1501_4297" result="shape"/>
</filter>
<filter id="filter1_d_1501_4297" x="155" y="99" width="114" height="67" filterUnits="userSpaceOnUse" color-interpolation-filters="sRGB">
<feFlood flood-opacity="0" result="BackgroundImageFix"/>
<feColorMatrix in="SourceAlpha" type="matrix" values="0 0 0 0 0 0 0 0 0 0 0 0 0 0 0 0 0 0 127 0" result="hardAlpha"/>
<feOffset dy="2"/>
<feGaussianBlur stdDeviation="3"/>
<feColorMatrix type="matrix" values="0 0 0 0 0 0 0 0 0 0 0 0 0 0 0 0 0 0 0.3 0"/>
<feBlend mode="normal" in2="BackgroundImageFix" result="effect1_dropShadow_1501_4297"/>
<feBlend mode="normal" in="SourceGraphic" in2="effect1_dropShadow_1501_4297" result="shape"/>
</filter>
<filter id="filter2_d_1501_4297" x="241.8" y="141.372" width="9.27783" height="12.6978" filterUnits="userSpaceOnUse" color-interpolation-filters="sRGB">
<feFlood flood-opacity="0" result="BackgroundImageFix"/>
<feColorMatrix in="SourceAlpha" type="matrix" values="0 0 0 0 0 0 0 0 0 0 0 0 0 0 0 0 0 0 127 0" result="hardAlpha"/>
<feOffset dy="1"/>
<feGaussianBlur stdDeviation="0.75"/>
<feColorMatrix type="matrix" values="0 0 0 0 0 0 0 0 0 0 0 0 0 0 0 0 0 0 0.15 0"/>
<feBlend mode="normal" in2="BackgroundImageFix" result="effect1_dropShadow_1501_4297"/>
<feBlend mode="normal" in="SourceGraphic" in2="effect1_dropShadow_1501_4297" result="shape"/>
</filter>
<filter id="filter3_d_1501_4297" x="242.3" y="141.622" width="8.27783" height="11.6978" filterUnits="userSpaceOnUse" color-interpolation-filters="sRGB">
<feFlood flood-opacity="0" result="BackgroundImageFix"/>
<feColorMatrix in="SourceAlpha" type="matrix" values="0 0 0 0 0 0 0 0 0 0 0 0 0 0 0 0 0 0 127 0" result="hardAlpha"/>
<feOffset dy="0.75"/>
<feGaussianBlur stdDeviation="0.5"/>
<feColorMatrix type="matrix" values="0 0 0 0 0 0 0 0 0 0 0 0 0 0 0 0 0 0 0.2 0"/>
<feBlend mode="normal" in2="BackgroundImageFix" result="effect1_dropShadow_1501_4297"/>
<feBlend mode="normal" in="SourceGraphic" in2="effect1_dropShadow_1501_4297" result="shape"/>
</filter>
</defs>
</svg>
