<svg width="320" height="320" viewBox="0 0 320 320" fill="none" xmlns="http://www.w3.org/2000/svg">
<g clip-path="url(#clip0_1501_7271)">
<g clip-path="url(#clip1_1501_7271)">
<rect x="72" y="144" width="176" height="32" fill="#0F62FE"/>
<rect width="14" height="14" transform="translate(224 153)" fill="white" fill-opacity="0.01" style="mix-blend-mode:multiply"/>
<path d="M231 162.625L226.625 158.25L227.238 157.638L231 161.4L234.762 157.638L235.375 158.25L231 162.625Z" fill="white"/>
<path d="M215 144V179" stroke="#C6C6C6"/>
<path d="M153.539 164H152.579V157.808H153.539V158.816H153.587C153.887 158.12 154.415 157.664 155.339 157.664C156.611 157.664 157.415 158.528 157.415 160.028V164H156.455V160.196C156.455 159.092 155.975 158.528 155.051 158.528C154.283 158.528 153.539 158.912 153.539 159.704V164Z" fill="white"/>
<path d="M148.104 164.144C146.448 164.144 145.308 162.872 145.308 160.904C145.308 158.936 146.448 157.664 148.104 157.664C149.76 157.664 150.9 158.936 150.9 160.904C150.9 162.872 149.76 164.144 148.104 164.144ZM148.104 163.292C149.136 163.292 149.868 162.656 149.868 161.348V160.46C149.868 159.152 149.136 158.516 148.104 158.516C147.072 158.516 146.34 159.152 146.34 160.46V161.348C146.34 162.656 147.072 163.292 148.104 163.292Z" fill="white"/>
<path d="M144.072 164H142.872C142.212 164 141.852 163.58 141.852 162.98V158.648H140.832V157.808H141.408C141.816 157.808 141.948 157.664 141.948 157.244V156.092H142.812V157.808H144.168V158.648H142.812V163.16H144.072V164Z" fill="white"/>
<path d="M139.87 164H138.67C138.01 164 137.65 163.58 137.65 162.98V158.648H136.63V157.808H137.206C137.614 157.808 137.746 157.664 137.746 157.244V156.092H138.61V157.808H139.966V158.648H138.61V163.16H139.87V164Z" fill="white"/>
<path d="M134.198 164V162.992H134.15C133.91 163.58 133.442 164.144 132.41 164.144C131.138 164.144 130.322 163.28 130.322 161.78V157.808H131.282V161.612C131.282 162.716 131.774 163.28 132.698 163.28C133.454 163.28 134.198 162.908 134.198 162.092V157.808H135.158V164H134.198Z" fill="white"/>
<path d="M123.321 164V155.12H124.281V158.816H124.329C124.653 158.036 125.289 157.664 126.141 157.664C127.689 157.664 128.661 158.924 128.661 160.904C128.661 162.884 127.689 164.144 126.141 164.144C125.289 164.144 124.701 163.76 124.329 162.992H124.281V164H123.321ZM125.877 163.28C126.957 163.28 127.629 162.536 127.629 161.432V160.376C127.629 159.272 126.957 158.528 125.877 158.528C125.001 158.528 124.281 159.032 124.281 159.716V162.02C124.281 162.824 125.001 163.28 125.877 163.28Z" fill="white"/>
<path d="M117.28 164V162.992H117.232C116.992 163.58 116.524 164.144 115.492 164.144C114.22 164.144 113.404 163.28 113.404 161.78V157.808H114.364V161.612C114.364 162.716 114.856 163.28 115.78 163.28C116.536 163.28 117.28 162.908 117.28 162.092V157.808H118.24V164H117.28Z" fill="white"/>
<path d="M107.504 164H106.544V157.808H107.504V158.816H107.552C107.852 158.12 108.38 157.664 109.304 157.664C110.576 157.664 111.38 158.528 111.38 160.028V164H110.42V160.196C110.42 159.092 109.94 158.528 109.016 158.528C108.248 158.528 107.504 158.912 107.504 159.704V164Z" fill="white"/>
<path d="M102.186 164.144C100.506 164.144 99.4023 162.872 99.4023 160.904C99.4023 158.936 100.506 157.664 102.186 157.664C103.842 157.664 104.862 158.936 104.862 160.688V161.144H100.41V161.432C100.41 162.5 101.094 163.304 102.246 163.304C103.026 163.304 103.626 162.92 103.95 162.236L104.634 162.728C104.238 163.568 103.35 164.144 102.186 164.144ZM102.186 158.468C101.142 158.468 100.41 159.26 100.41 160.34V160.424H103.83V160.292C103.83 159.2 103.17 158.468 102.186 158.468Z" fill="white"/>
<path d="M90.1162 164V155.624H91.4602L93.8602 160.136H93.9202L96.3322 155.624H97.6282V164H96.6442V156.944H96.5842L95.8762 158.348L93.8722 161.996L91.8682 158.348L91.1602 156.944H91.1002V164H90.1162Z" fill="white"/>
</g>
</g>
<defs>
<clipPath id="clip0_1501_7271">
<rect width="176" height="32" fill="white" transform="translate(72 144)"/>
</clipPath>
<clipPath id="clip1_1501_7271">
<rect width="176" height="32" fill="white" transform="translate(72 144)"/>
</clipPath>
</defs>
</svg>
