<svg width="320" height="320" viewBox="0 0 320 320" fill="none" xmlns="http://www.w3.org/2000/svg">
<rect width="320" height="320" fill="white"/>
<g clip-path="url(#clip0_3969_4395)">
<rect x="72" y="144" width="176" height="32" fill="#0F62FE"/>
<g clip-path="url(#clip1_3969_4395)">
<rect width="16" height="16" transform="translate(216 152)" fill="white" fill-opacity="0.01" style="mix-blend-mode:multiply"/>
<path d="M224 163L219 158L219.7 157.3L224 161.6L228.3 157.3L229 158L224 163Z" fill="white"/>
</g>
<path d="M89.302 165V155.228H90.87L93.67 160.492H93.74L96.554 155.228H98.066V165H96.918V156.768H96.848L96.022 158.406L93.684 162.662L91.346 158.406L90.52 156.768H90.45V165H89.302ZM103.427 165.168C101.467 165.168 100.179 163.684 100.179 161.388C100.179 159.092 101.467 157.608 103.427 157.608C105.359 157.608 106.549 159.092 106.549 161.136V161.668H101.355V162.004C101.355 163.25 102.153 164.188 103.497 164.188C104.407 164.188 105.107 163.74 105.485 162.942L106.283 163.516C105.821 164.496 104.785 165.168 103.427 165.168ZM103.427 158.546C102.209 158.546 101.355 159.47 101.355 160.73V160.828H105.345V160.674C105.345 159.4 104.575 158.546 103.427 158.546ZM109.675 165H108.555V157.776H109.675V158.952H109.731C110.081 158.14 110.697 157.608 111.775 157.608C113.259 157.608 114.197 158.616 114.197 160.366V165H113.077V160.562C113.077 159.274 112.517 158.616 111.439 158.616C110.543 158.616 109.675 159.064 109.675 159.988V165ZM121.124 165V163.824H121.068C120.788 164.51 120.242 165.168 119.038 165.168C117.554 165.168 116.602 164.16 116.602 162.41V157.776H117.722V162.214C117.722 163.502 118.296 164.16 119.374 164.16C120.256 164.16 121.124 163.726 121.124 162.774V157.776H122.244V165H121.124ZM128.258 165V154.64H129.378V158.952H129.434C129.812 158.042 130.554 157.608 131.548 157.608C133.354 157.608 134.488 159.078 134.488 161.388C134.488 163.698 133.354 165.168 131.548 165.168C130.554 165.168 129.868 164.72 129.434 163.824H129.378V165H128.258ZM131.24 164.16C132.5 164.16 133.284 163.292 133.284 162.004V160.772C133.284 159.484 132.5 158.616 131.24 158.616C130.218 158.616 129.378 159.204 129.378 160.002V162.69C129.378 163.628 130.218 164.16 131.24 164.16ZM140.991 165V163.824H140.935C140.655 164.51 140.109 165.168 138.905 165.168C137.421 165.168 136.469 164.16 136.469 162.41V157.776H137.589V162.214C137.589 163.502 138.163 164.16 139.241 164.16C140.123 164.16 140.991 163.726 140.991 162.774V157.776H142.111V165H140.991ZM147.652 165H146.252C145.482 165 145.062 164.51 145.062 163.81V158.756H143.872V157.776H144.544C145.02 157.776 145.174 157.608 145.174 157.118V155.774H146.182V157.776H147.764V158.756H146.182V164.02H147.652V165ZM152.597 165H151.197C150.427 165 150.007 164.51 150.007 163.81V158.756H148.817V157.776H149.489C149.965 157.776 150.119 157.608 150.119 157.118V155.774H151.127V157.776H152.709V158.756H151.127V164.02H152.597V165ZM157.344 165.168C155.412 165.168 154.082 163.684 154.082 161.388C154.082 159.092 155.412 157.608 157.344 157.608C159.276 157.608 160.606 159.092 160.606 161.388C160.606 163.684 159.276 165.168 157.344 165.168ZM157.344 164.174C158.548 164.174 159.402 163.432 159.402 161.906V160.87C159.402 159.344 158.548 158.602 157.344 158.602C156.14 158.602 155.286 159.344 155.286 160.87V161.906C155.286 163.432 156.14 164.174 157.344 164.174ZM163.728 165H162.608V157.776H163.728V158.952H163.784C164.134 158.14 164.75 157.608 165.828 157.608C167.312 157.608 168.25 158.616 168.25 160.366V165H167.13V160.562C167.13 159.274 166.57 158.616 165.492 158.616C164.596 158.616 163.728 159.064 163.728 159.988V165Z" fill="white"/>
</g>
<defs>
<clipPath id="clip0_3969_4395">
<rect x="72" y="144" width="176" height="32" fill="white"/>
</clipPath>
<clipPath id="clip1_3969_4395">
<rect width="16" height="16" fill="white" transform="translate(216 152)"/>
</clipPath>
</defs>
</svg>
