<svg width="320" height="320" viewBox="0 0 320 320" fill="none" xmlns="http://www.w3.org/2000/svg">
<rect width="320" height="320" fill="white"/>
<g filter="url(#filter0_d_4007_9513)">
<rect x="60" y="107" width="200" height="107" fill="black" fill-opacity="0.01"/>
</g>
<rect width="200" height="106" transform="translate(60 107)" fill="#F3F3F3"/>
<path fill-rule="evenodd" clip-rule="evenodd" d="M245.53 122L248 119.53L247.47 119L245 121.47L242.53 119L242 119.53L244.47 122L242 124.47L242.53 125L245 122.53L247.47 125L248 124.47L245.53 122Z" fill="black"/>
<mask id="mask0_4007_9513" style="mask-type:luminance" maskUnits="userSpaceOnUse" x="242" y="119" width="6" height="6">
<path fill-rule="evenodd" clip-rule="evenodd" d="M245.53 122L248 119.53L247.47 119L245 121.47L242.53 119L242 119.53L244.47 122L242 124.47L242.53 125L245 122.53L247.47 125L248 124.47L245.53 122Z" fill="white"/>
</mask>
<g mask="url(#mask0_4007_9513)">
</g>
<rect x="69" y="120" width="58" height="6" fill="#8D8D8D"/>
<rect x="69" y="136" width="137" height="3" fill="#A8A8A8"/>
<rect x="69" y="150" width="137" height="3" fill="#A8A8A8"/>
<rect x="160" y="188" width="101" height="26" fill="#0F6DFF"/>
<rect x="59" y="188" width="100" height="26" fill="#3D3D3D"/>
<rect x="69" y="143" width="112" height="3" fill="#A8A8A8"/>
<rect x="69" y="157" width="112" height="3" fill="#A8A8A8"/>
<rect x="59.5" y="107.5" width="201" height="106" stroke="#C6C6C6"/>
<rect x="60" y="182" width="200" height="6" fill="#F3F3F3"/>
<defs>
<filter id="filter0_d_4007_9513" x="54" y="103" width="212" height="119" filterUnits="userSpaceOnUse" color-interpolation-filters="sRGB">
<feFlood flood-opacity="0" result="BackgroundImageFix"/>
<feColorMatrix in="SourceAlpha" type="matrix" values="0 0 0 0 0 0 0 0 0 0 0 0 0 0 0 0 0 0 127 0" result="hardAlpha"/>
<feOffset dy="2"/>
<feGaussianBlur stdDeviation="3"/>
<feColorMatrix type="matrix" values="0 0 0 0 0.862745 0 0 0 0 0.862745 0 0 0 0 0.862745 0 0 0 1 0"/>
<feBlend mode="normal" in2="BackgroundImageFix" result="effect1_dropShadow_4007_9513"/>
<feBlend mode="normal" in="SourceGraphic" in2="effect1_dropShadow_4007_9513" result="shape"/>
</filter>
</defs>
</svg>
