<svg width="320" height="320" viewBox="0 0 320 320" fill="none" xmlns="http://www.w3.org/2000/svg">
<path d="M215.875 125.625V120H214.625V125.625H209V126.875H214.625V132.5H215.875V126.875H221.5V125.625H215.875Z" fill="white"/>
<path fill-rule="evenodd" clip-rule="evenodd" d="M72 110H248V134H72V110Z" fill="#DCDCDC"/>
<g filter="url(#filter0_d_1501_5127)">
<rect x="74" y="142" width="174" height="66" fill="#D8D8D8"/>
</g>
<path fill-rule="evenodd" clip-rule="evenodd" d="M72 134H248V158H72V134Z" fill="#F3F3F3"/>
<path fill-rule="evenodd" clip-rule="evenodd" d="M72 157H248V183H72V157Z" fill="#F3F3F3"/>
<rect x="84" y="159" width="152" height="1" fill="#C6C6C6"/>
<path fill-rule="evenodd" clip-rule="evenodd" d="M72 183H248V211H72V183Z" fill="#F3F3F3"/>
<rect x="84" y="185" width="152" height="1" fill="#C6C6C6"/>
<path d="M230 119.75L233.75 123.5L233.22 124.03L230 120.81L226.78 124.03L226.25 123.5L230 119.75Z" fill="black"/>
<mask id="mask0_1501_5127" style="mask-type:luminance" maskUnits="userSpaceOnUse" x="226" y="119" width="8" height="6">
<path d="M230 119.75L233.75 123.5L233.22 124.03L230 120.81L226.78 124.03L226.25 123.5L230 119.75Z" fill="white"/>
</mask>
<g mask="url(#mask0_1501_5127)">
<rect width="30" height="30" transform="translate(224 116)" fill="#171717"/>
</g>
<rect x="114" y="119" width="66" height="6" fill="#8D8D8D"/>
<rect x="83" y="116" width="22" height="12" rx="6" fill="#161616"/>
<rect opacity="0.754768" x="103" y="144" width="99" height="6" fill="#A8A8A8"/>
<rect opacity="0.754768" x="103" y="170" width="75" height="6" fill="#A8A8A8"/>
<rect opacity="0.754768" x="103" y="195" width="99" height="6" fill="#A8A8A8"/>
<rect x="84.5" y="193.5" width="9" height="9" rx="2" fill="black"/>
<mask id="mask1_1501_5127" style="mask-type:luminance" maskUnits="userSpaceOnUse" x="84" y="193" width="10" height="10">
<rect x="84.5" y="193.5" width="9" height="9" rx="2" fill="white"/>
</mask>
<g mask="url(#mask1_1501_5127)">
<rect width="12" height="12" transform="translate(83 192)" fill="black"/>
</g>
<path d="M88.25 200.062L86.375 198.202L86.9712 197.614L88.25 198.881L91.0287 196.125L91.625 196.718L88.25 200.062Z" fill="white"/>
<mask id="mask2_1501_5127" style="mask-type:luminance" maskUnits="userSpaceOnUse" x="86" y="196" width="6" height="5">
<path d="M88.25 200.062L86.375 198.202L86.9712 197.614L88.25 198.881L91.0287 196.125L91.625 196.718L88.25 200.062Z" fill="white"/>
</mask>
<g mask="url(#mask2_1501_5127)">
<rect width="12" height="12" transform="translate(83 192)" fill="white"/>
</g>
<path fill-rule="evenodd" clip-rule="evenodd" d="M92.75 168.5H85.25C84.8358 168.5 84.5 168.836 84.5 169.25V176.75C84.5 177.164 84.8358 177.5 85.25 177.5H92.75C93.1642 177.5 93.5 177.164 93.5 176.75V169.25C93.5 168.836 93.1642 168.5 92.75 168.5ZM85.25 176.75V169.25H92.75V176.75H85.25Z" fill="black"/>
<path fill-rule="evenodd" clip-rule="evenodd" d="M92.75 142.5H85.25C84.8358 142.5 84.5 142.836 84.5 143.25V150.75C84.5 151.164 84.8358 151.5 85.25 151.5H92.75C93.1642 151.5 93.5 151.164 93.5 150.75V143.25C93.5 142.836 93.1642 142.5 92.75 142.5ZM85.25 150.75V143.25H92.75V150.75H85.25Z" fill="black"/>
<defs>
<filter id="filter0_d_1501_5127" x="68" y="138" width="186" height="78" filterUnits="userSpaceOnUse" color-interpolation-filters="sRGB">
<feFlood flood-opacity="0" result="BackgroundImageFix"/>
<feColorMatrix in="SourceAlpha" type="matrix" values="0 0 0 0 0 0 0 0 0 0 0 0 0 0 0 0 0 0 127 0" result="hardAlpha"/>
<feOffset dy="2"/>
<feGaussianBlur stdDeviation="3"/>
<feColorMatrix type="matrix" values="0 0 0 0 0.862745 0 0 0 0 0.862745 0 0 0 0 0.862745 0 0 0 1 0"/>
<feBlend mode="normal" in2="BackgroundImageFix" result="effect1_dropShadow_1501_5127"/>
<feBlend mode="normal" in="SourceGraphic" in2="effect1_dropShadow_1501_5127" result="shape"/>
</filter>
</defs>
</svg>
