<svg width="320" height="320" viewBox="0 0 320 320" fill="none" xmlns="http://www.w3.org/2000/svg">
<rect x="56.25" y="131.25" width="207.5" height="58.5" fill="#FFF0F1" stroke="#DA1E28" stroke-width="0.5"/>
<rect x="56" y="131" width="3" height="59" fill="#DA1E28"/>
<circle cx="6.125" cy="6.125" r="6.125" transform="matrix(-1 0 0 1 82.125 143.875)" fill="#DA1E28"/>
<mask id="mask0_1501_5194" style="mask-type:luminance" maskUnits="userSpaceOnUse" x="69" y="143" width="14" height="14">
<circle cx="6.125" cy="6.125" r="6.125" transform="matrix(-1 0 0 1 82.125 143.875)" fill="white"/>
</mask>
<g mask="url(#mask0_1501_5194)">
</g>
<path fill-rule="evenodd" clip-rule="evenodd" d="M79.064 147.63L78.3679 146.934L72.9387 152.364L73.6347 153.06L79.064 147.63Z" fill="white"/>
<mask id="mask1_1501_5194" style="mask-type:luminance" maskUnits="userSpaceOnUse" x="72" y="146" width="8" height="8">
<path fill-rule="evenodd" clip-rule="evenodd" d="M79.064 147.63L78.3679 146.934L72.9387 152.364L73.6347 153.06L79.064 147.63Z" fill="white"/>
</mask>
<g mask="url(#mask1_1501_5194)">
</g>
<g style="mix-blend-mode:multiply">
<rect x="91" y="147" width="84" height="6" fill="#A8A8A8"/>
</g>
<g style="mix-blend-mode:multiply">
<rect x="91" y="169" width="128" height="6" fill="#C6C6C6"/>
</g>
<g style="mix-blend-mode:multiply">
<rect x="91" y="158" width="145.277" height="6" fill="#C6C6C6"/>
</g>
</svg>
