<svg width="320" height="320" viewBox="0 0 320 320" fill="none" xmlns="http://www.w3.org/2000/svg">
<g filter="url(#filter0_d_1501_5580)">
<path fill-rule="evenodd" clip-rule="evenodd" d="M94 126H202.294V102H226V126V202H94V126Z" fill="#F3F3F3"/>
</g>
<path fill-rule="evenodd" clip-rule="evenodd" d="M214.75 110.25C214.75 110.664 214.414 111 214 111C213.586 111 213.25 110.664 213.25 110.25C213.25 109.836 213.586 109.5 214 109.5C214.414 109.5 214.75 109.836 214.75 110.25ZM214.75 114C214.75 114.414 214.414 114.75 214 114.75C213.586 114.75 213.25 114.414 213.25 114C213.25 113.586 213.586 113.25 214 113.25C214.414 113.25 214.75 113.586 214.75 114ZM214 118.5C214.414 118.5 214.75 118.164 214.75 117.75C214.75 117.336 214.414 117 214 117C213.586 117 213.25 117.336 213.25 117.75C213.25 118.164 213.586 118.5 214 118.5Z" fill="black"/>
<mask id="mask0_1501_5580" style="mask-type:luminance" maskUnits="userSpaceOnUse" x="213" y="109" width="2" height="10">
<path fill-rule="evenodd" clip-rule="evenodd" d="M214.75 110.25C214.75 110.664 214.414 111 214 111C213.586 111 213.25 110.664 213.25 110.25C213.25 109.836 213.586 109.5 214 109.5C214.414 109.5 214.75 109.836 214.75 110.25ZM214.75 114C214.75 114.414 214.414 114.75 214 114.75C213.586 114.75 213.25 114.414 213.25 114C213.25 113.586 213.586 113.25 214 113.25C214.414 113.25 214.75 113.586 214.75 114ZM214 118.5C214.414 118.5 214.75 118.164 214.75 117.75C214.75 117.336 214.414 117 214 117C213.586 117 213.25 117.336 213.25 117.75C213.25 118.164 213.586 118.5 214 118.5Z" fill="white"/>
</mask>
<g mask="url(#mask0_1501_5580)">
<rect width="30" height="30" transform="translate(208 108)" fill="#171717"/>
</g>
<rect opacity="0.75" x="106" y="137" width="75" height="6" fill="#A8A8A8"/>
<rect opacity="0.75" x="106" y="187" width="75" height="6" fill="#A8A8A8"/>
<rect opacity="0.6" x="94" y="153" width="132" height="25" fill="#DCDCDC"/>
<rect x="106" y="163" width="54.7619" height="6" fill="#8D8D8D"/>
<defs>
<filter id="filter0_d_1501_5580" x="88" y="98" width="144" height="112" filterUnits="userSpaceOnUse" color-interpolation-filters="sRGB">
<feFlood flood-opacity="0" result="BackgroundImageFix"/>
<feColorMatrix in="SourceAlpha" type="matrix" values="0 0 0 0 0 0 0 0 0 0 0 0 0 0 0 0 0 0 127 0" result="hardAlpha"/>
<feOffset dy="2"/>
<feGaussianBlur stdDeviation="3"/>
<feColorMatrix type="matrix" values="0 0 0 0 0 0 0 0 0 0 0 0 0 0 0 0 0 0 0.3 0"/>
<feBlend mode="normal" in2="BackgroundImageFix" result="effect1_dropShadow_1501_5580"/>
<feBlend mode="normal" in="SourceGraphic" in2="effect1_dropShadow_1501_5580" result="shape"/>
</filter>
</defs>
</svg>
