<svg width="320" height="320" viewBox="0 0 320 320" fill="none" xmlns="http://www.w3.org/2000/svg">
<g clip-path="url(#clip0_1501_5361)">
<rect x="64" y="142" width="32" height="32" fill="#BEBEBE"/>
<rect x="96" y="142" width="32" height="32" fill="#F4F4F4"/>
<rect x="128" y="142" width="32" height="32" fill="#F4F4F4"/>
<path d="M114.564 162V161.112H112.404V153.624H110.832L108.612 155.7L109.2 156.336L111.312 154.368H111.396V161.112H109.056V162H114.564Z" fill="#252525"/>
<path d="M146.396 161.112H141.992L144.248 159.084C145.316 158.124 146.084 157.212 146.084 155.916C146.084 154.488 145.148 153.48 143.516 153.48C141.896 153.48 141.152 154.464 140.828 155.448L141.728 155.796C141.956 155.004 142.436 154.38 143.468 154.38C144.5 154.38 145.016 155.016 145.016 155.94V156.084C145.016 156.888 144.416 157.728 143.636 158.448L140.9 160.968V162H146.396V161.112Z" fill="#252525"/>
<rect x="160" y="142" width="32" height="32" fill="#F4F4F4"/>
<path d="M174.22 157.176V158.052H175.204C176.38 158.052 177.004 158.616 177.004 159.6V159.696C177.004 160.68 176.38 161.244 175.204 161.244C174.184 161.244 173.692 160.8 173.26 160.14L172.504 160.716C173.02 161.436 173.764 162.144 175.216 162.144C176.92 162.144 178.06 161.148 178.06 159.708C178.06 158.448 177.196 157.776 176.296 157.596V157.548C177.184 157.32 177.904 156.672 177.904 155.592C177.904 154.236 176.776 153.48 175.36 153.48C174.016 153.48 173.284 154.176 172.864 154.848L173.608 155.424C173.956 154.788 174.472 154.38 175.336 154.38C176.224 154.38 176.836 154.824 176.836 155.7V155.784C176.836 156.588 176.26 157.176 175.132 157.176H174.22Z" fill="#252525"/>
<rect x="192" y="142" width="32" height="32" fill="#F4F4F4"/>
<rect x="224" y="142" width="32" height="32" fill="#F4F4F4"/>
<rect x="201" y="171" width="13.58" height="3" fill="#0F6FFF"/>
<path d="M209.46 162V160.356H210.672V159.516H209.46V153.624H207.96L204.456 159.468V160.356H208.5V162H209.46ZM208.44 154.404H208.5V159.516H205.404L208.44 154.404Z" fill="#252525"/>
<path d="M237.77 155.11L241.77 158.61L237.77 162.11V155.11Z" fill="black"/>
<mask id="mask0_1501_5361" style="mask-type:luminance" maskUnits="userSpaceOnUse" x="237" y="155" width="5" height="8">
<path d="M237.77 155.11L241.77 158.61L237.77 162.11V155.11Z" fill="white"/>
</mask>
<g mask="url(#mask0_1501_5361)">
<rect width="32" height="32" transform="translate(231.27 150.61)" fill="black"/>
</g>
<path d="M81.1099 155.11L77.1099 158.61L81.1099 162.11V155.11Z" fill="black"/>
<mask id="mask1_1501_5361" style="mask-type:luminance" maskUnits="userSpaceOnUse" x="77" y="155" width="5" height="8">
<path d="M81.1099 155.11L77.1099 158.61L81.1099 162.11V155.11Z" fill="white"/>
</mask>
<g mask="url(#mask1_1501_5361)">
</g>
<rect x="224" y="142" width="1" height="32" fill="#C6C6C6"/>
</g>
<defs>
<clipPath id="clip0_1501_5361">
<rect width="192" height="32" fill="white" transform="translate(64 142)"/>
</clipPath>
</defs>
</svg>
