<svg width="320" height="320" viewBox="0 0 320 320" fill="none" xmlns="http://www.w3.org/2000/svg">
<g filter="url(#filter0_d_1501_5418)">
<path fill-rule="evenodd" clip-rule="evenodd" d="M94 127H202.294V103H226V127V203H94V127Z" fill="#F3F3F3"/>
</g>
<rect opacity="0.75" x="120" y="137" width="75" height="6" fill="#A8A8A8"/>
<rect opacity="0.75" x="120" y="188" width="75" height="6" fill="#A8A8A8"/>
<rect opacity="0.6" x="94" y="153" width="132" height="25" fill="#DCDCDC"/>
<rect x="120" y="163" width="54.7619" height="6" fill="#8D8D8D"/>
<path fill-rule="evenodd" clip-rule="evenodd" d="M219.25 110.625H217.337C217.16 109.751 216.392 109.123 215.5 109.123C214.608 109.123 213.84 109.751 213.663 110.625H208.75V111.375H213.663C213.84 112.249 214.608 112.877 215.5 112.877C216.392 112.877 217.16 112.249 217.337 111.375H219.25V110.625ZM215.5 112.125C214.879 112.125 214.375 111.621 214.375 111C214.375 110.379 214.879 109.875 215.5 109.875C216.121 109.875 216.625 110.379 216.625 111C216.625 111.621 216.121 112.125 215.5 112.125ZM208.75 117.375H210.662C210.84 118.249 211.608 118.877 212.5 118.877C213.392 118.877 214.16 118.249 214.337 117.375H219.25V116.625H214.337C214.16 115.751 213.392 115.123 212.5 115.123C211.608 115.123 210.84 115.751 210.662 116.625H208.75V117.375ZM211.375 117C211.375 116.379 211.879 115.875 212.5 115.875C213.121 115.875 213.625 116.379 213.625 117C213.625 117.621 213.121 118.125 212.5 118.125C211.879 118.125 211.375 117.621 211.375 117Z" fill="black"/>
<path fill-rule="evenodd" clip-rule="evenodd" d="M110.75 135.5H103.25C102.836 135.5 102.5 135.836 102.5 136.25V143.75C102.5 144.164 102.836 144.5 103.25 144.5H110.75C111.164 144.5 111.5 144.164 111.5 143.75V136.25C111.5 135.836 111.164 135.5 110.75 135.5ZM103.25 143.75V136.25H110.75V143.75H103.25Z" fill="black"/>
<path fill-rule="evenodd" clip-rule="evenodd" d="M110.75 185.5H103.25C102.836 185.5 102.5 185.836 102.5 186.25V193.75C102.5 194.164 102.836 194.5 103.25 194.5H110.75C111.164 194.5 111.5 194.164 111.5 193.75V186.25C111.5 185.836 111.164 185.5 110.75 185.5ZM103.25 193.75V186.25H110.75V193.75H103.25Z" fill="black"/>
<rect x="102.5" y="161.5" width="9" height="9" rx="2" fill="black"/>
<mask id="mask0_1501_5418" style="mask-type:luminance" maskUnits="userSpaceOnUse" x="102" y="161" width="10" height="10">
<rect x="102.5" y="161.5" width="9" height="9" rx="2" fill="white"/>
</mask>
<g mask="url(#mask0_1501_5418)">
<rect width="12" height="12" transform="translate(101 160)" fill="black"/>
</g>
<path d="M106.25 168.062L104.375 166.202L104.971 165.614L106.25 166.881L109.029 164.125L109.625 164.718L106.25 168.062Z" fill="white"/>
<mask id="mask1_1501_5418" style="mask-type:luminance" maskUnits="userSpaceOnUse" x="104" y="164" width="6" height="5">
<path d="M106.25 168.062L104.375 166.202L104.971 165.614L106.25 166.881L109.029 164.125L109.625 164.718L106.25 168.062Z" fill="white"/>
</mask>
<g mask="url(#mask1_1501_5418)">
<rect width="12" height="12" transform="translate(101 160)" fill="white"/>
</g>
<defs>
<filter id="filter0_d_1501_5418" x="88" y="99" width="144" height="112" filterUnits="userSpaceOnUse" color-interpolation-filters="sRGB">
<feFlood flood-opacity="0" result="BackgroundImageFix"/>
<feColorMatrix in="SourceAlpha" type="matrix" values="0 0 0 0 0 0 0 0 0 0 0 0 0 0 0 0 0 0 127 0" result="hardAlpha"/>
<feOffset dy="2"/>
<feGaussianBlur stdDeviation="3"/>
<feColorMatrix type="matrix" values="0 0 0 0 0 0 0 0 0 0 0 0 0 0 0 0 0 0 0.3 0"/>
<feBlend mode="normal" in2="BackgroundImageFix" result="effect1_dropShadow_1501_5418"/>
<feBlend mode="normal" in="SourceGraphic" in2="effect1_dropShadow_1501_5418" result="shape"/>
</filter>
</defs>
</svg>
