<svg width="320" height="320" viewBox="0 0 320 320" fill="none" xmlns="http://www.w3.org/2000/svg">
<rect width="16" height="16" transform="translate(126 163)" fill="white" fill-opacity="0.01" style="mix-blend-mode:multiply"/>
<path d="M137.882 166.43L138.525 165.664C137.904 165.139 137.196 164.726 136.434 164.444L136.092 165.382C136.745 165.625 137.351 165.979 137.882 166.43Z" fill="#0F62FE"/>
<path d="M139.905 170L140.889 169.794C140.751 168.995 140.473 168.226 140.07 167.523L139.204 168C139.55 168.622 139.787 169.298 139.905 170Z" fill="#0F62FE"/>
<path d="M136.092 176.618L136.434 177.557C137.196 177.274 137.904 176.861 138.525 176.336L137.882 175.57C137.351 176.021 136.745 176.375 136.092 176.618Z" fill="#0F62FE"/>
<path d="M139.204 174L140.07 174.5C140.474 173.789 140.751 173.013 140.889 172.206L139.905 172.033C139.787 172.724 139.55 173.39 139.204 174Z" fill="#0F62FE"/>
<path d="M134 178V164C132.143 164 130.363 164.737 129.05 166.05C127.737 167.363 127 169.143 127 171C127 172.857 127.737 174.637 129.05 175.95C130.363 177.263 132.143 178 134 178Z" fill="#0F62FE"/>
<path fill-rule="evenodd" clip-rule="evenodd" d="M64 164C60.15 164 57 167.15 57 171C57 174.85 60.15 178 64 178C67.85 178 71 174.85 71 171C71 167.15 67.85 164 64 164ZM67.5 169.2L66.8 168.5L63 172.3L61.2 170.5L60.5 171.2L63 173.7L67.5 169.2ZM58 171C58 174.3 60.7 177 64 177C67.3 177 70 174.3 70 171C70 167.7 67.3 165 64 165C60.7 165 58 167.7 58 171Z" fill="black"/>
<mask id="mask0_1501_5437" style="mask-type:luminance" maskUnits="userSpaceOnUse" x="57" y="164" width="14" height="14">
<path fill-rule="evenodd" clip-rule="evenodd" d="M64 164C60.15 164 57 167.15 57 171C57 174.85 60.15 178 64 178C67.85 178 71 174.85 71 171C71 167.15 67.85 164 64 164ZM67.5 169.2L66.8 168.5L63 172.3L61.2 170.5L60.5 171.2L63 173.7L67.5 169.2ZM58 171C58 174.3 60.7 177 64 177C67.3 177 70 174.3 70 171C70 167.7 67.3 165 64 165C60.7 165 58 167.7 58 171Z" fill="white"/>
</mask>
<g mask="url(#mask0_1501_5437)">
<rect width="40" height="40" transform="translate(56 163)" fill="#0062FF"/>
</g>
<rect x="56" y="152" width="70" height="2" fill="#0062FF"/>
<rect x="126" y="152" width="69" height="2" fill="#0062FF"/>
<rect x="195" y="152" width="69" height="2" fill="#C6C6C6"/>
<rect width="16" height="16" transform="translate(126 163)" fill="white" fill-opacity="0.01" style="mix-blend-mode:multiply"/>
<path d="M137.882 166.43L138.525 165.664C137.904 165.139 137.196 164.726 136.434 164.444L136.092 165.382C136.745 165.625 137.351 165.979 137.882 166.43Z" fill="#0F62FE"/>
<path d="M139.905 170L140.889 169.794C140.751 168.995 140.473 168.226 140.07 167.523L139.204 168C139.55 168.622 139.787 169.298 139.905 170Z" fill="#0F62FE"/>
<path d="M136.092 176.618L136.434 177.557C137.196 177.274 137.904 176.861 138.525 176.336L137.882 175.57C137.351 176.021 136.745 176.375 136.092 176.618Z" fill="#0F62FE"/>
<path d="M139.204 174L140.07 174.5C140.474 173.789 140.751 173.013 140.889 172.206L139.905 172.033C139.787 172.724 139.55 173.39 139.204 174Z" fill="#0F62FE"/>
<path d="M134 178V164C132.143 164 130.363 164.737 129.05 166.05C127.737 167.363 127 169.143 127 171C127 172.857 127.737 174.637 129.05 175.95C130.363 177.263 132.143 178 134 178Z" fill="#0F62FE"/>
<rect width="16" height="16" transform="translate(195 163)" fill="white" fill-opacity="0.01" style="mix-blend-mode:multiply"/>
<path d="M198.85 165.35C198.276 165.79 197.771 166.312 197.35 166.9L198.15 167.5C198.517 166.991 198.955 166.536 199.45 166.15L198.85 165.35Z" fill="#161616"/>
<path d="M197.3 169.15L196.35 168.85C196.108 169.541 195.99 170.268 196 171H197C196.998 170.371 197.099 169.746 197.3 169.15Z" fill="#161616"/>
<path d="M196.35 173.2C196.581 173.897 196.919 174.555 197.35 175.15L198.15 174.55C197.788 174.044 197.502 173.488 197.3 172.9L196.35 173.2Z" fill="#161616"/>
<path d="M198.9 176.65C199.495 177.081 200.152 177.418 200.85 177.65L201.15 176.7C200.561 176.498 200.006 176.212 199.5 175.85L198.9 176.65Z" fill="#161616"/>
<path d="M200.85 164.35L201.15 165.3C201.746 165.099 202.371 164.998 203 165V164C202.268 163.99 201.54 164.109 200.85 164.35Z" fill="#161616"/>
<path d="M207.1 176.65C207.689 176.211 208.211 175.689 208.65 175.1L207.85 174.5C207.478 175.022 207.022 175.478 206.5 175.85L207.1 176.65Z" fill="#161616"/>
<path d="M208.7 172.85L209.65 173.15C209.867 172.454 209.985 171.73 210 171H209C209.002 171.629 208.9 172.254 208.7 172.85Z" fill="#161616"/>
<path d="M209.6 168.8C209.368 168.103 209.03 167.445 208.6 166.85L207.8 167.45C208.161 167.956 208.447 168.512 208.65 169.1L209.6 168.8Z" fill="#161616"/>
<path d="M207.05 165.3C206.454 164.869 205.797 164.532 205.1 164.3L204.8 165.25C205.388 165.452 205.943 165.739 206.45 166.1L207.05 165.3Z" fill="#161616"/>
<path d="M205.15 177.65L204.85 176.7C204.254 176.901 203.629 177.002 203 177V178C203.726 177.957 204.447 177.84 205.15 177.65Z" fill="#161616"/>
<path fill-rule="evenodd" clip-rule="evenodd" d="M64 164C60.15 164 57 167.15 57 171C57 174.85 60.15 178 64 178C67.85 178 71 174.85 71 171C71 167.15 67.85 164 64 164ZM67.5 169.2L66.8 168.5L63 172.3L61.2 170.5L60.5 171.2L63 173.7L67.5 169.2ZM58 171C58 174.3 60.7 177 64 177C67.3 177 70 174.3 70 171C70 167.7 67.3 165 64 165C60.7 165 58 167.7 58 171Z" fill="black"/>
<mask id="mask1_1501_5437" style="mask-type:luminance" maskUnits="userSpaceOnUse" x="57" y="164" width="14" height="14">
<path fill-rule="evenodd" clip-rule="evenodd" d="M64 164C60.15 164 57 167.15 57 171C57 174.85 60.15 178 64 178C67.85 178 71 174.85 71 171C71 167.15 67.85 164 64 164ZM67.5 169.2L66.8 168.5L63 172.3L61.2 170.5L60.5 171.2L63 173.7L67.5 169.2ZM58 171C58 174.3 60.7 177 64 177C67.3 177 70 174.3 70 171C70 167.7 67.3 165 64 165C60.7 165 58 167.7 58 171Z" fill="white"/>
</mask>
<g mask="url(#mask1_1501_5437)">
<rect width="40" height="40" transform="translate(56 163)" fill="#0062FF"/>
</g>
<rect x="56" y="152" width="70" height="2" fill="#0062FF"/>
<rect x="126" y="152" width="69" height="2" fill="#0062FF"/>
<rect x="195" y="152" width="69" height="2" fill="#C6C6C6"/>
</svg>
