<svg width="320" height="320" viewBox="0 0 320 320" fill="none" xmlns="http://www.w3.org/2000/svg">
<rect x="56" y="166.88" width="163" height="6" fill="#0F62FE"/>
<rect x="214" y="166.88" width="50" height="6" fill="#C6C6C6"/>
<path d="M122.408 155.88H121.448V149.688H122.408V150.828H122.468C122.684 150.24 123.248 149.688 124.256 149.688H124.628V150.648H124.064C123.032 150.648 122.408 151.092 122.408 151.68V155.88Z" fill="black"/>
<path d="M119.978 155.88H119.438C118.73 155.88 118.442 155.448 118.37 154.872H118.31C118.046 155.628 117.386 156.024 116.522 156.024C115.214 156.024 114.446 155.304 114.446 154.152C114.446 152.988 115.286 152.34 117.086 152.34H118.31V151.728C118.31 150.852 117.83 150.372 116.846 150.372C116.102 150.372 115.61 150.732 115.274 151.296L114.698 150.756C115.034 150.096 115.778 149.544 116.894 149.544C118.382 149.544 119.27 150.324 119.27 151.632V155.04H119.978V155.88ZM116.678 155.208C117.626 155.208 118.31 154.716 118.31 154.08V153.06H117.038C115.946 153.06 115.454 153.396 115.454 153.996V154.248C115.454 154.86 115.934 155.208 116.678 155.208Z" fill="black"/>
<path d="M107.877 155.88V147H108.837V150.696H108.885C109.209 149.916 109.845 149.544 110.697 149.544C112.245 149.544 113.217 150.804 113.217 152.784C113.217 154.764 112.245 156.024 110.697 156.024C109.845 156.024 109.257 155.64 108.885 154.872H108.837V155.88H107.877ZM110.433 155.16C111.513 155.16 112.185 154.416 112.185 153.312V152.256C112.185 151.152 111.513 150.408 110.433 150.408C109.557 150.408 108.837 150.912 108.837 151.596V153.9C108.837 154.704 109.557 155.16 110.433 155.16Z" fill="black"/>
<path d="M100.853 156.024C99.7133 156.024 98.9573 155.544 98.4053 154.812L99.0893 154.26C99.5693 154.86 100.145 155.208 100.925 155.208C101.741 155.208 102.221 154.836 102.221 154.2C102.221 153.72 101.957 153.348 101.141 153.228L100.649 153.156C99.5093 152.988 98.6573 152.52 98.6573 151.368C98.6573 150.144 99.6053 149.544 100.865 149.544C101.861 149.544 102.521 149.916 103.025 150.54L102.389 151.116C102.113 150.732 101.585 150.36 100.793 150.36C100.001 150.36 99.5813 150.732 99.5813 151.32C99.5813 151.92 100.001 152.16 100.769 152.28L101.249 152.352C102.617 152.556 103.145 153.156 103.145 154.092C103.145 155.292 102.269 156.024 100.853 156.024Z" fill="black"/>
<path d="M94.9763 156.024C93.8363 156.024 93.0803 155.544 92.5283 154.812L93.2123 154.26C93.6923 154.86 94.2683 155.208 95.0483 155.208C95.8643 155.208 96.3443 154.836 96.3443 154.2C96.3443 153.72 96.0803 153.348 95.2643 153.228L94.7723 153.156C93.6323 152.988 92.7803 152.52 92.7803 151.368C92.7803 150.144 93.7283 149.544 94.9883 149.544C95.9843 149.544 96.6443 149.916 97.1483 150.54L96.5123 151.116C96.2363 150.732 95.7083 150.36 94.9163 150.36C94.1243 150.36 93.7043 150.732 93.7043 151.32C93.7043 151.92 94.1243 152.16 94.8923 152.28L95.3723 152.352C96.7403 152.556 97.2683 153.156 97.2683 154.092C97.2683 155.292 96.3923 156.024 94.9763 156.024Z" fill="black"/>
<path d="M88.7586 156.024C87.0786 156.024 85.9746 154.752 85.9746 152.784C85.9746 150.816 87.0786 149.544 88.7586 149.544C90.4146 149.544 91.4346 150.816 91.4346 152.568V153.024H86.9826V153.312C86.9826 154.38 87.6666 155.184 88.8186 155.184C89.5986 155.184 90.1986 154.8 90.5226 154.116L91.2066 154.608C90.8106 155.448 89.9226 156.024 88.7586 156.024ZM88.7586 150.348C87.7146 150.348 86.9826 151.14 86.9826 152.22V152.304H90.4026V152.172C90.4026 151.08 89.7426 150.348 88.7586 150.348Z" fill="black"/>
<path d="M82.9424 155.88H81.9824V149.688H82.9424V150.828H83.0024C83.2184 150.24 83.7824 149.688 84.7904 149.688H85.1624V150.648H84.5984C83.5664 150.648 82.9424 151.092 82.9424 151.68V155.88Z" fill="black"/>
<path d="M80.7631 156.564C80.7631 157.836 79.7551 158.424 77.7631 158.424C75.8311 158.424 75.0391 157.872 75.0391 156.9C75.0391 156.228 75.4111 155.868 76.0231 155.7V155.568C75.6751 155.4 75.4711 155.124 75.4711 154.704C75.4711 154.08 75.9151 153.78 76.5391 153.624V153.576C75.8071 153.228 75.3751 152.544 75.3751 151.68C75.3751 150.42 76.2991 149.544 77.7031 149.544C78.1471 149.544 78.5431 149.628 78.8791 149.784V149.676C78.8791 149.196 79.0831 148.848 79.5991 148.848H80.5231V149.688H79.3471V150.084C79.7911 150.468 80.0551 151.02 80.0551 151.68C80.0551 152.94 79.1311 153.816 77.7151 153.816C77.5111 153.816 77.2951 153.792 77.1151 153.756C76.7071 153.864 76.2991 154.068 76.2991 154.452C76.2991 154.824 76.6831 154.92 77.2471 154.92H78.5671C80.1031 154.92 80.7631 155.544 80.7631 156.564ZM79.8631 156.636C79.8631 156.144 79.5391 155.82 78.5791 155.82H76.5151C76.1191 156 75.9391 156.276 75.9391 156.66C75.9391 157.2 76.3111 157.644 77.2831 157.644H78.1711C79.2391 157.644 79.8631 157.308 79.8631 156.636ZM77.7151 153.048C78.5311 153.048 79.0471 152.664 79.0471 151.848V151.512C79.0471 150.696 78.5311 150.312 77.7151 150.312C76.8991 150.312 76.3831 150.696 76.3831 151.512V151.848C76.3831 152.664 76.8991 153.048 77.7151 153.048Z" fill="black"/>
<path d="M71.0685 156.024C69.4125 156.024 68.2725 154.752 68.2725 152.784C68.2725 150.816 69.4125 149.544 71.0685 149.544C72.7245 149.544 73.8645 150.816 73.8645 152.784C73.8645 154.752 72.7245 156.024 71.0685 156.024ZM71.0685 155.172C72.1005 155.172 72.8325 154.536 72.8325 153.228V152.34C72.8325 151.032 72.1005 150.396 71.0685 150.396C70.0365 150.396 69.3045 151.032 69.3045 152.34V153.228C69.3045 154.536 70.0365 155.172 71.0685 155.172Z" fill="black"/>
<path d="M65.2403 155.88H64.2803V149.688H65.2403V150.828H65.3003C65.5163 150.24 66.0803 149.688 67.0883 149.688H67.4603V150.648H66.8963C65.8643 150.648 65.2403 151.092 65.2403 151.68V155.88Z" fill="black"/>
<path d="M58.1242 155.88H57.1162V147.504H60.4522C61.9522 147.504 62.7922 148.428 62.7922 149.904C62.7922 151.38 61.9522 152.304 60.4522 152.304H58.1242V155.88ZM58.1242 148.392V151.416H60.4522C61.2442 151.416 61.7122 150.984 61.7122 150.216V149.592C61.7122 148.824 61.2442 148.392 60.4522 148.392H58.1242Z" fill="black"/>
<path d="M255.711 155.88H254.787L260.595 147.504H261.519L255.711 155.88ZM255.267 152.112C254.055 152.112 253.371 151.272 253.371 149.736C253.371 148.2 254.055 147.36 255.267 147.36C256.479 147.36 257.163 148.2 257.163 149.736C257.163 151.272 256.479 152.112 255.267 152.112ZM255.267 151.488C255.963 151.488 256.299 151.008 256.299 150.096V149.376C256.299 148.464 255.963 147.984 255.267 147.984C254.571 147.984 254.235 148.464 254.235 149.376V150.096C254.235 151.008 254.571 151.488 255.267 151.488ZM261.039 156.024C259.827 156.024 259.143 155.184 259.143 153.648C259.143 152.112 259.827 151.272 261.039 151.272C262.251 151.272 262.935 152.112 262.935 153.648C262.935 155.184 262.251 156.024 261.039 156.024ZM261.039 155.4C261.735 155.4 262.071 154.92 262.071 154.008V153.288C262.071 152.376 261.735 151.896 261.039 151.896C260.343 151.896 260.007 152.376 260.007 153.288V154.008C260.007 154.92 260.343 155.4 261.039 155.4Z" fill="black"/>
<path d="M251.272 147.504V148.392H247.6L247.36 151.584H247.444C247.84 151.02 248.284 150.66 249.16 150.66C250.6 150.66 251.656 151.632 251.656 153.252C251.656 154.884 250.6 156.024 248.836 156.024C247.444 156.024 246.724 155.316 246.22 154.596L246.976 154.02C247.408 154.68 247.828 155.124 248.836 155.124C249.976 155.124 250.588 154.488 250.588 153.384V153.264C250.588 152.16 249.976 151.524 248.836 151.524C248.068 151.524 247.684 151.848 247.336 152.232L246.484 152.112L246.784 147.504H251.272Z" fill="black"/>
<path d="M241.18 155.88H240.1L243.304 148.368H239.728V149.928H238.828V147.504H244.324V148.392L241.18 155.88Z" fill="black"/>
</svg>
