<svg width="320" height="320" viewBox="0 0 320 320" fill="none" xmlns="http://www.w3.org/2000/svg">
<path fill-rule="evenodd" clip-rule="evenodd" d="M211.448 162H64.5522C64.2472 162 64 161.552 64 161C64 160.448 64.2472 160 64.5522 160H211.448C211.753 160 212 160.448 212 161C212 161.552 211.753 162 211.448 162Z" fill="#C6C6C6"/>
<path fill-rule="evenodd" clip-rule="evenodd" d="M57.1538 160H101V162H57.1538C56.5166 162 56 161.552 56 161C56 160.448 56.5166 160 57.1538 160Z" fill="#3D3D3D"/>
<circle cx="106" cy="161" r="7" fill="#3D3D3D"/>
<rect x="138" y="155" width="2" height="4" fill="#BEBEBE"/>
<rect x="222" y="144" width="42" height="32" fill="#F3F3F3"/>
<rect x="234" y="157" width="18" height="6" fill="#8D8D8D"/>
<path d="M222 176H264" stroke="#8C8C8C"/>
</svg>
