<svg width="320" height="320" viewBox="0 0 320 320" fill="none" xmlns="http://www.w3.org/2000/svg">
<path d="M191.531 127.625V122H190.275V127.625H184.623V128.875H190.275V134.5H191.531V128.875H197.183V127.625H191.531Z" fill="white"/>
<path fill-rule="evenodd" clip-rule="evenodd" d="M55 112H263V136H55V112Z" fill="#F3F3F3"/>
<path fill-rule="evenodd" clip-rule="evenodd" d="M55 136H263V160H55V136Z" fill="#F3F3F3"/>
<path fill-rule="evenodd" clip-rule="evenodd" d="M55 160H263V184H55V160Z" fill="#E0E0E0"/>
<rect x="69.0679" y="170" width="24.1159" height="4" fill="#8D8D8D"/>
<rect x="107.251" y="170" width="24.1159" height="4" fill="#8D8D8D"/>
<rect x="145.435" y="170" width="79.3816" height="4" fill="#8D8D8D"/>
<rect x="56.0049" y="135" width="207.995" height="1" fill="#C6C6C6"/>
<path fill-rule="evenodd" clip-rule="evenodd" d="M55 184H263V208H55V184Z" fill="#F3F3F3"/>
<rect x="69.0679" y="123" width="24.1159" height="4" fill="#8D8D8D"/>
<rect opacity="0.75" x="69.0679" y="146" width="24.1159" height="4" fill="#A8A8A8"/>
<rect opacity="0.75" x="69.0679" y="194" width="24.1159" height="4" fill="#A8A8A8"/>
<rect x="107.251" y="123" width="24.1159" height="4" fill="#8D8D8D"/>
<rect opacity="0.75" x="107.251" y="146" width="24.1159" height="4" fill="#A8A8A8"/>
<rect opacity="0.75" x="107.251" y="194" width="24.1159" height="3" fill="#A8A8A8"/>
<rect x="145.435" y="123" width="24.1159" height="4" fill="#8D8D8D"/>
<rect opacity="0.75" x="145.435" y="146" width="79.3816" height="4" fill="#A8A8A8"/>
<rect opacity="0.75" x="145.435" y="194" width="79.3816" height="4" fill="#A8A8A8"/>
<circle cx="245" cy="172" r="5.25" fill="black"/>
<mask id="mask0_1501_6723" style="mask-type:luminance" maskUnits="userSpaceOnUse" x="239" y="166" width="12" height="12">
<circle cx="245" cy="172" r="5.25" fill="white"/>
</mask>
<g mask="url(#mask0_1501_6723)">
<rect width="12" height="12" transform="translate(239 166)" fill="#13171A"/>
</g>
<path d="M244.25 174.063L242.375 172.188L242.971 171.625L244.25 172.881L247.029 170.125L247.625 170.718L244.25 174.063Z" fill="white"/>
<mask id="mask1_1501_6723" style="mask-type:luminance" maskUnits="userSpaceOnUse" x="242" y="170" width="6" height="5">
<path d="M244.25 174.063L242.375 172.188L242.971 171.625L244.25 172.881L247.029 170.125L247.625 170.718L244.25 174.063Z" fill="white"/>
</mask>
<g mask="url(#mask1_1501_6723)">
<rect width="12" height="12" transform="translate(239 166)" fill="white"/>
</g>
</svg>
