<svg width="320" height="320" viewBox="0 0 320 320" fill="none" xmlns="http://www.w3.org/2000/svg">
<path d="M191.531 127.625V122H190.275V127.625H184.623V128.875H190.275V134.5H191.531V128.875H197.183V127.625H191.531V127.625Z" fill="white"/>
<path fill-rule="evenodd" clip-rule="evenodd" d="M55 112H263V136H55V112Z" fill="#F3F3F3"/>
<path fill-rule="evenodd" clip-rule="evenodd" d="M55 136H263V160H55V136Z" fill="#F3F3F3"/>
<path fill-rule="evenodd" clip-rule="evenodd" d="M55 160H263V184H55V160Z" fill="#E0E0E0"/>
<rect x="69.0679" y="170" width="24.1159" height="4" fill="#8D8D8D"/>
<rect x="107.251" y="170" width="24.1159" height="4" fill="#8D8D8D"/>
<rect x="145.435" y="170" width="79.3816" height="4" fill="#8D8D8D"/>
<rect x="56.0049" y="135" width="207.995" height="1" fill="#C6C6C6"/>
<path fill-rule="evenodd" clip-rule="evenodd" d="M55 184H263V208H55V184Z" fill="#F3F3F3"/>
<rect x="69.0679" y="123" width="24.1159" height="4" fill="#8D8D8D"/>
<rect opacity="0.75" x="69.0679" y="146" width="24.1159" height="4" fill="#A8A8A8"/>
<rect opacity="0.75" x="69.0679" y="194" width="24.1159" height="4" fill="#A8A8A8"/>
<rect x="107.251" y="123" width="24.1159" height="4" fill="#8D8D8D"/>
<rect opacity="0.75" x="107.251" y="146" width="24.1159" height="4" fill="#A8A8A8"/>
<rect opacity="0.75" x="107.251" y="194" width="24.1159" height="3" fill="#A8A8A8"/>
<rect x="145.435" y="123" width="24.1159" height="4" fill="#8D8D8D"/>
<rect opacity="0.75" x="145.435" y="146" width="79.3816" height="4" fill="#A8A8A8"/>
<rect opacity="0.75" x="145.435" y="194" width="79.3816" height="4" fill="#A8A8A8"/>
<g clip-path="url(#clip0_1536_3910)">
<rect width="12" height="12" transform="translate(239 166)" fill="white" fill-opacity="0.01" style="mix-blend-mode:multiply"/>
<path d="M245 166.75C243.962 166.75 242.947 167.058 242.083 167.635C241.22 168.212 240.547 169.032 240.15 169.991C239.752 170.95 239.648 172.006 239.851 173.024C240.053 174.043 240.553 174.978 241.288 175.712C242.022 176.447 242.957 176.947 243.976 177.149C244.994 177.352 246.05 177.248 247.009 176.85C247.968 176.453 248.788 175.78 249.365 174.917C249.942 174.053 250.25 173.038 250.25 172C250.25 170.608 249.697 169.272 248.712 168.288C247.728 167.303 246.392 166.75 245 166.75ZM245 176.5C244.11 176.5 243.24 176.236 242.5 175.742C241.76 175.247 241.183 174.544 240.843 173.722C240.502 172.9 240.413 171.995 240.586 171.122C240.76 170.249 241.189 169.447 241.818 168.818C242.447 168.189 243.249 167.76 244.122 167.586C244.995 167.413 245.9 167.502 246.722 167.843C247.544 168.183 248.247 168.76 248.742 169.5C249.236 170.24 249.5 171.11 249.5 172C249.5 173.193 249.026 174.338 248.182 175.182C247.338 176.026 246.193 176.5 245 176.5Z" fill="#161616"/>
<path d="M245 169.75C244.555 169.75 244.12 169.882 243.75 170.129C243.38 170.376 243.092 170.728 242.921 171.139C242.751 171.55 242.706 172.002 242.793 172.439C242.88 172.875 243.094 173.276 243.409 173.591C243.724 173.906 244.125 174.12 244.561 174.207C244.998 174.294 245.45 174.249 245.861 174.079C246.272 173.908 246.624 173.62 246.871 173.25C247.118 172.88 247.25 172.445 247.25 172C247.25 171.403 247.013 170.831 246.591 170.409C246.169 169.987 245.597 169.75 245 169.75Z" fill="#161616"/>
</g>
<g clip-path="url(#clip1_1536_3910)">
<rect width="12" height="12" transform="translate(239 142)" fill="white" fill-opacity="0.01" style="mix-blend-mode:multiply"/>
<path d="M245 142.75C243.962 142.75 242.947 143.058 242.083 143.635C241.22 144.212 240.547 145.032 240.15 145.991C239.752 146.95 239.648 148.006 239.851 149.024C240.053 150.043 240.553 150.978 241.288 151.712C242.022 152.447 242.957 152.947 243.976 153.149C244.994 153.352 246.05 153.248 247.009 152.85C247.968 152.453 248.788 151.78 249.365 150.917C249.942 150.053 250.25 149.038 250.25 148C250.25 146.608 249.697 145.272 248.712 144.288C247.728 143.303 246.392 142.75 245 142.75V142.75ZM245 152.5C244.11 152.5 243.24 152.236 242.5 151.742C241.76 151.247 241.183 150.544 240.843 149.722C240.502 148.9 240.413 147.995 240.586 147.122C240.76 146.249 241.189 145.447 241.818 144.818C242.447 144.189 243.249 143.76 244.122 143.586C244.995 143.413 245.9 143.502 246.722 143.843C247.544 144.183 248.247 144.76 248.742 145.5C249.236 146.24 249.5 147.11 249.5 148C249.5 149.193 249.026 150.338 248.182 151.182C247.338 152.026 246.193 152.5 245 152.5Z" fill="#161616"/>
</g>
<g clip-path="url(#clip2_1536_3910)">
<rect width="12" height="12" transform="translate(239 190)" fill="white" fill-opacity="0.01" style="mix-blend-mode:multiply"/>
<path d="M245 190.75C243.962 190.75 242.947 191.058 242.083 191.635C241.22 192.212 240.547 193.032 240.15 193.991C239.752 194.95 239.648 196.006 239.851 197.024C240.053 198.043 240.553 198.978 241.288 199.712C242.022 200.447 242.957 200.947 243.976 201.149C244.994 201.352 246.05 201.248 247.009 200.85C247.968 200.453 248.788 199.78 249.365 198.917C249.942 198.053 250.25 197.038 250.25 196C250.25 194.608 249.697 193.272 248.712 192.288C247.728 191.303 246.392 190.75 245 190.75V190.75ZM245 200.5C244.11 200.5 243.24 200.236 242.5 199.742C241.76 199.247 241.183 198.544 240.843 197.722C240.502 196.9 240.413 195.995 240.586 195.122C240.76 194.249 241.189 193.447 241.818 192.818C242.447 192.189 243.249 191.76 244.122 191.586C244.995 191.413 245.9 191.502 246.722 191.843C247.544 192.183 248.247 192.76 248.742 193.5C249.236 194.24 249.5 195.11 249.5 196C249.5 197.193 249.026 198.338 248.182 199.182C247.338 200.026 246.193 200.5 245 200.5Z" fill="#161616"/>
</g>
<defs>
<clipPath id="clip0_1536_3910">
<rect width="12" height="12" fill="white" transform="translate(239 166)"/>
</clipPath>
<clipPath id="clip1_1536_3910">
<rect width="12" height="12" fill="white" transform="translate(239 142)"/>
</clipPath>
<clipPath id="clip2_1536_3910">
<rect width="12" height="12" fill="white" transform="translate(239 190)"/>
</clipPath>
</defs>
</svg>
