<svg width="320" height="320" viewBox="0 0 320 320" fill="none" xmlns="http://www.w3.org/2000/svg">
<path d="M191.531 127.625V122H190.275V127.625H184.623V128.875H190.275V134.5H191.531V128.875H197.183V127.625H191.531Z" fill="white"/>
<path fill-rule="evenodd" clip-rule="evenodd" d="M55 112H263V136H55V112Z" fill="#F3F3F3"/>
<path fill-rule="evenodd" clip-rule="evenodd" d="M55 136H263V160H55V136Z" fill="#F3F3F3"/>
<path fill-rule="evenodd" clip-rule="evenodd" d="M55 160H263V184H55V160Z" fill="#E0E0E0"/>
<rect x="56.0049" y="135" width="207.995" height="1" fill="#C6C6C6"/>
<path fill-rule="evenodd" clip-rule="evenodd" d="M55 184H263V208H55V184Z" fill="#F3F3F3"/>
<rect x="95" y="123" width="24.1159" height="4" fill="#8D8D8D"/>
<rect x="133.116" y="123" width="24.1159" height="4" fill="#8D8D8D"/>
<rect x="171.232" y="123" width="24.1159" height="4" fill="#8D8D8D"/>
<g clip-path="url(#clip0_1536_3910)">
<rect width="12" height="12" transform="translate(69 142)" fill="white" fill-opacity="0.01" style="mix-blend-mode:multiply"/>
<path d="M75 142.75C73.9617 142.75 72.9466 143.058 72.0833 143.635C71.2199 144.212 70.547 145.032 70.1496 145.991C69.7523 146.95 69.6483 148.006 69.8509 149.024C70.0535 150.043 70.5535 150.978 71.2877 151.712C72.0219 152.447 72.9574 152.947 73.9758 153.149C74.9942 153.352 76.0498 153.248 77.0091 152.85C77.9684 152.453 78.7883 151.78 79.3652 150.917C79.9421 150.053 80.25 149.038 80.25 148C80.25 146.608 79.6969 145.272 78.7123 144.288C77.7277 143.303 76.3924 142.75 75 142.75V142.75ZM75 152.5C74.11 152.5 73.24 152.236 72.4999 151.742C71.7599 151.247 71.1831 150.544 70.8425 149.722C70.502 148.9 70.4128 147.995 70.5865 147.122C70.7601 146.249 71.1887 145.447 71.818 144.818C72.4474 144.189 73.2492 143.76 74.1221 143.586C74.995 143.413 75.8998 143.502 76.7221 143.843C77.5443 144.183 78.2471 144.76 78.7416 145.5C79.2361 146.24 79.5 147.11 79.5 148C79.5 149.193 79.0259 150.338 78.182 151.182C77.3381 152.026 76.1935 152.5 75 152.5Z" fill="#161616"/>
</g>
<rect opacity="0.75" x="95" y="146" width="24.1159" height="4" fill="#A8A8A8"/>
<rect opacity="0.75" x="133.116" y="146" width="24.1159" height="4" fill="#A8A8A8"/>
<rect opacity="0.75" x="171.232" y="146" width="79.3816" height="4" fill="#A8A8A8"/>
<g clip-path="url(#clip1_1536_3910)">
<rect width="12" height="12" transform="translate(69.0679 166)" fill="white" fill-opacity="0.01" style="mix-blend-mode:multiply"/>
<path d="M75.0679 166.75C74.0295 166.75 73.0145 167.058 72.1511 167.635C71.2878 168.212 70.6149 169.032 70.2175 169.991C69.8201 170.95 69.7162 172.006 69.9188 173.024C70.1213 174.043 70.6213 174.978 71.3556 175.712C72.0898 176.447 73.0252 176.947 74.0436 177.149C75.062 177.352 76.1176 177.248 77.077 176.85C78.0363 176.453 78.8562 175.78 79.4331 174.917C80.01 174.053 80.3179 173.038 80.3179 172C80.3179 170.608 79.7647 169.272 78.7802 168.288C77.7956 167.303 76.4603 166.75 75.0679 166.75ZM75.0679 176.5C74.1779 176.5 73.3078 176.236 72.5678 175.742C71.8278 175.247 71.251 174.544 70.9104 173.722C70.5698 172.9 70.4807 171.995 70.6543 171.122C70.828 170.249 71.2566 169.447 71.8859 168.818C72.5152 168.189 73.3171 167.76 74.19 167.586C75.0629 167.413 75.9677 167.502 76.7899 167.843C77.6122 168.183 78.315 168.76 78.8095 169.5C79.304 170.24 79.5679 171.11 79.5679 172C79.5679 173.193 79.0938 174.338 78.2499 175.182C77.4059 176.026 76.2613 176.5 75.0679 176.5Z" fill="#161616"/>
<path d="M75.0679 169.75C74.6229 169.75 74.1879 169.882 73.8178 170.129C73.4478 170.376 73.1594 170.728 72.9891 171.139C72.8188 171.55 72.7743 172.002 72.8611 172.439C72.9479 172.875 73.1622 173.276 73.4769 173.591C73.7916 173.906 74.1925 174.12 74.6289 174.207C75.0654 174.294 75.5178 174.249 75.9289 174.079C76.34 173.908 76.6914 173.62 76.9387 173.25C77.1859 172.88 77.3179 172.445 77.3179 172C77.3179 171.403 77.0808 170.831 76.6589 170.409C76.2369 169.987 75.6646 169.75 75.0679 169.75Z" fill="#161616"/>
</g>
<rect x="95.0679" y="170" width="24.1159" height="4" fill="#8D8D8D"/>
<rect x="133.184" y="170" width="24.1159" height="4" fill="#8D8D8D"/>
<rect x="171.3" y="170" width="79.3816" height="4" fill="#8D8D8D"/>
<g clip-path="url(#clip2_1536_3910)">
<rect width="12" height="12" transform="translate(69.0679 190)" fill="white" fill-opacity="0.01" style="mix-blend-mode:multiply"/>
<path d="M75.0679 190.75C74.0295 190.75 73.0145 191.058 72.1511 191.635C71.2878 192.212 70.6149 193.032 70.2175 193.991C69.8201 194.95 69.7162 196.006 69.9188 197.024C70.1213 198.043 70.6213 198.978 71.3556 199.712C72.0898 200.447 73.0252 200.947 74.0436 201.149C75.062 201.352 76.1176 201.248 77.077 200.85C78.0363 200.453 78.8562 199.78 79.4331 198.917C80.01 198.053 80.3179 197.038 80.3179 196C80.3179 194.608 79.7647 193.272 78.7802 192.288C77.7956 191.303 76.4603 190.75 75.0679 190.75V190.75ZM75.0679 200.5C74.1779 200.5 73.3078 200.236 72.5678 199.742C71.8278 199.247 71.251 198.544 70.9104 197.722C70.5698 196.9 70.4807 195.995 70.6543 195.122C70.828 194.249 71.2566 193.447 71.8859 192.818C72.5152 192.189 73.3171 191.76 74.19 191.586C75.0629 191.413 75.9677 191.502 76.7899 191.843C77.6122 192.183 78.315 192.76 78.8095 193.5C79.304 194.24 79.5679 195.11 79.5679 196C79.5679 197.193 79.0938 198.338 78.2499 199.182C77.4059 200.026 76.2613 200.5 75.0679 200.5Z" fill="#161616"/>
</g>
<rect opacity="0.75" x="95.0679" y="194" width="24.1159" height="4" fill="#A8A8A8"/>
<rect opacity="0.75" x="133.184" y="194" width="24" height="4" fill="#A8A8A8"/>
<rect opacity="0.75" x="171.184" y="194" width="79.3816" height="4" fill="#A8A8A8"/>
<defs>
<clipPath id="clip0_1536_3910">
<rect width="12" height="12" fill="white" transform="translate(69 142)"/>
</clipPath>
<clipPath id="clip1_1536_3910">
<rect width="12" height="12" fill="white" transform="translate(69.0679 166)"/>
</clipPath>
<clipPath id="clip2_1536_3910">
<rect width="12" height="12" fill="white" transform="translate(69.0679 190)"/>
</clipPath>
</defs>
</svg>
