<svg width="320" height="320" viewBox="0 0 320 320" fill="none" xmlns="http://www.w3.org/2000/svg">
<rect x="56" y="125" width="43" height="21" rx="10.5" fill="#FFF0F1" stroke="#FFB3B8"/>
<rect x="103" y="125" width="63" height="21" rx="10.5" fill="#FFF0F6" stroke="#FFAFD2"/>
<path fill-rule="evenodd" clip-rule="evenodd" d="M56 160.5C56 154.701 60.701 150 66.5 150H90.5C96.299 150 101 154.701 101 160.5C101 166.299 96.299 171 90.5 171H66.5C60.701 171 56 166.299 56 160.5Z" fill="#EDF4FF" stroke="#A6C8FF"/>
<path fill-rule="evenodd" clip-rule="evenodd" d="M105 160.5C105 154.701 109.701 150 115.5 150H139.5C145.299 150 150 154.701 150 160.5C150 166.299 145.299 171 139.5 171H115.5C109.701 171 105 166.299 105 160.5Z" fill="#E3F6FF" stroke="#82CFFF"/>
<rect x="154" y="150" width="45" height="21" rx="10.5" fill="#DBFBFB" stroke="#3DDBD9"/>
<path fill-rule="evenodd" clip-rule="evenodd" d="M56 185.5C56 179.701 60.701 175 66.5 175H117.5C123.299 175 128 179.701 128 185.5C128 191.299 123.299 196 117.5 196H66.5C60.701 196 56 191.299 56 185.5Z" fill="#F2F4F8" stroke="#C1C7CD"/>
<path fill-rule="evenodd" clip-rule="evenodd" d="M132 185.5C132 179.701 136.701 175 142.5 175H200.5C206.299 175 211 179.701 211 185.5C211 191.299 206.299 196 200.5 196H142.5C136.701 196 132 191.299 132 185.5Z" fill="#F7F3F1" stroke="#CAC5C4"/>
<rect x="64" y="134" width="27" height="4" fill="#DA1E28"/>
<rect x="111" y="134" width="47" height="4" fill="#D12765"/>
<rect x="64" y="159" width="29" height="4" fill="#0062FF"/>
<rect x="113" y="159" width="29" height="4" fill="#0072C3"/>
<rect x="64" y="184" width="56" height="4" fill="#13171A"/>
<rect x="140" y="184" width="63" height="4" fill="#1A1717"/>
<rect x="170" y="125" width="55" height="21" rx="10.5" fill="#F7F1FF" stroke="#D4BBFF"/>
<rect x="203" y="150" width="61" height="21" rx="10.5" fill="#DAFBE4" stroke="#6FDC8C"/>
<rect x="177" y="134" width="40" height="4" fill="#8A3FFC"/>
<rect x="211" y="159" width="44" height="4" fill="#198038"/>
<rect x="162" y="159" width="28" height="4" fill="#007D79"/>
</svg>
