<svg xmlns="http://www.w3.org/2000/svg" xmlns:xlink="http://www.w3.org/1999/xlink" width="320" height="180"><defs><path id="a" d="M7.031 8.906V4.687H5.156v.938h.938v3.281H4.687v.938h3.75v-.938H7.032Zm-.468-6.562a.703.703 0 1 0 0 1.406.703.703 0 0 0 0-1.406Zm0 10.781a6.562 6.562 0 1 1 6.562-6.563 6.57 6.57 0 0 1-6.563 6.563Zm0-12.188a5.625 5.625 0 1 0 5.625 5.625A5.631 5.631 0 0 0 6.561.938Z"/></defs><g fill="none" fill-rule="evenodd"><path fill="#3D3D3D" d="M71.5 129.6a1.5 1.5 0 0 1-1.5-1.5v-67a1.5 1.5 0 0 1 1.5-1.5h81.851l4.549-5.2 4.549 5.2H244.5a1.5 1.5 0 0 1 1.5 1.5v67a1.5 1.5 0 0 1-1.5 1.5h-173Z"/><g transform="translate(150.938 32.938)"><mask id="b" fill="#fff"><use xlink:href="#a"/></mask><use xlink:href="#a" fill="#000" fill-rule="nonzero"/><g mask="url(#b)"><path fill="#161616" d="M-.938-.938h37.5v37.5h-37.5z"/></g></g><path d="M150 32h15v15h-15z"/><path fill="#BEBEBE" d="M82 73h115v5H82zM82 83h87v5H82z"/><path fill="#78A9FF" d="M82 109h48v5H82z"/><path fill="#0F62FE" d="M174 103h63v17h-63z"/><path d="M93 130h19v18H93z"/></g></svg>