<svg width="320" height="320" viewBox="0 0 320 320" fill="none" xmlns="http://www.w3.org/2000/svg">
<path fill-rule="evenodd" clip-rule="evenodd" d="M246.5 194C247.328 194 248 193.328 248 192.5V131.1C248 130.272 247.328 129.6 246.5 129.6H164.45L159.9 124.4L155.35 129.6L73.5 129.6C72.6716 129.6 72 130.272 72 131.1V192.5C72 193.328 72.6716 194 73.5 194L246.5 194Z" fill="#3D3D3D"/>
<path fill-rule="evenodd" clip-rule="evenodd" d="M159.5 116.062C155.876 116.062 152.938 113.124 152.938 109.5C152.938 105.876 155.876 102.938 159.5 102.938C163.124 102.938 166.062 105.876 166.062 109.5C166.058 113.123 163.123 116.058 159.5 116.062ZM158.797 105.984C158.797 105.596 159.112 105.281 159.5 105.281C159.888 105.281 160.203 105.596 160.203 105.984C160.203 106.373 159.888 106.688 159.5 106.688C159.112 106.688 158.797 106.373 158.797 105.984ZM159.969 107.625V111.844H161.375V112.781H157.625V111.844H159.031V108.562H158.094V107.625H159.969ZM153.875 109.5C153.875 106.393 156.393 103.875 159.5 103.875C162.605 103.878 165.122 106.395 165.125 109.5C165.125 112.607 162.607 115.125 159.5 115.125C156.393 115.125 153.875 112.607 153.875 109.5Z" fill="black"/>
<mask id="mask0_1501_6958" style="mask-type:luminance" maskUnits="userSpaceOnUse" x="152" y="102" width="15" height="15">
<path fill-rule="evenodd" clip-rule="evenodd" d="M159.5 116.062C155.876 116.062 152.938 113.124 152.938 109.5C152.938 105.876 155.876 102.938 159.5 102.938C163.124 102.938 166.062 105.876 166.062 109.5C166.058 113.123 163.123 116.058 159.5 116.062ZM158.797 105.984C158.797 105.596 159.112 105.281 159.5 105.281C159.888 105.281 160.203 105.596 160.203 105.984C160.203 106.373 159.888 106.688 159.5 106.688C159.112 106.688 158.797 106.373 158.797 105.984ZM159.969 107.625V111.844H161.375V112.781H157.625V111.844H159.031V108.562H158.094V107.625H159.969ZM153.875 109.5C153.875 106.393 156.393 103.875 159.5 103.875C162.605 103.878 165.122 106.395 165.125 109.5C165.125 112.607 162.607 115.125 159.5 115.125C156.393 115.125 153.875 112.607 153.875 109.5Z" fill="white"/>
</mask>
<g mask="url(#mask0_1501_6958)">
<rect x="152" y="102" width="37.5" height="37.5" fill="#161616"/>
</g>
<rect x="85" y="144" width="115" height="4" fill="#BEBEBE"/>
<rect x="85" y="153" width="87" height="4" fill="#BEBEBE"/>
<rect x="85" y="179" width="46" height="4" fill="#78A9FF"/>
<rect x="187" y="172" width="53" height="14" fill="#0F62FE"/>
</svg>
