<svg width="320" height="320" viewBox="0 0 320 320" fill="none" xmlns="http://www.w3.org/2000/svg">
<path fill-rule="evenodd" clip-rule="evenodd" d="M107.281 112.656L110.531 115.5L107.281 118.344V112.656Z" fill="black"/>
<mask id="mask0_1501_7088" style="mask-type:luminance" maskUnits="userSpaceOnUse" x="107" y="112" width="4" height="7">
<path fill-rule="evenodd" clip-rule="evenodd" d="M107.281 112.656L110.531 115.5L107.281 118.344V112.656Z" fill="white"/>
</mask>
<g mask="url(#mask0_1501_7088)">
</g>
<path fill-rule="evenodd" clip-rule="evenodd" d="M107.281 184.656L110.531 187.5L107.281 190.344V184.656Z" fill="black"/>
<mask id="mask1_1501_7088" style="mask-type:luminance" maskUnits="userSpaceOnUse" x="107" y="184" width="4" height="7">
<path fill-rule="evenodd" clip-rule="evenodd" d="M107.281 184.656L110.531 187.5L107.281 190.344V184.656Z" fill="white"/>
</mask>
<g mask="url(#mask1_1501_7088)">
</g>
<path fill-rule="evenodd" clip-rule="evenodd" d="M107.281 202.656L110.531 205.5L107.281 208.344V202.656Z" fill="black"/>
<mask id="mask2_1501_7088" style="mask-type:luminance" maskUnits="userSpaceOnUse" x="107" y="202" width="4" height="7">
<path fill-rule="evenodd" clip-rule="evenodd" d="M107.281 202.656L110.531 205.5L107.281 208.344V202.656Z" fill="white"/>
</mask>
<g mask="url(#mask2_1501_7088)">
</g>
<path fill-rule="evenodd" clip-rule="evenodd" d="M111.344 133.281L108.5 136.531L105.656 133.281H111.344Z" fill="black"/>
<mask id="mask3_1501_7088" style="mask-type:luminance" maskUnits="userSpaceOnUse" x="105" y="133" width="7" height="4">
<path fill-rule="evenodd" clip-rule="evenodd" d="M111.344 133.281L108.5 136.531L105.656 133.281H111.344Z" fill="white"/>
</mask>
<g mask="url(#mask3_1501_7088)">
</g>
<rect x="132" y="113" width="65" height="4" fill="#8D8D8D"/>
<rect x="132" y="185" width="65" height="4" fill="#8D8D8D"/>
<rect x="132" y="203" width="65" height="4" fill="#8D8D8D"/>
<rect x="132" y="131" width="65" height="4" fill="#8D8D8D"/>
<rect x="151" y="149" width="66" height="4" fill="#8D8D8D"/>
<rect x="151" y="167" width="66" height="4" fill="#8D8D8D"/>
<path fill-rule="evenodd" clip-rule="evenodd" d="M118.601 111.062C118.711 111.063 118.814 111.115 118.879 111.203L119.575 112.156L119.781 112.438H124.572C124.604 112.441 124.627 112.468 124.625 112.5V117.875C124.627 117.907 124.604 117.934 124.572 117.938H116.428C116.396 117.934 116.373 117.907 116.375 117.875V111.125C116.373 111.093 116.396 111.066 116.428 111.062H118.601ZM118.601 110.375H116.428C116.016 110.378 115.685 110.713 115.688 111.125V117.875C115.685 118.287 116.016 118.622 116.428 118.625H124.572C124.984 118.622 125.315 118.287 125.313 117.875V112.5C125.315 112.088 124.984 111.753 124.572 111.75H120.13L119.434 110.798C119.24 110.532 118.93 110.375 118.601 110.375Z" fill="black"/>
<mask id="mask4_1501_7088" style="mask-type:luminance" maskUnits="userSpaceOnUse" x="115" y="110" width="11" height="9">
<path fill-rule="evenodd" clip-rule="evenodd" d="M118.601 111.062C118.711 111.063 118.814 111.115 118.879 111.203L119.575 112.156L119.781 112.438H124.572C124.604 112.441 124.627 112.468 124.625 112.5V117.875C124.627 117.907 124.604 117.934 124.572 117.938H116.428C116.396 117.934 116.373 117.907 116.375 117.875V111.125C116.373 111.093 116.396 111.066 116.428 111.062H118.601ZM118.601 110.375H116.428C116.016 110.378 115.685 110.713 115.688 111.125V117.875C115.685 118.287 116.016 118.622 116.428 118.625H124.572C124.984 118.622 125.315 118.287 125.313 117.875V112.5C125.315 112.088 124.984 111.753 124.572 111.75H120.13L119.434 110.798C119.24 110.532 118.93 110.375 118.601 110.375Z" fill="white"/>
</mask>
<g mask="url(#mask4_1501_7088)">
</g>
<path fill-rule="evenodd" clip-rule="evenodd" d="M118.601 183.062C118.711 183.063 118.814 183.115 118.879 183.203L119.575 184.156L119.781 184.438H124.572C124.604 184.441 124.627 184.468 124.625 184.5V189.875C124.627 189.907 124.604 189.934 124.572 189.938H116.428C116.396 189.934 116.373 189.907 116.375 189.875V183.125C116.373 183.093 116.396 183.066 116.428 183.062H118.601ZM118.601 182.375H116.428C116.016 182.378 115.685 182.713 115.688 183.125V189.875C115.685 190.287 116.016 190.622 116.428 190.625H124.572C124.984 190.622 125.315 190.287 125.313 189.875V184.5C125.315 184.088 124.984 183.753 124.572 183.75H120.13L119.434 182.798C119.24 182.532 118.93 182.375 118.601 182.375Z" fill="black"/>
<mask id="mask5_1501_7088" style="mask-type:luminance" maskUnits="userSpaceOnUse" x="115" y="182" width="11" height="9">
<path fill-rule="evenodd" clip-rule="evenodd" d="M118.601 183.062C118.711 183.063 118.814 183.115 118.879 183.203L119.575 184.156L119.781 184.438H124.572C124.604 184.441 124.627 184.468 124.625 184.5V189.875C124.627 189.907 124.604 189.934 124.572 189.938H116.428C116.396 189.934 116.373 189.907 116.375 189.875V183.125C116.373 183.093 116.396 183.066 116.428 183.062H118.601ZM118.601 182.375H116.428C116.016 182.378 115.685 182.713 115.688 183.125V189.875C115.685 190.287 116.016 190.622 116.428 190.625H124.572C124.984 190.622 125.315 190.287 125.313 189.875V184.5C125.315 184.088 124.984 183.753 124.572 183.75H120.13L119.434 182.798C119.24 182.532 118.93 182.375 118.601 182.375Z" fill="white"/>
</mask>
<g mask="url(#mask5_1501_7088)">
</g>
<path fill-rule="evenodd" clip-rule="evenodd" d="M118.601 201.062C118.711 201.063 118.814 201.115 118.879 201.203L119.575 202.156L119.781 202.438H124.572C124.604 202.441 124.627 202.468 124.625 202.5V207.875C124.627 207.907 124.604 207.934 124.572 207.938H116.428C116.396 207.934 116.373 207.907 116.375 207.875V201.125C116.373 201.093 116.396 201.066 116.428 201.062H118.601ZM118.601 200.375H116.428C116.016 200.378 115.685 200.713 115.688 201.125V207.875C115.685 208.287 116.016 208.622 116.428 208.625H124.572C124.984 208.622 125.315 208.287 125.313 207.875V202.5C125.315 202.088 124.984 201.753 124.572 201.75H120.13L119.434 200.798C119.24 200.532 118.93 200.375 118.601 200.375Z" fill="black"/>
<mask id="mask6_1501_7088" style="mask-type:luminance" maskUnits="userSpaceOnUse" x="115" y="200" width="11" height="9">
<path fill-rule="evenodd" clip-rule="evenodd" d="M118.601 201.062C118.711 201.063 118.814 201.115 118.879 201.203L119.575 202.156L119.781 202.438H124.572C124.604 202.441 124.627 202.468 124.625 202.5V207.875C124.627 207.907 124.604 207.934 124.572 207.938H116.428C116.396 207.934 116.373 207.907 116.375 207.875V201.125C116.373 201.093 116.396 201.066 116.428 201.062H118.601ZM118.601 200.375H116.428C116.016 200.378 115.685 200.713 115.688 201.125V207.875C115.685 208.287 116.016 208.622 116.428 208.625H124.572C124.984 208.622 125.315 208.287 125.313 207.875V202.5C125.315 202.088 124.984 201.753 124.572 201.75H120.13L119.434 200.798C119.24 200.532 118.93 200.375 118.601 200.375Z" fill="white"/>
</mask>
<g mask="url(#mask6_1501_7088)">
</g>
<path fill-rule="evenodd" clip-rule="evenodd" d="M118.601 130.062C118.711 130.063 118.814 130.115 118.879 130.203L119.575 131.156L119.781 131.438H124.572C124.604 131.441 124.627 131.468 124.625 131.5V136.875C124.627 136.907 124.604 136.934 124.572 136.938H116.428C116.396 136.934 116.373 136.907 116.375 136.875V130.125C116.373 130.093 116.396 130.066 116.428 130.062H118.601ZM118.601 129.375H116.428C116.016 129.378 115.685 129.713 115.688 130.125V136.875C115.685 137.287 116.016 137.622 116.428 137.625H124.572C124.984 137.622 125.315 137.287 125.313 136.875V131.5C125.315 131.088 124.984 130.753 124.572 130.75H120.13L119.434 129.798C119.24 129.532 118.93 129.375 118.601 129.375Z" fill="black"/>
<mask id="mask7_1501_7088" style="mask-type:luminance" maskUnits="userSpaceOnUse" x="115" y="129" width="11" height="9">
<path fill-rule="evenodd" clip-rule="evenodd" d="M118.601 130.062C118.711 130.063 118.814 130.115 118.879 130.203L119.575 131.156L119.781 131.438H124.572C124.604 131.441 124.627 131.468 124.625 131.5V136.875C124.627 136.907 124.604 136.934 124.572 136.938H116.428C116.396 136.934 116.373 136.907 116.375 136.875V130.125C116.373 130.093 116.396 130.066 116.428 130.062H118.601ZM118.601 129.375H116.428C116.016 129.378 115.685 129.713 115.688 130.125V136.875C115.685 137.287 116.016 137.622 116.428 137.625H124.572C124.984 137.622 125.315 137.287 125.313 136.875V131.5C125.315 131.088 124.984 130.753 124.572 130.75H120.13L119.434 129.798C119.24 129.532 118.93 129.375 118.601 129.375Z" fill="white"/>
</mask>
<g mask="url(#mask7_1501_7088)">
</g>
<path fill-rule="evenodd" clip-rule="evenodd" d="M126.281 147.656L129.531 150.5L126.281 153.344V147.656Z" fill="black"/>
<mask id="mask8_1501_7088" style="mask-type:luminance" maskUnits="userSpaceOnUse" x="126" y="147" width="4" height="7">
<path fill-rule="evenodd" clip-rule="evenodd" d="M126.281 147.656L129.531 150.5L126.281 153.344V147.656Z" fill="white"/>
</mask>
<g mask="url(#mask8_1501_7088)">
</g>
<path fill-rule="evenodd" clip-rule="evenodd" d="M126.281 166.656L129.531 169.5L126.281 172.344V166.656Z" fill="black"/>
<mask id="mask9_1501_7088" style="mask-type:luminance" maskUnits="userSpaceOnUse" x="126" y="166" width="4" height="7">
<path fill-rule="evenodd" clip-rule="evenodd" d="M126.281 166.656L129.531 169.5L126.281 172.344V166.656Z" fill="white"/>
</mask>
<g mask="url(#mask9_1501_7088)">
</g>
<path fill-rule="evenodd" clip-rule="evenodd" d="M137.601 146.062C137.711 146.063 137.814 146.115 137.879 146.203L138.575 147.156L138.781 147.438H143.572C143.604 147.441 143.627 147.468 143.625 147.5V152.875C143.627 152.907 143.604 152.934 143.572 152.938H135.428C135.396 152.934 135.373 152.907 135.375 152.875V146.125C135.373 146.093 135.396 146.066 135.428 146.062H137.601ZM137.601 145.375H135.428C135.016 145.378 134.685 145.713 134.688 146.125V152.875C134.685 153.287 135.016 153.622 135.428 153.625H143.572C143.984 153.622 144.315 153.287 144.313 152.875V147.5C144.315 147.088 143.984 146.753 143.572 146.75H139.13L138.434 145.798C138.24 145.532 137.93 145.375 137.601 145.375Z" fill="black"/>
<mask id="mask10_1501_7088" style="mask-type:luminance" maskUnits="userSpaceOnUse" x="134" y="145" width="11" height="9">
<path fill-rule="evenodd" clip-rule="evenodd" d="M137.601 146.062C137.711 146.063 137.814 146.115 137.879 146.203L138.575 147.156L138.781 147.438H143.572C143.604 147.441 143.627 147.468 143.625 147.5V152.875C143.627 152.907 143.604 152.934 143.572 152.938H135.428C135.396 152.934 135.373 152.907 135.375 152.875V146.125C135.373 146.093 135.396 146.066 135.428 146.062H137.601ZM137.601 145.375H135.428C135.016 145.378 134.685 145.713 134.688 146.125V152.875C134.685 153.287 135.016 153.622 135.428 153.625H143.572C143.984 153.622 144.315 153.287 144.313 152.875V147.5C144.315 147.088 143.984 146.753 143.572 146.75H139.13L138.434 145.798C138.24 145.532 137.93 145.375 137.601 145.375Z" fill="white"/>
</mask>
<g mask="url(#mask10_1501_7088)">
</g>
<path fill-rule="evenodd" clip-rule="evenodd" d="M137.601 165.062C137.711 165.063 137.814 165.115 137.879 165.203L138.575 166.156L138.781 166.438H143.572C143.604 166.441 143.627 166.468 143.625 166.5V171.875C143.627 171.907 143.604 171.934 143.572 171.938H135.428C135.396 171.934 135.373 171.907 135.375 171.875V165.125C135.373 165.093 135.396 165.066 135.428 165.062H137.601ZM137.601 164.375H135.428C135.016 164.378 134.685 164.713 134.688 165.125V171.875C134.685 172.287 135.016 172.622 135.428 172.625H143.572C143.984 172.622 144.315 172.287 144.313 171.875V166.5C144.315 166.088 143.984 165.753 143.572 165.75H139.13L138.434 164.798C138.24 164.532 137.93 164.375 137.601 164.375Z" fill="black"/>
<mask id="mask11_1501_7088" style="mask-type:luminance" maskUnits="userSpaceOnUse" x="134" y="164" width="11" height="9">
<path fill-rule="evenodd" clip-rule="evenodd" d="M137.601 165.062C137.711 165.063 137.814 165.115 137.879 165.203L138.575 166.156L138.781 166.438H143.572C143.604 166.441 143.627 166.468 143.625 166.5V171.875C143.627 171.907 143.604 171.934 143.572 171.938H135.428C135.396 171.934 135.373 171.907 135.375 171.875V165.125C135.373 165.093 135.396 165.066 135.428 165.062H137.601ZM137.601 164.375H135.428C135.016 164.378 134.685 164.713 134.688 165.125V171.875C134.685 172.287 135.016 172.622 135.428 172.625H143.572C143.984 172.622 144.315 172.287 144.313 171.875V166.5C144.315 166.088 143.984 165.753 143.572 165.75H139.13L138.434 164.798C138.24 164.532 137.93 164.375 137.601 164.375Z" fill="white"/>
</mask>
<g mask="url(#mask11_1501_7088)">
</g>
</svg>
