<?xml version="1.0" encoding="UTF-8"?>
<svg width="32px" height="32px" viewBox="0 0 32 32" version="1.1" xmlns="http://www.w3.org/2000/svg" xmlns:xlink="http://www.w3.org/1999/xlink">
    <!-- Generator: Sketch 61 (89581) - https://sketch.com -->
    <title>mapbox</title>
    <desc>Created with Sketch.</desc>
    <g id="mapbox" stroke="none" stroke-width="1" fill="none" fill-rule="evenodd">
        <g id="Shape-Copy-5" fill="#161616" fill-rule="nonzero">
            <path d="M16,0 C7.16310461,0 0,7.16310461 0,16 C0,24.8368954 7.16310461,32 16,32 C24.8368954,32 32,24.8368954 32,16 C32,7.16310461 24.8368954,0 16,0 Z M23.5950506,19.9235095 C18.1237345,25.3948256 8.35095612,23.6490439 8.35095612,23.6490439 C8.35095612,23.6490439 6.5871766,13.8942632 12.0764904,8.40494939 C15.1181103,5.36332959 20.1574804,5.48931384 23.3430821,8.65691789 C26.5286839,11.8245219 26.6366704,16.8818897 23.5950506,19.9235095 L23.5950506,19.9235095 Z M17.8357705,9.3768279 L16.2699663,12.5984253 L13.048369,14.1642295 L16.2699663,15.7300338 L17.8357705,18.951631 L19.4015748,15.7300338 L22.6231721,14.1642295 L19.4015748,12.5984253 L17.8357705,9.3768279 Z" id="Shape-Copy-4"></path>
        </g>
    </g>
</svg>