<svg xmlns="http://www.w3.org/2000/svg" width="240" height="240" viewBox="0 0 240 240">
  <g fill="none" fill-rule="evenodd">
    <polygon fill="#97C1FF" fill-rule="nonzero" points="113.5 114.5 117.5 114.5 117.5 253.5 113.5 253.5" transform="rotate(90 115.5 184)"/>
    <rect width="4" height="106" x="97" y="126" fill="#0062FF" fill-rule="nonzero" transform="rotate(90 99 179)"/>
    <polygon fill="#97C1FF" fill-rule="nonzero" points="86 116 90 116 90 200 86 200" transform="rotate(90 88 158)"/>
    <rect width="4" height="51" x="69.5" y="127.5" fill="#0062FF" fill-rule="nonzero" transform="rotate(90 71.5 153)"/>
    <polygon fill="#97C1FF" fill-rule="nonzero" points="92 84 96 84 96 180 92 180" transform="rotate(90 94 132)"/>
    <rect width="4" height="31" x="59.5" y="111.5" fill="#0062FF" fill-rule="nonzero" transform="rotate(90 61.5 127)"/>
    <rect width="4" height="148" x="118" y="32" fill="#97C1FF" fill-rule="nonzero" transform="rotate(90 120 106)"/>
    <rect width="4" height="86" x="87" y="58" fill="#0062FF" fill-rule="nonzero" transform="rotate(90 89 101)"/>
  </g>
</svg>
