<svg xmlns="http://www.w3.org/2000/svg" width="150" height="87" viewBox="0 0 150 87">
  <g fill="none" transform="translate(.5)">
    <polygon fill="#97C1FF" points="68 15.5 72 15.5 72 154.5 68 154.5" transform="rotate(90 70 85)"/>
    <rect width="4" height="106" x="51.5" y="27" fill="#0062FF" transform="rotate(90 53.5 80)"/>
    <polygon fill="#97C1FF" points="40.5 17 44.5 17 44.5 101 40.5 101" transform="rotate(90 42.5 59)"/>
    <rect width="4" height="51" x="24" y="28.5" fill="#0062FF" transform="rotate(90 26 54)"/>
    <polygon fill="#97C1FF" points="46.5 -15 50.5 -15 50.5 81 46.5 81" transform="rotate(90 48.5 33)"/>
    <rect width="4" height="31" x="14" y="12.5" fill="#0062FF" transform="rotate(90 16 28)"/>
    <rect width="4" height="148" x="72.5" y="-67" fill="#97C1FF" transform="rotate(90 74.5 7)"/>
    <rect width="4" height="86" x="41.5" y="-41" fill="#0062FF" transform="rotate(90 43.5 2)"/>
  </g>
</svg>
