<?xml version="1.0" encoding="UTF-8"?>
<svg width="239px" height="239px" viewBox="0 0 239 239" version="1.1" xmlns="http://www.w3.org/2000/svg" xmlns:xlink="http://www.w3.org/1999/xlink">
	<title>network-diagram </title>
	<g id="network-diagram-" stroke="none" stroke-width="1" fill="none" fill-rule="evenodd">
		<g id="Group-3" transform="translate(33.000000, 103.000000)">
			<rect id="Rectangle" fill="#A6C8FF" x="0" y="0" width="26.973822" height="11.4545455"></rect>
			<rect id="Rectangle-Copy-2" fill="#A6C8FF" x="43.8324607" y="0" width="26.973822" height="11.4545455"></rect>
			<rect id="Rectangle-Copy-6" fill="#A6C8FF" x="87.6649215" y="0" width="26.973822" height="11.4545455"></rect>
			<rect id="Rectangle-Copy-11" fill="#A6C8FF" x="87.6649215" y="36.2727273" width="26.973822" height="11.4545455"></rect>
			<rect id="Rectangle-Copy-10" fill="#A6C8FF" x="87.6649215" y="18.1363636" width="26.973822" height="11.4545455"></rect>
			<rect id="Rectangle-Copy-16" fill="#A6C8FF" x="134.026178" y="36.2727273" width="26.973822" height="11.4545455"></rect>
			<rect id="Rectangle-Copy-17" fill="#A6C8FF" x="134.026178" y="54.4090909" width="26.973822" height="11.4545455"></rect>
			<rect id="Rectangle-Copy-18" fill="#A6C8FF" x="134.026178" y="72.5454545" width="26.973822" height="11.4545455"></rect>
			<rect id="Rectangle-Copy-23" fill="#A6C8FF" x="134.026178" y="0" width="26.973822" height="11.4545455"></rect>
			<rect id="Rectangle-Copy-3" fill="#A6C8FF" x="43.8324607" y="18.1363636" width="26.973822" height="11.4545455"></rect>
			<rect id="Rectangle-Copy-5" fill="#A6C8FF" x="43.8324607" y="36.2727273" width="26.973822" height="11.4545455"></rect>
			<rect id="Rectangle-Copy-12" fill="#A6C8FF" x="43.8324607" y="72.5454545" width="26.973822" height="11.4545455"></rect>
			<rect id="Rectangle-Copy-9" fill="#A6C8FF" x="43.8324607" y="54.4090909" width="26.973822" height="11.4545455"></rect>
			<path d="M115.481675,8.59090909 L121.669787,8.59090909 C122.524187,8.59090909 123.216816,9.27469238 123.216816,10.1181818 L123.216816,23.212782 C123.216816,23.9769777 123.813569,24.8181818 124.777363,24.8181818 C125.419892,24.8181818 127.378921,24.8181818 130.65445,24.8181818" id="Rectangle-Copy-15" stroke="#0F62FE" stroke-width="0.6" stroke-dasharray="0.6400000095367432,0.6400000095367432" transform="translate(123.068063, 16.704545) scale(1, -1) translate(-123.068063, -16.704545) "></path>
			<g id="Group-2" transform="translate(26.973822, 2.213904)">
				<line x1="0" y1="1.60427807" x2="15.1727749" y2="1.60427807" id="Path-2" stroke="#0F62FE" stroke-width="0.6"></line>
				<polygon id="Rectangle-Copy-13" fill="#0F62FE" transform="translate(15.419332, 1.604278) scale(-1, 1) translate(-15.419332, -1.604278) " points="16.6837304 -1.82418697e-13 16.6837304 3.20855615 14.1549346 1.60427807"></polygon>
			</g>
			<g id="Group-2-Copy" transform="translate(70.806283, 2.213904)">
				<line x1="0" y1="1.60427807" x2="15.1727749" y2="1.60427807" id="Path-2" stroke="#0F62FE" stroke-width="0.6"></line>
				<polygon id="Rectangle-Copy-13" fill="#0F62FE" transform="translate(15.419332, 1.604278) scale(-1, 1) translate(-15.419332, -1.604278) " points="16.6837304 -1.82418697e-13 16.6837304 3.20855615 14.1549346 1.60427807"></polygon>
			</g>
			<g id="Group-2-Copy-4" transform="translate(124.666473, 3.818182) scale(-1, 1) translate(-124.666473, -3.818182) translate(114.638743, 2.213904)">
				<line x1="0" y1="1.60427807" x2="17.7015707" y2="1.60427807" id="Path-2" stroke="#0F62FE" stroke-width="0.6"></line>
				<polygon id="Rectangle-Copy-13" fill="#0F62FE" transform="translate(18.791060, 1.604278) scale(-1, 1) translate(-18.791060, -1.604278) " points="20.0554581 -1.82418697e-13 20.0554581 3.20855615 17.5266623 1.60427807"></polygon>
			</g>
			<g id="Group-2-Copy-5" transform="translate(124.666473, 40.090909) scale(-1, 1) translate(-124.666473, -40.090909) translate(114.638743, 38.486631)">
				<line x1="0" y1="1.60427807" x2="17.7015707" y2="1.60427807" id="Path-2" stroke="#0F62FE" stroke-width="0.6"></line>
				<polygon id="Rectangle-Copy-13" fill="#0F62FE" transform="translate(18.791060, 1.604278) scale(-1, 1) translate(-18.791060, -1.604278) " points="20.0554581 -1.82418697e-13 20.0554581 3.20855615 17.5266623 1.60427807"></polygon>
			</g>
			<g id="Group-2-Copy-2" transform="translate(70.806283, 20.350267)">
				<line x1="0" y1="1.60427807" x2="15.1727749" y2="1.60427807" id="Path-2" stroke="#0F62FE" stroke-width="0.6"></line>
				<polygon id="Rectangle-Copy-13" fill="#0F62FE" transform="translate(15.419332, 1.604278) scale(-1, 1) translate(-15.419332, -1.604278) " points="16.6837304 -1.82418697e-13 16.6837304 3.20855615 14.1549346 1.60427807"></polygon>
			</g>
			<g id="Group-2-Copy-3" transform="translate(70.806283, 38.486631)">
				<line x1="0" y1="1.60427807" x2="15.1727749" y2="1.60427807" id="Path-2" stroke="#0F62FE" stroke-width="0.6"></line>
				<polygon id="Rectangle-Copy-13" fill="#0F62FE" transform="translate(15.419332, 1.604278) scale(-1, 1) translate(-15.419332, -1.604278) " points="16.6837304 -1.82418697e-13 16.6837304 3.20855615 14.1549346 1.60427807"></polygon>
			</g>
			<polygon id="Rectangle-Copy-14" fill="#0F62FE" transform="translate(42.393154, 21.954545) scale(-1, 1) translate(-42.393154, -21.954545) " points="43.6575524 20.3502674 43.6575524 23.5588235 41.1287565 21.9545455"></polygon>
			<g id="Group" transform="translate(32.874346, 19.090909)">
				<polygon id="Rectangle-Copy-21" fill="#0F62FE" transform="translate(9.518809, 21.000000) scale(-1, 1) translate(-9.518809, -21.000000) " points="10.7832068 19.3957219 10.7832068 22.6042781 8.25441099 21"></polygon>
				<path d="M0,0 L0,19.4 C1.082166e-16,20.2836556 0.7163444,21 1.6,21 L8.42931937,21 L8.42931937,21" id="Path-3-Copy" stroke="#0F62FE" stroke-width="0.6"></path>
			</g>
			<g id="Group-Copy" transform="translate(32.874346, 37.227273)">
				<polygon id="Rectangle-Copy-21" fill="#0F62FE" transform="translate(9.518809, 21.000000) scale(-1, 1) translate(-9.518809, -21.000000) " points="10.7832068 19.3957219 10.7832068 22.6042781 8.25441099 21"></polygon>
				<path d="M0,0 L0,19.4 C1.082166e-16,20.2836556 0.7163444,21 1.6,21 L8.42931937,21 L8.42931937,21" id="Path-3-Copy" stroke="#0F62FE" stroke-width="0.6"></path>
			</g>
			<g id="Group-Copy-2" transform="translate(32.874346, 55.363636)">
				<polygon id="Rectangle-Copy-21" fill="#0F62FE" transform="translate(9.518809, 21.000000) scale(-1, 1) translate(-9.518809, -21.000000) " points="10.7832068 19.3957219 10.7832068 22.6042781 8.25441099 21"></polygon>
				<path d="M0,0 L0,19.4 C1.082166e-16,20.2836556 0.7163444,21 1.6,21 L8.42931937,21 L8.42931937,21" id="Path-3-Copy" stroke="#0F62FE" stroke-width="0.6"></path>
			</g>
			<g id="Group-Copy-3" transform="translate(124.753927, 55.363636)">
				<polygon id="Rectangle-Copy-21" fill="#0F62FE" transform="translate(7.832945, 21.000000) scale(-1, 1) translate(-7.832945, -21.000000) " points="9.09734293 19.3957219 9.09734293 22.6042781 6.56854712 21"></polygon>
				<path d="M0,0 L0,19.4 C1.082166e-16,20.2836556 0.7163444,21 1.6,21 L6.7434555,21 L6.7434555,21" id="Path-3-Copy" stroke="#0F62FE" stroke-width="0.6"></path>
			</g>
			<path d="M26.973822,3.81818182 L31.2743455,3.81818182 C32.1580011,3.81818182 32.8743455,4.53452622 32.8743455,5.41818182 L32.8743455,20.3545455 C32.8743455,21.2382011 33.59069,21.9545455 34.4743455,21.9545455 L41.3036649,21.9545455 L41.3036649,21.9545455" id="Path-3" stroke="#0F62FE" stroke-width="0.6"></path>
			<path d="M118.853403,40.0909091 L123.153927,40.0909091 C124.037582,40.0909091 124.753927,40.8072535 124.753927,41.6909091 L124.753927,56.6272727 C124.753927,57.5109283 125.470271,58.2272727 126.353927,58.2272727 L133.183246,58.2272727 L133.183246,58.2272727" id="Path-3-Copy-2" stroke="#0F62FE" stroke-width="0.6"></path>
			<polygon id="Rectangle-Copy-13" fill="#0F62FE" transform="translate(132.586872, 58.227273) scale(-1, 1) translate(-132.586872, -58.227273) " points="133.85127 56.6229947 133.85127 59.8315508 131.322474 58.2272727"></polygon>
			<polygon id="Rectangle-Copy-19" fill="#0F62FE" transform="translate(132.761780, 8.590909) scale(-1, 1) translate(-132.761780, -8.590909) " points="134.026178 6.98663102 134.026178 10.1951872 131.497382 8.59090909"></polygon>
		</g>
	</g>
</svg>