<?xml version="1.0" encoding="UTF-8"?>
<svg width="239px" height="239px" viewBox="0 0 239 239" version="1.1" xmlns="http://www.w3.org/2000/svg" xmlns:xlink="http://www.w3.org/1999/xlink">
	<title>network-diagram </title>
	<g id="network-diagram-" stroke="none" stroke-width="1" fill="none" fill-rule="evenodd">
		<g id="Group-3" transform="translate(24.000000, 100.000000)">
			<rect id="Rectangle" fill="#0F62FE" x="0" y="0" width="32" height="12"></rect>
			<rect id="Rectangle-Copy-2" fill="#0F62FE" x="52" y="0" width="32" height="12"></rect>
			<rect id="Rectangle-Copy-6" fill="#0F62FE" x="104" y="0" width="32" height="12"></rect>
			<rect id="Rectangle-Copy-11" fill="#0F62FE" x="104" y="38" width="32" height="12"></rect>
			<rect id="Rectangle-Copy-10" fill="#0F62FE" x="104" y="19" width="32" height="12"></rect>
			<rect id="Rectangle-Copy-16" fill="#0F62FE" x="159" y="38" width="32" height="12"></rect>
			<rect id="Rectangle-Copy-17" fill="#0F62FE" x="159" y="57" width="32" height="12"></rect>
			<rect id="Rectangle-Copy-18" fill="#0F62FE" x="159" y="76" width="32" height="12"></rect>
			<rect id="Rectangle-Copy-23" fill="#0F62FE" x="159" y="0" width="32" height="12"></rect>
			<rect id="Rectangle-Copy-3" fill="#0F62FE" x="52" y="19" width="32" height="12"></rect>
			<rect id="Rectangle-Copy-5" fill="#0F62FE" x="52" y="38" width="32" height="12"></rect>
			<rect id="Rectangle-Copy-12" fill="#0F62FE" x="52" y="76" width="32" height="12"></rect>
			<rect id="Rectangle-Copy-9" fill="#0F62FE" x="52" y="57" width="32" height="12"></rect>
			<path d="M137,9 L144.341176,9 C145.354781,9 146.176471,9.7163444 146.176471,10.6 L146.176471,24.3181526 C146.176471,25.1187385 146.884421,26 148.027803,26 C148.790058,26 151.114124,26 155,26" id="Rectangle-Copy-15" stroke="#0F62FE" stroke-width="0.75" stroke-dasharray="0.8,0.8" transform="translate(146.000000, 17.500000) scale(1, -1) translate(-146.000000, -17.500000) "></path>
			<g id="Group-2" transform="translate(32.000000, 2.319328)">
				<line x1="0" y1="1.68067227" x2="18" y2="1.68067227" id="Path-2" stroke="#0F62FE" stroke-width="0.75"></line>
				<polygon id="Rectangle-Copy-13" fill="#0F62FE" transform="translate(18.292500, 1.680672) scale(-1, 1) translate(-18.292500, -1.680672) " points="19.7925 -1.91105302e-13 19.7925 3.36134454 16.7925 1.68067227"></polygon>
			</g>
			<g id="Group-2-Copy" transform="translate(84.000000, 2.319328)">
				<line x1="0" y1="1.68067227" x2="18" y2="1.68067227" id="Path-2" stroke="#0F62FE" stroke-width="0.75"></line>
				<polygon id="Rectangle-Copy-13" fill="#0F62FE" transform="translate(18.292500, 1.680672) scale(-1, 1) translate(-18.292500, -1.680672) " points="19.7925 -1.91105302e-13 19.7925 3.36134454 16.7925 1.68067227"></polygon>
			</g>
			<g id="Group-2-Copy-4" transform="translate(147.896250, 4.000000) scale(-1, 1) translate(-147.896250, -4.000000) translate(136.000000, 2.319328)">
				<line x1="0" y1="1.68067227" x2="21" y2="1.68067227" id="Path-2" stroke="#0F62FE" stroke-width="0.75"></line>
				<polygon id="Rectangle-Copy-13" fill="#0F62FE" transform="translate(22.292500, 1.680672) scale(-1, 1) translate(-22.292500, -1.680672) " points="23.7925 -1.91105302e-13 23.7925 3.36134454 20.7925 1.68067227"></polygon>
			</g>
			<g id="Group-2-Copy-5" transform="translate(147.896250, 42.000000) scale(-1, 1) translate(-147.896250, -42.000000) translate(136.000000, 40.319328)">
				<line x1="0" y1="1.68067227" x2="21" y2="1.68067227" id="Path-2" stroke="#0F62FE" stroke-width="0.75"></line>
				<polygon id="Rectangle-Copy-13" fill="#0F62FE" transform="translate(22.292500, 1.680672) scale(-1, 1) translate(-22.292500, -1.680672) " points="23.7925 -1.91105302e-13 23.7925 3.36134454 20.7925 1.68067227"></polygon>
			</g>
			<g id="Group-2-Copy-2" transform="translate(84.000000, 21.319328)">
				<line x1="0" y1="1.68067227" x2="18" y2="1.68067227" id="Path-2" stroke="#0F62FE" stroke-width="0.75"></line>
				<polygon id="Rectangle-Copy-13" fill="#0F62FE" transform="translate(18.292500, 1.680672) scale(-1, 1) translate(-18.292500, -1.680672) " points="19.7925 -1.91105302e-13 19.7925 3.36134454 16.7925 1.68067227"></polygon>
			</g>
			<g id="Group-2-Copy-3" transform="translate(84.000000, 40.319328)">
				<line x1="0" y1="1.68067227" x2="18" y2="1.68067227" id="Path-2" stroke="#0F62FE" stroke-width="0.75"></line>
				<polygon id="Rectangle-Copy-13" fill="#0F62FE" transform="translate(18.292500, 1.680672) scale(-1, 1) translate(-18.292500, -1.680672) " points="19.7925 -1.91105302e-13 19.7925 3.36134454 16.7925 1.68067227"></polygon>
			</g>
			<polygon id="Rectangle-Copy-14" fill="#0F62FE" transform="translate(50.292500, 23.000000) scale(-1, 1) translate(-50.292500, -23.000000) " points="51.7925 21.3193277 51.7925 24.6806723 48.7925 23"></polygon>
			<g id="Group" transform="translate(39.000000, 20.000000)">
				<polygon id="Rectangle-Copy-21" fill="#0F62FE" transform="translate(11.292500, 22.000000) scale(-1, 1) translate(-11.292500, -22.000000) " points="12.7925 20.3193277 12.7925 23.6806723 9.7925 22"></polygon>
				<path d="M0,0 L0,20 C1.3527075e-16,21.1045695 0.8954305,22 2,22 L10,22 L10,22" id="Path-3-Copy" stroke="#0F62FE" stroke-width="0.75"></path>
			</g>
			<g id="Group-Copy" transform="translate(39.000000, 39.000000)">
				<polygon id="Rectangle-Copy-21" fill="#0F62FE" transform="translate(11.292500, 22.000000) scale(-1, 1) translate(-11.292500, -22.000000) " points="12.7925 20.3193277 12.7925 23.6806723 9.7925 22"></polygon>
				<path d="M0,0 L0,20 C1.3527075e-16,21.1045695 0.8954305,22 2,22 L10,22 L10,22" id="Path-3-Copy" stroke="#0F62FE" stroke-width="0.75"></path>
			</g>
			<g id="Group-Copy-2" transform="translate(39.000000, 58.000000)">
				<polygon id="Rectangle-Copy-21" fill="#0F62FE" transform="translate(11.292500, 22.000000) scale(-1, 1) translate(-11.292500, -22.000000) " points="12.7925 20.3193277 12.7925 23.6806723 9.7925 22"></polygon>
				<path d="M0,0 L0,20 C1.3527075e-16,21.1045695 0.8954305,22 2,22 L10,22 L10,22" id="Path-3-Copy" stroke="#0F62FE" stroke-width="0.75"></path>
			</g>
			<g id="Group-Copy-3" transform="translate(148.000000, 58.000000)">
				<polygon id="Rectangle-Copy-21" fill="#0F62FE" transform="translate(9.292500, 22.000000) scale(-1, 1) translate(-9.292500, -22.000000) " points="10.7925 20.3193277 10.7925 23.6806723 7.7925 22"></polygon>
				<path d="M0,0 L0,20 C1.3527075e-16,21.1045695 0.8954305,22 2,22 L8,22 L8,22" id="Path-3-Copy" stroke="#0F62FE" stroke-width="0.75"></path>
			</g>
			<path d="M32,4 L37,4 C38.1045695,4 39,4.8954305 39,6 L39,21 C39,22.1045695 39.8954305,23 41,23 L49,23 L49,23" id="Path-3" stroke="#0F62FE" stroke-width="0.75"></path>
			<path d="M141,42 L146,42 C147.104569,42 148,42.8954305 148,44 L148,59 C148,60.1045695 148.895431,61 150,61 L158,61 L158,61" id="Path-3-Copy-2" stroke="#0F62FE" stroke-width="0.75"></path>
			<polygon id="Rectangle-Copy-13" fill="#0F62FE" transform="translate(157.292500, 61.000000) scale(-1, 1) translate(-157.292500, -61.000000) " points="158.7925 59.3193277 158.7925 62.6806723 155.7925 61"></polygon>
			<polygon id="Rectangle-Copy-19" fill="#0F62FE" transform="translate(157.500000, 9.000000) scale(-1, 1) translate(-157.500000, -9.000000) " points="159 7.31932773 159 10.6806723 156 9"></polygon>
		</g>
	</g>
</svg>