<svg xmlns="http://www.w3.org/2000/svg" width="240" height="240" viewBox="0 0 240 240">
  <g fill="none" fill-rule="evenodd">
    <path fill="#6EA6FF" fill-rule="nonzero" d="M120.312127,141.246 L148.286423,189.699793 C140.080514,194.344633 130.597451,196.996 120.495127,196.996 C89.6030797,196.996 64.5016362,172.203477 64.0026966,141.430331 L64.0011272,141.246 L120.312127,141.246 Z"/>
    <path fill="#0062FF" fill-rule="nonzero" d="M121.495127,84.0046791 C152.238098,84.5384611 176.995127,109.626074 176.995127,140.496 C176.995127,161.061759 166.007173,179.061144 149.581698,188.943723 L121.495127,140.295 L121.495127,84.0046791 Z"/>
    <path fill="#C9DEFF" fill-rule="nonzero" d="M105.377019,86.0413342 L119.767127,139.74625 L64,139.74625 C64.3334344,114.107885 81.7436868,92.5883341 105.377019,86.0413342 Z"/>
    <path fill="#97C1FF" fill-rule="nonzero" d="M119.995127,84 L119.995127,134.801 L106.828257,85.6601381 C110.914824,84.6449597 115.17713,84.0746439 119.560796,84.0035694 L119.995127,84 Z"/>
  </g>
</svg>
