<?xml version="1.0" encoding="UTF-8"?>
<svg width="240px" height="240px" viewBox="0 0 240 240" version="1.1" xmlns="http://www.w3.org/2000/svg" xmlns:xlink="http://www.w3.org/1999/xlink">
    <!-- Generator: Sketch 58 (84663) - https://sketch.com -->
    <title>Radar Copy 20</title>
    <desc>Created with Sketch.</desc>
    <g id="Data-vis-pages" stroke="none" stroke-width="1" fill="none" fill-rule="evenodd">
        <g id="Dataviz-overview-1-Copy-2" transform="translate(48, 64)">
            <g id="Radar-Copy-20">
                <g id="Radar-Copy-19" transform="translate(0.645520, 0.000000)">
                    <g id="Example">
                        <g id="chart2">
                            <g id="Grid" transform="translate(0.104133, 0.095528)" opacity="0.15" stroke="#8D8D8D">
                                <polygon id="Polygon" points="72.0575224 0.369627579 143.924156 52.7243748 116.473544 137.436135 27.6415004 137.436135 0.190889123 52.7243748"></polygon>
                                <polygon id="Polygon" points="72.7147778 15.3568038 130.995447 57.8141938 108.734212 126.511694 36.6953436 126.511694 14.434109 57.8141938"></polygon>
                                <polygon id="Polygon" points="73.0955039 27.4298068 120.219862 61.7598393 102.219959 117.306999 43.9710489 117.306999 25.9711457 61.7598393"></polygon>
                                <polygon id="Polygon" stroke-width="0.6" points="73.3031002 38.2538785 110.670433 65.4759307 96.3973817 109.522136 50.2088187 109.522136 35.9357677 65.4759307"></polygon>
                                <polygon id="Polygon" stroke-width="0.6" points="73.154735 47.2667698 102.541399 68.6749156 91.3166921 103.314023 54.9927778 103.314023 43.768071 68.6749156"></polygon>
                                <ellipse id="Oval-2" stroke-width="0.6" cx="74.1334854" cy="79.0204935" rx="2.4911555" ry="2.4978627"></ellipse>
                                <path d="M27.7610061,137.083007 L73.2313133,80.1040232" id="Line" stroke-linecap="square"></path>
                                <path d="M116.226079,137.453502 L74.3994965,79.2858476" id="Line" stroke-linecap="square"></path>
                                <path d="M143.987085,52.9807299 L73.659203,79.6563422" id="Line" stroke-linecap="square"></path>
                                <path d="M0.740293497,53.3512245 L74.0293497,78.5448583" id="Line" stroke-linecap="square"></path>
                                <path d="M72.178616,1.11148384 L74.0293497,78.5448583" id="Line" stroke-linecap="square"></path>
                            </g>
                            <g id="data" transform="translate(21.203176, 32.054938)" fill="#0062FF" fill-opacity="0.3" stroke="#0062FF" stroke-width="1.5">
                                <path d="M1.81342942,28.7055883 C2.12334147,29.1812843 2.32525183,29.4911577 2.6437278,29.9798426 C3.65875503,31.5373491 4.79030117,33.272864 6.00953298,35.1418829 C9.49303658,40.4819124 12.981301,45.8219311 16.2436422,50.8058762 C16.3014472,50.8941853 16.3014472,50.8941853 16.3592532,50.9824928 C20.5270734,57.3494184 24.0089002,62.6502243 26.577392,66.5340164 C28.0347168,68.7376233 29.1786445,70.4556877 29.9803042,71.6436861 C30.4017542,72.2682429 30.7271739,72.7441604 30.9520508,73.064624 C31.0643273,73.2246251 31.1504411,73.3442818 31.2080486,73.4205252 C31.0235962,73.1764028 31.0057066,73.1411093 30.9752499,73.1632135 C31.9961545,73.5568302 39.3137795,75.7601057 57.9587212,81.4002435 C58.0162672,81.4176513 58.0162672,81.4176513 58.0738129,81.4350593 C63.9680452,83.218107 70.276112,85.1285062 76.5794065,87.0389042 C78.7855563,87.7075426 80.833529,88.3284213 82.6709973,88.885621 C83.5610044,89.1555208 83.677232,89.1907675 84.1408355,89.3313777 L91.7364418,34.6640232 C91.6986783,34.6319516 91.6551525,34.5949863 91.6047196,34.5521549 C91.1006866,34.1241782 90.8195151,33.8854865 90.3442827,33.4821841 C88.9864465,32.3298667 87.4723192,31.0458456 85.8403368,29.6630499 C81.1775672,25.7122364 76.5045687,21.7614372 72.1288723,18.0741197 C72.0038784,17.9687921 72.0038784,17.9687921 71.878879,17.8634695 C66.2544263,13.124501 61.5588372,9.19009581 58.1007701,6.3246666 C56.1390752,4.69916378 54.6020353,3.43964802 53.5293614,2.58005251 C52.9671512,2.12952099 52.5349966,1.79087223 52.2401644,1.56998477 C52.2136174,1.55009587 52.1882795,1.53123548 52.164186,1.5134256 C50.1226516,2.68236301 42.3888951,6.86384774 26.9210919,15.196664 C26.871148,15.2235696 26.871148,15.2235696 26.821204,15.2504752 C21.1934905,18.2821969 15.163835,21.5271042 9.1341848,24.7697781 C7.02381134,25.9047117 5.06417761,26.9583005 3.30552868,27.9036162 C2.40168961,28.3894328 2.33159833,28.4271072 1.81342942,28.7055883 Z M52.1780624,1.50547645 C52.4135544,1.6417984 52.3779067,1.51720586 52.7205931,1.17419741 C52.6890145,1.20580564 52.5112452,1.31451739 52.1780624,1.50547645 Z" id="2"></path>
                            </g>
                        </g>
                    </g>
                </g>
            </g>
        </g>
    </g>
</svg>
