<svg width="32" height="32" viewBox="0 0 32 32" fill="none" xmlns="http://www.w3.org/2000/svg">
<rect width="32" height="32" fill="white" fill-opacity="0.01"/>
<path d="M16 10C14.4087 10 12.8826 10.6321 11.7574 11.7574C10.6321 12.8826 10 14.4087 10 16V24C10 25.5913 10.6321 27.1174 11.7574 28.2426C12.8826 29.3679 14.4087 30 16 30C17.5913 30 19.1174 29.3679 20.2426 28.2426C21.3679 27.1174 22 25.5913 22 24V16C22 14.4087 21.3679 12.8826 20.2426 11.7574C19.1174 10.6321 17.5913 10 16 10ZM11.75 17.87H20.25V22.12H11.75V17.87ZM16 28.25C14.8745 28.2447 13.7965 27.7953 13.0006 26.9994C12.2047 26.2035 11.7553 25.1256 11.75 24V23.87H20.25V24C20.2447 25.1256 19.7953 26.2035 18.9994 26.9994C18.2035 27.7953 17.1255 28.2447 16 28.25ZM20.25 16.12H11.75V16C11.75 14.8728 12.1978 13.7918 12.9948 12.9948C13.7918 12.1978 14.8728 11.75 16 11.75C17.1272 11.75 18.2082 12.1978 19.0052 12.9948C19.8022 13.7918 20.25 14.8728 20.25 16V16.12Z" fill="#161616"/>
<path d="M30.66 19.21L24 13V22.1C24 23.1609 24.4214 24.1783 25.1716 24.9284C25.9217 25.6786 26.9391 26.1 28 26.1C29.0609 26.1 30.0783 25.6786 30.8284 24.9284C31.5786 24.1783 32 23.1609 32 22.1C31.9971 21.5503 31.8759 21.0077 31.6447 20.5091C31.4135 20.0104 31.0777 19.5673 30.66 19.21ZM28 24.35C27.4033 24.35 26.831 24.1129 26.409 23.691C25.9871 23.269 25.75 22.6967 25.75 22.1V17L29.47 20.47C29.6938 20.6582 29.8747 20.8921 30.0006 21.156C30.1265 21.4199 30.1945 21.7077 30.2 22C30.2134 22.2996 30.1668 22.5989 30.0628 22.8802C29.9589 23.1616 29.7998 23.4193 29.5948 23.6382C29.3898 23.8572 29.1431 24.0329 28.8693 24.1552C28.5954 24.2774 28.2998 24.3436 28 24.35Z" fill="#161616"/>
<path d="M0 22.1C0 23.1609 0.421427 24.1783 1.17157 24.9284C1.92172 25.6786 2.93913 26.1 4 26.1C5.06087 26.1 6.07828 25.6786 6.82843 24.9284C7.57857 24.1783 8 23.1609 8 22.1V13L1.34 19.21C0.92485 19.5695 0.590731 20.0129 0.359734 20.5111C0.128736 21.0093 0.00612293 21.5509 0 22.1ZM2.48 20.54L6.25 17V22.1C6.25 22.6967 6.01295 23.269 5.59099 23.691C5.16903 24.1129 4.59674 24.35 4 24.35C3.40326 24.35 2.83097 24.1129 2.40901 23.691C1.98705 23.269 1.75 22.6967 1.75 22.1C1.75123 21.8026 1.81716 21.509 1.94322 21.2396C2.06928 20.9702 2.25244 20.7315 2.48 20.54Z" fill="#161616"/>
<path d="M15 5.5C15 4.80777 14.7947 4.13108 14.4101 3.55551C14.0256 2.97993 13.4789 2.53133 12.8394 2.26642C12.1999 2.00152 11.4961 1.9322 10.8172 2.06725C10.1382 2.2023 9.51461 2.53564 9.02513 3.02513C8.53564 3.51461 8.2023 4.13825 8.06725 4.81719C7.9322 5.49612 8.00151 6.19985 8.26642 6.83939C8.53133 7.47894 8.97993 8.02556 9.5555 8.41015C10.1311 8.79473 10.8078 9 11.5 9C12.4283 9 13.3185 8.63125 13.9749 7.97487C14.6313 7.3185 15 6.42826 15 5.5ZM9.75 5.5C9.75 5.15388 9.85264 4.81554 10.0449 4.52775C10.2372 4.23997 10.5105 4.01567 10.8303 3.88321C11.1501 3.75076 11.5019 3.7161 11.8414 3.78363C12.1809 3.85115 12.4927 4.01782 12.7374 4.26256C12.9822 4.50731 13.1489 4.81913 13.2164 5.15859C13.2839 5.49806 13.2492 5.84993 13.1168 6.1697C12.9843 6.48947 12.76 6.76278 12.4722 6.95507C12.1845 7.14737 11.8461 7.25 11.5 7.25C11.0375 7.2448 10.5954 7.05876 10.2683 6.73169C9.94124 6.40462 9.7552 5.96252 9.75 5.5Z" fill="#161616"/>
<path d="M20.5 2C19.8078 2 19.1311 2.20527 18.5555 2.58986C17.9799 2.97444 17.5313 3.52107 17.2664 4.16061C17.0015 4.80015 16.9322 5.50388 17.0673 6.18282C17.2023 6.86175 17.5356 7.48539 18.0251 7.97488C18.5146 8.46436 19.1383 8.7977 19.8172 8.93275C20.4961 9.0678 21.1999 8.99849 21.8394 8.73358C22.4789 8.46867 23.0256 8.02007 23.4101 7.4445C23.7947 6.86893 24 6.19224 24 5.5C24 4.57174 23.6313 3.68151 22.9749 3.02513C22.3185 2.36875 21.4283 2 20.5 2ZM20.5 7.25C20.1539 7.25 19.8155 7.14737 19.5278 6.95507C19.24 6.76278 19.0157 6.48947 18.8832 6.1697C18.7508 5.84993 18.7161 5.49806 18.7836 5.15859C18.8512 4.81913 19.0178 4.50731 19.2626 4.26256C19.5073 4.01782 19.8191 3.85115 20.1586 3.78363C20.4981 3.7161 20.8499 3.75076 21.1697 3.88321C21.4895 4.01567 21.7628 4.23997 21.9551 4.52775C22.1474 4.81554 22.25 5.15388 22.25 5.5C22.2448 5.96252 22.0588 6.40462 21.7317 6.73169C21.4046 7.05876 20.9625 7.2448 20.5 7.25Z" fill="#161616"/>
</svg>
